%TF.GenerationSoftware,KiCad,Pcbnew,6.0.11-2627ca5db0~126~ubuntu22.04.1*%
%TF.CreationDate,2023-06-07T19:59:22+02:00*%
%TF.ProjectId,asac-fc-rev-b,61736163-2d66-4632-9d72-65762d622e6b,B*%
%TF.SameCoordinates,Original*%
%TF.FileFunction,Copper,L4,Bot*%
%TF.FilePolarity,Positive*%
%FSLAX46Y46*%
G04 Gerber Fmt 4.6, Leading zero omitted, Abs format (unit mm)*
G04 Created by KiCad (PCBNEW 6.0.11-2627ca5db0~126~ubuntu22.04.1) date 2023-06-07 19:59:22*
%MOMM*%
%LPD*%
G01*
G04 APERTURE LIST*
G04 Aperture macros list*
%AMRoundRect*
0 Rectangle with rounded corners*
0 $1 Rounding radius*
0 $2 $3 $4 $5 $6 $7 $8 $9 X,Y pos of 4 corners*
0 Add a 4 corners polygon primitive as box body*
4,1,4,$2,$3,$4,$5,$6,$7,$8,$9,$2,$3,0*
0 Add four circle primitives for the rounded corners*
1,1,$1+$1,$2,$3*
1,1,$1+$1,$4,$5*
1,1,$1+$1,$6,$7*
1,1,$1+$1,$8,$9*
0 Add four rect primitives between the rounded corners*
20,1,$1+$1,$2,$3,$4,$5,0*
20,1,$1+$1,$4,$5,$6,$7,0*
20,1,$1+$1,$6,$7,$8,$9,0*
20,1,$1+$1,$8,$9,$2,$3,0*%
G04 Aperture macros list end*
%TA.AperFunction,ComponentPad*%
%ADD10R,0.850000X0.700000*%
%TD*%
%TA.AperFunction,ComponentPad*%
%ADD11R,1.270000X1.270000*%
%TD*%
%TA.AperFunction,ComponentPad*%
%ADD12O,2.100000X1.000000*%
%TD*%
%TA.AperFunction,ComponentPad*%
%ADD13O,1.800000X1.000000*%
%TD*%
%TA.AperFunction,ComponentPad*%
%ADD14C,1.300000*%
%TD*%
%TA.AperFunction,ComponentPad*%
%ADD15RoundRect,0.250000X0.250000X-0.625000X0.250000X0.625000X-0.250000X0.625000X-0.250000X-0.625000X0*%
%TD*%
%TA.AperFunction,SMDPad,CuDef*%
%ADD16R,1.500000X2.000000*%
%TD*%
%TA.AperFunction,SMDPad,CuDef*%
%ADD17R,3.800000X2.000000*%
%TD*%
%TA.AperFunction,SMDPad,CuDef*%
%ADD18RoundRect,0.250000X0.475000X-0.250000X0.475000X0.250000X-0.475000X0.250000X-0.475000X-0.250000X0*%
%TD*%
%TA.AperFunction,SMDPad,CuDef*%
%ADD19R,1.200000X0.900000*%
%TD*%
%TA.AperFunction,SMDPad,CuDef*%
%ADD20RoundRect,0.135000X-0.185000X0.135000X-0.185000X-0.135000X0.185000X-0.135000X0.185000X0.135000X0*%
%TD*%
%TA.AperFunction,SMDPad,CuDef*%
%ADD21O,1.500000X1.000000*%
%TD*%
%TA.AperFunction,SMDPad,CuDef*%
%ADD22RoundRect,0.135000X0.185000X-0.135000X0.185000X0.135000X-0.185000X0.135000X-0.185000X-0.135000X0*%
%TD*%
%TA.AperFunction,SMDPad,CuDef*%
%ADD23RoundRect,0.150000X-0.150000X0.587500X-0.150000X-0.587500X0.150000X-0.587500X0.150000X0.587500X0*%
%TD*%
%TA.AperFunction,ViaPad*%
%ADD24C,0.800000*%
%TD*%
%TA.AperFunction,ViaPad*%
%ADD25C,0.600000*%
%TD*%
%TA.AperFunction,Conductor*%
%ADD26C,0.635000*%
%TD*%
%TA.AperFunction,Conductor*%
%ADD27C,0.203200*%
%TD*%
%TA.AperFunction,Conductor*%
%ADD28C,0.304800*%
%TD*%
%TA.AperFunction,Conductor*%
%ADD29C,0.200000*%
%TD*%
%TA.AperFunction,Conductor*%
%ADD30C,0.250000*%
%TD*%
G04 APERTURE END LIST*
D10*
%TO.P,J4,1,Pin_1*%
%TO.N,/VBAT*%
X139775000Y-129750000D03*
X141375000Y-129050000D03*
X140575000Y-129050000D03*
X140575000Y-129750000D03*
X141375000Y-129750000D03*
X139775000Y-129050000D03*
X141375000Y-128350000D03*
X139775000Y-128350000D03*
X140575000Y-128350000D03*
D11*
%TO.P,J4,2,Pin_2*%
%TO.N,/M2*%
X141175000Y-126850000D03*
D10*
%TO.P,J4,3,Pin_3*%
%TO.N,GND*%
X139775000Y-124650000D03*
X140575000Y-123950000D03*
X140575000Y-125350000D03*
X141375000Y-124650000D03*
X141375000Y-123950000D03*
X141375000Y-125350000D03*
X140575000Y-124650000D03*
X139775000Y-125350000D03*
X139775000Y-123950000D03*
%TD*%
%TO.P,J9,1,Pin_1*%
%TO.N,/VBAT*%
X106749600Y-105777800D03*
X108349600Y-106477800D03*
X108349600Y-105777800D03*
X106749600Y-105077800D03*
X107549600Y-106477800D03*
X107549600Y-105777800D03*
X106749600Y-106477800D03*
X108349600Y-105077800D03*
X107549600Y-105077800D03*
D11*
%TO.P,J9,2,Pin_2*%
%TO.N,/M4*%
X106949600Y-107977800D03*
D10*
%TO.P,J9,3,Pin_3*%
%TO.N,GND*%
X108349600Y-110177800D03*
X107549600Y-110177800D03*
X106749600Y-109477800D03*
X107549600Y-110877800D03*
X106749600Y-110177800D03*
X108349600Y-110877800D03*
X106749600Y-110877800D03*
X107549600Y-109477800D03*
X108349600Y-109477800D03*
%TD*%
D12*
%TO.P,J10,13*%
%TO.N,N/C*%
X111523500Y-113140000D03*
%TO.P,J10,14*%
X111523500Y-121780000D03*
D13*
%TO.P,J10,15*%
X107343500Y-113140000D03*
%TO.P,J10,16*%
X107343500Y-121780000D03*
%TD*%
D14*
%TO.P,SW1,*%
%TO.N,*%
X141090000Y-119630000D03*
X141090000Y-115130000D03*
%TD*%
D15*
%TO.P,J3,1,Pin_1*%
%TO.N,/VBAT*%
X111580000Y-104000000D03*
%TO.P,J3,2,Pin_2*%
X113080000Y-104000000D03*
%TO.P,J3,3,Pin_3*%
%TO.N,GND*%
X114580000Y-104000000D03*
%TO.P,J3,4,Pin_4*%
X116080000Y-104000000D03*
%TD*%
D10*
%TO.P,J1,1,Pin_1*%
%TO.N,/VBAT*%
X139820000Y-105900000D03*
X141420000Y-106600000D03*
X141420000Y-105200000D03*
X139820000Y-105200000D03*
X140620000Y-105900000D03*
X140620000Y-105200000D03*
X140620000Y-106600000D03*
X139820000Y-106600000D03*
X141420000Y-105900000D03*
D11*
%TO.P,J1,2,Pin_2*%
%TO.N,/M1*%
X141170000Y-108100000D03*
D10*
%TO.P,J1,3,Pin_3*%
%TO.N,GND*%
X139820000Y-111000000D03*
X140620000Y-110300000D03*
X140620000Y-111000000D03*
X141420000Y-110300000D03*
X139820000Y-109600000D03*
X141420000Y-111000000D03*
X140620000Y-109600000D03*
X139820000Y-110300000D03*
X141420000Y-109600000D03*
%TD*%
D15*
%TO.P,J15,1,Pin_1*%
%TO.N,/SCL1*%
X123720000Y-100850000D03*
%TO.P,J15,2,Pin_2*%
%TO.N,/SDA1*%
X125220000Y-100850000D03*
%TO.P,J15,3,Pin_3*%
%TO.N,+3.3V*%
X126720000Y-100850000D03*
%TO.P,J15,4,Pin_4*%
%TO.N,GND*%
X128220000Y-100850000D03*
%TD*%
%TO.P,J8,1,Pin_1*%
%TO.N,/RX1*%
X117660000Y-100830000D03*
%TO.P,J8,2,Pin_2*%
%TO.N,/TX1*%
X119160000Y-100830000D03*
%TO.P,J8,3,Pin_3*%
%TO.N,+5V*%
X120660000Y-100830000D03*
%TO.P,J8,4,Pin_4*%
%TO.N,GND*%
X122160000Y-100830000D03*
%TD*%
%TO.P,J2,1,Pin_1*%
%TO.N,/GPIO24*%
X129820000Y-104000000D03*
%TO.P,J2,2,Pin_2*%
%TO.N,/GPIO25*%
X131320000Y-104000000D03*
%TO.P,J2,3,Pin_3*%
%TO.N,+3.3V*%
X132820000Y-104000000D03*
%TO.P,J2,4,Pin_4*%
%TO.N,GND*%
X134320000Y-104000000D03*
%TD*%
D10*
%TO.P,J6,1,Pin_1*%
%TO.N,/VBAT*%
X107574600Y-129050000D03*
X107574600Y-128350000D03*
X107574600Y-129750000D03*
X108374600Y-128350000D03*
X108374600Y-129050000D03*
X106774600Y-129050000D03*
X108374600Y-129750000D03*
X106774600Y-129750000D03*
X106774600Y-128350000D03*
D11*
%TO.P,J6,2,Pin_2*%
%TO.N,/M3*%
X106974600Y-126850000D03*
D10*
%TO.P,J6,3,Pin_3*%
%TO.N,GND*%
X108374600Y-123950000D03*
X107574600Y-124650000D03*
X107574600Y-125350000D03*
X108374600Y-125350000D03*
X106774600Y-124650000D03*
X108374600Y-124650000D03*
X107574600Y-123950000D03*
X106774600Y-125350000D03*
X106774600Y-123950000D03*
%TD*%
D15*
%TO.P,J5,1,Pin_1*%
%TO.N,/RX_2_PIO*%
X111580000Y-100840000D03*
%TO.P,J5,2,Pin_2*%
%TO.N,/TX_2_PIO*%
X113080000Y-100840000D03*
%TO.P,J5,3,Pin_3*%
%TO.N,+5V*%
X114580000Y-100840000D03*
%TO.P,J5,4,Pin_4*%
%TO.N,GND*%
X116080000Y-100840000D03*
%TD*%
%TO.P,J12,1,Pin_1*%
%TO.N,/GPIO22*%
X129820000Y-100830000D03*
%TO.P,J12,2,Pin_2*%
%TO.N,/GPIO23*%
X131320000Y-100830000D03*
%TO.P,J12,3,Pin_3*%
%TO.N,+3.3V*%
X132820000Y-100830000D03*
%TO.P,J12,4,Pin_4*%
%TO.N,GND*%
X134320000Y-100830000D03*
%TD*%
D16*
%TO.P,U4,1,GND*%
%TO.N,GND*%
X134500000Y-133125000D03*
%TO.P,U4,2,VO*%
%TO.N,+5V*%
X132200000Y-133125000D03*
D17*
X132200000Y-126825000D03*
D16*
%TO.P,U4,3,VI*%
%TO.N,/VBAT*%
X129900000Y-133125000D03*
%TD*%
D18*
%TO.P,C22,1*%
%TO.N,+5V*%
X127490000Y-129890000D03*
%TO.P,C22,2*%
%TO.N,GND*%
X127490000Y-127990000D03*
%TD*%
D19*
%TO.P,D4,1,K*%
%TO.N,/VSYS*%
X115670000Y-129600000D03*
%TO.P,D4,2,A*%
%TO.N,/VBAT*%
X115670000Y-132900000D03*
%TD*%
D18*
%TO.P,C20,1*%
%TO.N,/VBAT*%
X127450000Y-133425000D03*
%TO.P,C20,2*%
%TO.N,GND*%
X127450000Y-131525000D03*
%TD*%
D20*
%TO.P,R6,1*%
%TO.N,Net-(J10-PadA5)*%
X114720000Y-123170000D03*
%TO.P,R6,2*%
%TO.N,GND*%
X114720000Y-124190000D03*
%TD*%
D18*
%TO.P,C21,1*%
%TO.N,/VSYS*%
X113550000Y-127950000D03*
%TO.P,C21,2*%
%TO.N,GND*%
X113550000Y-126050000D03*
%TD*%
D16*
%TO.P,U5,1,GND*%
%TO.N,GND*%
X123175000Y-133475000D03*
%TO.P,U5,2,VO*%
%TO.N,+3.3V*%
X120875000Y-133475000D03*
D17*
X120875000Y-127175000D03*
D16*
%TO.P,U5,3,VI*%
%TO.N,/VSYS*%
X118575000Y-133475000D03*
%TD*%
D21*
%TO.P,J14,1,Pin_1*%
%TO.N,/SWCLK*%
X107150000Y-116240000D03*
%TO.P,J14,2,Pin_2*%
%TO.N,GND*%
X107150000Y-117510000D03*
%TO.P,J14,3,Pin_3*%
%TO.N,/SWD*%
X107150000Y-118780000D03*
%TD*%
D20*
%TO.P,R5,1*%
%TO.N,Net-(J10-PadB5)*%
X115740000Y-123200000D03*
%TO.P,R5,2*%
%TO.N,GND*%
X115740000Y-124220000D03*
%TD*%
D19*
%TO.P,D5,1,K*%
%TO.N,Net-(D5-Pad1)*%
X111160000Y-126750000D03*
%TO.P,D5,2,A*%
%TO.N,/VBUS*%
X111160000Y-123450000D03*
%TD*%
D18*
%TO.P,C23,1*%
%TO.N,+3.3V*%
X115770000Y-127920000D03*
%TO.P,C23,2*%
%TO.N,GND*%
X115770000Y-126020000D03*
%TD*%
D22*
%TO.P,R14,1*%
%TO.N,/VBAT*%
X111420000Y-129110000D03*
%TO.P,R14,2*%
%TO.N,GND*%
X111420000Y-128090000D03*
%TD*%
D23*
%TO.P,Q1,1,G*%
%TO.N,/VBAT*%
X111650000Y-130722500D03*
%TO.P,Q1,2,S*%
%TO.N,/VSYS*%
X113550000Y-130722500D03*
%TO.P,Q1,3,D*%
%TO.N,Net-(D5-Pad1)*%
X112600000Y-132597500D03*
%TD*%
D24*
%TO.N,GND*%
X125300000Y-136600000D03*
X127700000Y-136600000D03*
X136500000Y-133500000D03*
X136500000Y-132000000D03*
X128900000Y-137800000D03*
X129330000Y-124560000D03*
X116560000Y-108360000D03*
X116155382Y-113654618D03*
X131300000Y-140500000D03*
X135500000Y-107500000D03*
X125400000Y-139300000D03*
X126500000Y-136600000D03*
X113000000Y-107000000D03*
X126359500Y-109779372D03*
X130100000Y-136600000D03*
X111500000Y-107000000D03*
X136500000Y-130500000D03*
X137000000Y-109000000D03*
X135500000Y-109000000D03*
X138000000Y-130500000D03*
X130100000Y-137800000D03*
X116000000Y-107000000D03*
X111500000Y-108500000D03*
X131300000Y-137800000D03*
X114500000Y-107000000D03*
X128990000Y-111820000D03*
X113530000Y-114180000D03*
X123593417Y-128986583D03*
X134000000Y-112000000D03*
X126107882Y-127482118D03*
X116901713Y-112838287D03*
X128896316Y-125391669D03*
X136500000Y-129000000D03*
X113771100Y-123700000D03*
X134000000Y-109000000D03*
X122400000Y-118600000D03*
X135500000Y-110500000D03*
X131300000Y-139300000D03*
X108570000Y-117490000D03*
X125300000Y-137800000D03*
X123100000Y-117900000D03*
X123550000Y-110080000D03*
X113327597Y-121165913D03*
X119560500Y-112330000D03*
X113000000Y-108500000D03*
X134000000Y-107500000D03*
X132140000Y-117175500D03*
X128900000Y-136600000D03*
X125400000Y-140500000D03*
X137000000Y-112000000D03*
X135500000Y-112000000D03*
X123800000Y-117200000D03*
X134000000Y-110500000D03*
X131300000Y-141700000D03*
X131300000Y-136600000D03*
X126500000Y-137800000D03*
X137000000Y-107500000D03*
X137000000Y-110500000D03*
X127700000Y-137800000D03*
X125400000Y-141700000D03*
%TO.N,+3.3V*%
X125040434Y-111594191D03*
X121920000Y-117080000D03*
X122020250Y-112200250D03*
X132570000Y-123510000D03*
X123755353Y-126154647D03*
X126949073Y-122946988D03*
X115086583Y-116743417D03*
X124680000Y-116150000D03*
X122860000Y-123880000D03*
X129190000Y-117459500D03*
%TO.N,+1V1*%
X124990500Y-124270000D03*
X118504608Y-115571191D03*
X127487842Y-122105125D03*
%TO.N,/~{USB_BOOT}*%
X136620000Y-125150000D03*
X139190000Y-114390000D03*
%TO.N,/VBAT*%
X116200000Y-136600000D03*
X121500000Y-137800000D03*
X118800000Y-137800000D03*
X116700000Y-141500000D03*
X120100000Y-137800000D03*
X116700000Y-139000000D03*
X122800000Y-141600000D03*
X116200000Y-137800000D03*
X122800000Y-140400000D03*
X117500000Y-137800000D03*
X120100000Y-136600000D03*
X118800000Y-136600000D03*
X122398417Y-128931583D03*
X117500000Y-136600000D03*
X122800000Y-139100000D03*
X122800000Y-136600000D03*
X115700000Y-134340000D03*
X122800000Y-137800000D03*
X116700000Y-140300000D03*
X121500000Y-136600000D03*
%TO.N,+5V*%
X125740000Y-130790000D03*
%TO.N,Net-(D3-Pad2)*%
X136584500Y-118202299D03*
X139770000Y-122760000D03*
%TO.N,/VBUS*%
X113420000Y-119850000D03*
%TO.N,/USB-*%
X110420000Y-117660000D03*
X127436868Y-126613078D03*
%TO.N,/USB+*%
X128410000Y-126385000D03*
X110375084Y-116516002D03*
%TO.N,/LED_BLUE*%
X128370000Y-110970000D03*
X127072465Y-104677535D03*
%TO.N,/LED_RED*%
X135330000Y-116110000D03*
D25*
X120742380Y-123360500D03*
%TO.N,/LED_GREEN*%
X121499418Y-123103406D03*
D24*
X135292545Y-117108800D03*
%TO.N,/QSPI_SS*%
X134675000Y-121050000D03*
X135780000Y-123370000D03*
%TO.N,/SWCLK*%
X117754860Y-116232163D03*
%TO.N,/SWD*%
X117822117Y-117330500D03*
%TO.N,/QSPI_SD1*%
X133547029Y-121093471D03*
X134555000Y-122525000D03*
%TO.N,/M2*%
X133068614Y-116499500D03*
D25*
%TO.N,/GPIO23*%
X118659904Y-121982082D03*
%TO.N,/GPIO24*%
X119365262Y-122358478D03*
D24*
%TO.N,/SDO{slash}MISO*%
X123580000Y-113620000D03*
X121359622Y-108159622D03*
%TO.N,/IMU_INT_1*%
X125877576Y-112140265D03*
X121582368Y-110679973D03*
%TO.N,/CSB{slash}CS*%
X124830378Y-107259622D03*
X121530000Y-113710500D03*
%TO.N,/SDI{slash}MOSI*%
X125030000Y-112670000D03*
X122160000Y-107459500D03*
%TO.N,Net-(J10-PadA5)*%
X110278169Y-115521209D03*
%TO.N,Net-(J10-PadB5)*%
X109710000Y-119020000D03*
D25*
%TO.N,/GPIO22*%
X118339223Y-121249711D03*
%TO.N,/GPIO25*%
X120067454Y-122781924D03*
%TD*%
D26*
%TO.N,GND*%
X107150000Y-117510000D02*
X108550000Y-117510000D01*
D27*
X113771100Y-123700000D02*
X114261100Y-124190000D01*
D26*
X108550000Y-117510000D02*
X108570000Y-117490000D01*
D27*
X114261100Y-124190000D02*
X114720000Y-124190000D01*
D28*
%TO.N,+3.3V*%
X123755353Y-126192937D02*
X126452416Y-128890000D01*
X120875000Y-127175000D02*
X120875000Y-129335000D01*
X131910200Y-123510000D02*
X132570000Y-123510000D01*
D29*
X126600485Y-122946988D02*
X126949073Y-122946988D01*
X115086583Y-116743417D02*
X115086583Y-117610897D01*
X117030000Y-119554315D02*
X117030000Y-122100000D01*
X122141321Y-124480000D02*
X123171321Y-123450000D01*
D28*
X132570000Y-123510000D02*
X132570000Y-120839500D01*
D29*
X119410000Y-124480000D02*
X122141321Y-124480000D01*
X126097473Y-123450000D02*
X126600485Y-122946988D01*
D28*
X121895353Y-126154647D02*
X123755353Y-126154647D01*
X129580000Y-127820000D02*
X129580000Y-125840200D01*
X129580000Y-125840200D02*
X131910200Y-123510000D01*
X123755353Y-126154647D02*
X123755353Y-126192937D01*
X120875000Y-127175000D02*
X121895353Y-126154647D01*
X128510000Y-128890000D02*
X129580000Y-127820000D01*
D29*
X117030000Y-122100000D02*
X119410000Y-124480000D01*
D28*
X120875000Y-129335000D02*
X120875000Y-133475000D01*
X119940000Y-128110000D02*
X120875000Y-127175000D01*
D29*
X123171321Y-123450000D02*
X126097473Y-123450000D01*
D28*
X115770000Y-127920000D02*
X115960000Y-128110000D01*
X126452416Y-128890000D02*
X128510000Y-128890000D01*
D29*
X115086583Y-117610897D02*
X117030000Y-119554315D01*
D28*
X132570000Y-120839500D02*
X129190000Y-117459500D01*
X115960000Y-128110000D02*
X119940000Y-128110000D01*
D29*
%TO.N,+1V1*%
X127487842Y-122105125D02*
X128270000Y-122887283D01*
X124020000Y-122790000D02*
X124704875Y-122105125D01*
X119790000Y-123960000D02*
X121550000Y-123960000D01*
X128270000Y-122887283D02*
X128270000Y-123090000D01*
X127090000Y-124270000D02*
X124990500Y-124270000D01*
X119120000Y-119110000D02*
X117730000Y-120500000D01*
X119120000Y-116186583D02*
X119120000Y-119110000D01*
X128270000Y-123090000D02*
X127090000Y-124270000D01*
X117730000Y-120500000D02*
X117730000Y-121900000D01*
X117730000Y-121900000D02*
X119790000Y-123960000D01*
X124704875Y-122105125D02*
X127487842Y-122105125D01*
X118504608Y-115571191D02*
X119120000Y-116186583D01*
X122720000Y-122790000D02*
X124020000Y-122790000D01*
X121550000Y-123960000D02*
X122720000Y-122790000D01*
D30*
%TO.N,/~{USB_BOOT}*%
X135860000Y-117720000D02*
X139190000Y-114390000D01*
X136995000Y-124775000D02*
X136995000Y-122673958D01*
X136620000Y-125150000D02*
X136995000Y-124775000D01*
X136995000Y-122673958D02*
X135860000Y-121538959D01*
X135860000Y-121538959D02*
X135860000Y-117720000D01*
D28*
%TO.N,/VBAT*%
X115670000Y-132900000D02*
X114910000Y-132900000D01*
D26*
X126735000Y-133425000D02*
X127450000Y-133425000D01*
D28*
X111650000Y-129340000D02*
X111420000Y-129110000D01*
X111650000Y-133500000D02*
X111650000Y-130722500D01*
X112240000Y-134090000D02*
X111650000Y-133500000D01*
D26*
X116200000Y-136600000D02*
X115700000Y-136100000D01*
X115700000Y-132930000D02*
X115670000Y-132900000D01*
D28*
X111650000Y-130722500D02*
X111650000Y-129340000D01*
X114910000Y-132900000D02*
X113720000Y-134090000D01*
D26*
X115700000Y-136100000D02*
X115700000Y-134340000D01*
D28*
X129600000Y-133425000D02*
X129900000Y-133125000D01*
X113720000Y-134090000D02*
X112240000Y-134090000D01*
D26*
X115700000Y-134340000D02*
X115700000Y-132930000D01*
X122398417Y-128931583D02*
X122398417Y-129088417D01*
X122398417Y-129088417D02*
X126735000Y-133425000D01*
D28*
X127450000Y-133425000D02*
X129600000Y-133425000D01*
%TO.N,/VSYS*%
X114672500Y-129600000D02*
X113550000Y-130722500D01*
X118575000Y-132505000D02*
X115670000Y-129600000D01*
X115670000Y-129600000D02*
X114672500Y-129600000D01*
X114672500Y-129072500D02*
X113550000Y-127950000D01*
X114672500Y-129600000D02*
X114672500Y-129072500D01*
X118575000Y-133475000D02*
X118575000Y-132505000D01*
D26*
%TO.N,+5V*%
X126640000Y-129890000D02*
X125740000Y-130790000D01*
X129135000Y-129890000D02*
X132200000Y-126825000D01*
X127490000Y-129890000D02*
X129135000Y-129890000D01*
X132200000Y-133125000D02*
X132200000Y-126825000D01*
X127490000Y-129890000D02*
X126640000Y-129890000D01*
D30*
%TO.N,Net-(D3-Pad2)*%
X137652299Y-118202299D02*
X139770000Y-120320000D01*
X139770000Y-120320000D02*
X139770000Y-122760000D01*
X136584500Y-118202299D02*
X137652299Y-118202299D01*
D28*
%TO.N,/VBUS*%
X113420000Y-119850000D02*
X114079997Y-120509997D01*
X112130000Y-123450000D02*
X111160000Y-123450000D01*
X114079997Y-121500003D02*
X112130000Y-123450000D01*
X114079997Y-120509997D02*
X114079997Y-121500003D01*
D29*
%TO.N,/USB-*%
X110650000Y-117430000D02*
X113717948Y-117430000D01*
X113717948Y-117430000D02*
X116230000Y-119942052D01*
X116230000Y-119942052D02*
X116230000Y-122580000D01*
X110420000Y-117660000D02*
X110650000Y-117430000D01*
X123869949Y-125280000D02*
X125203027Y-126613078D01*
X125203027Y-126613078D02*
X127436868Y-126613078D01*
X118930000Y-125280000D02*
X123869949Y-125280000D01*
X116230000Y-122580000D02*
X118930000Y-125280000D01*
%TO.N,/USB+*%
X127938078Y-125913078D02*
X128410000Y-126385000D01*
X124035634Y-124880000D02*
X125068713Y-125913078D01*
X110375084Y-116516002D02*
X110714053Y-116854971D01*
X116630000Y-119720000D02*
X116630000Y-122310000D01*
X119200000Y-124880000D02*
X124035634Y-124880000D01*
X110714053Y-116854971D02*
X113764971Y-116854971D01*
X116630000Y-122310000D02*
X119200000Y-124880000D01*
X113764971Y-116854971D02*
X116630000Y-119720000D01*
X125068713Y-125913078D02*
X127938078Y-125913078D01*
%TO.N,/LED_BLUE*%
X128370000Y-105975070D02*
X128370000Y-110970000D01*
X127072465Y-104677535D02*
X128370000Y-105975070D01*
%TO.N,/LED_RED*%
X121533732Y-122503406D02*
X121250889Y-122503406D01*
X134330000Y-116110000D02*
X132500000Y-114280000D01*
X122894314Y-121990000D02*
X122047139Y-121990000D01*
X121250889Y-122503406D02*
X120742380Y-123011915D01*
X132500000Y-114280000D02*
X130604314Y-114280000D01*
X135330000Y-116110000D02*
X134330000Y-116110000D01*
X120742380Y-123011915D02*
X120742380Y-123360500D01*
X130604314Y-114280000D02*
X122894314Y-121990000D01*
X122047139Y-121990000D02*
X121533732Y-122503406D01*
%TO.N,/LED_GREEN*%
X135292545Y-117108800D02*
X134667864Y-117108800D01*
X122212824Y-122390000D02*
X121499418Y-123103406D01*
X134667864Y-117108800D02*
X132269064Y-114710000D01*
X130740000Y-114710000D02*
X123060000Y-122390000D01*
X132269064Y-114710000D02*
X130740000Y-114710000D01*
X123060000Y-122390000D02*
X122212824Y-122390000D01*
%TO.N,/QSPI_SS*%
X135780000Y-123370000D02*
X135780000Y-122760050D01*
X135780000Y-122760050D02*
X134675000Y-121655050D01*
X134675000Y-121655050D02*
X134675000Y-121050000D01*
%TO.N,/SWCLK*%
X108871884Y-114298116D02*
X108871884Y-115688116D01*
X108871884Y-115688116D02*
X108320000Y-116240000D01*
X109390000Y-112580000D02*
X109390000Y-113780000D01*
X108320000Y-116240000D02*
X107150000Y-116240000D01*
X117287848Y-116232163D02*
X112685685Y-111630000D01*
X117754860Y-116232163D02*
X117287848Y-116232163D01*
X112685685Y-111630000D02*
X110340000Y-111630000D01*
X110340000Y-111630000D02*
X109390000Y-112580000D01*
X109390000Y-113780000D02*
X108871884Y-114298116D01*
%TO.N,/SWD*%
X109790000Y-112800000D02*
X109790000Y-113945686D01*
X108630000Y-118780000D02*
X107150000Y-118780000D01*
X112520000Y-112030000D02*
X110560000Y-112030000D01*
X109271884Y-118138116D02*
X108630000Y-118780000D01*
X117822117Y-117330500D02*
X117820500Y-117330500D01*
X109271884Y-114463802D02*
X109271884Y-118138116D01*
X117820500Y-117330500D02*
X112520000Y-112030000D01*
X109790000Y-113945686D02*
X109271884Y-114463802D01*
X110560000Y-112030000D02*
X109790000Y-112800000D01*
%TO.N,/QSPI_SD1*%
X134555000Y-122525000D02*
X133547029Y-121517029D01*
X133547029Y-121517029D02*
X133547029Y-121093471D01*
%TO.N,/M2*%
X136570000Y-122849999D02*
X136570000Y-124120000D01*
X135390000Y-121669999D02*
X136570000Y-122849999D01*
X135390000Y-118820886D02*
X135390000Y-121669999D01*
X141165000Y-126860000D02*
X141175000Y-126850000D01*
X136570000Y-124120000D02*
X135900000Y-124790000D01*
X133068614Y-116499500D02*
X135390000Y-118820886D01*
X137100000Y-126860000D02*
X141165000Y-126860000D01*
X135900000Y-124790000D02*
X135900000Y-125660000D01*
X135900000Y-125660000D02*
X137100000Y-126860000D01*
%TO.N,/GPIO23*%
X128600000Y-104720000D02*
X128600000Y-103170000D01*
X121313758Y-121026326D02*
X121550084Y-120790000D01*
X130170000Y-106290000D02*
X128600000Y-104720000D01*
X119643747Y-121026326D02*
X121313758Y-121026326D01*
X118659904Y-121982082D02*
X118687991Y-121982082D01*
X131320000Y-101570000D02*
X131320000Y-100830000D01*
X128600000Y-103170000D02*
X129180000Y-102590000D01*
X121550084Y-120790000D02*
X122258628Y-120790000D01*
X122258628Y-120790000D02*
X130170000Y-112878628D01*
X130170000Y-112878628D02*
X130170000Y-106290000D01*
X129180000Y-102590000D02*
X130300000Y-102590000D01*
X130300000Y-102590000D02*
X131320000Y-101570000D01*
X118687991Y-121982082D02*
X119643747Y-121026326D01*
%TO.N,/GPIO24*%
X130650000Y-112964314D02*
X130650000Y-105540000D01*
X120580287Y-121703406D02*
X121202362Y-121703406D01*
X120101768Y-122181924D02*
X120580287Y-121703406D01*
X130650000Y-105540000D02*
X129820000Y-104710000D01*
X129820000Y-104710000D02*
X129820000Y-104000000D01*
X119541816Y-122181924D02*
X120101768Y-122181924D01*
X121202362Y-121703406D02*
X121715769Y-121190000D01*
X119365262Y-122358478D02*
X119541816Y-122181924D01*
X121715769Y-121190000D02*
X122424314Y-121190000D01*
X122424314Y-121190000D02*
X130650000Y-112964314D01*
%TO.N,/SDO{slash}MISO*%
X120680000Y-111849950D02*
X122450050Y-113620000D01*
X120680000Y-108839244D02*
X120680000Y-111849950D01*
X122450050Y-113620000D02*
X123580000Y-113620000D01*
X121359622Y-108159622D02*
X120680000Y-108839244D01*
%TO.N,/IMU_INT_1*%
X124630000Y-113420000D02*
X125480000Y-113420000D01*
X121889973Y-110679973D02*
X124630000Y-113420000D01*
X125877576Y-113022424D02*
X125877576Y-112140265D01*
X121582368Y-110679973D02*
X121889973Y-110679973D01*
X125480000Y-113420000D02*
X125877576Y-113022424D01*
%TO.N,/CSB{slash}CS*%
X120280000Y-112460500D02*
X121530000Y-113710500D01*
X120280000Y-107860000D02*
X120280000Y-112460500D01*
X124830378Y-107259622D02*
X124330756Y-106760000D01*
X124330756Y-106760000D02*
X121380000Y-106760000D01*
X121380000Y-106760000D02*
X120280000Y-107860000D01*
%TO.N,/SDI{slash}MOSI*%
X122160000Y-109740000D02*
X125030000Y-112610000D01*
X125030000Y-112610000D02*
X125030000Y-112670000D01*
X122160000Y-107459500D02*
X122160000Y-109740000D01*
D27*
%TO.N,Net-(J10-PadA5)*%
X115000000Y-121990000D02*
X114720000Y-122270000D01*
X110108791Y-115521209D02*
X109673484Y-115956516D01*
X115000000Y-119820000D02*
X115000000Y-121990000D01*
X109673484Y-115956516D02*
X109673484Y-117943484D01*
X109673484Y-117943484D02*
X110091600Y-118361600D01*
X114720000Y-122270000D02*
X114720000Y-123170000D01*
X110091600Y-118361600D02*
X113541600Y-118361600D01*
X110278169Y-115521209D02*
X110108791Y-115521209D01*
X113541600Y-118361600D02*
X115000000Y-119820000D01*
%TO.N,Net-(J10-PadB5)*%
X113700000Y-124880000D02*
X116200000Y-124880000D01*
X109900000Y-118830000D02*
X113400000Y-118830000D01*
X114580000Y-120010000D02*
X114580000Y-121710000D01*
X116550000Y-124530000D02*
X116550000Y-123680000D01*
X116550000Y-123680000D02*
X116070000Y-123200000D01*
X116200000Y-124880000D02*
X116550000Y-124530000D01*
X112900000Y-124080000D02*
X113700000Y-124880000D01*
X116070000Y-123200000D02*
X115740000Y-123200000D01*
X109710000Y-119020000D02*
X109900000Y-118830000D01*
X112900000Y-123390000D02*
X112900000Y-124080000D01*
X114580000Y-121710000D02*
X112900000Y-123390000D01*
X113400000Y-118830000D02*
X114580000Y-120010000D01*
D28*
%TO.N,Net-(D5-Pad1)*%
X111370000Y-126750000D02*
X112190000Y-127570000D01*
X112190000Y-128920000D02*
X112600000Y-129330000D01*
X112600000Y-129330000D02*
X112600000Y-132597500D01*
X112190000Y-127570000D02*
X112190000Y-128920000D01*
X111160000Y-126750000D02*
X111370000Y-126750000D01*
D29*
%TO.N,/GPIO22*%
X129740000Y-106460000D02*
X128120000Y-104840000D01*
X128120000Y-104840000D02*
X128120000Y-102960000D01*
X129480000Y-102190000D02*
X129820000Y-101850000D01*
X121384399Y-120390000D02*
X122000000Y-120390000D01*
X129740000Y-112650000D02*
X129740000Y-106460000D01*
X118962608Y-120626326D02*
X121148072Y-120626326D01*
X128120000Y-102960000D02*
X128890000Y-102190000D01*
X129820000Y-101850000D02*
X129820000Y-100830000D01*
X128890000Y-102190000D02*
X129480000Y-102190000D01*
X121148072Y-120626326D02*
X121384399Y-120390000D01*
X122000000Y-120390000D02*
X129740000Y-112650000D01*
X118339223Y-121249711D02*
X118962608Y-120626326D01*
%TO.N,/GPIO25*%
X121368047Y-122103406D02*
X121881454Y-121590000D01*
X121881454Y-121590000D02*
X122590000Y-121590000D01*
X120067454Y-122781924D02*
X120745972Y-122103406D01*
X131320000Y-112860000D02*
X131320000Y-104000000D01*
X122590000Y-121590000D02*
X131320000Y-112860000D01*
X120745972Y-122103406D02*
X121368047Y-122103406D01*
%TD*%
%TA.AperFunction,Conductor*%
%TO.N,GND*%
G36*
X109023428Y-118915709D02*
G01*
X109080264Y-118958256D01*
X109103342Y-119020129D01*
X109104318Y-119020000D01*
X109124956Y-119176762D01*
X109185464Y-119322841D01*
X109228272Y-119378629D01*
X109257481Y-119416695D01*
X109281718Y-119448282D01*
X109288264Y-119453305D01*
X109297139Y-119460115D01*
X109407159Y-119544536D01*
X109553238Y-119605044D01*
X109710000Y-119625682D01*
X109718188Y-119624604D01*
X109858574Y-119606122D01*
X109866762Y-119605044D01*
X110012841Y-119544536D01*
X110122861Y-119460115D01*
X110131736Y-119453305D01*
X110138282Y-119448282D01*
X110162520Y-119416695D01*
X110191728Y-119378629D01*
X110234536Y-119322841D01*
X110281325Y-119209881D01*
X110325873Y-119154601D01*
X110397734Y-119132100D01*
X112997971Y-119132100D01*
X113066092Y-119152102D01*
X113112585Y-119205758D01*
X113122689Y-119276032D01*
X113093195Y-119340612D01*
X113074675Y-119358063D01*
X113072778Y-119359519D01*
X112991718Y-119421718D01*
X112986695Y-119428264D01*
X112963941Y-119457918D01*
X112895464Y-119547159D01*
X112834956Y-119693238D01*
X112814318Y-119850000D01*
X112834956Y-120006762D01*
X112895464Y-120152841D01*
X112907123Y-120168035D01*
X112979640Y-120262541D01*
X112991718Y-120278282D01*
X112998264Y-120283305D01*
X113011872Y-120293747D01*
X113117159Y-120374536D01*
X113263238Y-120435044D01*
X113420000Y-120455682D01*
X113452600Y-120451390D01*
X113522748Y-120462329D01*
X113558141Y-120487217D01*
X113690192Y-120619268D01*
X113724218Y-120681580D01*
X113727097Y-120708363D01*
X113727097Y-121301637D01*
X113707095Y-121369758D01*
X113690192Y-121390732D01*
X112948715Y-122132209D01*
X112886403Y-122166235D01*
X112815588Y-122161170D01*
X112758752Y-122118623D01*
X112733941Y-122052103D01*
X112737416Y-122012418D01*
X112763839Y-121907227D01*
X112773581Y-121868441D01*
X112773630Y-121859188D01*
X112774346Y-121722377D01*
X112774469Y-121698895D01*
X112771636Y-121687092D01*
X112736661Y-121541417D01*
X112734888Y-121534032D01*
X112731267Y-121527015D01*
X112660608Y-121390117D01*
X112660608Y-121390116D01*
X112657125Y-121383369D01*
X112651813Y-121377279D01*
X112585826Y-121301637D01*
X112545669Y-121255604D01*
X112436873Y-121179141D01*
X112413170Y-121162482D01*
X112413168Y-121162481D01*
X112406953Y-121158113D01*
X112248987Y-121096524D01*
X112241454Y-121095532D01*
X112241453Y-121095532D01*
X112123761Y-121080038D01*
X112123760Y-121080038D01*
X112119674Y-121079500D01*
X111387982Y-121079500D01*
X111319861Y-121059498D01*
X111273368Y-121005842D01*
X111263264Y-120935568D01*
X111292758Y-120870988D01*
X111313577Y-120853798D01*
X111312733Y-120852698D01*
X111426401Y-120765477D01*
X111432951Y-120760451D01*
X111525198Y-120640233D01*
X111583187Y-120500236D01*
X111602966Y-120350000D01*
X111583187Y-120199764D01*
X111525198Y-120059767D01*
X111432951Y-119939549D01*
X111312733Y-119847302D01*
X111172736Y-119789313D01*
X111151324Y-119786494D01*
X111064307Y-119775038D01*
X111064306Y-119775038D01*
X111060220Y-119774500D01*
X110984780Y-119774500D01*
X110980694Y-119775038D01*
X110980693Y-119775038D01*
X110893676Y-119786494D01*
X110872264Y-119789313D01*
X110732267Y-119847302D01*
X110612049Y-119939549D01*
X110519802Y-120059767D01*
X110461813Y-120199764D01*
X110442034Y-120350000D01*
X110461813Y-120500236D01*
X110519802Y-120640233D01*
X110612049Y-120760451D01*
X110732267Y-120852698D01*
X110739895Y-120855858D01*
X110739899Y-120855860D01*
X110778591Y-120871886D01*
X110833872Y-120916434D01*
X110856294Y-120983797D01*
X110838736Y-121052588D01*
X110786775Y-121100967D01*
X110774912Y-121106161D01*
X110669090Y-121146148D01*
X110646577Y-121154655D01*
X110506849Y-121250688D01*
X110501797Y-121256358D01*
X110501796Y-121256359D01*
X110399112Y-121371608D01*
X110399110Y-121371612D01*
X110394060Y-121377279D01*
X110390508Y-121383988D01*
X110390507Y-121383989D01*
X110379287Y-121405180D01*
X110314724Y-121527119D01*
X110273419Y-121691559D01*
X110273379Y-121699157D01*
X110273379Y-121699159D01*
X110273221Y-121729415D01*
X110272531Y-121861105D01*
X110274305Y-121868492D01*
X110274305Y-121868496D01*
X110302974Y-121987905D01*
X110312112Y-122025968D01*
X110315593Y-122032712D01*
X110315594Y-122032715D01*
X110378310Y-122154224D01*
X110389875Y-122176631D01*
X110394867Y-122182353D01*
X110394868Y-122182355D01*
X110410806Y-122200625D01*
X110501331Y-122304396D01*
X110549520Y-122338264D01*
X110633830Y-122397518D01*
X110633832Y-122397519D01*
X110640047Y-122401887D01*
X110798013Y-122463476D01*
X110805546Y-122464468D01*
X110805547Y-122464468D01*
X110923239Y-122479962D01*
X110927326Y-122480500D01*
X112116016Y-122480500D01*
X112241820Y-122465276D01*
X112295241Y-122445090D01*
X112366033Y-122439722D01*
X112428491Y-122473479D01*
X112462783Y-122535645D01*
X112458021Y-122606482D01*
X112428873Y-122652051D01*
X112141660Y-122939264D01*
X112079348Y-122973290D01*
X112008533Y-122968225D01*
X111947800Y-122920172D01*
X111911443Y-122865761D01*
X111904552Y-122855448D01*
X111838231Y-122811133D01*
X111826062Y-122808712D01*
X111826061Y-122808712D01*
X111785816Y-122800707D01*
X111779748Y-122799500D01*
X110540252Y-122799500D01*
X110534184Y-122800707D01*
X110493939Y-122808712D01*
X110493938Y-122808712D01*
X110481769Y-122811133D01*
X110415448Y-122855448D01*
X110408557Y-122865761D01*
X110385982Y-122899547D01*
X110371133Y-122921769D01*
X110368712Y-122933938D01*
X110368712Y-122933939D01*
X110363182Y-122961739D01*
X110359500Y-122980252D01*
X110359500Y-123919748D01*
X110360707Y-123925816D01*
X110367628Y-123960608D01*
X110371133Y-123978231D01*
X110415448Y-124044552D01*
X110481769Y-124088867D01*
X110493938Y-124091288D01*
X110493939Y-124091288D01*
X110518242Y-124096122D01*
X110540252Y-124100500D01*
X111779748Y-124100500D01*
X111801758Y-124096122D01*
X111826061Y-124091288D01*
X111826062Y-124091288D01*
X111838231Y-124088867D01*
X111904552Y-124044552D01*
X111948867Y-123978231D01*
X111952373Y-123960608D01*
X111959293Y-123925816D01*
X111960500Y-123919748D01*
X111960500Y-123916886D01*
X111986650Y-123852126D01*
X112044605Y-123811116D01*
X112092395Y-123808280D01*
X112092564Y-123804700D01*
X112102966Y-123805190D01*
X112113146Y-123807382D01*
X112135808Y-123804700D01*
X112143642Y-123803773D01*
X112148950Y-123803460D01*
X112148939Y-123803328D01*
X112154117Y-123802900D01*
X112159318Y-123802900D01*
X112164447Y-123802046D01*
X112164450Y-123802046D01*
X112176814Y-123799988D01*
X112182693Y-123799151D01*
X112190036Y-123798282D01*
X112229817Y-123793574D01*
X112237493Y-123789888D01*
X112245891Y-123788490D01*
X112287660Y-123765953D01*
X112292933Y-123763265D01*
X112335725Y-123742717D01*
X112339699Y-123739377D01*
X112341637Y-123737439D01*
X112343253Y-123735957D01*
X112343715Y-123735708D01*
X112343741Y-123735737D01*
X112343868Y-123735625D01*
X112349286Y-123732702D01*
X112379376Y-123700150D01*
X112440304Y-123663706D01*
X112511264Y-123665987D01*
X112569726Y-123706269D01*
X112597129Y-123771764D01*
X112597900Y-123785680D01*
X112597900Y-124027322D01*
X112597700Y-124030048D01*
X112595964Y-124035104D01*
X112597724Y-124081974D01*
X112597811Y-124084303D01*
X112597900Y-124089030D01*
X112597900Y-124108097D01*
X112598784Y-124112845D01*
X112599017Y-124116439D01*
X112600186Y-124147566D01*
X112604778Y-124158255D01*
X112605777Y-124162685D01*
X112609503Y-124174951D01*
X112611143Y-124179201D01*
X112613273Y-124190639D01*
X112619377Y-124200541D01*
X112619379Y-124200547D01*
X112626303Y-124211779D01*
X112634808Y-124228150D01*
X112644611Y-124250968D01*
X112648643Y-124255877D01*
X112650838Y-124258072D01*
X112650841Y-124258076D01*
X112652886Y-124260331D01*
X112652733Y-124260470D01*
X112660094Y-124269781D01*
X112666222Y-124276539D01*
X112672326Y-124286442D01*
X112681584Y-124293482D01*
X112694265Y-124303125D01*
X112707092Y-124314326D01*
X113449131Y-125056365D01*
X113450921Y-125058439D01*
X113453268Y-125063240D01*
X113461797Y-125071152D01*
X113461798Y-125071153D01*
X113489375Y-125096734D01*
X113492780Y-125100014D01*
X113506251Y-125113485D01*
X113510234Y-125116217D01*
X113512924Y-125118579D01*
X113514355Y-125119906D01*
X113535776Y-125139777D01*
X113546581Y-125144088D01*
X113550422Y-125146516D01*
X113561736Y-125152557D01*
X113565894Y-125154400D01*
X113575487Y-125160980D01*
X113599647Y-125166714D01*
X113617237Y-125172277D01*
X113640305Y-125181480D01*
X113646628Y-125182100D01*
X113649737Y-125182100D01*
X113649756Y-125182102D01*
X113652779Y-125182250D01*
X113652769Y-125182455D01*
X113664547Y-125183833D01*
X113673665Y-125184279D01*
X113684987Y-125186966D01*
X113696517Y-125185397D01*
X113712287Y-125183251D01*
X113729277Y-125182100D01*
X116147322Y-125182100D01*
X116150048Y-125182300D01*
X116155104Y-125184036D01*
X116204304Y-125182189D01*
X116209030Y-125182100D01*
X116228097Y-125182100D01*
X116232845Y-125181216D01*
X116236439Y-125180983D01*
X116255941Y-125180251D01*
X116255943Y-125180250D01*
X116267566Y-125179814D01*
X116278255Y-125175222D01*
X116282685Y-125174223D01*
X116294951Y-125170497D01*
X116299201Y-125168857D01*
X116310639Y-125166727D01*
X116320541Y-125160623D01*
X116320547Y-125160621D01*
X116331779Y-125153697D01*
X116348150Y-125145192D01*
X116370968Y-125135389D01*
X116375877Y-125131357D01*
X116378072Y-125129162D01*
X116378076Y-125129159D01*
X116380331Y-125127114D01*
X116380470Y-125127267D01*
X116389781Y-125119906D01*
X116396539Y-125113778D01*
X116406442Y-125107674D01*
X116423125Y-125085735D01*
X116434326Y-125072908D01*
X116726365Y-124780869D01*
X116728439Y-124779079D01*
X116733240Y-124776732D01*
X116753705Y-124754671D01*
X116766734Y-124740625D01*
X116770014Y-124737220D01*
X116783485Y-124723749D01*
X116786217Y-124719766D01*
X116788579Y-124717076D01*
X116801865Y-124702753D01*
X116809777Y-124694224D01*
X116814088Y-124683419D01*
X116816516Y-124679578D01*
X116822558Y-124668261D01*
X116824399Y-124664106D01*
X116830980Y-124654513D01*
X116836715Y-124630349D01*
X116842278Y-124612761D01*
X116851480Y-124589695D01*
X116852100Y-124583372D01*
X116852100Y-124580267D01*
X116852102Y-124580251D01*
X116852250Y-124577221D01*
X116852455Y-124577231D01*
X116853834Y-124565452D01*
X116854280Y-124556335D01*
X116856967Y-124545013D01*
X116853251Y-124517707D01*
X116852100Y-124500717D01*
X116852100Y-123931261D01*
X116872102Y-123863140D01*
X116925758Y-123816647D01*
X116996032Y-123806543D01*
X117060612Y-123836037D01*
X117067195Y-123842166D01*
X118680481Y-125455452D01*
X118682237Y-125457486D01*
X118684575Y-125462269D01*
X118693104Y-125470181D01*
X118693105Y-125470182D01*
X118720477Y-125495573D01*
X118723882Y-125498853D01*
X118737277Y-125512248D01*
X118741247Y-125514972D01*
X118743895Y-125517297D01*
X118766646Y-125538401D01*
X118777453Y-125542713D01*
X118781438Y-125545232D01*
X118792247Y-125551004D01*
X118796552Y-125552911D01*
X118806146Y-125559493D01*
X118830099Y-125565177D01*
X118830136Y-125565186D01*
X118847732Y-125570751D01*
X118870622Y-125579883D01*
X118876915Y-125580500D01*
X118879997Y-125580500D01*
X118883067Y-125580650D01*
X118883056Y-125580866D01*
X118894431Y-125582198D01*
X118903745Y-125582653D01*
X118915066Y-125585340D01*
X118926595Y-125583771D01*
X118926596Y-125583771D01*
X118942173Y-125581651D01*
X118959164Y-125580500D01*
X121717350Y-125580500D01*
X121785471Y-125600502D01*
X121831964Y-125654158D01*
X121842068Y-125724432D01*
X121812574Y-125789012D01*
X121777186Y-125817385D01*
X121737661Y-125838711D01*
X121732420Y-125841382D01*
X121689628Y-125861930D01*
X121685654Y-125865270D01*
X121683716Y-125867208D01*
X121682100Y-125868690D01*
X121681638Y-125868939D01*
X121681612Y-125868910D01*
X121681485Y-125869022D01*
X121676067Y-125871945D01*
X121668997Y-125879593D01*
X121668996Y-125879594D01*
X121642146Y-125908641D01*
X121638716Y-125912208D01*
X121613329Y-125937595D01*
X121551017Y-125971621D01*
X121524234Y-125974500D01*
X118955252Y-125974500D01*
X118949184Y-125975707D01*
X118908939Y-125983712D01*
X118908938Y-125983712D01*
X118896769Y-125986133D01*
X118830448Y-126030448D01*
X118786133Y-126096769D01*
X118774500Y-126155252D01*
X118774500Y-127631100D01*
X118754498Y-127699221D01*
X118700842Y-127745714D01*
X118648500Y-127757100D01*
X116821500Y-127757100D01*
X116753379Y-127737098D01*
X116706886Y-127683442D01*
X116695500Y-127631100D01*
X116695500Y-127616166D01*
X116692519Y-127584631D01*
X116647634Y-127456816D01*
X116642042Y-127449246D01*
X116642041Y-127449243D01*
X116579282Y-127364275D01*
X116567150Y-127347850D01*
X116548722Y-127334239D01*
X116465757Y-127272959D01*
X116465754Y-127272958D01*
X116458184Y-127267366D01*
X116330369Y-127222481D01*
X116322723Y-127221758D01*
X116322722Y-127221758D01*
X116316752Y-127221194D01*
X116298834Y-127219500D01*
X115241166Y-127219500D01*
X115223248Y-127221194D01*
X115217278Y-127221758D01*
X115217277Y-127221758D01*
X115209631Y-127222481D01*
X115081816Y-127267366D01*
X115074246Y-127272958D01*
X115074243Y-127272959D01*
X114991278Y-127334239D01*
X114972850Y-127347850D01*
X114960718Y-127364275D01*
X114897959Y-127449243D01*
X114897958Y-127449246D01*
X114892366Y-127456816D01*
X114847481Y-127584631D01*
X114844500Y-127616166D01*
X114844500Y-128223834D01*
X114847481Y-128255369D01*
X114892366Y-128383184D01*
X114897958Y-128390754D01*
X114897959Y-128390757D01*
X114951659Y-128463460D01*
X114972850Y-128492150D01*
X114980421Y-128497742D01*
X115074243Y-128567041D01*
X115074246Y-128567042D01*
X115081816Y-128572634D01*
X115209631Y-128617519D01*
X115217277Y-128618242D01*
X115217278Y-128618242D01*
X115223248Y-128618806D01*
X115241166Y-128620500D01*
X116298834Y-128620500D01*
X116316752Y-128618806D01*
X116322722Y-128618242D01*
X116322723Y-128618242D01*
X116330369Y-128617519D01*
X116458184Y-128572634D01*
X116465754Y-128567042D01*
X116465757Y-128567041D01*
X116567150Y-128492150D01*
X116568410Y-128493856D01*
X116619828Y-128465779D01*
X116646611Y-128462900D01*
X119888917Y-128462900D01*
X119908430Y-128464977D01*
X119912968Y-128465191D01*
X119923146Y-128467382D01*
X119943467Y-128464977D01*
X119953642Y-128463773D01*
X119958950Y-128463460D01*
X119958939Y-128463328D01*
X119964117Y-128462900D01*
X119969318Y-128462900D01*
X119974447Y-128462046D01*
X119974450Y-128462046D01*
X119986814Y-128459988D01*
X119992693Y-128459151D01*
X119995759Y-128458788D01*
X120039817Y-128453574D01*
X120047493Y-128449888D01*
X120055891Y-128448490D01*
X120097660Y-128425953D01*
X120102933Y-128423265D01*
X120145725Y-128402717D01*
X120149699Y-128399377D01*
X120150850Y-128398226D01*
X120154846Y-128395646D01*
X120223190Y-128375500D01*
X120396100Y-128375500D01*
X120464221Y-128395502D01*
X120510714Y-128449158D01*
X120522100Y-128501500D01*
X120522100Y-132148500D01*
X120502098Y-132216621D01*
X120448442Y-132263114D01*
X120396100Y-132274500D01*
X120105252Y-132274500D01*
X120099184Y-132275707D01*
X120058939Y-132283712D01*
X120058938Y-132283712D01*
X120046769Y-132286133D01*
X119980448Y-132330448D01*
X119936133Y-132396769D01*
X119924500Y-132455252D01*
X119924500Y-134494748D01*
X119936133Y-134553231D01*
X119980448Y-134619552D01*
X119990761Y-134626443D01*
X120017435Y-134644266D01*
X120046769Y-134663867D01*
X120058938Y-134666288D01*
X120058939Y-134666288D01*
X120099184Y-134674293D01*
X120105252Y-134675500D01*
X121644748Y-134675500D01*
X121650816Y-134674293D01*
X121691061Y-134666288D01*
X121691062Y-134666288D01*
X121703231Y-134663867D01*
X121732566Y-134644266D01*
X121759239Y-134626443D01*
X121769552Y-134619552D01*
X121813867Y-134553231D01*
X121825500Y-134494748D01*
X121825500Y-132455252D01*
X121813867Y-132396769D01*
X121769552Y-132330448D01*
X121703231Y-132286133D01*
X121691062Y-132283712D01*
X121691061Y-132283712D01*
X121650816Y-132275707D01*
X121644748Y-132274500D01*
X121353900Y-132274500D01*
X121285779Y-132254498D01*
X121239286Y-132200842D01*
X121227900Y-132148500D01*
X121227900Y-128501500D01*
X121247902Y-128433379D01*
X121301558Y-128386886D01*
X121353900Y-128375500D01*
X121812697Y-128375500D01*
X121880818Y-128395502D01*
X121927311Y-128449158D01*
X121937415Y-128519432D01*
X121912660Y-128578204D01*
X121873881Y-128628742D01*
X121813373Y-128774821D01*
X121792735Y-128931583D01*
X121813373Y-129088345D01*
X121873881Y-129234424D01*
X121878910Y-129240978D01*
X121916186Y-129289558D01*
X121926629Y-129305544D01*
X121929830Y-129311366D01*
X121935043Y-129322005D01*
X121951173Y-129359278D01*
X121956580Y-129365955D01*
X121959658Y-129369756D01*
X121972151Y-129388348D01*
X121978648Y-129400166D01*
X121985242Y-129407804D01*
X122008044Y-129430606D01*
X122016870Y-129440407D01*
X122035083Y-129462899D01*
X122035085Y-129462901D01*
X122040488Y-129469573D01*
X122047487Y-129474547D01*
X122047488Y-129474548D01*
X122054413Y-129479469D01*
X122070518Y-129493080D01*
X126358637Y-133781200D01*
X126362290Y-133785009D01*
X126401710Y-133827878D01*
X126436221Y-133849276D01*
X126445988Y-133855990D01*
X126478321Y-133880531D01*
X126486306Y-133883692D01*
X126486305Y-133883692D01*
X126490856Y-133885494D01*
X126510866Y-133895558D01*
X126522330Y-133902666D01*
X126530576Y-133905062D01*
X126530579Y-133905063D01*
X126558760Y-133913250D01*
X126618596Y-133951462D01*
X126624951Y-133959377D01*
X126652850Y-133997150D01*
X126660425Y-134002745D01*
X126660426Y-134002746D01*
X126754243Y-134072041D01*
X126754246Y-134072042D01*
X126761816Y-134077634D01*
X126889631Y-134122519D01*
X126897277Y-134123242D01*
X126897278Y-134123242D01*
X126903248Y-134123806D01*
X126921166Y-134125500D01*
X127978834Y-134125500D01*
X127996752Y-134123806D01*
X128002722Y-134123242D01*
X128002723Y-134123242D01*
X128010369Y-134122519D01*
X128138184Y-134077634D01*
X128145754Y-134072042D01*
X128145757Y-134072041D01*
X128239579Y-134002742D01*
X128247150Y-133997150D01*
X128327634Y-133888184D01*
X128330754Y-133879300D01*
X128330756Y-133879296D01*
X128336776Y-133862152D01*
X128378219Y-133804506D01*
X128444249Y-133778418D01*
X128455659Y-133777900D01*
X128823500Y-133777900D01*
X128891621Y-133797902D01*
X128938114Y-133851558D01*
X128949500Y-133903900D01*
X128949500Y-134144748D01*
X128950707Y-134150816D01*
X128952262Y-134158631D01*
X128961133Y-134203231D01*
X129005448Y-134269552D01*
X129015761Y-134276443D01*
X129055774Y-134303179D01*
X129071769Y-134313867D01*
X129083938Y-134316288D01*
X129083939Y-134316288D01*
X129124184Y-134324293D01*
X129130252Y-134325500D01*
X130669748Y-134325500D01*
X130675816Y-134324293D01*
X130716061Y-134316288D01*
X130716062Y-134316288D01*
X130728231Y-134313867D01*
X130744227Y-134303179D01*
X130784239Y-134276443D01*
X130794552Y-134269552D01*
X130838867Y-134203231D01*
X130847739Y-134158631D01*
X130849293Y-134150816D01*
X130850500Y-134144748D01*
X130850500Y-132105252D01*
X130838867Y-132046769D01*
X130794552Y-131980448D01*
X130728231Y-131936133D01*
X130716062Y-131933712D01*
X130716061Y-131933712D01*
X130675816Y-131925707D01*
X130669748Y-131924500D01*
X129130252Y-131924500D01*
X129124184Y-131925707D01*
X129083939Y-131933712D01*
X129083938Y-131933712D01*
X129071769Y-131936133D01*
X129005448Y-131980448D01*
X128961133Y-132046769D01*
X128949500Y-132105252D01*
X128949500Y-132946100D01*
X128929498Y-133014221D01*
X128875842Y-133060714D01*
X128823500Y-133072100D01*
X128455659Y-133072100D01*
X128387538Y-133052098D01*
X128341045Y-132998442D01*
X128336776Y-132987848D01*
X128330756Y-132970704D01*
X128330754Y-132970700D01*
X128327634Y-132961816D01*
X128247150Y-132852850D01*
X128225488Y-132836850D01*
X128145757Y-132777959D01*
X128145754Y-132777958D01*
X128138184Y-132772366D01*
X128010369Y-132727481D01*
X128002723Y-132726758D01*
X128002722Y-132726758D01*
X127996752Y-132726194D01*
X127978834Y-132724500D01*
X126921166Y-132724500D01*
X126903248Y-132726194D01*
X126897278Y-132726758D01*
X126897277Y-132726758D01*
X126889631Y-132727481D01*
X126875920Y-132732296D01*
X126805021Y-132735998D01*
X126745073Y-132702510D01*
X125652262Y-131609699D01*
X125618236Y-131547387D01*
X125623301Y-131476572D01*
X125665848Y-131419736D01*
X125732368Y-131394925D01*
X125733848Y-131394872D01*
X125740000Y-131395682D01*
X125748188Y-131394604D01*
X125888574Y-131376122D01*
X125896762Y-131375044D01*
X126042841Y-131314536D01*
X126168282Y-131218282D01*
X126264536Y-131092841D01*
X126321990Y-130954135D01*
X126349304Y-130913258D01*
X126685158Y-130577404D01*
X126747470Y-130543378D01*
X126816001Y-130547616D01*
X126900827Y-130577404D01*
X126929631Y-130587519D01*
X126937277Y-130588242D01*
X126937278Y-130588242D01*
X126943248Y-130588806D01*
X126961166Y-130590500D01*
X128018834Y-130590500D01*
X128036752Y-130588806D01*
X128042722Y-130588242D01*
X128042723Y-130588242D01*
X128050369Y-130587519D01*
X128178184Y-130542634D01*
X128185754Y-130537042D01*
X128185757Y-130537041D01*
X128279574Y-130467746D01*
X128279575Y-130467745D01*
X128287150Y-130462150D01*
X128292747Y-130454572D01*
X128299404Y-130447915D01*
X128301461Y-130449972D01*
X128345921Y-130416234D01*
X128390723Y-130408000D01*
X129120760Y-130408000D01*
X129126037Y-130408111D01*
X129184206Y-130410549D01*
X129192570Y-130408587D01*
X129192573Y-130408587D01*
X129223720Y-130401282D01*
X129235388Y-130399119D01*
X129243420Y-130398019D01*
X129275610Y-130393609D01*
X129287981Y-130388255D01*
X129309250Y-130381221D01*
X129314015Y-130380103D01*
X129314016Y-130380103D01*
X129322380Y-130378141D01*
X129357950Y-130358586D01*
X129368608Y-130353365D01*
X129405861Y-130337244D01*
X129416339Y-130328759D01*
X129434931Y-130316266D01*
X129440955Y-130312954D01*
X129446749Y-130309769D01*
X129454387Y-130303175D01*
X129477189Y-130280373D01*
X129486990Y-130271547D01*
X129509482Y-130253334D01*
X129509484Y-130253332D01*
X129516156Y-130247929D01*
X129526052Y-130234004D01*
X129539663Y-130217899D01*
X131466905Y-128290658D01*
X131529217Y-128256632D01*
X131600033Y-128261697D01*
X131656868Y-128304244D01*
X131681679Y-128370764D01*
X131682000Y-128379753D01*
X131682000Y-131798500D01*
X131661998Y-131866621D01*
X131608342Y-131913114D01*
X131556000Y-131924500D01*
X131430252Y-131924500D01*
X131424184Y-131925707D01*
X131383939Y-131933712D01*
X131383938Y-131933712D01*
X131371769Y-131936133D01*
X131305448Y-131980448D01*
X131261133Y-132046769D01*
X131249500Y-132105252D01*
X131249500Y-134144748D01*
X131250707Y-134150816D01*
X131252262Y-134158631D01*
X131261133Y-134203231D01*
X131305448Y-134269552D01*
X131315761Y-134276443D01*
X131355774Y-134303179D01*
X131371769Y-134313867D01*
X131383938Y-134316288D01*
X131383939Y-134316288D01*
X131424184Y-134324293D01*
X131430252Y-134325500D01*
X132969748Y-134325500D01*
X132975816Y-134324293D01*
X133016061Y-134316288D01*
X133016062Y-134316288D01*
X133028231Y-134313867D01*
X133044227Y-134303179D01*
X133084239Y-134276443D01*
X133094552Y-134269552D01*
X133138867Y-134203231D01*
X133147739Y-134158631D01*
X133149293Y-134150816D01*
X133150500Y-134144748D01*
X133150500Y-132792736D01*
X137525070Y-132792736D01*
X137525698Y-132805807D01*
X137537909Y-133060041D01*
X137590118Y-133322512D01*
X137680549Y-133574383D01*
X137693096Y-133597734D01*
X137800650Y-133797902D01*
X137807215Y-133810121D01*
X137810010Y-133813864D01*
X137810012Y-133813867D01*
X137951052Y-134002742D01*
X137967335Y-134024547D01*
X137970642Y-134027825D01*
X137970647Y-134027831D01*
X138154074Y-134209663D01*
X138157390Y-134212950D01*
X138161156Y-134215712D01*
X138161158Y-134215713D01*
X138322746Y-134334194D01*
X138373205Y-134371192D01*
X138377340Y-134373368D01*
X138377344Y-134373370D01*
X138503654Y-134439825D01*
X138610039Y-134495797D01*
X138679419Y-134520025D01*
X138858273Y-134582484D01*
X138858279Y-134582486D01*
X138862690Y-134584026D01*
X138867283Y-134584898D01*
X139049808Y-134619552D01*
X139125606Y-134633943D01*
X139252616Y-134638933D01*
X139388345Y-134644266D01*
X139388350Y-134644266D01*
X139393013Y-134644449D01*
X139488943Y-134633943D01*
X139654382Y-134615825D01*
X139654387Y-134615824D01*
X139659035Y-134615315D01*
X139774567Y-134584898D01*
X139913309Y-134548370D01*
X139917829Y-134547180D01*
X140054239Y-134488574D01*
X140159407Y-134443391D01*
X140159410Y-134443389D01*
X140163710Y-134441542D01*
X140167690Y-134439079D01*
X140167694Y-134439077D01*
X140387302Y-134303179D01*
X140387306Y-134303176D01*
X140391275Y-134300720D01*
X140465293Y-134238059D01*
X140591960Y-134130828D01*
X140591961Y-134130827D01*
X140595526Y-134127809D01*
X140636793Y-134080753D01*
X140768894Y-133930122D01*
X140768898Y-133930117D01*
X140771976Y-133926607D01*
X140774506Y-133922674D01*
X140914219Y-133705465D01*
X140914222Y-133705460D01*
X140916747Y-133701534D01*
X141026661Y-133457534D01*
X141044908Y-133392836D01*
X141098032Y-133204473D01*
X141098033Y-133204470D01*
X141099302Y-133199969D01*
X141117103Y-133060041D01*
X141132677Y-132937625D01*
X141132677Y-132937621D01*
X141133075Y-132934495D01*
X141135549Y-132840000D01*
X141129497Y-132758562D01*
X141116064Y-132577788D01*
X141116063Y-132577784D01*
X141115717Y-132573123D01*
X141105161Y-132526470D01*
X141070155Y-132371769D01*
X141056655Y-132312109D01*
X141035890Y-132258712D01*
X140961355Y-132067044D01*
X140961354Y-132067042D01*
X140959662Y-132062691D01*
X140826868Y-131830350D01*
X140661190Y-131620189D01*
X140466269Y-131436825D01*
X140246385Y-131284286D01*
X140242194Y-131282219D01*
X140010559Y-131167989D01*
X140010556Y-131167988D01*
X140006371Y-131165924D01*
X139751497Y-131084338D01*
X139606134Y-131060665D01*
X139491976Y-131042073D01*
X139491975Y-131042073D01*
X139487364Y-131041322D01*
X139353569Y-131039571D01*
X139224451Y-131037880D01*
X139224448Y-131037880D01*
X139219774Y-131037819D01*
X138954605Y-131073907D01*
X138950118Y-131075215D01*
X138950117Y-131075215D01*
X138918817Y-131084338D01*
X138697683Y-131148792D01*
X138693430Y-131150752D01*
X138693429Y-131150753D01*
X138641512Y-131174687D01*
X138454652Y-131260831D01*
X138450743Y-131263394D01*
X138234764Y-131404996D01*
X138234759Y-131405000D01*
X138230851Y-131407562D01*
X138190128Y-131443909D01*
X138056151Y-131563488D01*
X138031197Y-131585760D01*
X137860075Y-131791512D01*
X137857652Y-131795505D01*
X137739168Y-131990761D01*
X137721244Y-132020298D01*
X137719437Y-132024606D01*
X137719437Y-132024607D01*
X137621269Y-132258712D01*
X137617755Y-132267091D01*
X137616604Y-132271623D01*
X137616603Y-132271626D01*
X137603414Y-132323557D01*
X137551881Y-132526470D01*
X137551412Y-132531126D01*
X137551412Y-132531127D01*
X137548353Y-132561510D01*
X137525070Y-132792736D01*
X133150500Y-132792736D01*
X133150500Y-132105252D01*
X133138867Y-132046769D01*
X133094552Y-131980448D01*
X133028231Y-131936133D01*
X133016062Y-131933712D01*
X133016061Y-131933712D01*
X132975816Y-131925707D01*
X132969748Y-131924500D01*
X132844000Y-131924500D01*
X132775879Y-131904498D01*
X132729386Y-131850842D01*
X132718000Y-131798500D01*
X132718000Y-128151500D01*
X132738002Y-128083379D01*
X132791658Y-128036886D01*
X132844000Y-128025500D01*
X134119748Y-128025500D01*
X134125816Y-128024293D01*
X134166061Y-128016288D01*
X134166062Y-128016288D01*
X134178231Y-128013867D01*
X134244552Y-127969552D01*
X134288867Y-127903231D01*
X134300500Y-127844748D01*
X134300500Y-125805252D01*
X134297270Y-125789012D01*
X134291288Y-125758939D01*
X134291288Y-125758938D01*
X134288867Y-125746769D01*
X134281033Y-125735044D01*
X134251443Y-125690761D01*
X134244552Y-125680448D01*
X134178231Y-125636133D01*
X134166062Y-125633712D01*
X134166061Y-125633712D01*
X134125816Y-125625707D01*
X134119748Y-125624500D01*
X130598966Y-125624500D01*
X130530845Y-125604498D01*
X130484352Y-125550842D01*
X130474248Y-125480568D01*
X130503742Y-125415988D01*
X130509871Y-125409405D01*
X131973023Y-123946253D01*
X132035335Y-123912227D01*
X132106150Y-123917292D01*
X132140756Y-123939536D01*
X132141718Y-123938282D01*
X132267159Y-124034536D01*
X132413238Y-124095044D01*
X132421426Y-124096122D01*
X132454681Y-124100500D01*
X132570000Y-124115682D01*
X132578188Y-124114604D01*
X132718574Y-124096122D01*
X132726762Y-124095044D01*
X132872841Y-124034536D01*
X132978835Y-123953204D01*
X132991736Y-123943305D01*
X132998282Y-123938282D01*
X133007848Y-123925816D01*
X133060403Y-123857324D01*
X133094536Y-123812841D01*
X133155044Y-123666762D01*
X133157528Y-123647898D01*
X133172471Y-123534391D01*
X133175682Y-123510000D01*
X133155044Y-123353238D01*
X133094536Y-123207159D01*
X133021975Y-123112595D01*
X133003309Y-123088269D01*
X133003306Y-123088266D01*
X132998282Y-123081718D01*
X132972195Y-123061701D01*
X132930328Y-123004363D01*
X132922900Y-122961739D01*
X132922900Y-121626978D01*
X132942902Y-121558857D01*
X132996558Y-121512364D01*
X133066832Y-121502260D01*
X133125604Y-121527015D01*
X133244188Y-121618007D01*
X133242407Y-121620329D01*
X133281655Y-121661490D01*
X133285430Y-121669488D01*
X133292993Y-121687092D01*
X133297007Y-121691978D01*
X133299192Y-121694163D01*
X133301244Y-121696426D01*
X133301084Y-121696571D01*
X133308204Y-121705578D01*
X133314456Y-121712473D01*
X133320561Y-121722377D01*
X133342349Y-121738945D01*
X133355168Y-121750139D01*
X133926404Y-122321375D01*
X133960430Y-122383687D01*
X133962231Y-122426916D01*
X133949318Y-122525000D01*
X133969956Y-122681762D01*
X134030464Y-122827841D01*
X134059085Y-122865141D01*
X134117285Y-122940988D01*
X134126718Y-122953282D01*
X134252159Y-123049536D01*
X134398238Y-123110044D01*
X134555000Y-123130682D01*
X134563188Y-123129604D01*
X134703574Y-123111122D01*
X134711762Y-123110044D01*
X134857841Y-123049536D01*
X134983282Y-122953282D01*
X134992716Y-122940988D01*
X135050915Y-122865141D01*
X135079536Y-122827841D01*
X135107919Y-122759319D01*
X135152466Y-122704039D01*
X135219829Y-122681618D01*
X135288621Y-122699176D01*
X135313422Y-122718443D01*
X135355874Y-122760895D01*
X135389900Y-122823207D01*
X135384835Y-122894022D01*
X135356579Y-122937988D01*
X135351718Y-122941718D01*
X135346695Y-122948264D01*
X135327492Y-122973290D01*
X135255464Y-123067159D01*
X135194956Y-123213238D01*
X135174318Y-123370000D01*
X135194956Y-123526762D01*
X135255464Y-123672841D01*
X135294135Y-123723238D01*
X135345787Y-123790552D01*
X135351718Y-123798282D01*
X135477159Y-123894536D01*
X135623238Y-123955044D01*
X135780000Y-123975682D01*
X135788188Y-123974604D01*
X135928574Y-123956122D01*
X135936762Y-123955044D01*
X135944389Y-123951885D01*
X135944392Y-123951884D01*
X135988668Y-123933544D01*
X136059258Y-123925955D01*
X136122745Y-123957735D01*
X136158972Y-124018793D01*
X136156438Y-124089744D01*
X136125981Y-124139048D01*
X135724548Y-124540481D01*
X135722514Y-124542237D01*
X135717731Y-124544575D01*
X135709819Y-124553104D01*
X135709818Y-124553105D01*
X135684427Y-124580477D01*
X135681147Y-124583882D01*
X135667752Y-124597277D01*
X135665028Y-124601247D01*
X135662703Y-124603895D01*
X135649508Y-124618119D01*
X135649506Y-124618122D01*
X135641599Y-124626646D01*
X135637289Y-124637450D01*
X135634767Y-124641439D01*
X135629006Y-124652227D01*
X135627089Y-124656552D01*
X135620508Y-124666146D01*
X135617822Y-124677465D01*
X135617821Y-124677467D01*
X135614817Y-124690127D01*
X135609252Y-124707724D01*
X135600117Y-124730622D01*
X135599500Y-124736915D01*
X135599500Y-124739994D01*
X135599350Y-124743067D01*
X135599134Y-124743056D01*
X135597802Y-124754431D01*
X135597346Y-124763746D01*
X135594660Y-124775066D01*
X135596229Y-124786595D01*
X135596229Y-124786596D01*
X135598349Y-124802173D01*
X135599500Y-124819164D01*
X135599500Y-125607634D01*
X135599304Y-125610307D01*
X135597575Y-125615342D01*
X135598011Y-125626964D01*
X135598011Y-125626966D01*
X135599411Y-125664255D01*
X135599500Y-125668981D01*
X135599500Y-125687948D01*
X135600382Y-125692683D01*
X135600610Y-125696209D01*
X135601774Y-125727208D01*
X135606364Y-125737893D01*
X135607401Y-125742493D01*
X135610962Y-125754214D01*
X135612661Y-125758617D01*
X135614791Y-125770053D01*
X135626651Y-125789293D01*
X135627727Y-125791039D01*
X135636231Y-125807411D01*
X135642451Y-125821888D01*
X135642453Y-125821892D01*
X135645964Y-125830063D01*
X135649978Y-125834949D01*
X135652163Y-125837134D01*
X135654215Y-125839397D01*
X135654055Y-125839542D01*
X135661175Y-125848549D01*
X135667427Y-125855444D01*
X135673532Y-125865348D01*
X135695320Y-125881916D01*
X135708139Y-125893110D01*
X136850484Y-127035456D01*
X136852238Y-127037487D01*
X136854575Y-127042269D01*
X136863104Y-127050181D01*
X136863105Y-127050182D01*
X136890463Y-127075560D01*
X136893868Y-127078840D01*
X136907276Y-127092248D01*
X136911255Y-127094978D01*
X136913884Y-127097286D01*
X136936646Y-127118401D01*
X136947453Y-127122712D01*
X136951448Y-127125238D01*
X136962242Y-127131001D01*
X136966554Y-127132912D01*
X136976146Y-127139492D01*
X136987463Y-127142178D01*
X136987464Y-127142178D01*
X137000127Y-127145183D01*
X137017724Y-127150748D01*
X137032362Y-127156588D01*
X137032365Y-127156589D01*
X137040622Y-127159883D01*
X137046915Y-127160500D01*
X137049994Y-127160500D01*
X137053067Y-127160650D01*
X137053056Y-127160866D01*
X137064431Y-127162198D01*
X137073746Y-127162654D01*
X137085066Y-127165340D01*
X137096595Y-127163771D01*
X137096596Y-127163771D01*
X137112173Y-127161651D01*
X137129164Y-127160500D01*
X140213500Y-127160500D01*
X140281621Y-127180502D01*
X140328114Y-127234158D01*
X140339500Y-127286500D01*
X140339500Y-127504748D01*
X140351133Y-127563231D01*
X140358025Y-127573546D01*
X140358027Y-127573550D01*
X140378038Y-127603498D01*
X140399253Y-127671251D01*
X140380470Y-127739718D01*
X140327653Y-127787161D01*
X140273273Y-127799500D01*
X139330252Y-127799500D01*
X139324184Y-127800707D01*
X139283939Y-127808712D01*
X139283938Y-127808712D01*
X139271769Y-127811133D01*
X139205448Y-127855448D01*
X139161133Y-127921769D01*
X139149500Y-127980252D01*
X139149500Y-130119748D01*
X139161133Y-130178231D01*
X139168026Y-130188547D01*
X139176643Y-130201443D01*
X139205448Y-130244552D01*
X139215761Y-130251443D01*
X139252061Y-130275698D01*
X139271769Y-130288867D01*
X139283938Y-130291288D01*
X139283939Y-130291288D01*
X139324184Y-130299293D01*
X139330252Y-130300500D01*
X141753500Y-130300500D01*
X141821621Y-130320502D01*
X141868114Y-130374158D01*
X141879500Y-130426500D01*
X141879500Y-133052920D01*
X141877534Y-133070241D01*
X141877524Y-133075810D01*
X141874344Y-133089641D01*
X141877477Y-133103483D01*
X141877452Y-133117671D01*
X141876703Y-133117670D01*
X141877346Y-133125610D01*
X141863194Y-133359567D01*
X141861360Y-133374671D01*
X141814055Y-133632808D01*
X141810414Y-133647581D01*
X141736278Y-133885494D01*
X141732337Y-133898140D01*
X141726943Y-133912363D01*
X141631558Y-134124298D01*
X141619235Y-134151679D01*
X141612165Y-134165151D01*
X141489377Y-134368267D01*
X141476395Y-134389741D01*
X141467753Y-134402262D01*
X141349476Y-134553231D01*
X141305896Y-134608857D01*
X141295806Y-134620245D01*
X141110245Y-134805806D01*
X141098857Y-134815896D01*
X140892263Y-134977752D01*
X140879741Y-134986395D01*
X140655152Y-135122164D01*
X140641681Y-135129234D01*
X140402363Y-135236943D01*
X140388145Y-135242335D01*
X140150651Y-135316341D01*
X140137581Y-135320414D01*
X140122808Y-135324055D01*
X139864671Y-135371360D01*
X139849567Y-135373194D01*
X139766817Y-135378200D01*
X139616053Y-135387319D01*
X139608232Y-135387549D01*
X139594189Y-135387524D01*
X139580359Y-135384344D01*
X139566520Y-135387476D01*
X139561689Y-135387467D01*
X139543496Y-135389500D01*
X135617371Y-135389500D01*
X135588918Y-135386245D01*
X135587676Y-135385957D01*
X135587669Y-135385956D01*
X135580718Y-135384345D01*
X135580000Y-135384344D01*
X135577873Y-135384829D01*
X135575612Y-135384569D01*
X135575652Y-135385336D01*
X135244998Y-135402665D01*
X135241758Y-135403178D01*
X135241750Y-135403179D01*
X135118047Y-135422772D01*
X134913665Y-135455143D01*
X134681869Y-135517253D01*
X134633041Y-135530336D01*
X134600528Y-135534629D01*
X118466235Y-135547128D01*
X116344098Y-135548772D01*
X116275961Y-135528823D01*
X116229427Y-135475203D01*
X116218000Y-135422772D01*
X116218000Y-134683684D01*
X116227591Y-134635466D01*
X116281884Y-134504392D01*
X116281885Y-134504389D01*
X116285044Y-134496762D01*
X116292120Y-134443018D01*
X116298275Y-134396265D01*
X116305682Y-134340000D01*
X116285044Y-134183238D01*
X116274852Y-134158631D01*
X116227591Y-134044534D01*
X116218000Y-133996316D01*
X116218000Y-133668177D01*
X116238002Y-133600056D01*
X116291658Y-133553563D01*
X116319419Y-133544598D01*
X116336061Y-133541288D01*
X116336062Y-133541288D01*
X116348231Y-133538867D01*
X116414552Y-133494552D01*
X116458867Y-133428231D01*
X116470500Y-133369748D01*
X116470500Y-132430252D01*
X116458867Y-132371769D01*
X116414552Y-132305448D01*
X116348231Y-132261133D01*
X116336062Y-132258712D01*
X116336061Y-132258712D01*
X116295816Y-132250707D01*
X116289748Y-132249500D01*
X115050252Y-132249500D01*
X115044184Y-132250707D01*
X115003939Y-132258712D01*
X115003938Y-132258712D01*
X114991769Y-132261133D01*
X114925448Y-132305448D01*
X114881133Y-132371769D01*
X114869500Y-132430252D01*
X114869500Y-132447464D01*
X114849498Y-132515585D01*
X114797065Y-132561018D01*
X114794109Y-132561510D01*
X114785195Y-132566319D01*
X114785194Y-132566320D01*
X114752340Y-132584047D01*
X114747067Y-132586735D01*
X114704275Y-132607283D01*
X114700301Y-132610623D01*
X114698363Y-132612561D01*
X114696747Y-132614043D01*
X114696285Y-132614292D01*
X114696259Y-132614263D01*
X114696132Y-132614375D01*
X114690714Y-132617298D01*
X114683644Y-132624946D01*
X114683643Y-132624947D01*
X114656793Y-132653994D01*
X114653363Y-132657561D01*
X113610729Y-133700195D01*
X113548417Y-133734221D01*
X113521634Y-133737100D01*
X112963371Y-133737100D01*
X112895250Y-133717098D01*
X112848757Y-133663442D01*
X112838653Y-133593168D01*
X112868147Y-133528588D01*
X112907840Y-133497997D01*
X112947507Y-133478522D01*
X112947509Y-133478521D01*
X112956855Y-133473932D01*
X113039293Y-133391350D01*
X113051111Y-133367174D01*
X113086240Y-133295306D01*
X113090536Y-133286518D01*
X113100500Y-133218218D01*
X113100500Y-131976782D01*
X113097922Y-131959266D01*
X113091784Y-131917574D01*
X113091784Y-131917573D01*
X113090358Y-131907888D01*
X113050488Y-131826682D01*
X113043522Y-131812493D01*
X113043521Y-131812491D01*
X113038932Y-131803145D01*
X112989882Y-131754181D01*
X112955803Y-131691899D01*
X112952900Y-131665008D01*
X112952900Y-131662779D01*
X112972902Y-131594658D01*
X113026558Y-131548165D01*
X113096832Y-131538061D01*
X113161412Y-131567555D01*
X113167917Y-131573606D01*
X113186276Y-131591933D01*
X113186280Y-131591936D01*
X113193650Y-131599293D01*
X113298482Y-131650536D01*
X113328973Y-131654984D01*
X113362256Y-131659840D01*
X113362260Y-131659840D01*
X113366782Y-131660500D01*
X113733218Y-131660500D01*
X113737768Y-131659830D01*
X113737771Y-131659830D01*
X113792426Y-131651784D01*
X113792427Y-131651784D01*
X113802112Y-131650358D01*
X113852008Y-131625860D01*
X113897507Y-131603522D01*
X113897509Y-131603521D01*
X113906855Y-131598932D01*
X113955848Y-131549853D01*
X113981935Y-131523721D01*
X113981935Y-131523720D01*
X113989293Y-131516350D01*
X114040536Y-131411518D01*
X114050500Y-131343218D01*
X114050500Y-130773266D01*
X114070502Y-130705145D01*
X114087405Y-130684171D01*
X114679999Y-130091577D01*
X114742311Y-130057551D01*
X114813126Y-130062616D01*
X114869962Y-130105163D01*
X114880078Y-130122928D01*
X114881133Y-130128231D01*
X114925448Y-130194552D01*
X114991769Y-130238867D01*
X115003938Y-130241288D01*
X115003939Y-130241288D01*
X115020349Y-130244552D01*
X115050252Y-130250500D01*
X115769234Y-130250500D01*
X115837355Y-130270502D01*
X115858329Y-130287405D01*
X117704319Y-132133395D01*
X117738345Y-132195707D01*
X117733280Y-132266522D01*
X117697059Y-132312297D01*
X117699540Y-132314778D01*
X117690761Y-132323557D01*
X117680448Y-132330448D01*
X117636133Y-132396769D01*
X117624500Y-132455252D01*
X117624500Y-134494748D01*
X117636133Y-134553231D01*
X117680448Y-134619552D01*
X117690761Y-134626443D01*
X117717435Y-134644266D01*
X117746769Y-134663867D01*
X117758938Y-134666288D01*
X117758939Y-134666288D01*
X117799184Y-134674293D01*
X117805252Y-134675500D01*
X119344748Y-134675500D01*
X119350816Y-134674293D01*
X119391061Y-134666288D01*
X119391062Y-134666288D01*
X119403231Y-134663867D01*
X119432566Y-134644266D01*
X119459239Y-134626443D01*
X119469552Y-134619552D01*
X119513867Y-134553231D01*
X119525500Y-134494748D01*
X119525500Y-132455252D01*
X119513867Y-132396769D01*
X119469552Y-132330448D01*
X119403231Y-132286133D01*
X119391062Y-132283712D01*
X119391061Y-132283712D01*
X119350816Y-132275707D01*
X119344748Y-132274500D01*
X118895766Y-132274500D01*
X118827645Y-132254498D01*
X118806671Y-132237595D01*
X116507405Y-129938329D01*
X116473379Y-129876017D01*
X116470500Y-129849234D01*
X116470500Y-129130252D01*
X116466614Y-129110714D01*
X116461288Y-129083939D01*
X116461288Y-129083938D01*
X116458867Y-129071769D01*
X116414552Y-129005448D01*
X116348231Y-128961133D01*
X116336062Y-128958712D01*
X116336061Y-128958712D01*
X116295816Y-128950707D01*
X116289748Y-128949500D01*
X115084212Y-128949500D01*
X115016091Y-128929498D01*
X114970629Y-128878043D01*
X114968652Y-128873925D01*
X114968649Y-128873921D01*
X114965218Y-128866775D01*
X114961877Y-128862801D01*
X114959944Y-128860868D01*
X114958457Y-128859247D01*
X114958215Y-128858798D01*
X114958246Y-128858770D01*
X114958127Y-128858634D01*
X114955202Y-128853214D01*
X114918505Y-128819292D01*
X114914939Y-128815863D01*
X114504642Y-128405566D01*
X114470616Y-128343254D01*
X114470664Y-128290651D01*
X114472519Y-128285369D01*
X114475500Y-128253834D01*
X114475500Y-127646166D01*
X114472519Y-127614631D01*
X114427634Y-127486816D01*
X114422042Y-127479246D01*
X114422041Y-127479243D01*
X114359665Y-127394794D01*
X114347150Y-127377850D01*
X114310411Y-127350714D01*
X114245757Y-127302959D01*
X114245754Y-127302958D01*
X114238184Y-127297366D01*
X114110369Y-127252481D01*
X114102723Y-127251758D01*
X114102722Y-127251758D01*
X114096752Y-127251194D01*
X114078834Y-127249500D01*
X113021166Y-127249500D01*
X113003248Y-127251194D01*
X112997278Y-127251758D01*
X112997277Y-127251758D01*
X112989631Y-127252481D01*
X112861816Y-127297366D01*
X112854246Y-127302958D01*
X112854243Y-127302959D01*
X112789589Y-127350714D01*
X112752850Y-127377850D01*
X112747258Y-127385421D01*
X112717436Y-127425796D01*
X112660874Y-127468707D01*
X112590093Y-127474226D01*
X112527563Y-127440601D01*
X112502504Y-127405482D01*
X112482717Y-127364275D01*
X112479377Y-127360301D01*
X112477439Y-127358363D01*
X112475957Y-127356747D01*
X112475708Y-127356285D01*
X112475737Y-127356259D01*
X112475625Y-127356132D01*
X112472702Y-127350714D01*
X112463555Y-127342258D01*
X112436006Y-127316793D01*
X112432439Y-127313363D01*
X111997405Y-126878329D01*
X111963379Y-126816017D01*
X111960500Y-126789234D01*
X111960500Y-126280252D01*
X111948867Y-126221769D01*
X111904552Y-126155448D01*
X111838231Y-126111133D01*
X111826062Y-126108712D01*
X111826061Y-126108712D01*
X111785816Y-126100707D01*
X111779748Y-126099500D01*
X110540252Y-126099500D01*
X110534184Y-126100707D01*
X110493939Y-126108712D01*
X110493938Y-126108712D01*
X110481769Y-126111133D01*
X110415448Y-126155448D01*
X110371133Y-126221769D01*
X110359500Y-126280252D01*
X110359500Y-127219748D01*
X110360707Y-127225816D01*
X110365474Y-127249779D01*
X110371133Y-127278231D01*
X110415448Y-127344552D01*
X110481769Y-127388867D01*
X110493938Y-127391288D01*
X110493939Y-127391288D01*
X110534184Y-127399293D01*
X110540252Y-127400500D01*
X111469234Y-127400500D01*
X111537355Y-127420502D01*
X111558329Y-127437405D01*
X111800195Y-127679271D01*
X111834221Y-127741583D01*
X111837100Y-127768366D01*
X111837100Y-128521442D01*
X111817098Y-128589563D01*
X111763442Y-128636056D01*
X111693546Y-128646106D01*
X111693173Y-128645932D01*
X111690480Y-128645578D01*
X111690478Y-128645577D01*
X111648403Y-128640038D01*
X111648402Y-128640038D01*
X111644316Y-128639500D01*
X111195684Y-128639500D01*
X111146827Y-128645932D01*
X111138091Y-128650006D01*
X111138090Y-128650006D01*
X111049589Y-128691275D01*
X111039596Y-128695935D01*
X110955935Y-128779596D01*
X110951275Y-128789588D01*
X110951275Y-128789589D01*
X110917136Y-128862801D01*
X110905932Y-128886827D01*
X110899500Y-128935684D01*
X110899500Y-129284316D01*
X110905932Y-129333173D01*
X110910006Y-129341909D01*
X110910006Y-129341910D01*
X110939922Y-129406064D01*
X110955935Y-129440404D01*
X111039596Y-129524065D01*
X111049588Y-129528725D01*
X111049589Y-129528725D01*
X111105104Y-129554612D01*
X111146827Y-129574068D01*
X111176750Y-129578007D01*
X111187547Y-129579429D01*
X111252474Y-129608152D01*
X111291565Y-129667417D01*
X111297100Y-129704351D01*
X111297100Y-129789979D01*
X111277098Y-129858100D01*
X111260274Y-129878996D01*
X111234053Y-129905263D01*
X111210707Y-129928650D01*
X111159464Y-130033482D01*
X111149500Y-130101782D01*
X111149500Y-131343218D01*
X111150170Y-131347768D01*
X111150170Y-131347771D01*
X111158216Y-131402426D01*
X111159642Y-131412112D01*
X111211068Y-131516855D01*
X111257783Y-131563488D01*
X111260117Y-131565818D01*
X111294197Y-131628101D01*
X111297100Y-131654992D01*
X111297100Y-133448917D01*
X111295023Y-133468430D01*
X111294809Y-133472968D01*
X111292618Y-133483146D01*
X111293842Y-133493487D01*
X111296227Y-133513642D01*
X111296540Y-133518950D01*
X111296672Y-133518939D01*
X111297100Y-133524117D01*
X111297100Y-133529318D01*
X111297954Y-133534447D01*
X111297954Y-133534450D01*
X111300012Y-133546814D01*
X111300849Y-133552693D01*
X111306426Y-133599817D01*
X111310112Y-133607493D01*
X111311510Y-133615891D01*
X111316455Y-133625055D01*
X111316455Y-133625056D01*
X111334047Y-133657660D01*
X111336735Y-133662933D01*
X111357283Y-133705725D01*
X111360623Y-133709699D01*
X111362561Y-133711637D01*
X111364043Y-133713253D01*
X111364292Y-133713715D01*
X111364263Y-133713741D01*
X111364375Y-133713868D01*
X111367298Y-133719286D01*
X111374946Y-133726356D01*
X111374947Y-133726357D01*
X111403994Y-133753207D01*
X111407561Y-133756637D01*
X111954339Y-134303415D01*
X111966672Y-134318684D01*
X111969724Y-134322038D01*
X111975375Y-134330790D01*
X111999499Y-134349808D01*
X112003466Y-134353334D01*
X112003552Y-134353233D01*
X112007515Y-134356591D01*
X112011193Y-134360269D01*
X112025627Y-134370584D01*
X112030357Y-134374135D01*
X112067638Y-134403525D01*
X112075673Y-134406347D01*
X112082599Y-134411296D01*
X112092570Y-134414278D01*
X112092574Y-134414280D01*
X112128076Y-134424897D01*
X112133692Y-134426721D01*
X112178487Y-134442452D01*
X112183659Y-134442900D01*
X112186363Y-134442900D01*
X112188595Y-134442996D01*
X112189095Y-134443146D01*
X112189093Y-134443184D01*
X112189257Y-134443194D01*
X112195158Y-134444959D01*
X112245089Y-134442997D01*
X112250035Y-134442900D01*
X113668917Y-134442900D01*
X113688430Y-134444977D01*
X113692968Y-134445191D01*
X113703146Y-134447382D01*
X113723619Y-134444959D01*
X113733642Y-134443773D01*
X113738950Y-134443460D01*
X113738939Y-134443328D01*
X113744117Y-134442900D01*
X113749318Y-134442900D01*
X113754447Y-134442046D01*
X113754450Y-134442046D01*
X113766814Y-134439988D01*
X113772693Y-134439151D01*
X113775759Y-134438788D01*
X113819817Y-134433574D01*
X113827493Y-134429888D01*
X113835891Y-134428490D01*
X113867758Y-134411296D01*
X113877660Y-134405953D01*
X113882933Y-134403265D01*
X113925725Y-134382717D01*
X113929699Y-134379377D01*
X113931637Y-134377439D01*
X113933253Y-134375957D01*
X113933715Y-134375708D01*
X113933741Y-134375737D01*
X113933868Y-134375625D01*
X113939286Y-134372702D01*
X113947988Y-134363289D01*
X113973207Y-134336006D01*
X113976637Y-134332439D01*
X114785835Y-133523241D01*
X114848147Y-133489215D01*
X114918962Y-133494280D01*
X114944932Y-133507571D01*
X114954018Y-133513642D01*
X114981452Y-133531974D01*
X114981455Y-133531975D01*
X114991769Y-133538867D01*
X115003938Y-133541288D01*
X115003939Y-133541288D01*
X115031721Y-133546814D01*
X115050252Y-133550500D01*
X115056439Y-133550500D01*
X115062602Y-133551107D01*
X115062475Y-133552401D01*
X115124121Y-133570502D01*
X115170614Y-133624158D01*
X115182000Y-133676500D01*
X115182000Y-133996316D01*
X115172409Y-134044534D01*
X115125149Y-134158631D01*
X115114956Y-134183238D01*
X115094318Y-134340000D01*
X115101725Y-134396265D01*
X115107881Y-134443018D01*
X115114956Y-134496762D01*
X115118115Y-134504389D01*
X115118116Y-134504392D01*
X115172409Y-134635466D01*
X115182000Y-134683684D01*
X115182000Y-135423770D01*
X115161998Y-135491891D01*
X115108342Y-135538384D01*
X115056099Y-135549770D01*
X113617045Y-135550885D01*
X113576814Y-135543442D01*
X113576578Y-135544168D01*
X113573459Y-135543154D01*
X113570366Y-135541967D01*
X113567175Y-135541112D01*
X113567172Y-135541111D01*
X113488024Y-135519903D01*
X113246335Y-135455143D01*
X113041953Y-135422772D01*
X112918250Y-135403179D01*
X112918242Y-135403178D01*
X112915002Y-135402665D01*
X112585181Y-135385380D01*
X112585224Y-135384566D01*
X112582827Y-135384834D01*
X112580718Y-135384345D01*
X112580000Y-135384344D01*
X112571225Y-135386346D01*
X112543210Y-135389500D01*
X108617080Y-135389500D01*
X108599759Y-135387534D01*
X108594190Y-135387524D01*
X108580359Y-135384344D01*
X108566517Y-135387477D01*
X108552329Y-135387452D01*
X108552330Y-135386703D01*
X108544390Y-135387346D01*
X108310433Y-135373194D01*
X108295329Y-135371360D01*
X108037192Y-135324055D01*
X108022419Y-135320414D01*
X108009349Y-135316341D01*
X107771855Y-135242335D01*
X107757637Y-135236943D01*
X107518319Y-135129234D01*
X107504848Y-135122164D01*
X107280259Y-134986395D01*
X107267737Y-134977752D01*
X107061143Y-134815896D01*
X107049755Y-134805806D01*
X106864194Y-134620245D01*
X106854104Y-134608857D01*
X106810524Y-134553231D01*
X106692247Y-134402262D01*
X106683605Y-134389741D01*
X106670624Y-134368267D01*
X106547835Y-134165151D01*
X106540765Y-134151679D01*
X106528442Y-134124298D01*
X106433057Y-133912363D01*
X106427663Y-133898140D01*
X106423723Y-133885494D01*
X106349586Y-133647581D01*
X106345945Y-133632808D01*
X106298640Y-133374671D01*
X106296806Y-133359567D01*
X106282692Y-133126242D01*
X106283288Y-133104226D01*
X106284042Y-133097677D01*
X106285655Y-133090718D01*
X106285656Y-133090000D01*
X106283654Y-133081225D01*
X106280500Y-133053210D01*
X106280500Y-132792736D01*
X107025070Y-132792736D01*
X107025698Y-132805807D01*
X107037909Y-133060041D01*
X107090118Y-133322512D01*
X107180549Y-133574383D01*
X107193096Y-133597734D01*
X107300650Y-133797902D01*
X107307215Y-133810121D01*
X107310010Y-133813864D01*
X107310012Y-133813867D01*
X107451052Y-134002742D01*
X107467335Y-134024547D01*
X107470642Y-134027825D01*
X107470647Y-134027831D01*
X107654074Y-134209663D01*
X107657390Y-134212950D01*
X107661156Y-134215712D01*
X107661158Y-134215713D01*
X107822746Y-134334194D01*
X107873205Y-134371192D01*
X107877340Y-134373368D01*
X107877344Y-134373370D01*
X108003654Y-134439825D01*
X108110039Y-134495797D01*
X108179419Y-134520025D01*
X108358273Y-134582484D01*
X108358279Y-134582486D01*
X108362690Y-134584026D01*
X108367283Y-134584898D01*
X108549808Y-134619552D01*
X108625606Y-134633943D01*
X108752616Y-134638933D01*
X108888345Y-134644266D01*
X108888350Y-134644266D01*
X108893013Y-134644449D01*
X108988943Y-134633943D01*
X109154382Y-134615825D01*
X109154387Y-134615824D01*
X109159035Y-134615315D01*
X109274567Y-134584898D01*
X109413309Y-134548370D01*
X109417829Y-134547180D01*
X109554239Y-134488574D01*
X109659407Y-134443391D01*
X109659410Y-134443389D01*
X109663710Y-134441542D01*
X109667690Y-134439079D01*
X109667694Y-134439077D01*
X109887302Y-134303179D01*
X109887306Y-134303176D01*
X109891275Y-134300720D01*
X109965293Y-134238059D01*
X110091960Y-134130828D01*
X110091961Y-134130827D01*
X110095526Y-134127809D01*
X110136793Y-134080753D01*
X110268894Y-133930122D01*
X110268898Y-133930117D01*
X110271976Y-133926607D01*
X110274506Y-133922674D01*
X110414219Y-133705465D01*
X110414222Y-133705460D01*
X110416747Y-133701534D01*
X110526661Y-133457534D01*
X110544908Y-133392836D01*
X110598032Y-133204473D01*
X110598033Y-133204470D01*
X110599302Y-133199969D01*
X110617103Y-133060041D01*
X110632677Y-132937625D01*
X110632677Y-132937621D01*
X110633075Y-132934495D01*
X110635549Y-132840000D01*
X110629497Y-132758562D01*
X110616064Y-132577788D01*
X110616063Y-132577784D01*
X110615717Y-132573123D01*
X110605161Y-132526470D01*
X110570155Y-132371769D01*
X110556655Y-132312109D01*
X110535890Y-132258712D01*
X110461355Y-132067044D01*
X110461354Y-132067042D01*
X110459662Y-132062691D01*
X110326868Y-131830350D01*
X110161190Y-131620189D01*
X109966269Y-131436825D01*
X109746385Y-131284286D01*
X109742194Y-131282219D01*
X109510559Y-131167989D01*
X109510556Y-131167988D01*
X109506371Y-131165924D01*
X109251497Y-131084338D01*
X109106134Y-131060665D01*
X108991976Y-131042073D01*
X108991975Y-131042073D01*
X108987364Y-131041322D01*
X108853569Y-131039571D01*
X108724451Y-131037880D01*
X108724448Y-131037880D01*
X108719774Y-131037819D01*
X108454605Y-131073907D01*
X108450118Y-131075215D01*
X108450117Y-131075215D01*
X108418817Y-131084338D01*
X108197683Y-131148792D01*
X108193430Y-131150752D01*
X108193429Y-131150753D01*
X108141512Y-131174687D01*
X107954652Y-131260831D01*
X107950743Y-131263394D01*
X107734764Y-131404996D01*
X107734759Y-131405000D01*
X107730851Y-131407562D01*
X107690128Y-131443909D01*
X107556151Y-131563488D01*
X107531197Y-131585760D01*
X107360075Y-131791512D01*
X107357652Y-131795505D01*
X107239168Y-131990761D01*
X107221244Y-132020298D01*
X107219437Y-132024606D01*
X107219437Y-132024607D01*
X107121269Y-132258712D01*
X107117755Y-132267091D01*
X107116604Y-132271623D01*
X107116603Y-132271626D01*
X107103414Y-132323557D01*
X107051881Y-132526470D01*
X107051412Y-132531126D01*
X107051412Y-132531127D01*
X107048353Y-132561510D01*
X107025070Y-132792736D01*
X106280500Y-132792736D01*
X106280500Y-130426500D01*
X106300502Y-130358379D01*
X106354158Y-130311886D01*
X106406500Y-130300500D01*
X108819348Y-130300500D01*
X108825416Y-130299293D01*
X108865661Y-130291288D01*
X108865662Y-130291288D01*
X108877831Y-130288867D01*
X108897540Y-130275698D01*
X108933839Y-130251443D01*
X108944152Y-130244552D01*
X108972957Y-130201443D01*
X108981574Y-130188547D01*
X108988467Y-130178231D01*
X109000100Y-130119748D01*
X109000100Y-127980252D01*
X108988467Y-127921769D01*
X108944152Y-127855448D01*
X108877831Y-127811133D01*
X108865662Y-127808712D01*
X108865661Y-127808712D01*
X108825416Y-127800707D01*
X108819348Y-127799500D01*
X107876327Y-127799500D01*
X107808206Y-127779498D01*
X107761713Y-127725842D01*
X107751609Y-127655568D01*
X107771562Y-127603498D01*
X107791573Y-127573550D01*
X107791575Y-127573546D01*
X107798467Y-127563231D01*
X107810100Y-127504748D01*
X107810100Y-126195252D01*
X107803374Y-126161439D01*
X107800888Y-126148939D01*
X107800888Y-126148938D01*
X107798467Y-126136769D01*
X107754152Y-126070448D01*
X107687831Y-126026133D01*
X107675662Y-126023712D01*
X107675661Y-126023712D01*
X107635416Y-126015707D01*
X107629348Y-126014500D01*
X106406500Y-126014500D01*
X106338379Y-125994498D01*
X106291886Y-125940842D01*
X106280500Y-125888500D01*
X106280500Y-122412838D01*
X106300502Y-122344717D01*
X106354158Y-122298224D01*
X106424432Y-122288120D01*
X106478950Y-122309750D01*
X106610047Y-122401887D01*
X106768013Y-122463476D01*
X106775546Y-122464468D01*
X106775547Y-122464468D01*
X106893239Y-122479962D01*
X106897326Y-122480500D01*
X107786016Y-122480500D01*
X107911820Y-122465276D01*
X108070423Y-122405345D01*
X108085280Y-122395134D01*
X108203892Y-122313614D01*
X108203893Y-122313613D01*
X108210151Y-122309312D01*
X108220030Y-122298224D01*
X108317888Y-122188392D01*
X108317890Y-122188388D01*
X108322940Y-122182721D01*
X108329738Y-122169883D01*
X108388999Y-122057957D01*
X108402276Y-122032881D01*
X108443581Y-121868441D01*
X108443630Y-121859188D01*
X108444346Y-121722377D01*
X108444469Y-121698895D01*
X108441636Y-121687092D01*
X108406661Y-121541417D01*
X108404888Y-121534032D01*
X108401267Y-121527015D01*
X108330608Y-121390117D01*
X108330608Y-121390116D01*
X108327125Y-121383369D01*
X108321813Y-121377279D01*
X108255826Y-121301637D01*
X108215669Y-121255604D01*
X108106873Y-121179141D01*
X108083170Y-121162482D01*
X108083168Y-121162481D01*
X108076953Y-121158113D01*
X107918987Y-121096524D01*
X107911454Y-121095532D01*
X107911453Y-121095532D01*
X107793761Y-121080038D01*
X107793760Y-121080038D01*
X107789674Y-121079500D01*
X106900984Y-121079500D01*
X106775180Y-121094724D01*
X106616577Y-121154655D01*
X106610319Y-121158956D01*
X106477867Y-121249988D01*
X106410398Y-121272088D01*
X106341691Y-121254203D01*
X106293561Y-121202011D01*
X106280500Y-121146148D01*
X106280500Y-119443411D01*
X106300502Y-119375290D01*
X106354158Y-119328797D01*
X106424432Y-119318693D01*
X106478950Y-119340324D01*
X106560326Y-119397516D01*
X106560333Y-119397520D01*
X106566547Y-119401887D01*
X106724513Y-119463476D01*
X106732046Y-119464468D01*
X106732047Y-119464468D01*
X106849739Y-119479962D01*
X106853826Y-119480500D01*
X107442516Y-119480500D01*
X107568320Y-119465276D01*
X107726923Y-119405345D01*
X107757613Y-119384252D01*
X107860392Y-119313614D01*
X107860393Y-119313613D01*
X107866651Y-119309312D01*
X107873827Y-119301258D01*
X107974388Y-119188392D01*
X107974390Y-119188388D01*
X107979440Y-119182721D01*
X107982992Y-119176012D01*
X107982995Y-119176008D01*
X107998068Y-119147540D01*
X108047621Y-119096697D01*
X108109422Y-119080500D01*
X108577634Y-119080500D01*
X108580307Y-119080696D01*
X108585342Y-119082425D01*
X108596964Y-119081989D01*
X108596966Y-119081989D01*
X108634255Y-119080589D01*
X108638981Y-119080500D01*
X108657948Y-119080500D01*
X108662683Y-119079618D01*
X108666209Y-119079390D01*
X108669949Y-119079249D01*
X108697208Y-119078226D01*
X108707893Y-119073636D01*
X108712493Y-119072599D01*
X108724214Y-119069038D01*
X108728617Y-119067339D01*
X108740053Y-119065209D01*
X108761041Y-119052272D01*
X108777411Y-119043769D01*
X108791888Y-119037549D01*
X108791892Y-119037547D01*
X108800063Y-119034036D01*
X108804949Y-119030022D01*
X108807134Y-119027837D01*
X108809397Y-119025785D01*
X108809542Y-119025945D01*
X108818549Y-119018825D01*
X108825444Y-119012573D01*
X108835348Y-119006468D01*
X108851916Y-118984680D01*
X108863110Y-118971861D01*
X108890301Y-118944670D01*
X108952613Y-118910644D01*
X109023428Y-118915709D01*
G37*
%TD.AperFunction*%
%TA.AperFunction,Conductor*%
G36*
X123275213Y-126527549D02*
G01*
X123307054Y-126556842D01*
X123327071Y-126582929D01*
X123452512Y-126679183D01*
X123598591Y-126739691D01*
X123755353Y-126760329D01*
X123763541Y-126759251D01*
X123770401Y-126759251D01*
X123838522Y-126779253D01*
X123859496Y-126796156D01*
X126166755Y-129103415D01*
X126179088Y-129118684D01*
X126182140Y-129122038D01*
X126187791Y-129130790D01*
X126211915Y-129149808D01*
X126215882Y-129153334D01*
X126215968Y-129153233D01*
X126219931Y-129156591D01*
X126223609Y-129160269D01*
X126238043Y-129170584D01*
X126242773Y-129174135D01*
X126280054Y-129203525D01*
X126288089Y-129206347D01*
X126295015Y-129211296D01*
X126304986Y-129214278D01*
X126304990Y-129214280D01*
X126329895Y-129221728D01*
X126389428Y-129260410D01*
X126418598Y-129325138D01*
X126408142Y-129395361D01*
X126367524Y-129440764D01*
X126369138Y-129442757D01*
X126358661Y-129451241D01*
X126340069Y-129463734D01*
X126328251Y-129470231D01*
X126320612Y-129476825D01*
X126297801Y-129499636D01*
X126288000Y-129508461D01*
X126268731Y-129524065D01*
X126258844Y-129532071D01*
X126248950Y-129545993D01*
X126235346Y-129562091D01*
X125918442Y-129878996D01*
X125616741Y-130180697D01*
X125575864Y-130208011D01*
X125437159Y-130265464D01*
X125376661Y-130311886D01*
X125319530Y-130355724D01*
X125311718Y-130361718D01*
X125215464Y-130487159D01*
X125154956Y-130633238D01*
X125134318Y-130790000D01*
X125134528Y-130791598D01*
X125115394Y-130856764D01*
X125061738Y-130903257D01*
X124991464Y-130913361D01*
X124926884Y-130883867D01*
X124920301Y-130877738D01*
X123038885Y-128996323D01*
X123004860Y-128934011D01*
X123003058Y-128923674D01*
X122984539Y-128783010D01*
X122984539Y-128783009D01*
X122983461Y-128774821D01*
X122922953Y-128628742D01*
X122917925Y-128622189D01*
X122917923Y-128622186D01*
X122846860Y-128529575D01*
X122821259Y-128463355D01*
X122835524Y-128393806D01*
X122876819Y-128348107D01*
X122909236Y-128326446D01*
X122909239Y-128326443D01*
X122919552Y-128319552D01*
X122963867Y-128253231D01*
X122969715Y-128223834D01*
X122974293Y-128200816D01*
X122975500Y-128194748D01*
X122975500Y-126633547D01*
X122995502Y-126565426D01*
X123049158Y-126518933D01*
X123101500Y-126507547D01*
X123207092Y-126507547D01*
X123275213Y-126527549D01*
G37*
%TD.AperFunction*%
%TA.AperFunction,Conductor*%
G36*
X129165394Y-126506612D02*
G01*
X129213772Y-126558574D01*
X129227100Y-126614974D01*
X129227100Y-127621634D01*
X129207098Y-127689755D01*
X129190195Y-127710729D01*
X128400729Y-128500195D01*
X128338417Y-128534221D01*
X128311634Y-128537100D01*
X126650782Y-128537100D01*
X126582661Y-128517098D01*
X126561687Y-128500195D01*
X125190165Y-127128673D01*
X125156139Y-127066361D01*
X125161204Y-126995546D01*
X125203751Y-126938710D01*
X125270271Y-126913899D01*
X125279260Y-126913578D01*
X126848399Y-126913578D01*
X126916520Y-126933580D01*
X126948361Y-126962873D01*
X127008586Y-127041360D01*
X127015132Y-127046383D01*
X127020083Y-127050182D01*
X127134027Y-127137614D01*
X127280106Y-127198122D01*
X127436868Y-127218760D01*
X127445056Y-127217682D01*
X127476359Y-127213561D01*
X127593630Y-127198122D01*
X127739709Y-127137614D01*
X127853653Y-127050182D01*
X127858604Y-127046383D01*
X127865150Y-127041360D01*
X127870173Y-127034814D01*
X127870176Y-127034811D01*
X127942940Y-126939982D01*
X128000278Y-126898114D01*
X128071149Y-126893892D01*
X128103212Y-126906507D01*
X128107159Y-126909536D01*
X128114786Y-126912695D01*
X128114789Y-126912697D01*
X128235928Y-126962874D01*
X128253238Y-126970044D01*
X128410000Y-126990682D01*
X128418188Y-126989604D01*
X128558574Y-126971122D01*
X128566762Y-126970044D01*
X128712841Y-126909536D01*
X128816165Y-126830253D01*
X128831736Y-126818305D01*
X128838282Y-126813282D01*
X128934536Y-126687841D01*
X128984691Y-126566756D01*
X129029239Y-126511475D01*
X129096603Y-126489054D01*
X129165394Y-126506612D01*
G37*
%TD.AperFunction*%
%TA.AperFunction,Conductor*%
G36*
X139560241Y-99792466D02*
G01*
X139565810Y-99792476D01*
X139579641Y-99795656D01*
X139593483Y-99792523D01*
X139607671Y-99792548D01*
X139607670Y-99793297D01*
X139615610Y-99792654D01*
X139849567Y-99806806D01*
X139864671Y-99808640D01*
X140122808Y-99855945D01*
X140137581Y-99859586D01*
X140388145Y-99937665D01*
X140402363Y-99943057D01*
X140552656Y-100010699D01*
X140641679Y-100050765D01*
X140655152Y-100057836D01*
X140879741Y-100193605D01*
X140892263Y-100202248D01*
X141098857Y-100364104D01*
X141110245Y-100374194D01*
X141295806Y-100559755D01*
X141305896Y-100571143D01*
X141467752Y-100777737D01*
X141476394Y-100790258D01*
X141612164Y-101014848D01*
X141619234Y-101028319D01*
X141695006Y-101196676D01*
X141726941Y-101267633D01*
X141732335Y-101281855D01*
X141787619Y-101459266D01*
X141810414Y-101532419D01*
X141814055Y-101547192D01*
X141861360Y-101805329D01*
X141863194Y-101820433D01*
X141867737Y-101895535D01*
X141876641Y-102042723D01*
X141877319Y-102053939D01*
X141877549Y-102061768D01*
X141877524Y-102075811D01*
X141874344Y-102089641D01*
X141877476Y-102103480D01*
X141877467Y-102108311D01*
X141879500Y-102126504D01*
X141879500Y-104523500D01*
X141859498Y-104591621D01*
X141805842Y-104638114D01*
X141753500Y-104649500D01*
X139375252Y-104649500D01*
X139369184Y-104650707D01*
X139328939Y-104658712D01*
X139328938Y-104658712D01*
X139316769Y-104661133D01*
X139250448Y-104705448D01*
X139206133Y-104771769D01*
X139194500Y-104830252D01*
X139194500Y-106969748D01*
X139195707Y-106975816D01*
X139202462Y-107009774D01*
X139206133Y-107028231D01*
X139250448Y-107094552D01*
X139316769Y-107138867D01*
X139328938Y-107141288D01*
X139328939Y-107141288D01*
X139360502Y-107147566D01*
X139375252Y-107150500D01*
X140268273Y-107150500D01*
X140336394Y-107170502D01*
X140382887Y-107224158D01*
X140392991Y-107294432D01*
X140373038Y-107346502D01*
X140353027Y-107376450D01*
X140353025Y-107376454D01*
X140346133Y-107386769D01*
X140334500Y-107445252D01*
X140334500Y-108754748D01*
X140335707Y-108760816D01*
X140342462Y-108794774D01*
X140346133Y-108813231D01*
X140390448Y-108879552D01*
X140456769Y-108923867D01*
X140468938Y-108926288D01*
X140468939Y-108926288D01*
X140509184Y-108934293D01*
X140515252Y-108935500D01*
X141753500Y-108935500D01*
X141821621Y-108955502D01*
X141868114Y-109009158D01*
X141879500Y-109061500D01*
X141879500Y-114408033D01*
X141859498Y-114476154D01*
X141805842Y-114522647D01*
X141735568Y-114532751D01*
X141669190Y-114501669D01*
X141666646Y-114499378D01*
X141662230Y-114494474D01*
X141548901Y-114412135D01*
X141522935Y-114393269D01*
X141522933Y-114393268D01*
X141517593Y-114389388D01*
X141511565Y-114386704D01*
X141511563Y-114386703D01*
X141360298Y-114319356D01*
X141360297Y-114319356D01*
X141354267Y-114316671D01*
X141259944Y-114296622D01*
X141185848Y-114280872D01*
X141185844Y-114280872D01*
X141179391Y-114279500D01*
X141000609Y-114279500D01*
X140994156Y-114280872D01*
X140994152Y-114280872D01*
X140920056Y-114296622D01*
X140825733Y-114316671D01*
X140819703Y-114319356D01*
X140819702Y-114319356D01*
X140668438Y-114386703D01*
X140668436Y-114386704D01*
X140662408Y-114389388D01*
X140657067Y-114393268D01*
X140657066Y-114393269D01*
X140620599Y-114419764D01*
X140517770Y-114494474D01*
X140513357Y-114499376D01*
X140513355Y-114499377D01*
X140402560Y-114622427D01*
X140398141Y-114627335D01*
X140308750Y-114782165D01*
X140306708Y-114788450D01*
X140265068Y-114916605D01*
X140253503Y-114952197D01*
X140252813Y-114958760D01*
X140252813Y-114958761D01*
X140238712Y-115092927D01*
X140234815Y-115130000D01*
X140253503Y-115307803D01*
X140255543Y-115314080D01*
X140255543Y-115314082D01*
X140269429Y-115356817D01*
X140308750Y-115477835D01*
X140312053Y-115483557D01*
X140312054Y-115483558D01*
X140373792Y-115590491D01*
X140398141Y-115632665D01*
X140402559Y-115637572D01*
X140402560Y-115637573D01*
X140511292Y-115758331D01*
X140517770Y-115765526D01*
X140636954Y-115852119D01*
X140680307Y-115908341D01*
X140686382Y-115979077D01*
X140649146Y-116045903D01*
X140647574Y-116047379D01*
X140641163Y-116052037D01*
X140636110Y-116058145D01*
X140629287Y-116066393D01*
X140536400Y-116178674D01*
X140533025Y-116185847D01*
X140533024Y-116185848D01*
X140523254Y-116206610D01*
X140466421Y-116327387D01*
X140464936Y-116335170D01*
X140464935Y-116335174D01*
X140437153Y-116480813D01*
X140435624Y-116488830D01*
X140440784Y-116570845D01*
X140444891Y-116636118D01*
X140445944Y-116652860D01*
X140448393Y-116660396D01*
X140448393Y-116660398D01*
X140458600Y-116691812D01*
X140496732Y-116809171D01*
X140584798Y-116947940D01*
X140704607Y-117060448D01*
X140711551Y-117064265D01*
X140711553Y-117064267D01*
X140748437Y-117084544D01*
X140848632Y-117139627D01*
X140856304Y-117141597D01*
X140856307Y-117141598D01*
X141000145Y-117178529D01*
X141000148Y-117178529D01*
X141007823Y-117180500D01*
X141130925Y-117180500D01*
X141193935Y-117172540D01*
X141245193Y-117166065D01*
X141245196Y-117166064D01*
X141253058Y-117165071D01*
X141260425Y-117162154D01*
X141260426Y-117162154D01*
X141326970Y-117135807D01*
X141405871Y-117104568D01*
X141415871Y-117097303D01*
X141532423Y-117012623D01*
X141538837Y-117007963D01*
X141643600Y-116881326D01*
X141646977Y-116874149D01*
X141647113Y-116873935D01*
X141700502Y-116827135D01*
X141770717Y-116816629D01*
X141835465Y-116845751D01*
X141874191Y-116905257D01*
X141879500Y-116941447D01*
X141879500Y-117826347D01*
X141859498Y-117894468D01*
X141805842Y-117940961D01*
X141735568Y-117951065D01*
X141670988Y-117921571D01*
X141647115Y-117893862D01*
X141595202Y-117812060D01*
X141534132Y-117754711D01*
X141481170Y-117704977D01*
X141475393Y-117699552D01*
X141468449Y-117695735D01*
X141468447Y-117695733D01*
X141389834Y-117652515D01*
X141331368Y-117620373D01*
X141323696Y-117618403D01*
X141323693Y-117618402D01*
X141179855Y-117581471D01*
X141179852Y-117581471D01*
X141172177Y-117579500D01*
X141049075Y-117579500D01*
X140991310Y-117586797D01*
X140934807Y-117593935D01*
X140934804Y-117593936D01*
X140926942Y-117594929D01*
X140919575Y-117597846D01*
X140919574Y-117597846D01*
X140894696Y-117607696D01*
X140774129Y-117655432D01*
X140767718Y-117660090D01*
X140767716Y-117660091D01*
X140724908Y-117691193D01*
X140641163Y-117752037D01*
X140536400Y-117878674D01*
X140466421Y-118027387D01*
X140464936Y-118035170D01*
X140464935Y-118035174D01*
X140437621Y-118178360D01*
X140435624Y-118188830D01*
X140436122Y-118196741D01*
X140444559Y-118330839D01*
X140445944Y-118352860D01*
X140496732Y-118509171D01*
X140584798Y-118647940D01*
X140590577Y-118653367D01*
X140590578Y-118653368D01*
X140652585Y-118711597D01*
X140688551Y-118772810D01*
X140685712Y-118843750D01*
X140640393Y-118905383D01*
X140517770Y-118994474D01*
X140513357Y-118999376D01*
X140513355Y-118999377D01*
X140402560Y-119122427D01*
X140398141Y-119127335D01*
X140394838Y-119133056D01*
X140318686Y-119264956D01*
X140308750Y-119282165D01*
X140306708Y-119288450D01*
X140259299Y-119434360D01*
X140253503Y-119452197D01*
X140252813Y-119458760D01*
X140252813Y-119458761D01*
X140238839Y-119591714D01*
X140234815Y-119630000D01*
X140235505Y-119636565D01*
X140247684Y-119752435D01*
X140253503Y-119807803D01*
X140255543Y-119814080D01*
X140255543Y-119814082D01*
X140268602Y-119854273D01*
X140308750Y-119977835D01*
X140312053Y-119983557D01*
X140312054Y-119983558D01*
X140372108Y-120087575D01*
X140398141Y-120132665D01*
X140402559Y-120137572D01*
X140402560Y-120137573D01*
X140511292Y-120258331D01*
X140517770Y-120265526D01*
X140523109Y-120269405D01*
X140636745Y-120351967D01*
X140662407Y-120370612D01*
X140668435Y-120373296D01*
X140668437Y-120373297D01*
X140819653Y-120440622D01*
X140825733Y-120443329D01*
X140913171Y-120461914D01*
X140994152Y-120479128D01*
X140994156Y-120479128D01*
X141000609Y-120480500D01*
X141179391Y-120480500D01*
X141185844Y-120479128D01*
X141185848Y-120479128D01*
X141266829Y-120461914D01*
X141354267Y-120443329D01*
X141360347Y-120440622D01*
X141511563Y-120373297D01*
X141511565Y-120373296D01*
X141517593Y-120370612D01*
X141543256Y-120351967D01*
X141656891Y-120269405D01*
X141662230Y-120265526D01*
X141666646Y-120260622D01*
X141669190Y-120258331D01*
X141733197Y-120227613D01*
X141803651Y-120236378D01*
X141858182Y-120281841D01*
X141879500Y-120351967D01*
X141879500Y-125888500D01*
X141859498Y-125956621D01*
X141805842Y-126003114D01*
X141753500Y-126014500D01*
X140520252Y-126014500D01*
X140514184Y-126015707D01*
X140473939Y-126023712D01*
X140473938Y-126023712D01*
X140461769Y-126026133D01*
X140395448Y-126070448D01*
X140351133Y-126136769D01*
X140348712Y-126148938D01*
X140348712Y-126148939D01*
X140346226Y-126161439D01*
X140339500Y-126195252D01*
X140339500Y-126433500D01*
X140319498Y-126501621D01*
X140265842Y-126548114D01*
X140213500Y-126559500D01*
X137276661Y-126559500D01*
X137208540Y-126539498D01*
X137187566Y-126522595D01*
X136624512Y-125959541D01*
X136590486Y-125897229D01*
X136595551Y-125826414D01*
X136638098Y-125769578D01*
X136697160Y-125745524D01*
X136768574Y-125736122D01*
X136776762Y-125735044D01*
X136922841Y-125674536D01*
X137048282Y-125578282D01*
X137144536Y-125452841D01*
X137205044Y-125306762D01*
X137225682Y-125150000D01*
X137224221Y-125138899D01*
X137217136Y-125085081D01*
X137228076Y-125014932D01*
X137242716Y-124992051D01*
X137248194Y-124987455D01*
X137253707Y-124977906D01*
X137267039Y-124954815D01*
X137272945Y-124945544D01*
X137288230Y-124923715D01*
X137294554Y-124914684D01*
X137297408Y-124904034D01*
X137298885Y-124900866D01*
X137300077Y-124897590D01*
X137305588Y-124888045D01*
X137312130Y-124850942D01*
X137314509Y-124840210D01*
X137316842Y-124831503D01*
X137324264Y-124803807D01*
X137320980Y-124766272D01*
X137320500Y-124755290D01*
X137320500Y-122693668D01*
X137320980Y-122682686D01*
X137323303Y-122656138D01*
X137323303Y-122656136D01*
X137324264Y-122645151D01*
X137314508Y-122608743D01*
X137312130Y-122598016D01*
X137310537Y-122588981D01*
X137305588Y-122560913D01*
X137300077Y-122551368D01*
X137298885Y-122548092D01*
X137297408Y-122544924D01*
X137294554Y-122534274D01*
X137272945Y-122503414D01*
X137267039Y-122494143D01*
X137253707Y-122471052D01*
X137248194Y-122461503D01*
X137219317Y-122437273D01*
X137211215Y-122429847D01*
X136721324Y-121939956D01*
X136222405Y-121441038D01*
X136188380Y-121378726D01*
X136185500Y-121351943D01*
X136185500Y-118875577D01*
X136205502Y-118807456D01*
X136259158Y-118760963D01*
X136329432Y-118750859D01*
X136359717Y-118759168D01*
X136427738Y-118787343D01*
X136584500Y-118807981D01*
X136592688Y-118806903D01*
X136733074Y-118788421D01*
X136741262Y-118787343D01*
X136887341Y-118726835D01*
X137012782Y-118630581D01*
X137053823Y-118577095D01*
X137111161Y-118535228D01*
X137153786Y-118527799D01*
X137465283Y-118527799D01*
X137533404Y-118547801D01*
X137554378Y-118564704D01*
X139407595Y-120417922D01*
X139441621Y-120480234D01*
X139444500Y-120507017D01*
X139444500Y-122190714D01*
X139424498Y-122258835D01*
X139395204Y-122290677D01*
X139341718Y-122331718D01*
X139336695Y-122338264D01*
X139321375Y-122358229D01*
X139245464Y-122457159D01*
X139184956Y-122603238D01*
X139164318Y-122760000D01*
X139170731Y-122808712D01*
X139178747Y-122869596D01*
X139184956Y-122916762D01*
X139245464Y-123062841D01*
X139293413Y-123125329D01*
X139330504Y-123173667D01*
X139341718Y-123188282D01*
X139348264Y-123193305D01*
X139357782Y-123200608D01*
X139467159Y-123284536D01*
X139613238Y-123345044D01*
X139770000Y-123365682D01*
X139778188Y-123364604D01*
X139918574Y-123346122D01*
X139926762Y-123345044D01*
X140072841Y-123284536D01*
X140182218Y-123200608D01*
X140191736Y-123193305D01*
X140198282Y-123188282D01*
X140209497Y-123173667D01*
X140246587Y-123125329D01*
X140294536Y-123062841D01*
X140355044Y-122916762D01*
X140361254Y-122869596D01*
X140369269Y-122808712D01*
X140375682Y-122760000D01*
X140355044Y-122603238D01*
X140294536Y-122457159D01*
X140218625Y-122358229D01*
X140203305Y-122338264D01*
X140198282Y-122331718D01*
X140144796Y-122290677D01*
X140102929Y-122233339D01*
X140095500Y-122190714D01*
X140095500Y-120339698D01*
X140095980Y-120328716D01*
X140098302Y-120302180D01*
X140098302Y-120302178D01*
X140099263Y-120291193D01*
X140095804Y-120278282D01*
X140089512Y-120254804D01*
X140087132Y-120244069D01*
X140082502Y-120217812D01*
X140080588Y-120206955D01*
X140075076Y-120197407D01*
X140073883Y-120194130D01*
X140072406Y-120190962D01*
X140069553Y-120180316D01*
X140047942Y-120149452D01*
X140042038Y-120140184D01*
X140023194Y-120107545D01*
X139994323Y-120083320D01*
X139986218Y-120075892D01*
X137896410Y-117986084D01*
X137888983Y-117977980D01*
X137871840Y-117957550D01*
X137871841Y-117957550D01*
X137864754Y-117949105D01*
X137850648Y-117940961D01*
X137832114Y-117930260D01*
X137822843Y-117924354D01*
X137811801Y-117916622D01*
X137791983Y-117902745D01*
X137781333Y-117899891D01*
X137778165Y-117898414D01*
X137774889Y-117897222D01*
X137765344Y-117891711D01*
X137731600Y-117885761D01*
X137728241Y-117885169D01*
X137717514Y-117882791D01*
X137681106Y-117873035D01*
X137670121Y-117873996D01*
X137670119Y-117873996D01*
X137643571Y-117876319D01*
X137632589Y-117876799D01*
X137153786Y-117876799D01*
X137085665Y-117856797D01*
X137053823Y-117827503D01*
X137017805Y-117780563D01*
X137012782Y-117774017D01*
X136999474Y-117763805D01*
X136960910Y-117734214D01*
X136887341Y-117677763D01*
X136741262Y-117617255D01*
X136713406Y-117613588D01*
X136648479Y-117584867D01*
X136609386Y-117525602D01*
X136608540Y-117454611D01*
X136640756Y-117399571D01*
X139017618Y-115022709D01*
X139079930Y-114988683D01*
X139123158Y-114986882D01*
X139190000Y-114995682D01*
X139198188Y-114994604D01*
X139338574Y-114976122D01*
X139346762Y-114975044D01*
X139492841Y-114914536D01*
X139618282Y-114818282D01*
X139714536Y-114692841D01*
X139775044Y-114546762D01*
X139795682Y-114390000D01*
X139778903Y-114262547D01*
X139776122Y-114241426D01*
X139775044Y-114233238D01*
X139714536Y-114087159D01*
X139632400Y-113980117D01*
X139623305Y-113968264D01*
X139618282Y-113961718D01*
X139492841Y-113865464D01*
X139346762Y-113804956D01*
X139190000Y-113784318D01*
X139033238Y-113804956D01*
X138887159Y-113865464D01*
X138761718Y-113961718D01*
X138756695Y-113968264D01*
X138747600Y-113980117D01*
X138665464Y-114087159D01*
X138604956Y-114233238D01*
X138603878Y-114241426D01*
X138601097Y-114262547D01*
X138584318Y-114390000D01*
X138589315Y-114427952D01*
X138593118Y-114456840D01*
X138582179Y-114526989D01*
X138557291Y-114562382D01*
X137245469Y-115874205D01*
X136091999Y-117027675D01*
X136029687Y-117061700D01*
X135958872Y-117056636D01*
X135902036Y-117014089D01*
X135883101Y-116967587D01*
X135880804Y-116968202D01*
X135878667Y-116960226D01*
X135877589Y-116952038D01*
X135817081Y-116805959D01*
X135812054Y-116799408D01*
X135812052Y-116799404D01*
X135741940Y-116708031D01*
X135716340Y-116641811D01*
X135730605Y-116572262D01*
X135752382Y-116542809D01*
X135758282Y-116538282D01*
X135854536Y-116412841D01*
X135915044Y-116266762D01*
X135935682Y-116110000D01*
X135915044Y-115953238D01*
X135854536Y-115807159D01*
X135784284Y-115715604D01*
X135763305Y-115688264D01*
X135758282Y-115681718D01*
X135632841Y-115585464D01*
X135486762Y-115524956D01*
X135330000Y-115504318D01*
X135173238Y-115524956D01*
X135027159Y-115585464D01*
X134901718Y-115681718D01*
X134864445Y-115730294D01*
X134841494Y-115760204D01*
X134784156Y-115802071D01*
X134741531Y-115809500D01*
X134506661Y-115809500D01*
X134438540Y-115789498D01*
X134417566Y-115772595D01*
X132749519Y-114104548D01*
X132747763Y-114102514D01*
X132745425Y-114097731D01*
X132734029Y-114087159D01*
X132709523Y-114064427D01*
X132706118Y-114061147D01*
X132692723Y-114047752D01*
X132688753Y-114045028D01*
X132686105Y-114042703D01*
X132671881Y-114029508D01*
X132671878Y-114029506D01*
X132663354Y-114021599D01*
X132652550Y-114017289D01*
X132648561Y-114014767D01*
X132637773Y-114009006D01*
X132633448Y-114007089D01*
X132623854Y-114000508D01*
X132612535Y-113997822D01*
X132612533Y-113997821D01*
X132599873Y-113994817D01*
X132582276Y-113989252D01*
X132567638Y-113983412D01*
X132567635Y-113983411D01*
X132559378Y-113980117D01*
X132553085Y-113979500D01*
X132550006Y-113979500D01*
X132546933Y-113979350D01*
X132546944Y-113979134D01*
X132535569Y-113977802D01*
X132526254Y-113977346D01*
X132514934Y-113974660D01*
X132503405Y-113976229D01*
X132503404Y-113976229D01*
X132487827Y-113978349D01*
X132470836Y-113979500D01*
X130929662Y-113979500D01*
X130861541Y-113959498D01*
X130815048Y-113905842D01*
X130804944Y-113835568D01*
X130834438Y-113770988D01*
X130840567Y-113764405D01*
X131495456Y-113109516D01*
X131497487Y-113107762D01*
X131502269Y-113105425D01*
X131535560Y-113069537D01*
X131538840Y-113066132D01*
X131552248Y-113052724D01*
X131554978Y-113048745D01*
X131557286Y-113046116D01*
X131578401Y-113023354D01*
X131582712Y-113012547D01*
X131585238Y-113008552D01*
X131591001Y-112997758D01*
X131592912Y-112993446D01*
X131599492Y-112983854D01*
X131605183Y-112959873D01*
X131610748Y-112942276D01*
X131616588Y-112927638D01*
X131616589Y-112927635D01*
X131619883Y-112919378D01*
X131620500Y-112913085D01*
X131620500Y-112910006D01*
X131620650Y-112906933D01*
X131620866Y-112906944D01*
X131622198Y-112895569D01*
X131622654Y-112886254D01*
X131625340Y-112874934D01*
X131621651Y-112847827D01*
X131620500Y-112830836D01*
X131620500Y-105174060D01*
X131640502Y-105105939D01*
X131694158Y-105059446D01*
X131704752Y-105055177D01*
X131732741Y-105045348D01*
X131783184Y-105027634D01*
X131790754Y-105022042D01*
X131790757Y-105022041D01*
X131884579Y-104952742D01*
X131892150Y-104947150D01*
X131897742Y-104939579D01*
X131897745Y-104939576D01*
X131968649Y-104843580D01*
X132025210Y-104800669D01*
X132095992Y-104795149D01*
X132158521Y-104828773D01*
X132171351Y-104843580D01*
X132242255Y-104939576D01*
X132242258Y-104939579D01*
X132247850Y-104947150D01*
X132255421Y-104952742D01*
X132349243Y-105022041D01*
X132349246Y-105022042D01*
X132356816Y-105027634D01*
X132484631Y-105072519D01*
X132492277Y-105073242D01*
X132492278Y-105073242D01*
X132498248Y-105073806D01*
X132516166Y-105075500D01*
X133123834Y-105075500D01*
X133141752Y-105073806D01*
X133147722Y-105073242D01*
X133147723Y-105073242D01*
X133155369Y-105072519D01*
X133283184Y-105027634D01*
X133290754Y-105022042D01*
X133290757Y-105022041D01*
X133384579Y-104952742D01*
X133392150Y-104947150D01*
X133466399Y-104846626D01*
X133467041Y-104845757D01*
X133467042Y-104845754D01*
X133472634Y-104838184D01*
X133517519Y-104710369D01*
X133520500Y-104678834D01*
X133520500Y-103321166D01*
X133517519Y-103289631D01*
X133472634Y-103161816D01*
X133467042Y-103154246D01*
X133467041Y-103154243D01*
X133397742Y-103060421D01*
X133392150Y-103052850D01*
X133305927Y-102989164D01*
X133290757Y-102977959D01*
X133290754Y-102977958D01*
X133283184Y-102972366D01*
X133155369Y-102927481D01*
X133147723Y-102926758D01*
X133147722Y-102926758D01*
X133141752Y-102926194D01*
X133123834Y-102924500D01*
X132516166Y-102924500D01*
X132498248Y-102926194D01*
X132492278Y-102926758D01*
X132492277Y-102926758D01*
X132484631Y-102927481D01*
X132356816Y-102972366D01*
X132349246Y-102977958D01*
X132349243Y-102977959D01*
X132334073Y-102989164D01*
X132247850Y-103052850D01*
X132242258Y-103060421D01*
X132242255Y-103060424D01*
X132171351Y-103156420D01*
X132114790Y-103199331D01*
X132044008Y-103204851D01*
X131981479Y-103171227D01*
X131968649Y-103156420D01*
X131897745Y-103060424D01*
X131897742Y-103060421D01*
X131892150Y-103052850D01*
X131805927Y-102989164D01*
X131790757Y-102977959D01*
X131790754Y-102977958D01*
X131783184Y-102972366D01*
X131655369Y-102927481D01*
X131647723Y-102926758D01*
X131647722Y-102926758D01*
X131641752Y-102926194D01*
X131623834Y-102924500D01*
X131016166Y-102924500D01*
X130998248Y-102926194D01*
X130992278Y-102926758D01*
X130992277Y-102926758D01*
X130984631Y-102927481D01*
X130856816Y-102972366D01*
X130849246Y-102977958D01*
X130849243Y-102977959D01*
X130834073Y-102989164D01*
X130747850Y-103052850D01*
X130742258Y-103060421D01*
X130742255Y-103060424D01*
X130671351Y-103156420D01*
X130614790Y-103199331D01*
X130544008Y-103204851D01*
X130481479Y-103171227D01*
X130468649Y-103156420D01*
X130392150Y-103052849D01*
X130394102Y-103051407D01*
X130366541Y-103000934D01*
X130371606Y-102930119D01*
X130414153Y-102873283D01*
X130423534Y-102866899D01*
X130431050Y-102862266D01*
X130447411Y-102853769D01*
X130461888Y-102847549D01*
X130461892Y-102847547D01*
X130470063Y-102844036D01*
X130474949Y-102840022D01*
X130477134Y-102837837D01*
X130479397Y-102835785D01*
X130479542Y-102835945D01*
X130488549Y-102828825D01*
X130495444Y-102822573D01*
X130505348Y-102816468D01*
X130521916Y-102794680D01*
X130533110Y-102781861D01*
X131022235Y-102292736D01*
X137525070Y-102292736D01*
X137525698Y-102305807D01*
X137537909Y-102560041D01*
X137590118Y-102822512D01*
X137591698Y-102826912D01*
X137591698Y-102826913D01*
X137606857Y-102869133D01*
X137680549Y-103074383D01*
X137682765Y-103078507D01*
X137750982Y-103205465D01*
X137807215Y-103310121D01*
X137810010Y-103313864D01*
X137810012Y-103313867D01*
X137894199Y-103426607D01*
X137967335Y-103524547D01*
X137970642Y-103527825D01*
X137970647Y-103527831D01*
X138154074Y-103709663D01*
X138157390Y-103712950D01*
X138373205Y-103871192D01*
X138377340Y-103873368D01*
X138377344Y-103873370D01*
X138506918Y-103941542D01*
X138610039Y-103995797D01*
X138614458Y-103997340D01*
X138858273Y-104082484D01*
X138858279Y-104082486D01*
X138862690Y-104084026D01*
X139125606Y-104133943D01*
X139252616Y-104138933D01*
X139388345Y-104144266D01*
X139388350Y-104144266D01*
X139393013Y-104144449D01*
X139488943Y-104133943D01*
X139654382Y-104115825D01*
X139654387Y-104115824D01*
X139659035Y-104115315D01*
X139774567Y-104084898D01*
X139913309Y-104048370D01*
X139917829Y-104047180D01*
X140042501Y-103993617D01*
X140159407Y-103943391D01*
X140159410Y-103943389D01*
X140163710Y-103941542D01*
X140167690Y-103939079D01*
X140167694Y-103939077D01*
X140387302Y-103803179D01*
X140387306Y-103803176D01*
X140391275Y-103800720D01*
X140465293Y-103738059D01*
X140591960Y-103630828D01*
X140591961Y-103630827D01*
X140595526Y-103627809D01*
X140689365Y-103520807D01*
X140768894Y-103430122D01*
X140768898Y-103430117D01*
X140771976Y-103426607D01*
X140783344Y-103408933D01*
X140914219Y-103205465D01*
X140914222Y-103205460D01*
X140916747Y-103201534D01*
X141026661Y-102957534D01*
X141045024Y-102892425D01*
X141098032Y-102704473D01*
X141098033Y-102704470D01*
X141099302Y-102699969D01*
X141117103Y-102560041D01*
X141132677Y-102437625D01*
X141132677Y-102437621D01*
X141133075Y-102434495D01*
X141135549Y-102340000D01*
X141126323Y-102215842D01*
X141116064Y-102077788D01*
X141116063Y-102077784D01*
X141115717Y-102073123D01*
X141112640Y-102059522D01*
X141075956Y-101897405D01*
X141056655Y-101812109D01*
X141054962Y-101807755D01*
X140961355Y-101567044D01*
X140961354Y-101567042D01*
X140959662Y-101562691D01*
X140956762Y-101557616D01*
X140829187Y-101334408D01*
X140826868Y-101330350D01*
X140661190Y-101120189D01*
X140466269Y-100936825D01*
X140246385Y-100784286D01*
X140233105Y-100777737D01*
X140010559Y-100667989D01*
X140010556Y-100667988D01*
X140006371Y-100665924D01*
X139751497Y-100584338D01*
X139600549Y-100559755D01*
X139491976Y-100542073D01*
X139491975Y-100542073D01*
X139487364Y-100541322D01*
X139353569Y-100539571D01*
X139224451Y-100537880D01*
X139224448Y-100537880D01*
X139219774Y-100537819D01*
X138954605Y-100573907D01*
X138950118Y-100575215D01*
X138950117Y-100575215D01*
X138918817Y-100584338D01*
X138697683Y-100648792D01*
X138693430Y-100650752D01*
X138693429Y-100650753D01*
X138641512Y-100674687D01*
X138454652Y-100760831D01*
X138450743Y-100763394D01*
X138234764Y-100904996D01*
X138234759Y-100905000D01*
X138230851Y-100907562D01*
X138190128Y-100943909D01*
X138056151Y-101063488D01*
X138031197Y-101085760D01*
X137860075Y-101291512D01*
X137857652Y-101295505D01*
X137726412Y-101511782D01*
X137721244Y-101520298D01*
X137719437Y-101524606D01*
X137719437Y-101524607D01*
X137648581Y-101693580D01*
X137617755Y-101767091D01*
X137616604Y-101771623D01*
X137616603Y-101771626D01*
X137555212Y-102013354D01*
X137551881Y-102026470D01*
X137525070Y-102292736D01*
X131022235Y-102292736D01*
X131372566Y-101942405D01*
X131434878Y-101908379D01*
X131461661Y-101905500D01*
X131623834Y-101905500D01*
X131641752Y-101903806D01*
X131647722Y-101903242D01*
X131647723Y-101903242D01*
X131655369Y-101902519D01*
X131783184Y-101857634D01*
X131790754Y-101852042D01*
X131790757Y-101852041D01*
X131884579Y-101782742D01*
X131892150Y-101777150D01*
X131897742Y-101769579D01*
X131897745Y-101769576D01*
X131968649Y-101673580D01*
X132025210Y-101630669D01*
X132095992Y-101625149D01*
X132158521Y-101658773D01*
X132171351Y-101673580D01*
X132242255Y-101769576D01*
X132242258Y-101769579D01*
X132247850Y-101777150D01*
X132255421Y-101782742D01*
X132349243Y-101852041D01*
X132349246Y-101852042D01*
X132356816Y-101857634D01*
X132484631Y-101902519D01*
X132492277Y-101903242D01*
X132492278Y-101903242D01*
X132498248Y-101903806D01*
X132516166Y-101905500D01*
X133123834Y-101905500D01*
X133141752Y-101903806D01*
X133147722Y-101903242D01*
X133147723Y-101903242D01*
X133155369Y-101902519D01*
X133283184Y-101857634D01*
X133290754Y-101852042D01*
X133290757Y-101852041D01*
X133384579Y-101782742D01*
X133392150Y-101777150D01*
X133417628Y-101742656D01*
X133467041Y-101675757D01*
X133467042Y-101675754D01*
X133472634Y-101668184D01*
X133517519Y-101540369D01*
X133520500Y-101508834D01*
X133520500Y-100151166D01*
X133517519Y-100119631D01*
X133472634Y-99991816D01*
X133467040Y-99984242D01*
X133462631Y-99975915D01*
X133466001Y-99974130D01*
X133447916Y-99924715D01*
X133463434Y-99855435D01*
X133513944Y-99805543D01*
X133573648Y-99790500D01*
X139542920Y-99790500D01*
X139560241Y-99792466D01*
G37*
%TD.AperFunction*%
%TA.AperFunction,Conductor*%
G36*
X128517135Y-117462002D02*
G01*
X128573971Y-117504549D01*
X128598025Y-117563612D01*
X128604956Y-117616262D01*
X128665464Y-117762341D01*
X128761718Y-117887782D01*
X128887159Y-117984036D01*
X129033238Y-118044544D01*
X129190000Y-118065182D01*
X129222600Y-118060890D01*
X129292748Y-118071829D01*
X129328141Y-118096717D01*
X132180195Y-120948771D01*
X132214221Y-121011083D01*
X132217100Y-121037866D01*
X132217100Y-122961739D01*
X132197098Y-123029860D01*
X132167805Y-123061701D01*
X132141718Y-123081718D01*
X132123904Y-123104934D01*
X132121701Y-123107805D01*
X132064363Y-123149672D01*
X132021739Y-123157100D01*
X131961283Y-123157100D01*
X131941775Y-123155024D01*
X131937235Y-123154810D01*
X131927054Y-123152618D01*
X131904489Y-123155289D01*
X131896558Y-123156227D01*
X131891249Y-123156540D01*
X131891260Y-123156672D01*
X131886083Y-123157100D01*
X131880882Y-123157100D01*
X131868514Y-123159159D01*
X131863382Y-123160013D01*
X131857500Y-123160850D01*
X131820723Y-123165202D01*
X131820722Y-123165202D01*
X131810382Y-123166426D01*
X131802705Y-123170112D01*
X131794309Y-123171510D01*
X131785149Y-123176452D01*
X131785144Y-123176454D01*
X131752542Y-123194045D01*
X131747254Y-123196740D01*
X131711617Y-123213853D01*
X131711615Y-123213854D01*
X131704475Y-123217283D01*
X131700501Y-123220623D01*
X131698565Y-123222559D01*
X131696947Y-123224043D01*
X131696485Y-123224292D01*
X131696459Y-123224263D01*
X131696332Y-123224375D01*
X131690914Y-123227298D01*
X131683844Y-123234946D01*
X131683843Y-123234947D01*
X131656993Y-123263994D01*
X131653563Y-123267561D01*
X129366585Y-125554539D01*
X129351316Y-125566872D01*
X129347962Y-125569924D01*
X129339210Y-125575575D01*
X129320192Y-125599699D01*
X129316666Y-125603666D01*
X129316767Y-125603752D01*
X129313409Y-125607715D01*
X129309731Y-125611393D01*
X129299416Y-125625827D01*
X129295865Y-125630557D01*
X129266475Y-125667838D01*
X129263653Y-125675873D01*
X129258704Y-125682799D01*
X129255722Y-125692770D01*
X129255720Y-125692774D01*
X129245103Y-125728276D01*
X129243279Y-125733892D01*
X129227548Y-125778687D01*
X129227100Y-125783859D01*
X129227100Y-125786563D01*
X129227004Y-125788795D01*
X129226854Y-125789295D01*
X129226816Y-125789293D01*
X129226806Y-125789457D01*
X129225041Y-125795358D01*
X129226777Y-125839542D01*
X129227003Y-125845288D01*
X129227100Y-125850235D01*
X129227100Y-126155026D01*
X129207098Y-126223147D01*
X129153442Y-126269640D01*
X129083168Y-126279744D01*
X129018588Y-126250250D01*
X128984691Y-126203244D01*
X128964812Y-126155252D01*
X128934536Y-126082159D01*
X128851927Y-125974500D01*
X128843305Y-125963264D01*
X128838282Y-125956718D01*
X128712841Y-125860464D01*
X128566762Y-125799956D01*
X128508085Y-125792231D01*
X128454815Y-125785218D01*
X128410000Y-125779318D01*
X128311916Y-125792231D01*
X128241768Y-125781292D01*
X128206375Y-125756404D01*
X128187597Y-125737626D01*
X128185841Y-125735592D01*
X128183503Y-125730809D01*
X128167092Y-125715585D01*
X128147601Y-125697505D01*
X128144196Y-125694225D01*
X128130801Y-125680830D01*
X128126831Y-125678106D01*
X128124183Y-125675781D01*
X128109959Y-125662586D01*
X128109956Y-125662584D01*
X128101432Y-125654677D01*
X128090628Y-125650367D01*
X128086639Y-125647845D01*
X128075851Y-125642084D01*
X128071526Y-125640167D01*
X128061932Y-125633586D01*
X128050613Y-125630900D01*
X128050611Y-125630899D01*
X128037951Y-125627895D01*
X128020354Y-125622330D01*
X128005716Y-125616490D01*
X128005713Y-125616489D01*
X127997456Y-125613195D01*
X127991163Y-125612578D01*
X127988084Y-125612578D01*
X127985011Y-125612428D01*
X127985022Y-125612212D01*
X127973647Y-125610880D01*
X127964332Y-125610424D01*
X127953012Y-125607738D01*
X127941483Y-125609307D01*
X127941482Y-125609307D01*
X127925905Y-125611427D01*
X127908914Y-125612578D01*
X125245376Y-125612578D01*
X125177255Y-125592576D01*
X125156281Y-125575674D01*
X124602073Y-125021467D01*
X124568048Y-124959154D01*
X124573112Y-124888339D01*
X124615659Y-124831503D01*
X124682179Y-124806692D01*
X124739386Y-124815962D01*
X124833738Y-124855044D01*
X124990500Y-124875682D01*
X124998688Y-124874604D01*
X125139074Y-124856122D01*
X125147262Y-124855044D01*
X125293341Y-124794536D01*
X125418782Y-124698282D01*
X125479007Y-124619796D01*
X125536344Y-124577929D01*
X125578969Y-124570500D01*
X127037634Y-124570500D01*
X127040307Y-124570696D01*
X127045342Y-124572425D01*
X127056964Y-124571989D01*
X127056966Y-124571989D01*
X127094255Y-124570589D01*
X127098981Y-124570500D01*
X127117948Y-124570500D01*
X127122683Y-124569618D01*
X127126209Y-124569390D01*
X127129949Y-124569249D01*
X127157208Y-124568226D01*
X127167893Y-124563636D01*
X127172493Y-124562599D01*
X127184214Y-124559038D01*
X127188617Y-124557339D01*
X127200053Y-124555209D01*
X127221041Y-124542272D01*
X127237411Y-124533769D01*
X127251888Y-124527549D01*
X127251892Y-124527547D01*
X127260063Y-124524036D01*
X127264949Y-124520022D01*
X127267134Y-124517837D01*
X127269397Y-124515785D01*
X127269542Y-124515945D01*
X127278549Y-124508825D01*
X127285444Y-124502573D01*
X127295348Y-124496468D01*
X127311916Y-124474680D01*
X127323110Y-124461861D01*
X128445452Y-123339519D01*
X128447486Y-123337763D01*
X128452269Y-123335425D01*
X128485573Y-123299523D01*
X128488853Y-123296118D01*
X128502248Y-123282723D01*
X128504972Y-123278753D01*
X128507297Y-123276105D01*
X128520492Y-123261881D01*
X128520494Y-123261878D01*
X128528401Y-123253354D01*
X128532711Y-123242550D01*
X128535233Y-123238561D01*
X128540994Y-123227773D01*
X128542911Y-123223448D01*
X128549492Y-123213854D01*
X128552636Y-123200608D01*
X128555183Y-123189873D01*
X128560748Y-123172276D01*
X128566588Y-123157638D01*
X128566589Y-123157635D01*
X128569883Y-123149378D01*
X128570500Y-123143085D01*
X128570500Y-123140006D01*
X128570650Y-123136933D01*
X128570866Y-123136944D01*
X128572198Y-123125569D01*
X128572654Y-123116254D01*
X128575340Y-123104934D01*
X128572342Y-123082901D01*
X128571651Y-123077827D01*
X128570500Y-123060836D01*
X128570500Y-122939649D01*
X128570696Y-122936976D01*
X128572425Y-122931941D01*
X128571984Y-122920172D01*
X128570589Y-122883027D01*
X128570500Y-122878301D01*
X128570500Y-122859335D01*
X128569619Y-122854600D01*
X128569390Y-122851073D01*
X128568959Y-122839596D01*
X128568226Y-122820074D01*
X128563634Y-122809387D01*
X128562595Y-122804775D01*
X128559043Y-122793083D01*
X128557339Y-122788666D01*
X128555209Y-122777230D01*
X128542272Y-122756242D01*
X128533769Y-122739872D01*
X128527549Y-122725395D01*
X128527547Y-122725391D01*
X128524036Y-122717220D01*
X128520022Y-122712334D01*
X128517837Y-122710149D01*
X128515785Y-122707886D01*
X128515945Y-122707741D01*
X128508825Y-122698734D01*
X128502573Y-122691839D01*
X128496468Y-122681935D01*
X128474680Y-122665367D01*
X128461861Y-122654173D01*
X128116438Y-122308750D01*
X128082412Y-122246438D01*
X128080611Y-122203209D01*
X128081400Y-122197220D01*
X128093524Y-122105125D01*
X128072886Y-121948363D01*
X128012378Y-121802284D01*
X127928303Y-121692715D01*
X127921147Y-121683389D01*
X127916124Y-121676843D01*
X127790683Y-121580589D01*
X127644604Y-121520081D01*
X127487842Y-121499443D01*
X127331080Y-121520081D01*
X127185001Y-121580589D01*
X127059560Y-121676843D01*
X127054537Y-121683389D01*
X127047381Y-121692715D01*
X127007951Y-121744102D01*
X126999336Y-121755329D01*
X126941998Y-121797196D01*
X126899373Y-121804625D01*
X124757247Y-121804625D01*
X124754570Y-121804428D01*
X124749533Y-121802699D01*
X124737912Y-121803135D01*
X124737910Y-121803135D01*
X124700605Y-121804536D01*
X124695878Y-121804625D01*
X124676927Y-121804625D01*
X124672194Y-121805507D01*
X124668667Y-121805735D01*
X124649295Y-121806462D01*
X124649293Y-121806463D01*
X124637667Y-121806899D01*
X124626975Y-121811493D01*
X124622372Y-121812530D01*
X124610662Y-121816087D01*
X124606259Y-121817786D01*
X124594822Y-121819916D01*
X124584921Y-121826019D01*
X124584918Y-121826020D01*
X124573831Y-121832854D01*
X124557460Y-121841358D01*
X124542984Y-121847578D01*
X124542982Y-121847579D01*
X124534813Y-121851089D01*
X124529927Y-121855102D01*
X124527744Y-121857285D01*
X124525468Y-121859349D01*
X124525322Y-121859188D01*
X124516326Y-121866300D01*
X124509431Y-121872552D01*
X124499527Y-121878657D01*
X124482959Y-121900445D01*
X124471765Y-121913264D01*
X123932434Y-122452595D01*
X123870122Y-122486621D01*
X123843339Y-122489500D01*
X123689661Y-122489500D01*
X123621540Y-122469498D01*
X123575047Y-122415842D01*
X123564943Y-122345568D01*
X123594437Y-122280988D01*
X123600566Y-122274405D01*
X128384008Y-117490963D01*
X128446320Y-117456937D01*
X128517135Y-117462002D01*
G37*
%TD.AperFunction*%
%TA.AperFunction,Conductor*%
G36*
X114335932Y-122485468D02*
G01*
X114392768Y-122528015D01*
X114417579Y-122594535D01*
X114417900Y-122603524D01*
X114417900Y-122639150D01*
X114397898Y-122707271D01*
X114357154Y-122742860D01*
X114358619Y-122744952D01*
X114349589Y-122751275D01*
X114339596Y-122755935D01*
X114255935Y-122839596D01*
X114251275Y-122849588D01*
X114251275Y-122849589D01*
X114211725Y-122934405D01*
X114205932Y-122946827D01*
X114199500Y-122995684D01*
X114199500Y-123344316D01*
X114205932Y-123393173D01*
X114210006Y-123401909D01*
X114210006Y-123401910D01*
X114246969Y-123481176D01*
X114255935Y-123500404D01*
X114339596Y-123584065D01*
X114349588Y-123588725D01*
X114349589Y-123588725D01*
X114437709Y-123629816D01*
X114446827Y-123634068D01*
X114495684Y-123640500D01*
X114944316Y-123640500D01*
X114993173Y-123634068D01*
X115002292Y-123629816D01*
X115090411Y-123588725D01*
X115090412Y-123588725D01*
X115100404Y-123584065D01*
X115125905Y-123558564D01*
X115188217Y-123524538D01*
X115259032Y-123529603D01*
X115304095Y-123558564D01*
X115359596Y-123614065D01*
X115369588Y-123618725D01*
X115369589Y-123618725D01*
X115454769Y-123658445D01*
X115466827Y-123664068D01*
X115515684Y-123670500D01*
X115964316Y-123670500D01*
X116013173Y-123664068D01*
X116016264Y-123662627D01*
X116083896Y-123662759D01*
X116137256Y-123694490D01*
X116210995Y-123768229D01*
X116245021Y-123830541D01*
X116247900Y-123857324D01*
X116247900Y-124352676D01*
X116227898Y-124420797D01*
X116210995Y-124441771D01*
X116111771Y-124540995D01*
X116049459Y-124575021D01*
X116022676Y-124577900D01*
X113877324Y-124577900D01*
X113809203Y-124557898D01*
X113788229Y-124540995D01*
X113239005Y-123991771D01*
X113204979Y-123929459D01*
X113202100Y-123902676D01*
X113202100Y-123567324D01*
X113222102Y-123499203D01*
X113239005Y-123478229D01*
X114202805Y-122514429D01*
X114265117Y-122480403D01*
X114335932Y-122485468D01*
G37*
%TD.AperFunction*%
%TA.AperFunction,Conductor*%
G36*
X110901859Y-99810502D02*
G01*
X110948352Y-99864158D01*
X110958456Y-99934432D01*
X110937332Y-99985895D01*
X110937369Y-99985915D01*
X110937169Y-99986293D01*
X110935089Y-99991360D01*
X110932959Y-99994243D01*
X110932958Y-99994246D01*
X110927366Y-100001816D01*
X110882481Y-100129631D01*
X110879500Y-100161166D01*
X110879500Y-101518834D01*
X110882481Y-101550369D01*
X110927366Y-101678184D01*
X110932958Y-101685754D01*
X110932959Y-101685757D01*
X110974986Y-101742656D01*
X111007850Y-101787150D01*
X111015421Y-101792742D01*
X111109243Y-101862041D01*
X111109246Y-101862042D01*
X111116816Y-101867634D01*
X111244631Y-101912519D01*
X111252277Y-101913242D01*
X111252278Y-101913242D01*
X111258248Y-101913806D01*
X111276166Y-101915500D01*
X111883834Y-101915500D01*
X111901752Y-101913806D01*
X111907722Y-101913242D01*
X111907723Y-101913242D01*
X111915369Y-101912519D01*
X112043184Y-101867634D01*
X112050754Y-101862042D01*
X112050757Y-101862041D01*
X112144579Y-101792742D01*
X112152150Y-101787150D01*
X112157742Y-101779579D01*
X112157745Y-101779576D01*
X112228649Y-101683580D01*
X112285210Y-101640669D01*
X112355992Y-101635149D01*
X112418521Y-101668773D01*
X112431351Y-101683580D01*
X112502255Y-101779576D01*
X112502258Y-101779579D01*
X112507850Y-101787150D01*
X112515421Y-101792742D01*
X112609243Y-101862041D01*
X112609246Y-101862042D01*
X112616816Y-101867634D01*
X112744631Y-101912519D01*
X112752277Y-101913242D01*
X112752278Y-101913242D01*
X112758248Y-101913806D01*
X112776166Y-101915500D01*
X113383834Y-101915500D01*
X113401752Y-101913806D01*
X113407722Y-101913242D01*
X113407723Y-101913242D01*
X113415369Y-101912519D01*
X113543184Y-101867634D01*
X113550754Y-101862042D01*
X113550757Y-101862041D01*
X113644579Y-101792742D01*
X113652150Y-101787150D01*
X113657742Y-101779579D01*
X113657745Y-101779576D01*
X113728649Y-101683580D01*
X113785210Y-101640669D01*
X113855992Y-101635149D01*
X113918521Y-101668773D01*
X113931351Y-101683580D01*
X114002255Y-101779576D01*
X114002258Y-101779579D01*
X114007850Y-101787150D01*
X114015421Y-101792742D01*
X114109243Y-101862041D01*
X114109246Y-101862042D01*
X114116816Y-101867634D01*
X114244631Y-101912519D01*
X114252277Y-101913242D01*
X114252278Y-101913242D01*
X114258248Y-101913806D01*
X114276166Y-101915500D01*
X114883834Y-101915500D01*
X114901752Y-101913806D01*
X114907722Y-101913242D01*
X114907723Y-101913242D01*
X114915369Y-101912519D01*
X115043184Y-101867634D01*
X115050754Y-101862042D01*
X115050757Y-101862041D01*
X115144579Y-101792742D01*
X115152150Y-101787150D01*
X115185014Y-101742656D01*
X115227041Y-101685757D01*
X115227042Y-101685754D01*
X115232634Y-101678184D01*
X115277519Y-101550369D01*
X115280500Y-101518834D01*
X115280500Y-100161166D01*
X115277519Y-100129631D01*
X115232634Y-100001816D01*
X115227042Y-99994246D01*
X115227041Y-99994243D01*
X115224911Y-99991360D01*
X115223565Y-99987679D01*
X115222631Y-99985915D01*
X115222873Y-99985787D01*
X115200528Y-99924682D01*
X115216064Y-99855406D01*
X115266588Y-99805527D01*
X115326262Y-99790500D01*
X116906352Y-99790500D01*
X116974473Y-99810502D01*
X117020966Y-99864158D01*
X117031070Y-99934432D01*
X117014631Y-99974465D01*
X117017369Y-99975915D01*
X117012960Y-99984242D01*
X117007366Y-99991816D01*
X116962481Y-100119631D01*
X116959500Y-100151166D01*
X116959500Y-101508834D01*
X116962481Y-101540369D01*
X117007366Y-101668184D01*
X117012958Y-101675754D01*
X117012959Y-101675757D01*
X117062372Y-101742656D01*
X117087850Y-101777150D01*
X117095421Y-101782742D01*
X117189243Y-101852041D01*
X117189246Y-101852042D01*
X117196816Y-101857634D01*
X117324631Y-101902519D01*
X117332277Y-101903242D01*
X117332278Y-101903242D01*
X117338248Y-101903806D01*
X117356166Y-101905500D01*
X117963834Y-101905500D01*
X117981752Y-101903806D01*
X117987722Y-101903242D01*
X117987723Y-101903242D01*
X117995369Y-101902519D01*
X118123184Y-101857634D01*
X118130754Y-101852042D01*
X118130757Y-101852041D01*
X118224579Y-101782742D01*
X118232150Y-101777150D01*
X118237742Y-101769579D01*
X118237745Y-101769576D01*
X118308649Y-101673580D01*
X118365210Y-101630669D01*
X118435992Y-101625149D01*
X118498521Y-101658773D01*
X118511351Y-101673580D01*
X118582255Y-101769576D01*
X118582258Y-101769579D01*
X118587850Y-101777150D01*
X118595421Y-101782742D01*
X118689243Y-101852041D01*
X118689246Y-101852042D01*
X118696816Y-101857634D01*
X118824631Y-101902519D01*
X118832277Y-101903242D01*
X118832278Y-101903242D01*
X118838248Y-101903806D01*
X118856166Y-101905500D01*
X119463834Y-101905500D01*
X119481752Y-101903806D01*
X119487722Y-101903242D01*
X119487723Y-101903242D01*
X119495369Y-101902519D01*
X119623184Y-101857634D01*
X119630754Y-101852042D01*
X119630757Y-101852041D01*
X119724579Y-101782742D01*
X119732150Y-101777150D01*
X119737742Y-101769579D01*
X119737745Y-101769576D01*
X119808649Y-101673580D01*
X119865210Y-101630669D01*
X119935992Y-101625149D01*
X119998521Y-101658773D01*
X120011351Y-101673580D01*
X120082255Y-101769576D01*
X120082258Y-101769579D01*
X120087850Y-101777150D01*
X120095421Y-101782742D01*
X120189243Y-101852041D01*
X120189246Y-101852042D01*
X120196816Y-101857634D01*
X120324631Y-101902519D01*
X120332277Y-101903242D01*
X120332278Y-101903242D01*
X120338248Y-101903806D01*
X120356166Y-101905500D01*
X120963834Y-101905500D01*
X120981752Y-101903806D01*
X120987722Y-101903242D01*
X120987723Y-101903242D01*
X120995369Y-101902519D01*
X121123184Y-101857634D01*
X121130754Y-101852042D01*
X121130757Y-101852041D01*
X121224579Y-101782742D01*
X121232150Y-101777150D01*
X121257628Y-101742656D01*
X121307041Y-101675757D01*
X121307042Y-101675754D01*
X121312634Y-101668184D01*
X121357519Y-101540369D01*
X121360500Y-101508834D01*
X121360500Y-100151166D01*
X121357519Y-100119631D01*
X121312634Y-99991816D01*
X121307040Y-99984242D01*
X121302631Y-99975915D01*
X121306001Y-99974130D01*
X121287916Y-99924715D01*
X121303434Y-99855435D01*
X121353944Y-99805543D01*
X121413648Y-99790500D01*
X122981124Y-99790500D01*
X123049245Y-99810502D01*
X123095738Y-99864158D01*
X123105842Y-99934432D01*
X123082475Y-99991359D01*
X123072961Y-100004239D01*
X123072957Y-100004246D01*
X123067366Y-100011816D01*
X123022481Y-100139631D01*
X123019500Y-100171166D01*
X123019500Y-101528834D01*
X123022481Y-101560369D01*
X123067366Y-101688184D01*
X123072958Y-101695754D01*
X123072959Y-101695757D01*
X123107600Y-101742656D01*
X123147850Y-101797150D01*
X123155421Y-101802742D01*
X123249243Y-101872041D01*
X123249246Y-101872042D01*
X123256816Y-101877634D01*
X123384631Y-101922519D01*
X123392277Y-101923242D01*
X123392278Y-101923242D01*
X123398248Y-101923806D01*
X123416166Y-101925500D01*
X124023834Y-101925500D01*
X124041752Y-101923806D01*
X124047722Y-101923242D01*
X124047723Y-101923242D01*
X124055369Y-101922519D01*
X124183184Y-101877634D01*
X124190754Y-101872042D01*
X124190757Y-101872041D01*
X124284579Y-101802742D01*
X124292150Y-101797150D01*
X124297742Y-101789579D01*
X124297745Y-101789576D01*
X124368649Y-101693580D01*
X124425210Y-101650669D01*
X124495992Y-101645149D01*
X124558521Y-101678773D01*
X124571351Y-101693580D01*
X124642255Y-101789576D01*
X124642258Y-101789579D01*
X124647850Y-101797150D01*
X124655421Y-101802742D01*
X124749243Y-101872041D01*
X124749246Y-101872042D01*
X124756816Y-101877634D01*
X124884631Y-101922519D01*
X124892277Y-101923242D01*
X124892278Y-101923242D01*
X124898248Y-101923806D01*
X124916166Y-101925500D01*
X125523834Y-101925500D01*
X125541752Y-101923806D01*
X125547722Y-101923242D01*
X125547723Y-101923242D01*
X125555369Y-101922519D01*
X125683184Y-101877634D01*
X125690754Y-101872042D01*
X125690757Y-101872041D01*
X125784579Y-101802742D01*
X125792150Y-101797150D01*
X125797742Y-101789579D01*
X125797745Y-101789576D01*
X125868649Y-101693580D01*
X125925210Y-101650669D01*
X125995992Y-101645149D01*
X126058521Y-101678773D01*
X126071351Y-101693580D01*
X126142255Y-101789576D01*
X126142258Y-101789579D01*
X126147850Y-101797150D01*
X126155421Y-101802742D01*
X126249243Y-101872041D01*
X126249246Y-101872042D01*
X126256816Y-101877634D01*
X126384631Y-101922519D01*
X126392277Y-101923242D01*
X126392278Y-101923242D01*
X126398248Y-101923806D01*
X126416166Y-101925500D01*
X127023834Y-101925500D01*
X127041752Y-101923806D01*
X127047722Y-101923242D01*
X127047723Y-101923242D01*
X127055369Y-101922519D01*
X127183184Y-101877634D01*
X127190754Y-101872042D01*
X127190757Y-101872041D01*
X127284579Y-101802742D01*
X127292150Y-101797150D01*
X127332400Y-101742656D01*
X127367041Y-101695757D01*
X127367042Y-101695754D01*
X127372634Y-101688184D01*
X127417519Y-101560369D01*
X127420500Y-101528834D01*
X127420500Y-100171166D01*
X127417519Y-100139631D01*
X127372634Y-100011816D01*
X127367043Y-100004246D01*
X127367039Y-100004239D01*
X127357525Y-99991359D01*
X127333142Y-99924681D01*
X127348679Y-99855405D01*
X127399203Y-99805527D01*
X127458876Y-99790500D01*
X129066352Y-99790500D01*
X129134473Y-99810502D01*
X129180966Y-99864158D01*
X129191070Y-99934432D01*
X129174631Y-99974465D01*
X129177369Y-99975915D01*
X129172960Y-99984242D01*
X129167366Y-99991816D01*
X129122481Y-100119631D01*
X129119500Y-100151166D01*
X129119500Y-101508834D01*
X129122481Y-101540369D01*
X129167366Y-101668184D01*
X129172957Y-101675754D01*
X129172961Y-101675761D01*
X129182475Y-101688641D01*
X129206858Y-101755319D01*
X129191321Y-101824595D01*
X129140797Y-101874473D01*
X129081124Y-101889500D01*
X128942366Y-101889500D01*
X128939693Y-101889304D01*
X128934658Y-101887575D01*
X128923036Y-101888011D01*
X128923034Y-101888011D01*
X128885744Y-101889411D01*
X128881018Y-101889500D01*
X128862052Y-101889500D01*
X128857317Y-101890381D01*
X128853790Y-101890610D01*
X128849254Y-101890780D01*
X128822791Y-101891774D01*
X128812104Y-101896366D01*
X128807492Y-101897405D01*
X128795800Y-101900957D01*
X128791383Y-101902661D01*
X128779947Y-101904791D01*
X128762574Y-101915500D01*
X128758961Y-101917727D01*
X128742589Y-101926231D01*
X128728112Y-101932451D01*
X128728108Y-101932453D01*
X128719937Y-101935964D01*
X128715051Y-101939978D01*
X128712866Y-101942163D01*
X128710603Y-101944215D01*
X128710458Y-101944055D01*
X128701451Y-101951175D01*
X128694556Y-101957427D01*
X128684652Y-101963532D01*
X128668084Y-101985320D01*
X128656890Y-101998139D01*
X127944548Y-102710481D01*
X127942514Y-102712237D01*
X127937731Y-102714575D01*
X127929819Y-102723104D01*
X127929818Y-102723105D01*
X127904427Y-102750477D01*
X127901147Y-102753882D01*
X127887752Y-102767277D01*
X127885028Y-102771247D01*
X127882703Y-102773895D01*
X127869508Y-102788119D01*
X127869506Y-102788122D01*
X127861599Y-102796646D01*
X127857289Y-102807450D01*
X127854767Y-102811439D01*
X127849006Y-102822227D01*
X127847089Y-102826552D01*
X127840508Y-102836146D01*
X127837822Y-102847465D01*
X127837821Y-102847467D01*
X127834817Y-102860127D01*
X127829252Y-102877724D01*
X127824555Y-102889498D01*
X127820117Y-102900622D01*
X127819500Y-102906915D01*
X127819500Y-102909994D01*
X127819350Y-102913067D01*
X127819134Y-102913056D01*
X127817802Y-102924431D01*
X127817346Y-102933746D01*
X127814660Y-102945066D01*
X127816229Y-102956595D01*
X127816229Y-102956596D01*
X127818349Y-102972173D01*
X127819500Y-102989164D01*
X127819500Y-104293476D01*
X127799498Y-104361597D01*
X127745842Y-104408090D01*
X127675568Y-104418194D01*
X127610988Y-104388700D01*
X127593537Y-104370180D01*
X127505770Y-104255799D01*
X127500747Y-104249253D01*
X127375306Y-104152999D01*
X127229227Y-104092491D01*
X127072465Y-104071853D01*
X126915703Y-104092491D01*
X126769624Y-104152999D01*
X126644183Y-104249253D01*
X126547929Y-104374694D01*
X126487421Y-104520773D01*
X126466783Y-104677535D01*
X126467861Y-104685723D01*
X126482293Y-104795342D01*
X126487421Y-104834297D01*
X126547929Y-104980376D01*
X126644183Y-105105817D01*
X126769624Y-105202071D01*
X126915703Y-105262579D01*
X126923891Y-105263657D01*
X126994084Y-105272898D01*
X127072465Y-105283217D01*
X127170549Y-105270304D01*
X127240697Y-105281243D01*
X127276090Y-105306131D01*
X128032595Y-106062636D01*
X128066621Y-106124948D01*
X128069500Y-106151731D01*
X128069500Y-110381531D01*
X128049498Y-110449652D01*
X128020205Y-110481493D01*
X127941718Y-110541718D01*
X127845464Y-110667159D01*
X127784956Y-110813238D01*
X127764318Y-110970000D01*
X127765396Y-110978188D01*
X127782520Y-111108255D01*
X127784956Y-111126762D01*
X127845464Y-111272841D01*
X127941718Y-111398282D01*
X128067159Y-111494536D01*
X128213238Y-111555044D01*
X128370000Y-111575682D01*
X128378188Y-111574604D01*
X128518574Y-111556122D01*
X128526762Y-111555044D01*
X128672841Y-111494536D01*
X128798282Y-111398282D01*
X128894536Y-111272841D01*
X128955044Y-111126762D01*
X128957481Y-111108255D01*
X128974604Y-110978188D01*
X128975682Y-110970000D01*
X128955044Y-110813238D01*
X128894536Y-110667159D01*
X128798282Y-110541718D01*
X128719796Y-110481493D01*
X128677929Y-110424156D01*
X128670500Y-110381531D01*
X128670500Y-106119661D01*
X128690502Y-106051540D01*
X128744158Y-106005047D01*
X128814432Y-105994943D01*
X128879012Y-106024437D01*
X128885595Y-106030566D01*
X129402595Y-106547566D01*
X129436621Y-106609878D01*
X129439500Y-106636661D01*
X129439500Y-112473339D01*
X129419498Y-112541460D01*
X129402595Y-112562434D01*
X125434905Y-116530124D01*
X125372593Y-116564150D01*
X125301778Y-116559085D01*
X125244942Y-116516538D01*
X125220131Y-116450018D01*
X125229401Y-116392813D01*
X125265044Y-116306762D01*
X125285682Y-116150000D01*
X125265044Y-115993238D01*
X125204536Y-115847159D01*
X125108282Y-115721718D01*
X124982841Y-115625464D01*
X124836762Y-115564956D01*
X124821928Y-115563003D01*
X124688188Y-115545396D01*
X124680000Y-115544318D01*
X124671812Y-115545396D01*
X124538073Y-115563003D01*
X124523238Y-115564956D01*
X124377159Y-115625464D01*
X124251718Y-115721718D01*
X124155464Y-115847159D01*
X124094956Y-115993238D01*
X124074318Y-116150000D01*
X124094956Y-116306762D01*
X124155464Y-116452841D01*
X124201068Y-116512273D01*
X124243561Y-116567651D01*
X124251718Y-116578282D01*
X124377159Y-116674536D01*
X124523238Y-116735044D01*
X124680000Y-116755682D01*
X124688188Y-116754604D01*
X124828574Y-116736122D01*
X124836762Y-116735044D01*
X124922812Y-116699401D01*
X124993400Y-116691812D01*
X125056887Y-116723591D01*
X125093115Y-116784649D01*
X125090581Y-116855600D01*
X125060124Y-116904905D01*
X121912434Y-120052595D01*
X121850122Y-120086621D01*
X121823339Y-120089500D01*
X121436766Y-120089500D01*
X121434093Y-120089304D01*
X121429058Y-120087575D01*
X121417436Y-120088011D01*
X121417434Y-120088011D01*
X121380144Y-120089411D01*
X121375418Y-120089500D01*
X121356451Y-120089500D01*
X121351716Y-120090382D01*
X121348190Y-120090610D01*
X121344450Y-120090751D01*
X121317191Y-120091774D01*
X121306506Y-120096364D01*
X121301906Y-120097401D01*
X121290186Y-120100962D01*
X121285783Y-120102661D01*
X121274346Y-120104791D01*
X121264445Y-120110894D01*
X121264442Y-120110895D01*
X121253355Y-120117729D01*
X121236984Y-120126233D01*
X121222508Y-120132453D01*
X121222506Y-120132454D01*
X121214337Y-120135964D01*
X121209451Y-120139977D01*
X121207268Y-120142160D01*
X121204992Y-120144224D01*
X121204846Y-120144063D01*
X121195850Y-120151175D01*
X121188955Y-120157427D01*
X121179051Y-120163532D01*
X121172010Y-120172792D01*
X121162493Y-120185307D01*
X121151292Y-120198136D01*
X121060505Y-120288922D01*
X120998193Y-120322947D01*
X120971410Y-120325826D01*
X119014980Y-120325826D01*
X119012303Y-120325629D01*
X119007266Y-120323900D01*
X118995645Y-120324336D01*
X118995643Y-120324336D01*
X118958338Y-120325737D01*
X118953611Y-120325826D01*
X118934660Y-120325826D01*
X118929927Y-120326708D01*
X118926400Y-120326936D01*
X118907028Y-120327663D01*
X118907026Y-120327664D01*
X118895400Y-120328100D01*
X118884708Y-120332694D01*
X118880105Y-120333731D01*
X118868395Y-120337288D01*
X118863992Y-120338987D01*
X118852555Y-120341117D01*
X118842654Y-120347220D01*
X118842651Y-120347221D01*
X118831564Y-120354055D01*
X118815193Y-120362559D01*
X118800717Y-120368779D01*
X118800715Y-120368780D01*
X118792546Y-120372290D01*
X118787660Y-120376303D01*
X118785477Y-120378486D01*
X118783201Y-120380550D01*
X118783055Y-120380389D01*
X118774059Y-120387501D01*
X118767164Y-120393753D01*
X118757260Y-120399858D01*
X118740692Y-120421646D01*
X118729498Y-120434465D01*
X118451567Y-120712396D01*
X118389255Y-120746422D01*
X118361705Y-120749299D01*
X118270599Y-120748742D01*
X118228024Y-120760910D01*
X118157031Y-120760398D01*
X118097583Y-120721584D01*
X118068556Y-120656793D01*
X118079167Y-120586593D01*
X118104305Y-120550666D01*
X119295452Y-119359519D01*
X119297486Y-119357763D01*
X119302269Y-119355425D01*
X119314789Y-119341929D01*
X119335573Y-119319523D01*
X119338853Y-119316118D01*
X119352248Y-119302723D01*
X119354972Y-119298753D01*
X119357297Y-119296105D01*
X119364398Y-119288450D01*
X119378401Y-119273354D01*
X119382713Y-119262547D01*
X119385232Y-119258562D01*
X119391004Y-119247753D01*
X119392911Y-119243448D01*
X119399493Y-119233854D01*
X119405186Y-119209864D01*
X119410751Y-119192268D01*
X119416586Y-119177642D01*
X119419883Y-119169378D01*
X119420500Y-119163085D01*
X119420500Y-119160003D01*
X119420650Y-119156933D01*
X119420866Y-119156944D01*
X119422198Y-119145569D01*
X119422653Y-119136255D01*
X119425340Y-119124934D01*
X119421651Y-119097827D01*
X119420500Y-119080836D01*
X119420500Y-117080000D01*
X121314318Y-117080000D01*
X121334956Y-117236762D01*
X121395464Y-117382841D01*
X121491718Y-117508282D01*
X121617159Y-117604536D01*
X121763238Y-117665044D01*
X121920000Y-117685682D01*
X121928188Y-117684604D01*
X122068574Y-117666122D01*
X122076762Y-117665044D01*
X122222841Y-117604536D01*
X122348282Y-117508282D01*
X122444536Y-117382841D01*
X122505044Y-117236762D01*
X122525682Y-117080000D01*
X122510173Y-116962196D01*
X122506122Y-116931426D01*
X122505044Y-116923238D01*
X122444536Y-116777159D01*
X122364384Y-116672702D01*
X122353305Y-116658264D01*
X122348282Y-116651718D01*
X122339461Y-116644949D01*
X122286719Y-116604479D01*
X122222841Y-116555464D01*
X122076762Y-116494956D01*
X122039285Y-116490022D01*
X121928188Y-116475396D01*
X121920000Y-116474318D01*
X121911812Y-116475396D01*
X121800716Y-116490022D01*
X121763238Y-116494956D01*
X121617159Y-116555464D01*
X121553281Y-116604479D01*
X121500540Y-116644949D01*
X121491718Y-116651718D01*
X121486695Y-116658264D01*
X121475616Y-116672702D01*
X121395464Y-116777159D01*
X121334956Y-116923238D01*
X121333878Y-116931426D01*
X121329827Y-116962196D01*
X121314318Y-117080000D01*
X119420500Y-117080000D01*
X119420500Y-116238953D01*
X119420696Y-116236278D01*
X119422426Y-116231241D01*
X119420589Y-116182312D01*
X119420500Y-116177586D01*
X119420500Y-116158635D01*
X119419618Y-116153902D01*
X119419390Y-116150375D01*
X119418663Y-116131003D01*
X119418662Y-116131001D01*
X119418226Y-116119375D01*
X119413632Y-116108683D01*
X119412595Y-116104080D01*
X119409038Y-116092369D01*
X119407339Y-116087966D01*
X119405209Y-116076530D01*
X119392272Y-116055542D01*
X119383769Y-116039172D01*
X119377548Y-116024692D01*
X119377545Y-116024687D01*
X119374036Y-116016520D01*
X119370023Y-116011634D01*
X119367840Y-116009451D01*
X119365776Y-116007175D01*
X119365937Y-116007029D01*
X119358835Y-115998044D01*
X119352571Y-115991137D01*
X119346468Y-115981235D01*
X119324689Y-115964674D01*
X119311868Y-115953479D01*
X119229001Y-115870612D01*
X119133204Y-115774816D01*
X119099179Y-115712504D01*
X119097377Y-115669274D01*
X119100342Y-115646757D01*
X119110290Y-115571191D01*
X119089652Y-115414429D01*
X119029144Y-115268350D01*
X118932890Y-115142909D01*
X118807449Y-115046655D01*
X118661370Y-114986147D01*
X118504608Y-114965509D01*
X118347846Y-114986147D01*
X118201767Y-115046655D01*
X118076326Y-115142909D01*
X117980072Y-115268350D01*
X117919564Y-115414429D01*
X117906791Y-115511455D01*
X117905763Y-115519260D01*
X117877041Y-115584187D01*
X117817776Y-115623279D01*
X117771306Y-115627160D01*
X117771306Y-115627559D01*
X117766530Y-115627559D01*
X117764400Y-115627737D01*
X117754860Y-115626481D01*
X117598098Y-115647119D01*
X117452019Y-115707627D01*
X117445468Y-115712654D01*
X117445464Y-115712656D01*
X117390453Y-115754867D01*
X117324233Y-115780467D01*
X117254684Y-115766202D01*
X117224655Y-115743999D01*
X112935204Y-111454548D01*
X112933448Y-111452514D01*
X112931110Y-111447731D01*
X112920005Y-111437429D01*
X112895208Y-111414427D01*
X112891803Y-111411147D01*
X112878408Y-111397752D01*
X112874438Y-111395028D01*
X112871790Y-111392703D01*
X112857566Y-111379508D01*
X112857563Y-111379506D01*
X112849039Y-111371599D01*
X112838235Y-111367289D01*
X112834246Y-111364767D01*
X112823458Y-111359006D01*
X112819133Y-111357089D01*
X112809539Y-111350508D01*
X112798220Y-111347822D01*
X112798218Y-111347821D01*
X112785558Y-111344817D01*
X112767961Y-111339252D01*
X112753323Y-111333412D01*
X112753320Y-111333411D01*
X112745063Y-111330117D01*
X112738770Y-111329500D01*
X112735691Y-111329500D01*
X112732618Y-111329350D01*
X112732629Y-111329134D01*
X112721254Y-111327802D01*
X112711939Y-111327346D01*
X112700619Y-111324660D01*
X112689090Y-111326229D01*
X112689089Y-111326229D01*
X112673512Y-111328349D01*
X112656521Y-111329500D01*
X110392366Y-111329500D01*
X110389693Y-111329304D01*
X110384658Y-111327575D01*
X110373036Y-111328011D01*
X110373034Y-111328011D01*
X110335745Y-111329411D01*
X110331019Y-111329500D01*
X110312052Y-111329500D01*
X110307317Y-111330382D01*
X110303791Y-111330610D01*
X110300051Y-111330751D01*
X110272792Y-111331774D01*
X110262107Y-111336364D01*
X110257507Y-111337401D01*
X110245786Y-111340962D01*
X110241383Y-111342661D01*
X110229947Y-111344791D01*
X110208961Y-111357727D01*
X110192589Y-111366231D01*
X110178112Y-111372451D01*
X110178108Y-111372453D01*
X110169937Y-111375964D01*
X110165051Y-111379978D01*
X110162866Y-111382163D01*
X110160603Y-111384215D01*
X110160458Y-111384055D01*
X110151451Y-111391175D01*
X110144556Y-111397427D01*
X110134652Y-111403532D01*
X110118084Y-111425320D01*
X110106890Y-111438139D01*
X109214548Y-112330481D01*
X109212514Y-112332237D01*
X109207731Y-112334575D01*
X109199819Y-112343104D01*
X109199818Y-112343105D01*
X109174427Y-112370477D01*
X109171147Y-112373882D01*
X109157752Y-112387277D01*
X109155028Y-112391247D01*
X109152703Y-112393895D01*
X109139508Y-112408119D01*
X109139506Y-112408122D01*
X109131599Y-112416646D01*
X109127289Y-112427450D01*
X109124767Y-112431439D01*
X109119006Y-112442227D01*
X109117089Y-112446552D01*
X109110508Y-112456146D01*
X109107822Y-112467465D01*
X109107821Y-112467467D01*
X109104817Y-112480127D01*
X109099252Y-112497724D01*
X109093568Y-112511971D01*
X109090117Y-112520622D01*
X109089500Y-112526915D01*
X109089500Y-112529994D01*
X109089350Y-112533067D01*
X109089134Y-112533056D01*
X109087802Y-112544431D01*
X109087346Y-112553746D01*
X109084660Y-112565066D01*
X109086229Y-112576595D01*
X109086229Y-112576596D01*
X109088349Y-112592173D01*
X109089500Y-112609164D01*
X109089500Y-113603337D01*
X109069498Y-113671458D01*
X109052596Y-113692432D01*
X108696429Y-114048600D01*
X108694399Y-114050353D01*
X108689615Y-114052691D01*
X108681703Y-114061220D01*
X108681702Y-114061221D01*
X108656311Y-114088593D01*
X108653031Y-114091998D01*
X108639636Y-114105393D01*
X108636912Y-114109363D01*
X108634587Y-114112011D01*
X108621392Y-114126235D01*
X108621390Y-114126238D01*
X108613483Y-114134762D01*
X108609173Y-114145566D01*
X108606651Y-114149555D01*
X108600890Y-114160343D01*
X108598973Y-114164668D01*
X108592392Y-114174262D01*
X108589706Y-114185581D01*
X108589705Y-114185583D01*
X108586701Y-114198243D01*
X108581136Y-114215840D01*
X108575296Y-114230478D01*
X108572001Y-114238738D01*
X108571384Y-114245031D01*
X108571384Y-114248110D01*
X108571234Y-114251183D01*
X108571018Y-114251172D01*
X108569686Y-114262547D01*
X108569230Y-114271862D01*
X108566544Y-114283182D01*
X108568113Y-114294711D01*
X108568113Y-114294712D01*
X108570233Y-114310289D01*
X108571384Y-114327280D01*
X108571384Y-115511455D01*
X108551382Y-115579576D01*
X108534479Y-115600550D01*
X108232434Y-115902595D01*
X108170122Y-115936621D01*
X108143339Y-115939500D01*
X108110002Y-115939500D01*
X108041881Y-115919498D01*
X107998036Y-115871290D01*
X107987108Y-115850117D01*
X107987108Y-115850116D01*
X107983625Y-115843369D01*
X107978313Y-115837279D01*
X107883213Y-115728264D01*
X107872169Y-115715604D01*
X107779221Y-115650279D01*
X107739670Y-115622482D01*
X107739668Y-115622481D01*
X107733453Y-115618113D01*
X107575487Y-115556524D01*
X107567954Y-115555532D01*
X107567953Y-115555532D01*
X107450261Y-115540038D01*
X107450260Y-115540038D01*
X107446174Y-115539500D01*
X106857484Y-115539500D01*
X106731680Y-115554724D01*
X106573077Y-115614655D01*
X106566819Y-115618956D01*
X106477867Y-115680091D01*
X106410398Y-115702191D01*
X106341691Y-115684306D01*
X106293560Y-115632114D01*
X106280500Y-115576251D01*
X106280500Y-113772838D01*
X106300502Y-113704717D01*
X106354158Y-113658224D01*
X106424432Y-113648120D01*
X106478950Y-113669750D01*
X106610047Y-113761887D01*
X106768013Y-113823476D01*
X106775546Y-113824468D01*
X106775547Y-113824468D01*
X106893239Y-113839962D01*
X106897326Y-113840500D01*
X107786016Y-113840500D01*
X107911820Y-113825276D01*
X107991122Y-113795310D01*
X108063320Y-113768029D01*
X108070423Y-113765345D01*
X108133506Y-113721989D01*
X108203892Y-113673614D01*
X108203893Y-113673613D01*
X108210151Y-113669312D01*
X108222432Y-113655528D01*
X108317888Y-113548392D01*
X108317890Y-113548388D01*
X108322940Y-113542721D01*
X108329738Y-113529883D01*
X108398724Y-113399589D01*
X108402276Y-113392881D01*
X108443581Y-113228441D01*
X108443686Y-113208509D01*
X108444429Y-113066495D01*
X108444469Y-113058895D01*
X108439481Y-113038116D01*
X108406661Y-112901417D01*
X108404888Y-112894032D01*
X108396915Y-112878583D01*
X108330608Y-112750117D01*
X108330608Y-112750116D01*
X108327125Y-112743369D01*
X108321813Y-112737279D01*
X108243932Y-112648003D01*
X108215669Y-112615604D01*
X108151568Y-112570553D01*
X108083170Y-112522482D01*
X108083168Y-112522481D01*
X108076953Y-112518113D01*
X107918987Y-112456524D01*
X107911454Y-112455532D01*
X107911453Y-112455532D01*
X107793761Y-112440038D01*
X107793760Y-112440038D01*
X107789674Y-112439500D01*
X106900984Y-112439500D01*
X106775180Y-112454724D01*
X106616577Y-112514655D01*
X106610319Y-112518956D01*
X106477867Y-112609988D01*
X106410398Y-112632088D01*
X106341691Y-112614203D01*
X106293561Y-112562011D01*
X106280500Y-112506148D01*
X106280500Y-108939300D01*
X106300502Y-108871179D01*
X106354158Y-108824686D01*
X106406500Y-108813300D01*
X107604348Y-108813300D01*
X107618701Y-108810445D01*
X107650661Y-108804088D01*
X107650662Y-108804088D01*
X107662831Y-108801667D01*
X107729152Y-108757352D01*
X107773467Y-108691031D01*
X107785100Y-108632548D01*
X107785100Y-107845066D01*
X119974660Y-107845066D01*
X119976229Y-107856595D01*
X119976229Y-107856596D01*
X119978349Y-107872173D01*
X119979500Y-107889164D01*
X119979500Y-112408134D01*
X119979304Y-112410807D01*
X119977575Y-112415842D01*
X119978011Y-112427464D01*
X119978011Y-112427466D01*
X119979411Y-112464755D01*
X119979500Y-112469481D01*
X119979500Y-112488448D01*
X119980382Y-112493183D01*
X119980610Y-112496709D01*
X119981774Y-112527708D01*
X119986364Y-112538393D01*
X119987401Y-112542993D01*
X119990962Y-112554714D01*
X119992661Y-112559117D01*
X119994791Y-112570553D01*
X120007727Y-112591539D01*
X120016231Y-112607911D01*
X120022451Y-112622388D01*
X120022453Y-112622392D01*
X120025964Y-112630563D01*
X120029978Y-112635449D01*
X120032163Y-112637634D01*
X120034215Y-112639897D01*
X120034055Y-112640042D01*
X120041175Y-112649049D01*
X120047427Y-112655944D01*
X120053532Y-112665848D01*
X120075320Y-112682416D01*
X120088139Y-112693610D01*
X120901404Y-113506875D01*
X120935430Y-113569187D01*
X120937231Y-113612416D01*
X120924318Y-113710500D01*
X120944956Y-113867262D01*
X121005464Y-114013341D01*
X121101718Y-114138782D01*
X121227159Y-114235036D01*
X121373238Y-114295544D01*
X121530000Y-114316182D01*
X121538188Y-114315104D01*
X121678574Y-114296622D01*
X121686762Y-114295544D01*
X121832841Y-114235036D01*
X121958282Y-114138782D01*
X122054536Y-114013341D01*
X122090575Y-113926336D01*
X122135122Y-113871056D01*
X122202485Y-113848635D01*
X122274311Y-113868052D01*
X122278168Y-113870490D01*
X122286696Y-113878401D01*
X122297503Y-113882713D01*
X122301485Y-113885230D01*
X122312297Y-113891004D01*
X122316602Y-113892911D01*
X122326196Y-113899493D01*
X122350149Y-113905177D01*
X122350186Y-113905186D01*
X122367782Y-113910751D01*
X122390672Y-113919883D01*
X122396965Y-113920500D01*
X122400047Y-113920500D01*
X122403117Y-113920650D01*
X122403106Y-113920866D01*
X122414481Y-113922198D01*
X122423795Y-113922653D01*
X122435116Y-113925340D01*
X122446645Y-113923771D01*
X122446646Y-113923771D01*
X122462223Y-113921651D01*
X122479214Y-113920500D01*
X122991531Y-113920500D01*
X123059652Y-113940502D01*
X123091493Y-113969795D01*
X123151718Y-114048282D01*
X123277159Y-114144536D01*
X123423238Y-114205044D01*
X123431426Y-114206122D01*
X123501619Y-114215363D01*
X123580000Y-114225682D01*
X123588188Y-114224604D01*
X123728574Y-114206122D01*
X123736762Y-114205044D01*
X123882841Y-114144536D01*
X124008282Y-114048282D01*
X124104536Y-113922841D01*
X124165044Y-113776762D01*
X124171814Y-113725340D01*
X124177579Y-113681551D01*
X124206302Y-113616624D01*
X124265567Y-113577533D01*
X124336559Y-113576688D01*
X124388189Y-113605621D01*
X124420489Y-113635584D01*
X124423868Y-113638840D01*
X124437276Y-113652248D01*
X124441255Y-113654978D01*
X124443884Y-113657286D01*
X124466646Y-113678401D01*
X124477453Y-113682712D01*
X124481448Y-113685238D01*
X124492242Y-113691001D01*
X124496554Y-113692912D01*
X124506146Y-113699492D01*
X124517463Y-113702178D01*
X124517464Y-113702178D01*
X124530127Y-113705183D01*
X124547724Y-113710748D01*
X124562362Y-113716588D01*
X124562365Y-113716589D01*
X124570622Y-113719883D01*
X124576915Y-113720500D01*
X124579994Y-113720500D01*
X124583067Y-113720650D01*
X124583056Y-113720866D01*
X124594431Y-113722198D01*
X124603746Y-113722654D01*
X124615066Y-113725340D01*
X124626595Y-113723771D01*
X124626596Y-113723771D01*
X124642173Y-113721651D01*
X124659164Y-113720500D01*
X125427634Y-113720500D01*
X125430307Y-113720696D01*
X125435342Y-113722425D01*
X125446964Y-113721989D01*
X125446966Y-113721989D01*
X125484255Y-113720589D01*
X125488981Y-113720500D01*
X125507948Y-113720500D01*
X125512683Y-113719618D01*
X125516209Y-113719390D01*
X125519949Y-113719249D01*
X125547208Y-113718226D01*
X125557893Y-113713636D01*
X125562493Y-113712599D01*
X125574214Y-113709038D01*
X125578617Y-113707339D01*
X125590053Y-113705209D01*
X125611041Y-113692272D01*
X125627411Y-113683769D01*
X125641888Y-113677549D01*
X125641892Y-113677547D01*
X125650063Y-113674036D01*
X125654949Y-113670022D01*
X125657134Y-113667837D01*
X125659397Y-113665785D01*
X125659542Y-113665945D01*
X125668549Y-113658825D01*
X125675444Y-113652573D01*
X125685348Y-113646468D01*
X125701906Y-113624693D01*
X125713107Y-113611864D01*
X126053036Y-113271936D01*
X126055062Y-113270187D01*
X126059845Y-113267849D01*
X126093161Y-113231934D01*
X126096417Y-113228555D01*
X126109824Y-113215148D01*
X126112554Y-113211169D01*
X126114862Y-113208540D01*
X126135977Y-113185778D01*
X126140288Y-113174971D01*
X126142814Y-113170976D01*
X126148577Y-113160182D01*
X126150488Y-113155870D01*
X126157068Y-113146278D01*
X126162759Y-113122297D01*
X126168324Y-113104700D01*
X126174164Y-113090062D01*
X126174165Y-113090059D01*
X126177459Y-113081802D01*
X126178076Y-113075509D01*
X126178076Y-113072430D01*
X126178226Y-113069357D01*
X126178442Y-113069368D01*
X126179774Y-113057993D01*
X126180230Y-113048678D01*
X126182916Y-113037358D01*
X126179781Y-113014318D01*
X126179227Y-113010251D01*
X126178076Y-112993260D01*
X126178076Y-112728734D01*
X126198078Y-112660613D01*
X126227372Y-112628771D01*
X126227684Y-112628532D01*
X126305858Y-112568547D01*
X126321314Y-112548405D01*
X126367320Y-112488448D01*
X126402112Y-112443106D01*
X126462620Y-112297027D01*
X126483258Y-112140265D01*
X126462620Y-111983503D01*
X126402112Y-111837424D01*
X126305858Y-111711983D01*
X126180417Y-111615729D01*
X126034338Y-111555221D01*
X125877576Y-111534583D01*
X125869388Y-111535661D01*
X125767267Y-111549105D01*
X125697118Y-111538165D01*
X125644020Y-111491037D01*
X125630398Y-111453136D01*
X125628693Y-111453593D01*
X125626556Y-111445618D01*
X125625478Y-111437429D01*
X125564970Y-111291350D01*
X125468716Y-111165909D01*
X125343275Y-111069655D01*
X125197196Y-111009147D01*
X125040434Y-110988509D01*
X124883672Y-111009147D01*
X124737593Y-111069655D01*
X124612152Y-111165909D01*
X124515898Y-111291350D01*
X124477432Y-111384215D01*
X124476886Y-111385534D01*
X124432338Y-111440815D01*
X124364975Y-111463236D01*
X124296183Y-111445678D01*
X124271382Y-111426411D01*
X122497405Y-109652434D01*
X122463379Y-109590122D01*
X122460500Y-109563339D01*
X122460500Y-108047969D01*
X122480502Y-107979848D01*
X122509796Y-107948006D01*
X122581736Y-107892805D01*
X122588282Y-107887782D01*
X122684536Y-107762341D01*
X122745044Y-107616262D01*
X122765682Y-107459500D01*
X122745044Y-107302738D01*
X122716869Y-107234718D01*
X122709280Y-107164129D01*
X122741059Y-107100642D01*
X122802117Y-107064414D01*
X122833278Y-107060500D01*
X124107235Y-107060500D01*
X124175356Y-107080502D01*
X124221849Y-107134158D01*
X124232157Y-107202945D01*
X124225774Y-107251432D01*
X124224696Y-107259622D01*
X124245334Y-107416384D01*
X124305842Y-107562463D01*
X124343831Y-107611971D01*
X124391347Y-107673895D01*
X124402096Y-107687904D01*
X124527537Y-107784158D01*
X124673616Y-107844666D01*
X124830378Y-107865304D01*
X124838566Y-107864226D01*
X124978952Y-107845744D01*
X124987140Y-107844666D01*
X125133219Y-107784158D01*
X125258660Y-107687904D01*
X125269410Y-107673895D01*
X125316925Y-107611971D01*
X125354914Y-107562463D01*
X125415422Y-107416384D01*
X125436060Y-107259622D01*
X125415422Y-107102860D01*
X125354914Y-106956781D01*
X125258660Y-106831340D01*
X125133219Y-106735086D01*
X124987140Y-106674578D01*
X124928463Y-106666853D01*
X124838566Y-106655018D01*
X124830378Y-106653940D01*
X124732294Y-106666853D01*
X124662146Y-106655914D01*
X124626753Y-106631026D01*
X124580275Y-106584548D01*
X124578519Y-106582514D01*
X124576181Y-106577731D01*
X124540279Y-106544427D01*
X124536874Y-106541147D01*
X124523479Y-106527752D01*
X124519509Y-106525028D01*
X124516861Y-106522703D01*
X124502637Y-106509508D01*
X124502634Y-106509506D01*
X124494110Y-106501599D01*
X124483306Y-106497289D01*
X124479317Y-106494767D01*
X124468529Y-106489006D01*
X124464204Y-106487089D01*
X124454610Y-106480508D01*
X124443291Y-106477822D01*
X124443289Y-106477821D01*
X124430629Y-106474817D01*
X124413032Y-106469252D01*
X124398394Y-106463412D01*
X124398391Y-106463411D01*
X124390134Y-106460117D01*
X124383841Y-106459500D01*
X124380762Y-106459500D01*
X124377689Y-106459350D01*
X124377700Y-106459134D01*
X124366325Y-106457802D01*
X124357010Y-106457346D01*
X124345690Y-106454660D01*
X124334161Y-106456229D01*
X124334160Y-106456229D01*
X124318583Y-106458349D01*
X124301592Y-106459500D01*
X121432366Y-106459500D01*
X121429693Y-106459304D01*
X121424658Y-106457575D01*
X121413036Y-106458011D01*
X121413034Y-106458011D01*
X121375745Y-106459411D01*
X121371019Y-106459500D01*
X121352052Y-106459500D01*
X121347317Y-106460382D01*
X121343791Y-106460610D01*
X121340051Y-106460751D01*
X121312792Y-106461774D01*
X121302107Y-106466364D01*
X121297507Y-106467401D01*
X121285786Y-106470962D01*
X121281383Y-106472661D01*
X121269947Y-106474791D01*
X121248961Y-106487727D01*
X121232589Y-106496231D01*
X121218112Y-106502451D01*
X121218108Y-106502453D01*
X121209937Y-106505964D01*
X121205051Y-106509978D01*
X121202866Y-106512163D01*
X121200603Y-106514215D01*
X121200458Y-106514055D01*
X121191451Y-106521175D01*
X121184556Y-106527427D01*
X121174652Y-106533532D01*
X121158084Y-106555320D01*
X121146890Y-106568139D01*
X120104548Y-107610481D01*
X120102514Y-107612237D01*
X120097731Y-107614575D01*
X120089819Y-107623104D01*
X120089818Y-107623105D01*
X120064427Y-107650477D01*
X120061147Y-107653882D01*
X120047752Y-107667277D01*
X120045028Y-107671247D01*
X120042703Y-107673895D01*
X120029508Y-107688119D01*
X120029506Y-107688122D01*
X120021599Y-107696646D01*
X120017289Y-107707450D01*
X120014767Y-107711439D01*
X120009006Y-107722227D01*
X120007089Y-107726552D01*
X120000508Y-107736146D01*
X119997822Y-107747465D01*
X119997821Y-107747467D01*
X119994817Y-107760127D01*
X119989252Y-107777724D01*
X119983412Y-107792362D01*
X119980117Y-107800622D01*
X119979500Y-107806915D01*
X119979500Y-107809994D01*
X119979350Y-107813067D01*
X119979134Y-107813056D01*
X119977802Y-107824431D01*
X119977346Y-107833746D01*
X119974660Y-107845066D01*
X107785100Y-107845066D01*
X107785100Y-107323052D01*
X107773467Y-107264569D01*
X107766575Y-107254254D01*
X107766573Y-107254250D01*
X107746562Y-107224302D01*
X107725347Y-107156549D01*
X107744130Y-107088082D01*
X107796947Y-107040639D01*
X107851327Y-107028300D01*
X108794348Y-107028300D01*
X108800416Y-107027093D01*
X108840661Y-107019088D01*
X108840662Y-107019088D01*
X108852831Y-107016667D01*
X108919152Y-106972352D01*
X108963467Y-106906031D01*
X108975100Y-106847548D01*
X108975100Y-104708052D01*
X108973211Y-104698557D01*
X108969288Y-104678834D01*
X110879500Y-104678834D01*
X110882481Y-104710369D01*
X110927366Y-104838184D01*
X110932958Y-104845754D01*
X110932959Y-104845757D01*
X110933601Y-104846626D01*
X111007850Y-104947150D01*
X111015421Y-104952742D01*
X111109243Y-105022041D01*
X111109246Y-105022042D01*
X111116816Y-105027634D01*
X111244631Y-105072519D01*
X111252277Y-105073242D01*
X111252278Y-105073242D01*
X111258248Y-105073806D01*
X111276166Y-105075500D01*
X111883834Y-105075500D01*
X111901752Y-105073806D01*
X111907722Y-105073242D01*
X111907723Y-105073242D01*
X111915369Y-105072519D01*
X112043184Y-105027634D01*
X112050754Y-105022042D01*
X112050757Y-105022041D01*
X112144579Y-104952742D01*
X112152150Y-104947150D01*
X112157742Y-104939579D01*
X112157745Y-104939576D01*
X112228649Y-104843580D01*
X112285210Y-104800669D01*
X112355992Y-104795149D01*
X112418521Y-104828773D01*
X112431351Y-104843580D01*
X112502255Y-104939576D01*
X112502258Y-104939579D01*
X112507850Y-104947150D01*
X112515421Y-104952742D01*
X112609243Y-105022041D01*
X112609246Y-105022042D01*
X112616816Y-105027634D01*
X112744631Y-105072519D01*
X112752277Y-105073242D01*
X112752278Y-105073242D01*
X112758248Y-105073806D01*
X112776166Y-105075500D01*
X113383834Y-105075500D01*
X113401752Y-105073806D01*
X113407722Y-105073242D01*
X113407723Y-105073242D01*
X113415369Y-105072519D01*
X113543184Y-105027634D01*
X113550754Y-105022042D01*
X113550757Y-105022041D01*
X113644579Y-104952742D01*
X113652150Y-104947150D01*
X113726399Y-104846626D01*
X113727041Y-104845757D01*
X113727042Y-104845754D01*
X113732634Y-104838184D01*
X113777519Y-104710369D01*
X113780500Y-104678834D01*
X113780500Y-103321166D01*
X113777519Y-103289631D01*
X113732634Y-103161816D01*
X113727042Y-103154246D01*
X113727041Y-103154243D01*
X113657742Y-103060421D01*
X113652150Y-103052850D01*
X113565927Y-102989164D01*
X113550757Y-102977959D01*
X113550754Y-102977958D01*
X113543184Y-102972366D01*
X113415369Y-102927481D01*
X113407723Y-102926758D01*
X113407722Y-102926758D01*
X113401752Y-102926194D01*
X113383834Y-102924500D01*
X112776166Y-102924500D01*
X112758248Y-102926194D01*
X112752278Y-102926758D01*
X112752277Y-102926758D01*
X112744631Y-102927481D01*
X112616816Y-102972366D01*
X112609246Y-102977958D01*
X112609243Y-102977959D01*
X112594073Y-102989164D01*
X112507850Y-103052850D01*
X112502258Y-103060421D01*
X112502255Y-103060424D01*
X112431351Y-103156420D01*
X112374790Y-103199331D01*
X112304008Y-103204851D01*
X112241479Y-103171227D01*
X112228649Y-103156420D01*
X112157745Y-103060424D01*
X112157742Y-103060421D01*
X112152150Y-103052850D01*
X112065927Y-102989164D01*
X112050757Y-102977959D01*
X112050754Y-102977958D01*
X112043184Y-102972366D01*
X111915369Y-102927481D01*
X111907723Y-102926758D01*
X111907722Y-102926758D01*
X111901752Y-102926194D01*
X111883834Y-102924500D01*
X111276166Y-102924500D01*
X111258248Y-102926194D01*
X111252278Y-102926758D01*
X111252277Y-102926758D01*
X111244631Y-102927481D01*
X111116816Y-102972366D01*
X111109246Y-102977958D01*
X111109243Y-102977959D01*
X111094073Y-102989164D01*
X111007850Y-103052850D01*
X111002258Y-103060421D01*
X110932959Y-103154243D01*
X110932958Y-103154246D01*
X110927366Y-103161816D01*
X110882481Y-103289631D01*
X110879500Y-103321166D01*
X110879500Y-104678834D01*
X108969288Y-104678834D01*
X108965888Y-104661739D01*
X108965888Y-104661738D01*
X108963467Y-104649569D01*
X108919152Y-104583248D01*
X108852831Y-104538933D01*
X108840662Y-104536512D01*
X108840661Y-104536512D01*
X108800416Y-104528507D01*
X108794348Y-104527300D01*
X106406500Y-104527300D01*
X106338379Y-104507298D01*
X106291886Y-104453642D01*
X106280500Y-104401300D01*
X106280500Y-102292736D01*
X107025070Y-102292736D01*
X107025698Y-102305807D01*
X107037909Y-102560041D01*
X107090118Y-102822512D01*
X107091698Y-102826912D01*
X107091698Y-102826913D01*
X107106857Y-102869133D01*
X107180549Y-103074383D01*
X107182765Y-103078507D01*
X107250982Y-103205465D01*
X107307215Y-103310121D01*
X107310010Y-103313864D01*
X107310012Y-103313867D01*
X107394199Y-103426607D01*
X107467335Y-103524547D01*
X107470642Y-103527825D01*
X107470647Y-103527831D01*
X107654074Y-103709663D01*
X107657390Y-103712950D01*
X107873205Y-103871192D01*
X107877340Y-103873368D01*
X107877344Y-103873370D01*
X108006918Y-103941542D01*
X108110039Y-103995797D01*
X108114458Y-103997340D01*
X108358273Y-104082484D01*
X108358279Y-104082486D01*
X108362690Y-104084026D01*
X108625606Y-104133943D01*
X108752616Y-104138933D01*
X108888345Y-104144266D01*
X108888350Y-104144266D01*
X108893013Y-104144449D01*
X108988943Y-104133943D01*
X109154382Y-104115825D01*
X109154387Y-104115824D01*
X109159035Y-104115315D01*
X109274567Y-104084898D01*
X109413309Y-104048370D01*
X109417829Y-104047180D01*
X109542501Y-103993617D01*
X109659407Y-103943391D01*
X109659410Y-103943389D01*
X109663710Y-103941542D01*
X109667690Y-103939079D01*
X109667694Y-103939077D01*
X109887302Y-103803179D01*
X109887306Y-103803176D01*
X109891275Y-103800720D01*
X109965293Y-103738059D01*
X110091960Y-103630828D01*
X110091961Y-103630827D01*
X110095526Y-103627809D01*
X110189365Y-103520807D01*
X110268894Y-103430122D01*
X110268898Y-103430117D01*
X110271976Y-103426607D01*
X110283344Y-103408933D01*
X110414219Y-103205465D01*
X110414222Y-103205460D01*
X110416747Y-103201534D01*
X110526661Y-102957534D01*
X110545024Y-102892425D01*
X110598032Y-102704473D01*
X110598033Y-102704470D01*
X110599302Y-102699969D01*
X110617103Y-102560041D01*
X110632677Y-102437625D01*
X110632677Y-102437621D01*
X110633075Y-102434495D01*
X110635549Y-102340000D01*
X110626323Y-102215842D01*
X110616064Y-102077788D01*
X110616063Y-102077784D01*
X110615717Y-102073123D01*
X110612640Y-102059522D01*
X110575956Y-101897405D01*
X110556655Y-101812109D01*
X110554962Y-101807755D01*
X110461355Y-101567044D01*
X110461354Y-101567042D01*
X110459662Y-101562691D01*
X110456762Y-101557616D01*
X110329187Y-101334408D01*
X110326868Y-101330350D01*
X110161190Y-101120189D01*
X109966269Y-100936825D01*
X109746385Y-100784286D01*
X109733105Y-100777737D01*
X109510559Y-100667989D01*
X109510556Y-100667988D01*
X109506371Y-100665924D01*
X109251497Y-100584338D01*
X109100549Y-100559755D01*
X108991976Y-100542073D01*
X108991975Y-100542073D01*
X108987364Y-100541322D01*
X108853569Y-100539571D01*
X108724451Y-100537880D01*
X108724448Y-100537880D01*
X108719774Y-100537819D01*
X108454605Y-100573907D01*
X108450118Y-100575215D01*
X108450117Y-100575215D01*
X108418817Y-100584338D01*
X108197683Y-100648792D01*
X108193430Y-100650752D01*
X108193429Y-100650753D01*
X108141512Y-100674687D01*
X107954652Y-100760831D01*
X107950743Y-100763394D01*
X107734764Y-100904996D01*
X107734759Y-100905000D01*
X107730851Y-100907562D01*
X107690128Y-100943909D01*
X107556151Y-101063488D01*
X107531197Y-101085760D01*
X107360075Y-101291512D01*
X107357652Y-101295505D01*
X107226412Y-101511782D01*
X107221244Y-101520298D01*
X107219437Y-101524606D01*
X107219437Y-101524607D01*
X107148581Y-101693580D01*
X107117755Y-101767091D01*
X107116604Y-101771623D01*
X107116603Y-101771626D01*
X107055212Y-102013354D01*
X107051881Y-102026470D01*
X107025070Y-102292736D01*
X106280500Y-102292736D01*
X106280500Y-102127371D01*
X106283755Y-102098918D01*
X106284043Y-102097676D01*
X106284044Y-102097669D01*
X106285655Y-102090718D01*
X106285656Y-102090000D01*
X106284075Y-102083067D01*
X106283283Y-102075993D01*
X106284466Y-102075861D01*
X106282671Y-102054111D01*
X106282682Y-102053939D01*
X106296806Y-101820433D01*
X106298640Y-101805329D01*
X106345945Y-101547192D01*
X106349586Y-101532419D01*
X106372381Y-101459266D01*
X106427665Y-101281855D01*
X106433059Y-101267633D01*
X106464995Y-101196676D01*
X106540766Y-101028319D01*
X106547836Y-101014848D01*
X106683606Y-100790258D01*
X106692248Y-100777737D01*
X106854104Y-100571143D01*
X106864194Y-100559755D01*
X107049755Y-100374194D01*
X107061143Y-100364104D01*
X107267737Y-100202248D01*
X107280259Y-100193605D01*
X107504848Y-100057836D01*
X107518321Y-100050765D01*
X107607344Y-100010699D01*
X107757637Y-99943057D01*
X107771855Y-99937665D01*
X108022419Y-99859586D01*
X108037192Y-99855945D01*
X108295329Y-99808640D01*
X108310433Y-99806806D01*
X108393183Y-99801800D01*
X108543947Y-99792681D01*
X108551768Y-99792451D01*
X108565811Y-99792476D01*
X108579641Y-99795656D01*
X108593480Y-99792524D01*
X108598311Y-99792533D01*
X108616504Y-99790500D01*
X110833738Y-99790500D01*
X110901859Y-99810502D01*
G37*
%TD.AperFunction*%
%TA.AperFunction,Conductor*%
G36*
X132160524Y-115030502D02*
G01*
X132181498Y-115047405D01*
X132875171Y-115741078D01*
X132909197Y-115803390D01*
X132904132Y-115874205D01*
X132861585Y-115931041D01*
X132834296Y-115946581D01*
X132765773Y-115974964D01*
X132640332Y-116071218D01*
X132544078Y-116196659D01*
X132483570Y-116342738D01*
X132482492Y-116350926D01*
X132478567Y-116380737D01*
X132462932Y-116499500D01*
X132464010Y-116507688D01*
X132480904Y-116636008D01*
X132483570Y-116656262D01*
X132544078Y-116802341D01*
X132599014Y-116873935D01*
X132625995Y-116909097D01*
X132640332Y-116927782D01*
X132765773Y-117024036D01*
X132911852Y-117084544D01*
X132920040Y-117085622D01*
X132990233Y-117094863D01*
X133068614Y-117105182D01*
X133166698Y-117092269D01*
X133236846Y-117103208D01*
X133272239Y-117128096D01*
X135052595Y-118908452D01*
X135086621Y-118970764D01*
X135089500Y-118997547D01*
X135089500Y-120383142D01*
X135069498Y-120451263D01*
X135015842Y-120497756D01*
X134945568Y-120507860D01*
X134915282Y-120499551D01*
X134839392Y-120468116D01*
X134839389Y-120468115D01*
X134831762Y-120464956D01*
X134675000Y-120444318D01*
X134518238Y-120464956D01*
X134372159Y-120525464D01*
X134246718Y-120621718D01*
X134241695Y-120628264D01*
X134194299Y-120690032D01*
X134136961Y-120731899D01*
X134066090Y-120736121D01*
X134004187Y-120701357D01*
X133994372Y-120690030D01*
X133980335Y-120671736D01*
X133980334Y-120671735D01*
X133975311Y-120665189D01*
X133849870Y-120568935D01*
X133703791Y-120508427D01*
X133547029Y-120487789D01*
X133390267Y-120508427D01*
X133244188Y-120568935D01*
X133118747Y-120665189D01*
X133113724Y-120671735D01*
X133095349Y-120695682D01*
X133038011Y-120737549D01*
X132967140Y-120741771D01*
X132905237Y-120707007D01*
X132881802Y-120673518D01*
X132866153Y-120640927D01*
X132866150Y-120640922D01*
X132862718Y-120633775D01*
X132859377Y-120629801D01*
X132857444Y-120627868D01*
X132855957Y-120626247D01*
X132855715Y-120625798D01*
X132855746Y-120625770D01*
X132855627Y-120625634D01*
X132852702Y-120620214D01*
X132816005Y-120586292D01*
X132812439Y-120582863D01*
X129827217Y-117597641D01*
X129793191Y-117535329D01*
X129791390Y-117492099D01*
X129794604Y-117467687D01*
X129795682Y-117459500D01*
X129775044Y-117302738D01*
X129714536Y-117156659D01*
X129629823Y-117046258D01*
X129623305Y-117037764D01*
X129618282Y-117031218D01*
X129594049Y-117012623D01*
X129533769Y-116966369D01*
X129492841Y-116934964D01*
X129346762Y-116874456D01*
X129294112Y-116867525D01*
X129229185Y-116838803D01*
X129190093Y-116779539D01*
X129189248Y-116708547D01*
X129221463Y-116653508D01*
X130827566Y-115047405D01*
X130889878Y-115013379D01*
X130916661Y-115010500D01*
X132092403Y-115010500D01*
X132160524Y-115030502D01*
G37*
%TD.AperFunction*%
%TA.AperFunction,Conductor*%
G36*
X112948880Y-112892184D02*
G01*
X112979974Y-112914945D01*
X117193333Y-117128304D01*
X117227359Y-117190616D01*
X117229160Y-117233844D01*
X117216435Y-117330500D01*
X117237073Y-117487262D01*
X117297581Y-117633341D01*
X117344834Y-117694922D01*
X117387482Y-117750502D01*
X117393835Y-117758782D01*
X117400381Y-117763805D01*
X117413690Y-117774017D01*
X117519276Y-117855036D01*
X117665355Y-117915544D01*
X117822117Y-117936182D01*
X117830305Y-117935104D01*
X117887973Y-117927512D01*
X117978879Y-117915544D01*
X118124958Y-117855036D01*
X118230544Y-117774017D01*
X118243853Y-117763805D01*
X118250399Y-117758782D01*
X118256753Y-117750502D01*
X118299400Y-117694922D01*
X118346653Y-117633341D01*
X118407161Y-117487262D01*
X118427799Y-117330500D01*
X118407161Y-117173738D01*
X118346653Y-117027659D01*
X118266528Y-116923238D01*
X118255422Y-116908764D01*
X118250399Y-116902218D01*
X118188665Y-116854848D01*
X118146798Y-116797510D01*
X118142576Y-116726639D01*
X118176274Y-116665790D01*
X118176596Y-116665468D01*
X118183142Y-116660445D01*
X118189839Y-116651718D01*
X118232155Y-116596570D01*
X118279396Y-116535004D01*
X118339904Y-116388925D01*
X118353705Y-116284093D01*
X118382427Y-116219167D01*
X118441692Y-116180075D01*
X118488162Y-116176194D01*
X118488162Y-116175795D01*
X118492938Y-116175795D01*
X118495068Y-116175617D01*
X118504608Y-116176873D01*
X118602692Y-116163960D01*
X118672840Y-116174899D01*
X118708233Y-116199787D01*
X118782595Y-116274149D01*
X118816621Y-116336461D01*
X118819500Y-116363244D01*
X118819500Y-118933339D01*
X118799498Y-119001460D01*
X118782595Y-119022434D01*
X117554548Y-120250481D01*
X117552514Y-120252237D01*
X117547731Y-120254575D01*
X117539820Y-120263103D01*
X117531624Y-120269190D01*
X117465009Y-120293747D01*
X117395693Y-120278391D01*
X117345683Y-120227998D01*
X117330500Y-120168035D01*
X117330500Y-119606681D01*
X117330696Y-119604008D01*
X117332425Y-119598973D01*
X117330589Y-119550059D01*
X117330500Y-119545333D01*
X117330500Y-119526367D01*
X117329619Y-119521632D01*
X117329390Y-119518105D01*
X117328662Y-119498730D01*
X117328226Y-119487106D01*
X117323634Y-119476419D01*
X117322595Y-119471807D01*
X117319043Y-119460115D01*
X117317339Y-119455698D01*
X117315209Y-119444262D01*
X117302272Y-119423274D01*
X117293769Y-119406904D01*
X117287549Y-119392427D01*
X117287547Y-119392423D01*
X117284036Y-119384252D01*
X117280022Y-119379366D01*
X117277837Y-119377181D01*
X117275785Y-119374918D01*
X117275945Y-119374773D01*
X117268825Y-119365766D01*
X117262573Y-119358871D01*
X117256468Y-119348967D01*
X117234680Y-119332399D01*
X117221861Y-119321205D01*
X115423988Y-117523331D01*
X115389962Y-117461019D01*
X115387083Y-117434236D01*
X115387083Y-117331886D01*
X115407085Y-117263765D01*
X115436379Y-117231923D01*
X115436647Y-117231718D01*
X115514865Y-117171699D01*
X115611119Y-117046258D01*
X115671627Y-116900179D01*
X115675014Y-116874456D01*
X115687823Y-116777159D01*
X115692265Y-116743417D01*
X115671627Y-116586655D01*
X115611119Y-116440576D01*
X115514865Y-116315135D01*
X115506594Y-116308788D01*
X115431367Y-116251065D01*
X115389424Y-116218881D01*
X115243345Y-116158373D01*
X115086583Y-116137735D01*
X114929821Y-116158373D01*
X114783742Y-116218881D01*
X114741799Y-116251065D01*
X114666573Y-116308788D01*
X114658301Y-116315135D01*
X114562047Y-116440576D01*
X114501539Y-116586655D01*
X114480901Y-116743417D01*
X114490540Y-116816629D01*
X114493478Y-116838949D01*
X114482539Y-116909097D01*
X114435411Y-116962196D01*
X114367057Y-116981386D01*
X114299179Y-116960575D01*
X114279461Y-116944490D01*
X114014490Y-116679519D01*
X114012734Y-116677485D01*
X114010396Y-116672702D01*
X113974494Y-116639398D01*
X113971089Y-116636118D01*
X113957694Y-116622723D01*
X113953724Y-116619999D01*
X113951076Y-116617674D01*
X113936852Y-116604479D01*
X113936849Y-116604477D01*
X113928325Y-116596570D01*
X113917521Y-116592260D01*
X113913532Y-116589738D01*
X113902744Y-116583977D01*
X113898419Y-116582060D01*
X113888825Y-116575479D01*
X113877506Y-116572793D01*
X113877504Y-116572792D01*
X113864844Y-116569788D01*
X113847247Y-116564223D01*
X113832609Y-116558383D01*
X113832606Y-116558382D01*
X113824349Y-116555088D01*
X113818056Y-116554471D01*
X113814977Y-116554471D01*
X113811904Y-116554321D01*
X113811915Y-116554105D01*
X113800540Y-116552773D01*
X113791225Y-116552317D01*
X113779905Y-116549631D01*
X113768376Y-116551200D01*
X113768375Y-116551200D01*
X113752798Y-116553320D01*
X113735807Y-116554471D01*
X111096330Y-116554471D01*
X111028209Y-116534469D01*
X110981716Y-116480813D01*
X110971408Y-116444918D01*
X110961206Y-116367428D01*
X110960128Y-116359240D01*
X110899620Y-116213161D01*
X110803366Y-116087720D01*
X110775570Y-116066391D01*
X110733703Y-116009055D01*
X110729481Y-115938184D01*
X110752311Y-115889725D01*
X110781168Y-115852118D01*
X110802705Y-115824050D01*
X110855637Y-115696262D01*
X110860053Y-115685600D01*
X110863213Y-115677971D01*
X110883851Y-115521209D01*
X110863213Y-115364447D01*
X110843796Y-115317570D01*
X110836207Y-115246980D01*
X110867986Y-115183493D01*
X110929045Y-115147266D01*
X110976648Y-115144430D01*
X110980685Y-115144961D01*
X110980687Y-115144961D01*
X110984780Y-115145500D01*
X111060220Y-115145500D01*
X111064315Y-115144961D01*
X111164548Y-115131765D01*
X111172736Y-115130687D01*
X111312733Y-115072698D01*
X111432951Y-114980451D01*
X111525198Y-114860233D01*
X111583187Y-114720236D01*
X111602966Y-114570000D01*
X111583187Y-114419764D01*
X111525198Y-114279767D01*
X111432951Y-114159549D01*
X111312733Y-114067302D01*
X111314659Y-114064792D01*
X111275990Y-114024239D01*
X111262552Y-113954526D01*
X111288938Y-113888614D01*
X111346769Y-113847431D01*
X111387982Y-113840500D01*
X112116016Y-113840500D01*
X112241820Y-113825276D01*
X112321122Y-113795310D01*
X112393320Y-113768029D01*
X112400423Y-113765345D01*
X112463506Y-113721989D01*
X112533892Y-113673614D01*
X112533893Y-113673613D01*
X112540151Y-113669312D01*
X112552432Y-113655528D01*
X112647888Y-113548392D01*
X112647890Y-113548388D01*
X112652940Y-113542721D01*
X112659738Y-113529883D01*
X112728724Y-113399589D01*
X112732276Y-113392881D01*
X112773581Y-113228441D01*
X112773686Y-113208509D01*
X112774429Y-113066495D01*
X112774469Y-113058895D01*
X112768361Y-113033454D01*
X112771907Y-112962548D01*
X112813225Y-112904813D01*
X112879199Y-112878583D01*
X112948880Y-112892184D01*
G37*
%TD.AperFunction*%
%TA.AperFunction,Conductor*%
G36*
X108889416Y-116199721D02*
G01*
X108946252Y-116242268D01*
X108971063Y-116308788D01*
X108971384Y-116317777D01*
X108971384Y-117961455D01*
X108951382Y-118029576D01*
X108934479Y-118050550D01*
X108542434Y-118442595D01*
X108480122Y-118476621D01*
X108453339Y-118479500D01*
X108110002Y-118479500D01*
X108041881Y-118459498D01*
X107998036Y-118411290D01*
X107987108Y-118390117D01*
X107987108Y-118390116D01*
X107983625Y-118383369D01*
X107978313Y-118377279D01*
X107877163Y-118261329D01*
X107872169Y-118255604D01*
X107777159Y-118188830D01*
X107739670Y-118162482D01*
X107739668Y-118162481D01*
X107733453Y-118158113D01*
X107575487Y-118096524D01*
X107567954Y-118095532D01*
X107567953Y-118095532D01*
X107450261Y-118080038D01*
X107450260Y-118080038D01*
X107446174Y-118079500D01*
X106857484Y-118079500D01*
X106731680Y-118094724D01*
X106573077Y-118154655D01*
X106566819Y-118158956D01*
X106477867Y-118220091D01*
X106410398Y-118242191D01*
X106341691Y-118224306D01*
X106293560Y-118172114D01*
X106280500Y-118116251D01*
X106280500Y-116903411D01*
X106300502Y-116835290D01*
X106354158Y-116788797D01*
X106424432Y-116778693D01*
X106478950Y-116800324D01*
X106560326Y-116857516D01*
X106560333Y-116857520D01*
X106566547Y-116861887D01*
X106724513Y-116923476D01*
X106732046Y-116924468D01*
X106732047Y-116924468D01*
X106849739Y-116939962D01*
X106853826Y-116940500D01*
X107442516Y-116940500D01*
X107568320Y-116925276D01*
X107726923Y-116865345D01*
X107797805Y-116816629D01*
X107860392Y-116773614D01*
X107860393Y-116773613D01*
X107866651Y-116769312D01*
X107878795Y-116755682D01*
X107974388Y-116648392D01*
X107974390Y-116648388D01*
X107979440Y-116642721D01*
X107982992Y-116636012D01*
X107982995Y-116636008D01*
X107998068Y-116607540D01*
X108047621Y-116556697D01*
X108109422Y-116540500D01*
X108267634Y-116540500D01*
X108270307Y-116540696D01*
X108275342Y-116542425D01*
X108286964Y-116541989D01*
X108286966Y-116541989D01*
X108324255Y-116540589D01*
X108328981Y-116540500D01*
X108347948Y-116540500D01*
X108352683Y-116539618D01*
X108356209Y-116539390D01*
X108359949Y-116539249D01*
X108387208Y-116538226D01*
X108397893Y-116533636D01*
X108402493Y-116532599D01*
X108414214Y-116529038D01*
X108418617Y-116527339D01*
X108430053Y-116525209D01*
X108451041Y-116512272D01*
X108467411Y-116503769D01*
X108481888Y-116497549D01*
X108481892Y-116497547D01*
X108490063Y-116494036D01*
X108494949Y-116490022D01*
X108497134Y-116487837D01*
X108499397Y-116485785D01*
X108499542Y-116485945D01*
X108508549Y-116478825D01*
X108515444Y-116472573D01*
X108525348Y-116466468D01*
X108541916Y-116444680D01*
X108553110Y-116431861D01*
X108756289Y-116228682D01*
X108818601Y-116194656D01*
X108889416Y-116199721D01*
G37*
%TD.AperFunction*%
%TD*%
%TA.AperFunction,Conductor*%
%TO.N,GND*%
G36*
X134286357Y-135539050D02*
G01*
X134285446Y-135545415D01*
X134292471Y-135593996D01*
X134263029Y-135658600D01*
X134224942Y-135688431D01*
X133980493Y-135812984D01*
X133980486Y-135812988D01*
X133977554Y-135814482D01*
X133696212Y-135997188D01*
X133435509Y-136208301D01*
X133198301Y-136445509D01*
X132987188Y-136706212D01*
X132804482Y-136987554D01*
X132802988Y-136990486D01*
X132802984Y-136990493D01*
X132746894Y-137100576D01*
X132652185Y-137286453D01*
X132531967Y-137599634D01*
X132445143Y-137923665D01*
X132392665Y-138254998D01*
X132375358Y-138585232D01*
X132374344Y-138589641D01*
X132377476Y-138603480D01*
X132377467Y-138608312D01*
X132379500Y-138626504D01*
X132379500Y-141552920D01*
X132377534Y-141570242D01*
X132377524Y-141575811D01*
X132374344Y-141589641D01*
X132377476Y-141603482D01*
X132377474Y-141604605D01*
X132376867Y-141616736D01*
X132365354Y-141733626D01*
X132360536Y-141757848D01*
X132322243Y-141884085D01*
X132312793Y-141906898D01*
X132250611Y-142023232D01*
X132236888Y-142043770D01*
X132153204Y-142145739D01*
X132135739Y-142163204D01*
X132033770Y-142246888D01*
X132013234Y-142260610D01*
X131909902Y-142315842D01*
X131896898Y-142322793D01*
X131874088Y-142332242D01*
X131747844Y-142370538D01*
X131723627Y-142375354D01*
X131698814Y-142377798D01*
X131606230Y-142386917D01*
X131594095Y-142387503D01*
X131580359Y-142384344D01*
X131566520Y-142387475D01*
X131561690Y-142387467D01*
X131543496Y-142389500D01*
X130117080Y-142389500D01*
X130099757Y-142387534D01*
X130094189Y-142387524D01*
X130080359Y-142384344D01*
X130069194Y-142386870D01*
X130057549Y-142385944D01*
X130007155Y-142377962D01*
X129969670Y-142365782D01*
X129921736Y-142341359D01*
X129889845Y-142318188D01*
X129851812Y-142280155D01*
X129828640Y-142248263D01*
X129804218Y-142200330D01*
X129792037Y-142162842D01*
X129785757Y-142123192D01*
X129785117Y-142093039D01*
X129785655Y-142090718D01*
X129785656Y-142090000D01*
X129783654Y-142081225D01*
X129780500Y-142053210D01*
X129780500Y-139627371D01*
X129783755Y-139598918D01*
X129784043Y-139597676D01*
X129784044Y-139597669D01*
X129785655Y-139590718D01*
X129785656Y-139590000D01*
X129784075Y-139583069D01*
X129783282Y-139575987D01*
X129783463Y-139575967D01*
X129782729Y-139571164D01*
X129769774Y-139406554D01*
X129769386Y-139401620D01*
X129725274Y-139217878D01*
X129723380Y-139213305D01*
X129654856Y-139047873D01*
X129654854Y-139047869D01*
X129652961Y-139043299D01*
X129554228Y-138882182D01*
X129551021Y-138878427D01*
X129551018Y-138878423D01*
X129434714Y-138742250D01*
X129431506Y-138738494D01*
X129427750Y-138735286D01*
X129291577Y-138618982D01*
X129291573Y-138618979D01*
X129287818Y-138615772D01*
X129126701Y-138517039D01*
X129122131Y-138515146D01*
X129122127Y-138515144D01*
X128956695Y-138446620D01*
X128956693Y-138446619D01*
X128952122Y-138444726D01*
X128888915Y-138429552D01*
X128773193Y-138401769D01*
X128773187Y-138401768D01*
X128768380Y-138400614D01*
X128599895Y-138387353D01*
X128594786Y-138386563D01*
X128594762Y-138386772D01*
X128587667Y-138385955D01*
X128580718Y-138384345D01*
X128580000Y-138384344D01*
X128571225Y-138386346D01*
X128543210Y-138389500D01*
X127617371Y-138389500D01*
X127588918Y-138386245D01*
X127587676Y-138385957D01*
X127587669Y-138385956D01*
X127580718Y-138384345D01*
X127580000Y-138384344D01*
X127573069Y-138385925D01*
X127565987Y-138386718D01*
X127565967Y-138386537D01*
X127561167Y-138387271D01*
X127391620Y-138400614D01*
X127386813Y-138401768D01*
X127386807Y-138401769D01*
X127271085Y-138429552D01*
X127207878Y-138444726D01*
X127203307Y-138446619D01*
X127203305Y-138446620D01*
X127037873Y-138515144D01*
X127037869Y-138515146D01*
X127033299Y-138517039D01*
X126872182Y-138615772D01*
X126868427Y-138618979D01*
X126868423Y-138618982D01*
X126732250Y-138735286D01*
X126728494Y-138738494D01*
X126725286Y-138742250D01*
X126608982Y-138878423D01*
X126608979Y-138878427D01*
X126605772Y-138882182D01*
X126507039Y-139043299D01*
X126505146Y-139047869D01*
X126505144Y-139047873D01*
X126436620Y-139213305D01*
X126434726Y-139217878D01*
X126390614Y-139401620D01*
X126376582Y-139579907D01*
X126374344Y-139589641D01*
X126377475Y-139603480D01*
X126377467Y-139608309D01*
X126379500Y-139626504D01*
X126379500Y-142052920D01*
X126377534Y-142070243D01*
X126377524Y-142075811D01*
X126374344Y-142089641D01*
X126376870Y-142100806D01*
X126375944Y-142112451D01*
X126369152Y-142155332D01*
X126367963Y-142162842D01*
X126355782Y-142200330D01*
X126331360Y-142248263D01*
X126308188Y-142280155D01*
X126270155Y-142318188D01*
X126238264Y-142341359D01*
X126190332Y-142365781D01*
X126152843Y-142377963D01*
X126134311Y-142380898D01*
X126102396Y-142385952D01*
X126091158Y-142386827D01*
X126080359Y-142384344D01*
X126066520Y-142387475D01*
X126061691Y-142387467D01*
X126043496Y-142389500D01*
X124762005Y-142389500D01*
X124693884Y-142369498D01*
X124647391Y-142315842D01*
X124636020Y-142265437D01*
X124635313Y-142219410D01*
X124536856Y-135816281D01*
X124532924Y-135560544D01*
X124532527Y-135534733D01*
X134200000Y-135460000D01*
X134286357Y-135539050D01*
G37*
%TD.AperFunction*%
%TD*%
%TA.AperFunction,Conductor*%
%TO.N,/VBAT*%
G36*
X123462001Y-136070553D02*
G01*
X123509001Y-136123765D01*
X123520886Y-136176307D01*
X123526619Y-136993904D01*
X123563567Y-142262616D01*
X123544043Y-142330876D01*
X123490715Y-142377744D01*
X123437570Y-142389500D01*
X122117080Y-142389500D01*
X122099757Y-142387534D01*
X122094189Y-142387524D01*
X122080359Y-142384344D01*
X122069194Y-142386870D01*
X122057549Y-142385944D01*
X122007155Y-142377962D01*
X121969670Y-142365782D01*
X121921736Y-142341359D01*
X121889845Y-142318188D01*
X121851812Y-142280155D01*
X121828640Y-142248263D01*
X121804218Y-142200330D01*
X121792037Y-142162842D01*
X121785757Y-142123192D01*
X121785117Y-142093039D01*
X121785655Y-142090718D01*
X121785656Y-142090000D01*
X121783654Y-142081225D01*
X121780500Y-142053210D01*
X121780500Y-139627371D01*
X121783755Y-139598918D01*
X121784043Y-139597676D01*
X121784044Y-139597669D01*
X121785655Y-139590718D01*
X121785656Y-139590000D01*
X121784075Y-139583069D01*
X121783282Y-139575987D01*
X121783463Y-139575967D01*
X121782729Y-139571164D01*
X121769774Y-139406554D01*
X121769386Y-139401620D01*
X121725274Y-139217878D01*
X121723380Y-139213305D01*
X121654856Y-139047873D01*
X121654854Y-139047869D01*
X121652961Y-139043299D01*
X121554228Y-138882182D01*
X121551021Y-138878427D01*
X121551018Y-138878423D01*
X121434714Y-138742250D01*
X121431506Y-138738494D01*
X121301399Y-138627371D01*
X121291577Y-138618982D01*
X121291573Y-138618979D01*
X121287818Y-138615772D01*
X121126701Y-138517039D01*
X121122131Y-138515146D01*
X121122127Y-138515144D01*
X120956695Y-138446620D01*
X120956693Y-138446619D01*
X120952122Y-138444726D01*
X120888915Y-138429552D01*
X120773193Y-138401769D01*
X120773187Y-138401768D01*
X120768380Y-138400614D01*
X120599895Y-138387353D01*
X120594786Y-138386563D01*
X120594762Y-138386772D01*
X120587667Y-138385955D01*
X120580718Y-138384345D01*
X120580000Y-138384344D01*
X120571225Y-138386346D01*
X120543210Y-138389500D01*
X119617371Y-138389500D01*
X119588918Y-138386245D01*
X119587676Y-138385957D01*
X119587669Y-138385956D01*
X119580718Y-138384345D01*
X119580000Y-138384344D01*
X119573069Y-138385925D01*
X119565987Y-138386718D01*
X119565967Y-138386537D01*
X119561167Y-138387271D01*
X119391620Y-138400614D01*
X119386813Y-138401768D01*
X119386807Y-138401769D01*
X119271085Y-138429552D01*
X119207878Y-138444726D01*
X119203307Y-138446619D01*
X119203305Y-138446620D01*
X119037873Y-138515144D01*
X119037869Y-138515146D01*
X119033299Y-138517039D01*
X118872182Y-138615772D01*
X118868427Y-138618979D01*
X118868423Y-138618982D01*
X118858601Y-138627371D01*
X118728494Y-138738494D01*
X118725286Y-138742250D01*
X118608982Y-138878423D01*
X118608979Y-138878427D01*
X118605772Y-138882182D01*
X118507039Y-139043299D01*
X118505146Y-139047869D01*
X118505144Y-139047873D01*
X118436620Y-139213305D01*
X118434726Y-139217878D01*
X118390614Y-139401620D01*
X118376582Y-139579907D01*
X118374344Y-139589641D01*
X118377475Y-139603480D01*
X118377467Y-139608309D01*
X118379500Y-139626504D01*
X118379500Y-142052920D01*
X118377534Y-142070243D01*
X118377524Y-142075811D01*
X118374344Y-142089641D01*
X118376870Y-142100806D01*
X118375944Y-142112451D01*
X118369152Y-142155332D01*
X118367963Y-142162842D01*
X118355782Y-142200330D01*
X118331360Y-142248263D01*
X118308188Y-142280155D01*
X118270155Y-142318188D01*
X118238264Y-142341359D01*
X118190332Y-142365781D01*
X118152843Y-142377963D01*
X118134311Y-142380898D01*
X118102396Y-142385952D01*
X118091158Y-142386827D01*
X118080359Y-142384344D01*
X118066520Y-142387475D01*
X118061691Y-142387467D01*
X118043496Y-142389500D01*
X116617080Y-142389500D01*
X116599758Y-142387534D01*
X116594189Y-142387524D01*
X116580359Y-142384344D01*
X116566518Y-142387476D01*
X116565395Y-142387474D01*
X116553269Y-142386867D01*
X116498382Y-142381461D01*
X116436374Y-142375354D01*
X116412152Y-142370536D01*
X116285915Y-142332243D01*
X116263102Y-142322793D01*
X116254487Y-142318188D01*
X116146766Y-142260610D01*
X116126230Y-142246888D01*
X116024261Y-142163204D01*
X116006796Y-142145739D01*
X115923112Y-142043770D01*
X115909389Y-142023232D01*
X115847207Y-141906898D01*
X115837758Y-141884088D01*
X115799462Y-141757844D01*
X115794646Y-141733626D01*
X115783860Y-141624114D01*
X115784078Y-141597523D01*
X115785655Y-141590718D01*
X115785656Y-141590000D01*
X115783654Y-141581225D01*
X115780500Y-141553210D01*
X115780500Y-138627371D01*
X115783755Y-138598918D01*
X115784043Y-138597676D01*
X115784044Y-138597669D01*
X115785655Y-138590718D01*
X115785656Y-138590000D01*
X115785171Y-138587873D01*
X115785431Y-138585612D01*
X115784664Y-138585652D01*
X115780969Y-138515144D01*
X115767335Y-138254998D01*
X115714857Y-137923665D01*
X115628033Y-137599634D01*
X115507815Y-137286453D01*
X115413106Y-137100576D01*
X115357016Y-136990493D01*
X115357012Y-136990486D01*
X115355518Y-136987554D01*
X115172812Y-136706212D01*
X114961699Y-136445509D01*
X114862584Y-136346394D01*
X114828558Y-136284082D01*
X114833623Y-136213267D01*
X114876170Y-136156431D01*
X114942690Y-136131620D01*
X114950484Y-136131305D01*
X116820215Y-136113565D01*
X123393695Y-136051198D01*
X123462001Y-136070553D01*
G37*
%TD.AperFunction*%
%TD*%
M02*
