%TF.GenerationSoftware,KiCad,Pcbnew,6.0.11-2627ca5db0~126~ubuntu22.04.1*%
%TF.CreationDate,2023-06-07T19:59:20+02:00*%
%TF.ProjectId,asac-fc-rev-b,61736163-2d66-4632-9d72-65762d622e6b,B*%
%TF.SameCoordinates,Original*%
%TF.FileFunction,Drillmap*%
%TF.FilePolarity,Positive*%
%FSLAX45Y45*%
G04 Gerber Fmt 4.5, Leading zero omitted, Abs format (unit mm)*
G04 Created by KiCad (PCBNEW 6.0.11-2627ca5db0~126~ubuntu22.04.1) date 2023-06-07 19:59:20*
%MOMM*%
%LPD*%
G01*
G04 APERTURE LIST*
%ADD10C,0.050000*%
%ADD11C,0.200000*%
%ADD12C,0.065000*%
%ADD13C,0.080000*%
G04 APERTURE END LIST*
D10*
X12158000Y-13959000D02*
G75*
G03*
X12058000Y-13859000I-100000J0D01*
G01*
X14208000Y-10209000D02*
G75*
G03*
X13958000Y-9959000I-250000J0D01*
G01*
X12158000Y-14209000D02*
X12158000Y-13959000D01*
X11558000Y-13859000D02*
G75*
G03*
X11258000Y-13559000I-300000J0D01*
G01*
X11258000Y-13559000D02*
X10858000Y-13559000D01*
X11808000Y-14259000D02*
X11658000Y-14259000D01*
X12058000Y-13859000D02*
X11958000Y-13859000D01*
X11043000Y-10234000D02*
G75*
G03*
X11043000Y-10234000I-160000J0D01*
G01*
X10858000Y-9959000D02*
X13958000Y-9959000D01*
X11858000Y-13959000D02*
X11858000Y-14209000D01*
X12958000Y-13959000D02*
X12958000Y-14209000D01*
X12608000Y-14259000D02*
G75*
G03*
X12658000Y-14209000I0J50000D01*
G01*
X11558000Y-14159000D02*
X11558000Y-13859000D01*
X12758000Y-13859000D02*
G75*
G03*
X12658000Y-13959000I0J-100000D01*
G01*
X11043000Y-13284000D02*
G75*
G03*
X11043000Y-13284000I-160000J0D01*
G01*
X14208000Y-10209000D02*
X14208000Y-13309000D01*
X10608000Y-13309000D02*
G75*
G03*
X10858000Y-13559000I250000J0D01*
G01*
X13958000Y-13559000D02*
G75*
G03*
X14208000Y-13309000I0J250000D01*
G01*
X12758000Y-13859000D02*
X12858000Y-13859000D01*
X14093000Y-10234000D02*
G75*
G03*
X14093000Y-10234000I-160000J0D01*
G01*
X13958000Y-13559000D02*
X13558000Y-13559000D01*
X11558000Y-14159000D02*
G75*
G03*
X11658000Y-14259000I100000J0D01*
G01*
X13558000Y-13559000D02*
G75*
G03*
X13258000Y-13859000I0J-300000D01*
G01*
X12958000Y-13959000D02*
G75*
G03*
X12858000Y-13859000I-100000J0D01*
G01*
X12658000Y-14209000D02*
X12658000Y-13959000D01*
X12608000Y-14259000D02*
X12208000Y-14259000D01*
X13158000Y-14259000D02*
X13008000Y-14259000D01*
X10608000Y-13309000D02*
X10608000Y-10209000D01*
X11958000Y-13859000D02*
G75*
G03*
X11858000Y-13959000I0J-100000D01*
G01*
X11808000Y-14259000D02*
G75*
G03*
X11858000Y-14209000I0J50000D01*
G01*
X13258000Y-13859000D02*
X13258000Y-14159000D01*
X12158000Y-14209000D02*
G75*
G03*
X12208000Y-14259000I50000J0D01*
G01*
X13158000Y-14259000D02*
G75*
G03*
X13258000Y-14159000I0J100000D01*
G01*
X12958000Y-14209000D02*
G75*
G03*
X13008000Y-14259000I50000J0D01*
G01*
X14093000Y-13284000D02*
G75*
G03*
X14093000Y-13284000I-160000J0D01*
G01*
X10858000Y-9959000D02*
G75*
G03*
X10608000Y-10209000I0J-250000D01*
G01*
D11*
D12*
X11069750Y-11424500D02*
X11134750Y-11489500D01*
X11134750Y-11424500D02*
X11069750Y-11489500D01*
X11069750Y-12002500D02*
X11134750Y-12067500D01*
X11134750Y-12002500D02*
X11069750Y-12067500D01*
D13*
X14149000Y-11653000D02*
G75*
G03*
X14149000Y-11653000I-40000J0D01*
G01*
X14149000Y-11823000D02*
G75*
G03*
X14149000Y-11823000I-40000J0D01*
G01*
D11*
X10863119Y-14571976D02*
X10863119Y-14371976D01*
X10910738Y-14371976D01*
X10939310Y-14381500D01*
X10958357Y-14400548D01*
X10967881Y-14419595D01*
X10977405Y-14457690D01*
X10977405Y-14486262D01*
X10967881Y-14524357D01*
X10958357Y-14543405D01*
X10939310Y-14562452D01*
X10910738Y-14571976D01*
X10863119Y-14571976D01*
X11063119Y-14571976D02*
X11063119Y-14438643D01*
X11063119Y-14476738D02*
X11072643Y-14457690D01*
X11082167Y-14448167D01*
X11101214Y-14438643D01*
X11120262Y-14438643D01*
X11186928Y-14571976D02*
X11186928Y-14438643D01*
X11186928Y-14371976D02*
X11177405Y-14381500D01*
X11186928Y-14391024D01*
X11196452Y-14381500D01*
X11186928Y-14371976D01*
X11186928Y-14391024D01*
X11310738Y-14571976D02*
X11291690Y-14562452D01*
X11282167Y-14543405D01*
X11282167Y-14371976D01*
X11415500Y-14571976D02*
X11396452Y-14562452D01*
X11386928Y-14543405D01*
X11386928Y-14371976D01*
X11644071Y-14571976D02*
X11644071Y-14371976D01*
X11710738Y-14514833D01*
X11777405Y-14371976D01*
X11777405Y-14571976D01*
X11958357Y-14571976D02*
X11958357Y-14467214D01*
X11948833Y-14448167D01*
X11929786Y-14438643D01*
X11891690Y-14438643D01*
X11872643Y-14448167D01*
X11958357Y-14562452D02*
X11939309Y-14571976D01*
X11891690Y-14571976D01*
X11872643Y-14562452D01*
X11863119Y-14543405D01*
X11863119Y-14524357D01*
X11872643Y-14505309D01*
X11891690Y-14495786D01*
X11939309Y-14495786D01*
X11958357Y-14486262D01*
X12053595Y-14438643D02*
X12053595Y-14638643D01*
X12053595Y-14448167D02*
X12072643Y-14438643D01*
X12110738Y-14438643D01*
X12129786Y-14448167D01*
X12139309Y-14457690D01*
X12148833Y-14476738D01*
X12148833Y-14533881D01*
X12139309Y-14552928D01*
X12129786Y-14562452D01*
X12110738Y-14571976D01*
X12072643Y-14571976D01*
X12053595Y-14562452D01*
X12234548Y-14552928D02*
X12244071Y-14562452D01*
X12234548Y-14571976D01*
X12225024Y-14562452D01*
X12234548Y-14552928D01*
X12234548Y-14571976D01*
X12234548Y-14448167D02*
X12244071Y-14457690D01*
X12234548Y-14467214D01*
X12225024Y-14457690D01*
X12234548Y-14448167D01*
X12234548Y-14467214D01*
D12*
X10540500Y-14869000D02*
X10605500Y-14934000D01*
X10605500Y-14869000D02*
X10540500Y-14934000D01*
D11*
X10901214Y-14791976D02*
X10920262Y-14791976D01*
X10939310Y-14801500D01*
X10948833Y-14811024D01*
X10958357Y-14830071D01*
X10967881Y-14868167D01*
X10967881Y-14915786D01*
X10958357Y-14953881D01*
X10948833Y-14972928D01*
X10939310Y-14982452D01*
X10920262Y-14991976D01*
X10901214Y-14991976D01*
X10882167Y-14982452D01*
X10872643Y-14972928D01*
X10863119Y-14953881D01*
X10853595Y-14915786D01*
X10853595Y-14868167D01*
X10863119Y-14830071D01*
X10872643Y-14811024D01*
X10882167Y-14801500D01*
X10901214Y-14791976D01*
X11053595Y-14972928D02*
X11063119Y-14982452D01*
X11053595Y-14991976D01*
X11044071Y-14982452D01*
X11053595Y-14972928D01*
X11053595Y-14991976D01*
X11234548Y-14791976D02*
X11196452Y-14791976D01*
X11177405Y-14801500D01*
X11167881Y-14811024D01*
X11148833Y-14839595D01*
X11139310Y-14877690D01*
X11139310Y-14953881D01*
X11148833Y-14972928D01*
X11158357Y-14982452D01*
X11177405Y-14991976D01*
X11215500Y-14991976D01*
X11234548Y-14982452D01*
X11244071Y-14972928D01*
X11253595Y-14953881D01*
X11253595Y-14906262D01*
X11244071Y-14887214D01*
X11234548Y-14877690D01*
X11215500Y-14868167D01*
X11177405Y-14868167D01*
X11158357Y-14877690D01*
X11148833Y-14887214D01*
X11139310Y-14906262D01*
X11434548Y-14791976D02*
X11339309Y-14791976D01*
X11329786Y-14887214D01*
X11339309Y-14877690D01*
X11358357Y-14868167D01*
X11405976Y-14868167D01*
X11425024Y-14877690D01*
X11434548Y-14887214D01*
X11444071Y-14906262D01*
X11444071Y-14953881D01*
X11434548Y-14972928D01*
X11425024Y-14982452D01*
X11405976Y-14991976D01*
X11358357Y-14991976D01*
X11339309Y-14982452D01*
X11329786Y-14972928D01*
X11567881Y-14791976D02*
X11586928Y-14791976D01*
X11605976Y-14801500D01*
X11615500Y-14811024D01*
X11625024Y-14830071D01*
X11634548Y-14868167D01*
X11634548Y-14915786D01*
X11625024Y-14953881D01*
X11615500Y-14972928D01*
X11605976Y-14982452D01*
X11586928Y-14991976D01*
X11567881Y-14991976D01*
X11548833Y-14982452D01*
X11539309Y-14972928D01*
X11529786Y-14953881D01*
X11520262Y-14915786D01*
X11520262Y-14868167D01*
X11529786Y-14830071D01*
X11539309Y-14811024D01*
X11548833Y-14801500D01*
X11567881Y-14791976D01*
X11720262Y-14991976D02*
X11720262Y-14858643D01*
X11720262Y-14877690D02*
X11729786Y-14868167D01*
X11748833Y-14858643D01*
X11777405Y-14858643D01*
X11796452Y-14868167D01*
X11805976Y-14887214D01*
X11805976Y-14991976D01*
X11805976Y-14887214D02*
X11815500Y-14868167D01*
X11834548Y-14858643D01*
X11863119Y-14858643D01*
X11882167Y-14868167D01*
X11891690Y-14887214D01*
X11891690Y-14991976D01*
X11986928Y-14991976D02*
X11986928Y-14858643D01*
X11986928Y-14877690D02*
X11996452Y-14868167D01*
X12015500Y-14858643D01*
X12044071Y-14858643D01*
X12063119Y-14868167D01*
X12072643Y-14887214D01*
X12072643Y-14991976D01*
X12072643Y-14887214D02*
X12082167Y-14868167D01*
X12101214Y-14858643D01*
X12129786Y-14858643D01*
X12148833Y-14868167D01*
X12158357Y-14887214D01*
X12158357Y-14991976D01*
X12548833Y-14782452D02*
X12377405Y-15039595D01*
X12805976Y-14791976D02*
X12825024Y-14791976D01*
X12844071Y-14801500D01*
X12853595Y-14811024D01*
X12863119Y-14830071D01*
X12872643Y-14868167D01*
X12872643Y-14915786D01*
X12863119Y-14953881D01*
X12853595Y-14972928D01*
X12844071Y-14982452D01*
X12825024Y-14991976D01*
X12805976Y-14991976D01*
X12786928Y-14982452D01*
X12777405Y-14972928D01*
X12767881Y-14953881D01*
X12758357Y-14915786D01*
X12758357Y-14868167D01*
X12767881Y-14830071D01*
X12777405Y-14811024D01*
X12786928Y-14801500D01*
X12805976Y-14791976D01*
X12958357Y-14972928D02*
X12967881Y-14982452D01*
X12958357Y-14991976D01*
X12948833Y-14982452D01*
X12958357Y-14972928D01*
X12958357Y-14991976D01*
X13091690Y-14791976D02*
X13110738Y-14791976D01*
X13129786Y-14801500D01*
X13139309Y-14811024D01*
X13148833Y-14830071D01*
X13158357Y-14868167D01*
X13158357Y-14915786D01*
X13148833Y-14953881D01*
X13139309Y-14972928D01*
X13129786Y-14982452D01*
X13110738Y-14991976D01*
X13091690Y-14991976D01*
X13072643Y-14982452D01*
X13063119Y-14972928D01*
X13053595Y-14953881D01*
X13044071Y-14915786D01*
X13044071Y-14868167D01*
X13053595Y-14830071D01*
X13063119Y-14811024D01*
X13072643Y-14801500D01*
X13091690Y-14791976D01*
X13234548Y-14811024D02*
X13244071Y-14801500D01*
X13263119Y-14791976D01*
X13310738Y-14791976D01*
X13329786Y-14801500D01*
X13339309Y-14811024D01*
X13348833Y-14830071D01*
X13348833Y-14849119D01*
X13339309Y-14877690D01*
X13225024Y-14991976D01*
X13348833Y-14991976D01*
X13529786Y-14791976D02*
X13434548Y-14791976D01*
X13425024Y-14887214D01*
X13434548Y-14877690D01*
X13453595Y-14868167D01*
X13501214Y-14868167D01*
X13520262Y-14877690D01*
X13529786Y-14887214D01*
X13539309Y-14906262D01*
X13539309Y-14953881D01*
X13529786Y-14972928D01*
X13520262Y-14982452D01*
X13501214Y-14991976D01*
X13453595Y-14991976D01*
X13434548Y-14982452D01*
X13425024Y-14972928D01*
X13710738Y-14791976D02*
X13672643Y-14791976D01*
X13653595Y-14801500D01*
X13644071Y-14811024D01*
X13625024Y-14839595D01*
X13615500Y-14877690D01*
X13615500Y-14953881D01*
X13625024Y-14972928D01*
X13634548Y-14982452D01*
X13653595Y-14991976D01*
X13691690Y-14991976D01*
X13710738Y-14982452D01*
X13720262Y-14972928D01*
X13729786Y-14953881D01*
X13729786Y-14906262D01*
X13720262Y-14887214D01*
X13710738Y-14877690D01*
X13691690Y-14868167D01*
X13653595Y-14868167D01*
X13634548Y-14877690D01*
X13625024Y-14887214D01*
X13615500Y-14906262D01*
X13805976Y-14791976D02*
X13805976Y-14830071D01*
X13882167Y-14791976D02*
X13882167Y-14830071D01*
X14177405Y-15068167D02*
X14167881Y-15058643D01*
X14148833Y-15030071D01*
X14139309Y-15011024D01*
X14129786Y-14982452D01*
X14120262Y-14934833D01*
X14120262Y-14896738D01*
X14129786Y-14849119D01*
X14139309Y-14820548D01*
X14148833Y-14801500D01*
X14167881Y-14772928D01*
X14177405Y-14763405D01*
X14244071Y-14811024D02*
X14253595Y-14801500D01*
X14272643Y-14791976D01*
X14320262Y-14791976D01*
X14339309Y-14801500D01*
X14348833Y-14811024D01*
X14358357Y-14830071D01*
X14358357Y-14849119D01*
X14348833Y-14877690D01*
X14234548Y-14991976D01*
X14358357Y-14991976D01*
X14596452Y-14991976D02*
X14596452Y-14791976D01*
X14682167Y-14991976D02*
X14682167Y-14887214D01*
X14672643Y-14868167D01*
X14653595Y-14858643D01*
X14625024Y-14858643D01*
X14605976Y-14868167D01*
X14596452Y-14877690D01*
X14805976Y-14991976D02*
X14786928Y-14982452D01*
X14777405Y-14972928D01*
X14767881Y-14953881D01*
X14767881Y-14896738D01*
X14777405Y-14877690D01*
X14786928Y-14868167D01*
X14805976Y-14858643D01*
X14834548Y-14858643D01*
X14853595Y-14868167D01*
X14863119Y-14877690D01*
X14872643Y-14896738D01*
X14872643Y-14953881D01*
X14863119Y-14972928D01*
X14853595Y-14982452D01*
X14834548Y-14991976D01*
X14805976Y-14991976D01*
X14986928Y-14991976D02*
X14967881Y-14982452D01*
X14958357Y-14963405D01*
X14958357Y-14791976D01*
X15139309Y-14982452D02*
X15120262Y-14991976D01*
X15082167Y-14991976D01*
X15063119Y-14982452D01*
X15053595Y-14963405D01*
X15053595Y-14887214D01*
X15063119Y-14868167D01*
X15082167Y-14858643D01*
X15120262Y-14858643D01*
X15139309Y-14868167D01*
X15148833Y-14887214D01*
X15148833Y-14906262D01*
X15053595Y-14925309D01*
X15225024Y-14982452D02*
X15244071Y-14991976D01*
X15282167Y-14991976D01*
X15301214Y-14982452D01*
X15310738Y-14963405D01*
X15310738Y-14953881D01*
X15301214Y-14934833D01*
X15282167Y-14925309D01*
X15253595Y-14925309D01*
X15234548Y-14915786D01*
X15225024Y-14896738D01*
X15225024Y-14887214D01*
X15234548Y-14868167D01*
X15253595Y-14858643D01*
X15282167Y-14858643D01*
X15301214Y-14868167D01*
X15377405Y-15068167D02*
X15386928Y-15058643D01*
X15405976Y-15030071D01*
X15415500Y-15011024D01*
X15425024Y-14982452D01*
X15434548Y-14934833D01*
X15434548Y-14896738D01*
X15425024Y-14849119D01*
X15415500Y-14820548D01*
X15405976Y-14801500D01*
X15386928Y-14772928D01*
X15377405Y-14763405D01*
X15739309Y-15068167D02*
X15729786Y-15058643D01*
X15710738Y-15030071D01*
X15701214Y-15011024D01*
X15691690Y-14982452D01*
X15682167Y-14934833D01*
X15682167Y-14896738D01*
X15691690Y-14849119D01*
X15701214Y-14820548D01*
X15710738Y-14801500D01*
X15729786Y-14772928D01*
X15739309Y-14763405D01*
X15815500Y-14858643D02*
X15815500Y-14991976D01*
X15815500Y-14877690D02*
X15825024Y-14868167D01*
X15844071Y-14858643D01*
X15872643Y-14858643D01*
X15891690Y-14868167D01*
X15901214Y-14887214D01*
X15901214Y-14991976D01*
X16025024Y-14991976D02*
X16005976Y-14982452D01*
X15996452Y-14972928D01*
X15986928Y-14953881D01*
X15986928Y-14896738D01*
X15996452Y-14877690D01*
X16005976Y-14868167D01*
X16025024Y-14858643D01*
X16053595Y-14858643D01*
X16072643Y-14868167D01*
X16082167Y-14877690D01*
X16091690Y-14896738D01*
X16091690Y-14953881D01*
X16082167Y-14972928D01*
X16072643Y-14982452D01*
X16053595Y-14991976D01*
X16025024Y-14991976D01*
X16148833Y-14858643D02*
X16225024Y-14858643D01*
X16177405Y-14791976D02*
X16177405Y-14963405D01*
X16186928Y-14982452D01*
X16205976Y-14991976D01*
X16225024Y-14991976D01*
X16444071Y-14858643D02*
X16444071Y-15058643D01*
X16444071Y-14868167D02*
X16463119Y-14858643D01*
X16501214Y-14858643D01*
X16520262Y-14868167D01*
X16529786Y-14877690D01*
X16539309Y-14896738D01*
X16539309Y-14953881D01*
X16529786Y-14972928D01*
X16520262Y-14982452D01*
X16501214Y-14991976D01*
X16463119Y-14991976D01*
X16444071Y-14982452D01*
X16653595Y-14991976D02*
X16634548Y-14982452D01*
X16625024Y-14963405D01*
X16625024Y-14791976D01*
X16815500Y-14991976D02*
X16815500Y-14887214D01*
X16805976Y-14868167D01*
X16786929Y-14858643D01*
X16748833Y-14858643D01*
X16729786Y-14868167D01*
X16815500Y-14982452D02*
X16796452Y-14991976D01*
X16748833Y-14991976D01*
X16729786Y-14982452D01*
X16720262Y-14963405D01*
X16720262Y-14944357D01*
X16729786Y-14925309D01*
X16748833Y-14915786D01*
X16796452Y-14915786D01*
X16815500Y-14906262D01*
X16882167Y-14858643D02*
X16958357Y-14858643D01*
X16910738Y-14791976D02*
X16910738Y-14963405D01*
X16920262Y-14982452D01*
X16939310Y-14991976D01*
X16958357Y-14991976D01*
X17101214Y-14982452D02*
X17082167Y-14991976D01*
X17044071Y-14991976D01*
X17025024Y-14982452D01*
X17015500Y-14963405D01*
X17015500Y-14887214D01*
X17025024Y-14868167D01*
X17044071Y-14858643D01*
X17082167Y-14858643D01*
X17101214Y-14868167D01*
X17110738Y-14887214D01*
X17110738Y-14906262D01*
X17015500Y-14925309D01*
X17282167Y-14991976D02*
X17282167Y-14791976D01*
X17282167Y-14982452D02*
X17263119Y-14991976D01*
X17225024Y-14991976D01*
X17205976Y-14982452D01*
X17196452Y-14972928D01*
X17186929Y-14953881D01*
X17186929Y-14896738D01*
X17196452Y-14877690D01*
X17205976Y-14868167D01*
X17225024Y-14858643D01*
X17263119Y-14858643D01*
X17282167Y-14868167D01*
X17358357Y-15068167D02*
X17367881Y-15058643D01*
X17386929Y-15030071D01*
X17396452Y-15011024D01*
X17405976Y-14982452D01*
X17415500Y-14934833D01*
X17415500Y-14896738D01*
X17405976Y-14849119D01*
X17396452Y-14820548D01*
X17386929Y-14801500D01*
X17367881Y-14772928D01*
X17358357Y-14763405D01*
D13*
X10605500Y-15165500D02*
G75*
G03*
X10605500Y-15165500I-40000J0D01*
G01*
D11*
X10901214Y-15055976D02*
X10920262Y-15055976D01*
X10939310Y-15065500D01*
X10948833Y-15075024D01*
X10958357Y-15094071D01*
X10967881Y-15132167D01*
X10967881Y-15179786D01*
X10958357Y-15217881D01*
X10948833Y-15236928D01*
X10939310Y-15246452D01*
X10920262Y-15255976D01*
X10901214Y-15255976D01*
X10882167Y-15246452D01*
X10872643Y-15236928D01*
X10863119Y-15217881D01*
X10853595Y-15179786D01*
X10853595Y-15132167D01*
X10863119Y-15094071D01*
X10872643Y-15075024D01*
X10882167Y-15065500D01*
X10901214Y-15055976D01*
X11053595Y-15236928D02*
X11063119Y-15246452D01*
X11053595Y-15255976D01*
X11044071Y-15246452D01*
X11053595Y-15236928D01*
X11053595Y-15255976D01*
X11177405Y-15141690D02*
X11158357Y-15132167D01*
X11148833Y-15122643D01*
X11139310Y-15103595D01*
X11139310Y-15094071D01*
X11148833Y-15075024D01*
X11158357Y-15065500D01*
X11177405Y-15055976D01*
X11215500Y-15055976D01*
X11234548Y-15065500D01*
X11244071Y-15075024D01*
X11253595Y-15094071D01*
X11253595Y-15103595D01*
X11244071Y-15122643D01*
X11234548Y-15132167D01*
X11215500Y-15141690D01*
X11177405Y-15141690D01*
X11158357Y-15151214D01*
X11148833Y-15160738D01*
X11139310Y-15179786D01*
X11139310Y-15217881D01*
X11148833Y-15236928D01*
X11158357Y-15246452D01*
X11177405Y-15255976D01*
X11215500Y-15255976D01*
X11234548Y-15246452D01*
X11244071Y-15236928D01*
X11253595Y-15217881D01*
X11253595Y-15179786D01*
X11244071Y-15160738D01*
X11234548Y-15151214D01*
X11215500Y-15141690D01*
X11377405Y-15055976D02*
X11396452Y-15055976D01*
X11415500Y-15065500D01*
X11425024Y-15075024D01*
X11434548Y-15094071D01*
X11444071Y-15132167D01*
X11444071Y-15179786D01*
X11434548Y-15217881D01*
X11425024Y-15236928D01*
X11415500Y-15246452D01*
X11396452Y-15255976D01*
X11377405Y-15255976D01*
X11358357Y-15246452D01*
X11348833Y-15236928D01*
X11339309Y-15217881D01*
X11329786Y-15179786D01*
X11329786Y-15132167D01*
X11339309Y-15094071D01*
X11348833Y-15075024D01*
X11358357Y-15065500D01*
X11377405Y-15055976D01*
X11567881Y-15055976D02*
X11586928Y-15055976D01*
X11605976Y-15065500D01*
X11615500Y-15075024D01*
X11625024Y-15094071D01*
X11634548Y-15132167D01*
X11634548Y-15179786D01*
X11625024Y-15217881D01*
X11615500Y-15236928D01*
X11605976Y-15246452D01*
X11586928Y-15255976D01*
X11567881Y-15255976D01*
X11548833Y-15246452D01*
X11539309Y-15236928D01*
X11529786Y-15217881D01*
X11520262Y-15179786D01*
X11520262Y-15132167D01*
X11529786Y-15094071D01*
X11539309Y-15075024D01*
X11548833Y-15065500D01*
X11567881Y-15055976D01*
X11720262Y-15255976D02*
X11720262Y-15122643D01*
X11720262Y-15141690D02*
X11729786Y-15132167D01*
X11748833Y-15122643D01*
X11777405Y-15122643D01*
X11796452Y-15132167D01*
X11805976Y-15151214D01*
X11805976Y-15255976D01*
X11805976Y-15151214D02*
X11815500Y-15132167D01*
X11834548Y-15122643D01*
X11863119Y-15122643D01*
X11882167Y-15132167D01*
X11891690Y-15151214D01*
X11891690Y-15255976D01*
X11986928Y-15255976D02*
X11986928Y-15122643D01*
X11986928Y-15141690D02*
X11996452Y-15132167D01*
X12015500Y-15122643D01*
X12044071Y-15122643D01*
X12063119Y-15132167D01*
X12072643Y-15151214D01*
X12072643Y-15255976D01*
X12072643Y-15151214D02*
X12082167Y-15132167D01*
X12101214Y-15122643D01*
X12129786Y-15122643D01*
X12148833Y-15132167D01*
X12158357Y-15151214D01*
X12158357Y-15255976D01*
X12548833Y-15046452D02*
X12377405Y-15303595D01*
X12805976Y-15055976D02*
X12825024Y-15055976D01*
X12844071Y-15065500D01*
X12853595Y-15075024D01*
X12863119Y-15094071D01*
X12872643Y-15132167D01*
X12872643Y-15179786D01*
X12863119Y-15217881D01*
X12853595Y-15236928D01*
X12844071Y-15246452D01*
X12825024Y-15255976D01*
X12805976Y-15255976D01*
X12786928Y-15246452D01*
X12777405Y-15236928D01*
X12767881Y-15217881D01*
X12758357Y-15179786D01*
X12758357Y-15132167D01*
X12767881Y-15094071D01*
X12777405Y-15075024D01*
X12786928Y-15065500D01*
X12805976Y-15055976D01*
X12958357Y-15236928D02*
X12967881Y-15246452D01*
X12958357Y-15255976D01*
X12948833Y-15246452D01*
X12958357Y-15236928D01*
X12958357Y-15255976D01*
X13091690Y-15055976D02*
X13110738Y-15055976D01*
X13129786Y-15065500D01*
X13139309Y-15075024D01*
X13148833Y-15094071D01*
X13158357Y-15132167D01*
X13158357Y-15179786D01*
X13148833Y-15217881D01*
X13139309Y-15236928D01*
X13129786Y-15246452D01*
X13110738Y-15255976D01*
X13091690Y-15255976D01*
X13072643Y-15246452D01*
X13063119Y-15236928D01*
X13053595Y-15217881D01*
X13044071Y-15179786D01*
X13044071Y-15132167D01*
X13053595Y-15094071D01*
X13063119Y-15075024D01*
X13072643Y-15065500D01*
X13091690Y-15055976D01*
X13225024Y-15055976D02*
X13348833Y-15055976D01*
X13282167Y-15132167D01*
X13310738Y-15132167D01*
X13329786Y-15141690D01*
X13339309Y-15151214D01*
X13348833Y-15170262D01*
X13348833Y-15217881D01*
X13339309Y-15236928D01*
X13329786Y-15246452D01*
X13310738Y-15255976D01*
X13253595Y-15255976D01*
X13234548Y-15246452D01*
X13225024Y-15236928D01*
X13539309Y-15255976D02*
X13425024Y-15255976D01*
X13482167Y-15255976D02*
X13482167Y-15055976D01*
X13463119Y-15084548D01*
X13444071Y-15103595D01*
X13425024Y-15113119D01*
X13720262Y-15055976D02*
X13625024Y-15055976D01*
X13615500Y-15151214D01*
X13625024Y-15141690D01*
X13644071Y-15132167D01*
X13691690Y-15132167D01*
X13710738Y-15141690D01*
X13720262Y-15151214D01*
X13729786Y-15170262D01*
X13729786Y-15217881D01*
X13720262Y-15236928D01*
X13710738Y-15246452D01*
X13691690Y-15255976D01*
X13644071Y-15255976D01*
X13625024Y-15246452D01*
X13615500Y-15236928D01*
X13805976Y-15055976D02*
X13805976Y-15094071D01*
X13882167Y-15055976D02*
X13882167Y-15094071D01*
X14177405Y-15332167D02*
X14167881Y-15322643D01*
X14148833Y-15294071D01*
X14139309Y-15275024D01*
X14129786Y-15246452D01*
X14120262Y-15198833D01*
X14120262Y-15160738D01*
X14129786Y-15113119D01*
X14139309Y-15084548D01*
X14148833Y-15065500D01*
X14167881Y-15036928D01*
X14177405Y-15027405D01*
X14244071Y-15075024D02*
X14253595Y-15065500D01*
X14272643Y-15055976D01*
X14320262Y-15055976D01*
X14339309Y-15065500D01*
X14348833Y-15075024D01*
X14358357Y-15094071D01*
X14358357Y-15113119D01*
X14348833Y-15141690D01*
X14234548Y-15255976D01*
X14358357Y-15255976D01*
X14596452Y-15255976D02*
X14596452Y-15055976D01*
X14682167Y-15255976D02*
X14682167Y-15151214D01*
X14672643Y-15132167D01*
X14653595Y-15122643D01*
X14625024Y-15122643D01*
X14605976Y-15132167D01*
X14596452Y-15141690D01*
X14805976Y-15255976D02*
X14786928Y-15246452D01*
X14777405Y-15236928D01*
X14767881Y-15217881D01*
X14767881Y-15160738D01*
X14777405Y-15141690D01*
X14786928Y-15132167D01*
X14805976Y-15122643D01*
X14834548Y-15122643D01*
X14853595Y-15132167D01*
X14863119Y-15141690D01*
X14872643Y-15160738D01*
X14872643Y-15217881D01*
X14863119Y-15236928D01*
X14853595Y-15246452D01*
X14834548Y-15255976D01*
X14805976Y-15255976D01*
X14986928Y-15255976D02*
X14967881Y-15246452D01*
X14958357Y-15227405D01*
X14958357Y-15055976D01*
X15139309Y-15246452D02*
X15120262Y-15255976D01*
X15082167Y-15255976D01*
X15063119Y-15246452D01*
X15053595Y-15227405D01*
X15053595Y-15151214D01*
X15063119Y-15132167D01*
X15082167Y-15122643D01*
X15120262Y-15122643D01*
X15139309Y-15132167D01*
X15148833Y-15151214D01*
X15148833Y-15170262D01*
X15053595Y-15189309D01*
X15225024Y-15246452D02*
X15244071Y-15255976D01*
X15282167Y-15255976D01*
X15301214Y-15246452D01*
X15310738Y-15227405D01*
X15310738Y-15217881D01*
X15301214Y-15198833D01*
X15282167Y-15189309D01*
X15253595Y-15189309D01*
X15234548Y-15179786D01*
X15225024Y-15160738D01*
X15225024Y-15151214D01*
X15234548Y-15132167D01*
X15253595Y-15122643D01*
X15282167Y-15122643D01*
X15301214Y-15132167D01*
X15377405Y-15332167D02*
X15386928Y-15322643D01*
X15405976Y-15294071D01*
X15415500Y-15275024D01*
X15425024Y-15246452D01*
X15434548Y-15198833D01*
X15434548Y-15160738D01*
X15425024Y-15113119D01*
X15415500Y-15084548D01*
X15405976Y-15065500D01*
X15386928Y-15036928D01*
X15377405Y-15027405D01*
X15739309Y-15332167D02*
X15729786Y-15322643D01*
X15710738Y-15294071D01*
X15701214Y-15275024D01*
X15691690Y-15246452D01*
X15682167Y-15198833D01*
X15682167Y-15160738D01*
X15691690Y-15113119D01*
X15701214Y-15084548D01*
X15710738Y-15065500D01*
X15729786Y-15036928D01*
X15739309Y-15027405D01*
X15815500Y-15122643D02*
X15815500Y-15255976D01*
X15815500Y-15141690D02*
X15825024Y-15132167D01*
X15844071Y-15122643D01*
X15872643Y-15122643D01*
X15891690Y-15132167D01*
X15901214Y-15151214D01*
X15901214Y-15255976D01*
X16025024Y-15255976D02*
X16005976Y-15246452D01*
X15996452Y-15236928D01*
X15986928Y-15217881D01*
X15986928Y-15160738D01*
X15996452Y-15141690D01*
X16005976Y-15132167D01*
X16025024Y-15122643D01*
X16053595Y-15122643D01*
X16072643Y-15132167D01*
X16082167Y-15141690D01*
X16091690Y-15160738D01*
X16091690Y-15217881D01*
X16082167Y-15236928D01*
X16072643Y-15246452D01*
X16053595Y-15255976D01*
X16025024Y-15255976D01*
X16148833Y-15122643D02*
X16225024Y-15122643D01*
X16177405Y-15055976D02*
X16177405Y-15227405D01*
X16186928Y-15246452D01*
X16205976Y-15255976D01*
X16225024Y-15255976D01*
X16444071Y-15122643D02*
X16444071Y-15322643D01*
X16444071Y-15132167D02*
X16463119Y-15122643D01*
X16501214Y-15122643D01*
X16520262Y-15132167D01*
X16529786Y-15141690D01*
X16539309Y-15160738D01*
X16539309Y-15217881D01*
X16529786Y-15236928D01*
X16520262Y-15246452D01*
X16501214Y-15255976D01*
X16463119Y-15255976D01*
X16444071Y-15246452D01*
X16653595Y-15255976D02*
X16634548Y-15246452D01*
X16625024Y-15227405D01*
X16625024Y-15055976D01*
X16815500Y-15255976D02*
X16815500Y-15151214D01*
X16805976Y-15132167D01*
X16786929Y-15122643D01*
X16748833Y-15122643D01*
X16729786Y-15132167D01*
X16815500Y-15246452D02*
X16796452Y-15255976D01*
X16748833Y-15255976D01*
X16729786Y-15246452D01*
X16720262Y-15227405D01*
X16720262Y-15208357D01*
X16729786Y-15189309D01*
X16748833Y-15179786D01*
X16796452Y-15179786D01*
X16815500Y-15170262D01*
X16882167Y-15122643D02*
X16958357Y-15122643D01*
X16910738Y-15055976D02*
X16910738Y-15227405D01*
X16920262Y-15246452D01*
X16939310Y-15255976D01*
X16958357Y-15255976D01*
X17101214Y-15246452D02*
X17082167Y-15255976D01*
X17044071Y-15255976D01*
X17025024Y-15246452D01*
X17015500Y-15227405D01*
X17015500Y-15151214D01*
X17025024Y-15132167D01*
X17044071Y-15122643D01*
X17082167Y-15122643D01*
X17101214Y-15132167D01*
X17110738Y-15151214D01*
X17110738Y-15170262D01*
X17015500Y-15189309D01*
X17282167Y-15255976D02*
X17282167Y-15055976D01*
X17282167Y-15246452D02*
X17263119Y-15255976D01*
X17225024Y-15255976D01*
X17205976Y-15246452D01*
X17196452Y-15236928D01*
X17186929Y-15217881D01*
X17186929Y-15160738D01*
X17196452Y-15141690D01*
X17205976Y-15132167D01*
X17225024Y-15122643D01*
X17263119Y-15122643D01*
X17282167Y-15132167D01*
X17358357Y-15332167D02*
X17367881Y-15322643D01*
X17386929Y-15294071D01*
X17396452Y-15275024D01*
X17405976Y-15246452D01*
X17415500Y-15198833D01*
X17415500Y-15160738D01*
X17405976Y-15113119D01*
X17396452Y-15084548D01*
X17386929Y-15065500D01*
X17367881Y-15036928D01*
X17358357Y-15027405D01*
M02*
