M48
; DRILL file {KiCad 6.0.11-2627ca5db0~126~ubuntu22.04.1} date ons  7 jun 2023 19:59:19
; FORMAT={-:-/ absolute / inch / decimal}
; #@! TF.CreationDate,2023-06-07T19:59:19+02:00
; #@! TF.GenerationSoftware,Kicad,Pcbnew,6.0.11-2627ca5db0~126~ubuntu22.04.1
; #@! TF.FileFunction,Plated,1,4,PTH
FMAT,2
INCH
; #@! TA.AperFunction,Plated,PTH,ViaDrill
T1C0.0118
; #@! TA.AperFunction,Plated,PTH,ComponentDrill
T2C0.0118
; #@! TA.AperFunction,Plated,PTH,ViaDrill
T3C0.0157
; #@! TA.AperFunction,Plated,PTH,ComponentDrill
T4C0.0197
; #@! TA.AperFunction,Plated,PTH,ComponentDrill
T5C0.0236
; #@! TA.AperFunction,Plated,PTH,ComponentDrill
T6C0.0256
; #@! TA.AperFunction,Plated,PTH,ComponentDrill
T7C0.0354
%
G90
G05
T1
X4.659Y-4.7736
X4.6716Y-4.8024
X4.6994Y-4.8173
X4.7271Y-4.8339
X4.7536Y-4.8567
X4.7834Y-4.8466
T2
X4.2027Y-4.1369
X4.2027Y-4.1645
X4.2027Y-4.192
X4.2027Y-4.3101
X4.2027Y-4.3377
X4.2027Y-4.3653
X4.2037Y-4.8799
X4.2037Y-4.9075
X4.2037Y-4.935
X4.2037Y-5.0531
X4.2037Y-5.0807
X4.2037Y-5.1083
X4.2342Y-4.1369
X4.2342Y-4.1645
X4.2342Y-4.192
X4.2342Y-4.3101
X4.2342Y-4.3377
X4.2342Y-4.3653
X4.2352Y-4.8799
X4.2352Y-4.9075
X4.2352Y-4.935
X4.2352Y-5.0531
X4.2352Y-5.0807
X4.2352Y-5.1083
X4.2657Y-4.1369
X4.2657Y-4.1645
X4.2657Y-4.192
X4.2657Y-4.3101
X4.2657Y-4.3377
X4.2657Y-4.3653
X4.2667Y-4.8799
X4.2667Y-4.9075
X4.2667Y-4.935
X4.2667Y-5.0531
X4.2667Y-5.0807
X4.2667Y-5.1083
X5.503Y-4.8799
X5.503Y-4.9075
X5.503Y-4.935
X5.503Y-5.0531
X5.503Y-5.0807
X5.503Y-5.1083
X5.5047Y-4.1417
X5.5047Y-4.1693
X5.5047Y-4.1969
X5.5047Y-4.315
X5.5047Y-4.3425
X5.5047Y-4.3701
X5.5344Y-4.8799
X5.5344Y-4.9075
X5.5344Y-4.935
X5.5344Y-5.0531
X5.5344Y-5.0807
X5.5344Y-5.1083
X5.5362Y-4.1417
X5.5362Y-4.1693
X5.5362Y-4.1969
X5.5362Y-4.315
X5.5362Y-4.3425
X5.5362Y-4.3701
X5.5659Y-4.8799
X5.5659Y-4.9075
X5.5659Y-4.935
X5.5659Y-5.0531
X5.5659Y-5.0807
X5.5659Y-5.1083
X5.5677Y-4.1417
X5.5677Y-4.1693
X5.5677Y-4.1969
X5.5677Y-4.315
X5.5677Y-4.3425
X5.5677Y-4.3701
T3
X4.2744Y-4.6256
X4.3193Y-4.6858
X4.3417Y-4.5481
X4.3455Y-4.5872
X4.3472Y-4.6323
X4.3898Y-4.2126
X4.3898Y-4.2717
X4.4488Y-4.2126
X4.4488Y-4.2717
X4.4617Y-4.7703
X4.4654Y-4.7185
X4.4697Y-4.4953
X4.4792Y-4.8701
X4.5079Y-4.2126
X4.531Y-4.5962
X4.5551Y-5.289
X4.5669Y-4.2126
X4.573Y-4.4746
X4.5748Y-5.378
X4.5748Y-5.4252
X4.589Y-4.2661
X4.5945Y-5.4724
X4.5945Y-5.5236
X4.5945Y-5.5709
X4.6024Y-4.4425
X4.626Y-5.378
X4.626Y-5.4252
X4.636Y-4.5761
X4.6387Y-4.6193
X4.6655Y-4.55
X4.6772Y-5.378
X4.6772Y-5.4252
X4.7071Y-4.4224
X4.7283Y-5.378
X4.7283Y-5.4252
X4.7779Y-4.2583
X4.7835Y-5.378
X4.7835Y-5.4252
X4.7846Y-4.4768
X4.7867Y-4.3575
X4.8Y-4.6094
X4.8039Y-4.4173
X4.8094Y-4.2307
X4.8188Y-5.076
X4.8189Y-4.6693
X4.8346Y-5.378
X4.8346Y-5.4252
X4.8346Y-5.4764
X4.8346Y-5.5276
X4.8346Y-5.5748
X4.837Y-4.8772
X4.8465Y-4.6417
X4.8642Y-4.3339
X4.8654Y-4.4732
X4.8659Y-5.0782
X4.8723Y-4.9667
X4.874Y-4.6142
X4.9087Y-4.5728
X4.9146Y-4.2228
X4.9209Y-4.8925
X4.9224Y-4.4358
X4.9229Y-4.3935
X4.9331Y-5.378
X4.9331Y-5.4252
X4.937Y-5.4843
X4.937Y-5.5315
X4.937Y-5.5787
X4.9504Y-5.1492
X4.9558Y-4.415
X4.9649Y-5.019
X4.9748Y-4.322
X4.9803Y-5.378
X4.9803Y-5.4252
X4.998Y-4.8404
X5.0029Y-4.1212
X5.0172Y-4.9848
X5.0192Y-4.8073
X5.0276Y-5.378
X5.0276Y-5.4252
X5.0539Y-4.3689
X5.0555Y-4.9758
X5.0747Y-4.9367
X5.0748Y-5.378
X5.0748Y-5.4252
X5.0783Y-4.4024
X5.0862Y-4.6244
X5.0917Y-4.9039
X5.122Y-5.378
X5.122Y-5.4252
X5.1693Y-5.378
X5.1693Y-5.4252
X5.1693Y-5.4843
X5.1693Y-5.5315
X5.1693Y-5.5787
X5.2024Y-4.6132
X5.2193Y-4.8626
X5.2389Y-4.5866
X5.2578Y-4.7675
X5.2756Y-4.2323
X5.2756Y-4.2913
X5.2756Y-4.3504
X5.2756Y-4.4094
X5.2974Y-4.8238
X5.3022Y-4.7657
X5.3265Y-4.6106
X5.328Y-4.5713
X5.3346Y-4.2323
X5.3346Y-4.2913
X5.3346Y-4.3504
X5.3346Y-4.4094
X5.3457Y-4.8571
X5.374Y-5.0787
X5.374Y-5.1378
X5.374Y-5.1969
X5.374Y-5.2559
X5.3773Y-4.6536
X5.3787Y-4.9272
X5.3937Y-4.2323
X5.3937Y-4.2913
X5.3937Y-4.3504
X5.3937Y-4.4094
X5.4331Y-5.1378
X5.4799Y-4.5035
X5.5028Y-4.8331
T4
X4.2106Y-4.2511
X4.2116Y-4.9941
X5.5579Y-4.2559
X5.5581Y-4.9941
T6
X4.3929Y-3.9701
X4.3929Y-4.0945
X4.452Y-3.9701
X4.452Y-4.0945
X4.511Y-3.9701
X4.511Y-4.0945
X4.5701Y-3.9701
X4.5701Y-4.0945
X4.6323Y-3.9697
X4.6913Y-3.9697
X4.7504Y-3.9697
X4.8094Y-3.9697
X4.8709Y-3.9705
X4.9299Y-3.9705
X4.989Y-3.9705
X5.048Y-3.9705
X5.111Y-3.9697
X5.111Y-4.0945
X5.1701Y-3.9697
X5.1701Y-4.0945
X5.2291Y-3.9697
X5.2291Y-4.0945
X5.2882Y-3.9697
X5.2882Y-4.0945
T7
X5.5547Y-4.5327
X5.5547Y-4.7098
T5
G00X4.2419Y-4.4543
M15
G01X4.2104Y-4.4543
M16
G05
G00X4.2419Y-4.7945
M15
G01X4.2104Y-4.7945
M16
G05
G00X4.4123Y-4.4543
M15
G01X4.369Y-4.4543
M16
G05
G00X4.4123Y-4.7945
M15
G01X4.369Y-4.7945
M16
G05
T0
M30
