%TF.GenerationSoftware,KiCad,Pcbnew,6.0.11-2627ca5db0~126~ubuntu22.04.1*%
%TF.CreationDate,2023-06-07T19:59:22+02:00*%
%TF.ProjectId,asac-fc-rev-b,61736163-2d66-4632-9d72-65762d622e6b,B*%
%TF.SameCoordinates,Original*%
%TF.FileFunction,Copper,L3,Inr*%
%TF.FilePolarity,Positive*%
%FSLAX46Y46*%
G04 Gerber Fmt 4.6, Leading zero omitted, Abs format (unit mm)*
G04 Created by KiCad (PCBNEW 6.0.11-2627ca5db0~126~ubuntu22.04.1) date 2023-06-07 19:59:22*
%MOMM*%
%LPD*%
G01*
G04 APERTURE LIST*
G04 Aperture macros list*
%AMRoundRect*
0 Rectangle with rounded corners*
0 $1 Rounding radius*
0 $2 $3 $4 $5 $6 $7 $8 $9 X,Y pos of 4 corners*
0 Add a 4 corners polygon primitive as box body*
4,1,4,$2,$3,$4,$5,$6,$7,$8,$9,$2,$3,0*
0 Add four circle primitives for the rounded corners*
1,1,$1+$1,$2,$3*
1,1,$1+$1,$4,$5*
1,1,$1+$1,$6,$7*
1,1,$1+$1,$8,$9*
0 Add four rect primitives between the rounded corners*
20,1,$1+$1,$2,$3,$4,$5,0*
20,1,$1+$1,$4,$5,$6,$7,0*
20,1,$1+$1,$6,$7,$8,$9,0*
20,1,$1+$1,$8,$9,$2,$3,0*%
G04 Aperture macros list end*
%TA.AperFunction,ComponentPad*%
%ADD10R,0.850000X0.700000*%
%TD*%
%TA.AperFunction,ComponentPad*%
%ADD11R,1.270000X1.270000*%
%TD*%
%TA.AperFunction,ComponentPad*%
%ADD12O,2.100000X1.000000*%
%TD*%
%TA.AperFunction,ComponentPad*%
%ADD13O,1.800000X1.000000*%
%TD*%
%TA.AperFunction,ComponentPad*%
%ADD14C,1.300000*%
%TD*%
%TA.AperFunction,ComponentPad*%
%ADD15RoundRect,0.250000X0.250000X-0.625000X0.250000X0.625000X-0.250000X0.625000X-0.250000X-0.625000X0*%
%TD*%
%TA.AperFunction,ViaPad*%
%ADD16C,0.800000*%
%TD*%
%TA.AperFunction,ViaPad*%
%ADD17C,0.600000*%
%TD*%
%TA.AperFunction,Conductor*%
%ADD18C,0.635000*%
%TD*%
%TA.AperFunction,Conductor*%
%ADD19C,0.200000*%
%TD*%
G04 APERTURE END LIST*
D10*
%TO.N,/VBAT*%
%TO.C,J4*%
X139775000Y-129750000D03*
X141375000Y-129050000D03*
X140575000Y-129050000D03*
X140575000Y-129750000D03*
X141375000Y-129750000D03*
X139775000Y-129050000D03*
X141375000Y-128350000D03*
X139775000Y-128350000D03*
X140575000Y-128350000D03*
D11*
%TO.N,/M2*%
X141175000Y-126850000D03*
D10*
%TO.N,GND*%
X139775000Y-124650000D03*
X140575000Y-123950000D03*
X140575000Y-125350000D03*
X141375000Y-124650000D03*
X141375000Y-123950000D03*
X141375000Y-125350000D03*
X140575000Y-124650000D03*
X139775000Y-125350000D03*
X139775000Y-123950000D03*
%TD*%
%TO.N,/VBAT*%
%TO.C,J9*%
X106749600Y-105777800D03*
X108349600Y-106477800D03*
X108349600Y-105777800D03*
X106749600Y-105077800D03*
X107549600Y-106477800D03*
X107549600Y-105777800D03*
X106749600Y-106477800D03*
X108349600Y-105077800D03*
X107549600Y-105077800D03*
D11*
%TO.N,/M4*%
X106949600Y-107977800D03*
D10*
%TO.N,GND*%
X108349600Y-110177800D03*
X107549600Y-110177800D03*
X106749600Y-109477800D03*
X107549600Y-110877800D03*
X106749600Y-110177800D03*
X108349600Y-110877800D03*
X106749600Y-110877800D03*
X107549600Y-109477800D03*
X108349600Y-109477800D03*
%TD*%
D12*
%TO.N,N/C*%
%TO.C,J10*%
X111523500Y-113140000D03*
X111523500Y-121780000D03*
D13*
X107343500Y-113140000D03*
X107343500Y-121780000D03*
%TD*%
D14*
%TO.N,*%
%TO.C,SW1*%
X141090000Y-119630000D03*
X141090000Y-115130000D03*
%TD*%
D15*
%TO.N,/VBAT*%
%TO.C,J3*%
X111580000Y-104000000D03*
X113080000Y-104000000D03*
%TO.N,GND*%
X114580000Y-104000000D03*
X116080000Y-104000000D03*
%TD*%
D10*
%TO.N,/VBAT*%
%TO.C,J1*%
X139820000Y-105900000D03*
X141420000Y-106600000D03*
X141420000Y-105200000D03*
X139820000Y-105200000D03*
X140620000Y-105900000D03*
X140620000Y-105200000D03*
X140620000Y-106600000D03*
X139820000Y-106600000D03*
X141420000Y-105900000D03*
D11*
%TO.N,/M1*%
X141170000Y-108100000D03*
D10*
%TO.N,GND*%
X139820000Y-111000000D03*
X140620000Y-110300000D03*
X140620000Y-111000000D03*
X141420000Y-110300000D03*
X139820000Y-109600000D03*
X141420000Y-111000000D03*
X140620000Y-109600000D03*
X139820000Y-110300000D03*
X141420000Y-109600000D03*
%TD*%
D15*
%TO.N,/SCL1*%
%TO.C,J15*%
X123720000Y-100850000D03*
%TO.N,/SDA1*%
X125220000Y-100850000D03*
%TO.N,+3.3V*%
X126720000Y-100850000D03*
%TO.N,GND*%
X128220000Y-100850000D03*
%TD*%
%TO.N,/RX1*%
%TO.C,J8*%
X117660000Y-100830000D03*
%TO.N,/TX1*%
X119160000Y-100830000D03*
%TO.N,+5V*%
X120660000Y-100830000D03*
%TO.N,GND*%
X122160000Y-100830000D03*
%TD*%
%TO.N,/GPIO24*%
%TO.C,J2*%
X129820000Y-104000000D03*
%TO.N,/GPIO25*%
X131320000Y-104000000D03*
%TO.N,+3.3V*%
X132820000Y-104000000D03*
%TO.N,GND*%
X134320000Y-104000000D03*
%TD*%
D10*
%TO.N,/VBAT*%
%TO.C,J6*%
X107574600Y-129050000D03*
X107574600Y-128350000D03*
X107574600Y-129750000D03*
X108374600Y-128350000D03*
X108374600Y-129050000D03*
X106774600Y-129050000D03*
X108374600Y-129750000D03*
X106774600Y-129750000D03*
X106774600Y-128350000D03*
D11*
%TO.N,/M3*%
X106974600Y-126850000D03*
D10*
%TO.N,GND*%
X108374600Y-123950000D03*
X107574600Y-124650000D03*
X107574600Y-125350000D03*
X108374600Y-125350000D03*
X106774600Y-124650000D03*
X108374600Y-124650000D03*
X107574600Y-123950000D03*
X106774600Y-125350000D03*
X106774600Y-123950000D03*
%TD*%
D15*
%TO.N,/RX_2_PIO*%
%TO.C,J5*%
X111580000Y-100840000D03*
%TO.N,/TX_2_PIO*%
X113080000Y-100840000D03*
%TO.N,+5V*%
X114580000Y-100840000D03*
%TO.N,GND*%
X116080000Y-100840000D03*
%TD*%
%TO.N,/GPIO22*%
%TO.C,J12*%
X129820000Y-100830000D03*
%TO.N,/GPIO23*%
X131320000Y-100830000D03*
%TO.N,+3.3V*%
X132820000Y-100830000D03*
%TO.N,GND*%
X134320000Y-100830000D03*
%TD*%
D16*
%TO.N,GND*%
X125300000Y-136600000D03*
X127700000Y-136600000D03*
X136500000Y-133500000D03*
X136500000Y-132000000D03*
X128900000Y-137800000D03*
X129330000Y-124560000D03*
X116560000Y-108360000D03*
X116155382Y-113654618D03*
X131300000Y-140500000D03*
X135500000Y-107500000D03*
X125400000Y-139300000D03*
X126500000Y-136600000D03*
X113000000Y-107000000D03*
X126359500Y-109779372D03*
X130100000Y-136600000D03*
X111500000Y-107000000D03*
X136500000Y-130500000D03*
X137000000Y-109000000D03*
X135500000Y-109000000D03*
X138000000Y-130500000D03*
X130100000Y-137800000D03*
X116000000Y-107000000D03*
X111500000Y-108500000D03*
X131300000Y-137800000D03*
X114500000Y-107000000D03*
X128990000Y-111820000D03*
X113530000Y-114180000D03*
X123593417Y-128986583D03*
X134000000Y-112000000D03*
X126107882Y-127482118D03*
X116901713Y-112838287D03*
X128896316Y-125391669D03*
X136500000Y-129000000D03*
X113771100Y-123700000D03*
X134000000Y-109000000D03*
X122400000Y-118600000D03*
X135500000Y-110500000D03*
X131300000Y-139300000D03*
X108570000Y-117490000D03*
X125300000Y-137800000D03*
X123100000Y-117900000D03*
X123550000Y-110080000D03*
X113327597Y-121165913D03*
X119560500Y-112330000D03*
X113000000Y-108500000D03*
X134000000Y-107500000D03*
X132140000Y-117175500D03*
X128900000Y-136600000D03*
X125400000Y-140500000D03*
X137000000Y-112000000D03*
X135500000Y-112000000D03*
X123800000Y-117200000D03*
X134000000Y-110500000D03*
X131300000Y-141700000D03*
X131300000Y-136600000D03*
X126500000Y-137800000D03*
X137000000Y-107500000D03*
X137000000Y-110500000D03*
X127700000Y-137800000D03*
X125400000Y-141700000D03*
%TO.N,+3.3V*%
X125040434Y-111594191D03*
X121920000Y-117080000D03*
X122020250Y-112200250D03*
X132570000Y-123510000D03*
X123755353Y-126154647D03*
X126949073Y-122946988D03*
X115086583Y-116743417D03*
X124680000Y-116150000D03*
X122860000Y-123880000D03*
X129190000Y-117459500D03*
%TO.N,+1V1*%
X124990500Y-124270000D03*
X118504608Y-115571191D03*
X127487842Y-122105125D03*
%TO.N,/~{USB_BOOT}*%
X136620000Y-125150000D03*
X139190000Y-114390000D03*
%TO.N,/VBAT*%
X116200000Y-136600000D03*
X121500000Y-137800000D03*
X118800000Y-137800000D03*
X116700000Y-141500000D03*
X120100000Y-137800000D03*
X116700000Y-139000000D03*
X122800000Y-141600000D03*
X116200000Y-137800000D03*
X122800000Y-140400000D03*
X117500000Y-137800000D03*
X120100000Y-136600000D03*
X118800000Y-136600000D03*
X122398417Y-128931583D03*
X117500000Y-136600000D03*
X122800000Y-139100000D03*
X122800000Y-136600000D03*
X115700000Y-134340000D03*
X122800000Y-137800000D03*
X116700000Y-140300000D03*
X121500000Y-136600000D03*
%TO.N,+5V*%
X125740000Y-130790000D03*
%TO.N,Net-(D3-Pad2)*%
X136584500Y-118202299D03*
X139770000Y-122760000D03*
%TO.N,/VBUS*%
X113420000Y-119850000D03*
%TO.N,/USB-*%
X110420000Y-117660000D03*
X127436868Y-126613078D03*
%TO.N,/USB+*%
X128410000Y-126385000D03*
X110375084Y-116516002D03*
%TO.N,/LED_BLUE*%
X128370000Y-110970000D03*
X127072465Y-104677535D03*
%TO.N,/LED_RED*%
X135330000Y-116110000D03*
D17*
X120742380Y-123360500D03*
%TO.N,/LED_GREEN*%
X121499418Y-123103406D03*
D16*
X135292545Y-117108800D03*
%TO.N,/QSPI_SS*%
X134675000Y-121050000D03*
X135780000Y-123370000D03*
%TO.N,/SWCLK*%
X117754860Y-116232163D03*
%TO.N,/SWD*%
X117822117Y-117330500D03*
%TO.N,/QSPI_SD1*%
X133547029Y-121093471D03*
X134555000Y-122525000D03*
%TO.N,/M2*%
X133068614Y-116499500D03*
D17*
%TO.N,/GPIO23*%
X118659904Y-121982082D03*
%TO.N,/GPIO24*%
X119365262Y-122358478D03*
D16*
%TO.N,/SDO{slash}MISO*%
X123580000Y-113620000D03*
X121359622Y-108159622D03*
%TO.N,/IMU_INT_1*%
X125877576Y-112140265D03*
X121582368Y-110679973D03*
%TO.N,/CSB{slash}CS*%
X124830378Y-107259622D03*
X121530000Y-113710500D03*
%TO.N,/SDI{slash}MOSI*%
X125030000Y-112670000D03*
X122160000Y-107459500D03*
%TO.N,Net-(J10-PadA5)*%
X110278169Y-115521209D03*
%TO.N,Net-(J10-PadB5)*%
X109710000Y-119020000D03*
D17*
%TO.N,/GPIO22*%
X118339223Y-121249711D03*
%TO.N,/GPIO25*%
X120067454Y-122781924D03*
%TD*%
D18*
%TO.N,+3.3V*%
X131594750Y-115054750D02*
X131129750Y-115519750D01*
X131594750Y-115054750D02*
X129190000Y-117459500D01*
X128360000Y-103290000D02*
X128360000Y-105180000D01*
D19*
X127650000Y-116150000D02*
X124680000Y-116150000D01*
X123740000Y-116150000D02*
X124680000Y-116150000D01*
D18*
X132820000Y-113829500D02*
X131594750Y-115054750D01*
D19*
X123050000Y-116840000D02*
X123740000Y-116150000D01*
D18*
X126587000Y-110977000D02*
X125657625Y-110977000D01*
X132790000Y-103500000D02*
X132820000Y-103530000D01*
X132820000Y-103530000D02*
X132820000Y-105270000D01*
D19*
X122160000Y-116840000D02*
X123050000Y-116840000D01*
D18*
X125657625Y-110977000D02*
X125040434Y-111594191D01*
X126720000Y-100850000D02*
X126720000Y-101650000D01*
D19*
X129190000Y-117459500D02*
X128959500Y-117459500D01*
D18*
X132820000Y-105270000D02*
X132820000Y-113829500D01*
X126720000Y-101650000D02*
X128360000Y-103290000D01*
D19*
X128959500Y-117459500D02*
X127650000Y-116150000D01*
D18*
X132820000Y-103470000D02*
X132820000Y-100830000D01*
X132790000Y-103500000D02*
X132820000Y-103470000D01*
D19*
X121920000Y-117080000D02*
X122160000Y-116840000D01*
D18*
X131129750Y-115519750D02*
X126587000Y-110977000D01*
X128360000Y-105180000D02*
X128830000Y-105650000D01*
D19*
X122020250Y-112200250D02*
X122626309Y-111594191D01*
X122626309Y-111594191D02*
X125040434Y-111594191D01*
D18*
X132440000Y-105650000D02*
X132820000Y-105270000D01*
X128830000Y-105650000D02*
X132440000Y-105650000D01*
%TO.N,+5V*%
X116330000Y-114572118D02*
X116535423Y-114572118D01*
X115190000Y-102420000D02*
X114580000Y-101810000D01*
X116535423Y-114572118D02*
X117819213Y-113288328D01*
X114580000Y-101810000D02*
X114580000Y-100840000D01*
X117735205Y-103515205D02*
X116640000Y-102420000D01*
X125740000Y-130790000D02*
X122960000Y-130790000D01*
X118435205Y-103515205D02*
X120660000Y-101290409D01*
X116330000Y-124160000D02*
X116330000Y-114572118D01*
X117819213Y-113288328D02*
X117819213Y-104131196D01*
X118435205Y-103515205D02*
X117735205Y-103515205D01*
X122960000Y-130790000D02*
X116330000Y-124160000D01*
X120660000Y-101290409D02*
X120660000Y-100830000D01*
X116640000Y-102420000D02*
X115190000Y-102420000D01*
X117819213Y-104131196D02*
X118435205Y-103515205D01*
%TD*%
%TA.AperFunction,Conductor*%
%TO.N,/VBAT*%
G36*
X110901859Y-99810502D02*
G01*
X110948352Y-99864158D01*
X110958456Y-99934432D01*
X110937332Y-99985895D01*
X110937369Y-99985915D01*
X110937169Y-99986293D01*
X110935089Y-99991360D01*
X110932959Y-99994243D01*
X110932958Y-99994246D01*
X110927366Y-100001816D01*
X110882481Y-100129631D01*
X110879500Y-100161166D01*
X110879500Y-101518834D01*
X110882481Y-101550369D01*
X110927366Y-101678184D01*
X110932958Y-101685754D01*
X110932959Y-101685757D01*
X110949409Y-101708028D01*
X111007850Y-101787150D01*
X111015421Y-101792742D01*
X111109243Y-101862041D01*
X111109246Y-101862042D01*
X111116816Y-101867634D01*
X111244631Y-101912519D01*
X111252277Y-101913242D01*
X111252278Y-101913242D01*
X111258248Y-101913806D01*
X111276166Y-101915500D01*
X111883834Y-101915500D01*
X111901752Y-101913806D01*
X111907722Y-101913242D01*
X111907723Y-101913242D01*
X111915369Y-101912519D01*
X112043184Y-101867634D01*
X112050754Y-101862042D01*
X112050757Y-101862041D01*
X112144579Y-101792742D01*
X112152150Y-101787150D01*
X112157742Y-101779579D01*
X112157745Y-101779576D01*
X112228649Y-101683580D01*
X112285210Y-101640669D01*
X112355992Y-101635149D01*
X112418521Y-101668773D01*
X112431351Y-101683580D01*
X112502255Y-101779576D01*
X112502258Y-101779579D01*
X112507850Y-101787150D01*
X112515421Y-101792742D01*
X112609243Y-101862041D01*
X112609246Y-101862042D01*
X112616816Y-101867634D01*
X112744631Y-101912519D01*
X112752277Y-101913242D01*
X112752278Y-101913242D01*
X112758248Y-101913806D01*
X112776166Y-101915500D01*
X113383834Y-101915500D01*
X113401752Y-101913806D01*
X113407722Y-101913242D01*
X113407723Y-101913242D01*
X113415369Y-101912519D01*
X113543184Y-101867634D01*
X113550754Y-101862042D01*
X113550757Y-101862041D01*
X113644579Y-101792742D01*
X113652150Y-101787150D01*
X113657742Y-101779579D01*
X113657745Y-101779576D01*
X113728649Y-101683580D01*
X113785210Y-101640669D01*
X113855992Y-101635149D01*
X113918521Y-101668773D01*
X113931351Y-101683580D01*
X114002255Y-101779576D01*
X114002258Y-101779579D01*
X114007850Y-101787150D01*
X114015421Y-101792742D01*
X114022085Y-101799406D01*
X114020461Y-101801030D01*
X114055494Y-101847209D01*
X114060391Y-101863214D01*
X114068719Y-101898720D01*
X114070881Y-101910388D01*
X114071173Y-101912519D01*
X114076391Y-101950610D01*
X114079802Y-101958492D01*
X114081745Y-101962982D01*
X114088779Y-101984250D01*
X114089896Y-101989012D01*
X114091859Y-101997380D01*
X114106758Y-102024482D01*
X114111413Y-102032949D01*
X114116634Y-102043606D01*
X114132756Y-102080861D01*
X114138163Y-102087538D01*
X114141241Y-102091339D01*
X114153734Y-102109931D01*
X114160231Y-102121749D01*
X114166825Y-102129387D01*
X114189627Y-102152189D01*
X114198453Y-102161990D01*
X114216666Y-102184482D01*
X114216668Y-102184484D01*
X114222071Y-102191156D01*
X114229070Y-102196130D01*
X114229071Y-102196131D01*
X114235996Y-102201052D01*
X114252101Y-102214663D01*
X114746843Y-102709405D01*
X114780869Y-102771717D01*
X114775804Y-102842532D01*
X114733257Y-102899368D01*
X114666737Y-102924179D01*
X114657748Y-102924500D01*
X114276166Y-102924500D01*
X114258248Y-102926194D01*
X114252278Y-102926758D01*
X114252277Y-102926758D01*
X114244631Y-102927481D01*
X114116816Y-102972366D01*
X114109246Y-102977958D01*
X114109243Y-102977959D01*
X114062000Y-103012854D01*
X114007850Y-103052850D01*
X114002258Y-103060421D01*
X113932959Y-103154243D01*
X113932958Y-103154246D01*
X113927366Y-103161816D01*
X113882481Y-103289631D01*
X113879500Y-103321166D01*
X113879500Y-104678834D01*
X113882481Y-104710369D01*
X113927366Y-104838184D01*
X113932958Y-104845754D01*
X113932959Y-104845757D01*
X113970381Y-104896421D01*
X114007850Y-104947150D01*
X114015421Y-104952742D01*
X114109243Y-105022041D01*
X114109246Y-105022042D01*
X114116816Y-105027634D01*
X114244631Y-105072519D01*
X114252277Y-105073242D01*
X114252278Y-105073242D01*
X114258248Y-105073806D01*
X114276166Y-105075500D01*
X114883834Y-105075500D01*
X114901752Y-105073806D01*
X114907722Y-105073242D01*
X114907723Y-105073242D01*
X114915369Y-105072519D01*
X115043184Y-105027634D01*
X115050754Y-105022042D01*
X115050757Y-105022041D01*
X115144579Y-104952742D01*
X115152150Y-104947150D01*
X115157742Y-104939579D01*
X115157745Y-104939576D01*
X115228649Y-104843580D01*
X115285210Y-104800669D01*
X115355992Y-104795149D01*
X115418521Y-104828773D01*
X115431351Y-104843580D01*
X115502255Y-104939576D01*
X115502258Y-104939579D01*
X115507850Y-104947150D01*
X115515421Y-104952742D01*
X115609243Y-105022041D01*
X115609246Y-105022042D01*
X115616816Y-105027634D01*
X115744631Y-105072519D01*
X115752277Y-105073242D01*
X115752278Y-105073242D01*
X115758248Y-105073806D01*
X115776166Y-105075500D01*
X116383834Y-105075500D01*
X116401752Y-105073806D01*
X116407722Y-105073242D01*
X116407723Y-105073242D01*
X116415369Y-105072519D01*
X116543184Y-105027634D01*
X116550754Y-105022042D01*
X116550757Y-105022041D01*
X116644579Y-104952742D01*
X116652150Y-104947150D01*
X116689619Y-104896421D01*
X116727041Y-104845757D01*
X116727042Y-104845754D01*
X116732634Y-104838184D01*
X116777519Y-104710369D01*
X116780500Y-104678834D01*
X116780500Y-103597253D01*
X116800502Y-103529132D01*
X116854158Y-103482639D01*
X116924432Y-103472535D01*
X116989012Y-103502029D01*
X116995595Y-103508158D01*
X117303357Y-103815920D01*
X117337383Y-103878232D01*
X117335259Y-103940167D01*
X117330222Y-103957505D01*
X117326377Y-103968736D01*
X117316526Y-103993617D01*
X117311436Y-104006474D01*
X117310538Y-104015019D01*
X117310537Y-104015022D01*
X117310025Y-104019888D01*
X117305715Y-104041860D01*
X117303824Y-104048370D01*
X117301952Y-104054814D01*
X117301213Y-104064878D01*
X117301213Y-104097134D01*
X117300523Y-104110305D01*
X117296601Y-104147620D01*
X117298033Y-104156086D01*
X117298033Y-104156089D01*
X117299449Y-104164460D01*
X117301213Y-104185472D01*
X117301213Y-107968353D01*
X117281211Y-108036474D01*
X117227555Y-108082967D01*
X117157281Y-108093071D01*
X117092701Y-108063577D01*
X117075250Y-108045057D01*
X116993305Y-107938264D01*
X116988282Y-107931718D01*
X116970556Y-107918116D01*
X116901729Y-107865304D01*
X116862841Y-107835464D01*
X116716762Y-107774956D01*
X116560000Y-107754318D01*
X116403238Y-107774956D01*
X116257159Y-107835464D01*
X116218271Y-107865304D01*
X116149445Y-107918116D01*
X116131718Y-107931718D01*
X116035464Y-108057159D01*
X115974956Y-108203238D01*
X115954318Y-108360000D01*
X115974956Y-108516762D01*
X116035464Y-108662841D01*
X116131718Y-108788282D01*
X116257159Y-108884536D01*
X116403238Y-108945044D01*
X116560000Y-108965682D01*
X116568188Y-108964604D01*
X116708574Y-108946122D01*
X116716762Y-108945044D01*
X116862841Y-108884536D01*
X116988282Y-108788282D01*
X117012015Y-108757352D01*
X117075250Y-108674943D01*
X117132588Y-108633076D01*
X117203459Y-108628854D01*
X117265362Y-108663618D01*
X117298643Y-108726331D01*
X117301213Y-108751647D01*
X117301213Y-112165216D01*
X117281211Y-112233337D01*
X117227555Y-112279830D01*
X117157281Y-112289934D01*
X117126995Y-112281625D01*
X117066104Y-112256403D01*
X117058475Y-112253243D01*
X116901713Y-112232605D01*
X116744951Y-112253243D01*
X116598872Y-112313751D01*
X116559014Y-112344335D01*
X116484015Y-112401884D01*
X116473431Y-112410005D01*
X116468408Y-112416551D01*
X116461402Y-112425682D01*
X116377177Y-112535446D01*
X116316669Y-112681525D01*
X116315591Y-112689713D01*
X116308330Y-112744869D01*
X116296031Y-112838287D01*
X116297109Y-112846475D01*
X116305300Y-112908694D01*
X116294360Y-112978843D01*
X116247232Y-113031941D01*
X116178878Y-113051131D01*
X116163929Y-113050061D01*
X116155382Y-113048936D01*
X115998620Y-113069574D01*
X115852541Y-113130082D01*
X115727100Y-113226336D01*
X115630846Y-113351777D01*
X115570338Y-113497856D01*
X115549700Y-113654618D01*
X115551692Y-113669751D01*
X115564703Y-113768574D01*
X115570338Y-113811380D01*
X115630846Y-113957459D01*
X115727100Y-114082900D01*
X115835528Y-114166099D01*
X115835744Y-114166265D01*
X115877611Y-114223603D01*
X115881833Y-114294474D01*
X115871053Y-114323651D01*
X115866631Y-114329874D01*
X115863722Y-114337952D01*
X115860062Y-114344954D01*
X115856858Y-114352151D01*
X115852334Y-114359448D01*
X115843458Y-114390000D01*
X115838180Y-114408166D01*
X115835734Y-114415692D01*
X115818556Y-114463407D01*
X115817927Y-114471976D01*
X115816141Y-114480379D01*
X115815859Y-114480319D01*
X115815407Y-114482831D01*
X115815751Y-114482893D01*
X115814582Y-114489392D01*
X115812739Y-114495736D01*
X115812000Y-114505800D01*
X115812000Y-114548059D01*
X115811662Y-114557287D01*
X115808162Y-114604949D01*
X115809860Y-114613368D01*
X115810157Y-114618096D01*
X115812000Y-114636558D01*
X115812000Y-116331184D01*
X115791998Y-116399305D01*
X115738342Y-116445798D01*
X115668068Y-116455902D01*
X115603488Y-116426408D01*
X115586038Y-116407888D01*
X115519892Y-116321685D01*
X115519888Y-116321681D01*
X115514865Y-116315135D01*
X115389424Y-116218881D01*
X115243345Y-116158373D01*
X115203103Y-116153075D01*
X115094771Y-116138813D01*
X115086583Y-116137735D01*
X115078395Y-116138813D01*
X114970064Y-116153075D01*
X114929821Y-116158373D01*
X114783742Y-116218881D01*
X114658301Y-116315135D01*
X114562047Y-116440576D01*
X114501539Y-116586655D01*
X114480901Y-116743417D01*
X114481979Y-116751605D01*
X114498153Y-116874456D01*
X114501539Y-116900179D01*
X114562047Y-117046258D01*
X114658301Y-117171699D01*
X114783742Y-117267953D01*
X114929821Y-117328461D01*
X114938009Y-117329539D01*
X114966106Y-117333238D01*
X115086583Y-117349099D01*
X115094771Y-117348021D01*
X115144866Y-117341426D01*
X115207060Y-117333238D01*
X115235157Y-117329539D01*
X115243345Y-117328461D01*
X115389424Y-117267953D01*
X115514865Y-117171699D01*
X115519888Y-117165153D01*
X115519892Y-117165149D01*
X115586038Y-117078946D01*
X115643376Y-117037079D01*
X115714247Y-117032857D01*
X115776149Y-117067621D01*
X115809431Y-117130334D01*
X115812000Y-117155650D01*
X115812000Y-124145760D01*
X115811889Y-124151036D01*
X115809451Y-124209206D01*
X115811413Y-124217570D01*
X115811413Y-124217573D01*
X115818718Y-124248720D01*
X115820881Y-124260388D01*
X115826391Y-124300610D01*
X115829802Y-124308492D01*
X115831745Y-124312982D01*
X115838779Y-124334250D01*
X115839897Y-124339015D01*
X115841859Y-124347380D01*
X115861413Y-124382949D01*
X115866634Y-124393606D01*
X115882756Y-124430861D01*
X115888163Y-124437538D01*
X115891241Y-124441339D01*
X115903734Y-124459931D01*
X115910231Y-124471749D01*
X115916825Y-124479387D01*
X115939627Y-124502189D01*
X115948453Y-124511990D01*
X115966666Y-124534482D01*
X115966668Y-124534484D01*
X115972071Y-124541156D01*
X115979070Y-124546130D01*
X115979071Y-124546131D01*
X115985996Y-124551052D01*
X116002101Y-124564663D01*
X122583626Y-131146188D01*
X122587279Y-131149997D01*
X122626710Y-131192878D01*
X122661216Y-131214273D01*
X122670985Y-131220988D01*
X122696475Y-131240337D01*
X122696482Y-131240341D01*
X122703321Y-131245532D01*
X122711307Y-131248694D01*
X122715858Y-131250496D01*
X122735866Y-131260559D01*
X122740030Y-131263141D01*
X122740036Y-131263144D01*
X122747330Y-131267666D01*
X122786305Y-131278989D01*
X122797533Y-131282834D01*
X122827286Y-131294614D01*
X122827294Y-131294616D01*
X122835278Y-131297777D01*
X122843823Y-131298675D01*
X122843826Y-131298676D01*
X122848692Y-131299188D01*
X122870664Y-131303498D01*
X122877280Y-131305420D01*
X122877282Y-131305420D01*
X122883618Y-131307261D01*
X122893682Y-131308000D01*
X122925938Y-131308000D01*
X122939109Y-131308690D01*
X122976424Y-131312612D01*
X122984890Y-131311180D01*
X122984893Y-131311180D01*
X122993264Y-131309764D01*
X123014276Y-131308000D01*
X125396316Y-131308000D01*
X125444534Y-131317591D01*
X125575608Y-131371884D01*
X125575611Y-131371885D01*
X125583238Y-131375044D01*
X125740000Y-131395682D01*
X125748188Y-131394604D01*
X125750361Y-131394318D01*
X125896762Y-131375044D01*
X126042841Y-131314536D01*
X126168282Y-131218282D01*
X126264536Y-131092841D01*
X126325044Y-130946762D01*
X126345682Y-130790000D01*
X126325044Y-130633238D01*
X126269855Y-130500000D01*
X135894318Y-130500000D01*
X135914956Y-130656762D01*
X135975464Y-130802841D01*
X136071718Y-130928282D01*
X136197159Y-131024536D01*
X136343238Y-131085044D01*
X136500000Y-131105682D01*
X136508188Y-131104604D01*
X136547778Y-131099392D01*
X136656762Y-131085044D01*
X136802841Y-131024536D01*
X136928282Y-130928282D01*
X137024536Y-130802841D01*
X137085044Y-130656762D01*
X137105682Y-130500000D01*
X137394318Y-130500000D01*
X137414956Y-130656762D01*
X137475464Y-130802841D01*
X137571718Y-130928282D01*
X137697159Y-131024536D01*
X137843238Y-131085044D01*
X138000000Y-131105682D01*
X138008188Y-131104604D01*
X138047778Y-131099392D01*
X138156762Y-131085044D01*
X138302841Y-131024536D01*
X138428282Y-130928282D01*
X138524536Y-130802841D01*
X138585044Y-130656762D01*
X138605682Y-130500000D01*
X138585044Y-130343238D01*
X138524536Y-130197159D01*
X138428282Y-130071718D01*
X138302841Y-129975464D01*
X138156762Y-129914956D01*
X138000000Y-129894318D01*
X137843238Y-129914956D01*
X137697159Y-129975464D01*
X137571718Y-130071718D01*
X137475464Y-130197159D01*
X137414956Y-130343238D01*
X137394318Y-130500000D01*
X137105682Y-130500000D01*
X137085044Y-130343238D01*
X137024536Y-130197159D01*
X136928282Y-130071718D01*
X136802841Y-129975464D01*
X136656762Y-129914956D01*
X136500000Y-129894318D01*
X136343238Y-129914956D01*
X136197159Y-129975464D01*
X136071718Y-130071718D01*
X135975464Y-130197159D01*
X135914956Y-130343238D01*
X135894318Y-130500000D01*
X126269855Y-130500000D01*
X126264536Y-130487159D01*
X126168282Y-130361718D01*
X126042841Y-130265464D01*
X125896762Y-130204956D01*
X125740000Y-130184318D01*
X125583238Y-130204956D01*
X125575611Y-130208115D01*
X125575608Y-130208116D01*
X125444534Y-130262409D01*
X125396316Y-130272000D01*
X123226752Y-130272000D01*
X123158631Y-130251998D01*
X123137657Y-130235095D01*
X121889145Y-128986583D01*
X122987735Y-128986583D01*
X123008373Y-129143345D01*
X123011533Y-129150974D01*
X123015949Y-129161636D01*
X123068881Y-129289424D01*
X123165135Y-129414865D01*
X123171681Y-129419888D01*
X123201335Y-129442642D01*
X123290576Y-129511119D01*
X123436655Y-129571627D01*
X123593417Y-129592265D01*
X123601605Y-129591187D01*
X123741991Y-129572705D01*
X123750179Y-129571627D01*
X123896258Y-129511119D01*
X123985499Y-129442642D01*
X124015153Y-129419888D01*
X124021699Y-129414865D01*
X124117953Y-129289424D01*
X124170885Y-129161636D01*
X124175301Y-129150974D01*
X124178461Y-129143345D01*
X124197333Y-129000000D01*
X135894318Y-129000000D01*
X135914956Y-129156762D01*
X135975464Y-129302841D01*
X136071718Y-129428282D01*
X136197159Y-129524536D01*
X136343238Y-129585044D01*
X136500000Y-129605682D01*
X136508188Y-129604604D01*
X136648574Y-129586122D01*
X136656762Y-129585044D01*
X136802841Y-129524536D01*
X136928282Y-129428282D01*
X137024536Y-129302841D01*
X137085044Y-129156762D01*
X137105682Y-129000000D01*
X137085044Y-128843238D01*
X137079487Y-128829821D01*
X137027696Y-128704789D01*
X137024536Y-128697159D01*
X136928282Y-128571718D01*
X136904251Y-128553278D01*
X136809392Y-128480491D01*
X136802841Y-128475464D01*
X136656762Y-128414956D01*
X136500000Y-128394318D01*
X136343238Y-128414956D01*
X136197159Y-128475464D01*
X136190608Y-128480491D01*
X136095750Y-128553278D01*
X136071718Y-128571718D01*
X135975464Y-128697159D01*
X135972304Y-128704789D01*
X135920514Y-128829821D01*
X135914956Y-128843238D01*
X135894318Y-129000000D01*
X124197333Y-129000000D01*
X124199099Y-128986583D01*
X124178461Y-128829821D01*
X124117953Y-128683742D01*
X124021699Y-128558301D01*
X123896258Y-128462047D01*
X123750179Y-128401539D01*
X123593417Y-128380901D01*
X123436655Y-128401539D01*
X123290576Y-128462047D01*
X123165135Y-128558301D01*
X123068881Y-128683742D01*
X123008373Y-128829821D01*
X122987735Y-128986583D01*
X121889145Y-128986583D01*
X120384680Y-127482118D01*
X125502200Y-127482118D01*
X125522838Y-127638880D01*
X125583346Y-127784959D01*
X125679600Y-127910400D01*
X125805041Y-128006654D01*
X125951120Y-128067162D01*
X126107882Y-128087800D01*
X126116070Y-128086722D01*
X126256456Y-128068240D01*
X126264644Y-128067162D01*
X126410723Y-128006654D01*
X126536164Y-127910400D01*
X126632418Y-127784959D01*
X126692926Y-127638880D01*
X126713564Y-127482118D01*
X126692926Y-127325356D01*
X126632418Y-127179277D01*
X126536164Y-127053836D01*
X126410723Y-126957582D01*
X126264644Y-126897074D01*
X126107882Y-126876436D01*
X125951120Y-126897074D01*
X125805041Y-126957582D01*
X125679600Y-127053836D01*
X125583346Y-127179277D01*
X125522838Y-127325356D01*
X125502200Y-127482118D01*
X120384680Y-127482118D01*
X119057209Y-126154647D01*
X123149671Y-126154647D01*
X123170309Y-126311409D01*
X123230817Y-126457488D01*
X123327071Y-126582929D01*
X123452512Y-126679183D01*
X123598591Y-126739691D01*
X123755353Y-126760329D01*
X123763541Y-126759251D01*
X123903927Y-126740769D01*
X123912115Y-126739691D01*
X124058194Y-126679183D01*
X124144344Y-126613078D01*
X126831186Y-126613078D01*
X126851824Y-126769840D01*
X126912332Y-126915919D01*
X127008586Y-127041360D01*
X127134027Y-127137614D01*
X127280106Y-127198122D01*
X127436868Y-127218760D01*
X127445056Y-127217682D01*
X127585442Y-127199200D01*
X127593630Y-127198122D01*
X127739709Y-127137614D01*
X127865150Y-127041360D01*
X127870173Y-127034814D01*
X127870176Y-127034811D01*
X127942940Y-126939982D01*
X128000278Y-126898114D01*
X128071149Y-126893892D01*
X128103212Y-126906507D01*
X128107159Y-126909536D01*
X128114786Y-126912695D01*
X128114789Y-126912697D01*
X128215523Y-126954422D01*
X128253238Y-126970044D01*
X128410000Y-126990682D01*
X128418188Y-126989604D01*
X128558574Y-126971122D01*
X128566762Y-126970044D01*
X128712841Y-126909536D01*
X128802082Y-126841059D01*
X128831736Y-126818305D01*
X128838282Y-126813282D01*
X128934536Y-126687841D01*
X128995044Y-126541762D01*
X129015682Y-126385000D01*
X128995044Y-126228238D01*
X128983944Y-126201439D01*
X128961631Y-126147571D01*
X128954042Y-126076981D01*
X128985822Y-126013494D01*
X129045274Y-125977740D01*
X129053078Y-125976713D01*
X129199157Y-125916205D01*
X129292537Y-125844552D01*
X129318052Y-125824974D01*
X129324598Y-125819951D01*
X129420852Y-125694510D01*
X129481360Y-125548431D01*
X129501998Y-125391669D01*
X129483040Y-125247669D01*
X129493979Y-125177521D01*
X129518405Y-125150000D01*
X136014318Y-125150000D01*
X136034956Y-125306762D01*
X136095464Y-125452841D01*
X136100491Y-125459392D01*
X136174667Y-125556060D01*
X136191718Y-125578282D01*
X136317159Y-125674536D01*
X136463238Y-125735044D01*
X136620000Y-125755682D01*
X136628188Y-125754604D01*
X136768574Y-125736122D01*
X136776762Y-125735044D01*
X136922841Y-125674536D01*
X137048282Y-125578282D01*
X137065334Y-125556060D01*
X137139509Y-125459392D01*
X137144536Y-125452841D01*
X137205044Y-125306762D01*
X137225682Y-125150000D01*
X137205044Y-124993238D01*
X137144536Y-124847159D01*
X137048282Y-124721718D01*
X136922841Y-124625464D01*
X136776762Y-124564956D01*
X136620000Y-124544318D01*
X136463238Y-124564956D01*
X136317159Y-124625464D01*
X136191718Y-124721718D01*
X136095464Y-124847159D01*
X136034956Y-124993238D01*
X136014318Y-125150000D01*
X129518405Y-125150000D01*
X129541107Y-125124422D01*
X129559744Y-125114814D01*
X129578512Y-125107040D01*
X129632841Y-125084536D01*
X129758282Y-124988282D01*
X129854536Y-124862841D01*
X129915044Y-124716762D01*
X129935682Y-124560000D01*
X129915044Y-124403238D01*
X129854536Y-124257159D01*
X129758282Y-124131718D01*
X129632841Y-124035464D01*
X129486762Y-123974956D01*
X129330000Y-123954318D01*
X129173238Y-123974956D01*
X129027159Y-124035464D01*
X128901718Y-124131718D01*
X128805464Y-124257159D01*
X128744956Y-124403238D01*
X128724318Y-124560000D01*
X128743185Y-124703305D01*
X128743276Y-124704000D01*
X128732337Y-124774148D01*
X128685209Y-124827247D01*
X128666572Y-124836855D01*
X128593475Y-124867133D01*
X128468034Y-124963387D01*
X128463011Y-124969933D01*
X128448931Y-124988282D01*
X128371780Y-125088828D01*
X128311272Y-125234907D01*
X128290634Y-125391669D01*
X128311272Y-125548431D01*
X128314431Y-125556058D01*
X128314432Y-125556061D01*
X128344685Y-125629098D01*
X128352274Y-125699688D01*
X128320494Y-125763175D01*
X128261042Y-125798929D01*
X128253238Y-125799956D01*
X128107159Y-125860464D01*
X127981718Y-125956718D01*
X127976695Y-125963264D01*
X127976692Y-125963267D01*
X127903928Y-126058096D01*
X127846590Y-126099964D01*
X127775719Y-126104186D01*
X127743656Y-126091571D01*
X127739709Y-126088542D01*
X127732082Y-126085383D01*
X127732079Y-126085381D01*
X127601259Y-126031194D01*
X127593630Y-126028034D01*
X127579191Y-126026133D01*
X127515249Y-126017715D01*
X127436868Y-126007396D01*
X127358487Y-126017715D01*
X127294546Y-126026133D01*
X127280106Y-126028034D01*
X127134027Y-126088542D01*
X127084624Y-126126450D01*
X127025432Y-126171870D01*
X127008586Y-126184796D01*
X126912332Y-126310237D01*
X126851824Y-126456316D01*
X126831186Y-126613078D01*
X124144344Y-126613078D01*
X124183635Y-126582929D01*
X124279889Y-126457488D01*
X124340397Y-126311409D01*
X124361035Y-126154647D01*
X124340397Y-125997885D01*
X124279889Y-125851806D01*
X124206131Y-125755682D01*
X124188658Y-125732911D01*
X124183635Y-125726365D01*
X124166949Y-125713561D01*
X124116090Y-125674536D01*
X124058194Y-125630111D01*
X123912115Y-125569603D01*
X123755353Y-125548965D01*
X123598591Y-125569603D01*
X123452512Y-125630111D01*
X123394616Y-125674536D01*
X123343758Y-125713561D01*
X123327071Y-125726365D01*
X123322048Y-125732911D01*
X123304575Y-125755682D01*
X123230817Y-125851806D01*
X123170309Y-125997885D01*
X123149671Y-126154647D01*
X119057209Y-126154647D01*
X116884905Y-123982343D01*
X116850879Y-123920031D01*
X116848000Y-123893248D01*
X116848000Y-123880000D01*
X122254318Y-123880000D01*
X122274956Y-124036762D01*
X122335464Y-124182841D01*
X122431718Y-124308282D01*
X122557159Y-124404536D01*
X122703238Y-124465044D01*
X122860000Y-124485682D01*
X122868188Y-124484604D01*
X122907816Y-124479387D01*
X123016762Y-124465044D01*
X123162841Y-124404536D01*
X123288282Y-124308282D01*
X123317657Y-124270000D01*
X124384818Y-124270000D01*
X124405456Y-124426762D01*
X124465964Y-124572841D01*
X124562218Y-124698282D01*
X124687659Y-124794536D01*
X124833738Y-124855044D01*
X124990500Y-124875682D01*
X124998688Y-124874604D01*
X125038278Y-124869392D01*
X125147262Y-124855044D01*
X125293341Y-124794536D01*
X125418782Y-124698282D01*
X125515036Y-124572841D01*
X125575544Y-124426762D01*
X125596182Y-124270000D01*
X125575544Y-124113238D01*
X125515036Y-123967159D01*
X125434552Y-123862270D01*
X125423805Y-123848264D01*
X125418782Y-123841718D01*
X125293341Y-123745464D01*
X125147262Y-123684956D01*
X124990500Y-123664318D01*
X124833738Y-123684956D01*
X124687659Y-123745464D01*
X124562218Y-123841718D01*
X124557195Y-123848264D01*
X124546448Y-123862270D01*
X124465964Y-123967159D01*
X124405456Y-124113238D01*
X124384818Y-124270000D01*
X123317657Y-124270000D01*
X123384536Y-124182841D01*
X123445044Y-124036762D01*
X123465682Y-123880000D01*
X123445044Y-123723238D01*
X123384536Y-123577159D01*
X123288282Y-123451718D01*
X123162841Y-123355464D01*
X123016762Y-123294956D01*
X122860000Y-123274318D01*
X122703238Y-123294956D01*
X122557159Y-123355464D01*
X122431718Y-123451718D01*
X122335464Y-123577159D01*
X122274956Y-123723238D01*
X122254318Y-123880000D01*
X116848000Y-123880000D01*
X116848000Y-121243534D01*
X117833614Y-121243534D01*
X117834778Y-121252436D01*
X117834778Y-121252439D01*
X117835764Y-121259978D01*
X117852203Y-121385690D01*
X117855820Y-121393910D01*
X117902256Y-121499443D01*
X117909943Y-121516914D01*
X117915720Y-121523787D01*
X117915721Y-121523788D01*
X117994920Y-121618007D01*
X118002193Y-121626659D01*
X118081714Y-121679593D01*
X118121536Y-121706101D01*
X118119606Y-121709000D01*
X118160008Y-121745228D01*
X118178849Y-121813679D01*
X118175615Y-121834130D01*
X118176351Y-121834245D01*
X118162938Y-121920396D01*
X118154295Y-121975905D01*
X118155459Y-121984807D01*
X118155459Y-121984810D01*
X118160841Y-122025968D01*
X118172884Y-122118061D01*
X118189312Y-122155396D01*
X118226755Y-122240491D01*
X118230624Y-122249285D01*
X118236401Y-122256158D01*
X118236402Y-122256159D01*
X118260343Y-122284640D01*
X118322874Y-122359030D01*
X118378419Y-122396004D01*
X118425703Y-122427479D01*
X118442217Y-122438472D01*
X118579061Y-122481224D01*
X118588033Y-122481388D01*
X118588036Y-122481389D01*
X118653367Y-122482586D01*
X118722403Y-122483852D01*
X118732043Y-122481224D01*
X118752638Y-122475609D01*
X118823621Y-122476989D01*
X118882590Y-122516526D01*
X118901109Y-122546426D01*
X118935982Y-122625681D01*
X118941759Y-122632554D01*
X118941760Y-122632555D01*
X119004676Y-122707403D01*
X119028232Y-122735426D01*
X119147575Y-122814868D01*
X119284419Y-122857620D01*
X119293391Y-122857784D01*
X119293394Y-122857785D01*
X119358725Y-122858982D01*
X119427761Y-122860248D01*
X119436681Y-122857816D01*
X119436945Y-122857821D01*
X119445328Y-122856777D01*
X119445479Y-122857987D01*
X119507663Y-122859193D01*
X119566634Y-122898729D01*
X119585155Y-122928631D01*
X119638174Y-123049127D01*
X119643951Y-123056000D01*
X119643952Y-123056001D01*
X119690286Y-123111122D01*
X119730424Y-123158872D01*
X119849767Y-123238314D01*
X119986611Y-123281066D01*
X119995583Y-123281230D01*
X119995586Y-123281231D01*
X120078445Y-123282750D01*
X120119221Y-123283497D01*
X120186963Y-123304744D01*
X120232465Y-123359243D01*
X120241847Y-123393137D01*
X120255360Y-123496479D01*
X120279537Y-123551426D01*
X120302149Y-123602814D01*
X120313100Y-123627703D01*
X120318877Y-123634576D01*
X120318878Y-123634577D01*
X120344784Y-123665396D01*
X120405350Y-123737448D01*
X120524693Y-123816890D01*
X120661537Y-123859642D01*
X120670509Y-123859806D01*
X120670512Y-123859807D01*
X120735843Y-123861004D01*
X120804879Y-123862270D01*
X120813913Y-123859807D01*
X120934538Y-123826921D01*
X120934540Y-123826920D01*
X120943197Y-123824560D01*
X121065371Y-123749545D01*
X121161580Y-123643254D01*
X121165494Y-123635176D01*
X121170512Y-123627736D01*
X121171768Y-123628583D01*
X121212860Y-123583286D01*
X121281419Y-123564840D01*
X121316118Y-123570539D01*
X121418575Y-123602548D01*
X121427547Y-123602712D01*
X121427550Y-123602713D01*
X121492881Y-123603910D01*
X121561917Y-123605176D01*
X121570951Y-123602713D01*
X121691576Y-123569827D01*
X121691578Y-123569826D01*
X121700235Y-123567466D01*
X121822409Y-123492451D01*
X121918618Y-123386160D01*
X121969456Y-123281231D01*
X121977213Y-123265220D01*
X121977213Y-123265219D01*
X121981128Y-123257139D01*
X122004914Y-123115760D01*
X122005065Y-123103406D01*
X121984741Y-122961488D01*
X121978729Y-122948264D01*
X121978149Y-122946988D01*
X126343391Y-122946988D01*
X126364029Y-123103750D01*
X126424537Y-123249829D01*
X126520791Y-123375270D01*
X126527337Y-123380293D01*
X126544078Y-123393139D01*
X126646232Y-123471524D01*
X126792311Y-123532032D01*
X126949073Y-123552670D01*
X126957261Y-123551592D01*
X127097647Y-123533110D01*
X127105835Y-123532032D01*
X127159025Y-123510000D01*
X131964318Y-123510000D01*
X131984956Y-123666762D01*
X132045464Y-123812841D01*
X132083392Y-123862270D01*
X132127714Y-123920031D01*
X132141718Y-123938282D01*
X132148264Y-123943305D01*
X132162617Y-123954318D01*
X132267159Y-124034536D01*
X132413238Y-124095044D01*
X132570000Y-124115682D01*
X132578188Y-124114604D01*
X132718574Y-124096122D01*
X132726762Y-124095044D01*
X132872841Y-124034536D01*
X132977383Y-123954318D01*
X132991736Y-123943305D01*
X132998282Y-123938282D01*
X133012287Y-123920031D01*
X133056608Y-123862270D01*
X133094536Y-123812841D01*
X133155044Y-123666762D01*
X133175682Y-123510000D01*
X133159964Y-123390608D01*
X133157251Y-123370000D01*
X135174318Y-123370000D01*
X135194956Y-123526762D01*
X135255464Y-123672841D01*
X135351718Y-123798282D01*
X135477159Y-123894536D01*
X135623238Y-123955044D01*
X135780000Y-123975682D01*
X135788188Y-123974604D01*
X135928574Y-123956122D01*
X135936762Y-123955044D01*
X136082841Y-123894536D01*
X136208282Y-123798282D01*
X136304536Y-123672841D01*
X136365044Y-123526762D01*
X136385682Y-123370000D01*
X136365044Y-123213238D01*
X136304536Y-123067159D01*
X136208282Y-122941718D01*
X136190556Y-122928116D01*
X136151842Y-122898410D01*
X136082841Y-122845464D01*
X135936762Y-122784956D01*
X135780000Y-122764318D01*
X135623238Y-122784956D01*
X135477159Y-122845464D01*
X135408158Y-122898410D01*
X135369445Y-122928116D01*
X135351718Y-122941718D01*
X135255464Y-123067159D01*
X135194956Y-123213238D01*
X135174318Y-123370000D01*
X133157251Y-123370000D01*
X133156122Y-123361426D01*
X133155044Y-123353238D01*
X133094536Y-123207159D01*
X133018652Y-123108265D01*
X133003305Y-123088264D01*
X132998282Y-123081718D01*
X132872841Y-122985464D01*
X132726762Y-122924956D01*
X132570000Y-122904318D01*
X132413238Y-122924956D01*
X132267159Y-122985464D01*
X132141718Y-123081718D01*
X132136695Y-123088264D01*
X132121348Y-123108265D01*
X132045464Y-123207159D01*
X131984956Y-123353238D01*
X131983878Y-123361426D01*
X131980036Y-123390608D01*
X131964318Y-123510000D01*
X127159025Y-123510000D01*
X127251914Y-123471524D01*
X127354068Y-123393139D01*
X127370809Y-123380293D01*
X127377355Y-123375270D01*
X127473609Y-123249829D01*
X127534117Y-123103750D01*
X127554755Y-122946988D01*
X127543695Y-122862980D01*
X127539439Y-122830650D01*
X127550378Y-122760501D01*
X127597507Y-122707403D01*
X127631750Y-122692497D01*
X127636414Y-122691247D01*
X127644604Y-122690169D01*
X127790683Y-122629661D01*
X127916124Y-122533407D01*
X127922575Y-122525000D01*
X133949318Y-122525000D01*
X133969956Y-122681762D01*
X134030464Y-122827841D01*
X134084613Y-122898410D01*
X134120065Y-122944611D01*
X134126718Y-122953282D01*
X134252159Y-123049536D01*
X134398238Y-123110044D01*
X134406426Y-123111122D01*
X134459551Y-123118116D01*
X134555000Y-123130682D01*
X134563188Y-123129604D01*
X134703574Y-123111122D01*
X134711762Y-123110044D01*
X134857841Y-123049536D01*
X134983282Y-122953282D01*
X134989936Y-122944611D01*
X135025387Y-122898410D01*
X135079536Y-122827841D01*
X135140044Y-122681762D01*
X135160682Y-122525000D01*
X135140044Y-122368238D01*
X135079536Y-122222159D01*
X134983282Y-122096718D01*
X134857841Y-122000464D01*
X134711762Y-121939956D01*
X134555000Y-121919318D01*
X134398238Y-121939956D01*
X134252159Y-122000464D01*
X134126718Y-122096718D01*
X134030464Y-122222159D01*
X133969956Y-122368238D01*
X133949318Y-122525000D01*
X127922575Y-122525000D01*
X127927405Y-122518706D01*
X127979658Y-122450608D01*
X128012378Y-122407966D01*
X128072886Y-122261887D01*
X128093524Y-122105125D01*
X128072886Y-121948363D01*
X128012378Y-121802284D01*
X127916124Y-121676843D01*
X127887142Y-121654604D01*
X127857209Y-121631636D01*
X127790683Y-121580589D01*
X127660048Y-121526478D01*
X127652233Y-121523241D01*
X127644604Y-121520081D01*
X127487842Y-121499443D01*
X127331080Y-121520081D01*
X127323451Y-121523241D01*
X127315636Y-121526478D01*
X127185001Y-121580589D01*
X127118475Y-121631636D01*
X127088543Y-121654604D01*
X127059560Y-121676843D01*
X126963306Y-121802284D01*
X126902798Y-121948363D01*
X126882160Y-122105125D01*
X126883238Y-122113313D01*
X126897476Y-122221463D01*
X126886537Y-122291612D01*
X126839408Y-122344710D01*
X126805165Y-122359616D01*
X126800501Y-122360866D01*
X126792311Y-122361944D01*
X126646232Y-122422452D01*
X126520791Y-122518706D01*
X126515768Y-122525252D01*
X126505656Y-122538430D01*
X126424537Y-122644147D01*
X126364029Y-122790226D01*
X126343391Y-122946988D01*
X121978149Y-122946988D01*
X121959238Y-122905396D01*
X121925402Y-122830978D01*
X121888470Y-122788116D01*
X121837678Y-122729169D01*
X121837675Y-122729166D01*
X121831818Y-122722369D01*
X121711513Y-122644391D01*
X121574157Y-122603313D01*
X121565181Y-122603258D01*
X121565180Y-122603258D01*
X121504973Y-122602890D01*
X121430794Y-122602437D01*
X121292947Y-122641834D01*
X121171698Y-122718336D01*
X121076795Y-122825794D01*
X121072979Y-122833921D01*
X121068052Y-122841422D01*
X121064900Y-122839352D01*
X121029502Y-122879227D01*
X120961146Y-122898410D01*
X120926560Y-122893137D01*
X120817119Y-122860407D01*
X120808143Y-122860352D01*
X120808142Y-122860352D01*
X120762712Y-122860075D01*
X120692702Y-122859647D01*
X120624706Y-122839229D01*
X120578542Y-122785290D01*
X120568746Y-122751512D01*
X120557584Y-122673574D01*
X120552777Y-122640006D01*
X120548074Y-122629661D01*
X120506593Y-122538430D01*
X120493438Y-122509496D01*
X120456121Y-122466188D01*
X120405714Y-122407687D01*
X120405711Y-122407684D01*
X120399854Y-122400887D01*
X120279549Y-122322909D01*
X120142193Y-122281831D01*
X120133217Y-122281776D01*
X120133216Y-122281776D01*
X120073009Y-122281408D01*
X119998830Y-122280955D01*
X119990198Y-122283422D01*
X119981307Y-122284640D01*
X119980820Y-122281084D01*
X119926966Y-122280707D01*
X119867510Y-122241905D01*
X119848609Y-122212213D01*
X119794963Y-122094224D01*
X119794961Y-122094221D01*
X119791246Y-122086050D01*
X119772860Y-122064712D01*
X119703522Y-121984241D01*
X119703519Y-121984238D01*
X119697662Y-121977441D01*
X119577357Y-121899463D01*
X119440001Y-121858385D01*
X119431025Y-121858330D01*
X119431024Y-121858330D01*
X119370817Y-121857962D01*
X119296638Y-121857509D01*
X119274011Y-121863976D01*
X119203017Y-121863466D01*
X119143568Y-121824653D01*
X119124683Y-121794979D01*
X119089605Y-121717828D01*
X119089603Y-121717825D01*
X119085888Y-121709654D01*
X119024832Y-121638795D01*
X118998164Y-121607845D01*
X118998161Y-121607842D01*
X118992304Y-121601045D01*
X118877260Y-121526477D01*
X118830977Y-121472642D01*
X118821539Y-121399841D01*
X118823175Y-121390117D01*
X118844719Y-121262065D01*
X118844870Y-121249711D01*
X118831873Y-121158956D01*
X118825819Y-121116679D01*
X118825818Y-121116676D01*
X118824546Y-121107793D01*
X118819423Y-121096524D01*
X118818035Y-121093471D01*
X132941347Y-121093471D01*
X132961985Y-121250233D01*
X132965145Y-121257862D01*
X132966581Y-121261329D01*
X133022493Y-121396312D01*
X133057638Y-121442114D01*
X133108727Y-121508694D01*
X133118747Y-121521753D01*
X133244188Y-121618007D01*
X133390267Y-121678515D01*
X133547029Y-121699153D01*
X133555217Y-121698075D01*
X133695603Y-121679593D01*
X133703791Y-121678515D01*
X133849870Y-121618007D01*
X133975311Y-121521753D01*
X133985332Y-121508694D01*
X134027730Y-121453439D01*
X134085068Y-121411572D01*
X134155939Y-121407350D01*
X134217842Y-121442114D01*
X134227655Y-121453439D01*
X134246718Y-121478282D01*
X134253264Y-121483305D01*
X134282918Y-121506059D01*
X134372159Y-121574536D01*
X134518238Y-121635044D01*
X134675000Y-121655682D01*
X134683188Y-121654604D01*
X134689911Y-121653719D01*
X134831762Y-121635044D01*
X134977841Y-121574536D01*
X135067082Y-121506059D01*
X135096736Y-121483305D01*
X135103282Y-121478282D01*
X135199536Y-121352841D01*
X135260044Y-121206762D01*
X135280682Y-121050000D01*
X135260044Y-120893238D01*
X135199536Y-120747159D01*
X135115943Y-120638218D01*
X135108305Y-120628264D01*
X135103282Y-120621718D01*
X134977841Y-120525464D01*
X134831762Y-120464956D01*
X134675000Y-120444318D01*
X134518238Y-120464956D01*
X134372159Y-120525464D01*
X134246718Y-120621718D01*
X134241695Y-120628264D01*
X134194299Y-120690032D01*
X134136961Y-120731899D01*
X134066090Y-120736121D01*
X134004187Y-120701357D01*
X133994372Y-120690030D01*
X133980335Y-120671736D01*
X133980334Y-120671735D01*
X133975311Y-120665189D01*
X133849870Y-120568935D01*
X133703791Y-120508427D01*
X133547029Y-120487789D01*
X133390267Y-120508427D01*
X133244188Y-120568935D01*
X133118747Y-120665189D01*
X133022493Y-120790630D01*
X132961985Y-120936709D01*
X132941347Y-121093471D01*
X118818035Y-121093471D01*
X118778192Y-121005842D01*
X118765207Y-120977283D01*
X118729263Y-120935568D01*
X118677483Y-120875474D01*
X118677480Y-120875471D01*
X118671623Y-120868674D01*
X118551318Y-120790696D01*
X118413962Y-120749618D01*
X118404986Y-120749563D01*
X118404985Y-120749563D01*
X118344778Y-120749195D01*
X118270599Y-120748742D01*
X118132752Y-120788139D01*
X118011503Y-120864641D01*
X117916600Y-120972099D01*
X117855670Y-121101874D01*
X117846974Y-121157725D01*
X117837272Y-121220041D01*
X117833614Y-121243534D01*
X116848000Y-121243534D01*
X116848000Y-116232163D01*
X117149178Y-116232163D01*
X117169816Y-116388925D01*
X117230324Y-116535004D01*
X117285068Y-116606348D01*
X117319882Y-116651718D01*
X117326578Y-116660445D01*
X117333124Y-116665468D01*
X117388312Y-116707815D01*
X117430179Y-116765153D01*
X117434401Y-116836024D01*
X117400703Y-116896873D01*
X117400381Y-116897195D01*
X117393835Y-116902218D01*
X117297581Y-117027659D01*
X117237073Y-117173738D01*
X117235995Y-117181926D01*
X117234302Y-117194789D01*
X117216435Y-117330500D01*
X117218872Y-117349012D01*
X117235899Y-117478341D01*
X117237073Y-117487262D01*
X117297581Y-117633341D01*
X117352549Y-117704977D01*
X117388191Y-117751426D01*
X117393835Y-117758782D01*
X117400381Y-117763805D01*
X117413690Y-117774017D01*
X117519276Y-117855036D01*
X117665355Y-117915544D01*
X117822117Y-117936182D01*
X117830305Y-117935104D01*
X117970691Y-117916622D01*
X117978879Y-117915544D01*
X118124958Y-117855036D01*
X118230544Y-117774017D01*
X118243853Y-117763805D01*
X118250399Y-117758782D01*
X118256044Y-117751426D01*
X118291685Y-117704977D01*
X118346653Y-117633341D01*
X118407161Y-117487262D01*
X118408336Y-117478341D01*
X118425362Y-117349012D01*
X118427799Y-117330500D01*
X118409932Y-117194789D01*
X118408239Y-117181926D01*
X118407161Y-117173738D01*
X118346653Y-117027659D01*
X118250399Y-116902218D01*
X118221821Y-116880289D01*
X118188665Y-116854848D01*
X118146798Y-116797510D01*
X118142576Y-116726639D01*
X118176274Y-116665790D01*
X118176596Y-116665468D01*
X118183142Y-116660445D01*
X118189839Y-116651718D01*
X118224652Y-116606348D01*
X118279396Y-116535004D01*
X118339904Y-116388925D01*
X118353705Y-116284093D01*
X118382427Y-116219167D01*
X118441692Y-116180075D01*
X118488162Y-116176194D01*
X118488162Y-116175795D01*
X118492938Y-116175795D01*
X118495068Y-116175617D01*
X118504608Y-116176873D01*
X118512796Y-116175795D01*
X118653182Y-116157313D01*
X118661370Y-116156235D01*
X118807449Y-116095727D01*
X118896690Y-116027250D01*
X118926344Y-116004496D01*
X118932890Y-115999473D01*
X118944438Y-115984424D01*
X118979530Y-115938690D01*
X119029144Y-115874032D01*
X119089652Y-115727953D01*
X119110290Y-115571191D01*
X119089652Y-115414429D01*
X119029144Y-115268350D01*
X118932890Y-115142909D01*
X118807449Y-115046655D01*
X118661370Y-114986147D01*
X118504608Y-114965509D01*
X118347846Y-114986147D01*
X118201767Y-115046655D01*
X118076326Y-115142909D01*
X117980072Y-115268350D01*
X117919564Y-115414429D01*
X117911217Y-115477835D01*
X117905763Y-115519260D01*
X117877041Y-115584187D01*
X117817776Y-115623279D01*
X117771306Y-115627160D01*
X117771306Y-115627559D01*
X117766530Y-115627559D01*
X117764400Y-115627737D01*
X117754860Y-115626481D01*
X117598098Y-115647119D01*
X117452019Y-115707627D01*
X117326578Y-115803881D01*
X117321555Y-115810427D01*
X117311102Y-115824050D01*
X117230324Y-115929322D01*
X117169816Y-116075401D01*
X117149178Y-116232163D01*
X116848000Y-116232163D01*
X116848000Y-115045680D01*
X116868002Y-114977559D01*
X116894707Y-114947759D01*
X116909902Y-114935455D01*
X116909906Y-114935450D01*
X116916579Y-114930047D01*
X116926475Y-114916122D01*
X116940086Y-114900017D01*
X118129603Y-113710500D01*
X120924318Y-113710500D01*
X120944956Y-113867262D01*
X121005464Y-114013341D01*
X121101718Y-114138782D01*
X121227159Y-114235036D01*
X121373238Y-114295544D01*
X121530000Y-114316182D01*
X121538188Y-114315104D01*
X121678574Y-114296622D01*
X121686762Y-114295544D01*
X121832841Y-114235036D01*
X121958282Y-114138782D01*
X122054536Y-114013341D01*
X122115044Y-113867262D01*
X122135682Y-113710500D01*
X122123768Y-113620000D01*
X122974318Y-113620000D01*
X122994956Y-113776762D01*
X123055464Y-113922841D01*
X123151718Y-114048282D01*
X123277159Y-114144536D01*
X123423238Y-114205044D01*
X123580000Y-114225682D01*
X123588188Y-114224604D01*
X123595792Y-114223603D01*
X123736762Y-114205044D01*
X123882841Y-114144536D01*
X124008282Y-114048282D01*
X124104536Y-113922841D01*
X124165044Y-113776762D01*
X124185682Y-113620000D01*
X124173818Y-113529883D01*
X124166122Y-113471426D01*
X124165044Y-113463238D01*
X124104536Y-113317159D01*
X124008282Y-113191718D01*
X123882841Y-113095464D01*
X123736762Y-113034956D01*
X123580000Y-113014318D01*
X123423238Y-113034956D01*
X123277159Y-113095464D01*
X123151718Y-113191718D01*
X123055464Y-113317159D01*
X122994956Y-113463238D01*
X122993878Y-113471426D01*
X122986182Y-113529883D01*
X122974318Y-113620000D01*
X122123768Y-113620000D01*
X122115044Y-113553738D01*
X122111428Y-113545007D01*
X122080949Y-113471426D01*
X122054536Y-113407659D01*
X121958282Y-113282218D01*
X121944841Y-113271904D01*
X121868733Y-113213505D01*
X121832841Y-113185964D01*
X121686762Y-113125456D01*
X121530000Y-113104818D01*
X121373238Y-113125456D01*
X121227159Y-113185964D01*
X121191267Y-113213505D01*
X121115160Y-113271904D01*
X121101718Y-113282218D01*
X121005464Y-113407659D01*
X120979051Y-113471426D01*
X120948573Y-113545007D01*
X120944956Y-113553738D01*
X120924318Y-113710500D01*
X118129603Y-113710500D01*
X118175401Y-113664702D01*
X118179210Y-113661049D01*
X118188720Y-113652304D01*
X118222091Y-113621618D01*
X118243480Y-113587121D01*
X118250205Y-113577337D01*
X118269551Y-113551849D01*
X118269552Y-113551847D01*
X118274744Y-113545007D01*
X118279707Y-113532472D01*
X118289772Y-113512460D01*
X118296879Y-113500998D01*
X118308204Y-113462017D01*
X118312049Y-113450788D01*
X118323827Y-113421039D01*
X118323827Y-113421038D01*
X118326990Y-113413050D01*
X118327889Y-113404502D01*
X118328401Y-113399636D01*
X118332711Y-113377664D01*
X118334633Y-113371048D01*
X118334633Y-113371046D01*
X118336474Y-113364710D01*
X118337213Y-113354646D01*
X118337213Y-113322390D01*
X118337903Y-113309219D01*
X118340927Y-113280446D01*
X118341825Y-113271904D01*
X118338977Y-113255064D01*
X118337213Y-113234052D01*
X118337213Y-112330000D01*
X118954818Y-112330000D01*
X118955896Y-112338188D01*
X118971345Y-112455532D01*
X118975456Y-112486762D01*
X119035964Y-112632841D01*
X119132218Y-112758282D01*
X119257659Y-112854536D01*
X119403738Y-112915044D01*
X119560500Y-112935682D01*
X119568688Y-112934604D01*
X119709074Y-112916122D01*
X119717262Y-112915044D01*
X119863341Y-112854536D01*
X119988782Y-112758282D01*
X120085036Y-112632841D01*
X120145544Y-112486762D01*
X120149656Y-112455532D01*
X120165104Y-112338188D01*
X120166182Y-112330000D01*
X120145544Y-112173238D01*
X120085036Y-112027159D01*
X119988782Y-111901718D01*
X119863341Y-111805464D01*
X119717262Y-111744956D01*
X119560500Y-111724318D01*
X119403738Y-111744956D01*
X119257659Y-111805464D01*
X119132218Y-111901718D01*
X119035964Y-112027159D01*
X118975456Y-112173238D01*
X118954818Y-112330000D01*
X118337213Y-112330000D01*
X118337213Y-110679973D01*
X120976686Y-110679973D01*
X120997324Y-110836735D01*
X121057832Y-110982814D01*
X121154086Y-111108255D01*
X121279527Y-111204509D01*
X121425606Y-111265017D01*
X121582368Y-111285655D01*
X121590556Y-111284577D01*
X121730942Y-111266095D01*
X121739130Y-111265017D01*
X121885209Y-111204509D01*
X122010650Y-111108255D01*
X122106904Y-110982814D01*
X122167412Y-110836735D01*
X122188050Y-110679973D01*
X122170322Y-110545318D01*
X122168490Y-110531399D01*
X122167412Y-110523211D01*
X122163446Y-110513635D01*
X122156530Y-110496940D01*
X122106904Y-110377132D01*
X122010650Y-110251691D01*
X122001137Y-110244391D01*
X121891760Y-110160464D01*
X121885209Y-110155437D01*
X121739130Y-110094929D01*
X121725633Y-110093152D01*
X121660749Y-110084610D01*
X121625732Y-110080000D01*
X122944318Y-110080000D01*
X122964956Y-110236762D01*
X123025464Y-110382841D01*
X123121718Y-110508282D01*
X123128264Y-110513305D01*
X123138902Y-110521468D01*
X123247159Y-110604536D01*
X123336678Y-110641616D01*
X123382529Y-110660608D01*
X123393238Y-110665044D01*
X123550000Y-110685682D01*
X123558188Y-110684604D01*
X123698574Y-110666122D01*
X123706762Y-110665044D01*
X123717472Y-110660608D01*
X123763322Y-110641616D01*
X123852841Y-110604536D01*
X123961098Y-110521468D01*
X123971736Y-110513305D01*
X123978282Y-110508282D01*
X124074536Y-110382841D01*
X124135044Y-110236762D01*
X124155682Y-110080000D01*
X124135044Y-109923238D01*
X124131614Y-109914956D01*
X124077696Y-109784789D01*
X124074536Y-109777159D01*
X123978282Y-109651718D01*
X123852841Y-109555464D01*
X123706762Y-109494956D01*
X123550000Y-109474318D01*
X123393238Y-109494956D01*
X123247159Y-109555464D01*
X123121718Y-109651718D01*
X123025464Y-109777159D01*
X123022304Y-109784789D01*
X122968387Y-109914956D01*
X122964956Y-109923238D01*
X122944318Y-110080000D01*
X121625732Y-110080000D01*
X121582368Y-110074291D01*
X121503987Y-110084610D01*
X121439104Y-110093152D01*
X121425606Y-110094929D01*
X121279527Y-110155437D01*
X121272976Y-110160464D01*
X121163600Y-110244391D01*
X121154086Y-110251691D01*
X121057832Y-110377132D01*
X121008206Y-110496940D01*
X121001291Y-110513635D01*
X120997324Y-110523211D01*
X120996246Y-110531399D01*
X120994414Y-110545318D01*
X120976686Y-110679973D01*
X118337213Y-110679973D01*
X118337213Y-108159622D01*
X120753940Y-108159622D01*
X120774578Y-108316384D01*
X120835086Y-108462463D01*
X120931340Y-108587904D01*
X121056781Y-108684158D01*
X121202860Y-108744666D01*
X121211048Y-108745744D01*
X121255886Y-108751647D01*
X121359622Y-108765304D01*
X121367810Y-108764226D01*
X121508196Y-108745744D01*
X121516384Y-108744666D01*
X121662463Y-108684158D01*
X121787904Y-108587904D01*
X121884158Y-108462463D01*
X121944666Y-108316384D01*
X121964396Y-108166518D01*
X121993118Y-108101591D01*
X122052383Y-108062499D01*
X122105764Y-108058042D01*
X122151811Y-108064104D01*
X122151812Y-108064104D01*
X122160000Y-108065182D01*
X122168188Y-108064104D01*
X122180380Y-108062499D01*
X122316762Y-108044544D01*
X122462841Y-107984036D01*
X122588282Y-107887782D01*
X122684536Y-107762341D01*
X122745044Y-107616262D01*
X122765682Y-107459500D01*
X122745044Y-107302738D01*
X122727185Y-107259622D01*
X124224696Y-107259622D01*
X124245334Y-107416384D01*
X124305842Y-107562463D01*
X124402096Y-107687904D01*
X124527537Y-107784158D01*
X124673616Y-107844666D01*
X124830378Y-107865304D01*
X124838566Y-107864226D01*
X124978952Y-107845744D01*
X124987140Y-107844666D01*
X125133219Y-107784158D01*
X125258660Y-107687904D01*
X125354914Y-107562463D01*
X125415422Y-107416384D01*
X125436060Y-107259622D01*
X125415422Y-107102860D01*
X125354914Y-106956781D01*
X125275908Y-106853818D01*
X125263683Y-106837886D01*
X125258660Y-106831340D01*
X125133219Y-106735086D01*
X124987140Y-106674578D01*
X124830378Y-106653940D01*
X124673616Y-106674578D01*
X124527537Y-106735086D01*
X124402096Y-106831340D01*
X124397073Y-106837886D01*
X124384848Y-106853818D01*
X124305842Y-106956781D01*
X124245334Y-107102860D01*
X124224696Y-107259622D01*
X122727185Y-107259622D01*
X122684536Y-107156659D01*
X122588282Y-107031218D01*
X122462841Y-106934964D01*
X122316762Y-106874456D01*
X122160000Y-106853818D01*
X122003238Y-106874456D01*
X121857159Y-106934964D01*
X121731718Y-107031218D01*
X121635464Y-107156659D01*
X121574956Y-107302738D01*
X121573878Y-107310926D01*
X121555226Y-107452604D01*
X121526504Y-107517531D01*
X121467239Y-107556623D01*
X121413858Y-107561080D01*
X121367811Y-107555018D01*
X121367810Y-107555018D01*
X121359622Y-107553940D01*
X121202860Y-107574578D01*
X121056781Y-107635086D01*
X120931340Y-107731340D01*
X120835086Y-107856781D01*
X120774578Y-108002860D01*
X120753940Y-108159622D01*
X118337213Y-108159622D01*
X118337213Y-104397949D01*
X118357215Y-104329828D01*
X118374118Y-104308853D01*
X118567147Y-104115825D01*
X118777399Y-103905573D01*
X118787199Y-103896749D01*
X118809687Y-103878539D01*
X118809689Y-103878537D01*
X118816361Y-103873134D01*
X118826257Y-103859209D01*
X118839868Y-103843104D01*
X119790147Y-102892825D01*
X120740566Y-101942405D01*
X120802878Y-101908380D01*
X120829661Y-101905500D01*
X120963834Y-101905500D01*
X120981752Y-101903806D01*
X120987722Y-101903242D01*
X120987723Y-101903242D01*
X120995369Y-101902519D01*
X121123184Y-101857634D01*
X121130754Y-101852042D01*
X121130757Y-101852041D01*
X121224579Y-101782742D01*
X121232150Y-101777150D01*
X121237742Y-101769579D01*
X121237745Y-101769576D01*
X121308649Y-101673580D01*
X121365210Y-101630669D01*
X121435992Y-101625149D01*
X121498521Y-101658773D01*
X121511351Y-101673580D01*
X121582255Y-101769576D01*
X121582258Y-101769579D01*
X121587850Y-101777150D01*
X121595421Y-101782742D01*
X121689243Y-101852041D01*
X121689246Y-101852042D01*
X121696816Y-101857634D01*
X121824631Y-101902519D01*
X121832277Y-101903242D01*
X121832278Y-101903242D01*
X121838248Y-101903806D01*
X121856166Y-101905500D01*
X122463834Y-101905500D01*
X122481752Y-101903806D01*
X122487722Y-101903242D01*
X122487723Y-101903242D01*
X122495369Y-101902519D01*
X122623184Y-101857634D01*
X122630754Y-101852042D01*
X122630757Y-101852041D01*
X122724579Y-101782742D01*
X122732150Y-101777150D01*
X122783205Y-101708028D01*
X122807041Y-101675757D01*
X122807042Y-101675754D01*
X122812634Y-101668184D01*
X122817606Y-101654027D01*
X122859047Y-101596383D01*
X122925076Y-101570294D01*
X122994729Y-101584044D01*
X123045890Y-101633268D01*
X123055370Y-101654027D01*
X123064244Y-101679297D01*
X123064247Y-101679303D01*
X123067366Y-101688184D01*
X123072958Y-101695754D01*
X123072959Y-101695757D01*
X123122461Y-101762776D01*
X123147850Y-101797150D01*
X123155421Y-101802742D01*
X123249243Y-101872041D01*
X123249246Y-101872042D01*
X123256816Y-101877634D01*
X123384631Y-101922519D01*
X123392277Y-101923242D01*
X123392278Y-101923242D01*
X123398248Y-101923806D01*
X123416166Y-101925500D01*
X124023834Y-101925500D01*
X124041752Y-101923806D01*
X124047722Y-101923242D01*
X124047723Y-101923242D01*
X124055369Y-101922519D01*
X124183184Y-101877634D01*
X124190754Y-101872042D01*
X124190757Y-101872041D01*
X124284579Y-101802742D01*
X124292150Y-101797150D01*
X124297742Y-101789579D01*
X124297745Y-101789576D01*
X124368649Y-101693580D01*
X124425210Y-101650669D01*
X124495992Y-101645149D01*
X124558521Y-101678773D01*
X124571351Y-101693580D01*
X124642255Y-101789576D01*
X124642258Y-101789579D01*
X124647850Y-101797150D01*
X124655421Y-101802742D01*
X124749243Y-101872041D01*
X124749246Y-101872042D01*
X124756816Y-101877634D01*
X124884631Y-101922519D01*
X124892277Y-101923242D01*
X124892278Y-101923242D01*
X124898248Y-101923806D01*
X124916166Y-101925500D01*
X125523834Y-101925500D01*
X125541752Y-101923806D01*
X125547722Y-101923242D01*
X125547723Y-101923242D01*
X125555369Y-101922519D01*
X125683184Y-101877634D01*
X125690754Y-101872042D01*
X125690757Y-101872041D01*
X125784579Y-101802742D01*
X125792150Y-101797150D01*
X125797742Y-101789579D01*
X125797745Y-101789576D01*
X125868649Y-101693580D01*
X125925210Y-101650669D01*
X125995992Y-101645149D01*
X126058521Y-101678773D01*
X126071351Y-101693580D01*
X126142251Y-101789571D01*
X126142255Y-101789575D01*
X126147850Y-101797150D01*
X126174273Y-101816666D01*
X126225451Y-101854467D01*
X126266226Y-101905774D01*
X126269340Y-101912970D01*
X126269344Y-101912977D01*
X126272756Y-101920861D01*
X126278163Y-101927538D01*
X126281241Y-101931339D01*
X126293734Y-101949931D01*
X126295162Y-101952528D01*
X126300231Y-101961749D01*
X126306825Y-101969387D01*
X126329627Y-101992189D01*
X126338453Y-102001990D01*
X126356666Y-102024482D01*
X126356668Y-102024484D01*
X126362071Y-102031156D01*
X126369070Y-102036130D01*
X126369071Y-102036131D01*
X126375996Y-102041052D01*
X126392101Y-102054663D01*
X127805095Y-103467657D01*
X127839121Y-103529969D01*
X127842000Y-103556752D01*
X127842000Y-104332729D01*
X127821998Y-104400850D01*
X127768342Y-104447343D01*
X127698068Y-104457447D01*
X127633488Y-104427953D01*
X127605315Y-104388883D01*
X127604290Y-104389475D01*
X127600162Y-104382324D01*
X127597001Y-104374694D01*
X127500747Y-104249253D01*
X127375306Y-104152999D01*
X127229227Y-104092491D01*
X127072465Y-104071853D01*
X126915703Y-104092491D01*
X126769624Y-104152999D01*
X126644183Y-104249253D01*
X126547929Y-104374694D01*
X126487421Y-104520773D01*
X126466783Y-104677535D01*
X126487421Y-104834297D01*
X126547929Y-104980376D01*
X126564785Y-105002343D01*
X126635957Y-105095096D01*
X126644183Y-105105817D01*
X126769624Y-105202071D01*
X126915703Y-105262579D01*
X127072465Y-105283217D01*
X127080653Y-105282139D01*
X127093954Y-105280388D01*
X127229227Y-105262579D01*
X127375306Y-105202071D01*
X127500747Y-105105817D01*
X127508974Y-105095096D01*
X127580145Y-105002343D01*
X127597001Y-104980376D01*
X127600162Y-104972746D01*
X127604290Y-104965595D01*
X127605774Y-104966452D01*
X127644138Y-104918843D01*
X127711501Y-104896421D01*
X127780293Y-104913979D01*
X127828672Y-104965940D01*
X127842000Y-105022341D01*
X127842000Y-105165760D01*
X127841889Y-105171036D01*
X127839451Y-105229206D01*
X127841413Y-105237570D01*
X127841413Y-105237573D01*
X127848718Y-105268720D01*
X127850881Y-105280388D01*
X127856391Y-105320610D01*
X127859802Y-105328492D01*
X127861745Y-105332982D01*
X127868779Y-105354250D01*
X127869897Y-105359015D01*
X127871859Y-105367380D01*
X127891413Y-105402949D01*
X127896634Y-105413606D01*
X127912756Y-105450861D01*
X127918163Y-105457538D01*
X127921241Y-105461339D01*
X127933734Y-105479931D01*
X127940231Y-105491749D01*
X127946825Y-105499387D01*
X127969627Y-105522189D01*
X127978452Y-105531989D01*
X128002071Y-105561156D01*
X128015992Y-105571049D01*
X128032099Y-105584661D01*
X128453648Y-106006211D01*
X128457300Y-106010020D01*
X128496710Y-106052878D01*
X128531221Y-106074276D01*
X128540988Y-106080990D01*
X128573321Y-106105531D01*
X128581306Y-106108692D01*
X128581305Y-106108692D01*
X128585856Y-106110494D01*
X128605866Y-106120558D01*
X128617330Y-106127666D01*
X128655058Y-106138627D01*
X128656311Y-106138991D01*
X128667540Y-106142836D01*
X128697289Y-106154614D01*
X128705278Y-106157777D01*
X128713823Y-106158675D01*
X128713826Y-106158676D01*
X128718692Y-106159188D01*
X128740664Y-106163498D01*
X128747280Y-106165420D01*
X128747282Y-106165420D01*
X128753618Y-106167261D01*
X128763682Y-106168000D01*
X128795938Y-106168000D01*
X128809109Y-106168690D01*
X128846424Y-106172612D01*
X128854896Y-106171179D01*
X128854897Y-106171179D01*
X128863256Y-106169765D01*
X128884269Y-106168000D01*
X132176000Y-106168000D01*
X132244121Y-106188002D01*
X132290614Y-106241658D01*
X132302000Y-106294000D01*
X132302000Y-113562747D01*
X132281998Y-113630868D01*
X132265095Y-113651842D01*
X131275388Y-114641550D01*
X131275335Y-114641601D01*
X131218844Y-114698092D01*
X131156532Y-114732118D01*
X131085717Y-114727053D01*
X131040654Y-114698092D01*
X128974710Y-112632148D01*
X128940684Y-112569836D01*
X128945749Y-112499021D01*
X128988296Y-112442185D01*
X129047358Y-112418131D01*
X129138574Y-112406122D01*
X129146762Y-112405044D01*
X129292841Y-112344536D01*
X129382082Y-112276059D01*
X129411736Y-112253305D01*
X129418282Y-112248282D01*
X129514536Y-112122841D01*
X129575044Y-111976762D01*
X129583216Y-111914693D01*
X129594604Y-111828188D01*
X129595682Y-111820000D01*
X129582646Y-111720982D01*
X129576122Y-111671426D01*
X129575044Y-111663238D01*
X129514536Y-111517159D01*
X129418282Y-111391718D01*
X129292841Y-111295464D01*
X129146762Y-111234956D01*
X129069231Y-111224749D01*
X129004304Y-111196027D01*
X128965212Y-111136762D01*
X128960755Y-111083381D01*
X128974604Y-110978188D01*
X128975682Y-110970000D01*
X128955044Y-110813238D01*
X128894536Y-110667159D01*
X128798282Y-110541718D01*
X128789736Y-110535160D01*
X128733243Y-110491812D01*
X128672841Y-110445464D01*
X128545053Y-110392532D01*
X128534391Y-110388116D01*
X128526762Y-110384956D01*
X128370000Y-110364318D01*
X128213238Y-110384956D01*
X128205609Y-110388116D01*
X128194947Y-110392532D01*
X128067159Y-110445464D01*
X128006757Y-110491812D01*
X127950265Y-110535160D01*
X127941718Y-110541718D01*
X127845464Y-110667159D01*
X127784956Y-110813238D01*
X127764318Y-110970000D01*
X127765396Y-110978188D01*
X127784361Y-111122241D01*
X127773422Y-111192389D01*
X127726294Y-111245488D01*
X127657940Y-111264678D01*
X127590062Y-111243867D01*
X127570344Y-111227782D01*
X126963374Y-110620812D01*
X126959721Y-110617003D01*
X126926108Y-110580449D01*
X126920290Y-110574122D01*
X126885784Y-110552727D01*
X126876015Y-110546012D01*
X126850525Y-110526663D01*
X126850518Y-110526659D01*
X126843679Y-110521468D01*
X126831142Y-110516504D01*
X126811134Y-110506441D01*
X126806970Y-110503859D01*
X126806964Y-110503856D01*
X126799670Y-110499334D01*
X126760693Y-110488010D01*
X126749480Y-110484172D01*
X126746566Y-110483019D01*
X126743693Y-110481881D01*
X126687715Y-110438214D01*
X126664230Y-110371214D01*
X126680697Y-110302154D01*
X126713359Y-110264762D01*
X126781232Y-110212681D01*
X126781236Y-110212677D01*
X126787782Y-110207654D01*
X126884036Y-110082213D01*
X126944544Y-109936134D01*
X126965182Y-109779372D01*
X126944544Y-109622610D01*
X126884036Y-109476531D01*
X126787782Y-109351090D01*
X126662341Y-109254836D01*
X126516262Y-109194328D01*
X126359500Y-109173690D01*
X126202738Y-109194328D01*
X126056659Y-109254836D01*
X125931218Y-109351090D01*
X125834964Y-109476531D01*
X125774456Y-109622610D01*
X125753818Y-109779372D01*
X125774456Y-109936134D01*
X125834964Y-110082213D01*
X125931218Y-110207654D01*
X125937764Y-110212677D01*
X125964298Y-110233037D01*
X126006165Y-110290375D01*
X126010387Y-110361246D01*
X125975623Y-110423149D01*
X125912911Y-110456430D01*
X125887594Y-110459000D01*
X125671865Y-110459000D01*
X125666589Y-110458889D01*
X125655231Y-110458413D01*
X125608419Y-110456451D01*
X125600055Y-110458413D01*
X125600052Y-110458413D01*
X125568905Y-110465718D01*
X125557237Y-110467881D01*
X125549205Y-110468981D01*
X125517015Y-110473391D01*
X125509133Y-110476802D01*
X125504643Y-110478745D01*
X125483375Y-110485779D01*
X125478609Y-110486897D01*
X125478606Y-110486898D01*
X125470245Y-110488859D01*
X125434666Y-110508419D01*
X125424021Y-110513634D01*
X125386764Y-110529756D01*
X125376281Y-110538245D01*
X125357699Y-110550731D01*
X125345877Y-110557231D01*
X125338238Y-110563825D01*
X125315436Y-110586627D01*
X125305635Y-110595453D01*
X125283143Y-110613666D01*
X125283141Y-110613668D01*
X125276469Y-110619071D01*
X125271495Y-110626070D01*
X125271494Y-110626071D01*
X125266573Y-110632996D01*
X125252962Y-110649101D01*
X124917176Y-110984887D01*
X124876299Y-111012201D01*
X124737593Y-111069655D01*
X124612152Y-111165909D01*
X124607129Y-111172455D01*
X124551928Y-111244395D01*
X124494590Y-111286262D01*
X124451965Y-111293691D01*
X122678675Y-111293691D01*
X122676002Y-111293495D01*
X122670967Y-111291766D01*
X122659345Y-111292202D01*
X122659343Y-111292202D01*
X122622054Y-111293602D01*
X122617328Y-111293691D01*
X122598361Y-111293691D01*
X122593626Y-111294573D01*
X122590100Y-111294801D01*
X122586360Y-111294942D01*
X122559101Y-111295965D01*
X122548416Y-111300555D01*
X122543816Y-111301592D01*
X122532095Y-111305153D01*
X122527692Y-111306852D01*
X122516256Y-111308982D01*
X122504308Y-111316347D01*
X122495270Y-111321918D01*
X122478898Y-111330422D01*
X122464421Y-111336642D01*
X122464417Y-111336644D01*
X122456246Y-111340155D01*
X122451360Y-111344169D01*
X122449175Y-111346354D01*
X122446912Y-111348406D01*
X122446767Y-111348246D01*
X122437760Y-111355366D01*
X122430865Y-111361618D01*
X122420961Y-111367723D01*
X122404393Y-111389511D01*
X122393199Y-111402330D01*
X122223875Y-111571654D01*
X122161563Y-111605680D01*
X122118334Y-111607481D01*
X122028438Y-111595646D01*
X122020250Y-111594568D01*
X122012062Y-111595646D01*
X121922166Y-111607481D01*
X121863488Y-111615206D01*
X121717409Y-111675714D01*
X121591968Y-111771968D01*
X121495714Y-111897409D01*
X121435206Y-112043488D01*
X121414568Y-112200250D01*
X121421403Y-112252165D01*
X121433980Y-112347696D01*
X121435206Y-112357012D01*
X121438366Y-112364641D01*
X121442569Y-112374789D01*
X121495714Y-112503091D01*
X121591968Y-112628532D01*
X121717409Y-112724786D01*
X121863488Y-112785294D01*
X122020250Y-112805932D01*
X122028438Y-112804854D01*
X122168824Y-112786372D01*
X122177012Y-112785294D01*
X122323091Y-112724786D01*
X122448532Y-112628532D01*
X122544786Y-112503091D01*
X122597931Y-112374789D01*
X122602134Y-112364641D01*
X122605294Y-112357012D01*
X122606521Y-112347696D01*
X122619097Y-112252165D01*
X122625932Y-112200250D01*
X122613019Y-112102166D01*
X122623958Y-112032018D01*
X122648846Y-111996625D01*
X122713875Y-111931596D01*
X122776187Y-111897570D01*
X122802970Y-111894691D01*
X124451965Y-111894691D01*
X124520086Y-111914693D01*
X124551927Y-111943986D01*
X124612152Y-112022473D01*
X124618697Y-112027495D01*
X124619518Y-112028125D01*
X124620035Y-112028833D01*
X124624543Y-112033341D01*
X124623840Y-112034044D01*
X124661389Y-112085460D01*
X124665615Y-112156331D01*
X124630855Y-112218236D01*
X124619524Y-112228055D01*
X124601718Y-112241718D01*
X124505464Y-112367159D01*
X124444956Y-112513238D01*
X124424318Y-112670000D01*
X124444956Y-112826762D01*
X124505464Y-112972841D01*
X124601718Y-113098282D01*
X124727159Y-113194536D01*
X124873238Y-113255044D01*
X125030000Y-113275682D01*
X125038188Y-113274604D01*
X125178574Y-113256122D01*
X125186762Y-113255044D01*
X125332841Y-113194536D01*
X125458282Y-113098282D01*
X125554536Y-112972841D01*
X125615044Y-112826762D01*
X125615808Y-112820960D01*
X125652178Y-112761287D01*
X125716038Y-112730264D01*
X125753381Y-112729597D01*
X125869387Y-112744869D01*
X125869388Y-112744869D01*
X125877576Y-112745947D01*
X125885764Y-112744869D01*
X125892449Y-112743989D01*
X126034338Y-112725309D01*
X126180417Y-112664801D01*
X126305858Y-112568547D01*
X126402112Y-112443106D01*
X126462620Y-112297027D01*
X126483258Y-112140265D01*
X126462620Y-111983503D01*
X126456437Y-111968574D01*
X126423373Y-111888752D01*
X126415784Y-111818162D01*
X126447563Y-111754675D01*
X126508622Y-111718448D01*
X126579573Y-111720982D01*
X126628877Y-111751439D01*
X130308093Y-115430655D01*
X130342119Y-115492967D01*
X130337054Y-115563782D01*
X130308093Y-115608845D01*
X129066742Y-116850196D01*
X129025868Y-116877509D01*
X128945688Y-116910720D01*
X128875101Y-116918309D01*
X128808377Y-116883406D01*
X127899519Y-115974548D01*
X127897763Y-115972514D01*
X127895425Y-115967731D01*
X127879802Y-115953238D01*
X127859523Y-115934427D01*
X127856118Y-115931147D01*
X127842723Y-115917752D01*
X127838753Y-115915028D01*
X127836105Y-115912703D01*
X127821881Y-115899508D01*
X127821878Y-115899506D01*
X127813354Y-115891599D01*
X127802550Y-115887289D01*
X127798561Y-115884767D01*
X127787773Y-115879006D01*
X127783448Y-115877089D01*
X127773854Y-115870508D01*
X127762535Y-115867822D01*
X127762533Y-115867821D01*
X127749873Y-115864817D01*
X127732276Y-115859252D01*
X127717638Y-115853412D01*
X127717635Y-115853411D01*
X127709378Y-115850117D01*
X127703085Y-115849500D01*
X127700006Y-115849500D01*
X127696933Y-115849350D01*
X127696944Y-115849134D01*
X127685569Y-115847802D01*
X127676254Y-115847346D01*
X127664934Y-115844660D01*
X127653405Y-115846229D01*
X127653404Y-115846229D01*
X127637827Y-115848349D01*
X127620836Y-115849500D01*
X125268469Y-115849500D01*
X125200348Y-115829498D01*
X125168506Y-115800204D01*
X125113305Y-115728264D01*
X125108282Y-115721718D01*
X124982841Y-115625464D01*
X124836762Y-115564956D01*
X124821928Y-115563003D01*
X124688188Y-115545396D01*
X124680000Y-115544318D01*
X124671812Y-115545396D01*
X124538073Y-115563003D01*
X124523238Y-115564956D01*
X124377159Y-115625464D01*
X124251718Y-115721718D01*
X124246695Y-115728264D01*
X124191494Y-115800204D01*
X124134156Y-115842071D01*
X124091531Y-115849500D01*
X123792366Y-115849500D01*
X123789693Y-115849304D01*
X123784658Y-115847575D01*
X123773036Y-115848011D01*
X123773034Y-115848011D01*
X123735744Y-115849411D01*
X123731018Y-115849500D01*
X123712052Y-115849500D01*
X123707317Y-115850381D01*
X123703790Y-115850610D01*
X123699254Y-115850780D01*
X123672791Y-115851774D01*
X123662104Y-115856366D01*
X123657492Y-115857405D01*
X123645800Y-115860957D01*
X123641383Y-115862661D01*
X123629947Y-115864791D01*
X123608961Y-115877727D01*
X123592589Y-115886231D01*
X123578112Y-115892451D01*
X123578108Y-115892453D01*
X123569937Y-115895964D01*
X123565051Y-115899978D01*
X123562866Y-115902163D01*
X123560603Y-115904215D01*
X123560458Y-115904055D01*
X123551451Y-115911175D01*
X123544556Y-115917427D01*
X123534652Y-115923532D01*
X123518084Y-115945320D01*
X123506890Y-115958139D01*
X122962434Y-116502595D01*
X122900122Y-116536621D01*
X122873339Y-116539500D01*
X122212365Y-116539500D01*
X122209694Y-116539304D01*
X122204658Y-116537575D01*
X122193030Y-116538012D01*
X122189311Y-116537463D01*
X122159483Y-116529220D01*
X122084395Y-116498117D01*
X122084390Y-116498116D01*
X122076762Y-116494956D01*
X122068578Y-116493879D01*
X122068576Y-116493878D01*
X121928188Y-116475396D01*
X121920000Y-116474318D01*
X121763238Y-116494956D01*
X121617159Y-116555464D01*
X121539627Y-116614956D01*
X121500540Y-116644949D01*
X121491718Y-116651718D01*
X121486695Y-116658264D01*
X121475569Y-116672764D01*
X121395464Y-116777159D01*
X121334956Y-116923238D01*
X121314318Y-117080000D01*
X121315396Y-117088188D01*
X121329509Y-117195384D01*
X121334956Y-117236762D01*
X121395464Y-117382841D01*
X121491718Y-117508282D01*
X121617159Y-117604536D01*
X121763238Y-117665044D01*
X121920000Y-117685682D01*
X121928188Y-117684604D01*
X122068574Y-117666122D01*
X122076762Y-117665044D01*
X122222841Y-117604536D01*
X122348282Y-117508282D01*
X122352592Y-117502665D01*
X122414428Y-117468899D01*
X122485243Y-117473964D01*
X122542079Y-117516511D01*
X122566890Y-117583031D01*
X122557620Y-117640238D01*
X122536725Y-117690684D01*
X122514956Y-117743238D01*
X122513878Y-117751426D01*
X122495965Y-117887489D01*
X122467243Y-117952416D01*
X122407977Y-117991508D01*
X122387489Y-117995965D01*
X122291380Y-118008618D01*
X122243238Y-118014956D01*
X122097159Y-118075464D01*
X121971718Y-118171718D01*
X121966695Y-118178264D01*
X121954535Y-118194111D01*
X121875464Y-118297159D01*
X121849270Y-118360398D01*
X121818387Y-118434956D01*
X121814956Y-118443238D01*
X121794318Y-118600000D01*
X121814956Y-118756762D01*
X121875464Y-118902841D01*
X121971718Y-119028282D01*
X122097159Y-119124536D01*
X122243238Y-119185044D01*
X122400000Y-119205682D01*
X122408188Y-119204604D01*
X122548574Y-119186122D01*
X122556762Y-119185044D01*
X122702841Y-119124536D01*
X122828282Y-119028282D01*
X122924536Y-118902841D01*
X122985044Y-118756762D01*
X122991120Y-118710608D01*
X123004035Y-118612511D01*
X123032757Y-118547584D01*
X123092023Y-118508492D01*
X123112511Y-118504035D01*
X123248574Y-118486122D01*
X123256762Y-118485044D01*
X123402841Y-118424536D01*
X123528282Y-118328282D01*
X123624536Y-118202841D01*
X123624761Y-118202299D01*
X135978818Y-118202299D01*
X135999456Y-118359061D01*
X136059964Y-118505140D01*
X136156218Y-118630581D01*
X136281659Y-118726835D01*
X136427738Y-118787343D01*
X136584500Y-118807981D01*
X136592688Y-118806903D01*
X136733074Y-118788421D01*
X136741262Y-118787343D01*
X136887341Y-118726835D01*
X137012782Y-118630581D01*
X137109036Y-118505140D01*
X137169544Y-118359061D01*
X137190182Y-118202299D01*
X137169544Y-118045537D01*
X137165252Y-118035174D01*
X137154252Y-118008618D01*
X137109036Y-117899458D01*
X137026107Y-117791382D01*
X137017805Y-117780563D01*
X137012782Y-117774017D01*
X136999474Y-117763805D01*
X136948297Y-117724536D01*
X136887341Y-117677763D01*
X136741262Y-117617255D01*
X136584500Y-117596617D01*
X136427738Y-117617255D01*
X136281659Y-117677763D01*
X136220703Y-117724536D01*
X136169527Y-117763805D01*
X136156218Y-117774017D01*
X136151195Y-117780563D01*
X136142893Y-117791382D01*
X136059964Y-117899458D01*
X136014748Y-118008618D01*
X136003749Y-118035174D01*
X135999456Y-118045537D01*
X135978818Y-118202299D01*
X123624761Y-118202299D01*
X123685044Y-118056762D01*
X123693635Y-117991508D01*
X123704035Y-117912511D01*
X123732757Y-117847584D01*
X123792023Y-117808492D01*
X123812511Y-117804035D01*
X123948574Y-117786122D01*
X123956762Y-117785044D01*
X124102841Y-117724536D01*
X124221689Y-117633341D01*
X124221736Y-117633305D01*
X124228282Y-117628282D01*
X124237571Y-117616177D01*
X124313796Y-117516838D01*
X124324536Y-117502841D01*
X124385044Y-117356762D01*
X124387424Y-117338688D01*
X124404604Y-117208188D01*
X124405682Y-117200000D01*
X124385044Y-117043238D01*
X124377090Y-117024036D01*
X124327696Y-116904787D01*
X124327695Y-116904785D01*
X124324536Y-116897159D01*
X124322488Y-116894490D01*
X124306284Y-116827697D01*
X124329504Y-116760605D01*
X124385312Y-116716718D01*
X124455987Y-116709969D01*
X124480359Y-116717283D01*
X124515608Y-116731884D01*
X124515611Y-116731885D01*
X124523238Y-116735044D01*
X124531426Y-116736122D01*
X124586838Y-116743417D01*
X124680000Y-116755682D01*
X124688188Y-116754604D01*
X124694569Y-116753764D01*
X124773162Y-116743417D01*
X124828574Y-116736122D01*
X124836762Y-116735044D01*
X124982841Y-116674536D01*
X125089082Y-116593015D01*
X125101736Y-116583305D01*
X125108282Y-116578282D01*
X125113950Y-116570896D01*
X125135943Y-116542233D01*
X125168507Y-116499796D01*
X125225844Y-116457929D01*
X125268469Y-116450500D01*
X127473339Y-116450500D01*
X127541460Y-116470502D01*
X127562434Y-116487405D01*
X128561622Y-117486593D01*
X128595648Y-117548905D01*
X128597449Y-117559241D01*
X128602750Y-117599509D01*
X128604956Y-117616262D01*
X128665464Y-117762341D01*
X128761718Y-117887782D01*
X128768264Y-117892805D01*
X128777641Y-117900000D01*
X128887159Y-117984036D01*
X129033238Y-118044544D01*
X129190000Y-118065182D01*
X129198188Y-118064104D01*
X129338574Y-118045622D01*
X129346762Y-118044544D01*
X129492841Y-117984036D01*
X129602359Y-117900000D01*
X129611736Y-117892805D01*
X129618282Y-117887782D01*
X129714536Y-117762341D01*
X129771990Y-117623635D01*
X129799304Y-117582758D01*
X130206562Y-117175500D01*
X131534318Y-117175500D01*
X131554956Y-117332262D01*
X131615464Y-117478341D01*
X131711718Y-117603782D01*
X131718264Y-117608805D01*
X131743647Y-117628282D01*
X131837159Y-117700036D01*
X131983238Y-117760544D01*
X131991426Y-117761622D01*
X132008008Y-117763805D01*
X132140000Y-117781182D01*
X132148188Y-117780104D01*
X132288574Y-117761622D01*
X132296762Y-117760544D01*
X132442841Y-117700036D01*
X132536353Y-117628282D01*
X132561736Y-117608805D01*
X132568282Y-117603782D01*
X132664536Y-117478341D01*
X132725044Y-117332262D01*
X132744299Y-117186004D01*
X132773021Y-117121077D01*
X132791633Y-117108800D01*
X134686863Y-117108800D01*
X134707501Y-117265562D01*
X134768009Y-117411641D01*
X134813335Y-117470711D01*
X134844577Y-117511426D01*
X134864263Y-117537082D01*
X134989704Y-117633336D01*
X135135783Y-117693844D01*
X135292545Y-117714482D01*
X135300733Y-117713404D01*
X135441119Y-117694922D01*
X135449307Y-117693844D01*
X135595386Y-117633336D01*
X135720827Y-117537082D01*
X135740514Y-117511426D01*
X135771755Y-117470711D01*
X135817081Y-117411641D01*
X135877589Y-117265562D01*
X135898227Y-117108800D01*
X135877589Y-116952038D01*
X135817081Y-116805959D01*
X135812054Y-116799408D01*
X135812052Y-116799404D01*
X135741940Y-116708031D01*
X135716340Y-116641811D01*
X135730605Y-116572262D01*
X135752382Y-116542809D01*
X135758282Y-116538282D01*
X135765236Y-116529220D01*
X135825639Y-116450500D01*
X135854536Y-116412841D01*
X135915044Y-116266762D01*
X135935682Y-116110000D01*
X135917904Y-115974964D01*
X135916122Y-115961426D01*
X135915044Y-115953238D01*
X135910781Y-115942945D01*
X135892788Y-115899508D01*
X135854536Y-115807159D01*
X135758282Y-115681718D01*
X135632841Y-115585464D01*
X135486762Y-115524956D01*
X135330000Y-115504318D01*
X135173238Y-115524956D01*
X135027159Y-115585464D01*
X134901718Y-115681718D01*
X134805464Y-115807159D01*
X134767212Y-115899508D01*
X134749220Y-115942945D01*
X134744956Y-115953238D01*
X134743878Y-115961426D01*
X134742096Y-115974964D01*
X134724318Y-116110000D01*
X134744956Y-116266762D01*
X134805464Y-116412841D01*
X134810491Y-116419392D01*
X134810493Y-116419396D01*
X134880605Y-116510769D01*
X134906205Y-116576989D01*
X134891940Y-116646538D01*
X134870163Y-116675991D01*
X134864263Y-116680518D01*
X134859240Y-116687064D01*
X134836486Y-116716718D01*
X134768009Y-116805959D01*
X134707501Y-116952038D01*
X134686863Y-117108800D01*
X132791633Y-117108800D01*
X132832286Y-117081985D01*
X132901831Y-117080743D01*
X132904223Y-117081384D01*
X132911852Y-117084544D01*
X133068614Y-117105182D01*
X133076802Y-117104104D01*
X133108667Y-117099909D01*
X133225376Y-117084544D01*
X133371455Y-117024036D01*
X133496896Y-116927782D01*
X133593150Y-116802341D01*
X133653658Y-116656262D01*
X133674296Y-116499500D01*
X133658661Y-116380737D01*
X133654736Y-116350926D01*
X133653658Y-116342738D01*
X133593150Y-116196659D01*
X133496896Y-116071218D01*
X133371455Y-115974964D01*
X133225376Y-115914456D01*
X133068614Y-115893818D01*
X132911852Y-115914456D01*
X132765773Y-115974964D01*
X132640332Y-116071218D01*
X132544078Y-116196659D01*
X132483570Y-116342738D01*
X132470690Y-116440576D01*
X132464315Y-116488996D01*
X132435593Y-116553923D01*
X132376328Y-116593015D01*
X132306783Y-116594257D01*
X132304391Y-116593616D01*
X132296762Y-116590456D01*
X132267891Y-116586655D01*
X132158564Y-116572262D01*
X132140000Y-116569818D01*
X132121436Y-116572262D01*
X132012110Y-116586655D01*
X131983238Y-116590456D01*
X131837159Y-116650964D01*
X131780671Y-116694309D01*
X131727584Y-116735044D01*
X131711718Y-116747218D01*
X131706695Y-116753764D01*
X131705223Y-116755682D01*
X131615464Y-116872659D01*
X131554956Y-117018738D01*
X131553878Y-117026926D01*
X131546891Y-117080000D01*
X131534318Y-117175500D01*
X130206562Y-117175500D01*
X131479017Y-115903045D01*
X131485781Y-115896759D01*
X131506348Y-115879006D01*
X131521960Y-115865530D01*
X131526715Y-115858373D01*
X131529844Y-115854824D01*
X131541600Y-115840462D01*
X132992062Y-114390000D01*
X138584318Y-114390000D01*
X138604956Y-114546762D01*
X138665464Y-114692841D01*
X138761718Y-114818282D01*
X138887159Y-114914536D01*
X139033238Y-114975044D01*
X139190000Y-114995682D01*
X139198188Y-114994604D01*
X139338574Y-114976122D01*
X139346762Y-114975044D01*
X139492841Y-114914536D01*
X139618282Y-114818282D01*
X139714536Y-114692841D01*
X139775044Y-114546762D01*
X139795682Y-114390000D01*
X139775044Y-114233238D01*
X139714536Y-114087159D01*
X139618282Y-113961718D01*
X139591032Y-113940808D01*
X139508082Y-113877159D01*
X139492841Y-113865464D01*
X139346762Y-113804956D01*
X139190000Y-113784318D01*
X139033238Y-113804956D01*
X138887159Y-113865464D01*
X138871918Y-113877159D01*
X138788969Y-113940808D01*
X138761718Y-113961718D01*
X138665464Y-114087159D01*
X138604956Y-114233238D01*
X138584318Y-114390000D01*
X132992062Y-114390000D01*
X133176188Y-114205874D01*
X133179997Y-114202221D01*
X133216551Y-114168608D01*
X133222878Y-114162790D01*
X133244273Y-114128284D01*
X133250988Y-114118515D01*
X133270337Y-114093025D01*
X133270341Y-114093018D01*
X133275532Y-114086179D01*
X133280496Y-114073642D01*
X133290559Y-114053634D01*
X133293141Y-114049470D01*
X133293144Y-114049464D01*
X133297666Y-114042170D01*
X133308990Y-114003193D01*
X133312834Y-113991967D01*
X133324614Y-113962214D01*
X133324616Y-113962206D01*
X133327777Y-113954222D01*
X133328676Y-113945674D01*
X133329188Y-113940808D01*
X133333498Y-113918836D01*
X133335420Y-113912220D01*
X133335420Y-113912218D01*
X133337261Y-113905882D01*
X133338000Y-113895818D01*
X133338000Y-113863562D01*
X133338690Y-113850391D01*
X133339730Y-113840500D01*
X133342612Y-113813076D01*
X133341057Y-113803878D01*
X133339764Y-113796236D01*
X133338000Y-113775224D01*
X133338000Y-112494879D01*
X133358002Y-112426758D01*
X133411658Y-112380265D01*
X133481932Y-112370161D01*
X133546512Y-112399655D01*
X133563964Y-112418177D01*
X133571718Y-112428282D01*
X133578264Y-112433305D01*
X133604989Y-112453812D01*
X133697159Y-112524536D01*
X133843238Y-112585044D01*
X134000000Y-112605682D01*
X134008188Y-112604604D01*
X134148574Y-112586122D01*
X134156762Y-112585044D01*
X134302841Y-112524536D01*
X134395011Y-112453812D01*
X134421736Y-112433305D01*
X134428282Y-112428282D01*
X134437284Y-112416551D01*
X134465127Y-112380265D01*
X134524536Y-112302841D01*
X134585044Y-112156762D01*
X134605682Y-112000000D01*
X134894318Y-112000000D01*
X134914956Y-112156762D01*
X134975464Y-112302841D01*
X135034873Y-112380265D01*
X135062717Y-112416551D01*
X135071718Y-112428282D01*
X135078264Y-112433305D01*
X135104989Y-112453812D01*
X135197159Y-112524536D01*
X135343238Y-112585044D01*
X135500000Y-112605682D01*
X135508188Y-112604604D01*
X135648574Y-112586122D01*
X135656762Y-112585044D01*
X135802841Y-112524536D01*
X135895011Y-112453812D01*
X135921736Y-112433305D01*
X135928282Y-112428282D01*
X135937284Y-112416551D01*
X135965127Y-112380265D01*
X136024536Y-112302841D01*
X136085044Y-112156762D01*
X136105682Y-112000000D01*
X136394318Y-112000000D01*
X136414956Y-112156762D01*
X136475464Y-112302841D01*
X136534873Y-112380265D01*
X136562717Y-112416551D01*
X136571718Y-112428282D01*
X136578264Y-112433305D01*
X136604989Y-112453812D01*
X136697159Y-112524536D01*
X136843238Y-112585044D01*
X137000000Y-112605682D01*
X137008188Y-112604604D01*
X137148574Y-112586122D01*
X137156762Y-112585044D01*
X137302841Y-112524536D01*
X137395011Y-112453812D01*
X137421736Y-112433305D01*
X137428282Y-112428282D01*
X137437284Y-112416551D01*
X137465127Y-112380265D01*
X137524536Y-112302841D01*
X137585044Y-112156762D01*
X137605682Y-112000000D01*
X137585044Y-111843238D01*
X137524536Y-111697159D01*
X137428282Y-111571718D01*
X137302841Y-111475464D01*
X137156762Y-111414956D01*
X137000000Y-111394318D01*
X136843238Y-111414956D01*
X136697159Y-111475464D01*
X136571718Y-111571718D01*
X136475464Y-111697159D01*
X136414956Y-111843238D01*
X136394318Y-112000000D01*
X136105682Y-112000000D01*
X136085044Y-111843238D01*
X136024536Y-111697159D01*
X135928282Y-111571718D01*
X135802841Y-111475464D01*
X135656762Y-111414956D01*
X135500000Y-111394318D01*
X135343238Y-111414956D01*
X135197159Y-111475464D01*
X135071718Y-111571718D01*
X134975464Y-111697159D01*
X134914956Y-111843238D01*
X134894318Y-112000000D01*
X134605682Y-112000000D01*
X134585044Y-111843238D01*
X134524536Y-111697159D01*
X134428282Y-111571718D01*
X134302841Y-111475464D01*
X134156762Y-111414956D01*
X134000000Y-111394318D01*
X133843238Y-111414956D01*
X133697159Y-111475464D01*
X133571718Y-111571718D01*
X133566695Y-111578264D01*
X133566694Y-111578265D01*
X133563964Y-111581823D01*
X133560895Y-111584064D01*
X133560850Y-111584109D01*
X133560843Y-111584102D01*
X133506627Y-111623691D01*
X133435756Y-111627915D01*
X133373853Y-111593152D01*
X133340570Y-111530440D01*
X133338000Y-111505121D01*
X133338000Y-110994879D01*
X133358002Y-110926758D01*
X133411658Y-110880265D01*
X133481932Y-110870161D01*
X133546512Y-110899655D01*
X133563964Y-110918177D01*
X133571718Y-110928282D01*
X133697159Y-111024536D01*
X133843238Y-111085044D01*
X134000000Y-111105682D01*
X134008188Y-111104604D01*
X134148574Y-111086122D01*
X134156762Y-111085044D01*
X134302841Y-111024536D01*
X134428282Y-110928282D01*
X134524536Y-110802841D01*
X134581167Y-110666122D01*
X134581884Y-110664391D01*
X134585044Y-110656762D01*
X134605682Y-110500000D01*
X134894318Y-110500000D01*
X134914956Y-110656762D01*
X134918116Y-110664391D01*
X134918833Y-110666122D01*
X134975464Y-110802841D01*
X135071718Y-110928282D01*
X135197159Y-111024536D01*
X135343238Y-111085044D01*
X135500000Y-111105682D01*
X135508188Y-111104604D01*
X135648574Y-111086122D01*
X135656762Y-111085044D01*
X135802841Y-111024536D01*
X135928282Y-110928282D01*
X136024536Y-110802841D01*
X136081167Y-110666122D01*
X136081884Y-110664391D01*
X136085044Y-110656762D01*
X136105682Y-110500000D01*
X136394318Y-110500000D01*
X136414956Y-110656762D01*
X136418116Y-110664391D01*
X136418833Y-110666122D01*
X136475464Y-110802841D01*
X136571718Y-110928282D01*
X136697159Y-111024536D01*
X136843238Y-111085044D01*
X137000000Y-111105682D01*
X137008188Y-111104604D01*
X137148574Y-111086122D01*
X137156762Y-111085044D01*
X137302841Y-111024536D01*
X137428282Y-110928282D01*
X137524536Y-110802841D01*
X137581167Y-110666122D01*
X137581884Y-110664391D01*
X137585044Y-110656762D01*
X137605682Y-110500000D01*
X137585044Y-110343238D01*
X137524536Y-110197159D01*
X137428282Y-110071718D01*
X137302841Y-109975464D01*
X137156762Y-109914956D01*
X137000000Y-109894318D01*
X136843238Y-109914956D01*
X136697159Y-109975464D01*
X136571718Y-110071718D01*
X136475464Y-110197159D01*
X136414956Y-110343238D01*
X136394318Y-110500000D01*
X136105682Y-110500000D01*
X136085044Y-110343238D01*
X136024536Y-110197159D01*
X135928282Y-110071718D01*
X135802841Y-109975464D01*
X135656762Y-109914956D01*
X135500000Y-109894318D01*
X135343238Y-109914956D01*
X135197159Y-109975464D01*
X135071718Y-110071718D01*
X134975464Y-110197159D01*
X134914956Y-110343238D01*
X134894318Y-110500000D01*
X134605682Y-110500000D01*
X134585044Y-110343238D01*
X134524536Y-110197159D01*
X134428282Y-110071718D01*
X134302841Y-109975464D01*
X134156762Y-109914956D01*
X134000000Y-109894318D01*
X133843238Y-109914956D01*
X133697159Y-109975464D01*
X133571718Y-110071718D01*
X133566695Y-110078264D01*
X133566694Y-110078265D01*
X133563964Y-110081823D01*
X133560895Y-110084064D01*
X133560850Y-110084109D01*
X133560843Y-110084102D01*
X133506627Y-110123691D01*
X133435756Y-110127915D01*
X133373853Y-110093152D01*
X133340570Y-110030440D01*
X133338000Y-110005121D01*
X133338000Y-109494879D01*
X133358002Y-109426758D01*
X133411658Y-109380265D01*
X133481932Y-109370161D01*
X133546512Y-109399655D01*
X133563964Y-109418177D01*
X133571718Y-109428282D01*
X133697159Y-109524536D01*
X133843238Y-109585044D01*
X134000000Y-109605682D01*
X134008188Y-109604604D01*
X134148574Y-109586122D01*
X134156762Y-109585044D01*
X134302841Y-109524536D01*
X134428282Y-109428282D01*
X134524536Y-109302841D01*
X134585044Y-109156762D01*
X134605682Y-109000000D01*
X134894318Y-109000000D01*
X134914956Y-109156762D01*
X134975464Y-109302841D01*
X135071718Y-109428282D01*
X135197159Y-109524536D01*
X135343238Y-109585044D01*
X135500000Y-109605682D01*
X135508188Y-109604604D01*
X135648574Y-109586122D01*
X135656762Y-109585044D01*
X135802841Y-109524536D01*
X135928282Y-109428282D01*
X136024536Y-109302841D01*
X136085044Y-109156762D01*
X136105682Y-109000000D01*
X136394318Y-109000000D01*
X136414956Y-109156762D01*
X136475464Y-109302841D01*
X136571718Y-109428282D01*
X136697159Y-109524536D01*
X136843238Y-109585044D01*
X137000000Y-109605682D01*
X137008188Y-109604604D01*
X137148574Y-109586122D01*
X137156762Y-109585044D01*
X137302841Y-109524536D01*
X137428282Y-109428282D01*
X137524536Y-109302841D01*
X137585044Y-109156762D01*
X137605682Y-109000000D01*
X137585044Y-108843238D01*
X137524536Y-108697159D01*
X137428282Y-108571718D01*
X137302841Y-108475464D01*
X137156762Y-108414956D01*
X137000000Y-108394318D01*
X136843238Y-108414956D01*
X136697159Y-108475464D01*
X136571718Y-108571718D01*
X136475464Y-108697159D01*
X136414956Y-108843238D01*
X136394318Y-109000000D01*
X136105682Y-109000000D01*
X136085044Y-108843238D01*
X136024536Y-108697159D01*
X135928282Y-108571718D01*
X135802841Y-108475464D01*
X135656762Y-108414956D01*
X135500000Y-108394318D01*
X135343238Y-108414956D01*
X135197159Y-108475464D01*
X135071718Y-108571718D01*
X134975464Y-108697159D01*
X134914956Y-108843238D01*
X134894318Y-109000000D01*
X134605682Y-109000000D01*
X134585044Y-108843238D01*
X134524536Y-108697159D01*
X134428282Y-108571718D01*
X134302841Y-108475464D01*
X134156762Y-108414956D01*
X134000000Y-108394318D01*
X133843238Y-108414956D01*
X133697159Y-108475464D01*
X133571718Y-108571718D01*
X133566695Y-108578264D01*
X133566694Y-108578265D01*
X133563964Y-108581823D01*
X133560895Y-108584064D01*
X133560850Y-108584109D01*
X133560843Y-108584102D01*
X133506627Y-108623691D01*
X133435756Y-108627915D01*
X133373853Y-108593152D01*
X133340570Y-108530440D01*
X133338000Y-108505121D01*
X133338000Y-107994879D01*
X133358002Y-107926758D01*
X133411658Y-107880265D01*
X133481932Y-107870161D01*
X133546512Y-107899655D01*
X133563964Y-107918177D01*
X133571718Y-107928282D01*
X133697159Y-108024536D01*
X133843238Y-108085044D01*
X134000000Y-108105682D01*
X134008188Y-108104604D01*
X134148574Y-108086122D01*
X134156762Y-108085044D01*
X134302841Y-108024536D01*
X134428282Y-107928282D01*
X134524536Y-107802841D01*
X134585044Y-107656762D01*
X134605682Y-107500000D01*
X134894318Y-107500000D01*
X134914956Y-107656762D01*
X134975464Y-107802841D01*
X135071718Y-107928282D01*
X135197159Y-108024536D01*
X135343238Y-108085044D01*
X135500000Y-108105682D01*
X135508188Y-108104604D01*
X135648574Y-108086122D01*
X135656762Y-108085044D01*
X135802841Y-108024536D01*
X135928282Y-107928282D01*
X136024536Y-107802841D01*
X136085044Y-107656762D01*
X136105682Y-107500000D01*
X136394318Y-107500000D01*
X136414956Y-107656762D01*
X136475464Y-107802841D01*
X136571718Y-107928282D01*
X136697159Y-108024536D01*
X136843238Y-108085044D01*
X137000000Y-108105682D01*
X137008188Y-108104604D01*
X137148574Y-108086122D01*
X137156762Y-108085044D01*
X137302841Y-108024536D01*
X137428282Y-107928282D01*
X137524536Y-107802841D01*
X137585044Y-107656762D01*
X137605682Y-107500000D01*
X137585044Y-107343238D01*
X137524536Y-107197159D01*
X137428282Y-107071718D01*
X137302841Y-106975464D01*
X137156762Y-106914956D01*
X137000000Y-106894318D01*
X136843238Y-106914956D01*
X136697159Y-106975464D01*
X136571718Y-107071718D01*
X136475464Y-107197159D01*
X136414956Y-107343238D01*
X136394318Y-107500000D01*
X136105682Y-107500000D01*
X136085044Y-107343238D01*
X136024536Y-107197159D01*
X135928282Y-107071718D01*
X135802841Y-106975464D01*
X135656762Y-106914956D01*
X135500000Y-106894318D01*
X135343238Y-106914956D01*
X135197159Y-106975464D01*
X135071718Y-107071718D01*
X134975464Y-107197159D01*
X134914956Y-107343238D01*
X134894318Y-107500000D01*
X134605682Y-107500000D01*
X134585044Y-107343238D01*
X134524536Y-107197159D01*
X134428282Y-107071718D01*
X134302841Y-106975464D01*
X134156762Y-106914956D01*
X134000000Y-106894318D01*
X133843238Y-106914956D01*
X133697159Y-106975464D01*
X133571718Y-107071718D01*
X133566695Y-107078264D01*
X133566694Y-107078265D01*
X133563964Y-107081823D01*
X133560895Y-107084064D01*
X133560850Y-107084109D01*
X133560843Y-107084102D01*
X133506627Y-107123691D01*
X133435756Y-107127915D01*
X133373853Y-107093152D01*
X133340570Y-107030440D01*
X133338000Y-107005121D01*
X133338000Y-105304062D01*
X133338690Y-105290891D01*
X133341714Y-105262118D01*
X133342612Y-105253576D01*
X133339906Y-105237573D01*
X133339764Y-105236736D01*
X133338000Y-105215724D01*
X133338000Y-105050723D01*
X133358002Y-104982602D01*
X133378858Y-104960347D01*
X133377915Y-104959404D01*
X133384572Y-104952747D01*
X133392150Y-104947150D01*
X133397745Y-104939575D01*
X133397749Y-104939571D01*
X133468649Y-104843580D01*
X133525210Y-104800669D01*
X133595992Y-104795149D01*
X133658521Y-104828773D01*
X133671351Y-104843580D01*
X133742255Y-104939576D01*
X133742258Y-104939579D01*
X133747850Y-104947150D01*
X133755421Y-104952742D01*
X133849243Y-105022041D01*
X133849246Y-105022042D01*
X133856816Y-105027634D01*
X133984631Y-105072519D01*
X133992277Y-105073242D01*
X133992278Y-105073242D01*
X133998248Y-105073806D01*
X134016166Y-105075500D01*
X134623834Y-105075500D01*
X134641752Y-105073806D01*
X134647722Y-105073242D01*
X134647723Y-105073242D01*
X134655369Y-105072519D01*
X134783184Y-105027634D01*
X134790754Y-105022042D01*
X134790757Y-105022041D01*
X134884579Y-104952742D01*
X134892150Y-104947150D01*
X134929619Y-104896421D01*
X134967041Y-104845757D01*
X134967042Y-104845754D01*
X134972634Y-104838184D01*
X135017519Y-104710369D01*
X135020500Y-104678834D01*
X135020500Y-103321166D01*
X135017519Y-103289631D01*
X134972634Y-103161816D01*
X134967042Y-103154246D01*
X134967041Y-103154243D01*
X134897742Y-103060421D01*
X134892150Y-103052850D01*
X134838000Y-103012854D01*
X134790757Y-102977959D01*
X134790754Y-102977958D01*
X134783184Y-102972366D01*
X134655369Y-102927481D01*
X134647723Y-102926758D01*
X134647722Y-102926758D01*
X134641752Y-102926194D01*
X134623834Y-102924500D01*
X134016166Y-102924500D01*
X133998248Y-102926194D01*
X133992278Y-102926758D01*
X133992277Y-102926758D01*
X133984631Y-102927481D01*
X133856816Y-102972366D01*
X133849246Y-102977958D01*
X133849243Y-102977959D01*
X133802000Y-103012854D01*
X133747850Y-103052850D01*
X133742258Y-103060421D01*
X133742255Y-103060424D01*
X133671351Y-103156420D01*
X133614790Y-103199331D01*
X133544008Y-103204851D01*
X133481479Y-103171227D01*
X133468649Y-103156420D01*
X133397749Y-103060429D01*
X133397744Y-103060424D01*
X133392150Y-103052850D01*
X133384572Y-103047253D01*
X133377915Y-103040596D01*
X133379972Y-103038539D01*
X133346234Y-102994079D01*
X133338000Y-102949277D01*
X133338000Y-102292736D01*
X137525070Y-102292736D01*
X137525698Y-102305807D01*
X137537909Y-102560041D01*
X137590118Y-102822512D01*
X137680549Y-103074383D01*
X137682765Y-103078507D01*
X137750982Y-103205465D01*
X137807215Y-103310121D01*
X137810010Y-103313864D01*
X137810012Y-103313867D01*
X137938851Y-103486403D01*
X137967335Y-103524547D01*
X137970642Y-103527825D01*
X137970647Y-103527831D01*
X138154074Y-103709663D01*
X138157390Y-103712950D01*
X138373205Y-103871192D01*
X138377340Y-103873368D01*
X138377344Y-103873370D01*
X138504304Y-103940167D01*
X138610039Y-103995797D01*
X138665091Y-104015022D01*
X138858273Y-104082484D01*
X138858279Y-104082486D01*
X138862690Y-104084026D01*
X139125606Y-104133943D01*
X139252616Y-104138933D01*
X139388345Y-104144266D01*
X139388350Y-104144266D01*
X139393013Y-104144449D01*
X139488943Y-104133943D01*
X139654382Y-104115825D01*
X139654387Y-104115824D01*
X139659035Y-104115315D01*
X139678065Y-104110305D01*
X139913309Y-104048370D01*
X139917829Y-104047180D01*
X140126555Y-103957505D01*
X140159407Y-103943391D01*
X140159410Y-103943389D01*
X140163710Y-103941542D01*
X140167690Y-103939079D01*
X140167694Y-103939077D01*
X140387302Y-103803179D01*
X140387306Y-103803176D01*
X140391275Y-103800720D01*
X140465293Y-103738059D01*
X140591960Y-103630828D01*
X140591961Y-103630827D01*
X140595526Y-103627809D01*
X140689365Y-103520807D01*
X140768894Y-103430122D01*
X140768898Y-103430117D01*
X140771976Y-103426607D01*
X140783344Y-103408933D01*
X140914219Y-103205465D01*
X140914222Y-103205460D01*
X140916747Y-103201534D01*
X141026661Y-102957534D01*
X141099302Y-102699969D01*
X141117103Y-102560041D01*
X141132677Y-102437625D01*
X141132677Y-102437621D01*
X141133075Y-102434495D01*
X141135549Y-102340000D01*
X141119769Y-102127647D01*
X141116064Y-102077788D01*
X141116063Y-102077784D01*
X141115717Y-102073123D01*
X141109039Y-102043608D01*
X141072181Y-101880723D01*
X141056655Y-101812109D01*
X141054962Y-101807755D01*
X140961355Y-101567044D01*
X140961354Y-101567042D01*
X140959662Y-101562691D01*
X140956762Y-101557616D01*
X140829187Y-101334408D01*
X140826868Y-101330350D01*
X140661190Y-101120189D01*
X140466269Y-100936825D01*
X140246385Y-100784286D01*
X140233105Y-100777737D01*
X140010559Y-100667989D01*
X140010556Y-100667988D01*
X140006371Y-100665924D01*
X139751497Y-100584338D01*
X139600549Y-100559755D01*
X139491976Y-100542073D01*
X139491975Y-100542073D01*
X139487364Y-100541322D01*
X139353569Y-100539571D01*
X139224451Y-100537880D01*
X139224448Y-100537880D01*
X139219774Y-100537819D01*
X138954605Y-100573907D01*
X138950118Y-100575215D01*
X138950117Y-100575215D01*
X138918817Y-100584338D01*
X138697683Y-100648792D01*
X138693430Y-100650752D01*
X138693429Y-100650753D01*
X138641512Y-100674687D01*
X138454652Y-100760831D01*
X138450743Y-100763394D01*
X138234764Y-100904996D01*
X138234759Y-100905000D01*
X138230851Y-100907562D01*
X138190128Y-100943909D01*
X138056151Y-101063488D01*
X138031197Y-101085760D01*
X137860075Y-101291512D01*
X137857652Y-101295505D01*
X137726412Y-101511782D01*
X137721244Y-101520298D01*
X137719437Y-101524606D01*
X137719437Y-101524607D01*
X137626511Y-101746211D01*
X137617755Y-101767091D01*
X137616604Y-101771623D01*
X137616603Y-101771626D01*
X137561394Y-101989012D01*
X137551881Y-102026470D01*
X137525070Y-102292736D01*
X133338000Y-102292736D01*
X133338000Y-101880723D01*
X133358002Y-101812602D01*
X133378858Y-101790347D01*
X133377915Y-101789404D01*
X133384572Y-101782747D01*
X133392150Y-101777150D01*
X133397745Y-101769575D01*
X133397749Y-101769571D01*
X133468649Y-101673580D01*
X133525210Y-101630669D01*
X133595992Y-101625149D01*
X133658521Y-101658773D01*
X133671351Y-101673580D01*
X133742255Y-101769576D01*
X133742258Y-101769579D01*
X133747850Y-101777150D01*
X133755421Y-101782742D01*
X133849243Y-101852041D01*
X133849246Y-101852042D01*
X133856816Y-101857634D01*
X133984631Y-101902519D01*
X133992277Y-101903242D01*
X133992278Y-101903242D01*
X133998248Y-101903806D01*
X134016166Y-101905500D01*
X134623834Y-101905500D01*
X134641752Y-101903806D01*
X134647722Y-101903242D01*
X134647723Y-101903242D01*
X134655369Y-101902519D01*
X134783184Y-101857634D01*
X134790754Y-101852042D01*
X134790757Y-101852041D01*
X134884579Y-101782742D01*
X134892150Y-101777150D01*
X134943205Y-101708028D01*
X134967041Y-101675757D01*
X134967042Y-101675754D01*
X134972634Y-101668184D01*
X135017519Y-101540369D01*
X135020500Y-101508834D01*
X135020500Y-100151166D01*
X135017519Y-100119631D01*
X134972634Y-99991816D01*
X134967040Y-99984242D01*
X134962631Y-99975915D01*
X134966001Y-99974130D01*
X134947916Y-99924715D01*
X134963434Y-99855435D01*
X135013944Y-99805543D01*
X135073648Y-99790500D01*
X139542920Y-99790500D01*
X139560241Y-99792466D01*
X139565810Y-99792476D01*
X139579641Y-99795656D01*
X139593483Y-99792523D01*
X139607671Y-99792548D01*
X139607670Y-99793297D01*
X139615610Y-99792654D01*
X139849567Y-99806806D01*
X139864671Y-99808640D01*
X140122808Y-99855945D01*
X140137581Y-99859586D01*
X140388145Y-99937665D01*
X140402363Y-99943057D01*
X140530437Y-100000699D01*
X140641679Y-100050765D01*
X140655152Y-100057836D01*
X140879741Y-100193605D01*
X140892263Y-100202248D01*
X141098857Y-100364104D01*
X141110245Y-100374194D01*
X141295806Y-100559755D01*
X141305896Y-100571143D01*
X141467752Y-100777737D01*
X141476394Y-100790258D01*
X141612164Y-101014848D01*
X141619234Y-101028319D01*
X141722762Y-101258347D01*
X141726941Y-101267633D01*
X141732335Y-101281855D01*
X141787619Y-101459266D01*
X141810414Y-101532419D01*
X141814055Y-101547192D01*
X141861360Y-101805329D01*
X141863194Y-101820433D01*
X141866654Y-101877634D01*
X141875475Y-102023449D01*
X141877319Y-102053939D01*
X141877549Y-102061768D01*
X141877524Y-102075811D01*
X141874344Y-102089641D01*
X141877476Y-102103480D01*
X141877467Y-102108311D01*
X141879500Y-102126504D01*
X141879500Y-107138500D01*
X141859498Y-107206621D01*
X141805842Y-107253114D01*
X141753500Y-107264500D01*
X140515252Y-107264500D01*
X140509184Y-107265707D01*
X140468939Y-107273712D01*
X140468938Y-107273712D01*
X140456769Y-107276133D01*
X140390448Y-107320448D01*
X140346133Y-107386769D01*
X140343712Y-107398938D01*
X140343712Y-107398939D01*
X140336876Y-107433305D01*
X140334500Y-107445252D01*
X140334500Y-108754748D01*
X140335707Y-108760816D01*
X140342549Y-108795211D01*
X140346133Y-108813231D01*
X140353025Y-108823546D01*
X140353027Y-108823550D01*
X140373038Y-108853498D01*
X140394253Y-108921251D01*
X140375470Y-108989718D01*
X140322653Y-109037161D01*
X140268273Y-109049500D01*
X139375252Y-109049500D01*
X139369184Y-109050707D01*
X139328939Y-109058712D01*
X139328938Y-109058712D01*
X139316769Y-109061133D01*
X139250448Y-109105448D01*
X139243557Y-109115761D01*
X139216161Y-109156762D01*
X139206133Y-109171769D01*
X139194500Y-109230252D01*
X139194500Y-111369748D01*
X139195707Y-111375816D01*
X139202462Y-111409774D01*
X139206133Y-111428231D01*
X139250448Y-111494552D01*
X139316769Y-111538867D01*
X139328938Y-111541288D01*
X139328939Y-111541288D01*
X139360502Y-111547566D01*
X139375252Y-111550500D01*
X141753500Y-111550500D01*
X141821621Y-111570502D01*
X141868114Y-111624158D01*
X141879500Y-111676500D01*
X141879500Y-114408033D01*
X141859498Y-114476154D01*
X141805842Y-114522647D01*
X141735568Y-114532751D01*
X141669190Y-114501669D01*
X141666646Y-114499378D01*
X141662230Y-114494474D01*
X141548663Y-114411962D01*
X141522935Y-114393269D01*
X141522933Y-114393268D01*
X141517593Y-114389388D01*
X141511565Y-114386704D01*
X141511563Y-114386703D01*
X141360298Y-114319356D01*
X141360297Y-114319356D01*
X141354267Y-114316671D01*
X141259944Y-114296622D01*
X141185848Y-114280872D01*
X141185844Y-114280872D01*
X141179391Y-114279500D01*
X141000609Y-114279500D01*
X140994156Y-114280872D01*
X140994152Y-114280872D01*
X140920056Y-114296622D01*
X140825733Y-114316671D01*
X140819703Y-114319356D01*
X140819702Y-114319356D01*
X140668438Y-114386703D01*
X140668436Y-114386704D01*
X140662408Y-114389388D01*
X140657067Y-114393268D01*
X140657066Y-114393269D01*
X140626204Y-114415692D01*
X140517770Y-114494474D01*
X140513357Y-114499376D01*
X140513355Y-114499377D01*
X140415296Y-114608282D01*
X140398141Y-114627335D01*
X140394838Y-114633056D01*
X140337645Y-114732118D01*
X140308750Y-114782165D01*
X140306708Y-114788450D01*
X140265068Y-114916605D01*
X140253503Y-114952197D01*
X140252813Y-114958760D01*
X140252813Y-114958761D01*
X140238712Y-115092927D01*
X140234815Y-115130000D01*
X140253503Y-115307803D01*
X140255543Y-115314080D01*
X140255543Y-115314082D01*
X140269429Y-115356817D01*
X140308750Y-115477835D01*
X140312053Y-115483557D01*
X140312054Y-115483558D01*
X140373792Y-115590491D01*
X140398141Y-115632665D01*
X140402559Y-115637572D01*
X140402560Y-115637573D01*
X140511292Y-115758331D01*
X140517770Y-115765526D01*
X140636954Y-115852119D01*
X140680307Y-115908341D01*
X140686382Y-115979077D01*
X140649146Y-116045903D01*
X140647574Y-116047379D01*
X140641163Y-116052037D01*
X140636110Y-116058145D01*
X140629287Y-116066393D01*
X140536400Y-116178674D01*
X140533025Y-116185847D01*
X140533024Y-116185848D01*
X140523254Y-116206610D01*
X140466421Y-116327387D01*
X140464936Y-116335170D01*
X140464935Y-116335174D01*
X140437109Y-116481044D01*
X140435624Y-116488830D01*
X140445944Y-116652860D01*
X140448393Y-116660396D01*
X140448393Y-116660398D01*
X140457057Y-116687064D01*
X140496732Y-116809171D01*
X140584798Y-116947940D01*
X140590577Y-116953367D01*
X140590578Y-116953368D01*
X140619674Y-116980691D01*
X140704607Y-117060448D01*
X140711551Y-117064265D01*
X140711553Y-117064267D01*
X140784016Y-117104104D01*
X140848632Y-117139627D01*
X140856304Y-117141597D01*
X140856307Y-117141598D01*
X141000145Y-117178529D01*
X141000148Y-117178529D01*
X141007823Y-117180500D01*
X141130925Y-117180500D01*
X141188690Y-117173203D01*
X141245193Y-117166065D01*
X141245196Y-117166064D01*
X141253058Y-117165071D01*
X141260425Y-117162154D01*
X141260426Y-117162154D01*
X141317648Y-117139498D01*
X141405871Y-117104568D01*
X141415871Y-117097303D01*
X141532423Y-117012623D01*
X141538837Y-117007963D01*
X141643600Y-116881326D01*
X141646977Y-116874149D01*
X141647113Y-116873935D01*
X141700502Y-116827135D01*
X141770717Y-116816629D01*
X141835465Y-116845751D01*
X141874191Y-116905257D01*
X141879500Y-116941447D01*
X141879500Y-117826347D01*
X141859498Y-117894468D01*
X141805842Y-117940961D01*
X141735568Y-117951065D01*
X141670988Y-117921571D01*
X141647115Y-117893862D01*
X141646509Y-117892907D01*
X141595202Y-117812060D01*
X141534132Y-117754711D01*
X141481170Y-117704977D01*
X141475393Y-117699552D01*
X141468449Y-117695735D01*
X141468447Y-117695733D01*
X141367502Y-117640238D01*
X141331368Y-117620373D01*
X141323696Y-117618403D01*
X141323693Y-117618402D01*
X141179855Y-117581471D01*
X141179852Y-117581471D01*
X141172177Y-117579500D01*
X141049075Y-117579500D01*
X140991310Y-117586797D01*
X140934807Y-117593935D01*
X140934804Y-117593936D01*
X140926942Y-117594929D01*
X140919575Y-117597846D01*
X140919574Y-117597846D01*
X140891895Y-117608805D01*
X140774129Y-117655432D01*
X140767718Y-117660090D01*
X140767716Y-117660091D01*
X140708387Y-117703196D01*
X140641163Y-117752037D01*
X140536400Y-117878674D01*
X140466421Y-118027387D01*
X140464936Y-118035170D01*
X140464935Y-118035174D01*
X140437402Y-118179509D01*
X140435624Y-118188830D01*
X140436506Y-118202841D01*
X140444714Y-118333305D01*
X140445944Y-118352860D01*
X140448393Y-118360396D01*
X140448393Y-118360398D01*
X140462028Y-118402363D01*
X140496732Y-118509171D01*
X140584798Y-118647940D01*
X140590577Y-118653367D01*
X140590578Y-118653368D01*
X140652585Y-118711597D01*
X140688551Y-118772810D01*
X140685712Y-118843750D01*
X140640393Y-118905383D01*
X140517770Y-118994474D01*
X140513357Y-118999376D01*
X140513355Y-118999377D01*
X140402560Y-119122427D01*
X140398141Y-119127335D01*
X140394838Y-119133056D01*
X140318686Y-119264956D01*
X140308750Y-119282165D01*
X140253503Y-119452197D01*
X140234815Y-119630000D01*
X140253503Y-119807803D01*
X140308750Y-119977835D01*
X140312053Y-119983557D01*
X140312054Y-119983558D01*
X140352270Y-120053214D01*
X140398141Y-120132665D01*
X140402559Y-120137572D01*
X140402560Y-120137573D01*
X140511292Y-120258331D01*
X140517770Y-120265526D01*
X140523109Y-120269405D01*
X140636745Y-120351967D01*
X140662407Y-120370612D01*
X140668435Y-120373296D01*
X140668437Y-120373297D01*
X140682028Y-120379348D01*
X140825733Y-120443329D01*
X140913171Y-120461914D01*
X140994152Y-120479128D01*
X140994156Y-120479128D01*
X141000609Y-120480500D01*
X141179391Y-120480500D01*
X141185844Y-120479128D01*
X141185848Y-120479128D01*
X141266829Y-120461914D01*
X141354267Y-120443329D01*
X141497972Y-120379348D01*
X141511563Y-120373297D01*
X141511565Y-120373296D01*
X141517593Y-120370612D01*
X141543256Y-120351967D01*
X141656891Y-120269405D01*
X141662230Y-120265526D01*
X141666646Y-120260622D01*
X141669190Y-120258331D01*
X141733197Y-120227613D01*
X141803651Y-120236378D01*
X141858182Y-120281841D01*
X141879500Y-120351967D01*
X141879500Y-123273500D01*
X141859498Y-123341621D01*
X141805842Y-123388114D01*
X141753500Y-123399500D01*
X140289731Y-123399500D01*
X140221610Y-123379498D01*
X140175117Y-123325842D01*
X140165013Y-123255568D01*
X140194373Y-123191282D01*
X140198282Y-123188282D01*
X140294536Y-123062841D01*
X140355044Y-122916762D01*
X140362125Y-122862980D01*
X140371980Y-122788116D01*
X140375682Y-122760000D01*
X140357861Y-122624634D01*
X140356122Y-122611426D01*
X140355044Y-122603238D01*
X140294536Y-122457159D01*
X140213963Y-122352154D01*
X140203305Y-122338264D01*
X140198282Y-122331718D01*
X140072841Y-122235464D01*
X139926762Y-122174956D01*
X139770000Y-122154318D01*
X139613238Y-122174956D01*
X139467159Y-122235464D01*
X139341718Y-122331718D01*
X139336695Y-122338264D01*
X139326037Y-122352154D01*
X139245464Y-122457159D01*
X139184956Y-122603238D01*
X139183878Y-122611426D01*
X139182139Y-122624634D01*
X139164318Y-122760000D01*
X139168020Y-122788116D01*
X139177876Y-122862980D01*
X139184956Y-122916762D01*
X139245464Y-123062841D01*
X139341718Y-123188282D01*
X139348264Y-123193305D01*
X139350575Y-123195616D01*
X139384601Y-123257928D01*
X139379536Y-123328743D01*
X139336989Y-123385579D01*
X139286064Y-123408290D01*
X139271769Y-123411133D01*
X139205448Y-123455448D01*
X139198557Y-123465761D01*
X139178032Y-123496479D01*
X139161133Y-123521769D01*
X139158712Y-123533938D01*
X139158712Y-123533939D01*
X139155234Y-123551426D01*
X139149500Y-123580252D01*
X139149500Y-125719748D01*
X139161133Y-125778231D01*
X139205448Y-125844552D01*
X139271769Y-125888867D01*
X139283938Y-125891288D01*
X139283939Y-125891288D01*
X139324184Y-125899293D01*
X139330252Y-125900500D01*
X140273273Y-125900500D01*
X140341394Y-125920502D01*
X140387887Y-125974158D01*
X140397991Y-126044432D01*
X140378038Y-126096502D01*
X140358027Y-126126450D01*
X140358025Y-126126454D01*
X140351133Y-126136769D01*
X140339500Y-126195252D01*
X140339500Y-127504748D01*
X140351133Y-127563231D01*
X140395448Y-127629552D01*
X140461769Y-127673867D01*
X140473938Y-127676288D01*
X140473939Y-127676288D01*
X140514184Y-127684293D01*
X140520252Y-127685500D01*
X141753500Y-127685500D01*
X141821621Y-127705502D01*
X141868114Y-127759158D01*
X141879500Y-127811500D01*
X141879500Y-133052920D01*
X141877534Y-133070241D01*
X141877524Y-133075810D01*
X141874344Y-133089641D01*
X141877477Y-133103483D01*
X141877452Y-133117671D01*
X141876703Y-133117670D01*
X141877346Y-133125610D01*
X141863194Y-133359567D01*
X141861360Y-133374671D01*
X141814055Y-133632808D01*
X141810414Y-133647581D01*
X141750484Y-133839905D01*
X141732337Y-133898140D01*
X141726943Y-133912363D01*
X141631558Y-134124298D01*
X141619235Y-134151679D01*
X141612165Y-134165151D01*
X141573171Y-134229655D01*
X141476395Y-134389741D01*
X141467753Y-134402262D01*
X141326558Y-134582484D01*
X141305896Y-134608857D01*
X141295806Y-134620245D01*
X141110245Y-134805806D01*
X141098857Y-134815896D01*
X140892263Y-134977752D01*
X140879741Y-134986395D01*
X140655152Y-135122164D01*
X140641681Y-135129234D01*
X140402363Y-135236943D01*
X140388145Y-135242335D01*
X140150651Y-135316341D01*
X140137581Y-135320414D01*
X140122808Y-135324055D01*
X139864671Y-135371360D01*
X139849567Y-135373194D01*
X139766817Y-135378200D01*
X139616053Y-135387319D01*
X139608232Y-135387549D01*
X139594189Y-135387524D01*
X139580359Y-135384344D01*
X139566520Y-135387476D01*
X139561689Y-135387467D01*
X139543496Y-135389500D01*
X135617371Y-135389500D01*
X135588918Y-135386245D01*
X135587676Y-135385957D01*
X135587669Y-135385956D01*
X135580718Y-135384345D01*
X135580000Y-135384344D01*
X135577873Y-135384829D01*
X135575612Y-135384569D01*
X135575652Y-135385336D01*
X135244998Y-135402665D01*
X135241758Y-135403178D01*
X135241750Y-135403179D01*
X135089703Y-135427261D01*
X134913665Y-135455143D01*
X134910484Y-135455995D01*
X134910481Y-135455996D01*
X134910474Y-135455998D01*
X134820179Y-135480193D01*
X134787671Y-135484485D01*
X124128370Y-135492742D01*
X113434260Y-135501026D01*
X113401551Y-135496733D01*
X113381736Y-135491424D01*
X113246335Y-135455143D01*
X113070297Y-135427261D01*
X112918250Y-135403179D01*
X112918242Y-135403178D01*
X112915002Y-135402665D01*
X112585181Y-135385380D01*
X112585224Y-135384566D01*
X112582827Y-135384834D01*
X112580718Y-135384345D01*
X112580000Y-135384344D01*
X112571225Y-135386346D01*
X112543210Y-135389500D01*
X108617080Y-135389500D01*
X108599759Y-135387534D01*
X108594190Y-135387524D01*
X108580359Y-135384344D01*
X108566517Y-135387477D01*
X108552329Y-135387452D01*
X108552330Y-135386703D01*
X108544390Y-135387346D01*
X108310433Y-135373194D01*
X108295329Y-135371360D01*
X108037192Y-135324055D01*
X108022419Y-135320414D01*
X108009349Y-135316341D01*
X107771855Y-135242335D01*
X107757637Y-135236943D01*
X107518319Y-135129234D01*
X107504848Y-135122164D01*
X107280259Y-134986395D01*
X107267737Y-134977752D01*
X107061143Y-134815896D01*
X107049755Y-134805806D01*
X106864194Y-134620245D01*
X106854104Y-134608857D01*
X106833442Y-134582484D01*
X106692247Y-134402262D01*
X106683605Y-134389741D01*
X106586830Y-134229655D01*
X106547835Y-134165151D01*
X106540765Y-134151679D01*
X106528442Y-134124298D01*
X106433057Y-133912363D01*
X106427663Y-133898140D01*
X106409517Y-133839905D01*
X106349586Y-133647581D01*
X106345945Y-133632808D01*
X106298640Y-133374671D01*
X106296806Y-133359567D01*
X106282692Y-133126242D01*
X106283288Y-133104226D01*
X106284042Y-133097677D01*
X106285655Y-133090718D01*
X106285656Y-133090000D01*
X106283654Y-133081225D01*
X106280500Y-133053210D01*
X106280500Y-132792736D01*
X107025070Y-132792736D01*
X107025698Y-132805807D01*
X107037909Y-133060041D01*
X107090118Y-133322512D01*
X107180549Y-133574383D01*
X107182765Y-133578507D01*
X107299204Y-133795211D01*
X107307215Y-133810121D01*
X107310010Y-133813864D01*
X107310012Y-133813867D01*
X107394199Y-133926607D01*
X107467335Y-134024547D01*
X107470642Y-134027825D01*
X107470647Y-134027831D01*
X107654074Y-134209663D01*
X107657390Y-134212950D01*
X107873205Y-134371192D01*
X107877340Y-134373368D01*
X107877344Y-134373370D01*
X108006918Y-134441542D01*
X108110039Y-134495797D01*
X108114458Y-134497340D01*
X108358273Y-134582484D01*
X108358279Y-134582486D01*
X108362690Y-134584026D01*
X108625606Y-134633943D01*
X108752616Y-134638933D01*
X108888345Y-134644266D01*
X108888350Y-134644266D01*
X108893013Y-134644449D01*
X108988943Y-134633943D01*
X109154382Y-134615825D01*
X109154387Y-134615824D01*
X109159035Y-134615315D01*
X109274567Y-134584898D01*
X109413309Y-134548370D01*
X109417829Y-134547180D01*
X109542501Y-134493617D01*
X109659407Y-134443391D01*
X109659410Y-134443389D01*
X109663710Y-134441542D01*
X109667690Y-134439079D01*
X109667694Y-134439077D01*
X109887302Y-134303179D01*
X109887306Y-134303176D01*
X109891275Y-134300720D01*
X109965293Y-134238059D01*
X110091960Y-134130828D01*
X110091961Y-134130827D01*
X110095526Y-134127809D01*
X110186085Y-134024547D01*
X110268894Y-133930122D01*
X110268898Y-133930117D01*
X110271976Y-133926607D01*
X110275109Y-133921736D01*
X110414219Y-133705465D01*
X110414222Y-133705460D01*
X110416747Y-133701534D01*
X110507531Y-133500000D01*
X135894318Y-133500000D01*
X135914956Y-133656762D01*
X135975464Y-133802841D01*
X136071718Y-133928282D01*
X136197159Y-134024536D01*
X136343238Y-134085044D01*
X136500000Y-134105682D01*
X136508188Y-134104604D01*
X136648574Y-134086122D01*
X136656762Y-134085044D01*
X136802841Y-134024536D01*
X136928282Y-133928282D01*
X137024536Y-133802841D01*
X137085044Y-133656762D01*
X137105682Y-133500000D01*
X137085044Y-133343238D01*
X137024536Y-133197159D01*
X136928282Y-133071718D01*
X136802841Y-132975464D01*
X136656762Y-132914956D01*
X136500000Y-132894318D01*
X136343238Y-132914956D01*
X136197159Y-132975464D01*
X136071718Y-133071718D01*
X135975464Y-133197159D01*
X135914956Y-133343238D01*
X135894318Y-133500000D01*
X110507531Y-133500000D01*
X110526661Y-133457534D01*
X110558896Y-133343238D01*
X110598032Y-133204473D01*
X110598033Y-133204470D01*
X110599302Y-133199969D01*
X110617103Y-133060041D01*
X110632677Y-132937625D01*
X110632677Y-132937621D01*
X110633075Y-132934495D01*
X110635549Y-132840000D01*
X110632037Y-132792736D01*
X137525070Y-132792736D01*
X137525698Y-132805807D01*
X137537909Y-133060041D01*
X137590118Y-133322512D01*
X137680549Y-133574383D01*
X137682765Y-133578507D01*
X137799204Y-133795211D01*
X137807215Y-133810121D01*
X137810010Y-133813864D01*
X137810012Y-133813867D01*
X137894199Y-133926607D01*
X137967335Y-134024547D01*
X137970642Y-134027825D01*
X137970647Y-134027831D01*
X138154074Y-134209663D01*
X138157390Y-134212950D01*
X138373205Y-134371192D01*
X138377340Y-134373368D01*
X138377344Y-134373370D01*
X138506918Y-134441542D01*
X138610039Y-134495797D01*
X138614458Y-134497340D01*
X138858273Y-134582484D01*
X138858279Y-134582486D01*
X138862690Y-134584026D01*
X139125606Y-134633943D01*
X139252616Y-134638933D01*
X139388345Y-134644266D01*
X139388350Y-134644266D01*
X139393013Y-134644449D01*
X139488943Y-134633943D01*
X139654382Y-134615825D01*
X139654387Y-134615824D01*
X139659035Y-134615315D01*
X139774567Y-134584898D01*
X139913309Y-134548370D01*
X139917829Y-134547180D01*
X140042501Y-134493617D01*
X140159407Y-134443391D01*
X140159410Y-134443389D01*
X140163710Y-134441542D01*
X140167690Y-134439079D01*
X140167694Y-134439077D01*
X140387302Y-134303179D01*
X140387306Y-134303176D01*
X140391275Y-134300720D01*
X140465293Y-134238059D01*
X140591960Y-134130828D01*
X140591961Y-134130827D01*
X140595526Y-134127809D01*
X140686085Y-134024547D01*
X140768894Y-133930122D01*
X140768898Y-133930117D01*
X140771976Y-133926607D01*
X140775109Y-133921736D01*
X140914219Y-133705465D01*
X140914222Y-133705460D01*
X140916747Y-133701534D01*
X141026661Y-133457534D01*
X141058896Y-133343238D01*
X141098032Y-133204473D01*
X141098033Y-133204470D01*
X141099302Y-133199969D01*
X141117103Y-133060041D01*
X141132677Y-132937625D01*
X141132677Y-132937621D01*
X141133075Y-132934495D01*
X141135549Y-132840000D01*
X141131691Y-132788081D01*
X141116064Y-132577788D01*
X141116063Y-132577784D01*
X141115717Y-132573123D01*
X141105161Y-132526470D01*
X141057686Y-132316666D01*
X141056655Y-132312109D01*
X140959662Y-132062691D01*
X140826868Y-131830350D01*
X140661190Y-131620189D01*
X140466269Y-131436825D01*
X140246385Y-131284286D01*
X140217538Y-131270060D01*
X140010559Y-131167989D01*
X140010556Y-131167988D01*
X140006371Y-131165924D01*
X139751497Y-131084338D01*
X139606134Y-131060665D01*
X139491976Y-131042073D01*
X139491975Y-131042073D01*
X139487364Y-131041322D01*
X139353569Y-131039571D01*
X139224451Y-131037880D01*
X139224448Y-131037880D01*
X139219774Y-131037819D01*
X138954605Y-131073907D01*
X138950118Y-131075215D01*
X138950117Y-131075215D01*
X138918817Y-131084338D01*
X138697683Y-131148792D01*
X138693430Y-131150752D01*
X138693429Y-131150753D01*
X138641512Y-131174687D01*
X138454652Y-131260831D01*
X138426957Y-131278989D01*
X138234764Y-131404996D01*
X138234759Y-131405000D01*
X138230851Y-131407562D01*
X138190128Y-131443909D01*
X138039596Y-131578264D01*
X138031197Y-131585760D01*
X137860075Y-131791512D01*
X137857652Y-131795505D01*
X137728593Y-132008188D01*
X137721244Y-132020298D01*
X137719437Y-132024606D01*
X137719437Y-132024607D01*
X137660821Y-132164391D01*
X137617755Y-132267091D01*
X137616604Y-132271623D01*
X137616603Y-132271626D01*
X137575542Y-132433305D01*
X137551881Y-132526470D01*
X137525070Y-132792736D01*
X110632037Y-132792736D01*
X110631691Y-132788081D01*
X110616064Y-132577788D01*
X110616063Y-132577784D01*
X110615717Y-132573123D01*
X110605161Y-132526470D01*
X110557686Y-132316666D01*
X110556655Y-132312109D01*
X110459662Y-132062691D01*
X110423831Y-132000000D01*
X135894318Y-132000000D01*
X135914956Y-132156762D01*
X135975464Y-132302841D01*
X136071718Y-132428282D01*
X136197159Y-132524536D01*
X136343238Y-132585044D01*
X136500000Y-132605682D01*
X136508188Y-132604604D01*
X136648574Y-132586122D01*
X136656762Y-132585044D01*
X136802841Y-132524536D01*
X136928282Y-132428282D01*
X137024536Y-132302841D01*
X137085044Y-132156762D01*
X137105682Y-132000000D01*
X137085044Y-131843238D01*
X137081387Y-131834408D01*
X137027696Y-131704789D01*
X137024536Y-131697159D01*
X136928282Y-131571718D01*
X136917557Y-131563488D01*
X136809392Y-131480491D01*
X136802841Y-131475464D01*
X136656762Y-131414956D01*
X136500000Y-131394318D01*
X136343238Y-131414956D01*
X136197159Y-131475464D01*
X136190608Y-131480491D01*
X136082444Y-131563488D01*
X136071718Y-131571718D01*
X135975464Y-131697159D01*
X135972304Y-131704789D01*
X135918614Y-131834408D01*
X135914956Y-131843238D01*
X135894318Y-132000000D01*
X110423831Y-132000000D01*
X110326868Y-131830350D01*
X110161190Y-131620189D01*
X109966269Y-131436825D01*
X109746385Y-131284286D01*
X109717538Y-131270060D01*
X109510559Y-131167989D01*
X109510556Y-131167988D01*
X109506371Y-131165924D01*
X109251497Y-131084338D01*
X109106134Y-131060665D01*
X108991976Y-131042073D01*
X108991975Y-131042073D01*
X108987364Y-131041322D01*
X108853569Y-131039571D01*
X108724451Y-131037880D01*
X108724448Y-131037880D01*
X108719774Y-131037819D01*
X108454605Y-131073907D01*
X108450118Y-131075215D01*
X108450117Y-131075215D01*
X108418817Y-131084338D01*
X108197683Y-131148792D01*
X108193430Y-131150752D01*
X108193429Y-131150753D01*
X108141512Y-131174687D01*
X107954652Y-131260831D01*
X107926957Y-131278989D01*
X107734764Y-131404996D01*
X107734759Y-131405000D01*
X107730851Y-131407562D01*
X107690128Y-131443909D01*
X107539596Y-131578264D01*
X107531197Y-131585760D01*
X107360075Y-131791512D01*
X107357652Y-131795505D01*
X107228593Y-132008188D01*
X107221244Y-132020298D01*
X107219437Y-132024606D01*
X107219437Y-132024607D01*
X107160821Y-132164391D01*
X107117755Y-132267091D01*
X107116604Y-132271623D01*
X107116603Y-132271626D01*
X107075542Y-132433305D01*
X107051881Y-132526470D01*
X107025070Y-132792736D01*
X106280500Y-132792736D01*
X106280500Y-127811500D01*
X106300502Y-127743379D01*
X106354158Y-127696886D01*
X106406500Y-127685500D01*
X107629348Y-127685500D01*
X107635416Y-127684293D01*
X107675661Y-127676288D01*
X107675662Y-127676288D01*
X107687831Y-127673867D01*
X107754152Y-127629552D01*
X107798467Y-127563231D01*
X107810100Y-127504748D01*
X107810100Y-126195252D01*
X107798467Y-126136769D01*
X107791575Y-126126454D01*
X107791573Y-126126450D01*
X107771562Y-126096502D01*
X107750347Y-126028749D01*
X107769130Y-125960282D01*
X107821947Y-125912839D01*
X107876327Y-125900500D01*
X108819348Y-125900500D01*
X108825416Y-125899293D01*
X108865661Y-125891288D01*
X108865662Y-125891288D01*
X108877831Y-125888867D01*
X108944152Y-125844552D01*
X108988467Y-125778231D01*
X109000100Y-125719748D01*
X109000100Y-123700000D01*
X113165418Y-123700000D01*
X113186056Y-123856762D01*
X113246564Y-124002841D01*
X113273309Y-124037696D01*
X113332323Y-124114604D01*
X113342818Y-124128282D01*
X113468259Y-124224536D01*
X113614338Y-124285044D01*
X113771100Y-124305682D01*
X113779288Y-124304604D01*
X113919674Y-124286122D01*
X113927862Y-124285044D01*
X114073941Y-124224536D01*
X114199382Y-124128282D01*
X114209878Y-124114604D01*
X114268891Y-124037696D01*
X114295636Y-124002841D01*
X114356144Y-123856762D01*
X114376782Y-123700000D01*
X114363600Y-123599871D01*
X114357222Y-123551426D01*
X114356144Y-123543238D01*
X114295636Y-123397159D01*
X114209218Y-123284536D01*
X114204405Y-123278264D01*
X114199382Y-123271718D01*
X114181411Y-123257928D01*
X114106709Y-123200608D01*
X114073941Y-123175464D01*
X113927862Y-123114956D01*
X113890552Y-123110044D01*
X113779288Y-123095396D01*
X113771100Y-123094318D01*
X113762912Y-123095396D01*
X113651649Y-123110044D01*
X113614338Y-123114956D01*
X113468259Y-123175464D01*
X113435491Y-123200608D01*
X113360790Y-123257928D01*
X113342818Y-123271718D01*
X113337795Y-123278264D01*
X113332982Y-123284536D01*
X113246564Y-123397159D01*
X113186056Y-123543238D01*
X113184978Y-123551426D01*
X113178600Y-123599871D01*
X113165418Y-123700000D01*
X109000100Y-123700000D01*
X109000100Y-123580252D01*
X108994366Y-123551426D01*
X108990888Y-123533939D01*
X108990888Y-123533938D01*
X108988467Y-123521769D01*
X108971569Y-123496479D01*
X108951043Y-123465761D01*
X108944152Y-123455448D01*
X108877831Y-123411133D01*
X108865662Y-123408712D01*
X108865661Y-123408712D01*
X108825416Y-123400707D01*
X108819348Y-123399500D01*
X106406500Y-123399500D01*
X106338379Y-123379498D01*
X106291886Y-123325842D01*
X106280500Y-123273500D01*
X106280500Y-122412838D01*
X106300502Y-122344717D01*
X106354158Y-122298224D01*
X106424432Y-122288120D01*
X106478950Y-122309750D01*
X106610047Y-122401887D01*
X106768013Y-122463476D01*
X106775546Y-122464468D01*
X106775547Y-122464468D01*
X106893239Y-122479962D01*
X106897326Y-122480500D01*
X107786016Y-122480500D01*
X107911820Y-122465276D01*
X108070423Y-122405345D01*
X108130570Y-122364007D01*
X108203892Y-122313614D01*
X108203893Y-122313613D01*
X108210151Y-122309312D01*
X108220030Y-122298224D01*
X108317888Y-122188392D01*
X108317890Y-122188388D01*
X108322940Y-122182721D01*
X108327052Y-122174956D01*
X108371136Y-122091695D01*
X108402276Y-122032881D01*
X108443581Y-121868441D01*
X108443620Y-121861105D01*
X110272531Y-121861105D01*
X110274305Y-121868492D01*
X110274305Y-121868496D01*
X110293480Y-121948363D01*
X110312112Y-122025968D01*
X110315593Y-122032712D01*
X110315594Y-122032715D01*
X110357194Y-122113313D01*
X110389875Y-122176631D01*
X110394867Y-122182353D01*
X110394868Y-122182355D01*
X110424707Y-122216560D01*
X110501331Y-122304396D01*
X110549520Y-122338264D01*
X110633830Y-122397518D01*
X110633832Y-122397519D01*
X110640047Y-122401887D01*
X110798013Y-122463476D01*
X110805546Y-122464468D01*
X110805547Y-122464468D01*
X110923239Y-122479962D01*
X110927326Y-122480500D01*
X112116016Y-122480500D01*
X112241820Y-122465276D01*
X112400423Y-122405345D01*
X112460570Y-122364007D01*
X112533892Y-122313614D01*
X112533893Y-122313613D01*
X112540151Y-122309312D01*
X112550030Y-122298224D01*
X112647888Y-122188392D01*
X112647890Y-122188388D01*
X112652940Y-122182721D01*
X112657052Y-122174956D01*
X112701136Y-122091695D01*
X112732276Y-122032881D01*
X112773581Y-121868441D01*
X112773621Y-121860841D01*
X112774186Y-121753021D01*
X112794545Y-121685006D01*
X112848443Y-121638795D01*
X112918769Y-121629059D01*
X112976888Y-121653718D01*
X112978042Y-121654604D01*
X113018204Y-121685422D01*
X113018207Y-121685424D01*
X113024756Y-121690449D01*
X113170835Y-121750957D01*
X113179023Y-121752035D01*
X113249216Y-121761276D01*
X113327597Y-121771595D01*
X113335785Y-121770517D01*
X113476171Y-121752035D01*
X113484359Y-121750957D01*
X113630438Y-121690449D01*
X113755879Y-121594195D01*
X113852133Y-121468754D01*
X113912641Y-121322675D01*
X113933279Y-121165913D01*
X113912641Y-121009151D01*
X113852133Y-120863072D01*
X113755879Y-120737631D01*
X113670002Y-120671735D01*
X113636992Y-120646406D01*
X113636989Y-120646404D01*
X113630438Y-120641377D01*
X113622803Y-120638215D01*
X113619946Y-120636565D01*
X113570952Y-120585183D01*
X113557514Y-120515470D01*
X113583900Y-120449558D01*
X113634725Y-120411035D01*
X113645734Y-120406475D01*
X113722841Y-120374536D01*
X113848282Y-120278282D01*
X113944536Y-120152841D01*
X114005044Y-120006762D01*
X114025682Y-119850000D01*
X114005044Y-119693238D01*
X113944536Y-119547159D01*
X113876059Y-119457918D01*
X113853305Y-119428264D01*
X113848282Y-119421718D01*
X113722841Y-119325464D01*
X113576762Y-119264956D01*
X113420000Y-119244318D01*
X113263238Y-119264956D01*
X113117159Y-119325464D01*
X112991718Y-119421718D01*
X112986695Y-119428264D01*
X112963941Y-119457918D01*
X112895464Y-119547159D01*
X112834956Y-119693238D01*
X112814318Y-119850000D01*
X112834956Y-120006762D01*
X112895464Y-120152841D01*
X112991718Y-120278282D01*
X113117159Y-120374536D01*
X113124794Y-120377698D01*
X113127651Y-120379348D01*
X113176645Y-120430730D01*
X113190083Y-120500443D01*
X113163697Y-120566355D01*
X113112872Y-120604878D01*
X113024756Y-120641377D01*
X112899315Y-120737631D01*
X112803061Y-120863072D01*
X112742553Y-121009151D01*
X112723751Y-121151971D01*
X112723337Y-121155114D01*
X112694615Y-121220041D01*
X112635350Y-121259133D01*
X112564358Y-121259978D01*
X112525965Y-121241755D01*
X112413174Y-121162484D01*
X112413167Y-121162480D01*
X112406953Y-121158113D01*
X112248987Y-121096524D01*
X112241454Y-121095532D01*
X112241453Y-121095532D01*
X112123761Y-121080038D01*
X112123760Y-121080038D01*
X112119674Y-121079500D01*
X111387982Y-121079500D01*
X111319861Y-121059498D01*
X111273368Y-121005842D01*
X111263264Y-120935568D01*
X111292758Y-120870988D01*
X111313577Y-120853798D01*
X111312733Y-120852698D01*
X111426401Y-120765477D01*
X111432951Y-120760451D01*
X111525198Y-120640233D01*
X111583187Y-120500236D01*
X111602966Y-120350000D01*
X111583187Y-120199764D01*
X111525198Y-120059767D01*
X111432951Y-119939549D01*
X111312733Y-119847302D01*
X111172736Y-119789313D01*
X111060220Y-119774500D01*
X110984780Y-119774500D01*
X110872264Y-119789313D01*
X110732267Y-119847302D01*
X110612049Y-119939549D01*
X110519802Y-120059767D01*
X110461813Y-120199764D01*
X110442034Y-120350000D01*
X110461813Y-120500236D01*
X110519802Y-120640233D01*
X110612049Y-120760451D01*
X110732267Y-120852698D01*
X110739895Y-120855858D01*
X110739899Y-120855860D01*
X110778591Y-120871886D01*
X110833872Y-120916434D01*
X110856294Y-120983797D01*
X110838736Y-121052588D01*
X110786775Y-121100967D01*
X110774912Y-121106161D01*
X110669090Y-121146148D01*
X110646577Y-121154655D01*
X110640319Y-121158956D01*
X110515278Y-121244895D01*
X110506849Y-121250688D01*
X110501797Y-121256358D01*
X110501796Y-121256359D01*
X110399112Y-121371608D01*
X110399110Y-121371612D01*
X110394060Y-121377279D01*
X110390508Y-121383988D01*
X110390507Y-121383989D01*
X110382114Y-121399841D01*
X110314724Y-121527119D01*
X110273419Y-121691559D01*
X110273379Y-121699157D01*
X110273379Y-121699159D01*
X110273324Y-121709654D01*
X110272531Y-121861105D01*
X108443620Y-121861105D01*
X108443626Y-121859976D01*
X108444094Y-121770517D01*
X108444469Y-121698895D01*
X108442442Y-121690449D01*
X108406661Y-121541417D01*
X108404888Y-121534032D01*
X108399319Y-121523241D01*
X108330608Y-121390117D01*
X108330608Y-121390116D01*
X108327125Y-121383369D01*
X108321813Y-121377279D01*
X108259692Y-121306069D01*
X108215669Y-121255604D01*
X108099702Y-121174101D01*
X108083170Y-121162482D01*
X108083168Y-121162481D01*
X108076953Y-121158113D01*
X107918987Y-121096524D01*
X107911454Y-121095532D01*
X107911453Y-121095532D01*
X107793761Y-121080038D01*
X107793760Y-121080038D01*
X107789674Y-121079500D01*
X106900984Y-121079500D01*
X106775180Y-121094724D01*
X106616577Y-121154655D01*
X106610319Y-121158956D01*
X106477867Y-121249988D01*
X106410398Y-121272088D01*
X106341691Y-121254203D01*
X106293561Y-121202011D01*
X106280500Y-121146148D01*
X106280500Y-119020000D01*
X109104318Y-119020000D01*
X109124956Y-119176762D01*
X109128116Y-119184391D01*
X109128833Y-119186122D01*
X109185464Y-119322841D01*
X109190491Y-119329392D01*
X109257481Y-119416695D01*
X109281718Y-119448282D01*
X109288264Y-119453305D01*
X109317918Y-119476059D01*
X109407159Y-119544536D01*
X109553238Y-119605044D01*
X109710000Y-119625682D01*
X109718188Y-119624604D01*
X109858574Y-119606122D01*
X109866762Y-119605044D01*
X110012841Y-119544536D01*
X110102082Y-119476059D01*
X110131736Y-119453305D01*
X110138282Y-119448282D01*
X110162520Y-119416695D01*
X110229509Y-119329392D01*
X110234536Y-119322841D01*
X110291167Y-119186122D01*
X110291884Y-119184391D01*
X110295044Y-119176762D01*
X110315682Y-119020000D01*
X110295044Y-118863238D01*
X110234536Y-118717159D01*
X110138282Y-118591718D01*
X110012841Y-118495464D01*
X109866762Y-118434956D01*
X109710000Y-118414318D01*
X109553238Y-118434956D01*
X109407159Y-118495464D01*
X109281718Y-118591718D01*
X109185464Y-118717159D01*
X109124956Y-118863238D01*
X109104318Y-119020000D01*
X106280500Y-119020000D01*
X106280500Y-117490000D01*
X107964318Y-117490000D01*
X107984956Y-117646762D01*
X108045464Y-117792841D01*
X108093188Y-117855036D01*
X108133129Y-117907088D01*
X108141718Y-117918282D01*
X108267159Y-118014536D01*
X108413238Y-118075044D01*
X108570000Y-118095682D01*
X108578188Y-118094604D01*
X108718574Y-118076122D01*
X108726762Y-118075044D01*
X108872841Y-118014536D01*
X108998282Y-117918282D01*
X109006872Y-117907088D01*
X109046812Y-117855036D01*
X109094536Y-117792841D01*
X109155044Y-117646762D01*
X109175682Y-117490000D01*
X109155044Y-117333238D01*
X109094536Y-117187159D01*
X109012310Y-117080000D01*
X109003305Y-117068264D01*
X108998282Y-117061718D01*
X108872841Y-116965464D01*
X108726762Y-116904956D01*
X108570000Y-116884318D01*
X108413238Y-116904956D01*
X108267159Y-116965464D01*
X108141718Y-117061718D01*
X108136695Y-117068264D01*
X108127690Y-117080000D01*
X108045464Y-117187159D01*
X107984956Y-117333238D01*
X107964318Y-117490000D01*
X106280500Y-117490000D01*
X106280500Y-115521209D01*
X109672487Y-115521209D01*
X109693125Y-115677971D01*
X109696285Y-115685600D01*
X109700701Y-115696262D01*
X109753633Y-115824050D01*
X109794821Y-115877727D01*
X109840266Y-115936952D01*
X109849887Y-115949491D01*
X109877683Y-115970820D01*
X109919550Y-116028156D01*
X109923772Y-116099027D01*
X109900942Y-116147486D01*
X109850548Y-116213161D01*
X109790040Y-116359240D01*
X109769402Y-116516002D01*
X109772496Y-116539500D01*
X109786790Y-116648074D01*
X109790040Y-116672764D01*
X109850548Y-116818843D01*
X109910422Y-116896873D01*
X109939651Y-116934964D01*
X109946802Y-116944284D01*
X109953348Y-116949307D01*
X109953352Y-116949311D01*
X110026281Y-117005272D01*
X110068148Y-117062610D01*
X110072370Y-117133481D01*
X110037605Y-117195384D01*
X110026282Y-117205197D01*
X109991718Y-117231718D01*
X109986695Y-117238264D01*
X109967771Y-117262926D01*
X109895464Y-117357159D01*
X109834956Y-117503238D01*
X109814318Y-117660000D01*
X109834956Y-117816762D01*
X109895464Y-117962841D01*
X109991718Y-118088282D01*
X110117159Y-118184536D01*
X110263238Y-118245044D01*
X110420000Y-118265682D01*
X110428188Y-118264604D01*
X110568574Y-118246122D01*
X110576762Y-118245044D01*
X110722841Y-118184536D01*
X110848282Y-118088282D01*
X110944536Y-117962841D01*
X111005044Y-117816762D01*
X111025682Y-117660000D01*
X111005044Y-117503238D01*
X110944536Y-117357159D01*
X110872229Y-117262926D01*
X110853305Y-117238264D01*
X110848282Y-117231718D01*
X110841736Y-117226695D01*
X110841732Y-117226691D01*
X110768803Y-117170730D01*
X110726936Y-117113392D01*
X110722714Y-117042521D01*
X110757479Y-116980618D01*
X110768803Y-116970805D01*
X110796820Y-116949307D01*
X110803366Y-116944284D01*
X110810518Y-116934964D01*
X110839746Y-116896873D01*
X110899620Y-116818843D01*
X110960128Y-116672764D01*
X110963379Y-116648074D01*
X110977672Y-116539500D01*
X110980766Y-116516002D01*
X110960128Y-116359240D01*
X110899620Y-116213161D01*
X110803366Y-116087720D01*
X110775570Y-116066391D01*
X110733703Y-116009055D01*
X110729481Y-115938184D01*
X110752311Y-115889725D01*
X110781168Y-115852118D01*
X110802705Y-115824050D01*
X110855637Y-115696262D01*
X110860053Y-115685600D01*
X110863213Y-115677971D01*
X110883851Y-115521209D01*
X110863213Y-115364447D01*
X110843796Y-115317570D01*
X110836207Y-115246980D01*
X110867986Y-115183493D01*
X110929045Y-115147266D01*
X110976648Y-115144430D01*
X110980685Y-115144961D01*
X110980687Y-115144961D01*
X110984780Y-115145500D01*
X111060220Y-115145500D01*
X111064315Y-115144961D01*
X111164548Y-115131765D01*
X111172736Y-115130687D01*
X111312733Y-115072698D01*
X111432951Y-114980451D01*
X111525198Y-114860233D01*
X111583187Y-114720236D01*
X111602966Y-114570000D01*
X111583187Y-114419764D01*
X111525198Y-114279767D01*
X111448644Y-114180000D01*
X112924318Y-114180000D01*
X112925396Y-114188188D01*
X112937453Y-114279767D01*
X112944956Y-114336762D01*
X113005464Y-114482841D01*
X113101718Y-114608282D01*
X113227159Y-114704536D01*
X113373238Y-114765044D01*
X113530000Y-114785682D01*
X113538188Y-114784604D01*
X113678574Y-114766122D01*
X113686762Y-114765044D01*
X113832841Y-114704536D01*
X113958282Y-114608282D01*
X114054536Y-114482841D01*
X114115044Y-114336762D01*
X114122548Y-114279767D01*
X114134604Y-114188188D01*
X114135682Y-114180000D01*
X114119002Y-114053305D01*
X114116122Y-114031426D01*
X114115044Y-114023238D01*
X114054536Y-113877159D01*
X113958282Y-113751718D01*
X113832841Y-113655464D01*
X113686762Y-113594956D01*
X113530000Y-113574318D01*
X113373238Y-113594956D01*
X113227159Y-113655464D01*
X113101718Y-113751718D01*
X113005464Y-113877159D01*
X112944956Y-114023238D01*
X112943878Y-114031426D01*
X112940998Y-114053305D01*
X112924318Y-114180000D01*
X111448644Y-114180000D01*
X111432951Y-114159549D01*
X111312733Y-114067302D01*
X111314659Y-114064792D01*
X111275990Y-114024239D01*
X111262552Y-113954526D01*
X111288938Y-113888614D01*
X111346769Y-113847431D01*
X111387982Y-113840500D01*
X112116016Y-113840500D01*
X112241820Y-113825276D01*
X112346269Y-113785808D01*
X112393320Y-113768029D01*
X112400423Y-113765345D01*
X112468309Y-113718688D01*
X112533892Y-113673614D01*
X112533893Y-113673613D01*
X112540151Y-113669312D01*
X112545204Y-113663641D01*
X112647888Y-113548392D01*
X112647890Y-113548388D01*
X112652940Y-113542721D01*
X112659738Y-113529883D01*
X112707578Y-113439527D01*
X112732276Y-113392881D01*
X112773581Y-113228441D01*
X112773804Y-113185964D01*
X112774320Y-113087271D01*
X112774469Y-113058895D01*
X112772349Y-113050061D01*
X112736661Y-112901417D01*
X112734888Y-112894032D01*
X112700168Y-112826762D01*
X112660608Y-112750117D01*
X112660608Y-112750116D01*
X112657125Y-112743369D01*
X112651813Y-112737279D01*
X112566420Y-112639392D01*
X112545669Y-112615604D01*
X112480548Y-112569836D01*
X112413170Y-112522482D01*
X112413168Y-112522481D01*
X112406953Y-112518113D01*
X112248987Y-112456524D01*
X112241454Y-112455532D01*
X112241453Y-112455532D01*
X112123761Y-112440038D01*
X112123760Y-112440038D01*
X112119674Y-112439500D01*
X110930984Y-112439500D01*
X110805180Y-112454724D01*
X110646577Y-112514655D01*
X110640319Y-112518956D01*
X110514133Y-112605682D01*
X110506849Y-112610688D01*
X110501797Y-112616358D01*
X110501796Y-112616359D01*
X110399112Y-112731608D01*
X110399110Y-112731612D01*
X110394060Y-112737279D01*
X110390508Y-112743988D01*
X110390507Y-112743989D01*
X110368637Y-112785294D01*
X110314724Y-112887119D01*
X110273419Y-113051559D01*
X110273379Y-113059157D01*
X110273379Y-113059159D01*
X110273189Y-113095464D01*
X110272531Y-113221105D01*
X110274305Y-113228492D01*
X110274305Y-113228496D01*
X110284727Y-113271904D01*
X110312112Y-113385968D01*
X110315593Y-113392712D01*
X110315594Y-113392715D01*
X110345568Y-113450788D01*
X110389875Y-113536631D01*
X110394867Y-113542353D01*
X110394868Y-113542355D01*
X110455459Y-113611812D01*
X110501331Y-113664396D01*
X110514447Y-113673614D01*
X110633830Y-113757518D01*
X110633832Y-113757519D01*
X110640047Y-113761887D01*
X110700344Y-113785396D01*
X110775350Y-113814640D01*
X110831552Y-113858021D01*
X110855378Y-113924900D01*
X110839264Y-113994044D01*
X110788327Y-114043500D01*
X110777799Y-114048441D01*
X110739901Y-114064139D01*
X110739896Y-114064142D01*
X110732267Y-114067302D01*
X110612049Y-114159549D01*
X110519802Y-114279767D01*
X110461813Y-114419764D01*
X110442034Y-114570000D01*
X110461813Y-114720236D01*
X110464973Y-114727865D01*
X110474447Y-114750737D01*
X110482036Y-114821326D01*
X110450257Y-114884813D01*
X110389199Y-114921041D01*
X110341593Y-114923877D01*
X110278169Y-114915527D01*
X110121407Y-114936165D01*
X109975328Y-114996673D01*
X109849887Y-115092927D01*
X109753633Y-115218368D01*
X109693125Y-115364447D01*
X109672487Y-115521209D01*
X106280500Y-115521209D01*
X106280500Y-113772838D01*
X106300502Y-113704717D01*
X106354158Y-113658224D01*
X106424432Y-113648120D01*
X106478950Y-113669750D01*
X106610047Y-113761887D01*
X106768013Y-113823476D01*
X106775546Y-113824468D01*
X106775547Y-113824468D01*
X106893239Y-113839962D01*
X106897326Y-113840500D01*
X107786016Y-113840500D01*
X107911820Y-113825276D01*
X108016269Y-113785808D01*
X108063320Y-113768029D01*
X108070423Y-113765345D01*
X108138309Y-113718688D01*
X108203892Y-113673614D01*
X108203893Y-113673613D01*
X108210151Y-113669312D01*
X108215204Y-113663641D01*
X108317888Y-113548392D01*
X108317890Y-113548388D01*
X108322940Y-113542721D01*
X108329738Y-113529883D01*
X108377578Y-113439527D01*
X108402276Y-113392881D01*
X108443581Y-113228441D01*
X108443804Y-113185964D01*
X108444320Y-113087271D01*
X108444469Y-113058895D01*
X108442349Y-113050061D01*
X108406661Y-112901417D01*
X108404888Y-112894032D01*
X108370168Y-112826762D01*
X108330608Y-112750117D01*
X108330608Y-112750116D01*
X108327125Y-112743369D01*
X108321813Y-112737279D01*
X108236420Y-112639392D01*
X108215669Y-112615604D01*
X108150548Y-112569836D01*
X108083170Y-112522482D01*
X108083168Y-112522481D01*
X108076953Y-112518113D01*
X107918987Y-112456524D01*
X107911454Y-112455532D01*
X107911453Y-112455532D01*
X107793761Y-112440038D01*
X107793760Y-112440038D01*
X107789674Y-112439500D01*
X106900984Y-112439500D01*
X106775180Y-112454724D01*
X106616577Y-112514655D01*
X106610319Y-112518956D01*
X106477867Y-112609988D01*
X106410398Y-112632088D01*
X106341691Y-112614203D01*
X106293561Y-112562011D01*
X106280500Y-112506148D01*
X106280500Y-111554300D01*
X106300502Y-111486179D01*
X106354158Y-111439686D01*
X106406500Y-111428300D01*
X108794348Y-111428300D01*
X108800416Y-111427093D01*
X108840661Y-111419088D01*
X108840662Y-111419088D01*
X108852831Y-111416667D01*
X108874288Y-111402330D01*
X108908839Y-111379243D01*
X108919152Y-111372352D01*
X108949608Y-111326772D01*
X108956574Y-111316347D01*
X108963467Y-111306031D01*
X108965940Y-111293602D01*
X108973893Y-111253616D01*
X108975100Y-111247548D01*
X108975100Y-109108052D01*
X108970738Y-109086122D01*
X108965888Y-109061739D01*
X108965888Y-109061738D01*
X108963467Y-109049569D01*
X108919152Y-108983248D01*
X108852831Y-108938933D01*
X108840662Y-108936512D01*
X108840661Y-108936512D01*
X108800416Y-108928507D01*
X108794348Y-108927300D01*
X107851327Y-108927300D01*
X107783206Y-108907298D01*
X107736713Y-108853642D01*
X107726609Y-108783368D01*
X107746562Y-108731298D01*
X107766573Y-108701350D01*
X107766575Y-108701346D01*
X107773467Y-108691031D01*
X107785100Y-108632548D01*
X107785100Y-108500000D01*
X110894318Y-108500000D01*
X110914956Y-108656762D01*
X110975464Y-108802841D01*
X111071718Y-108928282D01*
X111078264Y-108933305D01*
X111093563Y-108945044D01*
X111197159Y-109024536D01*
X111343238Y-109085044D01*
X111500000Y-109105682D01*
X111508188Y-109104604D01*
X111648574Y-109086122D01*
X111656762Y-109085044D01*
X111802841Y-109024536D01*
X111906437Y-108945044D01*
X111921736Y-108933305D01*
X111928282Y-108928282D01*
X112024536Y-108802841D01*
X112085044Y-108656762D01*
X112105682Y-108500000D01*
X112394318Y-108500000D01*
X112414956Y-108656762D01*
X112475464Y-108802841D01*
X112571718Y-108928282D01*
X112578264Y-108933305D01*
X112593563Y-108945044D01*
X112697159Y-109024536D01*
X112843238Y-109085044D01*
X113000000Y-109105682D01*
X113008188Y-109104604D01*
X113148574Y-109086122D01*
X113156762Y-109085044D01*
X113302841Y-109024536D01*
X113406437Y-108945044D01*
X113421736Y-108933305D01*
X113428282Y-108928282D01*
X113524536Y-108802841D01*
X113585044Y-108656762D01*
X113605682Y-108500000D01*
X113585044Y-108343238D01*
X113524536Y-108197159D01*
X113428282Y-108071718D01*
X113417673Y-108063577D01*
X113309392Y-107980491D01*
X113302841Y-107975464D01*
X113156762Y-107914956D01*
X113000000Y-107894318D01*
X112843238Y-107914956D01*
X112697159Y-107975464D01*
X112690608Y-107980491D01*
X112582328Y-108063577D01*
X112571718Y-108071718D01*
X112475464Y-108197159D01*
X112414956Y-108343238D01*
X112394318Y-108500000D01*
X112105682Y-108500000D01*
X112085044Y-108343238D01*
X112024536Y-108197159D01*
X111928282Y-108071718D01*
X111917673Y-108063577D01*
X111809392Y-107980491D01*
X111802841Y-107975464D01*
X111656762Y-107914956D01*
X111500000Y-107894318D01*
X111343238Y-107914956D01*
X111197159Y-107975464D01*
X111190608Y-107980491D01*
X111082328Y-108063577D01*
X111071718Y-108071718D01*
X110975464Y-108197159D01*
X110914956Y-108343238D01*
X110894318Y-108500000D01*
X107785100Y-108500000D01*
X107785100Y-107323052D01*
X107779542Y-107295109D01*
X107775888Y-107276739D01*
X107775888Y-107276738D01*
X107773467Y-107264569D01*
X107729152Y-107198248D01*
X107662831Y-107153933D01*
X107650662Y-107151512D01*
X107650661Y-107151512D01*
X107610416Y-107143507D01*
X107604348Y-107142300D01*
X106406500Y-107142300D01*
X106338379Y-107122298D01*
X106291886Y-107068642D01*
X106280500Y-107016300D01*
X106280500Y-107000000D01*
X110894318Y-107000000D01*
X110914956Y-107156762D01*
X110975464Y-107302841D01*
X111031948Y-107376453D01*
X111056306Y-107408196D01*
X111071718Y-107428282D01*
X111197159Y-107524536D01*
X111343238Y-107585044D01*
X111500000Y-107605682D01*
X111508188Y-107604604D01*
X111648574Y-107586122D01*
X111656762Y-107585044D01*
X111802841Y-107524536D01*
X111928282Y-107428282D01*
X111943695Y-107408196D01*
X111968052Y-107376453D01*
X112024536Y-107302841D01*
X112085044Y-107156762D01*
X112105682Y-107000000D01*
X112394318Y-107000000D01*
X112414956Y-107156762D01*
X112475464Y-107302841D01*
X112531948Y-107376453D01*
X112556306Y-107408196D01*
X112571718Y-107428282D01*
X112697159Y-107524536D01*
X112843238Y-107585044D01*
X113000000Y-107605682D01*
X113008188Y-107604604D01*
X113148574Y-107586122D01*
X113156762Y-107585044D01*
X113302841Y-107524536D01*
X113428282Y-107428282D01*
X113443695Y-107408196D01*
X113468052Y-107376453D01*
X113524536Y-107302841D01*
X113585044Y-107156762D01*
X113605682Y-107000000D01*
X113894318Y-107000000D01*
X113914956Y-107156762D01*
X113975464Y-107302841D01*
X114031948Y-107376453D01*
X114056306Y-107408196D01*
X114071718Y-107428282D01*
X114197159Y-107524536D01*
X114343238Y-107585044D01*
X114500000Y-107605682D01*
X114508188Y-107604604D01*
X114648574Y-107586122D01*
X114656762Y-107585044D01*
X114802841Y-107524536D01*
X114928282Y-107428282D01*
X114943695Y-107408196D01*
X114968052Y-107376453D01*
X115024536Y-107302841D01*
X115085044Y-107156762D01*
X115105682Y-107000000D01*
X115394318Y-107000000D01*
X115414956Y-107156762D01*
X115475464Y-107302841D01*
X115531948Y-107376453D01*
X115556306Y-107408196D01*
X115571718Y-107428282D01*
X115697159Y-107524536D01*
X115843238Y-107585044D01*
X116000000Y-107605682D01*
X116008188Y-107604604D01*
X116148574Y-107586122D01*
X116156762Y-107585044D01*
X116302841Y-107524536D01*
X116428282Y-107428282D01*
X116443695Y-107408196D01*
X116468052Y-107376453D01*
X116524536Y-107302841D01*
X116585044Y-107156762D01*
X116605682Y-107000000D01*
X116585044Y-106843238D01*
X116524536Y-106697159D01*
X116428282Y-106571718D01*
X116302841Y-106475464D01*
X116156762Y-106414956D01*
X116000000Y-106394318D01*
X115843238Y-106414956D01*
X115697159Y-106475464D01*
X115571718Y-106571718D01*
X115475464Y-106697159D01*
X115414956Y-106843238D01*
X115394318Y-107000000D01*
X115105682Y-107000000D01*
X115085044Y-106843238D01*
X115024536Y-106697159D01*
X114928282Y-106571718D01*
X114802841Y-106475464D01*
X114656762Y-106414956D01*
X114500000Y-106394318D01*
X114343238Y-106414956D01*
X114197159Y-106475464D01*
X114071718Y-106571718D01*
X113975464Y-106697159D01*
X113914956Y-106843238D01*
X113894318Y-107000000D01*
X113605682Y-107000000D01*
X113585044Y-106843238D01*
X113524536Y-106697159D01*
X113428282Y-106571718D01*
X113302841Y-106475464D01*
X113156762Y-106414956D01*
X113000000Y-106394318D01*
X112843238Y-106414956D01*
X112697159Y-106475464D01*
X112571718Y-106571718D01*
X112475464Y-106697159D01*
X112414956Y-106843238D01*
X112394318Y-107000000D01*
X112105682Y-107000000D01*
X112085044Y-106843238D01*
X112024536Y-106697159D01*
X111928282Y-106571718D01*
X111802841Y-106475464D01*
X111656762Y-106414956D01*
X111500000Y-106394318D01*
X111343238Y-106414956D01*
X111197159Y-106475464D01*
X111071718Y-106571718D01*
X110975464Y-106697159D01*
X110914956Y-106843238D01*
X110894318Y-107000000D01*
X106280500Y-107000000D01*
X106280500Y-102292736D01*
X107025070Y-102292736D01*
X107025698Y-102305807D01*
X107037909Y-102560041D01*
X107090118Y-102822512D01*
X107180549Y-103074383D01*
X107182765Y-103078507D01*
X107250982Y-103205465D01*
X107307215Y-103310121D01*
X107310010Y-103313864D01*
X107310012Y-103313867D01*
X107438851Y-103486403D01*
X107467335Y-103524547D01*
X107470642Y-103527825D01*
X107470647Y-103527831D01*
X107654074Y-103709663D01*
X107657390Y-103712950D01*
X107873205Y-103871192D01*
X107877340Y-103873368D01*
X107877344Y-103873370D01*
X108004304Y-103940167D01*
X108110039Y-103995797D01*
X108165091Y-104015022D01*
X108358273Y-104082484D01*
X108358279Y-104082486D01*
X108362690Y-104084026D01*
X108625606Y-104133943D01*
X108752616Y-104138933D01*
X108888345Y-104144266D01*
X108888350Y-104144266D01*
X108893013Y-104144449D01*
X108988943Y-104133943D01*
X109154382Y-104115825D01*
X109154387Y-104115824D01*
X109159035Y-104115315D01*
X109178065Y-104110305D01*
X109413309Y-104048370D01*
X109417829Y-104047180D01*
X109626555Y-103957505D01*
X109659407Y-103943391D01*
X109659410Y-103943389D01*
X109663710Y-103941542D01*
X109667690Y-103939079D01*
X109667694Y-103939077D01*
X109887302Y-103803179D01*
X109887306Y-103803176D01*
X109891275Y-103800720D01*
X109965293Y-103738059D01*
X110091960Y-103630828D01*
X110091961Y-103630827D01*
X110095526Y-103627809D01*
X110189365Y-103520807D01*
X110268894Y-103430122D01*
X110268898Y-103430117D01*
X110271976Y-103426607D01*
X110283344Y-103408933D01*
X110414219Y-103205465D01*
X110414222Y-103205460D01*
X110416747Y-103201534D01*
X110526661Y-102957534D01*
X110599302Y-102699969D01*
X110617103Y-102560041D01*
X110632677Y-102437625D01*
X110632677Y-102437621D01*
X110633075Y-102434495D01*
X110635549Y-102340000D01*
X110619769Y-102127647D01*
X110616064Y-102077788D01*
X110616063Y-102077784D01*
X110615717Y-102073123D01*
X110609039Y-102043608D01*
X110572181Y-101880723D01*
X110556655Y-101812109D01*
X110554962Y-101807755D01*
X110461355Y-101567044D01*
X110461354Y-101567042D01*
X110459662Y-101562691D01*
X110456762Y-101557616D01*
X110329187Y-101334408D01*
X110326868Y-101330350D01*
X110161190Y-101120189D01*
X109966269Y-100936825D01*
X109746385Y-100784286D01*
X109733105Y-100777737D01*
X109510559Y-100667989D01*
X109510556Y-100667988D01*
X109506371Y-100665924D01*
X109251497Y-100584338D01*
X109100549Y-100559755D01*
X108991976Y-100542073D01*
X108991975Y-100542073D01*
X108987364Y-100541322D01*
X108853569Y-100539571D01*
X108724451Y-100537880D01*
X108724448Y-100537880D01*
X108719774Y-100537819D01*
X108454605Y-100573907D01*
X108450118Y-100575215D01*
X108450117Y-100575215D01*
X108418817Y-100584338D01*
X108197683Y-100648792D01*
X108193430Y-100650752D01*
X108193429Y-100650753D01*
X108141512Y-100674687D01*
X107954652Y-100760831D01*
X107950743Y-100763394D01*
X107734764Y-100904996D01*
X107734759Y-100905000D01*
X107730851Y-100907562D01*
X107690128Y-100943909D01*
X107556151Y-101063488D01*
X107531197Y-101085760D01*
X107360075Y-101291512D01*
X107357652Y-101295505D01*
X107226412Y-101511782D01*
X107221244Y-101520298D01*
X107219437Y-101524606D01*
X107219437Y-101524607D01*
X107126511Y-101746211D01*
X107117755Y-101767091D01*
X107116604Y-101771623D01*
X107116603Y-101771626D01*
X107061394Y-101989012D01*
X107051881Y-102026470D01*
X107025070Y-102292736D01*
X106280500Y-102292736D01*
X106280500Y-102127371D01*
X106283755Y-102098918D01*
X106284043Y-102097676D01*
X106284044Y-102097669D01*
X106285655Y-102090718D01*
X106285656Y-102090000D01*
X106284075Y-102083067D01*
X106283283Y-102075993D01*
X106284466Y-102075861D01*
X106282671Y-102054111D01*
X106282682Y-102053939D01*
X106291192Y-101913242D01*
X106296806Y-101820433D01*
X106298640Y-101805329D01*
X106345945Y-101547192D01*
X106349586Y-101532419D01*
X106372381Y-101459266D01*
X106427665Y-101281855D01*
X106433059Y-101267633D01*
X106437239Y-101258347D01*
X106540766Y-101028319D01*
X106547836Y-101014848D01*
X106683606Y-100790258D01*
X106692248Y-100777737D01*
X106854104Y-100571143D01*
X106864194Y-100559755D01*
X107049755Y-100374194D01*
X107061143Y-100364104D01*
X107267737Y-100202248D01*
X107280259Y-100193605D01*
X107504848Y-100057836D01*
X107518321Y-100050765D01*
X107629563Y-100000699D01*
X107757637Y-99943057D01*
X107771855Y-99937665D01*
X108022419Y-99859586D01*
X108037192Y-99855945D01*
X108295329Y-99808640D01*
X108310433Y-99806806D01*
X108393183Y-99801800D01*
X108543947Y-99792681D01*
X108551768Y-99792451D01*
X108565811Y-99792476D01*
X108579641Y-99795656D01*
X108593480Y-99792524D01*
X108598311Y-99792533D01*
X108616504Y-99790500D01*
X110833738Y-99790500D01*
X110901859Y-99810502D01*
G37*
%TD.AperFunction*%
%TD*%
M02*
