<svg width="82" height="16" viewBox="0 0 82 16" fill="none" xmlns="http://www.w3.org/2000/svg">
<path d="M4 10.4H8.82L6.58 3.38L4 10.4ZM12.42 14.66C12.2067 15.0067 11.8933 15.18 11.48 15.18C11.08 15.18 10.78 15.0933 10.58 14.92C10.38 14.7467 10.2067 14.4333 10.06 13.98L9.24 11.62H3.54L2.7 13.8C2.35333 14.72 1.91333 15.18 1.38 15.18C0.926667 15.18 0.613333 14.9533 0.44 14.5C0.746667 14.38 0.986667 14.0667 1.16 13.56L5.86 1.7C5.71333 1.34 5.54667 1.07333 5.36 0.899999C5.66667 0.633333 5.98 0.5 6.3 0.5C6.63333 0.5 6.88667 0.599999 7.06 0.799999C7.24667 0.999999 7.42 1.32 7.58 1.76L11.66 13.64C11.8467 14.1867 12.1 14.5267 12.42 14.66ZM23.9134 3.22C23.9134 3.59333 23.8068 3.89333 23.5934 4.12C23.3934 4.33333 23.1601 4.44 22.8934 4.44C22.6401 4.44 22.3534 4.38667 22.0334 4.28C22.0868 4.06667 22.1134 3.86 22.1134 3.66C22.1134 3.16667 21.8534 2.71333 21.3334 2.3C20.8268 1.87333 20.1134 1.66 19.1934 1.66C18.2868 1.66 17.5601 1.85333 17.0134 2.24C16.4668 2.62667 16.1934 3.14667 16.1934 3.8C16.1934 4.44 16.4734 5 17.0334 5.48C17.5934 5.94667 18.2734 6.35333 19.0734 6.7C19.8868 7.04667 20.6934 7.4 21.4934 7.76C22.3068 8.12 22.9934 8.58 23.5534 9.14C24.1134 9.68667 24.3934 10.3133 24.3934 11.02C24.3934 12.2067 23.8734 13.2 22.8334 14C21.8068 14.7867 20.5734 15.18 19.1334 15.18C17.6934 15.18 16.5001 14.86 15.5534 14.22C14.6068 13.5667 14.1334 12.7467 14.1334 11.76C14.1334 11.3333 14.2534 10.9867 14.4934 10.72C14.7334 10.44 15.0534 10.3 15.4534 10.3C15.8534 10.3 16.1668 10.46 16.3934 10.78C16.0868 11.06 15.9334 11.4533 15.9334 11.96C15.9334 12.4667 16.2134 12.92 16.7734 13.32C17.3334 13.72 18.1001 13.92 19.0734 13.92C20.0601 13.92 20.9134 13.6667 21.6334 13.16C22.3534 12.6533 22.7134 12.0333 22.7134 11.3C22.7134 10.8333 22.5068 10.4067 22.0934 10.02C21.6934 9.63333 21.1868 9.31333 20.5734 9.06C19.9734 8.80667 19.3201 8.52 18.6134 8.2C17.9068 7.88 17.2468 7.56 16.6334 7.24C16.0334 6.92 15.5268 6.49333 15.1134 5.96C14.7134 5.41333 14.5134 4.80667 14.5134 4.14C14.5134 3.06 14.9868 2.17333 15.9334 1.48C16.8934 0.773333 18.0334 0.419999 19.3534 0.419999C20.6734 0.419999 21.7601 0.693333 22.6134 1.24C23.4801 1.78667 23.9134 2.44667 23.9134 3.22ZM29.6445 10.4H34.4645L32.2245 3.38L29.6445 10.4ZM38.0645 14.66C37.8512 15.0067 37.5379 15.18 37.1245 15.18C36.7245 15.18 36.4245 15.0933 36.2245 14.92C36.0245 14.7467 35.8512 14.4333 35.7045 13.98L34.8845 11.62H29.1845L28.3445 13.8C27.9979 14.72 27.5579 15.18 27.0245 15.18C26.5712 15.18 26.2579 14.9533 26.0845 14.5C26.3912 14.38 26.6312 14.0667 26.8045 13.56L31.5045 1.7C31.3579 1.34 31.1912 1.07333 31.0045 0.899999C31.3112 0.633333 31.6245 0.5 31.9445 0.5C32.2779 0.5 32.5312 0.599999 32.7045 0.799999C32.8912 0.999999 33.0645 1.32 33.2245 1.76L37.3045 13.64C37.4912 14.1867 37.7445 14.5267 38.0645 14.66ZM50.518 2.9C50.518 3.23333 50.4113 3.49333 50.198 3.68C49.9846 3.86667 49.718 3.96 49.398 3.96C49.0913 3.96 48.8513 3.91333 48.678 3.82C48.6913 3.72667 48.698 3.64 48.698 3.56C48.698 3.10667 48.4913 2.7 48.078 2.34C47.6646 1.98 47.018 1.8 46.138 1.8C44.9113 1.8 43.838 2.32667 42.918 3.38C42.0113 4.42 41.558 5.88667 41.558 7.78C41.558 9.67333 41.9713 11.1267 42.798 12.14C43.6246 13.14 44.778 13.64 46.258 13.64C47.0446 13.64 47.778 13.48 48.458 13.16C49.138 12.84 49.698 12.46 50.138 12.02C50.2313 12.0333 50.318 12.1 50.398 12.22C50.4913 12.3267 50.538 12.4733 50.538 12.66C50.538 13.1533 50.0646 13.7 49.118 14.3C48.1846 14.8867 47.078 15.18 45.798 15.18C44.0246 15.18 42.5646 14.54 41.418 13.26C40.2846 11.98 39.718 10.2333 39.718 8.02C39.718 5.80667 40.3646 4 41.658 2.6C42.9513 1.2 44.558 0.5 46.478 0.5C47.6246 0.5 48.5846 0.733333 49.358 1.2C50.1313 1.66667 50.518 2.23333 50.518 2.9ZM60.6823 0.66H67.0223C68.3423 0.66 69.0023 0.993333 69.0023 1.66C69.0023 2.06 68.809 2.34 68.4223 2.5C68.0357 2.15333 67.469 1.98 66.7223 1.98H61.2623V6.94H65.4823C66.2157 6.94 66.7357 7 67.0423 7.12C67.349 7.22667 67.5023 7.44667 67.5023 7.78C67.5023 8.1 67.3423 8.35333 67.0223 8.54C66.6623 8.35333 66.0957 8.26 65.3223 8.26H61.2623V13.76C61.2623 14.1467 61.429 14.4067 61.7623 14.54C61.4823 14.9667 61.129 15.18 60.7023 15.18C59.9557 15.18 59.5823 14.7133 59.5823 13.78V2.18C59.5823 1.78 59.4157 1.51333 59.0823 1.38C59.4023 0.9 59.9357 0.66 60.6823 0.66ZM81.6703 2.9C81.6703 3.23333 81.5636 3.49333 81.3503 3.68C81.137 3.86667 80.8703 3.96 80.5503 3.96C80.2436 3.96 80.0036 3.91333 79.8303 3.82C79.8436 3.72667 79.8503 3.64 79.8503 3.56C79.8503 3.10667 79.6436 2.7 79.2303 2.34C78.817 1.98 78.1703 1.8 77.2903 1.8C76.0636 1.8 74.9903 2.32667 74.0703 3.38C73.1636 4.42 72.7103 5.88667 72.7103 7.78C72.7103 9.67333 73.1236 11.1267 73.9503 12.14C74.777 13.14 75.9303 13.64 77.4103 13.64C78.197 13.64 78.9303 13.48 79.6103 13.16C80.2903 12.84 80.8503 12.46 81.2903 12.02C81.3836 12.0333 81.4703 12.1 81.5503 12.22C81.6436 12.3267 81.6903 12.4733 81.6903 12.66C81.6903 13.1533 81.217 13.7 80.2703 14.3C79.337 14.8867 78.2303 15.18 76.9503 15.18C75.177 15.18 73.717 14.54 72.5703 13.26C71.437 11.98 70.8703 10.2333 70.8703 8.02C70.8703 5.80667 71.517 4 72.8103 2.6C74.1036 1.2 75.7103 0.5 77.6303 0.5C78.777 0.5 79.737 0.733333 80.5103 1.2C81.2836 1.66667 81.6703 2.23333 81.6703 2.9Z" fill="black"/>
</svg>
