M48
; DRILL file {KiCad 6.0.11-2627ca5db0~126~ubuntu22.04.1} date Wed Mar  8 23:59:14 2023
; FORMAT={-:-/ absolute / inch / decimal}
; #@! TF.CreationDate,2023-03-08T23:59:14+01:00
; #@! TF.GenerationSoftware,Kicad,Pcbnew,6.0.11-2627ca5db0~126~ubuntu22.04.1
; #@! TF.FileFunction,Plated,1,2,PTH
FMAT,2
INCH
; #@! TA.AperFunction,Plated,PTH,ComponentDrill
T1C0.0118
; #@! TA.AperFunction,Plated,PTH,ViaDrill
T2C0.0157
; #@! TA.AperFunction,Plated,PTH,ComponentDrill
T3C0.0177
; #@! TA.AperFunction,Plated,PTH,ComponentDrill
T4C0.0197
; #@! TA.AperFunction,Plated,PTH,ComponentDrill
T5C0.0256
%
G90
G05
T1
X4.2027Y-4.1369
X4.2027Y-4.1645
X4.2027Y-4.192
X4.2027Y-4.3101
X4.2027Y-4.3377
X4.2027Y-4.3653
X4.2037Y-4.8799
X4.2037Y-4.9075
X4.2037Y-4.935
X4.2037Y-5.0531
X4.2037Y-5.0807
X4.2037Y-5.1083
X4.2342Y-4.1369
X4.2342Y-4.1645
X4.2342Y-4.192
X4.2342Y-4.3101
X4.2342Y-4.3377
X4.2342Y-4.3653
X4.2352Y-4.8799
X4.2352Y-4.9075
X4.2352Y-4.935
X4.2352Y-5.0531
X4.2352Y-5.0807
X4.2352Y-5.1083
X4.2657Y-4.1369
X4.2657Y-4.1645
X4.2657Y-4.192
X4.2657Y-4.3101
X4.2657Y-4.3377
X4.2657Y-4.3653
X4.2667Y-4.8799
X4.2667Y-4.9075
X4.2667Y-4.935
X4.2667Y-5.0531
X4.2667Y-5.0807
X4.2667Y-5.1083
X5.503Y-4.8799
X5.503Y-4.9075
X5.503Y-4.935
X5.503Y-5.0531
X5.503Y-5.0807
X5.503Y-5.1083
X5.5059Y-4.1427
X5.5059Y-4.1703
X5.5059Y-4.1978
X5.5059Y-4.3159
X5.5059Y-4.3435
X5.5059Y-4.3711
X5.5344Y-4.8799
X5.5344Y-4.9075
X5.5344Y-4.935
X5.5344Y-5.0531
X5.5344Y-5.0807
X5.5344Y-5.1083
X5.5374Y-4.1427
X5.5374Y-4.1703
X5.5374Y-4.1978
X5.5374Y-4.3159
X5.5374Y-4.3435
X5.5374Y-4.3711
X5.5659Y-4.8799
X5.5659Y-4.9075
X5.5659Y-4.935
X5.5659Y-5.0531
X5.5659Y-5.0807
X5.5659Y-5.1083
X5.5689Y-4.1427
X5.5689Y-4.1703
X5.5689Y-4.1978
X5.5689Y-4.3159
X5.5689Y-4.3435
X5.5689Y-4.3711
T2
X4.215Y-4.8287
X4.2559Y-4.8287
X4.378Y-4.9882
X4.3833Y-4.5608
X4.3898Y-5.311
X4.4224Y-4.8421
X4.4232Y-4.7614
X4.4298Y-4.629
X4.4303Y-4.6742
X4.437Y-5.311
X4.4498Y-4.548
X4.4516Y-4.8748
X4.4642Y-4.3657
X4.4843Y-5.311
X4.5209Y-4.524
X4.5315Y-5.311
X4.573Y-4.4746
X4.574Y-4.2969
X4.5748Y-5.378
X4.5748Y-5.4252
X4.5945Y-5.4724
X4.5945Y-5.5236
X4.5945Y-5.5709
X4.5966Y-4.5983
X4.6024Y-4.4425
X4.6091Y-4.9988
X4.6165Y-4.8534
X4.626Y-5.378
X4.626Y-5.4252
X4.6602Y-4.5528
X4.6772Y-5.378
X4.6772Y-5.4252
X4.6961Y-4.5252
X4.7083Y-4.7807
X4.713Y-4.4205
X4.7283Y-5.378
X4.7283Y-5.4252
X4.7551Y-4.8445
X4.7602Y-4.4622
X4.7685Y-4.9439
X4.7835Y-5.378
X4.7835Y-5.4252
X4.7951Y-4.2675
X4.8272Y-4.087
X4.8346Y-5.378
X4.8346Y-5.4252
X4.8346Y-5.4764
X4.8346Y-5.5276
X4.8346Y-5.5748
X4.8352Y-4.7616
X4.8386Y-5.311
X4.8453Y-5.0705
X4.8504Y-4.3071
X4.8504Y-4.3504
X4.8504Y-4.3937
X4.8689Y-4.1748
X4.8697Y-4.7976
X4.8705Y-4.5417
X4.8723Y-4.9667
X4.8819Y-5.311
X4.9024Y-4.5756
X4.9134Y-4.0351
X4.9209Y-4.8925
X4.9252Y-5.311
X4.9319Y-4.6035
X4.9331Y-5.378
X4.9331Y-5.4252
X4.937Y-5.4843
X4.937Y-5.5315
X4.937Y-5.5787
X4.9411Y-5.2231
X4.9606Y-4.0351
X4.9622Y-4.6327
X4.9649Y-5.019
X4.9701Y-4.3594
X4.9705Y-4.6969
X4.972Y-5.311
X4.9793Y-4.4831
X4.9803Y-5.378
X4.9803Y-5.4252
X4.9933Y-4.6638
X4.998Y-4.8404
X5.0103Y-4.3827
X5.0106Y-4.0351
X5.0172Y-4.9848
X5.0192Y-4.8073
X5.0234Y-4.2376
X5.0248Y-4.3102
X5.0276Y-5.378
X5.0276Y-5.4252
X5.0555Y-4.9758
X5.0638Y-4.3559
X5.0747Y-4.9367
X5.0748Y-5.378
X5.0748Y-5.4252
X5.0787Y-5.1673
X5.0856Y-4.5456
X5.0917Y-4.9039
X5.0941Y-4.6268
X5.122Y-5.378
X5.122Y-5.4252
X5.1476Y-4.2618
X5.1545Y-4.4321
X5.1693Y-5.378
X5.1693Y-5.4252
X5.1693Y-5.4843
X5.1693Y-5.5315
X5.1693Y-5.5787
X5.183Y-4.2106
X5.1969Y-5.311
X5.2024Y-4.6132
X5.2051Y-4.489
X5.211Y-4.8346
X5.2138Y-4.8984
X5.2389Y-4.5866
X5.2441Y-5.311
X5.25Y-4.6683
X5.2578Y-4.7675
X5.2598Y-4.4882
X5.2598Y-4.5276
X5.2711Y-5.1289
X5.2795Y-4.1378
X5.2906Y-4.6764
X5.301Y-4.7264
X5.3022Y-4.7657
X5.3031Y-4.4882
X5.3031Y-4.5276
X5.313Y-5.0283
X5.3186Y-4.845
X5.3209Y-4.2579
X5.322Y-4.8949
X5.326Y-4.2138
X5.3661Y-4.4358
X5.3686Y-4.895
X5.387Y-4.235
X5.3937Y-4.0315
X5.3937Y-4.0748
X5.3937Y-4.122
X5.4065Y-4.3563
X5.4348Y-4.1703
X5.4374Y-4.4492
X5.4452Y-4.6564
X5.4492Y-4.5638
X5.4591Y-4.998
X5.4854Y-4.7626
X5.4874Y-4.6074
X5.5232Y-4.7059
X5.5265Y-4.6505
T4
X4.2342Y-4.2511
X4.2352Y-4.9941
X5.5344Y-4.9941
X5.5374Y-4.2569
T5
X4.7242Y-3.9587
X4.7742Y-3.9587
X4.8242Y-3.9587
X4.8742Y-3.9587
X4.9606Y-3.9587
X4.9606Y-4.1291
X5.0106Y-3.9587
X5.0106Y-4.1291
X5.0606Y-3.9587
X5.0606Y-4.1291
X5.1106Y-3.9587
X5.1106Y-4.1291
X5.1969Y-3.9587
X5.2469Y-3.9587
X5.2969Y-3.9587
X5.3469Y-3.9587
T3
G00X4.2495Y-4.4921
M15
G01X4.218Y-4.4921
M16
G05
G00X4.2495Y-4.7736
M15
G01X4.218Y-4.7736
M16
G05
T0
M30
