%TF.GenerationSoftware,KiCad,Pcbnew,6.0.11-2627ca5db0~126~ubuntu22.04.1*%
%TF.CreationDate,2023-03-08T23:59:18+01:00*%
%TF.ProjectId,asac-fc-rev-a,61736163-2d66-4632-9d72-65762d612e6b,A*%
%TF.SameCoordinates,Original*%
%TF.FileFunction,Profile,NP*%
%FSLAX46Y46*%
G04 Gerber Fmt 4.6, Leading zero omitted, Abs format (unit mm)*
G04 Created by KiCad (PCBNEW 6.0.11-2627ca5db0~126~ubuntu22.04.1) date 2023-03-08 23:59:18*
%MOMM*%
%LPD*%
G01*
G04 APERTURE LIST*
%TA.AperFunction,Profile*%
%ADD10C,0.050000*%
%TD*%
G04 APERTURE END LIST*
D10*
X131575000Y-142575000D02*
G75*
G03*
X132575000Y-141575000I0J1000000D01*
G01*
X120825000Y-138575000D02*
X118825000Y-138575000D01*
X130325000Y-139575000D02*
G75*
G03*
X129325000Y-138575000I-1000000J0D01*
G01*
X140925000Y-132825000D02*
G75*
G03*
X140925000Y-132825000I-1600000J0D01*
G01*
X115575000Y-138575000D02*
G75*
G03*
X112575000Y-135575000I-3000000J0D01*
G01*
X121825000Y-142075000D02*
X121825000Y-139575000D01*
X130325000Y-142075000D02*
G75*
G03*
X130825000Y-142575000I500000J0D01*
G01*
X139575000Y-135575000D02*
G75*
G03*
X142075000Y-133075000I0J2500000D01*
G01*
X121825000Y-139575000D02*
G75*
G03*
X120825000Y-138575000I-1000000J0D01*
G01*
X117325000Y-142575000D02*
G75*
G03*
X117825000Y-142075000I0J500000D01*
G01*
X132575000Y-138575000D02*
X132575000Y-141575000D01*
X125825000Y-142575000D02*
X122325000Y-142575000D01*
X106075000Y-133075000D02*
G75*
G03*
X108575000Y-135575000I2500000J0D01*
G01*
X135575000Y-135575000D02*
G75*
G03*
X132575000Y-138575000I0J-3000000D01*
G01*
X140925000Y-102325000D02*
G75*
G03*
X140925000Y-102325000I-1600000J0D01*
G01*
X131575000Y-142575000D02*
X130825000Y-142575000D01*
X127325000Y-138575000D02*
G75*
G03*
X126325000Y-139575000I0J-1000000D01*
G01*
X118825000Y-138575000D02*
G75*
G03*
X117825000Y-139575000I0J-1000000D01*
G01*
X142075000Y-102075000D02*
G75*
G03*
X139575000Y-99575000I-2500000J0D01*
G01*
X139575000Y-135575000D02*
X135575000Y-135575000D01*
X142075000Y-102075000D02*
X142075000Y-133075000D01*
X126325000Y-142075000D02*
X126325000Y-139575000D01*
X110425000Y-132825000D02*
G75*
G03*
X110425000Y-132825000I-1600000J0D01*
G01*
X130325000Y-139575000D02*
X130325000Y-142075000D01*
X117825000Y-139575000D02*
X117825000Y-142075000D01*
X112575000Y-135575000D02*
X108575000Y-135575000D01*
X127325000Y-138575000D02*
X129325000Y-138575000D01*
X108575000Y-99575000D02*
X139575000Y-99575000D01*
X106075000Y-133075000D02*
X106075000Y-102075000D01*
X115575000Y-141575000D02*
X115575000Y-138575000D01*
X117325000Y-142575000D02*
X116575000Y-142575000D01*
X115575000Y-141575000D02*
G75*
G03*
X116575000Y-142575000I1000000J0D01*
G01*
X125825000Y-142575000D02*
G75*
G03*
X126325000Y-142075000I0J500000D01*
G01*
X121825000Y-142075000D02*
G75*
G03*
X122325000Y-142575000I500000J0D01*
G01*
X110425000Y-102325000D02*
G75*
G03*
X110425000Y-102325000I-1600000J0D01*
G01*
X108575000Y-99575000D02*
G75*
G03*
X106075000Y-102075000I0J-2500000D01*
G01*
M02*
