%TF.GenerationSoftware,KiCad,Pcbnew,6.0.11-2627ca5db0~126~ubuntu22.04.1*%
%TF.CreationDate,2023-03-08T23:59:17+01:00*%
%TF.ProjectId,asac-fc-rev-a,61736163-2d66-4632-9d72-65762d612e6b,A*%
%TF.SameCoordinates,Original*%
%TF.FileFunction,Copper,L2,Bot*%
%TF.FilePolarity,Positive*%
%FSLAX46Y46*%
G04 Gerber Fmt 4.6, Leading zero omitted, Abs format (unit mm)*
G04 Created by KiCad (PCBNEW 6.0.11-2627ca5db0~126~ubuntu22.04.1) date 2023-03-08 23:59:17*
%MOMM*%
%LPD*%
G01*
G04 APERTURE LIST*
G04 Aperture macros list*
%AMRoundRect*
0 Rectangle with rounded corners*
0 $1 Rounding radius*
0 $2 $3 $4 $5 $6 $7 $8 $9 X,Y pos of 4 corners*
0 Add a 4 corners polygon primitive as box body*
4,1,4,$2,$3,$4,$5,$6,$7,$8,$9,$2,$3,0*
0 Add four circle primitives for the rounded corners*
1,1,$1+$1,$2,$3*
1,1,$1+$1,$4,$5*
1,1,$1+$1,$6,$7*
1,1,$1+$1,$8,$9*
0 Add four rect primitives between the rounded corners*
20,1,$1+$1,$2,$3,$4,$5,0*
20,1,$1+$1,$4,$5,$6,$7,0*
20,1,$1+$1,$6,$7,$8,$9,0*
20,1,$1+$1,$8,$9,$2,$3,0*%
G04 Aperture macros list end*
%TA.AperFunction,ComponentPad*%
%ADD10O,2.100000X1.050000*%
%TD*%
%TA.AperFunction,SMDPad,CuDef*%
%ADD11R,1.200000X0.900000*%
%TD*%
%TA.AperFunction,ComponentPad*%
%ADD12R,0.850000X0.700000*%
%TD*%
%TA.AperFunction,ComponentPad*%
%ADD13R,1.270000X1.270000*%
%TD*%
%TA.AperFunction,ComponentPad*%
%ADD14RoundRect,0.250000X0.250000X-0.500000X0.250000X0.500000X-0.250000X0.500000X-0.250000X-0.500000X0*%
%TD*%
%TA.AperFunction,SMDPad,CuDef*%
%ADD15R,1.500000X2.000000*%
%TD*%
%TA.AperFunction,SMDPad,CuDef*%
%ADD16R,3.800000X2.000000*%
%TD*%
%TA.AperFunction,SMDPad,CuDef*%
%ADD17RoundRect,0.250000X0.475000X-0.250000X0.475000X0.250000X-0.475000X0.250000X-0.475000X-0.250000X0*%
%TD*%
%TA.AperFunction,SMDPad,CuDef*%
%ADD18RoundRect,0.250000X-0.650000X0.350000X-0.650000X-0.350000X0.650000X-0.350000X0.650000X0.350000X0*%
%TD*%
%TA.AperFunction,SMDPad,CuDef*%
%ADD19RoundRect,0.150000X-0.625000X0.150000X-0.625000X-0.150000X0.625000X-0.150000X0.625000X0.150000X0*%
%TD*%
%TA.AperFunction,SMDPad,CuDef*%
%ADD20RoundRect,0.135000X0.185000X-0.135000X0.185000X0.135000X-0.185000X0.135000X-0.185000X-0.135000X0*%
%TD*%
%TA.AperFunction,SMDPad,CuDef*%
%ADD21RoundRect,0.150000X-0.150000X0.587500X-0.150000X-0.587500X0.150000X-0.587500X0.150000X0.587500X0*%
%TD*%
%TA.AperFunction,ViaPad*%
%ADD22C,0.800000*%
%TD*%
%TA.AperFunction,Conductor*%
%ADD23C,0.304800*%
%TD*%
%TA.AperFunction,Conductor*%
%ADD24C,0.635000*%
%TD*%
%TA.AperFunction,Conductor*%
%ADD25C,0.203200*%
%TD*%
%TA.AperFunction,Conductor*%
%ADD26C,0.254000*%
%TD*%
%TA.AperFunction,Conductor*%
%ADD27C,0.200000*%
%TD*%
G04 APERTURE END LIST*
D10*
%TO.P,J3,*%
%TO.N,*%
X107537500Y-121250000D03*
X107537500Y-114100000D03*
%TD*%
D11*
%TO.P,D4,1,K*%
%TO.N,Net-(C21-Pad1)*%
X115670000Y-129600000D03*
%TO.P,D4,2,A*%
%TO.N,/VBAT*%
X115670000Y-132900000D03*
%TD*%
D12*
%TO.P,J4,3,Pin_3*%
%TO.N,GND*%
X141375000Y-125350000D03*
X139775000Y-125350000D03*
X141375000Y-124650000D03*
X140575000Y-124650000D03*
X139775000Y-124650000D03*
X140575000Y-125350000D03*
X141375000Y-123950000D03*
X140575000Y-123950000D03*
X139775000Y-123950000D03*
D13*
%TO.P,J4,2,Pin_2*%
%TO.N,/M2*%
X140575000Y-126850000D03*
D12*
%TO.P,J4,1,Pin_1*%
%TO.N,/VBAT*%
X139775000Y-128350000D03*
X140575000Y-129750000D03*
X140575000Y-128350000D03*
X140575000Y-129050000D03*
X141375000Y-129750000D03*
X141375000Y-128350000D03*
X139775000Y-129050000D03*
X139775000Y-129750000D03*
X141375000Y-129050000D03*
%TD*%
%TO.P,J9,3,Pin_3*%
%TO.N,GND*%
X106749600Y-109477800D03*
X108349600Y-109477800D03*
X106749600Y-110177800D03*
X107549600Y-110177800D03*
X108349600Y-110177800D03*
X107549600Y-109477800D03*
X106749600Y-110877800D03*
X107549600Y-110877800D03*
X108349600Y-110877800D03*
D13*
%TO.P,J9,2,Pin_2*%
%TO.N,/M4*%
X107549600Y-107977800D03*
D12*
%TO.P,J9,1,Pin_1*%
%TO.N,/VBAT*%
X108349600Y-106477800D03*
X107549600Y-105077800D03*
X107549600Y-106477800D03*
X107549600Y-105777800D03*
X106749600Y-105077800D03*
X106749600Y-106477800D03*
X108349600Y-105777800D03*
X108349600Y-105077800D03*
X106749600Y-105777800D03*
%TD*%
D14*
%TO.P,J10,1,Pin_1*%
%TO.N,/BUZZER*%
X126000000Y-100550000D03*
%TO.P,J10,2,Pin_2*%
%TO.N,/LED*%
X127270000Y-100550000D03*
%TO.P,J10,3,Pin_3*%
%TO.N,+5V*%
X128540000Y-100550000D03*
%TO.P,J10,4,Pin_4*%
%TO.N,GND*%
X129810000Y-100550000D03*
%TD*%
D12*
%TO.P,J1,1,Pin_1*%
%TO.N,/VBAT*%
X139850000Y-105925000D03*
X141450000Y-105225000D03*
X141450000Y-105925000D03*
X139850000Y-106625000D03*
X139850000Y-105225000D03*
X140650000Y-105925000D03*
X140650000Y-106625000D03*
X140650000Y-105225000D03*
X141450000Y-106625000D03*
D13*
%TO.P,J1,2,Pin_2*%
%TO.N,/M1*%
X140650000Y-108125000D03*
D12*
%TO.P,J1,3,Pin_3*%
%TO.N,GND*%
X141450000Y-111025000D03*
X140650000Y-111025000D03*
X139850000Y-111025000D03*
X140650000Y-109625000D03*
X141450000Y-110325000D03*
X140650000Y-110325000D03*
X139850000Y-110325000D03*
X141450000Y-109625000D03*
X139850000Y-109625000D03*
%TD*%
D14*
%TO.P,J15,1,Pin_1*%
%TO.N,/SCL1*%
X126000000Y-104880000D03*
%TO.P,J15,2,Pin_2*%
%TO.N,/SDA1*%
X127270000Y-104880000D03*
%TO.P,J15,3,Pin_3*%
%TO.N,+3.3V*%
X128540000Y-104880000D03*
%TO.P,J15,4,Pin_4*%
%TO.N,GND*%
X129810000Y-104880000D03*
%TD*%
%TO.P,J8,1,Pin_1*%
%TO.N,/RX1*%
X132000000Y-100550000D03*
%TO.P,J8,2,Pin_2*%
%TO.N,/TX1*%
X133270000Y-100550000D03*
%TO.P,J8,3,Pin_3*%
%TO.N,+5V*%
X134540000Y-100550000D03*
%TO.P,J8,4,Pin_4*%
%TO.N,GND*%
X135810000Y-100550000D03*
%TD*%
D12*
%TO.P,J6,3,Pin_3*%
%TO.N,GND*%
X108374600Y-125350000D03*
X106774600Y-125350000D03*
X108374600Y-124650000D03*
X107574600Y-124650000D03*
X106774600Y-124650000D03*
X107574600Y-125350000D03*
X108374600Y-123950000D03*
X107574600Y-123950000D03*
X106774600Y-123950000D03*
D13*
%TO.P,J6,2,Pin_2*%
%TO.N,/M3*%
X107574600Y-126850000D03*
D12*
%TO.P,J6,1,Pin_1*%
%TO.N,/VBAT*%
X106774600Y-128350000D03*
X107574600Y-129750000D03*
X107574600Y-128350000D03*
X107574600Y-129050000D03*
X108374600Y-129750000D03*
X108374600Y-128350000D03*
X106774600Y-129050000D03*
X106774600Y-129750000D03*
X108374600Y-129050000D03*
%TD*%
D14*
%TO.P,J5,1,Pin_1*%
%TO.N,/RX0*%
X119995000Y-100550000D03*
%TO.P,J5,2,Pin_2*%
%TO.N,/TX0*%
X121265000Y-100550000D03*
%TO.P,J5,3,Pin_3*%
%TO.N,+5V*%
X122535000Y-100550000D03*
%TO.P,J5,4,Pin_4*%
%TO.N,GND*%
X123805000Y-100550000D03*
%TD*%
D15*
%TO.P,U4,1,GND*%
%TO.N,GND*%
X134500000Y-133125000D03*
D16*
%TO.P,U4,2,VO*%
%TO.N,+5V*%
X132200000Y-126825000D03*
D15*
X132200000Y-133125000D03*
%TO.P,U4,3,VI*%
%TO.N,/VBAT*%
X129900000Y-133125000D03*
%TD*%
D17*
%TO.P,C22,1*%
%TO.N,+5V*%
X127490000Y-129890000D03*
%TO.P,C22,2*%
%TO.N,GND*%
X127490000Y-127990000D03*
%TD*%
%TO.P,C20,1*%
%TO.N,/VBAT*%
X127450000Y-133425000D03*
%TO.P,C20,2*%
%TO.N,GND*%
X127450000Y-131525000D03*
%TD*%
%TO.P,C21,1*%
%TO.N,Net-(C21-Pad1)*%
X113550000Y-127950000D03*
%TO.P,C21,2*%
%TO.N,GND*%
X113550000Y-126050000D03*
%TD*%
D15*
%TO.P,U5,3,VI*%
%TO.N,Net-(C21-Pad1)*%
X118575000Y-133475000D03*
%TO.P,U5,2,VO*%
%TO.N,+3.3V*%
X120875000Y-133475000D03*
D16*
X120875000Y-127175000D03*
D15*
%TO.P,U5,1,GND*%
%TO.N,GND*%
X123175000Y-133475000D03*
%TD*%
D18*
%TO.P,J11,MP*%
%TO.N,N/C*%
X140525000Y-122325000D03*
X140525000Y-112725000D03*
D19*
%TO.P,J11,8,Pin_8*%
%TO.N,/RX_ESC*%
X136650000Y-121025000D03*
%TO.P,J11,7,Pin_7*%
%TO.N,/CURR*%
X136650000Y-120025000D03*
%TO.P,J11,6,Pin_6*%
%TO.N,/M4*%
X136650000Y-119025000D03*
%TO.P,J11,5,Pin_5*%
%TO.N,/M3*%
X136650000Y-118025000D03*
%TO.P,J11,4,Pin_4*%
%TO.N,/M2*%
X136650000Y-117025000D03*
%TO.P,J11,3,Pin_3*%
%TO.N,/M1*%
X136650000Y-116025000D03*
%TO.P,J11,2,Pin_2*%
%TO.N,/VBAT*%
X136650000Y-115025000D03*
%TO.P,J11,1,Pin_1*%
%TO.N,GND*%
X136650000Y-114025000D03*
%TD*%
D17*
%TO.P,C23,2*%
%TO.N,GND*%
X115770000Y-126020000D03*
%TO.P,C23,1*%
%TO.N,+3.3V*%
X115770000Y-127920000D03*
%TD*%
D20*
%TO.P,R14,1*%
%TO.N,/VBAT*%
X111290000Y-128840000D03*
%TO.P,R14,2*%
%TO.N,GND*%
X111290000Y-127820000D03*
%TD*%
D21*
%TO.P,Q1,1,G*%
%TO.N,/VBAT*%
X111650000Y-130722500D03*
%TO.P,Q1,2,S*%
%TO.N,Net-(C21-Pad1)*%
X113550000Y-130722500D03*
%TO.P,Q1,3,D*%
%TO.N,/VBUS*%
X112600000Y-132597500D03*
%TD*%
D22*
%TO.N,/VBAT*%
X138110000Y-113010000D03*
X138045000Y-105925000D03*
%TO.N,GND*%
X112350000Y-120940000D03*
X140290000Y-119530000D03*
X131300000Y-141700000D03*
X131300000Y-139300000D03*
X131300000Y-140500000D03*
X131300000Y-136600000D03*
X130100000Y-137800000D03*
X131300000Y-137800000D03*
X130100000Y-136600000D03*
X128900000Y-137800000D03*
X128900000Y-136600000D03*
X127700000Y-136600000D03*
X127700000Y-137800000D03*
X126500000Y-136600000D03*
X126500000Y-137800000D03*
X125300000Y-137800000D03*
X125300000Y-136600000D03*
X125400000Y-139300000D03*
X125400000Y-140500000D03*
X125400000Y-141700000D03*
%TO.N,/VBAT*%
X116200000Y-137800000D03*
X116700000Y-139000000D03*
X116700000Y-140300000D03*
X116700000Y-141500000D03*
X116200000Y-136600000D03*
X117500000Y-136600000D03*
X117500000Y-137800000D03*
X118800000Y-136600000D03*
X118800000Y-137800000D03*
X120100000Y-136600000D03*
X120100000Y-137800000D03*
X121500000Y-137800000D03*
X121500000Y-136600000D03*
X122800000Y-136600000D03*
X122800000Y-137800000D03*
X122800000Y-139100000D03*
X122800000Y-140400000D03*
X122800000Y-141600000D03*
%TO.N,GND*%
X122900000Y-134900000D03*
X124000000Y-134900000D03*
X126290000Y-134900000D03*
X125100000Y-134900000D03*
X113390000Y-110890000D03*
%TO.N,/SDA1*%
X127630000Y-109479500D03*
%TO.N,/SCL1*%
X127260500Y-111320541D03*
%TO.N,/CURR*%
X134380000Y-118780000D03*
%TO.N,/~{RESET}*%
X113025500Y-115520000D03*
X116753296Y-116796704D03*
%TO.N,/RX_ESC*%
X135180000Y-124330000D03*
X138660000Y-126950000D03*
X132360000Y-122800000D03*
X123690000Y-121860000D03*
%TO.N,/CURR*%
X126830000Y-118460000D03*
%TO.N,/RX_ESC*%
X139330000Y-120970000D03*
%TO.N,/CURR*%
X140374071Y-118123683D03*
%TO.N,GND*%
X125270000Y-116930000D03*
X126040000Y-117670000D03*
X124520000Y-116220000D03*
X123070000Y-128790000D03*
X123200000Y-111600000D03*
X123200000Y-110500000D03*
X123200000Y-109400000D03*
X123670000Y-106040000D03*
X117070000Y-126970000D03*
X108100000Y-122650000D03*
X107060000Y-122650000D03*
%TO.N,+3.3V*%
X123755353Y-126154647D03*
X127594287Y-107634287D03*
%TO.N,GND*%
X134700000Y-115000000D03*
X133600000Y-115000000D03*
X133600000Y-114000000D03*
X134700000Y-114000000D03*
X122610000Y-103810000D03*
X124800000Y-102491900D03*
X137000000Y-104700000D03*
X137000000Y-103500000D03*
X137000000Y-102400000D03*
X112330000Y-122990000D03*
X113070000Y-123820000D03*
X111200000Y-126700000D03*
X133200000Y-134900000D03*
X132000000Y-134900000D03*
X111500000Y-134900000D03*
X112700000Y-134900000D03*
X113900000Y-134900000D03*
X115100000Y-134900000D03*
%TO.N,/USB-*%
X127436868Y-126613078D03*
%TO.N,+1V1*%
X124990500Y-124270000D03*
%TO.N,GND*%
X129330000Y-124560000D03*
%TO.N,+1V1*%
X127487842Y-122105125D03*
X118370000Y-115640000D03*
%TO.N,+3.3V*%
X132430000Y-124420000D03*
X119590000Y-121430000D03*
X126949073Y-122946988D03*
%TO.N,/M4*%
X133350000Y-118574500D03*
X139380398Y-117027140D03*
%TO.N,/M3*%
X138308803Y-118272600D03*
X134644487Y-120050963D03*
X126250000Y-119300000D03*
X122815250Y-120944750D03*
%TO.N,/M4*%
X123710000Y-115360000D03*
%TO.N,/M3*%
X120780000Y-123050000D03*
%TO.N,/M1*%
X138410000Y-115920000D03*
%TO.N,+5V*%
X121795406Y-108395406D03*
%TO.N,+3.3V*%
X129390024Y-117520730D03*
X135280000Y-107030000D03*
X136300000Y-112670000D03*
X132210000Y-114020000D03*
X126474500Y-113870000D03*
X128620000Y-110640000D03*
%TO.N,/BUZZER*%
X126000000Y-102491900D03*
%TO.N,+3.3V*%
X119280000Y-114940500D03*
X114830000Y-114910000D03*
%TO.N,/~{USB_BOOT}*%
X134950000Y-127720000D03*
X133884999Y-130275001D03*
%TO.N,/VBAT*%
X125503771Y-132666229D03*
%TO.N,/VBUS*%
X111335378Y-115844622D03*
%TO.N,GND*%
X129000000Y-131250000D03*
%TO.N,/M2*%
X133068614Y-116499500D03*
%TO.N,/USB-*%
X112530500Y-118723952D03*
%TO.N,/USB+*%
X128410000Y-126385000D03*
X112516500Y-117576500D03*
%TO.N,/QSPI_SS*%
X134675000Y-121050000D03*
X136361736Y-124331736D03*
%TO.N,/QSPI_SD1*%
X133547029Y-121093471D03*
X135091736Y-123061736D03*
%TO.N,/LED*%
X127270000Y-102491900D03*
%TO.N,/IMU_INTERRUPT*%
X129174502Y-115458897D03*
X135150000Y-108150000D03*
%TO.N,GND*%
X121120000Y-125575498D03*
X116180000Y-109140000D03*
X116155382Y-113654618D03*
X130925000Y-112575000D03*
X120909000Y-113340000D03*
X137325000Y-110650000D03*
X130750000Y-108249500D03*
X134100000Y-105100000D03*
X126107882Y-127482118D03*
X116901713Y-112838287D03*
X128896316Y-125391669D03*
X119710000Y-112280000D03*
X132140000Y-117175500D03*
X131648326Y-106948326D03*
X136830000Y-107570000D03*
X117260000Y-123275500D03*
X126239500Y-110730000D03*
%TD*%
D23*
%TO.N,/M1*%
X138305000Y-116025000D02*
X136650000Y-116025000D01*
X138410000Y-115920000D02*
X138305000Y-116025000D01*
D24*
%TO.N,/VBAT*%
X138045000Y-105925000D02*
X138665000Y-105925000D01*
D23*
X136650000Y-115025000D02*
X137525000Y-115025000D01*
X137525000Y-115025000D02*
X138110000Y-114440000D01*
X138110000Y-114440000D02*
X138110000Y-113010000D01*
D25*
%TO.N,/RX_ESC*%
X139275000Y-121025000D02*
X136650000Y-121025000D01*
X139330000Y-120970000D02*
X139275000Y-121025000D01*
D23*
%TO.N,/M4*%
X139380398Y-117027140D02*
X139380398Y-118265060D01*
X139380398Y-118265060D02*
X138620458Y-119025000D01*
X138620458Y-119025000D02*
X136650000Y-119025000D01*
D24*
%TO.N,/VBAT*%
X136525000Y-105925000D02*
X138045000Y-105925000D01*
X138665000Y-105925000D02*
X139850000Y-105925000D01*
X108349600Y-105777800D02*
X122512200Y-105777800D01*
X122512200Y-105777800D02*
X124870000Y-103420000D01*
X124870000Y-103420000D02*
X134020000Y-103420000D01*
X134020000Y-103420000D02*
X136525000Y-105925000D01*
X108374600Y-129050000D02*
X109960000Y-127464600D01*
X109960000Y-127464600D02*
X109960000Y-107388200D01*
X109960000Y-107388200D02*
X108349600Y-105777800D01*
D23*
X115670000Y-132900000D02*
X114910000Y-132900000D01*
X113720000Y-134090000D02*
X112240000Y-134090000D01*
X114910000Y-132900000D02*
X113720000Y-134090000D01*
X112240000Y-134090000D02*
X111650000Y-133500000D01*
X111650000Y-133500000D02*
X111650000Y-130722500D01*
%TO.N,/VBUS*%
X111335378Y-115844622D02*
X111310600Y-115869400D01*
X111310600Y-115869400D02*
X111310600Y-124180600D01*
X112190000Y-129300000D02*
X112600000Y-129710000D01*
X111310600Y-124180600D02*
X112190000Y-125060000D01*
X112600000Y-129710000D02*
X112600000Y-132597500D01*
X112190000Y-125060000D02*
X112190000Y-129300000D01*
D26*
%TO.N,+3.3V*%
X114830000Y-114910000D02*
X115520000Y-115600000D01*
X115520000Y-115600000D02*
X115520000Y-116700000D01*
X115520000Y-116700000D02*
X116343704Y-117523704D01*
X117610000Y-115370000D02*
X118067000Y-114913000D01*
X118067000Y-114913000D02*
X119252500Y-114913000D01*
X116343704Y-117523704D02*
X117326296Y-117523704D01*
X117326296Y-117523704D02*
X117610000Y-117240000D01*
X117610000Y-117240000D02*
X117610000Y-115370000D01*
X119252500Y-114913000D02*
X119280000Y-114940500D01*
D27*
X126949073Y-122946988D02*
X126600485Y-122946988D01*
X126600485Y-122946988D02*
X123853497Y-120200000D01*
X123853497Y-120200000D02*
X121420000Y-120200000D01*
X121420000Y-120200000D02*
X120190000Y-121430000D01*
X120190000Y-121430000D02*
X119590000Y-121430000D01*
%TO.N,/M3*%
X122815250Y-120944750D02*
X122775250Y-120944750D01*
X122775250Y-120944750D02*
X120780000Y-122940000D01*
X120780000Y-122940000D02*
X120780000Y-123050000D01*
X126250000Y-119300000D02*
X126720000Y-119770000D01*
X126720000Y-119770000D02*
X134363524Y-119770000D01*
X134363524Y-119770000D02*
X134644487Y-120050963D01*
D23*
%TO.N,+3.3V*%
X122670000Y-125380000D02*
X122980000Y-125380000D01*
X120875000Y-127175000D02*
X122670000Y-125380000D01*
X128340000Y-128890000D02*
X129720000Y-127510000D01*
X122980000Y-125417584D02*
X126452416Y-128890000D01*
X126452416Y-128890000D02*
X128340000Y-128890000D01*
X129720000Y-127510000D02*
X129720000Y-125700200D01*
X129720000Y-125700200D02*
X131000200Y-124420000D01*
X131000200Y-124420000D02*
X132430000Y-124420000D01*
D24*
%TO.N,+5V*%
X127490000Y-129890000D02*
X129135000Y-129890000D01*
X129135000Y-129890000D02*
X132200000Y-126825000D01*
D25*
%TO.N,/CURR*%
X140374071Y-118123683D02*
X140356317Y-118123683D01*
X140356317Y-118123683D02*
X138455000Y-120025000D01*
X138455000Y-120025000D02*
X136650000Y-120025000D01*
D27*
%TO.N,/SCL1*%
X127260500Y-110300500D02*
X126000000Y-109040000D01*
X127260500Y-111320541D02*
X127260500Y-110300500D01*
X126000000Y-109040000D02*
X126000000Y-104880000D01*
%TO.N,/SDA1*%
X126763196Y-107153246D02*
X127270000Y-106646442D01*
X127249500Y-109479500D02*
X126763196Y-108993196D01*
X126763196Y-108993196D02*
X126763196Y-107153246D01*
X127270000Y-106646442D02*
X127270000Y-104880000D01*
X127630000Y-109479500D02*
X127249500Y-109479500D01*
%TO.N,/USB+*%
X112516500Y-117576500D02*
X114316550Y-117576500D01*
X114316550Y-117576500D02*
X120490050Y-123750000D01*
X120490050Y-123750000D02*
X122905635Y-123750000D01*
X122905635Y-123750000D02*
X125068713Y-125913078D01*
X125068713Y-125913078D02*
X127938078Y-125913078D01*
X127938078Y-125913078D02*
X128410000Y-126385000D01*
D26*
%TO.N,+3.3V*%
X114830000Y-114910000D02*
X114830000Y-115210000D01*
X114830000Y-115210000D02*
X113190000Y-116850000D01*
X113190000Y-116850000D02*
X112170000Y-116850000D01*
X112170000Y-116850000D02*
X111790000Y-117230000D01*
X111790000Y-117230000D02*
X111790000Y-119011586D01*
X111790000Y-119011586D02*
X112229366Y-119450952D01*
X112229366Y-119450952D02*
X113170952Y-119450952D01*
X113170952Y-119450952D02*
X114300000Y-120580000D01*
X114300000Y-120580000D02*
X114300000Y-122150000D01*
X114300000Y-122150000D02*
X120875000Y-128725000D01*
X120875000Y-128725000D02*
X120875000Y-129335000D01*
D27*
%TO.N,/RX_ESC*%
X123690000Y-121860000D02*
X123690000Y-123959450D01*
X123690000Y-123959450D02*
X124700550Y-124970000D01*
X124700550Y-124970000D02*
X127930050Y-124970000D01*
X127930050Y-124970000D02*
X130100050Y-122800000D01*
X130100050Y-122800000D02*
X132360000Y-122800000D01*
D24*
%TO.N,/VBAT*%
X125503771Y-132666229D02*
X126262542Y-133425000D01*
X126262542Y-133425000D02*
X127450000Y-133425000D01*
D27*
%TO.N,/RX_ESC*%
X138660000Y-126950000D02*
X137780000Y-126950000D01*
X137780000Y-126950000D02*
X135180000Y-124350000D01*
X135180000Y-124350000D02*
X135180000Y-124330000D01*
%TO.N,/M2*%
X137690000Y-126040000D02*
X139765000Y-126040000D01*
X137120000Y-125470000D02*
X137690000Y-126040000D01*
X137120000Y-123400000D02*
X137120000Y-125470000D01*
X135380000Y-121660000D02*
X137120000Y-123400000D01*
X135390000Y-118710000D02*
X135390000Y-121650000D01*
X133068614Y-116499500D02*
X134444114Y-117875000D01*
X135390000Y-121650000D02*
X135380000Y-121660000D01*
D23*
X134785000Y-117025000D02*
X136650000Y-117025000D01*
D27*
X134555000Y-117875000D02*
X135390000Y-118710000D01*
X134444114Y-117875000D02*
X134555000Y-117875000D01*
X139765000Y-126040000D02*
X140575000Y-126850000D01*
D23*
X133068614Y-116499500D02*
X134259500Y-116499500D01*
X134259500Y-116499500D02*
X134785000Y-117025000D01*
D27*
%TO.N,+1V1*%
X121177906Y-116777906D02*
X120040000Y-115640000D01*
X126324308Y-122105125D02*
X121177906Y-116958723D01*
X127487842Y-122105125D02*
X126324308Y-122105125D01*
X121177906Y-116958723D02*
X121177906Y-116777906D01*
X127090000Y-124270000D02*
X124990500Y-124270000D01*
X128270000Y-123090000D02*
X127090000Y-124270000D01*
X128270000Y-122887283D02*
X128270000Y-123090000D01*
X127487842Y-122105125D02*
X128270000Y-122887283D01*
X120040000Y-115640000D02*
X118370000Y-115640000D01*
%TO.N,/QSPI_SS*%
X136361736Y-124331736D02*
X136090000Y-124060000D01*
X136090000Y-124060000D02*
X136090000Y-123070050D01*
X136090000Y-123070050D02*
X134675000Y-121655050D01*
X134675000Y-121655050D02*
X134675000Y-121050000D01*
%TO.N,/QSPI_SD1*%
X133547029Y-121093471D02*
X133547029Y-121517029D01*
X133547029Y-121517029D02*
X135091736Y-123061736D01*
D26*
%TO.N,+3.3V*%
X126474500Y-113870000D02*
X126474500Y-112864500D01*
X126474500Y-112864500D02*
X125300000Y-111690000D01*
X121635500Y-109263634D02*
X121635500Y-114084500D01*
X125300000Y-111690000D02*
X125300000Y-110471866D01*
X125300000Y-110471866D02*
X122496540Y-107668406D01*
X121494272Y-107668406D02*
X121068406Y-108094272D01*
X121635500Y-114084500D02*
X120779500Y-114940500D01*
X122496540Y-107668406D02*
X121494272Y-107668406D01*
X121068406Y-108094272D02*
X121068406Y-108696540D01*
X121068406Y-108696540D02*
X121635500Y-109263634D01*
X120779500Y-114940500D02*
X119280000Y-114940500D01*
D24*
%TO.N,+5V*%
X121795406Y-108395406D02*
X122280000Y-108880000D01*
X122280000Y-108880000D02*
X122280000Y-117187541D01*
X133620000Y-122463276D02*
X133620000Y-125405000D01*
X133620000Y-125405000D02*
X132200000Y-126825000D01*
X122280000Y-117187541D02*
X125792459Y-120700000D01*
X125792459Y-120700000D02*
X131856724Y-120700000D01*
X131856724Y-120700000D02*
X133620000Y-122463276D01*
D23*
%TO.N,+3.3V*%
X127594287Y-107634287D02*
X127594287Y-107615713D01*
X127594287Y-107615713D02*
X128540000Y-106670000D01*
X128620000Y-111455000D02*
X128620000Y-110640000D01*
X126474500Y-113600500D02*
X128620000Y-111455000D01*
X126474500Y-113870000D02*
X126474500Y-113600500D01*
D27*
%TO.N,/IMU_INTERRUPT*%
X129174502Y-115458897D02*
X129842287Y-114791112D01*
X129842287Y-114791112D02*
X130308888Y-114791112D01*
X130308888Y-114791112D02*
X132890000Y-112210000D01*
X132890000Y-112210000D02*
X134910000Y-112210000D01*
X134910000Y-112210000D02*
X135250000Y-111870000D01*
X135250000Y-111870000D02*
X135250000Y-108250000D01*
X135250000Y-108250000D02*
X135150000Y-108150000D01*
D23*
%TO.N,+3.3V*%
X132210000Y-114020000D02*
X131719790Y-114020000D01*
X131719790Y-114020000D02*
X130496278Y-115243512D01*
X130496278Y-115243512D02*
X130369079Y-115243512D01*
X130369079Y-115243512D02*
X129928334Y-115684257D01*
X132210000Y-113529790D02*
X133069790Y-112670000D01*
X129928334Y-115684257D02*
X129928334Y-116982420D01*
X129928334Y-116982420D02*
X129390024Y-117520730D01*
X132210000Y-114020000D02*
X132210000Y-113529790D01*
X133069790Y-112670000D02*
X136300000Y-112670000D01*
D27*
%TO.N,/M3*%
X138308803Y-118272600D02*
X138061203Y-118025000D01*
X138061203Y-118025000D02*
X136650000Y-118025000D01*
%TO.N,/~{RESET}*%
X115630000Y-114210000D02*
X116753296Y-115333296D01*
X113025500Y-115520000D02*
X114335500Y-114210000D01*
X114335500Y-114210000D02*
X115630000Y-114210000D01*
X116753296Y-115333296D02*
X116753296Y-116796704D01*
D26*
%TO.N,+3.3V*%
X114830000Y-114910000D02*
X114780000Y-114960000D01*
X114780000Y-116830000D02*
X119380000Y-121430000D01*
X114780000Y-114960000D02*
X114780000Y-116830000D01*
X119380000Y-121430000D02*
X119590000Y-121430000D01*
D27*
%TO.N,/CURR*%
X133885500Y-119274500D02*
X134380000Y-118780000D01*
X127644500Y-119274500D02*
X133885500Y-119274500D01*
X126830000Y-118460000D02*
X127644500Y-119274500D01*
%TO.N,/M4*%
X123710000Y-115360000D02*
X123760000Y-115310000D01*
X123760000Y-115310000D02*
X126190050Y-115310000D01*
X126190050Y-115310000D02*
X129330050Y-118450000D01*
X129330050Y-118450000D02*
X133240000Y-118450000D01*
X133240000Y-118450000D02*
X133350000Y-118560000D01*
X133350000Y-118560000D02*
X133350000Y-118574500D01*
%TO.N,/USB-*%
X112540542Y-118723952D02*
X114843952Y-118723952D01*
X114843952Y-118723952D02*
X120270000Y-124150000D01*
X120270000Y-124150000D02*
X122739950Y-124150000D01*
X122739950Y-124150000D02*
X125203027Y-126613078D01*
X125203027Y-126613078D02*
X127436868Y-126613078D01*
%TO.N,+3.3V*%
X135280000Y-107030000D02*
X135850000Y-107600000D01*
X135850000Y-107600000D02*
X135850000Y-112220000D01*
X135850000Y-112220000D02*
X136300000Y-112670000D01*
D23*
X128540000Y-104880000D02*
X128540000Y-106670000D01*
X128540000Y-106670000D02*
X128540000Y-110560000D01*
%TO.N,/VBAT*%
X115670000Y-134070000D02*
X118400000Y-136800000D01*
X115670000Y-132900000D02*
X115670000Y-134070000D01*
D27*
%TO.N,/BUZZER*%
X126000000Y-102491900D02*
X126000000Y-100550000D01*
%TO.N,/LED*%
X127270000Y-102491900D02*
X127270000Y-100550000D01*
D23*
%TO.N,+5V*%
X128540000Y-100550000D02*
X128540000Y-101210000D01*
X128540000Y-101210000D02*
X129280000Y-101950000D01*
X129280000Y-101950000D02*
X133920000Y-101950000D01*
X133920000Y-101950000D02*
X134540000Y-101330000D01*
X134540000Y-101330000D02*
X134540000Y-100550000D01*
%TO.N,+3.3V*%
X120875000Y-129335000D02*
X120875000Y-133475000D01*
X120875000Y-127175000D02*
X120875000Y-129335000D01*
D24*
%TO.N,+5V*%
X132200000Y-133125000D02*
X132200000Y-126825000D01*
D23*
%TO.N,+3.3V*%
X128620000Y-110640000D02*
X130348223Y-108911777D01*
X130348223Y-108911777D02*
X130438345Y-109001900D01*
X130438345Y-109001900D02*
X131061655Y-109001900D01*
X131061655Y-109001900D02*
X131502400Y-108561155D01*
X132630000Y-107030000D02*
X135280000Y-107030000D01*
X131502400Y-108561155D02*
X131502400Y-108157600D01*
X131502400Y-108157600D02*
X132630000Y-107030000D01*
X128540000Y-110560000D02*
X128620000Y-110640000D01*
D26*
%TO.N,/~{USB_BOOT}*%
X134950000Y-127720000D02*
X133884999Y-128785001D01*
X133884999Y-128785001D02*
X133884999Y-130275001D01*
D23*
%TO.N,+3.3V*%
X115770000Y-127920000D02*
X115960000Y-128110000D01*
X115960000Y-128110000D02*
X119940000Y-128110000D01*
X119940000Y-128110000D02*
X120875000Y-127175000D01*
%TO.N,/VBAT*%
X111290000Y-128840000D02*
X111290000Y-130362500D01*
X111290000Y-130362500D02*
X111650000Y-130722500D01*
%TO.N,Net-(C21-Pad1)*%
X114672500Y-129600000D02*
X114672500Y-129072500D01*
X114672500Y-129072500D02*
X113550000Y-127950000D01*
X115670000Y-129600000D02*
X114672500Y-129600000D01*
X114672500Y-129600000D02*
X113550000Y-130722500D01*
X118575000Y-133475000D02*
X118575000Y-132505000D01*
X118575000Y-132505000D02*
X115670000Y-129600000D01*
%TO.N,/VBAT*%
X127450000Y-133425000D02*
X129600000Y-133425000D01*
X129600000Y-133425000D02*
X129900000Y-133125000D01*
%TD*%
%TA.AperFunction,Conductor*%
%TO.N,GND*%
G36*
X134200000Y-135460000D02*
G01*
X134286357Y-135539050D01*
X134283231Y-135560904D01*
X134285959Y-135579768D01*
X134256517Y-135644372D01*
X134218431Y-135674201D01*
X133972554Y-135799482D01*
X133691212Y-135982188D01*
X133430509Y-136193301D01*
X133193301Y-136430509D01*
X132982188Y-136691212D01*
X132799482Y-136972554D01*
X132797988Y-136975486D01*
X132797984Y-136975493D01*
X132741894Y-137085576D01*
X132647185Y-137271453D01*
X132526967Y-137584634D01*
X132440143Y-137908665D01*
X132387665Y-138239998D01*
X132370358Y-138570232D01*
X132369344Y-138574641D01*
X132372476Y-138588480D01*
X132372467Y-138593312D01*
X132374500Y-138611504D01*
X132374500Y-141537920D01*
X132372534Y-141555242D01*
X132372524Y-141560811D01*
X132369344Y-141574641D01*
X132372476Y-141588482D01*
X132372474Y-141589605D01*
X132371867Y-141601736D01*
X132360354Y-141718626D01*
X132355536Y-141742848D01*
X132317243Y-141869085D01*
X132307793Y-141891898D01*
X132245611Y-142008232D01*
X132231888Y-142028770D01*
X132148204Y-142130739D01*
X132130739Y-142148204D01*
X132028770Y-142231888D01*
X132008234Y-142245610D01*
X131904902Y-142300842D01*
X131891898Y-142307793D01*
X131869088Y-142317242D01*
X131742844Y-142355538D01*
X131718627Y-142360354D01*
X131693814Y-142362798D01*
X131601230Y-142371917D01*
X131589095Y-142372503D01*
X131575359Y-142369344D01*
X131561520Y-142372475D01*
X131556690Y-142372467D01*
X131538496Y-142374500D01*
X130862080Y-142374500D01*
X130844757Y-142372534D01*
X130839189Y-142372524D01*
X130825359Y-142369344D01*
X130814194Y-142371870D01*
X130802549Y-142370944D01*
X130752155Y-142362962D01*
X130714670Y-142350782D01*
X130666736Y-142326359D01*
X130634845Y-142303188D01*
X130596812Y-142265155D01*
X130573640Y-142233263D01*
X130549218Y-142185330D01*
X130537037Y-142147842D01*
X130530757Y-142108192D01*
X130530117Y-142078039D01*
X130530655Y-142075718D01*
X130530656Y-142075000D01*
X130528654Y-142066225D01*
X130525500Y-142038210D01*
X130525500Y-139612371D01*
X130528755Y-139583918D01*
X130529043Y-139582676D01*
X130529044Y-139582669D01*
X130530655Y-139575718D01*
X130530656Y-139575000D01*
X130529075Y-139568069D01*
X130528282Y-139560987D01*
X130528463Y-139560967D01*
X130527729Y-139556164D01*
X130514774Y-139391554D01*
X130514386Y-139386620D01*
X130470274Y-139202878D01*
X130468380Y-139198305D01*
X130399856Y-139032873D01*
X130399854Y-139032869D01*
X130397961Y-139028299D01*
X130299228Y-138867182D01*
X130296021Y-138863427D01*
X130296018Y-138863423D01*
X130179714Y-138727250D01*
X130176506Y-138723494D01*
X130172750Y-138720286D01*
X130036577Y-138603982D01*
X130036573Y-138603979D01*
X130032818Y-138600772D01*
X129871701Y-138502039D01*
X129867131Y-138500146D01*
X129867127Y-138500144D01*
X129701695Y-138431620D01*
X129701693Y-138431619D01*
X129697122Y-138429726D01*
X129633915Y-138414552D01*
X129518193Y-138386769D01*
X129518187Y-138386768D01*
X129513380Y-138385614D01*
X129344895Y-138372353D01*
X129339786Y-138371563D01*
X129339762Y-138371772D01*
X129332667Y-138370955D01*
X129325718Y-138369345D01*
X129325000Y-138369344D01*
X129316225Y-138371346D01*
X129288210Y-138374500D01*
X127362371Y-138374500D01*
X127333918Y-138371245D01*
X127332676Y-138370957D01*
X127332669Y-138370956D01*
X127325718Y-138369345D01*
X127325000Y-138369344D01*
X127318069Y-138370925D01*
X127310987Y-138371718D01*
X127310967Y-138371537D01*
X127306167Y-138372271D01*
X127136620Y-138385614D01*
X127131813Y-138386768D01*
X127131807Y-138386769D01*
X127016085Y-138414552D01*
X126952878Y-138429726D01*
X126948307Y-138431619D01*
X126948305Y-138431620D01*
X126782873Y-138500144D01*
X126782869Y-138500146D01*
X126778299Y-138502039D01*
X126617182Y-138600772D01*
X126613427Y-138603979D01*
X126613423Y-138603982D01*
X126477250Y-138720286D01*
X126473494Y-138723494D01*
X126470286Y-138727250D01*
X126353982Y-138863423D01*
X126353979Y-138863427D01*
X126350772Y-138867182D01*
X126252039Y-139028299D01*
X126250146Y-139032869D01*
X126250144Y-139032873D01*
X126181620Y-139198305D01*
X126179726Y-139202878D01*
X126135614Y-139386620D01*
X126121582Y-139564907D01*
X126119344Y-139574641D01*
X126122475Y-139588480D01*
X126122467Y-139593309D01*
X126124500Y-139611504D01*
X126124500Y-142037920D01*
X126122534Y-142055243D01*
X126122524Y-142060811D01*
X126119344Y-142074641D01*
X126121870Y-142085806D01*
X126120944Y-142097451D01*
X126114152Y-142140332D01*
X126112963Y-142147842D01*
X126100782Y-142185330D01*
X126076360Y-142233263D01*
X126053188Y-142265155D01*
X126015155Y-142303188D01*
X125983264Y-142326359D01*
X125935332Y-142350781D01*
X125897843Y-142362963D01*
X125879311Y-142365898D01*
X125847396Y-142370952D01*
X125836158Y-142371827D01*
X125825359Y-142369344D01*
X125811520Y-142372475D01*
X125806691Y-142372467D01*
X125788496Y-142374500D01*
X124736756Y-142374500D01*
X124668635Y-142354498D01*
X124622142Y-142300842D01*
X124610794Y-142251608D01*
X124467219Y-136433084D01*
X124440000Y-135330000D01*
X134200000Y-135460000D01*
G37*
%TD.AperFunction*%
%TD*%
%TA.AperFunction,Conductor*%
%TO.N,/VBAT*%
G36*
X123472632Y-136150112D02*
G01*
X123519227Y-136203679D01*
X123530712Y-136255525D01*
X123564710Y-142247785D01*
X123545095Y-142316018D01*
X123491704Y-142362815D01*
X123438712Y-142374500D01*
X122362080Y-142374500D01*
X122344757Y-142372534D01*
X122339189Y-142372524D01*
X122325359Y-142369344D01*
X122314194Y-142371870D01*
X122302549Y-142370944D01*
X122252155Y-142362962D01*
X122214670Y-142350782D01*
X122166736Y-142326359D01*
X122134845Y-142303188D01*
X122096812Y-142265155D01*
X122073640Y-142233263D01*
X122049218Y-142185330D01*
X122037037Y-142147842D01*
X122030757Y-142108192D01*
X122030117Y-142078039D01*
X122030655Y-142075718D01*
X122030656Y-142075000D01*
X122028654Y-142066225D01*
X122025500Y-142038210D01*
X122025500Y-139612371D01*
X122028755Y-139583918D01*
X122029043Y-139582676D01*
X122029044Y-139582669D01*
X122030655Y-139575718D01*
X122030656Y-139575000D01*
X122029075Y-139568069D01*
X122028282Y-139560987D01*
X122028463Y-139560967D01*
X122027729Y-139556164D01*
X122014774Y-139391554D01*
X122014386Y-139386620D01*
X121970274Y-139202878D01*
X121968380Y-139198305D01*
X121899856Y-139032873D01*
X121899854Y-139032869D01*
X121897961Y-139028299D01*
X121799228Y-138867182D01*
X121796021Y-138863427D01*
X121796018Y-138863423D01*
X121679714Y-138727250D01*
X121676506Y-138723494D01*
X121546399Y-138612371D01*
X121536577Y-138603982D01*
X121536573Y-138603979D01*
X121532818Y-138600772D01*
X121371701Y-138502039D01*
X121367131Y-138500146D01*
X121367127Y-138500144D01*
X121201695Y-138431620D01*
X121201693Y-138431619D01*
X121197122Y-138429726D01*
X121133915Y-138414552D01*
X121018193Y-138386769D01*
X121018187Y-138386768D01*
X121013380Y-138385614D01*
X120844895Y-138372353D01*
X120839786Y-138371563D01*
X120839762Y-138371772D01*
X120832667Y-138370955D01*
X120825718Y-138369345D01*
X120825000Y-138369344D01*
X120816225Y-138371346D01*
X120788210Y-138374500D01*
X118862371Y-138374500D01*
X118833918Y-138371245D01*
X118832676Y-138370957D01*
X118832669Y-138370956D01*
X118825718Y-138369345D01*
X118825000Y-138369344D01*
X118818069Y-138370925D01*
X118810987Y-138371718D01*
X118810967Y-138371537D01*
X118806167Y-138372271D01*
X118636620Y-138385614D01*
X118631813Y-138386768D01*
X118631807Y-138386769D01*
X118516085Y-138414552D01*
X118452878Y-138429726D01*
X118448307Y-138431619D01*
X118448305Y-138431620D01*
X118282873Y-138500144D01*
X118282869Y-138500146D01*
X118278299Y-138502039D01*
X118117182Y-138600772D01*
X118113427Y-138603979D01*
X118113423Y-138603982D01*
X118103601Y-138612371D01*
X117973494Y-138723494D01*
X117970286Y-138727250D01*
X117853982Y-138863423D01*
X117853979Y-138863427D01*
X117850772Y-138867182D01*
X117752039Y-139028299D01*
X117750146Y-139032869D01*
X117750144Y-139032873D01*
X117681620Y-139198305D01*
X117679726Y-139202878D01*
X117635614Y-139386620D01*
X117621582Y-139564907D01*
X117619344Y-139574641D01*
X117622475Y-139588480D01*
X117622467Y-139593309D01*
X117624500Y-139611504D01*
X117624500Y-142037920D01*
X117622534Y-142055243D01*
X117622524Y-142060811D01*
X117619344Y-142074641D01*
X117621870Y-142085806D01*
X117620944Y-142097451D01*
X117614152Y-142140332D01*
X117612963Y-142147842D01*
X117600782Y-142185330D01*
X117576360Y-142233263D01*
X117553188Y-142265155D01*
X117515155Y-142303188D01*
X117483264Y-142326359D01*
X117435332Y-142350781D01*
X117397843Y-142362963D01*
X117379311Y-142365898D01*
X117347396Y-142370952D01*
X117336158Y-142371827D01*
X117325359Y-142369344D01*
X117311520Y-142372475D01*
X117306691Y-142372467D01*
X117288496Y-142374500D01*
X116612080Y-142374500D01*
X116594758Y-142372534D01*
X116589189Y-142372524D01*
X116575359Y-142369344D01*
X116561518Y-142372476D01*
X116560395Y-142372474D01*
X116548269Y-142371867D01*
X116493382Y-142366461D01*
X116431374Y-142360354D01*
X116407152Y-142355536D01*
X116280915Y-142317243D01*
X116258102Y-142307793D01*
X116249487Y-142303188D01*
X116141766Y-142245610D01*
X116121230Y-142231888D01*
X116019261Y-142148204D01*
X116001796Y-142130739D01*
X115918112Y-142028770D01*
X115904389Y-142008232D01*
X115842207Y-141891898D01*
X115832758Y-141869088D01*
X115794462Y-141742844D01*
X115789646Y-141718626D01*
X115778860Y-141609114D01*
X115779078Y-141582523D01*
X115780655Y-141575718D01*
X115780656Y-141575000D01*
X115778654Y-141566225D01*
X115775500Y-141538210D01*
X115775500Y-138612371D01*
X115778755Y-138583918D01*
X115779043Y-138582676D01*
X115779044Y-138582669D01*
X115780655Y-138575718D01*
X115780656Y-138575000D01*
X115780171Y-138572873D01*
X115780431Y-138570612D01*
X115779664Y-138570652D01*
X115775969Y-138500144D01*
X115762335Y-138239998D01*
X115709857Y-137908665D01*
X115623033Y-137584634D01*
X115502815Y-137271453D01*
X115408106Y-137085576D01*
X115352016Y-136975493D01*
X115352012Y-136975486D01*
X115350518Y-136972554D01*
X115167812Y-136691212D01*
X114956699Y-136430509D01*
X114887640Y-136361450D01*
X114853614Y-136299138D01*
X114858679Y-136228323D01*
X114901226Y-136171487D01*
X114967746Y-136146676D01*
X114976494Y-136146355D01*
X122233292Y-136132479D01*
X123404473Y-136130240D01*
X123472632Y-136150112D01*
G37*
%TD.AperFunction*%
%TD*%
%TA.AperFunction,Conductor*%
%TO.N,GND*%
G36*
X125334785Y-103958002D02*
G01*
X125381278Y-104011658D01*
X125391382Y-104081932D01*
X125368015Y-104138860D01*
X125352959Y-104159243D01*
X125352958Y-104159246D01*
X125347366Y-104166816D01*
X125302481Y-104294631D01*
X125299500Y-104326166D01*
X125299500Y-105433834D01*
X125302481Y-105465369D01*
X125347366Y-105593184D01*
X125352958Y-105600754D01*
X125352959Y-105600757D01*
X125415335Y-105685206D01*
X125427850Y-105702150D01*
X125435421Y-105707742D01*
X125529243Y-105777041D01*
X125529246Y-105777042D01*
X125536816Y-105782634D01*
X125615248Y-105810177D01*
X125672894Y-105851620D01*
X125698982Y-105917650D01*
X125699500Y-105929060D01*
X125699500Y-108987634D01*
X125699304Y-108990307D01*
X125697575Y-108995342D01*
X125698011Y-109006964D01*
X125698011Y-109006966D01*
X125699411Y-109044255D01*
X125699500Y-109048981D01*
X125699500Y-109067948D01*
X125700382Y-109072683D01*
X125700610Y-109076209D01*
X125701774Y-109107208D01*
X125706364Y-109117893D01*
X125707401Y-109122493D01*
X125710962Y-109134214D01*
X125712661Y-109138617D01*
X125714791Y-109150053D01*
X125720895Y-109159955D01*
X125727727Y-109171039D01*
X125736231Y-109187411D01*
X125742451Y-109201888D01*
X125742453Y-109201892D01*
X125745964Y-109210063D01*
X125749978Y-109214949D01*
X125752163Y-109217134D01*
X125754215Y-109219397D01*
X125754055Y-109219542D01*
X125761175Y-109228549D01*
X125767427Y-109235444D01*
X125773532Y-109245348D01*
X125795320Y-109261916D01*
X125808139Y-109273110D01*
X126923095Y-110388067D01*
X126957121Y-110450379D01*
X126960000Y-110477162D01*
X126960000Y-110732072D01*
X126939998Y-110800193D01*
X126910705Y-110832034D01*
X126832218Y-110892259D01*
X126735964Y-111017700D01*
X126675456Y-111163779D01*
X126654818Y-111320541D01*
X126675456Y-111477303D01*
X126735964Y-111623382D01*
X126740991Y-111629933D01*
X126817492Y-111729631D01*
X126832218Y-111748823D01*
X126838764Y-111753846D01*
X126848684Y-111761458D01*
X126957659Y-111845077D01*
X127103738Y-111905585D01*
X127111926Y-111906663D01*
X127143699Y-111910846D01*
X127260500Y-111926223D01*
X127340702Y-111915664D01*
X127410850Y-111926603D01*
X127463949Y-111973731D01*
X127483139Y-112042085D01*
X127462328Y-112109963D01*
X127446243Y-112129681D01*
X126914518Y-112661406D01*
X126852206Y-112695432D01*
X126781391Y-112690367D01*
X126731988Y-112655482D01*
X126729250Y-112650740D01*
X126700177Y-112626345D01*
X126692073Y-112618918D01*
X125664405Y-111591251D01*
X125630380Y-111528939D01*
X125627500Y-111502156D01*
X125627500Y-110491663D01*
X125627979Y-110480681D01*
X125630326Y-110453859D01*
X125630326Y-110453857D01*
X125631286Y-110442882D01*
X125621464Y-110406224D01*
X125619088Y-110395506D01*
X125614412Y-110368984D01*
X125614411Y-110368981D01*
X125612497Y-110358127D01*
X125606984Y-110348579D01*
X125605763Y-110345224D01*
X125604248Y-110341974D01*
X125601394Y-110331323D01*
X125579628Y-110300237D01*
X125573723Y-110290968D01*
X125560263Y-110267654D01*
X125560261Y-110267652D01*
X125554750Y-110258106D01*
X125525677Y-110233711D01*
X125517573Y-110226284D01*
X122742127Y-107450839D01*
X122734700Y-107442735D01*
X122719861Y-107425051D01*
X122710300Y-107413656D01*
X122677435Y-107394681D01*
X122668175Y-107388783D01*
X122637083Y-107367012D01*
X122626439Y-107364160D01*
X122623193Y-107362646D01*
X122619825Y-107361420D01*
X122610279Y-107355909D01*
X122572908Y-107349319D01*
X122562184Y-107346942D01*
X122525524Y-107337119D01*
X122514540Y-107338080D01*
X122514539Y-107338080D01*
X122487729Y-107340426D01*
X122476746Y-107340906D01*
X121514068Y-107340906D01*
X121503086Y-107340427D01*
X121503075Y-107340426D01*
X121465287Y-107337120D01*
X121454641Y-107339973D01*
X121454638Y-107339973D01*
X121428642Y-107346939D01*
X121417909Y-107349319D01*
X121410539Y-107350619D01*
X121380533Y-107355909D01*
X121370984Y-107361422D01*
X121367625Y-107362644D01*
X121364378Y-107364158D01*
X121353729Y-107367012D01*
X121344702Y-107373333D01*
X121344700Y-107373334D01*
X121322644Y-107388778D01*
X121313374Y-107394683D01*
X121290060Y-107408143D01*
X121290058Y-107408145D01*
X121280512Y-107413656D01*
X121266851Y-107429937D01*
X121256122Y-107442723D01*
X121248696Y-107450827D01*
X120850833Y-107848691D01*
X120842729Y-107856117D01*
X120813656Y-107880512D01*
X120808143Y-107890061D01*
X120794681Y-107913378D01*
X120788783Y-107922637D01*
X120767012Y-107953729D01*
X120764160Y-107964373D01*
X120762646Y-107967619D01*
X120761420Y-107970987D01*
X120755909Y-107980533D01*
X120752441Y-108000199D01*
X120749319Y-108017905D01*
X120746942Y-108028628D01*
X120737119Y-108065288D01*
X120738080Y-108076271D01*
X120740426Y-108103083D01*
X120740906Y-108114066D01*
X120740906Y-108676746D01*
X120740426Y-108687729D01*
X120737119Y-108725524D01*
X120745648Y-108757352D01*
X120746940Y-108762175D01*
X120749319Y-108772907D01*
X120755909Y-108810279D01*
X120761420Y-108819825D01*
X120762646Y-108823193D01*
X120764160Y-108826439D01*
X120767012Y-108837083D01*
X120788783Y-108868175D01*
X120794681Y-108877434D01*
X120813656Y-108910300D01*
X120822101Y-108917386D01*
X120842736Y-108934701D01*
X120850840Y-108942128D01*
X121271095Y-109362383D01*
X121305121Y-109424695D01*
X121308000Y-109451478D01*
X121308000Y-113896654D01*
X121287998Y-113964775D01*
X121271096Y-113985749D01*
X120680751Y-114576095D01*
X120618438Y-114610120D01*
X120591655Y-114613000D01*
X119847751Y-114613000D01*
X119779630Y-114592998D01*
X119747789Y-114563704D01*
X119713311Y-114518771D01*
X119713308Y-114518768D01*
X119708282Y-114512218D01*
X119694677Y-114501778D01*
X119616428Y-114441736D01*
X119582841Y-114415964D01*
X119436762Y-114355456D01*
X119280000Y-114334818D01*
X119123238Y-114355456D01*
X118977159Y-114415964D01*
X118943572Y-114441736D01*
X118869574Y-114498517D01*
X118851718Y-114512218D01*
X118846695Y-114518764D01*
X118833313Y-114536204D01*
X118775975Y-114578071D01*
X118733350Y-114585500D01*
X118086809Y-114585500D01*
X118075827Y-114585021D01*
X118048993Y-114582673D01*
X118048991Y-114582673D01*
X118038016Y-114581713D01*
X118001347Y-114591538D01*
X117990633Y-114593913D01*
X117953261Y-114600503D01*
X117943712Y-114606017D01*
X117940340Y-114607244D01*
X117937106Y-114608752D01*
X117926457Y-114611605D01*
X117895361Y-114633378D01*
X117886114Y-114639270D01*
X117853240Y-114658250D01*
X117844382Y-114668807D01*
X117828850Y-114687317D01*
X117821424Y-114695421D01*
X117392427Y-115124419D01*
X117384323Y-115131845D01*
X117355250Y-115156240D01*
X117349737Y-115165789D01*
X117336275Y-115189106D01*
X117330377Y-115198365D01*
X117308606Y-115229457D01*
X117305754Y-115240101D01*
X117304240Y-115243347D01*
X117303014Y-115246715D01*
X117297503Y-115256261D01*
X117295589Y-115267115D01*
X117291818Y-115277476D01*
X117289115Y-115276492D01*
X117265072Y-115325009D01*
X117204159Y-115361480D01*
X117133198Y-115359229D01*
X117074719Y-115318971D01*
X117051730Y-115271618D01*
X117051522Y-115266087D01*
X117046931Y-115255401D01*
X117045891Y-115250788D01*
X117042339Y-115239096D01*
X117040635Y-115234679D01*
X117038505Y-115223243D01*
X117025568Y-115202255D01*
X117017065Y-115185885D01*
X117010845Y-115171408D01*
X117010843Y-115171404D01*
X117007332Y-115163233D01*
X117003318Y-115158347D01*
X117001133Y-115156162D01*
X116999081Y-115153899D01*
X116999241Y-115153754D01*
X116992121Y-115144747D01*
X116985869Y-115137852D01*
X116979764Y-115127948D01*
X116957976Y-115111380D01*
X116945157Y-115100186D01*
X115879519Y-114034548D01*
X115877763Y-114032514D01*
X115875425Y-114027731D01*
X115858573Y-114012098D01*
X115839523Y-113994427D01*
X115836118Y-113991147D01*
X115822723Y-113977752D01*
X115818753Y-113975028D01*
X115816105Y-113972703D01*
X115801881Y-113959508D01*
X115801878Y-113959506D01*
X115793354Y-113951599D01*
X115782550Y-113947289D01*
X115778561Y-113944767D01*
X115767773Y-113939006D01*
X115763448Y-113937089D01*
X115753854Y-113930508D01*
X115742535Y-113927822D01*
X115742533Y-113927821D01*
X115729873Y-113924817D01*
X115712276Y-113919252D01*
X115697638Y-113913412D01*
X115697635Y-113913411D01*
X115689378Y-113910117D01*
X115683085Y-113909500D01*
X115680006Y-113909500D01*
X115676933Y-113909350D01*
X115676944Y-113909134D01*
X115665569Y-113907802D01*
X115656254Y-113907346D01*
X115644934Y-113904660D01*
X115633405Y-113906229D01*
X115633404Y-113906229D01*
X115617827Y-113908349D01*
X115600836Y-113909500D01*
X114387866Y-113909500D01*
X114385193Y-113909304D01*
X114380158Y-113907575D01*
X114368536Y-113908011D01*
X114368534Y-113908011D01*
X114331245Y-113909411D01*
X114326519Y-113909500D01*
X114307552Y-113909500D01*
X114302817Y-113910382D01*
X114299291Y-113910610D01*
X114295551Y-113910751D01*
X114268292Y-113911774D01*
X114257607Y-113916364D01*
X114253007Y-113917401D01*
X114241286Y-113920962D01*
X114236883Y-113922661D01*
X114225447Y-113924791D01*
X114204461Y-113937727D01*
X114188089Y-113946231D01*
X114173609Y-113952452D01*
X114173604Y-113952455D01*
X114165437Y-113955964D01*
X114160551Y-113959977D01*
X114158368Y-113962160D01*
X114156092Y-113964224D01*
X114155946Y-113964063D01*
X114146961Y-113971165D01*
X114140054Y-113977428D01*
X114130152Y-113983532D01*
X114113940Y-114004852D01*
X114113597Y-114005303D01*
X114102397Y-114018131D01*
X113658627Y-114461902D01*
X113229125Y-114891404D01*
X113166812Y-114925429D01*
X113123584Y-114927231D01*
X113025500Y-114914318D01*
X113017312Y-114915396D01*
X112927416Y-114927231D01*
X112868738Y-114934956D01*
X112722659Y-114995464D01*
X112676989Y-115030508D01*
X112610067Y-115081859D01*
X112597218Y-115091718D01*
X112500964Y-115217159D01*
X112440456Y-115363238D01*
X112439378Y-115371426D01*
X112438039Y-115381599D01*
X112419818Y-115520000D01*
X112440456Y-115676762D01*
X112500964Y-115822841D01*
X112505991Y-115829392D01*
X112575517Y-115920000D01*
X112597218Y-115948282D01*
X112722659Y-116044536D01*
X112868738Y-116105044D01*
X113025500Y-116125682D01*
X113147693Y-116109595D01*
X113217841Y-116120534D01*
X113270940Y-116167662D01*
X113290130Y-116236016D01*
X113269319Y-116303894D01*
X113253234Y-116323612D01*
X113091251Y-116485595D01*
X113028939Y-116519621D01*
X113002156Y-116522500D01*
X112189797Y-116522500D01*
X112178815Y-116522021D01*
X112151993Y-116519674D01*
X112151991Y-116519674D01*
X112141016Y-116518714D01*
X112104358Y-116528536D01*
X112093643Y-116530911D01*
X112087787Y-116531944D01*
X112067118Y-116535588D01*
X112067115Y-116535589D01*
X112056261Y-116537503D01*
X112046713Y-116543016D01*
X112043358Y-116544237D01*
X112040108Y-116545752D01*
X112029457Y-116548606D01*
X112020426Y-116554929D01*
X112020427Y-116554929D01*
X111998372Y-116570372D01*
X111989102Y-116576277D01*
X111965788Y-116589737D01*
X111965786Y-116589739D01*
X111956240Y-116595250D01*
X111938814Y-116616018D01*
X111931850Y-116624317D01*
X111924423Y-116632421D01*
X111878595Y-116678249D01*
X111816283Y-116712275D01*
X111745468Y-116707210D01*
X111688632Y-116664663D01*
X111663821Y-116598143D01*
X111663500Y-116589154D01*
X111663500Y-116411896D01*
X111683502Y-116343775D01*
X111712796Y-116311933D01*
X111746580Y-116286010D01*
X111763660Y-116272904D01*
X111859914Y-116147463D01*
X111920422Y-116001384D01*
X111941060Y-115844622D01*
X111920422Y-115687860D01*
X111859914Y-115541781D01*
X111778595Y-115435804D01*
X111768683Y-115422886D01*
X111763660Y-115416340D01*
X111638219Y-115320086D01*
X111492140Y-115259578D01*
X111456691Y-115254911D01*
X111370691Y-115243589D01*
X111335378Y-115238940D01*
X111300065Y-115243589D01*
X111214066Y-115254911D01*
X111178616Y-115259578D01*
X111032537Y-115320086D01*
X110907096Y-115416340D01*
X110902073Y-115422886D01*
X110892161Y-115435804D01*
X110810842Y-115541781D01*
X110750334Y-115687860D01*
X110729696Y-115844622D01*
X110750334Y-116001384D01*
X110810842Y-116147463D01*
X110843565Y-116190108D01*
X110896205Y-116258710D01*
X110907096Y-116272904D01*
X110913649Y-116277932D01*
X110919486Y-116283769D01*
X110917245Y-116286010D01*
X110950278Y-116331265D01*
X110957700Y-116373870D01*
X110957700Y-124129517D01*
X110955623Y-124149030D01*
X110955409Y-124153568D01*
X110953218Y-124163746D01*
X110954442Y-124174087D01*
X110956827Y-124194242D01*
X110957140Y-124199550D01*
X110957272Y-124199539D01*
X110957700Y-124204717D01*
X110957700Y-124209918D01*
X110958554Y-124215047D01*
X110958554Y-124215050D01*
X110960612Y-124227414D01*
X110961449Y-124233293D01*
X110967026Y-124280417D01*
X110970712Y-124288093D01*
X110972110Y-124296491D01*
X110977055Y-124305655D01*
X110977055Y-124305656D01*
X110994647Y-124338260D01*
X110997335Y-124343533D01*
X111017883Y-124386325D01*
X111021223Y-124390299D01*
X111023161Y-124392237D01*
X111024643Y-124393853D01*
X111024892Y-124394315D01*
X111024863Y-124394341D01*
X111024975Y-124394468D01*
X111027898Y-124399886D01*
X111035546Y-124406956D01*
X111035547Y-124406957D01*
X111064594Y-124433807D01*
X111068161Y-124437237D01*
X111800195Y-125169271D01*
X111834221Y-125231583D01*
X111837100Y-125258366D01*
X111837100Y-128305886D01*
X111817098Y-128374007D01*
X111763442Y-128420500D01*
X111693168Y-128430604D01*
X111657850Y-128420081D01*
X111571910Y-128380006D01*
X111571909Y-128380006D01*
X111563173Y-128375932D01*
X111514316Y-128369500D01*
X111065684Y-128369500D01*
X111016827Y-128375932D01*
X110909596Y-128425935D01*
X110825935Y-128509596D01*
X110821275Y-128519588D01*
X110821275Y-128519589D01*
X110800494Y-128564155D01*
X110775932Y-128616827D01*
X110769500Y-128665684D01*
X110769500Y-129014316D01*
X110775932Y-129063173D01*
X110780006Y-129071909D01*
X110780006Y-129071910D01*
X110819713Y-129157062D01*
X110825935Y-129170404D01*
X110900195Y-129244664D01*
X110934221Y-129306976D01*
X110937100Y-129333759D01*
X110937100Y-130311417D01*
X110935023Y-130330930D01*
X110934809Y-130335468D01*
X110932618Y-130345646D01*
X110933842Y-130355987D01*
X110936227Y-130376142D01*
X110936540Y-130381450D01*
X110936672Y-130381439D01*
X110937100Y-130386617D01*
X110937100Y-130391818D01*
X110937954Y-130396947D01*
X110937954Y-130396950D01*
X110940012Y-130409314D01*
X110940849Y-130415193D01*
X110946426Y-130462317D01*
X110950112Y-130469993D01*
X110951510Y-130478391D01*
X110956455Y-130487555D01*
X110956455Y-130487556D01*
X110974047Y-130520160D01*
X110976735Y-130525433D01*
X110997283Y-130568225D01*
X111000623Y-130572199D01*
X111002561Y-130574137D01*
X111004043Y-130575753D01*
X111004292Y-130576215D01*
X111004263Y-130576241D01*
X111004375Y-130576368D01*
X111007298Y-130581786D01*
X111014946Y-130588856D01*
X111014947Y-130588857D01*
X111043994Y-130615707D01*
X111047561Y-130619137D01*
X111112595Y-130684171D01*
X111146621Y-130746483D01*
X111149500Y-130773266D01*
X111149500Y-131343218D01*
X111150170Y-131347768D01*
X111150170Y-131347771D01*
X111158216Y-131402426D01*
X111159642Y-131412112D01*
X111167889Y-131428909D01*
X111189012Y-131471931D01*
X111211068Y-131516855D01*
X111242757Y-131548488D01*
X111260117Y-131565818D01*
X111294197Y-131628101D01*
X111297100Y-131654992D01*
X111297100Y-133448917D01*
X111295023Y-133468430D01*
X111294809Y-133472968D01*
X111292618Y-133483146D01*
X111293842Y-133493487D01*
X111296227Y-133513642D01*
X111296540Y-133518950D01*
X111296672Y-133518939D01*
X111297100Y-133524117D01*
X111297100Y-133529318D01*
X111297954Y-133534447D01*
X111297954Y-133534450D01*
X111300012Y-133546814D01*
X111300849Y-133552693D01*
X111306426Y-133599817D01*
X111310112Y-133607493D01*
X111311510Y-133615891D01*
X111316455Y-133625055D01*
X111316455Y-133625056D01*
X111334047Y-133657660D01*
X111336735Y-133662933D01*
X111357283Y-133705725D01*
X111360623Y-133709699D01*
X111362561Y-133711637D01*
X111364043Y-133713253D01*
X111364292Y-133713715D01*
X111364263Y-133713741D01*
X111364375Y-133713868D01*
X111367298Y-133719286D01*
X111374946Y-133726356D01*
X111374947Y-133726357D01*
X111403994Y-133753207D01*
X111407561Y-133756637D01*
X111954339Y-134303415D01*
X111966672Y-134318684D01*
X111969724Y-134322038D01*
X111975375Y-134330790D01*
X111999499Y-134349808D01*
X112003466Y-134353334D01*
X112003552Y-134353233D01*
X112007515Y-134356591D01*
X112011193Y-134360269D01*
X112025627Y-134370584D01*
X112030357Y-134374135D01*
X112067638Y-134403525D01*
X112075673Y-134406347D01*
X112082599Y-134411296D01*
X112092570Y-134414278D01*
X112092574Y-134414280D01*
X112128076Y-134424897D01*
X112133692Y-134426721D01*
X112178487Y-134442452D01*
X112183659Y-134442900D01*
X112186363Y-134442900D01*
X112188595Y-134442996D01*
X112189095Y-134443146D01*
X112189093Y-134443184D01*
X112189257Y-134443194D01*
X112195158Y-134444959D01*
X112245089Y-134442997D01*
X112250035Y-134442900D01*
X113668917Y-134442900D01*
X113688430Y-134444977D01*
X113692968Y-134445191D01*
X113703146Y-134447382D01*
X113723619Y-134444959D01*
X113733642Y-134443773D01*
X113738950Y-134443460D01*
X113738939Y-134443328D01*
X113744117Y-134442900D01*
X113749318Y-134442900D01*
X113754447Y-134442046D01*
X113754450Y-134442046D01*
X113766814Y-134439988D01*
X113772693Y-134439151D01*
X113775759Y-134438788D01*
X113819817Y-134433574D01*
X113827493Y-134429888D01*
X113835891Y-134428490D01*
X113867758Y-134411296D01*
X113877660Y-134405953D01*
X113882933Y-134403265D01*
X113925725Y-134382717D01*
X113929699Y-134379377D01*
X113931637Y-134377439D01*
X113933253Y-134375957D01*
X113933715Y-134375708D01*
X113933741Y-134375737D01*
X113933868Y-134375625D01*
X113939286Y-134372702D01*
X113947988Y-134363289D01*
X113973207Y-134336006D01*
X113976637Y-134332439D01*
X114785835Y-133523241D01*
X114848147Y-133489215D01*
X114918962Y-133494280D01*
X114944932Y-133507571D01*
X114954018Y-133513642D01*
X114981452Y-133531974D01*
X114981455Y-133531975D01*
X114991769Y-133538867D01*
X115003938Y-133541288D01*
X115003939Y-133541288D01*
X115026603Y-133545796D01*
X115050252Y-133550500D01*
X115191100Y-133550500D01*
X115259221Y-133570502D01*
X115305714Y-133624158D01*
X115317100Y-133676500D01*
X115317100Y-134018917D01*
X115315023Y-134038430D01*
X115314809Y-134042968D01*
X115312618Y-134053146D01*
X115313842Y-134063487D01*
X115316227Y-134083642D01*
X115316540Y-134088950D01*
X115316672Y-134088939D01*
X115317100Y-134094117D01*
X115317100Y-134099318D01*
X115317954Y-134104447D01*
X115317954Y-134104450D01*
X115320012Y-134116814D01*
X115320849Y-134122693D01*
X115326426Y-134169817D01*
X115330112Y-134177493D01*
X115331510Y-134185891D01*
X115336455Y-134195055D01*
X115336455Y-134195056D01*
X115354047Y-134227660D01*
X115356735Y-134232933D01*
X115377283Y-134275725D01*
X115380623Y-134279699D01*
X115382561Y-134281637D01*
X115384043Y-134283253D01*
X115384292Y-134283715D01*
X115384263Y-134283741D01*
X115384375Y-134283868D01*
X115387298Y-134289286D01*
X115394946Y-134296356D01*
X115394947Y-134296357D01*
X115423994Y-134323207D01*
X115427561Y-134326637D01*
X116434599Y-135333675D01*
X116468625Y-135395987D01*
X116463560Y-135466802D01*
X116421013Y-135523638D01*
X116354493Y-135548449D01*
X116345602Y-135548770D01*
X114442818Y-135550244D01*
X113651053Y-135550858D01*
X113605804Y-135542490D01*
X113565366Y-135526967D01*
X113241335Y-135440143D01*
X113065297Y-135412261D01*
X112913250Y-135388179D01*
X112913242Y-135388178D01*
X112910002Y-135387665D01*
X112580181Y-135370380D01*
X112580224Y-135369566D01*
X112577827Y-135369834D01*
X112575718Y-135369345D01*
X112575000Y-135369344D01*
X112566225Y-135371346D01*
X112538210Y-135374500D01*
X108612080Y-135374500D01*
X108594759Y-135372534D01*
X108589190Y-135372524D01*
X108575359Y-135369344D01*
X108561517Y-135372477D01*
X108547329Y-135372452D01*
X108547330Y-135371703D01*
X108539390Y-135372346D01*
X108305433Y-135358194D01*
X108290329Y-135356360D01*
X108032192Y-135309055D01*
X108017419Y-135305414D01*
X108004349Y-135301341D01*
X107766855Y-135227335D01*
X107752637Y-135221943D01*
X107513319Y-135114234D01*
X107499848Y-135107164D01*
X107275259Y-134971395D01*
X107262737Y-134962752D01*
X107056143Y-134800896D01*
X107044755Y-134790806D01*
X106859194Y-134605245D01*
X106849104Y-134593857D01*
X106807741Y-134541061D01*
X106687247Y-134387262D01*
X106678605Y-134374741D01*
X106654094Y-134334194D01*
X106542835Y-134150151D01*
X106535765Y-134136679D01*
X106530608Y-134125221D01*
X106428057Y-133897363D01*
X106422663Y-133883140D01*
X106414204Y-133855992D01*
X106344586Y-133632581D01*
X106340945Y-133617808D01*
X106293640Y-133359671D01*
X106291806Y-133344567D01*
X106277692Y-133111242D01*
X106278288Y-133089226D01*
X106279042Y-133082677D01*
X106280655Y-133075718D01*
X106280656Y-133075000D01*
X106278654Y-133066225D01*
X106275500Y-133038210D01*
X106275500Y-132777736D01*
X107020070Y-132777736D01*
X107020698Y-132790807D01*
X107032909Y-133045041D01*
X107085118Y-133307512D01*
X107175549Y-133559383D01*
X107191717Y-133589474D01*
X107294729Y-133781188D01*
X107302215Y-133795121D01*
X107305010Y-133798864D01*
X107305012Y-133798867D01*
X107457253Y-134002742D01*
X107462335Y-134009547D01*
X107465642Y-134012825D01*
X107465647Y-134012831D01*
X107649074Y-134194663D01*
X107652390Y-134197950D01*
X107656156Y-134200712D01*
X107656158Y-134200713D01*
X107826346Y-134325500D01*
X107868205Y-134356192D01*
X107872340Y-134358368D01*
X107872344Y-134358370D01*
X107998791Y-134424897D01*
X108105039Y-134480797D01*
X108109458Y-134482340D01*
X108353273Y-134567484D01*
X108353279Y-134567486D01*
X108357690Y-134569026D01*
X108620606Y-134618943D01*
X108747616Y-134623933D01*
X108883345Y-134629266D01*
X108883350Y-134629266D01*
X108888013Y-134629449D01*
X108983943Y-134618943D01*
X109149382Y-134600825D01*
X109149387Y-134600824D01*
X109154035Y-134600315D01*
X109269567Y-134569898D01*
X109408309Y-134533370D01*
X109412829Y-134532180D01*
X109537501Y-134478617D01*
X109654407Y-134428391D01*
X109654410Y-134428389D01*
X109658710Y-134426542D01*
X109662690Y-134424079D01*
X109662694Y-134424077D01*
X109882302Y-134288179D01*
X109882306Y-134288176D01*
X109886275Y-134285720D01*
X109960293Y-134223059D01*
X110086960Y-134115828D01*
X110086961Y-134115827D01*
X110090526Y-134112809D01*
X110165679Y-134027114D01*
X110263894Y-133915122D01*
X110263898Y-133915117D01*
X110266976Y-133911607D01*
X110271187Y-133905061D01*
X110409219Y-133690465D01*
X110409222Y-133690460D01*
X110411747Y-133686534D01*
X110521661Y-133442534D01*
X110539908Y-133377836D01*
X110593032Y-133189473D01*
X110593033Y-133189470D01*
X110594302Y-133184969D01*
X110609408Y-133066231D01*
X110627677Y-132922625D01*
X110627677Y-132922621D01*
X110628075Y-132919495D01*
X110630549Y-132825000D01*
X110626406Y-132769247D01*
X110611064Y-132562788D01*
X110611063Y-132562784D01*
X110610717Y-132558123D01*
X110600161Y-132511470D01*
X110568379Y-132371018D01*
X110551655Y-132297109D01*
X110540345Y-132268026D01*
X110456355Y-132052044D01*
X110456354Y-132052042D01*
X110454662Y-132047691D01*
X110321868Y-131815350D01*
X110156190Y-131605189D01*
X109961269Y-131421825D01*
X109741385Y-131269286D01*
X109737194Y-131267219D01*
X109505559Y-131152989D01*
X109505556Y-131152988D01*
X109501371Y-131150924D01*
X109246497Y-131069338D01*
X109101134Y-131045665D01*
X108986976Y-131027073D01*
X108986975Y-131027073D01*
X108982364Y-131026322D01*
X108848569Y-131024571D01*
X108719451Y-131022880D01*
X108719448Y-131022880D01*
X108714774Y-131022819D01*
X108449605Y-131058907D01*
X108445118Y-131060215D01*
X108445117Y-131060215D01*
X108413817Y-131069338D01*
X108192683Y-131133792D01*
X108188430Y-131135752D01*
X108188429Y-131135753D01*
X108136512Y-131159687D01*
X107949652Y-131245831D01*
X107945743Y-131248394D01*
X107729764Y-131389996D01*
X107729759Y-131390000D01*
X107725851Y-131392562D01*
X107685128Y-131428909D01*
X107551151Y-131548488D01*
X107526197Y-131570760D01*
X107355075Y-131776512D01*
X107352652Y-131780505D01*
X107236311Y-131972229D01*
X107216244Y-132005298D01*
X107214437Y-132009606D01*
X107214437Y-132009607D01*
X107118834Y-132237595D01*
X107112755Y-132252091D01*
X107111604Y-132256623D01*
X107111603Y-132256626D01*
X107048033Y-132506933D01*
X107046881Y-132511470D01*
X107020070Y-132777736D01*
X106275500Y-132777736D01*
X106275500Y-130426500D01*
X106295502Y-130358379D01*
X106349158Y-130311886D01*
X106401500Y-130300500D01*
X108819348Y-130300500D01*
X108825416Y-130299293D01*
X108865661Y-130291288D01*
X108865662Y-130291288D01*
X108877831Y-130288867D01*
X108897540Y-130275698D01*
X108933839Y-130251443D01*
X108944152Y-130244552D01*
X108976071Y-130196782D01*
X108981574Y-130188547D01*
X108988467Y-130178231D01*
X109000100Y-130119748D01*
X109000100Y-129209252D01*
X109020102Y-129141131D01*
X109037005Y-129120157D01*
X110316188Y-127840974D01*
X110319997Y-127837321D01*
X110340980Y-127818026D01*
X110362878Y-127797890D01*
X110384267Y-127763393D01*
X110390992Y-127753609D01*
X110410338Y-127728121D01*
X110410339Y-127728119D01*
X110415531Y-127721279D01*
X110420494Y-127708744D01*
X110430559Y-127688732D01*
X110437666Y-127677270D01*
X110448991Y-127638289D01*
X110452836Y-127627060D01*
X110464614Y-127597311D01*
X110464614Y-127597310D01*
X110467777Y-127589322D01*
X110468676Y-127580774D01*
X110469188Y-127575908D01*
X110473498Y-127553936D01*
X110475420Y-127547320D01*
X110475420Y-127547318D01*
X110477261Y-127540982D01*
X110478000Y-127530918D01*
X110478000Y-127498662D01*
X110478690Y-127485491D01*
X110481714Y-127456718D01*
X110482612Y-127448176D01*
X110479764Y-127431336D01*
X110478000Y-127410324D01*
X110478000Y-107402455D01*
X110478111Y-107397178D01*
X110478589Y-107385779D01*
X110480550Y-107338994D01*
X110475962Y-107319432D01*
X110471279Y-107299466D01*
X110469116Y-107287794D01*
X110464774Y-107256097D01*
X110463609Y-107247590D01*
X110460201Y-107239714D01*
X110460198Y-107239704D01*
X110458256Y-107235217D01*
X110451224Y-107213956D01*
X110450105Y-107209187D01*
X110450104Y-107209184D01*
X110448142Y-107200820D01*
X110444004Y-107193293D01*
X110444002Y-107193288D01*
X110428586Y-107165247D01*
X110423363Y-107154588D01*
X110407244Y-107117339D01*
X110398758Y-107106860D01*
X110386265Y-107088268D01*
X110382951Y-107082241D01*
X110379769Y-107076452D01*
X110373176Y-107068813D01*
X110350364Y-107046001D01*
X110341539Y-107036200D01*
X110323337Y-107013722D01*
X110323336Y-107013721D01*
X110317929Y-107007044D01*
X110310927Y-107002068D01*
X110310925Y-107002066D01*
X110304011Y-106997153D01*
X110287905Y-106983542D01*
X109815258Y-106510895D01*
X109781232Y-106448583D01*
X109786297Y-106377768D01*
X109828844Y-106320932D01*
X109895364Y-106296121D01*
X109904353Y-106295800D01*
X122497960Y-106295800D01*
X122503237Y-106295911D01*
X122561406Y-106298349D01*
X122569770Y-106296387D01*
X122569773Y-106296387D01*
X122600920Y-106289082D01*
X122612588Y-106286919D01*
X122626617Y-106284997D01*
X122652810Y-106281409D01*
X122665181Y-106276055D01*
X122686450Y-106269021D01*
X122691215Y-106267903D01*
X122691216Y-106267903D01*
X122699580Y-106265941D01*
X122735150Y-106246386D01*
X122745808Y-106241165D01*
X122783061Y-106225044D01*
X122793539Y-106216559D01*
X122812131Y-106204066D01*
X122818155Y-106200754D01*
X122823949Y-106197569D01*
X122831587Y-106190975D01*
X122854389Y-106168173D01*
X122864190Y-106159347D01*
X122886682Y-106141134D01*
X122886684Y-106141132D01*
X122893356Y-106135729D01*
X122903252Y-106121804D01*
X122916863Y-106105699D01*
X125047658Y-103974905D01*
X125109970Y-103940879D01*
X125136753Y-103938000D01*
X125266664Y-103938000D01*
X125334785Y-103958002D01*
G37*
%TD.AperFunction*%
%TA.AperFunction,Conductor*%
G36*
X111872012Y-119557208D02*
G01*
X111878595Y-119563337D01*
X111983789Y-119668531D01*
X111991215Y-119676634D01*
X112015606Y-119705702D01*
X112025152Y-119711213D01*
X112025154Y-119711215D01*
X112048468Y-119724675D01*
X112057737Y-119730580D01*
X112088823Y-119752346D01*
X112099472Y-119755200D01*
X112102719Y-119756714D01*
X112106078Y-119757936D01*
X112115627Y-119763449D01*
X112145633Y-119768739D01*
X112153003Y-119770039D01*
X112163736Y-119772419D01*
X112189732Y-119779385D01*
X112189735Y-119779385D01*
X112200381Y-119782238D01*
X112238180Y-119778931D01*
X112249162Y-119778452D01*
X112983108Y-119778452D01*
X113051229Y-119798454D01*
X113072203Y-119815357D01*
X113935595Y-120678749D01*
X113969621Y-120741061D01*
X113972500Y-120767844D01*
X113972500Y-122130206D01*
X113972020Y-122141189D01*
X113968713Y-122178984D01*
X113973701Y-122197597D01*
X113978534Y-122215635D01*
X113980913Y-122226367D01*
X113987503Y-122263739D01*
X113993014Y-122273285D01*
X113994240Y-122276653D01*
X113995754Y-122279899D01*
X113998606Y-122290543D01*
X114020377Y-122321635D01*
X114026275Y-122330894D01*
X114045250Y-122363760D01*
X114053695Y-122370846D01*
X114074329Y-122388160D01*
X114082433Y-122395587D01*
X118737595Y-127050750D01*
X118771621Y-127113062D01*
X118774500Y-127139845D01*
X118774500Y-127631100D01*
X118754498Y-127699221D01*
X118700842Y-127745714D01*
X118648500Y-127757100D01*
X116821500Y-127757100D01*
X116753379Y-127737098D01*
X116706886Y-127683442D01*
X116695500Y-127631100D01*
X116695500Y-127616166D01*
X116692519Y-127584631D01*
X116647634Y-127456816D01*
X116642042Y-127449246D01*
X116642041Y-127449243D01*
X116572742Y-127355421D01*
X116567150Y-127347850D01*
X116506373Y-127302959D01*
X116465757Y-127272959D01*
X116465754Y-127272958D01*
X116458184Y-127267366D01*
X116330369Y-127222481D01*
X116322723Y-127221758D01*
X116322722Y-127221758D01*
X116316752Y-127221194D01*
X116298834Y-127219500D01*
X115241166Y-127219500D01*
X115223248Y-127221194D01*
X115217278Y-127221758D01*
X115217277Y-127221758D01*
X115209631Y-127222481D01*
X115081816Y-127267366D01*
X115074246Y-127272958D01*
X115074243Y-127272959D01*
X115033627Y-127302959D01*
X114972850Y-127347850D01*
X114967258Y-127355421D01*
X114897959Y-127449243D01*
X114897958Y-127449246D01*
X114892366Y-127456816D01*
X114847481Y-127584631D01*
X114844500Y-127616166D01*
X114844500Y-128223834D01*
X114847481Y-128255369D01*
X114892366Y-128383184D01*
X114897958Y-128390754D01*
X114897959Y-128390757D01*
X114944357Y-128453574D01*
X114972850Y-128492150D01*
X114980421Y-128497742D01*
X115074243Y-128567041D01*
X115074246Y-128567042D01*
X115081816Y-128572634D01*
X115209631Y-128617519D01*
X115217277Y-128618242D01*
X115217278Y-128618242D01*
X115223248Y-128618806D01*
X115241166Y-128620500D01*
X116298834Y-128620500D01*
X116316752Y-128618806D01*
X116322722Y-128618242D01*
X116322723Y-128618242D01*
X116330369Y-128617519D01*
X116458184Y-128572634D01*
X116465754Y-128567042D01*
X116465757Y-128567041D01*
X116567150Y-128492150D01*
X116568410Y-128493856D01*
X116619828Y-128465779D01*
X116646611Y-128462900D01*
X119888917Y-128462900D01*
X119908430Y-128464977D01*
X119912968Y-128465191D01*
X119923146Y-128467382D01*
X119943467Y-128464977D01*
X119953642Y-128463773D01*
X119958950Y-128463460D01*
X119958939Y-128463328D01*
X119964117Y-128462900D01*
X119969318Y-128462900D01*
X119974447Y-128462046D01*
X119974450Y-128462046D01*
X119986814Y-128459988D01*
X119992693Y-128459151D01*
X119995759Y-128458788D01*
X120039817Y-128453574D01*
X120046350Y-128450437D01*
X120052212Y-128449102D01*
X120053095Y-128448955D01*
X120055905Y-128448488D01*
X120056419Y-128451581D01*
X120110311Y-128449194D01*
X120169292Y-128482447D01*
X120485195Y-128798350D01*
X120519221Y-128860662D01*
X120522100Y-128887445D01*
X120522100Y-132148500D01*
X120502098Y-132216621D01*
X120448442Y-132263114D01*
X120396100Y-132274500D01*
X120105252Y-132274500D01*
X120099184Y-132275707D01*
X120058939Y-132283712D01*
X120058938Y-132283712D01*
X120046769Y-132286133D01*
X120036453Y-132293026D01*
X120028175Y-132298557D01*
X119980448Y-132330448D01*
X119936133Y-132396769D01*
X119924500Y-132455252D01*
X119924500Y-134494748D01*
X119925707Y-134500816D01*
X119931579Y-134530334D01*
X119936133Y-134553231D01*
X119980448Y-134619552D01*
X120046769Y-134663867D01*
X120058938Y-134666288D01*
X120058939Y-134666288D01*
X120099184Y-134674293D01*
X120105252Y-134675500D01*
X121644748Y-134675500D01*
X121650816Y-134674293D01*
X121691061Y-134666288D01*
X121691062Y-134666288D01*
X121703231Y-134663867D01*
X121769552Y-134619552D01*
X121813867Y-134553231D01*
X121818422Y-134530334D01*
X121824293Y-134500816D01*
X121825500Y-134494748D01*
X121825500Y-132666229D01*
X124898089Y-132666229D01*
X124899167Y-132674417D01*
X124911652Y-132769247D01*
X124918727Y-132822991D01*
X124979235Y-132969070D01*
X125075489Y-133094511D01*
X125200930Y-133190765D01*
X125328263Y-133243508D01*
X125339636Y-133248219D01*
X125380513Y-133275533D01*
X125886168Y-133781188D01*
X125889821Y-133784997D01*
X125929252Y-133827878D01*
X125963749Y-133849267D01*
X125973533Y-133855992D01*
X125999021Y-133875338D01*
X125999023Y-133875339D01*
X126005863Y-133880531D01*
X126017907Y-133885300D01*
X126018398Y-133885494D01*
X126038408Y-133895558D01*
X126049872Y-133902666D01*
X126087600Y-133913627D01*
X126088853Y-133913991D01*
X126100082Y-133917836D01*
X126129831Y-133929614D01*
X126137820Y-133932777D01*
X126146365Y-133933675D01*
X126146368Y-133933676D01*
X126151234Y-133934188D01*
X126173206Y-133938498D01*
X126179822Y-133940420D01*
X126179824Y-133940420D01*
X126186160Y-133942261D01*
X126196224Y-133943000D01*
X126228480Y-133943000D01*
X126241651Y-133943690D01*
X126278966Y-133947612D01*
X126287432Y-133946180D01*
X126287435Y-133946180D01*
X126295806Y-133944764D01*
X126316818Y-133943000D01*
X126549277Y-133943000D01*
X126617398Y-133963002D01*
X126639653Y-133983858D01*
X126640596Y-133982915D01*
X126647253Y-133989572D01*
X126652850Y-133997150D01*
X126660425Y-134002745D01*
X126660426Y-134002746D01*
X126754243Y-134072041D01*
X126754246Y-134072042D01*
X126761816Y-134077634D01*
X126889631Y-134122519D01*
X126897277Y-134123242D01*
X126897278Y-134123242D01*
X126903248Y-134123806D01*
X126921166Y-134125500D01*
X127978834Y-134125500D01*
X127996752Y-134123806D01*
X128002722Y-134123242D01*
X128002723Y-134123242D01*
X128010369Y-134122519D01*
X128138184Y-134077634D01*
X128145754Y-134072042D01*
X128145757Y-134072041D01*
X128239579Y-134002742D01*
X128247150Y-133997150D01*
X128327634Y-133888184D01*
X128330754Y-133879300D01*
X128330756Y-133879296D01*
X128336776Y-133862152D01*
X128378219Y-133804506D01*
X128444249Y-133778418D01*
X128455659Y-133777900D01*
X128823500Y-133777900D01*
X128891621Y-133797902D01*
X128938114Y-133851558D01*
X128949500Y-133903900D01*
X128949500Y-134144748D01*
X128950707Y-134150816D01*
X128956564Y-134180259D01*
X128961133Y-134203231D01*
X129005448Y-134269552D01*
X129071769Y-134313867D01*
X129083938Y-134316288D01*
X129083939Y-134316288D01*
X129118724Y-134323207D01*
X129130252Y-134325500D01*
X130669748Y-134325500D01*
X130681276Y-134323207D01*
X130716061Y-134316288D01*
X130716062Y-134316288D01*
X130728231Y-134313867D01*
X130794552Y-134269552D01*
X130838867Y-134203231D01*
X130843437Y-134180259D01*
X130849293Y-134150816D01*
X130850500Y-134144748D01*
X130850500Y-132105252D01*
X130838867Y-132046769D01*
X130794552Y-131980448D01*
X130728231Y-131936133D01*
X130716062Y-131933712D01*
X130716061Y-131933712D01*
X130675816Y-131925707D01*
X130669748Y-131924500D01*
X129130252Y-131924500D01*
X129124184Y-131925707D01*
X129083939Y-131933712D01*
X129083938Y-131933712D01*
X129071769Y-131936133D01*
X129005448Y-131980448D01*
X128961133Y-132046769D01*
X128949500Y-132105252D01*
X128949500Y-132946100D01*
X128929498Y-133014221D01*
X128875842Y-133060714D01*
X128823500Y-133072100D01*
X128455659Y-133072100D01*
X128387538Y-133052098D01*
X128341045Y-132998442D01*
X128336776Y-132987848D01*
X128330756Y-132970704D01*
X128330754Y-132970700D01*
X128327634Y-132961816D01*
X128247150Y-132852850D01*
X128213723Y-132828160D01*
X128145757Y-132777959D01*
X128145754Y-132777958D01*
X128138184Y-132772366D01*
X128010369Y-132727481D01*
X128002723Y-132726758D01*
X128002722Y-132726758D01*
X127996752Y-132726194D01*
X127978834Y-132724500D01*
X126921166Y-132724500D01*
X126903248Y-132726194D01*
X126897278Y-132726758D01*
X126897277Y-132726758D01*
X126889631Y-132727481D01*
X126761816Y-132772366D01*
X126754246Y-132777958D01*
X126754243Y-132777959D01*
X126660426Y-132847254D01*
X126652850Y-132852850D01*
X126647253Y-132860428D01*
X126640596Y-132867085D01*
X126638539Y-132865028D01*
X126594079Y-132898766D01*
X126549277Y-132907000D01*
X126529296Y-132907000D01*
X126461175Y-132886998D01*
X126440201Y-132870096D01*
X126113074Y-132542970D01*
X126085760Y-132502092D01*
X126063132Y-132447464D01*
X126028307Y-132363388D01*
X125932053Y-132237947D01*
X125806612Y-132141693D01*
X125660533Y-132081185D01*
X125503771Y-132060547D01*
X125347009Y-132081185D01*
X125200930Y-132141693D01*
X125075489Y-132237947D01*
X124979235Y-132363388D01*
X124918727Y-132509467D01*
X124898089Y-132666229D01*
X121825500Y-132666229D01*
X121825500Y-132455252D01*
X121813867Y-132396769D01*
X121769552Y-132330448D01*
X121721825Y-132298557D01*
X121713547Y-132293026D01*
X121703231Y-132286133D01*
X121691062Y-132283712D01*
X121691061Y-132283712D01*
X121650816Y-132275707D01*
X121644748Y-132274500D01*
X121353900Y-132274500D01*
X121285779Y-132254498D01*
X121239286Y-132200842D01*
X121227900Y-132148500D01*
X121227900Y-128501500D01*
X121247902Y-128433379D01*
X121301558Y-128386886D01*
X121353900Y-128375500D01*
X122794748Y-128375500D01*
X122802254Y-128374007D01*
X122841061Y-128366288D01*
X122841062Y-128366288D01*
X122853231Y-128363867D01*
X122919552Y-128319552D01*
X122963867Y-128253231D01*
X122966381Y-128240595D01*
X122974293Y-128200816D01*
X122975500Y-128194748D01*
X122975500Y-126474543D01*
X122995502Y-126406422D01*
X123049158Y-126359929D01*
X123119432Y-126349825D01*
X123184012Y-126379319D01*
X123217909Y-126426324D01*
X123230817Y-126457488D01*
X123327071Y-126582929D01*
X123452512Y-126679183D01*
X123598591Y-126739691D01*
X123755353Y-126760329D01*
X123763541Y-126759251D01*
X123770401Y-126759251D01*
X123838522Y-126779253D01*
X123859496Y-126796156D01*
X126166755Y-129103415D01*
X126179088Y-129118684D01*
X126182140Y-129122038D01*
X126187791Y-129130790D01*
X126211915Y-129149808D01*
X126215882Y-129153334D01*
X126215968Y-129153233D01*
X126219931Y-129156591D01*
X126223609Y-129160269D01*
X126238043Y-129170584D01*
X126242773Y-129174135D01*
X126280054Y-129203525D01*
X126288089Y-129206347D01*
X126295015Y-129211296D01*
X126304986Y-129214278D01*
X126304990Y-129214280D01*
X126340492Y-129224897D01*
X126346108Y-129226721D01*
X126390903Y-129242452D01*
X126396075Y-129242900D01*
X126398779Y-129242900D01*
X126401011Y-129242996D01*
X126401511Y-129243146D01*
X126401509Y-129243184D01*
X126401673Y-129243194D01*
X126407574Y-129244959D01*
X126457505Y-129242997D01*
X126462451Y-129242900D01*
X126502044Y-129242900D01*
X126570165Y-129262902D01*
X126616658Y-129316558D01*
X126626762Y-129386832D01*
X126614820Y-129423494D01*
X126612366Y-129426816D01*
X126609245Y-129435702D01*
X126609245Y-129435703D01*
X126602427Y-129455118D01*
X126567481Y-129554631D01*
X126564500Y-129586166D01*
X126564500Y-130193834D01*
X126567481Y-130225369D01*
X126612366Y-130353184D01*
X126617958Y-130360754D01*
X126617959Y-130360757D01*
X126658167Y-130415193D01*
X126692850Y-130462150D01*
X126700421Y-130467742D01*
X126794243Y-130537041D01*
X126794246Y-130537042D01*
X126801816Y-130542634D01*
X126929631Y-130587519D01*
X126937277Y-130588242D01*
X126937278Y-130588242D01*
X126943248Y-130588806D01*
X126961166Y-130590500D01*
X128018834Y-130590500D01*
X128036752Y-130588806D01*
X128042722Y-130588242D01*
X128042723Y-130588242D01*
X128050369Y-130587519D01*
X128178184Y-130542634D01*
X128185754Y-130537042D01*
X128185757Y-130537041D01*
X128279574Y-130467746D01*
X128279575Y-130467745D01*
X128287150Y-130462150D01*
X128292747Y-130454572D01*
X128299404Y-130447915D01*
X128301461Y-130449972D01*
X128345921Y-130416234D01*
X128390723Y-130408000D01*
X129120760Y-130408000D01*
X129126037Y-130408111D01*
X129184206Y-130410549D01*
X129192570Y-130408587D01*
X129192573Y-130408587D01*
X129223720Y-130401282D01*
X129235388Y-130399119D01*
X129243420Y-130398019D01*
X129275610Y-130393609D01*
X129287981Y-130388255D01*
X129309250Y-130381221D01*
X129314015Y-130380103D01*
X129314016Y-130380103D01*
X129322380Y-130378141D01*
X129357950Y-130358586D01*
X129368608Y-130353365D01*
X129369026Y-130353184D01*
X129405861Y-130337244D01*
X129416339Y-130328759D01*
X129434931Y-130316266D01*
X129440955Y-130312954D01*
X129446749Y-130309769D01*
X129454387Y-130303175D01*
X129477189Y-130280373D01*
X129486990Y-130271547D01*
X129509482Y-130253334D01*
X129509484Y-130253332D01*
X129516156Y-130247929D01*
X129526052Y-130234004D01*
X129539663Y-130217899D01*
X131466905Y-128290658D01*
X131529217Y-128256632D01*
X131600033Y-128261697D01*
X131656868Y-128304244D01*
X131681679Y-128370764D01*
X131682000Y-128379753D01*
X131682000Y-131798500D01*
X131661998Y-131866621D01*
X131608342Y-131913114D01*
X131556000Y-131924500D01*
X131430252Y-131924500D01*
X131424184Y-131925707D01*
X131383939Y-131933712D01*
X131383938Y-131933712D01*
X131371769Y-131936133D01*
X131305448Y-131980448D01*
X131261133Y-132046769D01*
X131249500Y-132105252D01*
X131249500Y-134144748D01*
X131250707Y-134150816D01*
X131256564Y-134180259D01*
X131261133Y-134203231D01*
X131305448Y-134269552D01*
X131371769Y-134313867D01*
X131383938Y-134316288D01*
X131383939Y-134316288D01*
X131418724Y-134323207D01*
X131430252Y-134325500D01*
X132969748Y-134325500D01*
X132981276Y-134323207D01*
X133016061Y-134316288D01*
X133016062Y-134316288D01*
X133028231Y-134313867D01*
X133094552Y-134269552D01*
X133138867Y-134203231D01*
X133143437Y-134180259D01*
X133149293Y-134150816D01*
X133150500Y-134144748D01*
X133150500Y-132777736D01*
X137520070Y-132777736D01*
X137520698Y-132790807D01*
X137532909Y-133045041D01*
X137585118Y-133307512D01*
X137675549Y-133559383D01*
X137691717Y-133589474D01*
X137794729Y-133781188D01*
X137802215Y-133795121D01*
X137805010Y-133798864D01*
X137805012Y-133798867D01*
X137957253Y-134002742D01*
X137962335Y-134009547D01*
X137965642Y-134012825D01*
X137965647Y-134012831D01*
X138149074Y-134194663D01*
X138152390Y-134197950D01*
X138156156Y-134200712D01*
X138156158Y-134200713D01*
X138326346Y-134325500D01*
X138368205Y-134356192D01*
X138372340Y-134358368D01*
X138372344Y-134358370D01*
X138498791Y-134424897D01*
X138605039Y-134480797D01*
X138609458Y-134482340D01*
X138853273Y-134567484D01*
X138853279Y-134567486D01*
X138857690Y-134569026D01*
X139120606Y-134618943D01*
X139247616Y-134623933D01*
X139383345Y-134629266D01*
X139383350Y-134629266D01*
X139388013Y-134629449D01*
X139483943Y-134618943D01*
X139649382Y-134600825D01*
X139649387Y-134600824D01*
X139654035Y-134600315D01*
X139769567Y-134569898D01*
X139908309Y-134533370D01*
X139912829Y-134532180D01*
X140037501Y-134478617D01*
X140154407Y-134428391D01*
X140154410Y-134428389D01*
X140158710Y-134426542D01*
X140162690Y-134424079D01*
X140162694Y-134424077D01*
X140382302Y-134288179D01*
X140382306Y-134288176D01*
X140386275Y-134285720D01*
X140460293Y-134223059D01*
X140586960Y-134115828D01*
X140586961Y-134115827D01*
X140590526Y-134112809D01*
X140665679Y-134027114D01*
X140763894Y-133915122D01*
X140763898Y-133915117D01*
X140766976Y-133911607D01*
X140771187Y-133905061D01*
X140909219Y-133690465D01*
X140909222Y-133690460D01*
X140911747Y-133686534D01*
X141021661Y-133442534D01*
X141039908Y-133377836D01*
X141093032Y-133189473D01*
X141093033Y-133189470D01*
X141094302Y-133184969D01*
X141109408Y-133066231D01*
X141127677Y-132922625D01*
X141127677Y-132922621D01*
X141128075Y-132919495D01*
X141130549Y-132825000D01*
X141126406Y-132769247D01*
X141111064Y-132562788D01*
X141111063Y-132562784D01*
X141110717Y-132558123D01*
X141100161Y-132511470D01*
X141068379Y-132371018D01*
X141051655Y-132297109D01*
X141040345Y-132268026D01*
X140956355Y-132052044D01*
X140956354Y-132052042D01*
X140954662Y-132047691D01*
X140821868Y-131815350D01*
X140656190Y-131605189D01*
X140461269Y-131421825D01*
X140241385Y-131269286D01*
X140237194Y-131267219D01*
X140005559Y-131152989D01*
X140005556Y-131152988D01*
X140001371Y-131150924D01*
X139746497Y-131069338D01*
X139601134Y-131045665D01*
X139486976Y-131027073D01*
X139486975Y-131027073D01*
X139482364Y-131026322D01*
X139348569Y-131024571D01*
X139219451Y-131022880D01*
X139219448Y-131022880D01*
X139214774Y-131022819D01*
X138949605Y-131058907D01*
X138945118Y-131060215D01*
X138945117Y-131060215D01*
X138913817Y-131069338D01*
X138692683Y-131133792D01*
X138688430Y-131135752D01*
X138688429Y-131135753D01*
X138636512Y-131159687D01*
X138449652Y-131245831D01*
X138445743Y-131248394D01*
X138229764Y-131389996D01*
X138229759Y-131390000D01*
X138225851Y-131392562D01*
X138185128Y-131428909D01*
X138051151Y-131548488D01*
X138026197Y-131570760D01*
X137855075Y-131776512D01*
X137852652Y-131780505D01*
X137736311Y-131972229D01*
X137716244Y-132005298D01*
X137714437Y-132009606D01*
X137714437Y-132009607D01*
X137618834Y-132237595D01*
X137612755Y-132252091D01*
X137611604Y-132256623D01*
X137611603Y-132256626D01*
X137548033Y-132506933D01*
X137546881Y-132511470D01*
X137520070Y-132777736D01*
X133150500Y-132777736D01*
X133150500Y-132105252D01*
X133138867Y-132046769D01*
X133094552Y-131980448D01*
X133028231Y-131936133D01*
X133016062Y-131933712D01*
X133016061Y-131933712D01*
X132975816Y-131925707D01*
X132969748Y-131924500D01*
X132844000Y-131924500D01*
X132775879Y-131904498D01*
X132729386Y-131850842D01*
X132718000Y-131798500D01*
X132718000Y-128151500D01*
X132738002Y-128083379D01*
X132791658Y-128036886D01*
X132844000Y-128025500D01*
X133877154Y-128025500D01*
X133945275Y-128045502D01*
X133991768Y-128099158D01*
X134001872Y-128169432D01*
X133972378Y-128234012D01*
X133966250Y-128240595D01*
X133667426Y-128539420D01*
X133659322Y-128546846D01*
X133630249Y-128571241D01*
X133624736Y-128580790D01*
X133611274Y-128604107D01*
X133605376Y-128613366D01*
X133583605Y-128644458D01*
X133580753Y-128655102D01*
X133579239Y-128658348D01*
X133578013Y-128661716D01*
X133572502Y-128671262D01*
X133566322Y-128706311D01*
X133565912Y-128708634D01*
X133563535Y-128719357D01*
X133553712Y-128756017D01*
X133554673Y-128767000D01*
X133557019Y-128793812D01*
X133557499Y-128804795D01*
X133557499Y-129707250D01*
X133537497Y-129775371D01*
X133508203Y-129807212D01*
X133463270Y-129841690D01*
X133463267Y-129841693D01*
X133456717Y-129846719D01*
X133451691Y-129853269D01*
X133451690Y-129853270D01*
X133437945Y-129871183D01*
X133360463Y-129972160D01*
X133299955Y-130118239D01*
X133279317Y-130275001D01*
X133281240Y-130289609D01*
X133297774Y-130415193D01*
X133299955Y-130431763D01*
X133360463Y-130577842D01*
X133456717Y-130703283D01*
X133582158Y-130799537D01*
X133728237Y-130860045D01*
X133884999Y-130880683D01*
X133893187Y-130879605D01*
X134033573Y-130861123D01*
X134041761Y-130860045D01*
X134187840Y-130799537D01*
X134313281Y-130703283D01*
X134409535Y-130577842D01*
X134470043Y-130431763D01*
X134472225Y-130415193D01*
X134488758Y-130289609D01*
X134490681Y-130275001D01*
X134470043Y-130118239D01*
X134409535Y-129972160D01*
X134332053Y-129871183D01*
X134318308Y-129853270D01*
X134318307Y-129853269D01*
X134313281Y-129846719D01*
X134306731Y-129841693D01*
X134306728Y-129841690D01*
X134261795Y-129807212D01*
X134219928Y-129749874D01*
X134212499Y-129707250D01*
X134212499Y-128972846D01*
X134232501Y-128904725D01*
X134249404Y-128883750D01*
X134780118Y-128353037D01*
X134842430Y-128319012D01*
X134885657Y-128317211D01*
X134950000Y-128325682D01*
X134958188Y-128324604D01*
X135098574Y-128306122D01*
X135106762Y-128305044D01*
X135252841Y-128244536D01*
X135378282Y-128148282D01*
X135474536Y-128022841D01*
X135535044Y-127876762D01*
X135555682Y-127720000D01*
X135535044Y-127563238D01*
X135474536Y-127417159D01*
X135393564Y-127311634D01*
X135383305Y-127298264D01*
X135378282Y-127291718D01*
X135252841Y-127195464D01*
X135106762Y-127134956D01*
X135045905Y-127126944D01*
X134958188Y-127115396D01*
X134950000Y-127114318D01*
X134941812Y-127115396D01*
X134854096Y-127126944D01*
X134793238Y-127134956D01*
X134647159Y-127195464D01*
X134521718Y-127291718D01*
X134516695Y-127298264D01*
X134515595Y-127299364D01*
X134453283Y-127333390D01*
X134382468Y-127328325D01*
X134325632Y-127285778D01*
X134300821Y-127219258D01*
X134300500Y-127210269D01*
X134300500Y-125805252D01*
X134295556Y-125780396D01*
X134291288Y-125758939D01*
X134291288Y-125758938D01*
X134288867Y-125746769D01*
X134244552Y-125680448D01*
X134234239Y-125673557D01*
X134234236Y-125673554D01*
X134183898Y-125639918D01*
X134138371Y-125585441D01*
X134128591Y-125521982D01*
X134129187Y-125516312D01*
X134133498Y-125494336D01*
X134135420Y-125487720D01*
X134135420Y-125487718D01*
X134137261Y-125481382D01*
X134138000Y-125471318D01*
X134138000Y-125439062D01*
X134138690Y-125425891D01*
X134141714Y-125397118D01*
X134142612Y-125388576D01*
X134139764Y-125371736D01*
X134138000Y-125350724D01*
X134138000Y-122837161D01*
X134158002Y-122769040D01*
X134211658Y-122722547D01*
X134281932Y-122712443D01*
X134346512Y-122741937D01*
X134353095Y-122748066D01*
X134463140Y-122858111D01*
X134497166Y-122920423D01*
X134498967Y-122963652D01*
X134486054Y-123061736D01*
X134487132Y-123069924D01*
X134503536Y-123194522D01*
X134506692Y-123218498D01*
X134567200Y-123364577D01*
X134619730Y-123433035D01*
X134658262Y-123483251D01*
X134663454Y-123490018D01*
X134788895Y-123586272D01*
X134826179Y-123601715D01*
X134830103Y-123603341D01*
X134885384Y-123647890D01*
X134907805Y-123715253D01*
X134890247Y-123784044D01*
X134858589Y-123819713D01*
X134759868Y-123895464D01*
X134751718Y-123901718D01*
X134655464Y-124027159D01*
X134594956Y-124173238D01*
X134574318Y-124330000D01*
X134575750Y-124340875D01*
X134592473Y-124467898D01*
X134594956Y-124486762D01*
X134655464Y-124632841D01*
X134751718Y-124758282D01*
X134877159Y-124854536D01*
X135023238Y-124915044D01*
X135031426Y-124916122D01*
X135089519Y-124923770D01*
X135180000Y-124935682D01*
X135260410Y-124925096D01*
X135330559Y-124936035D01*
X135365951Y-124960923D01*
X137530484Y-127125456D01*
X137532238Y-127127487D01*
X137534575Y-127132269D01*
X137543104Y-127140181D01*
X137543105Y-127140182D01*
X137570463Y-127165560D01*
X137573868Y-127168840D01*
X137587276Y-127182248D01*
X137591255Y-127184978D01*
X137593884Y-127187286D01*
X137616646Y-127208401D01*
X137627453Y-127212712D01*
X137631448Y-127215238D01*
X137642242Y-127221001D01*
X137646554Y-127222912D01*
X137656146Y-127229492D01*
X137667463Y-127232178D01*
X137667464Y-127232178D01*
X137680127Y-127235183D01*
X137697724Y-127240748D01*
X137712362Y-127246588D01*
X137712365Y-127246589D01*
X137720622Y-127249883D01*
X137726915Y-127250500D01*
X137729994Y-127250500D01*
X137733067Y-127250650D01*
X137733056Y-127250866D01*
X137744431Y-127252198D01*
X137753746Y-127252654D01*
X137765066Y-127255340D01*
X137776595Y-127253771D01*
X137776596Y-127253771D01*
X137792173Y-127251651D01*
X137809164Y-127250500D01*
X138071531Y-127250500D01*
X138139652Y-127270502D01*
X138171493Y-127299795D01*
X138231718Y-127378282D01*
X138357159Y-127474536D01*
X138503238Y-127535044D01*
X138660000Y-127555682D01*
X138668188Y-127554604D01*
X138808574Y-127536122D01*
X138816762Y-127535044D01*
X138962841Y-127474536D01*
X139088282Y-127378282D01*
X139184536Y-127252841D01*
X139245044Y-127106762D01*
X139247560Y-127087655D01*
X139264604Y-126958188D01*
X139265682Y-126950000D01*
X139245044Y-126793238D01*
X139184536Y-126647159D01*
X139104769Y-126543204D01*
X139079169Y-126476983D01*
X139093434Y-126407435D01*
X139143035Y-126356639D01*
X139204732Y-126340500D01*
X139588339Y-126340500D01*
X139656460Y-126360502D01*
X139677434Y-126377405D01*
X139702595Y-126402566D01*
X139736621Y-126464878D01*
X139739500Y-126491661D01*
X139739500Y-127504748D01*
X139740707Y-127510816D01*
X139745165Y-127533226D01*
X139751133Y-127563231D01*
X139758025Y-127573546D01*
X139758027Y-127573550D01*
X139778038Y-127603498D01*
X139799253Y-127671251D01*
X139780470Y-127739718D01*
X139727653Y-127787161D01*
X139673273Y-127799500D01*
X139330252Y-127799500D01*
X139324184Y-127800707D01*
X139283939Y-127808712D01*
X139283938Y-127808712D01*
X139271769Y-127811133D01*
X139205448Y-127855448D01*
X139161133Y-127921769D01*
X139149500Y-127980252D01*
X139149500Y-130119748D01*
X139161133Y-130178231D01*
X139168026Y-130188547D01*
X139173529Y-130196782D01*
X139205448Y-130244552D01*
X139215761Y-130251443D01*
X139252061Y-130275698D01*
X139271769Y-130288867D01*
X139283938Y-130291288D01*
X139283939Y-130291288D01*
X139324184Y-130299293D01*
X139330252Y-130300500D01*
X141748500Y-130300500D01*
X141816621Y-130320502D01*
X141863114Y-130374158D01*
X141874500Y-130426500D01*
X141874500Y-133037920D01*
X141872534Y-133055241D01*
X141872524Y-133060810D01*
X141869344Y-133074641D01*
X141872477Y-133088483D01*
X141872452Y-133102671D01*
X141871703Y-133102670D01*
X141872346Y-133110610D01*
X141858194Y-133344567D01*
X141856360Y-133359671D01*
X141809055Y-133617808D01*
X141805414Y-133632581D01*
X141735797Y-133855992D01*
X141727337Y-133883140D01*
X141721943Y-133897363D01*
X141619392Y-134125221D01*
X141614235Y-134136679D01*
X141607165Y-134150151D01*
X141495907Y-134334194D01*
X141471395Y-134374741D01*
X141462753Y-134387262D01*
X141342259Y-134541061D01*
X141300896Y-134593857D01*
X141290806Y-134605245D01*
X141105245Y-134790806D01*
X141093857Y-134800896D01*
X140887263Y-134962752D01*
X140874741Y-134971395D01*
X140650152Y-135107164D01*
X140636681Y-135114234D01*
X140397363Y-135221943D01*
X140383145Y-135227335D01*
X140145651Y-135301341D01*
X140132581Y-135305414D01*
X140117808Y-135309055D01*
X139859671Y-135356360D01*
X139844567Y-135358194D01*
X139761817Y-135363200D01*
X139611053Y-135372319D01*
X139603232Y-135372549D01*
X139589189Y-135372524D01*
X139575359Y-135369344D01*
X139561520Y-135372476D01*
X139556689Y-135372467D01*
X139538496Y-135374500D01*
X135612371Y-135374500D01*
X135583918Y-135371245D01*
X135582676Y-135370957D01*
X135582669Y-135370956D01*
X135575718Y-135369345D01*
X135575000Y-135369344D01*
X135572873Y-135369829D01*
X135570612Y-135369569D01*
X135570652Y-135370336D01*
X135239998Y-135387665D01*
X135236758Y-135388178D01*
X135236750Y-135388179D01*
X135084703Y-135412261D01*
X134908665Y-135440143D01*
X134757121Y-135480749D01*
X134587819Y-135526113D01*
X134587809Y-135526116D01*
X134584634Y-135526967D01*
X134581556Y-135528149D01*
X134580450Y-135528508D01*
X134541611Y-135534675D01*
X133566520Y-135535430D01*
X131744248Y-135536842D01*
X117699084Y-135547722D01*
X117630950Y-135527774D01*
X117609894Y-135510818D01*
X116059805Y-133960729D01*
X116025779Y-133898417D01*
X116022900Y-133871634D01*
X116022900Y-133676500D01*
X116042902Y-133608379D01*
X116096558Y-133561886D01*
X116148900Y-133550500D01*
X116289748Y-133550500D01*
X116313397Y-133545796D01*
X116336061Y-133541288D01*
X116336062Y-133541288D01*
X116348231Y-133538867D01*
X116414552Y-133494552D01*
X116458867Y-133428231D01*
X116470500Y-133369748D01*
X116470500Y-132430252D01*
X116458867Y-132371769D01*
X116414552Y-132305448D01*
X116348231Y-132261133D01*
X116336062Y-132258712D01*
X116336061Y-132258712D01*
X116295816Y-132250707D01*
X116289748Y-132249500D01*
X115050252Y-132249500D01*
X115044184Y-132250707D01*
X115003939Y-132258712D01*
X115003938Y-132258712D01*
X114991769Y-132261133D01*
X114925448Y-132305448D01*
X114881133Y-132371769D01*
X114869500Y-132430252D01*
X114869500Y-132447464D01*
X114849498Y-132515585D01*
X114797065Y-132561018D01*
X114794109Y-132561510D01*
X114785195Y-132566319D01*
X114785194Y-132566320D01*
X114752340Y-132584047D01*
X114747067Y-132586735D01*
X114704275Y-132607283D01*
X114700301Y-132610623D01*
X114698363Y-132612561D01*
X114696747Y-132614043D01*
X114696285Y-132614292D01*
X114696259Y-132614263D01*
X114696132Y-132614375D01*
X114690714Y-132617298D01*
X114683644Y-132624946D01*
X114683643Y-132624947D01*
X114656793Y-132653994D01*
X114653363Y-132657561D01*
X113610729Y-133700195D01*
X113548417Y-133734221D01*
X113521634Y-133737100D01*
X112963371Y-133737100D01*
X112895250Y-133717098D01*
X112848757Y-133663442D01*
X112838653Y-133593168D01*
X112868147Y-133528588D01*
X112907840Y-133497997D01*
X112947507Y-133478522D01*
X112947509Y-133478521D01*
X112956855Y-133473932D01*
X113039293Y-133391350D01*
X113090536Y-133286518D01*
X113100500Y-133218218D01*
X113100500Y-131976782D01*
X113092804Y-131924500D01*
X113091784Y-131917574D01*
X113091784Y-131917573D01*
X113090358Y-131907888D01*
X113046917Y-131819408D01*
X113043522Y-131812493D01*
X113043521Y-131812491D01*
X113038932Y-131803145D01*
X112989882Y-131754181D01*
X112955803Y-131691899D01*
X112952900Y-131665008D01*
X112952900Y-131662779D01*
X112972902Y-131594658D01*
X113026558Y-131548165D01*
X113096832Y-131538061D01*
X113161412Y-131567555D01*
X113167917Y-131573606D01*
X113186276Y-131591933D01*
X113186280Y-131591936D01*
X113193650Y-131599293D01*
X113298482Y-131650536D01*
X113328973Y-131654984D01*
X113362256Y-131659840D01*
X113362260Y-131659840D01*
X113366782Y-131660500D01*
X113733218Y-131660500D01*
X113737768Y-131659830D01*
X113737771Y-131659830D01*
X113792426Y-131651784D01*
X113792427Y-131651784D01*
X113802112Y-131650358D01*
X113852008Y-131625860D01*
X113897507Y-131603522D01*
X113897509Y-131603521D01*
X113906855Y-131598932D01*
X113957211Y-131548488D01*
X113981935Y-131523721D01*
X113981935Y-131523720D01*
X113989293Y-131516350D01*
X114040536Y-131411518D01*
X114050500Y-131343218D01*
X114050500Y-130773266D01*
X114070502Y-130705145D01*
X114087405Y-130684171D01*
X114679999Y-130091577D01*
X114742311Y-130057551D01*
X114813126Y-130062616D01*
X114869962Y-130105163D01*
X114880078Y-130122928D01*
X114881133Y-130128231D01*
X114925448Y-130194552D01*
X114991769Y-130238867D01*
X115003938Y-130241288D01*
X115003939Y-130241288D01*
X115020349Y-130244552D01*
X115050252Y-130250500D01*
X115769234Y-130250500D01*
X115837355Y-130270502D01*
X115858329Y-130287405D01*
X117704319Y-132133395D01*
X117738345Y-132195707D01*
X117733280Y-132266522D01*
X117697059Y-132312297D01*
X117699540Y-132314778D01*
X117690761Y-132323557D01*
X117680448Y-132330448D01*
X117636133Y-132396769D01*
X117624500Y-132455252D01*
X117624500Y-134494748D01*
X117625707Y-134500816D01*
X117631579Y-134530334D01*
X117636133Y-134553231D01*
X117680448Y-134619552D01*
X117746769Y-134663867D01*
X117758938Y-134666288D01*
X117758939Y-134666288D01*
X117799184Y-134674293D01*
X117805252Y-134675500D01*
X119344748Y-134675500D01*
X119350816Y-134674293D01*
X119391061Y-134666288D01*
X119391062Y-134666288D01*
X119403231Y-134663867D01*
X119469552Y-134619552D01*
X119513867Y-134553231D01*
X119518422Y-134530334D01*
X119524293Y-134500816D01*
X119525500Y-134494748D01*
X119525500Y-132455252D01*
X119513867Y-132396769D01*
X119469552Y-132330448D01*
X119421825Y-132298557D01*
X119413547Y-132293026D01*
X119403231Y-132286133D01*
X119391062Y-132283712D01*
X119391061Y-132283712D01*
X119350816Y-132275707D01*
X119344748Y-132274500D01*
X118895766Y-132274500D01*
X118827645Y-132254498D01*
X118806671Y-132237595D01*
X116507405Y-129938329D01*
X116473379Y-129876017D01*
X116470500Y-129849234D01*
X116470500Y-129130252D01*
X116458867Y-129071769D01*
X116414552Y-129005448D01*
X116382658Y-128984137D01*
X116358547Y-128968026D01*
X116348231Y-128961133D01*
X116336062Y-128958712D01*
X116336061Y-128958712D01*
X116295816Y-128950707D01*
X116289748Y-128949500D01*
X115084212Y-128949500D01*
X115016091Y-128929498D01*
X114970629Y-128878043D01*
X114968652Y-128873925D01*
X114968649Y-128873921D01*
X114965218Y-128866775D01*
X114961877Y-128862801D01*
X114959944Y-128860868D01*
X114958457Y-128859247D01*
X114958215Y-128858798D01*
X114958246Y-128858770D01*
X114958127Y-128858634D01*
X114955202Y-128853214D01*
X114918505Y-128819292D01*
X114914939Y-128815863D01*
X114504642Y-128405566D01*
X114470616Y-128343254D01*
X114470664Y-128290651D01*
X114472519Y-128285369D01*
X114475500Y-128253834D01*
X114475500Y-127646166D01*
X114472519Y-127614631D01*
X114427634Y-127486816D01*
X114422042Y-127479246D01*
X114422041Y-127479243D01*
X114352742Y-127385421D01*
X114347150Y-127377850D01*
X114316784Y-127355421D01*
X114245757Y-127302959D01*
X114245754Y-127302958D01*
X114238184Y-127297366D01*
X114110369Y-127252481D01*
X114102723Y-127251758D01*
X114102722Y-127251758D01*
X114093284Y-127250866D01*
X114078834Y-127249500D01*
X113021166Y-127249500D01*
X113006716Y-127250866D01*
X112997278Y-127251758D01*
X112997277Y-127251758D01*
X112989631Y-127252481D01*
X112861816Y-127297366D01*
X112854246Y-127302958D01*
X112854243Y-127302959D01*
X112783216Y-127355421D01*
X112752850Y-127377850D01*
X112752662Y-127377596D01*
X112695683Y-127408710D01*
X112624868Y-127403645D01*
X112568032Y-127361098D01*
X112543221Y-127294578D01*
X112542900Y-127285589D01*
X112542900Y-125111083D01*
X112544976Y-125091575D01*
X112545190Y-125087035D01*
X112547382Y-125076854D01*
X112543773Y-125046358D01*
X112543460Y-125041049D01*
X112543328Y-125041060D01*
X112542900Y-125035883D01*
X112542900Y-125030682D01*
X112539987Y-125013182D01*
X112539150Y-125007300D01*
X112534798Y-124970523D01*
X112534798Y-124970522D01*
X112533574Y-124960182D01*
X112529888Y-124952505D01*
X112528490Y-124944109D01*
X112523548Y-124934949D01*
X112523546Y-124934944D01*
X112505955Y-124902342D01*
X112503260Y-124897054D01*
X112486147Y-124861417D01*
X112486146Y-124861415D01*
X112482717Y-124854275D01*
X112479377Y-124850301D01*
X112477441Y-124848365D01*
X112475957Y-124846747D01*
X112475708Y-124846285D01*
X112475737Y-124846259D01*
X112475625Y-124846132D01*
X112472702Y-124840714D01*
X112455859Y-124825144D01*
X112436006Y-124806793D01*
X112432439Y-124803363D01*
X111700405Y-124071329D01*
X111666379Y-124009017D01*
X111663500Y-123982234D01*
X111663500Y-119652432D01*
X111683502Y-119584311D01*
X111737158Y-119537818D01*
X111807432Y-119527714D01*
X111872012Y-119557208D01*
G37*
%TD.AperFunction*%
%TA.AperFunction,Conductor*%
G36*
X133066149Y-123102592D02*
G01*
X133099430Y-123165305D01*
X133102000Y-123190621D01*
X133102000Y-123938153D01*
X133081998Y-124006274D01*
X133028342Y-124052767D01*
X132958068Y-124062871D01*
X132893488Y-124033377D01*
X132876037Y-124014856D01*
X132863308Y-123998267D01*
X132863305Y-123998264D01*
X132858282Y-123991718D01*
X132732841Y-123895464D01*
X132586762Y-123834956D01*
X132430000Y-123814318D01*
X132273238Y-123834956D01*
X132127159Y-123895464D01*
X132001718Y-123991718D01*
X131983964Y-124014856D01*
X131981701Y-124017805D01*
X131924363Y-124059672D01*
X131881739Y-124067100D01*
X131051283Y-124067100D01*
X131031775Y-124065024D01*
X131027235Y-124064810D01*
X131017054Y-124062618D01*
X130994489Y-124065289D01*
X130986558Y-124066227D01*
X130981250Y-124066540D01*
X130981261Y-124066672D01*
X130976083Y-124067100D01*
X130970882Y-124067100D01*
X130965753Y-124067954D01*
X130965750Y-124067954D01*
X130953386Y-124070012D01*
X130947507Y-124070849D01*
X130900383Y-124076426D01*
X130892707Y-124080112D01*
X130884309Y-124081510D01*
X130875145Y-124086455D01*
X130875144Y-124086455D01*
X130842540Y-124104047D01*
X130837267Y-124106735D01*
X130794475Y-124127283D01*
X130790501Y-124130623D01*
X130788563Y-124132561D01*
X130786947Y-124134043D01*
X130786485Y-124134292D01*
X130786459Y-124134263D01*
X130786332Y-124134375D01*
X130780914Y-124137298D01*
X130773844Y-124144946D01*
X130773843Y-124144947D01*
X130746993Y-124173994D01*
X130743563Y-124177561D01*
X129506585Y-125414539D01*
X129491316Y-125426872D01*
X129487962Y-125429924D01*
X129479210Y-125435575D01*
X129460192Y-125459699D01*
X129456666Y-125463666D01*
X129456767Y-125463752D01*
X129453409Y-125467715D01*
X129449731Y-125471393D01*
X129439416Y-125485827D01*
X129435865Y-125490557D01*
X129406475Y-125527838D01*
X129403653Y-125535873D01*
X129398704Y-125542799D01*
X129395722Y-125552770D01*
X129395720Y-125552774D01*
X129385103Y-125588276D01*
X129383279Y-125593892D01*
X129367548Y-125638687D01*
X129367100Y-125643859D01*
X129367100Y-125646563D01*
X129367004Y-125648795D01*
X129366854Y-125649295D01*
X129366816Y-125649293D01*
X129366806Y-125649457D01*
X129365041Y-125655358D01*
X129365450Y-125665762D01*
X129367003Y-125705288D01*
X129367100Y-125710235D01*
X129367100Y-127311634D01*
X129347098Y-127379755D01*
X129330195Y-127400729D01*
X128230729Y-128500195D01*
X128168417Y-128534221D01*
X128141634Y-128537100D01*
X126650782Y-128537100D01*
X126582661Y-128517098D01*
X126561687Y-128500195D01*
X125190165Y-127128673D01*
X125156139Y-127066361D01*
X125161204Y-126995546D01*
X125203751Y-126938710D01*
X125270271Y-126913899D01*
X125279260Y-126913578D01*
X126848399Y-126913578D01*
X126916520Y-126933580D01*
X126948361Y-126962873D01*
X127008586Y-127041360D01*
X127134027Y-127137614D01*
X127280106Y-127198122D01*
X127436868Y-127218760D01*
X127445056Y-127217682D01*
X127452151Y-127216748D01*
X127593630Y-127198122D01*
X127739709Y-127137614D01*
X127865150Y-127041360D01*
X127870173Y-127034814D01*
X127870176Y-127034811D01*
X127942940Y-126939982D01*
X128000278Y-126898114D01*
X128071149Y-126893892D01*
X128103212Y-126906507D01*
X128107159Y-126909536D01*
X128114786Y-126912695D01*
X128114789Y-126912697D01*
X128224615Y-126958188D01*
X128253238Y-126970044D01*
X128410000Y-126990682D01*
X128418188Y-126989604D01*
X128558574Y-126971122D01*
X128566762Y-126970044D01*
X128712841Y-126909536D01*
X128816165Y-126830253D01*
X128831736Y-126818305D01*
X128838282Y-126813282D01*
X128934536Y-126687841D01*
X128995044Y-126541762D01*
X129015682Y-126385000D01*
X128995044Y-126228238D01*
X128934536Y-126082159D01*
X128851927Y-125974500D01*
X128843305Y-125963264D01*
X128838282Y-125956718D01*
X128712841Y-125860464D01*
X128566762Y-125799956D01*
X128508085Y-125792231D01*
X128418188Y-125780396D01*
X128410000Y-125779318D01*
X128311916Y-125792231D01*
X128241768Y-125781292D01*
X128206375Y-125756404D01*
X128187597Y-125737626D01*
X128185841Y-125735592D01*
X128183503Y-125730809D01*
X128147601Y-125697505D01*
X128144196Y-125694225D01*
X128130801Y-125680830D01*
X128126831Y-125678106D01*
X128124183Y-125675781D01*
X128109959Y-125662586D01*
X128109956Y-125662584D01*
X128101432Y-125654677D01*
X128090628Y-125650367D01*
X128086639Y-125647845D01*
X128075851Y-125642084D01*
X128071526Y-125640167D01*
X128061932Y-125633586D01*
X128050613Y-125630900D01*
X128050611Y-125630899D01*
X128037951Y-125627895D01*
X128020354Y-125622330D01*
X128005716Y-125616490D01*
X128005713Y-125616489D01*
X127997456Y-125613195D01*
X127991163Y-125612578D01*
X127988084Y-125612578D01*
X127985011Y-125612428D01*
X127985022Y-125612212D01*
X127973647Y-125610880D01*
X127964332Y-125610424D01*
X127953012Y-125607738D01*
X127941483Y-125609307D01*
X127941482Y-125609307D01*
X127925905Y-125611427D01*
X127908914Y-125612578D01*
X125245374Y-125612578D01*
X125177253Y-125592576D01*
X125156279Y-125575673D01*
X125066201Y-125485595D01*
X125032175Y-125423283D01*
X125037240Y-125352468D01*
X125079787Y-125295632D01*
X125146307Y-125270821D01*
X125155296Y-125270500D01*
X127877684Y-125270500D01*
X127880357Y-125270696D01*
X127885392Y-125272425D01*
X127897014Y-125271989D01*
X127897016Y-125271989D01*
X127934305Y-125270589D01*
X127939031Y-125270500D01*
X127957998Y-125270500D01*
X127962733Y-125269618D01*
X127966259Y-125269390D01*
X127969999Y-125269249D01*
X127997258Y-125268226D01*
X128007943Y-125263636D01*
X128012543Y-125262599D01*
X128024264Y-125259038D01*
X128028667Y-125257339D01*
X128040103Y-125255209D01*
X128061091Y-125242272D01*
X128077461Y-125233769D01*
X128091938Y-125227549D01*
X128091942Y-125227547D01*
X128100113Y-125224036D01*
X128104999Y-125220022D01*
X128107184Y-125217837D01*
X128109447Y-125215785D01*
X128109592Y-125215945D01*
X128118599Y-125208825D01*
X128125494Y-125202573D01*
X128135398Y-125196468D01*
X128151966Y-125174680D01*
X128163160Y-125161861D01*
X130187617Y-123137405D01*
X130249929Y-123103379D01*
X130276712Y-123100500D01*
X131771531Y-123100500D01*
X131839652Y-123120502D01*
X131871493Y-123149795D01*
X131931718Y-123228282D01*
X132057159Y-123324536D01*
X132203238Y-123385044D01*
X132360000Y-123405682D01*
X132368188Y-123404604D01*
X132508574Y-123386122D01*
X132516762Y-123385044D01*
X132662841Y-123324536D01*
X132788282Y-123228282D01*
X132876037Y-123113917D01*
X132933375Y-123072050D01*
X133004246Y-123067828D01*
X133066149Y-123102592D01*
G37*
%TD.AperFunction*%
%TA.AperFunction,Conductor*%
G36*
X108870866Y-107040252D02*
G01*
X108902559Y-107063322D01*
X109405095Y-107565858D01*
X109439121Y-107628170D01*
X109442000Y-107654953D01*
X109442000Y-127197847D01*
X109421998Y-127265968D01*
X109405095Y-127286942D01*
X108927559Y-127764478D01*
X108865247Y-127798504D01*
X108826112Y-127800776D01*
X108825420Y-127800708D01*
X108819348Y-127799500D01*
X108476327Y-127799500D01*
X108408206Y-127779498D01*
X108361713Y-127725842D01*
X108351609Y-127655568D01*
X108371562Y-127603498D01*
X108391573Y-127573550D01*
X108391575Y-127573546D01*
X108398467Y-127563231D01*
X108404436Y-127533226D01*
X108408893Y-127510816D01*
X108410100Y-127504748D01*
X108410100Y-126195252D01*
X108408893Y-126189184D01*
X108400888Y-126148939D01*
X108400888Y-126148938D01*
X108398467Y-126136769D01*
X108354152Y-126070448D01*
X108287831Y-126026133D01*
X108275662Y-126023712D01*
X108275661Y-126023712D01*
X108235416Y-126015707D01*
X108229348Y-126014500D01*
X106919852Y-126014500D01*
X106913784Y-126015707D01*
X106873539Y-126023712D01*
X106873538Y-126023712D01*
X106861369Y-126026133D01*
X106795048Y-126070448D01*
X106750733Y-126136769D01*
X106748312Y-126148938D01*
X106748312Y-126148939D01*
X106740307Y-126189184D01*
X106739100Y-126195252D01*
X106739100Y-127504748D01*
X106740307Y-127510816D01*
X106744765Y-127533226D01*
X106750733Y-127563231D01*
X106757625Y-127573546D01*
X106757627Y-127573550D01*
X106777638Y-127603498D01*
X106798853Y-127671251D01*
X106780070Y-127739718D01*
X106727253Y-127787161D01*
X106672873Y-127799500D01*
X106401500Y-127799500D01*
X106333379Y-127779498D01*
X106286886Y-127725842D01*
X106275500Y-127673500D01*
X106275500Y-121848252D01*
X106295502Y-121780131D01*
X106349158Y-121733638D01*
X106419432Y-121723534D01*
X106483079Y-121752227D01*
X106601641Y-121852953D01*
X106601645Y-121852956D01*
X106607220Y-121857692D01*
X106757889Y-121934627D01*
X106764998Y-121936367D01*
X106765002Y-121936368D01*
X106865045Y-121960848D01*
X106922217Y-121974838D01*
X106927814Y-121975185D01*
X106927819Y-121975186D01*
X106930949Y-121975380D01*
X106930958Y-121975380D01*
X106932888Y-121975500D01*
X108104863Y-121975500D01*
X108193535Y-121965162D01*
X108223265Y-121961696D01*
X108223266Y-121961696D01*
X108230537Y-121960848D01*
X108237414Y-121958352D01*
X108237417Y-121958351D01*
X108382682Y-121905622D01*
X108389561Y-121903125D01*
X108531040Y-121810367D01*
X108647385Y-121687550D01*
X108732356Y-121541262D01*
X108735830Y-121529794D01*
X108775661Y-121398282D01*
X108781395Y-121379350D01*
X108781927Y-121370783D01*
X108787596Y-121279396D01*
X108791870Y-121210499D01*
X108775961Y-121117911D01*
X108764460Y-121050983D01*
X108763220Y-121043767D01*
X108696982Y-120888098D01*
X108641891Y-120813238D01*
X108601047Y-120757736D01*
X108601045Y-120757733D01*
X108596709Y-120751842D01*
X108537286Y-120701358D01*
X108473354Y-120647043D01*
X108473351Y-120647041D01*
X108467780Y-120642308D01*
X108317111Y-120565373D01*
X108310002Y-120563633D01*
X108309998Y-120563632D01*
X108190797Y-120534464D01*
X108152783Y-120525162D01*
X108147186Y-120524815D01*
X108147181Y-120524814D01*
X108144051Y-120524620D01*
X108144042Y-120524620D01*
X108142112Y-120524500D01*
X106970137Y-120524500D01*
X106881465Y-120534838D01*
X106851735Y-120538304D01*
X106851734Y-120538304D01*
X106844463Y-120539152D01*
X106837586Y-120541648D01*
X106837583Y-120541649D01*
X106763051Y-120568703D01*
X106685439Y-120596875D01*
X106543960Y-120689633D01*
X106538928Y-120694945D01*
X106492973Y-120743456D01*
X106431604Y-120779154D01*
X106360677Y-120776006D01*
X106302711Y-120735013D01*
X106276110Y-120669188D01*
X106275500Y-120656803D01*
X106275500Y-114698252D01*
X106295502Y-114630131D01*
X106349158Y-114583638D01*
X106419432Y-114573534D01*
X106483079Y-114602227D01*
X106601641Y-114702953D01*
X106601645Y-114702956D01*
X106607220Y-114707692D01*
X106757889Y-114784627D01*
X106764998Y-114786367D01*
X106765002Y-114786368D01*
X106865045Y-114810848D01*
X106922217Y-114824838D01*
X106927814Y-114825185D01*
X106927819Y-114825186D01*
X106930949Y-114825380D01*
X106930958Y-114825380D01*
X106932888Y-114825500D01*
X108104863Y-114825500D01*
X108193535Y-114815162D01*
X108223265Y-114811696D01*
X108223266Y-114811696D01*
X108230537Y-114810848D01*
X108237414Y-114808352D01*
X108237417Y-114808351D01*
X108382682Y-114755622D01*
X108389561Y-114753125D01*
X108531040Y-114660367D01*
X108647385Y-114537550D01*
X108732356Y-114391262D01*
X108749452Y-114334818D01*
X108777674Y-114241634D01*
X108781395Y-114229350D01*
X108784658Y-114176762D01*
X108791416Y-114067810D01*
X108791870Y-114060499D01*
X108786240Y-114027731D01*
X108764460Y-113900983D01*
X108763220Y-113893767D01*
X108696982Y-113738098D01*
X108657463Y-113684398D01*
X108601047Y-113607736D01*
X108601045Y-113607733D01*
X108596709Y-113601842D01*
X108534074Y-113548629D01*
X108473354Y-113497043D01*
X108473351Y-113497041D01*
X108467780Y-113492308D01*
X108317111Y-113415373D01*
X108310002Y-113413633D01*
X108309998Y-113413632D01*
X108194608Y-113385396D01*
X108152783Y-113375162D01*
X108147186Y-113374815D01*
X108147181Y-113374814D01*
X108144051Y-113374620D01*
X108144042Y-113374620D01*
X108142112Y-113374500D01*
X106970137Y-113374500D01*
X106881465Y-113384838D01*
X106851735Y-113388304D01*
X106851734Y-113388304D01*
X106844463Y-113389152D01*
X106837586Y-113391648D01*
X106837583Y-113391649D01*
X106772225Y-113415373D01*
X106685439Y-113446875D01*
X106543960Y-113539633D01*
X106538928Y-113544945D01*
X106492973Y-113593456D01*
X106431604Y-113629154D01*
X106360677Y-113626006D01*
X106302711Y-113585013D01*
X106276110Y-113519188D01*
X106275500Y-113506803D01*
X106275500Y-107154300D01*
X106295502Y-107086179D01*
X106349158Y-107039686D01*
X106401500Y-107028300D01*
X106647873Y-107028300D01*
X106715994Y-107048302D01*
X106762487Y-107101958D01*
X106772591Y-107172232D01*
X106752638Y-107224302D01*
X106732627Y-107254250D01*
X106732625Y-107254254D01*
X106725733Y-107264569D01*
X106723312Y-107276738D01*
X106723312Y-107276739D01*
X106718460Y-107301133D01*
X106714100Y-107323052D01*
X106714100Y-108632548D01*
X106715307Y-108638616D01*
X106722892Y-108676746D01*
X106725733Y-108691031D01*
X106770048Y-108757352D01*
X106780361Y-108764243D01*
X106818852Y-108789962D01*
X106836369Y-108801667D01*
X106848538Y-108804088D01*
X106848539Y-108804088D01*
X106879664Y-108810279D01*
X106894852Y-108813300D01*
X108204348Y-108813300D01*
X108219536Y-108810279D01*
X108250661Y-108804088D01*
X108250662Y-108804088D01*
X108262831Y-108801667D01*
X108280349Y-108789962D01*
X108318839Y-108764243D01*
X108329152Y-108757352D01*
X108373467Y-108691031D01*
X108376309Y-108676746D01*
X108383893Y-108638616D01*
X108385100Y-108632548D01*
X108385100Y-107323052D01*
X108380740Y-107301133D01*
X108375888Y-107276739D01*
X108375888Y-107276738D01*
X108373467Y-107264569D01*
X108366575Y-107254254D01*
X108366573Y-107254250D01*
X108346562Y-107224302D01*
X108325347Y-107156549D01*
X108344130Y-107088082D01*
X108396947Y-107040639D01*
X108451327Y-107028300D01*
X108794348Y-107028300D01*
X108800420Y-107027092D01*
X108801112Y-107027024D01*
X108870866Y-107040252D01*
G37*
%TD.AperFunction*%
%TA.AperFunction,Conductor*%
G36*
X138853083Y-121347102D02*
G01*
X138884922Y-121376393D01*
X138901718Y-121398282D01*
X138908268Y-121403308D01*
X138908269Y-121403309D01*
X138945293Y-121431718D01*
X139027159Y-121494536D01*
X139124044Y-121534667D01*
X139162529Y-121550608D01*
X139173238Y-121555044D01*
X139330000Y-121575682D01*
X139338188Y-121574604D01*
X139338190Y-121574604D01*
X139348643Y-121573228D01*
X139418792Y-121584168D01*
X139471890Y-121631297D01*
X139491079Y-121699651D01*
X139476758Y-121755870D01*
X139472366Y-121761816D01*
X139427481Y-121889631D01*
X139424500Y-121921166D01*
X139424500Y-122728834D01*
X139427481Y-122760369D01*
X139472366Y-122888184D01*
X139477958Y-122895754D01*
X139477959Y-122895757D01*
X139528108Y-122963652D01*
X139552850Y-122997150D01*
X139560421Y-123002742D01*
X139654243Y-123072041D01*
X139654246Y-123072042D01*
X139661816Y-123077634D01*
X139789631Y-123122519D01*
X139797277Y-123123242D01*
X139797278Y-123123242D01*
X139803248Y-123123806D01*
X139821166Y-123125500D01*
X141228834Y-123125500D01*
X141246752Y-123123806D01*
X141252722Y-123123242D01*
X141252723Y-123123242D01*
X141260369Y-123122519D01*
X141388184Y-123077634D01*
X141395754Y-123072042D01*
X141395757Y-123072041D01*
X141489579Y-123002742D01*
X141497150Y-122997150D01*
X141521892Y-122963652D01*
X141572041Y-122895757D01*
X141572042Y-122895754D01*
X141577634Y-122888184D01*
X141622519Y-122760369D01*
X141623242Y-122752722D01*
X141624887Y-122745224D01*
X141626669Y-122745615D01*
X141649384Y-122688720D01*
X141707177Y-122647484D01*
X141778090Y-122644039D01*
X141839609Y-122679479D01*
X141872200Y-122742553D01*
X141874500Y-122766515D01*
X141874500Y-127673500D01*
X141854498Y-127741621D01*
X141800842Y-127788114D01*
X141748500Y-127799500D01*
X141476727Y-127799500D01*
X141408606Y-127779498D01*
X141362113Y-127725842D01*
X141352009Y-127655568D01*
X141371962Y-127603498D01*
X141391973Y-127573550D01*
X141391975Y-127573546D01*
X141398867Y-127563231D01*
X141404836Y-127533226D01*
X141409293Y-127510816D01*
X141410500Y-127504748D01*
X141410500Y-126195252D01*
X141409293Y-126189184D01*
X141401288Y-126148939D01*
X141401288Y-126148938D01*
X141398867Y-126136769D01*
X141354552Y-126070448D01*
X141288231Y-126026133D01*
X141276062Y-126023712D01*
X141276061Y-126023712D01*
X141235816Y-126015707D01*
X141229748Y-126014500D01*
X140216661Y-126014500D01*
X140148540Y-125994498D01*
X140127566Y-125977595D01*
X140014519Y-125864548D01*
X140012763Y-125862514D01*
X140010425Y-125857731D01*
X139974523Y-125824427D01*
X139971118Y-125821147D01*
X139957723Y-125807752D01*
X139953753Y-125805028D01*
X139951105Y-125802703D01*
X139936881Y-125789508D01*
X139936878Y-125789506D01*
X139928354Y-125781599D01*
X139917550Y-125777289D01*
X139913561Y-125774767D01*
X139902773Y-125769006D01*
X139898448Y-125767089D01*
X139888854Y-125760508D01*
X139877535Y-125757822D01*
X139877533Y-125757821D01*
X139864873Y-125754817D01*
X139847276Y-125749252D01*
X139832638Y-125743412D01*
X139832635Y-125743411D01*
X139824378Y-125740117D01*
X139818085Y-125739500D01*
X139815006Y-125739500D01*
X139811933Y-125739350D01*
X139811944Y-125739134D01*
X139800569Y-125737802D01*
X139791254Y-125737346D01*
X139779934Y-125734660D01*
X139768405Y-125736229D01*
X139768404Y-125736229D01*
X139752827Y-125738349D01*
X139735836Y-125739500D01*
X137866663Y-125739500D01*
X137798542Y-125719498D01*
X137777568Y-125702596D01*
X137457405Y-125382434D01*
X137423380Y-125320121D01*
X137420500Y-125293338D01*
X137420500Y-123452372D01*
X137420697Y-123449695D01*
X137422426Y-123444658D01*
X137421575Y-123421978D01*
X137420589Y-123395730D01*
X137420500Y-123391003D01*
X137420500Y-123372052D01*
X137419618Y-123367319D01*
X137419390Y-123363792D01*
X137418663Y-123344420D01*
X137418662Y-123344418D01*
X137418226Y-123332792D01*
X137413632Y-123322100D01*
X137412595Y-123317497D01*
X137409038Y-123305787D01*
X137407339Y-123301384D01*
X137405209Y-123289947D01*
X137399106Y-123280046D01*
X137399105Y-123280043D01*
X137392271Y-123268956D01*
X137383767Y-123252585D01*
X137377546Y-123238106D01*
X137377544Y-123238103D01*
X137374036Y-123229938D01*
X137370023Y-123225051D01*
X137367828Y-123222856D01*
X137365770Y-123220586D01*
X137365932Y-123220439D01*
X137358835Y-123211461D01*
X137352572Y-123204554D01*
X137346468Y-123194652D01*
X137324693Y-123178094D01*
X137311865Y-123166893D01*
X136605761Y-122460789D01*
X135884203Y-121739232D01*
X135850178Y-121676920D01*
X135855242Y-121606105D01*
X135897789Y-121549269D01*
X135964309Y-121524458D01*
X135982668Y-121525132D01*
X135982713Y-121524510D01*
X135987256Y-121524840D01*
X135991782Y-121525500D01*
X137308218Y-121525500D01*
X137312768Y-121524830D01*
X137312771Y-121524830D01*
X137367426Y-121516784D01*
X137367427Y-121516784D01*
X137377112Y-121515358D01*
X137429761Y-121489509D01*
X137472507Y-121468522D01*
X137472509Y-121468521D01*
X137481855Y-121463932D01*
X137564293Y-121381350D01*
X137566096Y-121377661D01*
X137619046Y-121336089D01*
X137665783Y-121327100D01*
X138784962Y-121327100D01*
X138853083Y-121347102D01*
G37*
%TD.AperFunction*%
%TA.AperFunction,Conductor*%
G36*
X114735412Y-119044454D02*
G01*
X114756386Y-119061357D01*
X120020481Y-124325452D01*
X120022237Y-124327486D01*
X120024575Y-124332269D01*
X120033104Y-124340181D01*
X120033105Y-124340182D01*
X120060477Y-124365573D01*
X120063882Y-124368853D01*
X120077277Y-124382248D01*
X120081247Y-124384972D01*
X120083895Y-124387297D01*
X120088115Y-124391211D01*
X120106646Y-124408401D01*
X120117453Y-124412713D01*
X120121438Y-124415232D01*
X120132247Y-124421004D01*
X120136552Y-124422911D01*
X120146146Y-124429493D01*
X120170099Y-124435177D01*
X120170136Y-124435186D01*
X120187732Y-124440751D01*
X120210622Y-124449883D01*
X120216915Y-124450500D01*
X120219997Y-124450500D01*
X120223067Y-124450650D01*
X120223056Y-124450866D01*
X120234431Y-124452198D01*
X120243745Y-124452653D01*
X120255066Y-124455340D01*
X120266595Y-124453771D01*
X120266596Y-124453771D01*
X120282173Y-124451651D01*
X120299164Y-124450500D01*
X122563289Y-124450500D01*
X122631410Y-124470502D01*
X122652384Y-124487405D01*
X122976984Y-124812005D01*
X123011010Y-124874317D01*
X123005945Y-124945132D01*
X122963398Y-125001968D01*
X122896878Y-125026779D01*
X122887889Y-125027100D01*
X122721083Y-125027100D01*
X122701575Y-125025024D01*
X122697035Y-125024810D01*
X122686854Y-125022618D01*
X122664289Y-125025289D01*
X122656358Y-125026227D01*
X122651049Y-125026540D01*
X122651060Y-125026672D01*
X122645883Y-125027100D01*
X122640682Y-125027100D01*
X122628314Y-125029159D01*
X122623182Y-125030013D01*
X122617300Y-125030850D01*
X122580523Y-125035202D01*
X122580522Y-125035202D01*
X122570182Y-125036426D01*
X122562505Y-125040112D01*
X122554109Y-125041510D01*
X122544949Y-125046452D01*
X122544944Y-125046454D01*
X122512342Y-125064045D01*
X122507054Y-125066740D01*
X122471417Y-125083853D01*
X122471415Y-125083854D01*
X122464275Y-125087283D01*
X122460301Y-125090623D01*
X122458365Y-125092559D01*
X122456747Y-125094043D01*
X122456285Y-125094292D01*
X122456259Y-125094263D01*
X122456132Y-125094375D01*
X122450714Y-125097298D01*
X122443644Y-125104946D01*
X122443643Y-125104947D01*
X122416793Y-125133994D01*
X122413363Y-125137561D01*
X121613329Y-125937595D01*
X121551017Y-125971621D01*
X121524234Y-125974500D01*
X118955252Y-125974500D01*
X118949184Y-125975707D01*
X118908939Y-125983712D01*
X118908938Y-125983712D01*
X118896769Y-125986133D01*
X118830448Y-126030448D01*
X118825598Y-126037706D01*
X118765519Y-126070513D01*
X118694704Y-126065448D01*
X118649644Y-126036489D01*
X114664405Y-122051251D01*
X114630379Y-121988939D01*
X114627500Y-121962156D01*
X114627500Y-120599794D01*
X114627980Y-120588811D01*
X114630326Y-120561999D01*
X114631287Y-120551016D01*
X114621464Y-120514356D01*
X114619087Y-120503633D01*
X114615112Y-120481093D01*
X114612497Y-120466261D01*
X114606986Y-120456715D01*
X114605760Y-120453347D01*
X114604246Y-120450101D01*
X114601394Y-120439457D01*
X114579623Y-120408365D01*
X114573725Y-120399106D01*
X114560263Y-120375789D01*
X114554750Y-120366240D01*
X114525670Y-120341839D01*
X114517566Y-120334412D01*
X113422701Y-119239547D01*
X113388675Y-119177235D01*
X113393740Y-119106420D01*
X113436287Y-119049584D01*
X113502807Y-119024773D01*
X113511796Y-119024452D01*
X114667291Y-119024452D01*
X114735412Y-119044454D01*
G37*
%TD.AperFunction*%
%TA.AperFunction,Conductor*%
G36*
X133821369Y-103958002D02*
G01*
X133842343Y-103974905D01*
X136148626Y-106281188D01*
X136152279Y-106284997D01*
X136191710Y-106327878D01*
X136226216Y-106349273D01*
X136235985Y-106355988D01*
X136261475Y-106375337D01*
X136261482Y-106375341D01*
X136268321Y-106380532D01*
X136276307Y-106383694D01*
X136280858Y-106385496D01*
X136300866Y-106395559D01*
X136305030Y-106398141D01*
X136305036Y-106398144D01*
X136312330Y-106402666D01*
X136351305Y-106413989D01*
X136362533Y-106417834D01*
X136392286Y-106429614D01*
X136392294Y-106429616D01*
X136400278Y-106432777D01*
X136408823Y-106433675D01*
X136408826Y-106433676D01*
X136413692Y-106434188D01*
X136435664Y-106438498D01*
X136442280Y-106440420D01*
X136442282Y-106440420D01*
X136448618Y-106442261D01*
X136458682Y-106443000D01*
X136490938Y-106443000D01*
X136504109Y-106443690D01*
X136541424Y-106447612D01*
X136549890Y-106446180D01*
X136549893Y-106446180D01*
X136558264Y-106444764D01*
X136579276Y-106443000D01*
X137701316Y-106443000D01*
X137749534Y-106452591D01*
X137880608Y-106506884D01*
X137880611Y-106506885D01*
X137888238Y-106510044D01*
X137896426Y-106511122D01*
X137966619Y-106520363D01*
X138045000Y-106530682D01*
X138053188Y-106529604D01*
X138193574Y-106511122D01*
X138201762Y-106510044D01*
X138209389Y-106506885D01*
X138209392Y-106506884D01*
X138340466Y-106452591D01*
X138388684Y-106443000D01*
X139098500Y-106443000D01*
X139166621Y-106463002D01*
X139213114Y-106516658D01*
X139224500Y-106569000D01*
X139224500Y-106994748D01*
X139225707Y-107000816D01*
X139233272Y-107038846D01*
X139236133Y-107053231D01*
X139280448Y-107119552D01*
X139346769Y-107163867D01*
X139358938Y-107166288D01*
X139358939Y-107166288D01*
X139397088Y-107173876D01*
X139405252Y-107175500D01*
X139748273Y-107175500D01*
X139816394Y-107195502D01*
X139862887Y-107249158D01*
X139872991Y-107319432D01*
X139853038Y-107371502D01*
X139833027Y-107401450D01*
X139833025Y-107401454D01*
X139826133Y-107411769D01*
X139823712Y-107423938D01*
X139823712Y-107423939D01*
X139819976Y-107442723D01*
X139814500Y-107470252D01*
X139814500Y-108779748D01*
X139815707Y-108785816D01*
X139823094Y-108822951D01*
X139826133Y-108838231D01*
X139870448Y-108904552D01*
X139936769Y-108948867D01*
X139948938Y-108951288D01*
X139948939Y-108951288D01*
X139989184Y-108959293D01*
X139995252Y-108960500D01*
X141304748Y-108960500D01*
X141310816Y-108959293D01*
X141351061Y-108951288D01*
X141351062Y-108951288D01*
X141363231Y-108948867D01*
X141429552Y-108904552D01*
X141473867Y-108838231D01*
X141476907Y-108822951D01*
X141484293Y-108785816D01*
X141485500Y-108779748D01*
X141485500Y-107470252D01*
X141480024Y-107442723D01*
X141476288Y-107423939D01*
X141476288Y-107423938D01*
X141473867Y-107411769D01*
X141466975Y-107401454D01*
X141466973Y-107401450D01*
X141446962Y-107371502D01*
X141425747Y-107303749D01*
X141444530Y-107235282D01*
X141497347Y-107187839D01*
X141551727Y-107175500D01*
X141748500Y-107175500D01*
X141816621Y-107195502D01*
X141863114Y-107249158D01*
X141874500Y-107301500D01*
X141874500Y-112283485D01*
X141854498Y-112351606D01*
X141800842Y-112398099D01*
X141730568Y-112408203D01*
X141665988Y-112378709D01*
X141627604Y-112318983D01*
X141624769Y-112304240D01*
X141623242Y-112297278D01*
X141622519Y-112289631D01*
X141577634Y-112161816D01*
X141572042Y-112154246D01*
X141572041Y-112154243D01*
X141502742Y-112060421D01*
X141497150Y-112052850D01*
X141435324Y-112007184D01*
X141395757Y-111977959D01*
X141395754Y-111977958D01*
X141388184Y-111972366D01*
X141260369Y-111927481D01*
X141252723Y-111926758D01*
X141252722Y-111926758D01*
X141246752Y-111926194D01*
X141228834Y-111924500D01*
X139821166Y-111924500D01*
X139803248Y-111926194D01*
X139797278Y-111926758D01*
X139797277Y-111926758D01*
X139789631Y-111927481D01*
X139661816Y-111972366D01*
X139654246Y-111977958D01*
X139654243Y-111977959D01*
X139614676Y-112007184D01*
X139552850Y-112052850D01*
X139547258Y-112060421D01*
X139477959Y-112154243D01*
X139477958Y-112154246D01*
X139472366Y-112161816D01*
X139427481Y-112289631D01*
X139424500Y-112321166D01*
X139424500Y-113128834D01*
X139427481Y-113160369D01*
X139472366Y-113288184D01*
X139477958Y-113295754D01*
X139477959Y-113295757D01*
X139528649Y-113364385D01*
X139552850Y-113397150D01*
X139560421Y-113402742D01*
X139654243Y-113472041D01*
X139654246Y-113472042D01*
X139661816Y-113477634D01*
X139789631Y-113522519D01*
X139797277Y-113523242D01*
X139797278Y-113523242D01*
X139803248Y-113523806D01*
X139821166Y-113525500D01*
X141228834Y-113525500D01*
X141246752Y-113523806D01*
X141252722Y-113523242D01*
X141252723Y-113523242D01*
X141260369Y-113522519D01*
X141388184Y-113477634D01*
X141395754Y-113472042D01*
X141395757Y-113472041D01*
X141489579Y-113402742D01*
X141497150Y-113397150D01*
X141521351Y-113364385D01*
X141572041Y-113295757D01*
X141572042Y-113295754D01*
X141577634Y-113288184D01*
X141622519Y-113160369D01*
X141623242Y-113152722D01*
X141624887Y-113145224D01*
X141626669Y-113145615D01*
X141649384Y-113088720D01*
X141707177Y-113047484D01*
X141778090Y-113044039D01*
X141839609Y-113079479D01*
X141872200Y-113142553D01*
X141874500Y-113166515D01*
X141874500Y-121883485D01*
X141854498Y-121951606D01*
X141800842Y-121998099D01*
X141730568Y-122008203D01*
X141665988Y-121978709D01*
X141627604Y-121918983D01*
X141624769Y-121904240D01*
X141623242Y-121897278D01*
X141622519Y-121889631D01*
X141577634Y-121761816D01*
X141572042Y-121754246D01*
X141572041Y-121754243D01*
X141502742Y-121660421D01*
X141497150Y-121652850D01*
X141463368Y-121627898D01*
X141395757Y-121577959D01*
X141395754Y-121577958D01*
X141388184Y-121572366D01*
X141260369Y-121527481D01*
X141252723Y-121526758D01*
X141252722Y-121526758D01*
X141246752Y-121526194D01*
X141228834Y-121524500D01*
X139916935Y-121524500D01*
X139848814Y-121504498D01*
X139802321Y-121450842D01*
X139792217Y-121380568D01*
X139816972Y-121321797D01*
X139849507Y-121279396D01*
X139849509Y-121279392D01*
X139854536Y-121272841D01*
X139915044Y-121126762D01*
X139922637Y-121069091D01*
X139934604Y-120978188D01*
X139935682Y-120970000D01*
X139915044Y-120813238D01*
X139854536Y-120667159D01*
X139758282Y-120541718D01*
X139632841Y-120445464D01*
X139505053Y-120392532D01*
X139494391Y-120388116D01*
X139486762Y-120384956D01*
X139463208Y-120381855D01*
X139338188Y-120365396D01*
X139330000Y-120364318D01*
X139321812Y-120365396D01*
X139196793Y-120381855D01*
X139173238Y-120384956D01*
X139165609Y-120388116D01*
X139154947Y-120392532D01*
X139027159Y-120445464D01*
X138901718Y-120541718D01*
X138896695Y-120548264D01*
X138813410Y-120656803D01*
X138805464Y-120667159D01*
X138804257Y-120666233D01*
X138759517Y-120708893D01*
X138701780Y-120722900D01*
X137665785Y-120722900D01*
X137597664Y-120702898D01*
X137566392Y-120673155D01*
X137563932Y-120668145D01*
X137509889Y-120614196D01*
X137475810Y-120551913D01*
X137480813Y-120481093D01*
X137509733Y-120436006D01*
X137556935Y-120388721D01*
X137556935Y-120388720D01*
X137564293Y-120381350D01*
X137566096Y-120377661D01*
X137619046Y-120336089D01*
X137665783Y-120327100D01*
X138402322Y-120327100D01*
X138405048Y-120327300D01*
X138410104Y-120329036D01*
X138459304Y-120327189D01*
X138464030Y-120327100D01*
X138483097Y-120327100D01*
X138487845Y-120326216D01*
X138491439Y-120325983D01*
X138510941Y-120325251D01*
X138510943Y-120325250D01*
X138522566Y-120324814D01*
X138533255Y-120320222D01*
X138537685Y-120319223D01*
X138549951Y-120315497D01*
X138554201Y-120313857D01*
X138565639Y-120311727D01*
X138575541Y-120305623D01*
X138575547Y-120305621D01*
X138586779Y-120298697D01*
X138603150Y-120290192D01*
X138625968Y-120280389D01*
X138630877Y-120276357D01*
X138633072Y-120274162D01*
X138633076Y-120274159D01*
X138635331Y-120272114D01*
X138635470Y-120272267D01*
X138644781Y-120264906D01*
X138651539Y-120258778D01*
X138661442Y-120252674D01*
X138678125Y-120230735D01*
X138689326Y-120217908D01*
X140156757Y-118750477D01*
X140219069Y-118716451D01*
X140262298Y-118714650D01*
X140365883Y-118728287D01*
X140374071Y-118729365D01*
X140382259Y-118728287D01*
X140522645Y-118709805D01*
X140530833Y-118708727D01*
X140676912Y-118648219D01*
X140802353Y-118551965D01*
X140898607Y-118426524D01*
X140959115Y-118280445D01*
X140979753Y-118123683D01*
X140959115Y-117966921D01*
X140898607Y-117820842D01*
X140802353Y-117695401D01*
X140779014Y-117677492D01*
X140699656Y-117616599D01*
X140676912Y-117599147D01*
X140530833Y-117538639D01*
X140486307Y-117532777D01*
X140382259Y-117519079D01*
X140374071Y-117518001D01*
X140365883Y-117519079D01*
X140261836Y-117532777D01*
X140217309Y-117538639D01*
X140071230Y-117599147D01*
X140048486Y-117616599D01*
X139969129Y-117677492D01*
X139945789Y-117695401D01*
X139945339Y-117695988D01*
X139886081Y-117728346D01*
X139815266Y-117723281D01*
X139758430Y-117680734D01*
X139733619Y-117614214D01*
X139733298Y-117605225D01*
X139733298Y-117575401D01*
X139753300Y-117507280D01*
X139782593Y-117475439D01*
X139808680Y-117455422D01*
X139817283Y-117444211D01*
X139865517Y-117381350D01*
X139904934Y-117329981D01*
X139965442Y-117183902D01*
X139986080Y-117027140D01*
X139965442Y-116870378D01*
X139904934Y-116724299D01*
X139808680Y-116598858D01*
X139796034Y-116589154D01*
X139737496Y-116544237D01*
X139683239Y-116502604D01*
X139537160Y-116442096D01*
X139380398Y-116421458D01*
X139223636Y-116442096D01*
X139077557Y-116502604D01*
X139023300Y-116544237D01*
X138964763Y-116589154D01*
X138952116Y-116598858D01*
X138855862Y-116724299D01*
X138795354Y-116870378D01*
X138774716Y-117027140D01*
X138795354Y-117183902D01*
X138855862Y-117329981D01*
X138895279Y-117381350D01*
X138943514Y-117444211D01*
X138952116Y-117455422D01*
X138978203Y-117475439D01*
X139020070Y-117532777D01*
X139027498Y-117575401D01*
X139027498Y-117851607D01*
X139007496Y-117919728D01*
X138953840Y-117966221D01*
X138883566Y-117976325D01*
X138818986Y-117946831D01*
X138801535Y-117928311D01*
X138742108Y-117850864D01*
X138737085Y-117844318D01*
X138611644Y-117748064D01*
X138465565Y-117687556D01*
X138413747Y-117680734D01*
X138346227Y-117671845D01*
X138308803Y-117666918D01*
X138271379Y-117671845D01*
X138203860Y-117680734D01*
X138152041Y-117687556D01*
X138144414Y-117690715D01*
X138144411Y-117690716D01*
X138088817Y-117713744D01*
X138057598Y-117722183D01*
X138049025Y-117723350D01*
X138032041Y-117724500D01*
X137666930Y-117724500D01*
X137598809Y-117704498D01*
X137566862Y-117674112D01*
X137563932Y-117668145D01*
X137509889Y-117614196D01*
X137475810Y-117551913D01*
X137480813Y-117481093D01*
X137509733Y-117436006D01*
X137556935Y-117388721D01*
X137556935Y-117388720D01*
X137564293Y-117381350D01*
X137571596Y-117366411D01*
X137585226Y-117338525D01*
X137615536Y-117276518D01*
X137622149Y-117231189D01*
X137624840Y-117212744D01*
X137624840Y-117212740D01*
X137625500Y-117208218D01*
X137625500Y-116841782D01*
X137624392Y-116834252D01*
X137616784Y-116782574D01*
X137616784Y-116782573D01*
X137615358Y-116772888D01*
X137583112Y-116707210D01*
X137568522Y-116677493D01*
X137568521Y-116677491D01*
X137563932Y-116668145D01*
X137534728Y-116638992D01*
X137509889Y-116614196D01*
X137475810Y-116551913D01*
X137480813Y-116481093D01*
X137509731Y-116436008D01*
X137530816Y-116414885D01*
X137593098Y-116380804D01*
X137619992Y-116377900D01*
X137977545Y-116377900D01*
X138045666Y-116397902D01*
X138054249Y-116403937D01*
X138107159Y-116444536D01*
X138253238Y-116505044D01*
X138410000Y-116525682D01*
X138418188Y-116524604D01*
X138455636Y-116519674D01*
X138566762Y-116505044D01*
X138712841Y-116444536D01*
X138838282Y-116348282D01*
X138934536Y-116222841D01*
X138995044Y-116076762D01*
X139015682Y-115920000D01*
X138995044Y-115763238D01*
X138934536Y-115617159D01*
X138861349Y-115521779D01*
X138843305Y-115498264D01*
X138838282Y-115491718D01*
X138824437Y-115481094D01*
X138784472Y-115450428D01*
X138712841Y-115395464D01*
X138566762Y-115334956D01*
X138410000Y-115314318D01*
X138253238Y-115334956D01*
X138107159Y-115395464D01*
X138035528Y-115450428D01*
X137995564Y-115481094D01*
X137981718Y-115491718D01*
X137976695Y-115498264D01*
X137952630Y-115529626D01*
X137885464Y-115617159D01*
X137884048Y-115616072D01*
X137839981Y-115658092D01*
X137782242Y-115672100D01*
X137620021Y-115672100D01*
X137551900Y-115652098D01*
X137531004Y-115635274D01*
X137509890Y-115614197D01*
X137475810Y-115551914D01*
X137480813Y-115481094D01*
X137509733Y-115436006D01*
X137539734Y-115405952D01*
X137602016Y-115371872D01*
X137614103Y-115369842D01*
X137614152Y-115369836D01*
X137624817Y-115368574D01*
X137632493Y-115364888D01*
X137640891Y-115363490D01*
X137662535Y-115351812D01*
X137682660Y-115340953D01*
X137687933Y-115338265D01*
X137730725Y-115317717D01*
X137734699Y-115314377D01*
X137736637Y-115312439D01*
X137738253Y-115310957D01*
X137738715Y-115310708D01*
X137738741Y-115310737D01*
X137738868Y-115310625D01*
X137744286Y-115307702D01*
X137757755Y-115293132D01*
X137778207Y-115271006D01*
X137781637Y-115267439D01*
X138323415Y-114725661D01*
X138338684Y-114713328D01*
X138342038Y-114710276D01*
X138350790Y-114704625D01*
X138369808Y-114680501D01*
X138373334Y-114676534D01*
X138373233Y-114676448D01*
X138376591Y-114672485D01*
X138380269Y-114668807D01*
X138390584Y-114654373D01*
X138394135Y-114649643D01*
X138417077Y-114620541D01*
X138423525Y-114612362D01*
X138426347Y-114604327D01*
X138431296Y-114597401D01*
X138434278Y-114587430D01*
X138434280Y-114587426D01*
X138444382Y-114553646D01*
X138444898Y-114551919D01*
X138446721Y-114546308D01*
X138462452Y-114501513D01*
X138462900Y-114496341D01*
X138462900Y-114493637D01*
X138462996Y-114491405D01*
X138463146Y-114490905D01*
X138463184Y-114490907D01*
X138463194Y-114490743D01*
X138464959Y-114484842D01*
X138462997Y-114434911D01*
X138462900Y-114429965D01*
X138462900Y-113558261D01*
X138482902Y-113490140D01*
X138512195Y-113458299D01*
X138521853Y-113450888D01*
X138538282Y-113438282D01*
X138553306Y-113418703D01*
X138629509Y-113319392D01*
X138634536Y-113312841D01*
X138695044Y-113166762D01*
X138715682Y-113010000D01*
X138695044Y-112853238D01*
X138634536Y-112707159D01*
X138538282Y-112581718D01*
X138412841Y-112485464D01*
X138266762Y-112424956D01*
X138110000Y-112404318D01*
X137953238Y-112424956D01*
X137807159Y-112485464D01*
X137681718Y-112581718D01*
X137585464Y-112707159D01*
X137524956Y-112853238D01*
X137504318Y-113010000D01*
X137524956Y-113166762D01*
X137585464Y-113312841D01*
X137590491Y-113319392D01*
X137666695Y-113418703D01*
X137681718Y-113438282D01*
X137698147Y-113450888D01*
X137707805Y-113458299D01*
X137749672Y-113515637D01*
X137757100Y-113558261D01*
X137757100Y-114241634D01*
X137737098Y-114309755D01*
X137720195Y-114330729D01*
X137534124Y-114516800D01*
X137471812Y-114550826D01*
X137400997Y-114545761D01*
X137389699Y-114540907D01*
X137385305Y-114538759D01*
X137385304Y-114538759D01*
X137376518Y-114534464D01*
X137346027Y-114530016D01*
X137312744Y-114525160D01*
X137312740Y-114525160D01*
X137308218Y-114524500D01*
X135991782Y-114524500D01*
X135987232Y-114525170D01*
X135987229Y-114525170D01*
X135932574Y-114533216D01*
X135932573Y-114533216D01*
X135922888Y-114534642D01*
X135896300Y-114547696D01*
X135827493Y-114581478D01*
X135827491Y-114581479D01*
X135818145Y-114586068D01*
X135810787Y-114593438D01*
X135810788Y-114593438D01*
X135743976Y-114660367D01*
X135735707Y-114668650D01*
X135731134Y-114678006D01*
X135731133Y-114678007D01*
X135721237Y-114698252D01*
X135684464Y-114773482D01*
X135683052Y-114783162D01*
X135675422Y-114835464D01*
X135674500Y-114841782D01*
X135674500Y-115208218D01*
X135675170Y-115212768D01*
X135675170Y-115212771D01*
X135679181Y-115240018D01*
X135684642Y-115277112D01*
X135703919Y-115316375D01*
X135731167Y-115371872D01*
X135736068Y-115381855D01*
X135743438Y-115389212D01*
X135790111Y-115435804D01*
X135824190Y-115498087D01*
X135819187Y-115568907D01*
X135790267Y-115613994D01*
X135743065Y-115661279D01*
X135735707Y-115668650D01*
X135731134Y-115678006D01*
X135731133Y-115678007D01*
X135715270Y-115710460D01*
X135684464Y-115773482D01*
X135683052Y-115783162D01*
X135676156Y-115830433D01*
X135674500Y-115841782D01*
X135674500Y-116208218D01*
X135675170Y-116212768D01*
X135675170Y-116212771D01*
X135677149Y-116226211D01*
X135684642Y-116277112D01*
X135701738Y-116311933D01*
X135729473Y-116368422D01*
X135736068Y-116381855D01*
X135743438Y-116389212D01*
X135790111Y-116435804D01*
X135824190Y-116498087D01*
X135819187Y-116568907D01*
X135790269Y-116613992D01*
X135788247Y-116616018D01*
X135773796Y-116630495D01*
X135769184Y-116635115D01*
X135706902Y-116669196D01*
X135680008Y-116672100D01*
X134983366Y-116672100D01*
X134915245Y-116652098D01*
X134894271Y-116635195D01*
X134545161Y-116286085D01*
X134532828Y-116270816D01*
X134529776Y-116267462D01*
X134524125Y-116258710D01*
X134500001Y-116239692D01*
X134496034Y-116236166D01*
X134495948Y-116236267D01*
X134491985Y-116232909D01*
X134488307Y-116229231D01*
X134473873Y-116218916D01*
X134469143Y-116215365D01*
X134454234Y-116203612D01*
X134431862Y-116185975D01*
X134423827Y-116183153D01*
X134416901Y-116178204D01*
X134406930Y-116175222D01*
X134406926Y-116175220D01*
X134371424Y-116164603D01*
X134365808Y-116162779D01*
X134321013Y-116147048D01*
X134315841Y-116146600D01*
X134313137Y-116146600D01*
X134310905Y-116146504D01*
X134310405Y-116146354D01*
X134310407Y-116146316D01*
X134310243Y-116146306D01*
X134304342Y-116144541D01*
X134254946Y-116146482D01*
X134254412Y-116146503D01*
X134249465Y-116146600D01*
X133616875Y-116146600D01*
X133548754Y-116126598D01*
X133516913Y-116097305D01*
X133496896Y-116071218D01*
X133466242Y-116047696D01*
X133415829Y-116009013D01*
X133371455Y-115974964D01*
X133225376Y-115914456D01*
X133068614Y-115893818D01*
X132911852Y-115914456D01*
X132765773Y-115974964D01*
X132640332Y-116071218D01*
X132544078Y-116196659D01*
X132483570Y-116342738D01*
X132462932Y-116499500D01*
X132483570Y-116656262D01*
X132544078Y-116802341D01*
X132640332Y-116927782D01*
X132765773Y-117024036D01*
X132911852Y-117084544D01*
X132920040Y-117085622D01*
X132971889Y-117092448D01*
X133068614Y-117105182D01*
X133166698Y-117092269D01*
X133236846Y-117103208D01*
X133272239Y-117128096D01*
X134171823Y-118027680D01*
X134205849Y-118089992D01*
X134200784Y-118160807D01*
X134158237Y-118217643D01*
X134130947Y-118233183D01*
X134084793Y-118252301D01*
X134084788Y-118252304D01*
X134077159Y-118255464D01*
X134057343Y-118270669D01*
X134041767Y-118282621D01*
X133975546Y-118308221D01*
X133905997Y-118293956D01*
X133865100Y-118259362D01*
X133861950Y-118255256D01*
X133778282Y-118146218D01*
X133652841Y-118049964D01*
X133506762Y-117989456D01*
X133350000Y-117968818D01*
X133193238Y-117989456D01*
X133047159Y-118049964D01*
X132953807Y-118121595D01*
X132951373Y-118123463D01*
X132885152Y-118149063D01*
X132874669Y-118149500D01*
X129919969Y-118149500D01*
X129851848Y-118129498D01*
X129805355Y-118075842D01*
X129795251Y-118005568D01*
X129820007Y-117946796D01*
X129909530Y-117830127D01*
X129909532Y-117830124D01*
X129914560Y-117823571D01*
X129975068Y-117677492D01*
X129977203Y-117661279D01*
X129994628Y-117528918D01*
X129995706Y-117520730D01*
X129991414Y-117488130D01*
X130002353Y-117417982D01*
X130027241Y-117382589D01*
X130141749Y-117268081D01*
X130157018Y-117255748D01*
X130160372Y-117252696D01*
X130169124Y-117247045D01*
X130188142Y-117222921D01*
X130191668Y-117218954D01*
X130191567Y-117218868D01*
X130194925Y-117214905D01*
X130198603Y-117211227D01*
X130208918Y-117196793D01*
X130212469Y-117192063D01*
X130221481Y-117180631D01*
X130241859Y-117154782D01*
X130244681Y-117146747D01*
X130249630Y-117139821D01*
X130252612Y-117129850D01*
X130252614Y-117129846D01*
X130262246Y-117097637D01*
X130263232Y-117094339D01*
X130265055Y-117088728D01*
X130280786Y-117043933D01*
X130281234Y-117038761D01*
X130281234Y-117036057D01*
X130281330Y-117033825D01*
X130281480Y-117033325D01*
X130281518Y-117033327D01*
X130281528Y-117033163D01*
X130283293Y-117027262D01*
X130281331Y-116977331D01*
X130281234Y-116972385D01*
X130281234Y-115882623D01*
X130301236Y-115814502D01*
X130318139Y-115793528D01*
X130484085Y-115627582D01*
X130546397Y-115593556D01*
X130558367Y-115591551D01*
X130596095Y-115587086D01*
X130603771Y-115583400D01*
X130612169Y-115582002D01*
X130653938Y-115559465D01*
X130659211Y-115556777D01*
X130702003Y-115536229D01*
X130705977Y-115532889D01*
X130707915Y-115530951D01*
X130709531Y-115529469D01*
X130709993Y-115529220D01*
X130710019Y-115529249D01*
X130710146Y-115529137D01*
X130715564Y-115526214D01*
X130724302Y-115516762D01*
X130749485Y-115489518D01*
X130752915Y-115485951D01*
X131708600Y-114530266D01*
X131770912Y-114496240D01*
X131841727Y-114501305D01*
X131874398Y-114519398D01*
X131900606Y-114539508D01*
X131907159Y-114544536D01*
X132053238Y-114605044D01*
X132210000Y-114625682D01*
X132218188Y-114624604D01*
X132358574Y-114606122D01*
X132366762Y-114605044D01*
X132512841Y-114544536D01*
X132638282Y-114448282D01*
X132734536Y-114322841D01*
X132795044Y-114176762D01*
X132815682Y-114020000D01*
X132802643Y-113920962D01*
X132796122Y-113871426D01*
X132795044Y-113863238D01*
X132734536Y-113717159D01*
X132725676Y-113705612D01*
X132709398Y-113684398D01*
X132683798Y-113618177D01*
X132698063Y-113548629D01*
X132720266Y-113518600D01*
X133179061Y-113059805D01*
X133241373Y-113025779D01*
X133268156Y-113022900D01*
X135751739Y-113022900D01*
X135819860Y-113042902D01*
X135851701Y-113072195D01*
X135871718Y-113098282D01*
X135997159Y-113194536D01*
X136143238Y-113255044D01*
X136300000Y-113275682D01*
X136308188Y-113274604D01*
X136448574Y-113256122D01*
X136456762Y-113255044D01*
X136602841Y-113194536D01*
X136728282Y-113098282D01*
X136824536Y-112972841D01*
X136885044Y-112826762D01*
X136905682Y-112670000D01*
X136885044Y-112513238D01*
X136824536Y-112367159D01*
X136728282Y-112241718D01*
X136602841Y-112145464D01*
X136456762Y-112084956D01*
X136300000Y-112064318D01*
X136291812Y-112065396D01*
X136283554Y-112065396D01*
X136283554Y-112063781D01*
X136222803Y-112054310D01*
X136169702Y-112007184D01*
X136150500Y-111940325D01*
X136150500Y-107652370D01*
X136150696Y-107649695D01*
X136152426Y-107644658D01*
X136150589Y-107595729D01*
X136150500Y-107591003D01*
X136150500Y-107572052D01*
X136149618Y-107567319D01*
X136149390Y-107563792D01*
X136148663Y-107544420D01*
X136148662Y-107544418D01*
X136148226Y-107532792D01*
X136143632Y-107522100D01*
X136142595Y-107517497D01*
X136139038Y-107505786D01*
X136137339Y-107501383D01*
X136135209Y-107489947D01*
X136122272Y-107468959D01*
X136113769Y-107452589D01*
X136107548Y-107438109D01*
X136107545Y-107438104D01*
X136104036Y-107429937D01*
X136100023Y-107425051D01*
X136097840Y-107422868D01*
X136095776Y-107420592D01*
X136095937Y-107420446D01*
X136088835Y-107411461D01*
X136082571Y-107404554D01*
X136076468Y-107394652D01*
X136054689Y-107378091D01*
X136041868Y-107366896D01*
X135908596Y-107233624D01*
X135874571Y-107171313D01*
X135872769Y-107128083D01*
X135874108Y-107117917D01*
X135885682Y-107030000D01*
X135869058Y-106903727D01*
X135866122Y-106881426D01*
X135865044Y-106873238D01*
X135804536Y-106727159D01*
X135708282Y-106601718D01*
X135582841Y-106505464D01*
X135436762Y-106444956D01*
X135420614Y-106442830D01*
X135288188Y-106425396D01*
X135280000Y-106424318D01*
X135271812Y-106425396D01*
X135139387Y-106442830D01*
X135123238Y-106444956D01*
X134977159Y-106505464D01*
X134851718Y-106601718D01*
X134839779Y-106617278D01*
X134831701Y-106627805D01*
X134774363Y-106669672D01*
X134731739Y-106677100D01*
X132681083Y-106677100D01*
X132661575Y-106675024D01*
X132657035Y-106674810D01*
X132646854Y-106672618D01*
X132624289Y-106675289D01*
X132616358Y-106676227D01*
X132611050Y-106676540D01*
X132611061Y-106676672D01*
X132605883Y-106677100D01*
X132600682Y-106677100D01*
X132595553Y-106677954D01*
X132595550Y-106677954D01*
X132583186Y-106680012D01*
X132577307Y-106680849D01*
X132530183Y-106686426D01*
X132522507Y-106690112D01*
X132514109Y-106691510D01*
X132504945Y-106696455D01*
X132504944Y-106696455D01*
X132472340Y-106714047D01*
X132467067Y-106716735D01*
X132424275Y-106737283D01*
X132420301Y-106740623D01*
X132418363Y-106742561D01*
X132416747Y-106744043D01*
X132416285Y-106744292D01*
X132416259Y-106744263D01*
X132416132Y-106744375D01*
X132410714Y-106747298D01*
X132403644Y-106754946D01*
X132403643Y-106754947D01*
X132376793Y-106783994D01*
X132373363Y-106787561D01*
X131288985Y-107871939D01*
X131273716Y-107884272D01*
X131270362Y-107887324D01*
X131261610Y-107892975D01*
X131242592Y-107917099D01*
X131239066Y-107921066D01*
X131239167Y-107921152D01*
X131235809Y-107925115D01*
X131232131Y-107928793D01*
X131221816Y-107943227D01*
X131218265Y-107947957D01*
X131188875Y-107985238D01*
X131186053Y-107993273D01*
X131181104Y-108000199D01*
X131178122Y-108010170D01*
X131178120Y-108010174D01*
X131167503Y-108045676D01*
X131165679Y-108051292D01*
X131149948Y-108096087D01*
X131149500Y-108101259D01*
X131149500Y-108103963D01*
X131149404Y-108106195D01*
X131149254Y-108106695D01*
X131149216Y-108106693D01*
X131149206Y-108106857D01*
X131147441Y-108112758D01*
X131149054Y-108153796D01*
X131149403Y-108162688D01*
X131149500Y-108167635D01*
X131149500Y-108362789D01*
X131129498Y-108430910D01*
X131112595Y-108451884D01*
X130952384Y-108612095D01*
X130890072Y-108646121D01*
X130863289Y-108649000D01*
X130631000Y-108649000D01*
X130566010Y-108630946D01*
X130546384Y-108619130D01*
X130538117Y-108613700D01*
X130527337Y-108605997D01*
X130505626Y-108590482D01*
X130495644Y-108587497D01*
X130492311Y-108585864D01*
X130488856Y-108584496D01*
X130479930Y-108579122D01*
X130445624Y-108571736D01*
X130440915Y-108570722D01*
X130431336Y-108568262D01*
X130403047Y-108559802D01*
X130403043Y-108559801D01*
X130393067Y-108556818D01*
X130382663Y-108557227D01*
X130378992Y-108556763D01*
X130375259Y-108556587D01*
X130365077Y-108554395D01*
X130354735Y-108555619D01*
X130325426Y-108559087D01*
X130315568Y-108559863D01*
X130286077Y-108561022D01*
X130286076Y-108561022D01*
X130275672Y-108561431D01*
X130265958Y-108565188D01*
X130262314Y-108565943D01*
X130258751Y-108566978D01*
X130248405Y-108568203D01*
X130216957Y-108583305D01*
X130212415Y-108585486D01*
X130203347Y-108589411D01*
X130166099Y-108603820D01*
X130158127Y-108610520D01*
X130153513Y-108613249D01*
X130152443Y-108613821D01*
X130149645Y-108615628D01*
X130142498Y-108619060D01*
X130138524Y-108622400D01*
X130113530Y-108647394D01*
X130105510Y-108654750D01*
X130087078Y-108670244D01*
X130076166Y-108679416D01*
X130070794Y-108688338D01*
X130064030Y-108696258D01*
X130063433Y-108695748D01*
X130057182Y-108703742D01*
X129107995Y-109652929D01*
X129045683Y-109686955D01*
X128974868Y-109681890D01*
X128918032Y-109639343D01*
X128893221Y-109572823D01*
X128892900Y-109563834D01*
X128892900Y-106725425D01*
X128893195Y-106720741D01*
X128894959Y-106714842D01*
X128892997Y-106664911D01*
X128892900Y-106659965D01*
X128892900Y-105910659D01*
X128912902Y-105842538D01*
X128966558Y-105796045D01*
X128977152Y-105791776D01*
X128994296Y-105785756D01*
X128994302Y-105785753D01*
X129003184Y-105782634D01*
X129112150Y-105702150D01*
X129124665Y-105685206D01*
X129187041Y-105600757D01*
X129187042Y-105600754D01*
X129192634Y-105593184D01*
X129237519Y-105465369D01*
X129240500Y-105433834D01*
X129240500Y-104326166D01*
X129237519Y-104294631D01*
X129192634Y-104166816D01*
X129187042Y-104159246D01*
X129187041Y-104159243D01*
X129171985Y-104138860D01*
X129147602Y-104072182D01*
X129163138Y-104002906D01*
X129213662Y-103953027D01*
X129273336Y-103938000D01*
X133753248Y-103938000D01*
X133821369Y-103958002D01*
G37*
%TD.AperFunction*%
%TA.AperFunction,Conductor*%
G36*
X122962093Y-108607516D02*
G01*
X122997291Y-108632311D01*
X124004322Y-109639343D01*
X124935595Y-110570616D01*
X124969621Y-110632928D01*
X124972500Y-110659711D01*
X124972500Y-111670206D01*
X124972020Y-111681189D01*
X124968713Y-111718984D01*
X124978055Y-111753846D01*
X124978534Y-111755635D01*
X124980913Y-111766367D01*
X124987503Y-111803739D01*
X124993014Y-111813285D01*
X124994240Y-111816653D01*
X124995754Y-111819899D01*
X124998606Y-111830543D01*
X125020377Y-111861635D01*
X125026275Y-111870894D01*
X125045250Y-111903760D01*
X125053695Y-111910846D01*
X125074329Y-111928160D01*
X125082433Y-111935587D01*
X126110095Y-112963250D01*
X126144121Y-113025562D01*
X126147000Y-113052345D01*
X126147000Y-113302249D01*
X126126998Y-113370370D01*
X126097704Y-113402211D01*
X126052771Y-113436689D01*
X126052768Y-113436692D01*
X126046218Y-113441718D01*
X126041192Y-113448268D01*
X126041191Y-113448269D01*
X126033495Y-113458299D01*
X125949964Y-113567159D01*
X125889456Y-113713238D01*
X125868818Y-113870000D01*
X125889456Y-114026762D01*
X125949964Y-114172841D01*
X126046218Y-114298282D01*
X126171659Y-114394536D01*
X126317738Y-114455044D01*
X126474500Y-114475682D01*
X126482688Y-114474604D01*
X126623074Y-114456122D01*
X126631262Y-114455044D01*
X126777341Y-114394536D01*
X126902782Y-114298282D01*
X126999036Y-114172841D01*
X127059544Y-114026762D01*
X127080182Y-113870000D01*
X127059544Y-113713238D01*
X127033562Y-113650512D01*
X127025973Y-113579924D01*
X127060876Y-113513200D01*
X128833415Y-111740661D01*
X128848684Y-111728328D01*
X128852038Y-111725276D01*
X128860790Y-111719625D01*
X128879808Y-111695501D01*
X128883334Y-111691534D01*
X128883233Y-111691448D01*
X128886591Y-111687485D01*
X128890269Y-111683807D01*
X128900584Y-111669373D01*
X128904135Y-111664643D01*
X128927077Y-111635541D01*
X128933525Y-111627362D01*
X128936347Y-111619327D01*
X128941296Y-111612401D01*
X128944278Y-111602430D01*
X128944280Y-111602426D01*
X128954897Y-111566924D01*
X128956721Y-111561308D01*
X128972452Y-111516513D01*
X128972900Y-111511341D01*
X128972900Y-111508637D01*
X128972996Y-111506405D01*
X128973146Y-111505905D01*
X128973184Y-111505907D01*
X128973194Y-111505743D01*
X128974959Y-111499842D01*
X128972997Y-111449911D01*
X128972900Y-111444965D01*
X128972900Y-111188261D01*
X128992902Y-111120140D01*
X129022195Y-111088299D01*
X129048282Y-111068282D01*
X129144536Y-110942841D01*
X129205044Y-110796762D01*
X129225682Y-110640000D01*
X129221390Y-110607400D01*
X129232329Y-110537252D01*
X129257217Y-110501859D01*
X130367371Y-109391705D01*
X130429683Y-109357679D01*
X130456466Y-109354800D01*
X131010572Y-109354800D01*
X131030085Y-109356877D01*
X131034623Y-109357091D01*
X131044801Y-109359282D01*
X131068291Y-109356502D01*
X131075297Y-109355673D01*
X131080605Y-109355360D01*
X131080594Y-109355228D01*
X131085772Y-109354800D01*
X131090973Y-109354800D01*
X131096102Y-109353946D01*
X131096105Y-109353946D01*
X131108469Y-109351888D01*
X131114348Y-109351051D01*
X131117414Y-109350688D01*
X131161472Y-109345474D01*
X131169148Y-109341788D01*
X131177546Y-109340390D01*
X131219315Y-109317853D01*
X131224588Y-109315165D01*
X131267380Y-109294617D01*
X131271354Y-109291277D01*
X131272503Y-109290128D01*
X131275658Y-109288091D01*
X131343736Y-109267946D01*
X131411899Y-109287806D01*
X131458504Y-109341364D01*
X131470000Y-109393946D01*
X131470000Y-111790000D01*
X132029167Y-111782340D01*
X132589929Y-111774659D01*
X132658318Y-111793726D01*
X132705541Y-111846740D01*
X132716606Y-111916869D01*
X132688230Y-111981326D01*
X132684652Y-111983532D01*
X132678232Y-111991975D01*
X132678229Y-111991978D01*
X132668094Y-112005307D01*
X132656893Y-112018135D01*
X130221322Y-114453707D01*
X130159010Y-114487732D01*
X130132227Y-114490612D01*
X129894659Y-114490612D01*
X129891982Y-114490415D01*
X129886945Y-114488686D01*
X129875324Y-114489122D01*
X129875322Y-114489122D01*
X129838017Y-114490523D01*
X129833290Y-114490612D01*
X129814339Y-114490612D01*
X129809606Y-114491494D01*
X129806079Y-114491722D01*
X129786707Y-114492449D01*
X129786705Y-114492450D01*
X129775079Y-114492886D01*
X129764387Y-114497480D01*
X129759784Y-114498517D01*
X129748074Y-114502074D01*
X129743671Y-114503773D01*
X129732234Y-114505903D01*
X129722333Y-114512006D01*
X129722330Y-114512007D01*
X129711243Y-114518841D01*
X129694872Y-114527345D01*
X129680393Y-114533566D01*
X129680390Y-114533568D01*
X129672225Y-114537076D01*
X129667338Y-114541089D01*
X129665143Y-114543284D01*
X129662873Y-114545342D01*
X129662726Y-114545180D01*
X129653748Y-114552277D01*
X129646841Y-114558541D01*
X129636939Y-114564644D01*
X129620378Y-114586423D01*
X129609183Y-114599244D01*
X129482767Y-114725661D01*
X129378127Y-114830301D01*
X129315814Y-114864326D01*
X129272586Y-114866128D01*
X129174502Y-114853215D01*
X129166314Y-114854293D01*
X129076418Y-114866128D01*
X129017740Y-114873853D01*
X128871661Y-114934361D01*
X128838941Y-114959468D01*
X128761970Y-115018530D01*
X128746220Y-115030615D01*
X128649966Y-115156056D01*
X128589458Y-115302135D01*
X128588380Y-115310323D01*
X128581345Y-115363759D01*
X128568820Y-115458897D01*
X128589458Y-115615659D01*
X128649966Y-115761738D01*
X128746220Y-115887179D01*
X128871661Y-115983433D01*
X129017740Y-116043941D01*
X129174502Y-116064579D01*
X129182690Y-116063501D01*
X129323076Y-116045019D01*
X129331264Y-116043941D01*
X129338891Y-116040782D01*
X129338894Y-116040781D01*
X129401216Y-116014966D01*
X129471806Y-116007377D01*
X129535293Y-116039156D01*
X129571520Y-116100214D01*
X129575434Y-116131375D01*
X129575434Y-116784054D01*
X129555432Y-116852175D01*
X129538529Y-116873149D01*
X129528165Y-116883513D01*
X129465853Y-116917539D01*
X129422625Y-116919340D01*
X129390024Y-116915048D01*
X129233262Y-116935686D01*
X129087183Y-116996194D01*
X128961742Y-117092448D01*
X128865488Y-117217889D01*
X128862329Y-117225517D01*
X128862326Y-117225521D01*
X128848874Y-117257999D01*
X128842773Y-117272729D01*
X128837313Y-117285910D01*
X128792765Y-117341191D01*
X128725402Y-117363613D01*
X128656611Y-117346055D01*
X128631809Y-117326788D01*
X126439569Y-115134548D01*
X126437813Y-115132514D01*
X126435475Y-115127731D01*
X126399573Y-115094427D01*
X126396168Y-115091147D01*
X126382773Y-115077752D01*
X126378803Y-115075028D01*
X126376155Y-115072703D01*
X126361931Y-115059508D01*
X126361928Y-115059506D01*
X126353404Y-115051599D01*
X126342600Y-115047289D01*
X126338611Y-115044767D01*
X126327823Y-115039006D01*
X126323498Y-115037089D01*
X126313904Y-115030508D01*
X126302585Y-115027822D01*
X126302583Y-115027821D01*
X126289923Y-115024817D01*
X126272326Y-115019252D01*
X126257688Y-115013412D01*
X126257685Y-115013411D01*
X126249428Y-115010117D01*
X126243135Y-115009500D01*
X126240056Y-115009500D01*
X126236983Y-115009350D01*
X126236994Y-115009134D01*
X126225619Y-115007802D01*
X126216304Y-115007346D01*
X126204984Y-115004660D01*
X126193455Y-115006229D01*
X126193454Y-115006229D01*
X126177877Y-115008349D01*
X126160886Y-115009500D01*
X124260103Y-115009500D01*
X124191982Y-114989498D01*
X124160140Y-114960204D01*
X124143305Y-114938264D01*
X124138282Y-114931718D01*
X124109979Y-114910000D01*
X124064135Y-114874823D01*
X124012841Y-114835464D01*
X123866762Y-114774956D01*
X123710000Y-114754318D01*
X123553238Y-114774956D01*
X123407159Y-114835464D01*
X123355865Y-114874823D01*
X123310022Y-114910000D01*
X123281718Y-114931718D01*
X123185464Y-115057159D01*
X123124956Y-115203238D01*
X123104318Y-115360000D01*
X123124956Y-115516762D01*
X123128116Y-115524391D01*
X123130077Y-115529125D01*
X123185464Y-115662841D01*
X123281718Y-115788282D01*
X123407159Y-115884536D01*
X123553238Y-115945044D01*
X123710000Y-115965682D01*
X123718188Y-115964604D01*
X123858574Y-115946122D01*
X123866762Y-115945044D01*
X124012841Y-115884536D01*
X124138282Y-115788282D01*
X124169396Y-115747734D01*
X124234536Y-115662841D01*
X124236631Y-115664448D01*
X124278520Y-115624507D01*
X124336257Y-115610500D01*
X126013389Y-115610500D01*
X126081510Y-115630502D01*
X126102484Y-115647405D01*
X129080531Y-118625452D01*
X129082287Y-118627486D01*
X129084625Y-118632269D01*
X129093154Y-118640181D01*
X129093155Y-118640182D01*
X129120527Y-118665573D01*
X129123932Y-118668853D01*
X129137327Y-118682248D01*
X129141297Y-118684972D01*
X129143945Y-118687297D01*
X129166696Y-118708401D01*
X129177503Y-118712713D01*
X129181488Y-118715232D01*
X129192297Y-118721004D01*
X129196602Y-118722912D01*
X129206196Y-118729493D01*
X129217517Y-118732179D01*
X129218926Y-118732804D01*
X129273102Y-118778690D01*
X129293870Y-118846581D01*
X129274637Y-118914922D01*
X129221508Y-118962017D01*
X129167878Y-118974000D01*
X127821161Y-118974000D01*
X127753040Y-118953998D01*
X127732066Y-118937095D01*
X127458596Y-118663625D01*
X127424570Y-118601313D01*
X127422769Y-118558084D01*
X127434604Y-118468188D01*
X127435682Y-118460000D01*
X127415044Y-118303238D01*
X127354536Y-118157159D01*
X127258282Y-118031718D01*
X127132841Y-117935464D01*
X126986762Y-117874956D01*
X126830000Y-117854318D01*
X126673238Y-117874956D01*
X126527159Y-117935464D01*
X126401718Y-118031718D01*
X126305464Y-118157159D01*
X126244956Y-118303238D01*
X126224318Y-118460000D01*
X126225396Y-118468188D01*
X126238632Y-118568728D01*
X126227693Y-118638877D01*
X126180564Y-118691975D01*
X126130156Y-118710096D01*
X126093238Y-118714956D01*
X125947159Y-118775464D01*
X125821718Y-118871718D01*
X125725464Y-118997159D01*
X125664956Y-119143238D01*
X125644318Y-119300000D01*
X125645396Y-119308186D01*
X125645396Y-119308188D01*
X125663445Y-119445281D01*
X125664956Y-119456762D01*
X125668116Y-119464390D01*
X125668117Y-119464395D01*
X125693491Y-119525654D01*
X125701080Y-119596244D01*
X125669300Y-119659730D01*
X125608242Y-119695957D01*
X125537290Y-119693423D01*
X125487989Y-119662967D01*
X122834905Y-117009884D01*
X122800879Y-116947572D01*
X122798000Y-116920789D01*
X122798000Y-108894240D01*
X122798111Y-108888964D01*
X122799325Y-108860000D01*
X122800549Y-108830794D01*
X122796163Y-108812093D01*
X122791282Y-108791280D01*
X122789119Y-108779611D01*
X122783609Y-108739390D01*
X122787051Y-108738918D01*
X122787795Y-108684268D01*
X122826987Y-108625069D01*
X122891963Y-108596457D01*
X122962093Y-108607516D01*
G37*
%TD.AperFunction*%
%TA.AperFunction,Conductor*%
G36*
X139555241Y-99777466D02*
G01*
X139560810Y-99777476D01*
X139574641Y-99780656D01*
X139588483Y-99777523D01*
X139602671Y-99777548D01*
X139602670Y-99778297D01*
X139610610Y-99777654D01*
X139844567Y-99791806D01*
X139859671Y-99793640D01*
X140117808Y-99840945D01*
X140132581Y-99844586D01*
X140383145Y-99922665D01*
X140397363Y-99928057D01*
X140548694Y-99996166D01*
X140636679Y-100035765D01*
X140650152Y-100042836D01*
X140874741Y-100178605D01*
X140887263Y-100187248D01*
X141093857Y-100349104D01*
X141105245Y-100359194D01*
X141290806Y-100544755D01*
X141300896Y-100556143D01*
X141462752Y-100762737D01*
X141471394Y-100775258D01*
X141607164Y-100999848D01*
X141614234Y-101013319D01*
X141690006Y-101181676D01*
X141721941Y-101252633D01*
X141727335Y-101266855D01*
X141782619Y-101444266D01*
X141805414Y-101517419D01*
X141809055Y-101532192D01*
X141856360Y-101790329D01*
X141858194Y-101805433D01*
X141872319Y-102038939D01*
X141872549Y-102046768D01*
X141872524Y-102060811D01*
X141869344Y-102074641D01*
X141872476Y-102088480D01*
X141872467Y-102093311D01*
X141874500Y-102111504D01*
X141874500Y-104548500D01*
X141854498Y-104616621D01*
X141800842Y-104663114D01*
X141748500Y-104674500D01*
X139405252Y-104674500D01*
X139399184Y-104675707D01*
X139358939Y-104683712D01*
X139358938Y-104683712D01*
X139346769Y-104686133D01*
X139280448Y-104730448D01*
X139236133Y-104796769D01*
X139224500Y-104855252D01*
X139224500Y-105281000D01*
X139204498Y-105349121D01*
X139150842Y-105395614D01*
X139098500Y-105407000D01*
X138388684Y-105407000D01*
X138340466Y-105397409D01*
X138209392Y-105343116D01*
X138209389Y-105343115D01*
X138201762Y-105339956D01*
X138045000Y-105319318D01*
X137888238Y-105339956D01*
X137880611Y-105343115D01*
X137880608Y-105343116D01*
X137749534Y-105397409D01*
X137701316Y-105407000D01*
X136791752Y-105407000D01*
X136723631Y-105386998D01*
X136702657Y-105370095D01*
X134396374Y-103063812D01*
X134392721Y-103060003D01*
X134359108Y-103023449D01*
X134353290Y-103017122D01*
X134318784Y-102995727D01*
X134309015Y-102989012D01*
X134283525Y-102969663D01*
X134283518Y-102969659D01*
X134276679Y-102964468D01*
X134264142Y-102959504D01*
X134244134Y-102949441D01*
X134239970Y-102946859D01*
X134239964Y-102946856D01*
X134232670Y-102942334D01*
X134193693Y-102931010D01*
X134182467Y-102927166D01*
X134152714Y-102915386D01*
X134152706Y-102915384D01*
X134144722Y-102912223D01*
X134136177Y-102911325D01*
X134136174Y-102911324D01*
X134131308Y-102910812D01*
X134109336Y-102906502D01*
X134102720Y-102904580D01*
X134102718Y-102904580D01*
X134096382Y-102902739D01*
X134086318Y-102902000D01*
X134054062Y-102902000D01*
X134040891Y-102901310D01*
X134003576Y-102897388D01*
X133995110Y-102898820D01*
X133995107Y-102898820D01*
X133986736Y-102900236D01*
X133965724Y-102902000D01*
X127938680Y-102902000D01*
X127870559Y-102881998D01*
X127824066Y-102828342D01*
X127813962Y-102758068D01*
X127822269Y-102727787D01*
X127855044Y-102648662D01*
X127875682Y-102491900D01*
X127855044Y-102335138D01*
X127794536Y-102189059D01*
X127698282Y-102063618D01*
X127619796Y-102003393D01*
X127577929Y-101946056D01*
X127570500Y-101903431D01*
X127570500Y-101599060D01*
X127590502Y-101530939D01*
X127644158Y-101484446D01*
X127654752Y-101480177D01*
X127680594Y-101471102D01*
X127733184Y-101452634D01*
X127740754Y-101447043D01*
X127740761Y-101447039D01*
X127830141Y-101381021D01*
X127896819Y-101356638D01*
X127966095Y-101372175D01*
X127979859Y-101381021D01*
X128069239Y-101447039D01*
X128069246Y-101447043D01*
X128076816Y-101452634D01*
X128204631Y-101497519D01*
X128212277Y-101498242D01*
X128212278Y-101498242D01*
X128218248Y-101498806D01*
X128236166Y-101500500D01*
X128279234Y-101500500D01*
X128347355Y-101520502D01*
X128368329Y-101537405D01*
X128994339Y-102163415D01*
X129006672Y-102178684D01*
X129009724Y-102182038D01*
X129015375Y-102190790D01*
X129039499Y-102209808D01*
X129043466Y-102213334D01*
X129043552Y-102213233D01*
X129047515Y-102216591D01*
X129051193Y-102220269D01*
X129065627Y-102230584D01*
X129070357Y-102234135D01*
X129107638Y-102263525D01*
X129115673Y-102266347D01*
X129122599Y-102271296D01*
X129132570Y-102274278D01*
X129132574Y-102274280D01*
X129168076Y-102284897D01*
X129173692Y-102286721D01*
X129218487Y-102302452D01*
X129223659Y-102302900D01*
X129226363Y-102302900D01*
X129228595Y-102302996D01*
X129229095Y-102303146D01*
X129229093Y-102303184D01*
X129229257Y-102303194D01*
X129235158Y-102304959D01*
X129285089Y-102302997D01*
X129290035Y-102302900D01*
X133868917Y-102302900D01*
X133888430Y-102304977D01*
X133892968Y-102305191D01*
X133903146Y-102307382D01*
X133923619Y-102304959D01*
X133933642Y-102303773D01*
X133938950Y-102303460D01*
X133938939Y-102303328D01*
X133944117Y-102302900D01*
X133949318Y-102302900D01*
X133954447Y-102302046D01*
X133954450Y-102302046D01*
X133966814Y-102299988D01*
X133972693Y-102299151D01*
X133975759Y-102298788D01*
X134019817Y-102293574D01*
X134027493Y-102289888D01*
X134035891Y-102288490D01*
X134055822Y-102277736D01*
X137520070Y-102277736D01*
X137520698Y-102290807D01*
X137532909Y-102545041D01*
X137585118Y-102807512D01*
X137675549Y-103059383D01*
X137689107Y-103084616D01*
X137745982Y-103190465D01*
X137802215Y-103295121D01*
X137805010Y-103298864D01*
X137805012Y-103298867D01*
X137889199Y-103411607D01*
X137962335Y-103509547D01*
X137965642Y-103512825D01*
X137965647Y-103512831D01*
X138149074Y-103694663D01*
X138152390Y-103697950D01*
X138368205Y-103856192D01*
X138372340Y-103858368D01*
X138372344Y-103858370D01*
X138501918Y-103926542D01*
X138605039Y-103980797D01*
X138609458Y-103982340D01*
X138853273Y-104067484D01*
X138853279Y-104067486D01*
X138857690Y-104069026D01*
X139120606Y-104118943D01*
X139247616Y-104123933D01*
X139383345Y-104129266D01*
X139383350Y-104129266D01*
X139388013Y-104129449D01*
X139483943Y-104118943D01*
X139649382Y-104100825D01*
X139649387Y-104100824D01*
X139654035Y-104100315D01*
X139769567Y-104069898D01*
X139908309Y-104033370D01*
X139912829Y-104032180D01*
X140046141Y-103974905D01*
X140154407Y-103928391D01*
X140154410Y-103928389D01*
X140158710Y-103926542D01*
X140162690Y-103924079D01*
X140162694Y-103924077D01*
X140382302Y-103788179D01*
X140382306Y-103788176D01*
X140386275Y-103785720D01*
X140460293Y-103723059D01*
X140586960Y-103615828D01*
X140586961Y-103615827D01*
X140590526Y-103612809D01*
X140684365Y-103505807D01*
X140763894Y-103415122D01*
X140763898Y-103415117D01*
X140766976Y-103411607D01*
X140778344Y-103393933D01*
X140909219Y-103190465D01*
X140909222Y-103190460D01*
X140911747Y-103186534D01*
X141021661Y-102942534D01*
X141094302Y-102684969D01*
X141112103Y-102545041D01*
X141127677Y-102422625D01*
X141127677Y-102422621D01*
X141128075Y-102419495D01*
X141130549Y-102325000D01*
X141128928Y-102303184D01*
X141111064Y-102062788D01*
X141111063Y-102062784D01*
X141110717Y-102058123D01*
X141100161Y-102011470D01*
X141061757Y-101841755D01*
X141051655Y-101797109D01*
X141049962Y-101792755D01*
X140956355Y-101552044D01*
X140956354Y-101552042D01*
X140954662Y-101547691D01*
X140945088Y-101530939D01*
X140895550Y-101444266D01*
X140821868Y-101315350D01*
X140656190Y-101105189D01*
X140461269Y-100921825D01*
X140241385Y-100769286D01*
X140228105Y-100762737D01*
X140005559Y-100652989D01*
X140005556Y-100652988D01*
X140001371Y-100650924D01*
X139746497Y-100569338D01*
X139595549Y-100544755D01*
X139486976Y-100527073D01*
X139486975Y-100527073D01*
X139482364Y-100526322D01*
X139348569Y-100524571D01*
X139219451Y-100522880D01*
X139219448Y-100522880D01*
X139214774Y-100522819D01*
X138949605Y-100558907D01*
X138945118Y-100560215D01*
X138945117Y-100560215D01*
X138913817Y-100569338D01*
X138692683Y-100633792D01*
X138688430Y-100635752D01*
X138688429Y-100635753D01*
X138636512Y-100659687D01*
X138449652Y-100745831D01*
X138445743Y-100748394D01*
X138229764Y-100889996D01*
X138229759Y-100890000D01*
X138225851Y-100892562D01*
X138185128Y-100928909D01*
X138051151Y-101048488D01*
X138026197Y-101070760D01*
X137855075Y-101276512D01*
X137852652Y-101280505D01*
X137719156Y-101500500D01*
X137716244Y-101505298D01*
X137714437Y-101509606D01*
X137714437Y-101509607D01*
X137675137Y-101603328D01*
X137612755Y-101752091D01*
X137611604Y-101756623D01*
X137611603Y-101756626D01*
X137557019Y-101971552D01*
X137546881Y-102011470D01*
X137520070Y-102277736D01*
X134055822Y-102277736D01*
X134067758Y-102271296D01*
X134077660Y-102265953D01*
X134082933Y-102263265D01*
X134125725Y-102242717D01*
X134129699Y-102239377D01*
X134131637Y-102237439D01*
X134133253Y-102235957D01*
X134133715Y-102235708D01*
X134133741Y-102235737D01*
X134133868Y-102235625D01*
X134139286Y-102232702D01*
X134147988Y-102223289D01*
X134173207Y-102196006D01*
X134176637Y-102192439D01*
X134753415Y-101615661D01*
X134768684Y-101603328D01*
X134772038Y-101600276D01*
X134780790Y-101594625D01*
X134799808Y-101570501D01*
X134803338Y-101566529D01*
X134803237Y-101566443D01*
X134806592Y-101562484D01*
X134810269Y-101558807D01*
X134813287Y-101554584D01*
X134813292Y-101554578D01*
X134820594Y-101544360D01*
X134824152Y-101539622D01*
X134827774Y-101535027D01*
X134884980Y-101494144D01*
X134950594Y-101471102D01*
X135003184Y-101452634D01*
X135010754Y-101447042D01*
X135010757Y-101447041D01*
X135104579Y-101377742D01*
X135112150Y-101372150D01*
X135151106Y-101319408D01*
X135187041Y-101270757D01*
X135187042Y-101270754D01*
X135192634Y-101263184D01*
X135237519Y-101135369D01*
X135240500Y-101103834D01*
X135240500Y-99996166D01*
X135237519Y-99964631D01*
X135230010Y-99943248D01*
X135226312Y-99872347D01*
X135261532Y-99810703D01*
X135324489Y-99777886D01*
X135348893Y-99775500D01*
X139537920Y-99775500D01*
X139555241Y-99777466D01*
G37*
%TD.AperFunction*%
%TA.AperFunction,Conductor*%
G36*
X119254228Y-99795502D02*
G01*
X119300721Y-99849158D01*
X119310825Y-99919432D01*
X119304990Y-99943248D01*
X119297481Y-99964631D01*
X119294500Y-99996166D01*
X119294500Y-101103834D01*
X119297481Y-101135369D01*
X119342366Y-101263184D01*
X119347958Y-101270754D01*
X119347959Y-101270757D01*
X119383894Y-101319408D01*
X119422850Y-101372150D01*
X119430421Y-101377742D01*
X119524243Y-101447041D01*
X119524246Y-101447042D01*
X119531816Y-101452634D01*
X119659631Y-101497519D01*
X119667277Y-101498242D01*
X119667278Y-101498242D01*
X119673248Y-101498806D01*
X119691166Y-101500500D01*
X120298834Y-101500500D01*
X120316752Y-101498806D01*
X120322722Y-101498242D01*
X120322723Y-101498242D01*
X120330369Y-101497519D01*
X120458184Y-101452634D01*
X120465754Y-101447043D01*
X120465761Y-101447039D01*
X120555141Y-101381021D01*
X120621819Y-101356638D01*
X120691095Y-101372175D01*
X120704859Y-101381021D01*
X120794239Y-101447039D01*
X120794246Y-101447043D01*
X120801816Y-101452634D01*
X120929631Y-101497519D01*
X120937277Y-101498242D01*
X120937278Y-101498242D01*
X120943248Y-101498806D01*
X120961166Y-101500500D01*
X121568834Y-101500500D01*
X121586752Y-101498806D01*
X121592722Y-101498242D01*
X121592723Y-101498242D01*
X121600369Y-101497519D01*
X121728184Y-101452634D01*
X121735754Y-101447043D01*
X121735761Y-101447039D01*
X121825141Y-101381021D01*
X121891819Y-101356638D01*
X121961095Y-101372175D01*
X121974859Y-101381021D01*
X122064239Y-101447039D01*
X122064246Y-101447043D01*
X122071816Y-101452634D01*
X122199631Y-101497519D01*
X122207277Y-101498242D01*
X122207278Y-101498242D01*
X122213248Y-101498806D01*
X122231166Y-101500500D01*
X122838834Y-101500500D01*
X122856752Y-101498806D01*
X122862722Y-101498242D01*
X122862723Y-101498242D01*
X122870369Y-101497519D01*
X122998184Y-101452634D01*
X123005754Y-101447042D01*
X123005757Y-101447041D01*
X123099579Y-101377742D01*
X123107150Y-101372150D01*
X123146106Y-101319408D01*
X123182041Y-101270757D01*
X123182042Y-101270754D01*
X123187634Y-101263184D01*
X123232519Y-101135369D01*
X123235500Y-101103834D01*
X123235500Y-99996166D01*
X123232519Y-99964631D01*
X123225010Y-99943248D01*
X123221312Y-99872347D01*
X123256532Y-99810703D01*
X123319489Y-99777886D01*
X123343893Y-99775500D01*
X125191107Y-99775500D01*
X125259228Y-99795502D01*
X125305721Y-99849158D01*
X125315825Y-99919432D01*
X125309990Y-99943248D01*
X125302481Y-99964631D01*
X125299500Y-99996166D01*
X125299500Y-101103834D01*
X125302481Y-101135369D01*
X125347366Y-101263184D01*
X125352958Y-101270754D01*
X125352959Y-101270757D01*
X125388894Y-101319408D01*
X125427850Y-101372150D01*
X125435421Y-101377742D01*
X125529243Y-101447041D01*
X125529246Y-101447042D01*
X125536816Y-101452634D01*
X125589406Y-101471102D01*
X125615248Y-101480177D01*
X125672894Y-101521620D01*
X125698982Y-101587650D01*
X125699500Y-101599060D01*
X125699500Y-101903431D01*
X125679498Y-101971552D01*
X125650205Y-102003393D01*
X125571718Y-102063618D01*
X125475464Y-102189059D01*
X125414956Y-102335138D01*
X125394318Y-102491900D01*
X125414956Y-102648662D01*
X125447729Y-102727784D01*
X125455318Y-102798371D01*
X125423539Y-102861858D01*
X125362481Y-102898086D01*
X125331320Y-102902000D01*
X124884255Y-102902000D01*
X124878978Y-102901889D01*
X124820794Y-102899450D01*
X124781265Y-102908721D01*
X124769603Y-102910882D01*
X124729390Y-102916391D01*
X124721506Y-102919803D01*
X124721505Y-102919803D01*
X124717018Y-102921745D01*
X124695746Y-102928780D01*
X124690986Y-102929896D01*
X124690981Y-102929898D01*
X124682620Y-102931859D01*
X124647041Y-102951419D01*
X124636396Y-102956634D01*
X124599139Y-102972756D01*
X124588656Y-102981245D01*
X124570074Y-102993731D01*
X124558252Y-103000231D01*
X124550613Y-103006825D01*
X124527811Y-103029627D01*
X124518010Y-103038453D01*
X124495518Y-103056666D01*
X124495516Y-103056668D01*
X124488844Y-103062071D01*
X124483870Y-103069070D01*
X124483869Y-103069071D01*
X124478948Y-103075996D01*
X124465337Y-103092101D01*
X122334543Y-105222895D01*
X122272231Y-105256921D01*
X122245448Y-105259800D01*
X109101100Y-105259800D01*
X109032979Y-105239798D01*
X108986486Y-105186142D01*
X108975100Y-105133800D01*
X108975100Y-104708052D01*
X108970740Y-104686133D01*
X108965888Y-104661739D01*
X108965888Y-104661738D01*
X108963467Y-104649569D01*
X108919152Y-104583248D01*
X108852831Y-104538933D01*
X108840662Y-104536512D01*
X108840661Y-104536512D01*
X108800416Y-104528507D01*
X108794348Y-104527300D01*
X106401500Y-104527300D01*
X106333379Y-104507298D01*
X106286886Y-104453642D01*
X106275500Y-104401300D01*
X106275500Y-102277736D01*
X107020070Y-102277736D01*
X107020698Y-102290807D01*
X107032909Y-102545041D01*
X107085118Y-102807512D01*
X107175549Y-103059383D01*
X107189107Y-103084616D01*
X107245982Y-103190465D01*
X107302215Y-103295121D01*
X107305010Y-103298864D01*
X107305012Y-103298867D01*
X107389199Y-103411607D01*
X107462335Y-103509547D01*
X107465642Y-103512825D01*
X107465647Y-103512831D01*
X107649074Y-103694663D01*
X107652390Y-103697950D01*
X107868205Y-103856192D01*
X107872340Y-103858368D01*
X107872344Y-103858370D01*
X108001918Y-103926542D01*
X108105039Y-103980797D01*
X108109458Y-103982340D01*
X108353273Y-104067484D01*
X108353279Y-104067486D01*
X108357690Y-104069026D01*
X108620606Y-104118943D01*
X108747616Y-104123933D01*
X108883345Y-104129266D01*
X108883350Y-104129266D01*
X108888013Y-104129449D01*
X108983943Y-104118943D01*
X109149382Y-104100825D01*
X109149387Y-104100824D01*
X109154035Y-104100315D01*
X109269567Y-104069898D01*
X109408309Y-104033370D01*
X109412829Y-104032180D01*
X109546141Y-103974905D01*
X109654407Y-103928391D01*
X109654410Y-103928389D01*
X109658710Y-103926542D01*
X109662690Y-103924079D01*
X109662694Y-103924077D01*
X109882302Y-103788179D01*
X109882306Y-103788176D01*
X109886275Y-103785720D01*
X109960293Y-103723059D01*
X110086960Y-103615828D01*
X110086961Y-103615827D01*
X110090526Y-103612809D01*
X110184365Y-103505807D01*
X110263894Y-103415122D01*
X110263898Y-103415117D01*
X110266976Y-103411607D01*
X110278344Y-103393933D01*
X110409219Y-103190465D01*
X110409222Y-103190460D01*
X110411747Y-103186534D01*
X110521661Y-102942534D01*
X110594302Y-102684969D01*
X110612103Y-102545041D01*
X110627677Y-102422625D01*
X110627677Y-102422621D01*
X110628075Y-102419495D01*
X110630549Y-102325000D01*
X110628928Y-102303184D01*
X110611064Y-102062788D01*
X110611063Y-102062784D01*
X110610717Y-102058123D01*
X110600161Y-102011470D01*
X110561757Y-101841755D01*
X110551655Y-101797109D01*
X110549962Y-101792755D01*
X110456355Y-101552044D01*
X110456354Y-101552042D01*
X110454662Y-101547691D01*
X110445088Y-101530939D01*
X110395550Y-101444266D01*
X110321868Y-101315350D01*
X110156190Y-101105189D01*
X109961269Y-100921825D01*
X109741385Y-100769286D01*
X109728105Y-100762737D01*
X109505559Y-100652989D01*
X109505556Y-100652988D01*
X109501371Y-100650924D01*
X109246497Y-100569338D01*
X109095549Y-100544755D01*
X108986976Y-100527073D01*
X108986975Y-100527073D01*
X108982364Y-100526322D01*
X108848569Y-100524571D01*
X108719451Y-100522880D01*
X108719448Y-100522880D01*
X108714774Y-100522819D01*
X108449605Y-100558907D01*
X108445118Y-100560215D01*
X108445117Y-100560215D01*
X108413817Y-100569338D01*
X108192683Y-100633792D01*
X108188430Y-100635752D01*
X108188429Y-100635753D01*
X108136512Y-100659687D01*
X107949652Y-100745831D01*
X107945743Y-100748394D01*
X107729764Y-100889996D01*
X107729759Y-100890000D01*
X107725851Y-100892562D01*
X107685128Y-100928909D01*
X107551151Y-101048488D01*
X107526197Y-101070760D01*
X107355075Y-101276512D01*
X107352652Y-101280505D01*
X107219156Y-101500500D01*
X107216244Y-101505298D01*
X107214437Y-101509606D01*
X107214437Y-101509607D01*
X107175137Y-101603328D01*
X107112755Y-101752091D01*
X107111604Y-101756623D01*
X107111603Y-101756626D01*
X107057019Y-101971552D01*
X107046881Y-102011470D01*
X107020070Y-102277736D01*
X106275500Y-102277736D01*
X106275500Y-102112371D01*
X106278755Y-102083918D01*
X106279043Y-102082676D01*
X106279044Y-102082669D01*
X106280655Y-102075718D01*
X106280656Y-102075000D01*
X106279075Y-102068067D01*
X106278283Y-102060993D01*
X106279466Y-102060861D01*
X106277671Y-102039111D01*
X106277682Y-102038939D01*
X106291806Y-101805433D01*
X106293640Y-101790329D01*
X106340945Y-101532192D01*
X106344586Y-101517419D01*
X106367381Y-101444266D01*
X106422665Y-101266855D01*
X106428059Y-101252633D01*
X106459995Y-101181676D01*
X106535766Y-101013319D01*
X106542836Y-100999848D01*
X106678606Y-100775258D01*
X106687248Y-100762737D01*
X106849104Y-100556143D01*
X106859194Y-100544755D01*
X107044755Y-100359194D01*
X107056143Y-100349104D01*
X107262737Y-100187248D01*
X107275259Y-100178605D01*
X107499848Y-100042836D01*
X107513321Y-100035765D01*
X107601306Y-99996166D01*
X107752637Y-99928057D01*
X107766855Y-99922665D01*
X108017419Y-99844586D01*
X108032192Y-99840945D01*
X108290329Y-99793640D01*
X108305433Y-99791806D01*
X108388183Y-99786800D01*
X108538947Y-99777681D01*
X108546768Y-99777451D01*
X108560811Y-99777476D01*
X108574641Y-99780656D01*
X108588480Y-99777524D01*
X108593311Y-99777533D01*
X108611504Y-99775500D01*
X119186107Y-99775500D01*
X119254228Y-99795502D01*
G37*
%TD.AperFunction*%
%TA.AperFunction,Conductor*%
G36*
X131259228Y-99795502D02*
G01*
X131305721Y-99849158D01*
X131315825Y-99919432D01*
X131309990Y-99943248D01*
X131302481Y-99964631D01*
X131299500Y-99996166D01*
X131299500Y-101103834D01*
X131302481Y-101135369D01*
X131347366Y-101263184D01*
X131352958Y-101270754D01*
X131352959Y-101270757D01*
X131388894Y-101319408D01*
X131427850Y-101372150D01*
X131435421Y-101377742D01*
X131439684Y-101382005D01*
X131473710Y-101444317D01*
X131468645Y-101515132D01*
X131426098Y-101571968D01*
X131359578Y-101596779D01*
X131350589Y-101597100D01*
X129478366Y-101597100D01*
X129410245Y-101577098D01*
X129389271Y-101560195D01*
X129222599Y-101393523D01*
X129188573Y-101331211D01*
X129192811Y-101262680D01*
X129234974Y-101142616D01*
X129237519Y-101135369D01*
X129240500Y-101103834D01*
X129240500Y-99996166D01*
X129237519Y-99964631D01*
X129230010Y-99943248D01*
X129226312Y-99872347D01*
X129261532Y-99810703D01*
X129324489Y-99777886D01*
X129348893Y-99775500D01*
X131191107Y-99775500D01*
X131259228Y-99795502D01*
G37*
%TD.AperFunction*%
%TD*%
M02*
