%TF.GenerationSoftware,KiCad,Pcbnew,6.0.11-2627ca5db0~126~ubuntu22.04.1*%
%TF.CreationDate,2023-03-08T23:59:17+01:00*%
%TF.ProjectId,asac-fc-rev-a,61736163-2d66-4632-9d72-65762d612e6b,A*%
%TF.SameCoordinates,Original*%
%TF.FileFunction,Paste,Top*%
%TF.FilePolarity,Positive*%
%FSLAX46Y46*%
G04 Gerber Fmt 4.6, Leading zero omitted, Abs format (unit mm)*
G04 Created by KiCad (PCBNEW 6.0.11-2627ca5db0~126~ubuntu22.04.1) date 2023-03-08 23:59:17*
%MOMM*%
%LPD*%
G01*
G04 APERTURE LIST*
G04 Aperture macros list*
%AMRoundRect*
0 Rectangle with rounded corners*
0 $1 Rounding radius*
0 $2 $3 $4 $5 $6 $7 $8 $9 X,Y pos of 4 corners*
0 Add a 4 corners polygon primitive as box body*
4,1,4,$2,$3,$4,$5,$6,$7,$8,$9,$2,$3,0*
0 Add four circle primitives for the rounded corners*
1,1,$1+$1,$2,$3*
1,1,$1+$1,$4,$5*
1,1,$1+$1,$6,$7*
1,1,$1+$1,$8,$9*
0 Add four rect primitives between the rounded corners*
20,1,$1+$1,$2,$3,$4,$5,0*
20,1,$1+$1,$4,$5,$6,$7,0*
20,1,$1+$1,$6,$7,$8,$9,0*
20,1,$1+$1,$8,$9,$2,$3,0*%
G04 Aperture macros list end*
%ADD10RoundRect,0.147500X-0.172500X0.147500X-0.172500X-0.147500X0.172500X-0.147500X0.172500X0.147500X0*%
%ADD11RoundRect,0.147500X-0.147500X-0.172500X0.147500X-0.172500X0.147500X0.172500X-0.147500X0.172500X0*%
%ADD12R,1.400000X0.400000*%
%ADD13R,1.900000X1.750000*%
%ADD14R,1.450000X1.150000*%
%ADD15C,1.000000*%
%ADD16RoundRect,0.135000X0.185000X-0.135000X0.185000X0.135000X-0.185000X0.135000X-0.185000X-0.135000X0*%
%ADD17RoundRect,0.135000X0.135000X0.185000X-0.135000X0.185000X-0.135000X-0.185000X0.135000X-0.185000X0*%
%ADD18RoundRect,0.250000X0.350000X0.650000X-0.350000X0.650000X-0.350000X-0.650000X0.350000X-0.650000X0*%
%ADD19RoundRect,0.150000X0.150000X0.625000X-0.150000X0.625000X-0.150000X-0.625000X0.150000X-0.625000X0*%
%ADD20RoundRect,0.150000X0.650000X0.150000X-0.650000X0.150000X-0.650000X-0.150000X0.650000X-0.150000X0*%
%ADD21RoundRect,0.140000X0.170000X-0.140000X0.170000X0.140000X-0.170000X0.140000X-0.170000X-0.140000X0*%
%ADD22RoundRect,0.140000X-0.021213X0.219203X-0.219203X0.021213X0.021213X-0.219203X0.219203X-0.021213X0*%
%ADD23RoundRect,0.075000X0.075000X-0.350000X0.075000X0.350000X-0.075000X0.350000X-0.075000X-0.350000X0*%
%ADD24RoundRect,0.075000X0.350000X0.075000X-0.350000X0.075000X-0.350000X-0.075000X0.350000X-0.075000X0*%
%ADD25RoundRect,0.140000X-0.219203X-0.021213X-0.021213X-0.219203X0.219203X0.021213X0.021213X0.219203X0*%
%ADD26RoundRect,0.135000X-0.226274X-0.035355X-0.035355X-0.226274X0.226274X0.035355X0.035355X0.226274X0*%
%ADD27RoundRect,0.140000X0.219203X0.021213X0.021213X0.219203X-0.219203X-0.021213X-0.021213X-0.219203X0*%
%ADD28R,1.117600X0.609600*%
%ADD29RoundRect,0.135000X-0.185000X0.135000X-0.185000X-0.135000X0.185000X-0.135000X0.185000X0.135000X0*%
%ADD30RoundRect,0.135000X0.226274X0.035355X0.035355X0.226274X-0.226274X-0.035355X-0.035355X-0.226274X0*%
%ADD31R,0.900000X0.800000*%
%ADD32RoundRect,0.249999X0.000000X0.558616X-0.558616X0.000000X0.000000X-0.558616X0.558616X0.000000X0*%
%ADD33RoundRect,0.050000X-0.238649X0.309359X-0.309359X0.238649X0.238649X-0.309359X0.309359X-0.238649X0*%
%ADD34RoundRect,0.050000X0.238649X0.309359X-0.309359X-0.238649X-0.238649X-0.309359X0.309359X0.238649X0*%
%ADD35RoundRect,0.175000X-0.106066X-0.353553X0.353553X0.106066X0.106066X0.353553X-0.353553X-0.106066X0*%
%ADD36RoundRect,0.140000X-0.170000X0.140000X-0.170000X-0.140000X0.170000X-0.140000X0.170000X0.140000X0*%
%ADD37RoundRect,0.140000X0.021213X-0.219203X0.219203X-0.021213X-0.021213X0.219203X-0.219203X0.021213X0*%
G04 APERTURE END LIST*
D10*
%TO.C,D3*%
X110960000Y-111805000D03*
X110960000Y-110835000D03*
%TD*%
D11*
%TO.C,D2*%
X115365000Y-127460000D03*
X114395000Y-127460000D03*
%TD*%
D10*
%TO.C,D1*%
X112300000Y-111805000D03*
X112300000Y-110835000D03*
%TD*%
D12*
%TO.C,J3*%
X110187500Y-118975000D03*
X110187500Y-118325000D03*
X110187500Y-117675000D03*
X110187500Y-117025000D03*
X110187500Y-116375000D03*
D13*
X107537500Y-116550000D03*
D14*
X109767500Y-119995000D03*
D13*
X107537500Y-118800000D03*
D14*
X109767500Y-115355000D03*
%TD*%
D15*
%TO.C,J7*%
X112482000Y-113230000D03*
X112482000Y-114530000D03*
%TD*%
D16*
%TO.C,R16*%
X126000000Y-107450000D03*
X126000000Y-106430000D03*
%TD*%
D17*
%TO.C,R15*%
X128290000Y-106490000D03*
X127270000Y-106490000D03*
%TD*%
D18*
%TO.C,J14*%
X117200000Y-101025000D03*
X112600000Y-101025000D03*
D19*
X113900000Y-104900000D03*
X114900000Y-104900000D03*
X115900000Y-104900000D03*
%TD*%
D20*
%TO.C,U3*%
X137950000Y-124405000D03*
X137950000Y-123135000D03*
X137950000Y-121865000D03*
X137950000Y-120595000D03*
X130750000Y-120595000D03*
X130750000Y-121865000D03*
X130750000Y-123135000D03*
X130750000Y-124405000D03*
%TD*%
D21*
%TO.C,C2*%
X115730000Y-111330000D03*
X115730000Y-110370000D03*
%TD*%
D22*
%TO.C,C13*%
X122479411Y-124190589D03*
X121800589Y-124869411D03*
%TD*%
D23*
%TO.C,U1*%
X131650000Y-112275000D03*
X132150000Y-112275000D03*
X132650000Y-112275000D03*
X133150000Y-112275000D03*
X133650000Y-112275000D03*
X134150000Y-112275000D03*
D24*
X134850000Y-111575000D03*
X134850000Y-111075000D03*
X134850000Y-110575000D03*
X134850000Y-110075000D03*
X134850000Y-109575000D03*
X134850000Y-109075000D03*
D23*
X134150000Y-108375000D03*
X133650000Y-108375000D03*
X133150000Y-108375000D03*
X132650000Y-108375000D03*
X132150000Y-108375000D03*
X131650000Y-108375000D03*
D24*
X130950000Y-109075000D03*
X130950000Y-109575000D03*
X130950000Y-110075000D03*
X130950000Y-110575000D03*
X130950000Y-111075000D03*
X130950000Y-111575000D03*
%TD*%
D21*
%TO.C,C5*%
X136300000Y-109655000D03*
X136300000Y-108695000D03*
%TD*%
D25*
%TO.C,C18*%
X128310589Y-122900589D03*
X128989411Y-123579411D03*
%TD*%
D16*
%TO.C,R8*%
X118140000Y-128030000D03*
X118140000Y-127010000D03*
%TD*%
D26*
%TO.C,R9*%
X114630000Y-118850000D03*
X113908752Y-118128752D03*
%TD*%
D25*
%TO.C,C14*%
X123670589Y-127680589D03*
X124349411Y-128359411D03*
%TD*%
D27*
%TO.C,C12*%
X118369411Y-114179411D03*
X117690589Y-113500589D03*
%TD*%
%TO.C,C16*%
X117639411Y-114969411D03*
X116960589Y-114290589D03*
%TD*%
D28*
%TO.C,SW1*%
X135872100Y-130275001D03*
X135872100Y-132424999D03*
X131477900Y-132424999D03*
X131477900Y-130275001D03*
%TD*%
D29*
%TO.C,R6*%
X129600000Y-111685000D03*
X129600000Y-110665000D03*
%TD*%
D26*
%TO.C,R1*%
X118459376Y-112759376D03*
X119180624Y-113480624D03*
%TD*%
D21*
%TO.C,C6*%
X129600000Y-109605000D03*
X129600000Y-108645000D03*
%TD*%
D25*
%TO.C,C7*%
X124420589Y-126880589D03*
X125099411Y-127559411D03*
%TD*%
D26*
%TO.C,R4*%
X115309376Y-115499376D03*
X116030624Y-116220624D03*
%TD*%
D16*
%TO.C,R5*%
X129570000Y-113730000D03*
X129570000Y-112710000D03*
%TD*%
D22*
%TO.C,C9*%
X118799411Y-122100589D03*
X118120589Y-122779411D03*
%TD*%
D30*
%TO.C,R3*%
X126710624Y-125920624D03*
X125989376Y-125199376D03*
%TD*%
D16*
%TO.C,R12*%
X137730000Y-126980000D03*
X137730000Y-125960000D03*
%TD*%
D29*
%TO.C,R13*%
X136480000Y-125980000D03*
X136480000Y-127000000D03*
%TD*%
D31*
%TO.C,Y1*%
X118420000Y-111330000D03*
X117020000Y-111330000D03*
X117020000Y-110230000D03*
X118420000Y-110230000D03*
%TD*%
D32*
%TO.C,U2*%
X122571836Y-118526736D03*
X123703207Y-119658107D03*
X123703207Y-117395365D03*
X124834578Y-118526736D03*
D33*
X127972364Y-119118938D03*
X127689521Y-119401781D03*
X127406679Y-119684623D03*
X127123836Y-119967466D03*
X126840993Y-120250309D03*
X126558151Y-120533151D03*
X126275308Y-120815994D03*
X125992465Y-121098837D03*
X125709622Y-121381680D03*
X125426780Y-121664522D03*
X125143937Y-121947365D03*
X124861094Y-122230208D03*
X124578252Y-122513050D03*
X124295409Y-122795893D03*
D34*
X123111005Y-122795893D03*
X122828162Y-122513050D03*
X122545320Y-122230208D03*
X122262477Y-121947365D03*
X121979634Y-121664522D03*
X121696792Y-121381680D03*
X121413949Y-121098837D03*
X121131106Y-120815994D03*
X120848263Y-120533151D03*
X120565421Y-120250309D03*
X120282578Y-119967466D03*
X119999735Y-119684623D03*
X119716893Y-119401781D03*
X119434050Y-119118938D03*
D33*
X119434050Y-117934534D03*
X119716893Y-117651691D03*
X119999735Y-117368849D03*
X120282578Y-117086006D03*
X120565421Y-116803163D03*
X120848263Y-116520321D03*
X121131106Y-116237478D03*
X121413949Y-115954635D03*
X121696792Y-115671792D03*
X121979634Y-115388950D03*
X122262477Y-115106107D03*
X122545320Y-114823264D03*
X122828162Y-114540422D03*
X123111005Y-114257579D03*
D34*
X124295409Y-114257579D03*
X124578252Y-114540422D03*
X124861094Y-114823264D03*
X125143937Y-115106107D03*
X125426780Y-115388950D03*
X125709622Y-115671792D03*
X125992465Y-115954635D03*
X126275308Y-116237478D03*
X126558151Y-116520321D03*
X126840993Y-116803163D03*
X127123836Y-117086006D03*
X127406679Y-117368849D03*
X127689521Y-117651691D03*
X127972364Y-117934534D03*
%TD*%
D25*
%TO.C,C15*%
X125200589Y-126060589D03*
X125879411Y-126739411D03*
%TD*%
D35*
%TO.C,J2*%
X114602208Y-120677208D03*
X115238604Y-121313604D03*
X115875000Y-121950000D03*
X116511396Y-122586396D03*
%TD*%
D16*
%TO.C,R10*%
X120300000Y-128030000D03*
X120300000Y-127010000D03*
%TD*%
D30*
%TO.C,R2*%
X127470624Y-125180624D03*
X126749376Y-124459376D03*
%TD*%
D21*
%TO.C,C4*%
X134150000Y-107055000D03*
X134150000Y-106095000D03*
%TD*%
D29*
%TO.C,R11*%
X119220000Y-127010000D03*
X119220000Y-128030000D03*
%TD*%
D21*
%TO.C,C11*%
X126260000Y-112730000D03*
X126260000Y-111770000D03*
%TD*%
D25*
%TO.C,C8*%
X127530589Y-123660589D03*
X128209411Y-124339411D03*
%TD*%
D36*
%TO.C,C1*%
X119710000Y-111290000D03*
X119710000Y-110330000D03*
%TD*%
%TO.C,C17*%
X131240000Y-126360000D03*
X131240000Y-127320000D03*
%TD*%
D26*
%TO.C,R7*%
X114679376Y-117309376D03*
X115400624Y-118030624D03*
%TD*%
D37*
%TO.C,C10*%
X130300589Y-117579411D03*
X130979411Y-116900589D03*
%TD*%
D35*
%TO.C,J12*%
X115738604Y-119638604D03*
X116375000Y-120275000D03*
X117011396Y-120911396D03*
X117647792Y-121547792D03*
%TD*%
D21*
%TO.C,C3*%
X136300000Y-111630000D03*
X136300000Y-110670000D03*
%TD*%
D36*
%TO.C,C19*%
X130000000Y-130270000D03*
X130000000Y-131230000D03*
%TD*%
M02*
