%TF.GenerationSoftware,KiCad,Pcbnew,6.0.11-2627ca5db0~126~ubuntu22.04.1*%
%TF.CreationDate,2023-03-08T23:59:17+01:00*%
%TF.ProjectId,asac-fc-rev-a,61736163-2d66-4632-9d72-65762d612e6b,A*%
%TF.SameCoordinates,Original*%
%TF.FileFunction,Legend,Bot*%
%TF.FilePolarity,Positive*%
%FSLAX46Y46*%
G04 Gerber Fmt 4.6, Leading zero omitted, Abs format (unit mm)*
G04 Created by KiCad (PCBNEW 6.0.11-2627ca5db0~126~ubuntu22.04.1) date 2023-03-08 23:59:17*
%MOMM*%
%LPD*%
G01*
G04 APERTURE LIST*
%ADD10C,0.150000*%
%ADD11C,0.120000*%
G04 APERTURE END LIST*
D10*
%TO.C,U4*%
X131533333Y-124736666D02*
X131533333Y-125303333D01*
X131500000Y-125370000D01*
X131466666Y-125403333D01*
X131400000Y-125436666D01*
X131266666Y-125436666D01*
X131200000Y-125403333D01*
X131166666Y-125370000D01*
X131133333Y-125303333D01*
X131133333Y-124736666D01*
X130500000Y-124970000D02*
X130500000Y-125436666D01*
X130666666Y-124703333D02*
X130833333Y-125203333D01*
X130400000Y-125203333D01*
%TO.C,C22*%
X125865000Y-129720000D02*
X125898333Y-129753333D01*
X125998333Y-129786666D01*
X126065000Y-129786666D01*
X126165000Y-129753333D01*
X126231666Y-129686666D01*
X126265000Y-129620000D01*
X126298333Y-129486666D01*
X126298333Y-129386666D01*
X126265000Y-129253333D01*
X126231666Y-129186666D01*
X126165000Y-129120000D01*
X126065000Y-129086666D01*
X125998333Y-129086666D01*
X125898333Y-129120000D01*
X125865000Y-129153333D01*
X125598333Y-129153333D02*
X125565000Y-129120000D01*
X125498333Y-129086666D01*
X125331666Y-129086666D01*
X125265000Y-129120000D01*
X125231666Y-129153333D01*
X125198333Y-129220000D01*
X125198333Y-129286666D01*
X125231666Y-129386666D01*
X125631666Y-129786666D01*
X125198333Y-129786666D01*
X124931666Y-129153333D02*
X124898333Y-129120000D01*
X124831666Y-129086666D01*
X124665000Y-129086666D01*
X124598333Y-129120000D01*
X124565000Y-129153333D01*
X124531666Y-129220000D01*
X124531666Y-129286666D01*
X124565000Y-129386666D01*
X124965000Y-129786666D01*
X124531666Y-129786666D01*
%TO.C,C20*%
X125850000Y-132690000D02*
X125883333Y-132723333D01*
X125983333Y-132756666D01*
X126050000Y-132756666D01*
X126150000Y-132723333D01*
X126216666Y-132656666D01*
X126250000Y-132590000D01*
X126283333Y-132456666D01*
X126283333Y-132356666D01*
X126250000Y-132223333D01*
X126216666Y-132156666D01*
X126150000Y-132090000D01*
X126050000Y-132056666D01*
X125983333Y-132056666D01*
X125883333Y-132090000D01*
X125850000Y-132123333D01*
X125583333Y-132123333D02*
X125550000Y-132090000D01*
X125483333Y-132056666D01*
X125316666Y-132056666D01*
X125250000Y-132090000D01*
X125216666Y-132123333D01*
X125183333Y-132190000D01*
X125183333Y-132256666D01*
X125216666Y-132356666D01*
X125616666Y-132756666D01*
X125183333Y-132756666D01*
X124750000Y-132056666D02*
X124683333Y-132056666D01*
X124616666Y-132090000D01*
X124583333Y-132123333D01*
X124550000Y-132190000D01*
X124516666Y-132323333D01*
X124516666Y-132490000D01*
X124550000Y-132623333D01*
X124583333Y-132690000D01*
X124616666Y-132723333D01*
X124683333Y-132756666D01*
X124750000Y-132756666D01*
X124816666Y-132723333D01*
X124850000Y-132690000D01*
X124883333Y-132623333D01*
X124916666Y-132490000D01*
X124916666Y-132323333D01*
X124883333Y-132190000D01*
X124850000Y-132123333D01*
X124816666Y-132090000D01*
X124750000Y-132056666D01*
%TO.C,C21*%
X113980000Y-125060000D02*
X114013333Y-125093333D01*
X114113333Y-125126666D01*
X114180000Y-125126666D01*
X114280000Y-125093333D01*
X114346666Y-125026666D01*
X114380000Y-124960000D01*
X114413333Y-124826666D01*
X114413333Y-124726666D01*
X114380000Y-124593333D01*
X114346666Y-124526666D01*
X114280000Y-124460000D01*
X114180000Y-124426666D01*
X114113333Y-124426666D01*
X114013333Y-124460000D01*
X113980000Y-124493333D01*
X113713333Y-124493333D02*
X113680000Y-124460000D01*
X113613333Y-124426666D01*
X113446666Y-124426666D01*
X113380000Y-124460000D01*
X113346666Y-124493333D01*
X113313333Y-124560000D01*
X113313333Y-124626666D01*
X113346666Y-124726666D01*
X113746666Y-125126666D01*
X113313333Y-125126666D01*
X112646666Y-125126666D02*
X113046666Y-125126666D01*
X112846666Y-125126666D02*
X112846666Y-124426666D01*
X112913333Y-124526666D01*
X112980000Y-124593333D01*
X113046666Y-124626666D01*
%TO.C,U5*%
X120413333Y-125036666D02*
X120413333Y-125603333D01*
X120380000Y-125670000D01*
X120346666Y-125703333D01*
X120280000Y-125736666D01*
X120146666Y-125736666D01*
X120080000Y-125703333D01*
X120046666Y-125670000D01*
X120013333Y-125603333D01*
X120013333Y-125036666D01*
X119346666Y-125036666D02*
X119680000Y-125036666D01*
X119713333Y-125370000D01*
X119680000Y-125336666D01*
X119613333Y-125303333D01*
X119446666Y-125303333D01*
X119380000Y-125336666D01*
X119346666Y-125370000D01*
X119313333Y-125436666D01*
X119313333Y-125603333D01*
X119346666Y-125670000D01*
X119380000Y-125703333D01*
X119446666Y-125736666D01*
X119613333Y-125736666D01*
X119680000Y-125703333D01*
X119713333Y-125670000D01*
%TO.C,C23*%
X116250000Y-125020000D02*
X116283333Y-125053333D01*
X116383333Y-125086666D01*
X116450000Y-125086666D01*
X116550000Y-125053333D01*
X116616666Y-124986666D01*
X116650000Y-124920000D01*
X116683333Y-124786666D01*
X116683333Y-124686666D01*
X116650000Y-124553333D01*
X116616666Y-124486666D01*
X116550000Y-124420000D01*
X116450000Y-124386666D01*
X116383333Y-124386666D01*
X116283333Y-124420000D01*
X116250000Y-124453333D01*
X115983333Y-124453333D02*
X115950000Y-124420000D01*
X115883333Y-124386666D01*
X115716666Y-124386666D01*
X115650000Y-124420000D01*
X115616666Y-124453333D01*
X115583333Y-124520000D01*
X115583333Y-124586666D01*
X115616666Y-124686666D01*
X116016666Y-125086666D01*
X115583333Y-125086666D01*
X115350000Y-124386666D02*
X114916666Y-124386666D01*
X115150000Y-124653333D01*
X115050000Y-124653333D01*
X114983333Y-124686666D01*
X114950000Y-124720000D01*
X114916666Y-124786666D01*
X114916666Y-124953333D01*
X114950000Y-125020000D01*
X114983333Y-125053333D01*
X115050000Y-125086666D01*
X115250000Y-125086666D01*
X115316666Y-125053333D01*
X115350000Y-125020000D01*
%TO.C,R14*%
X110280000Y-128686666D02*
X110513333Y-128353333D01*
X110680000Y-128686666D02*
X110680000Y-127986666D01*
X110413333Y-127986666D01*
X110346666Y-128020000D01*
X110313333Y-128053333D01*
X110280000Y-128120000D01*
X110280000Y-128220000D01*
X110313333Y-128286666D01*
X110346666Y-128320000D01*
X110413333Y-128353333D01*
X110680000Y-128353333D01*
X109613333Y-128686666D02*
X110013333Y-128686666D01*
X109813333Y-128686666D02*
X109813333Y-127986666D01*
X109880000Y-128086666D01*
X109946666Y-128153333D01*
X110013333Y-128186666D01*
X109013333Y-128220000D02*
X109013333Y-128686666D01*
X109180000Y-127953333D02*
X109346666Y-128453333D01*
X108913333Y-128453333D01*
%TO.C,Q1*%
X112656666Y-134463333D02*
X112723333Y-134430000D01*
X112790000Y-134363333D01*
X112890000Y-134263333D01*
X112956666Y-134230000D01*
X113023333Y-134230000D01*
X112990000Y-134396666D02*
X113056666Y-134363333D01*
X113123333Y-134296666D01*
X113156666Y-134163333D01*
X113156666Y-133930000D01*
X113123333Y-133796666D01*
X113056666Y-133730000D01*
X112990000Y-133696666D01*
X112856666Y-133696666D01*
X112790000Y-133730000D01*
X112723333Y-133796666D01*
X112690000Y-133930000D01*
X112690000Y-134163333D01*
X112723333Y-134296666D01*
X112790000Y-134363333D01*
X112856666Y-134396666D01*
X112990000Y-134396666D01*
X112023333Y-134396666D02*
X112423333Y-134396666D01*
X112223333Y-134396666D02*
X112223333Y-133696666D01*
X112290000Y-133796666D01*
X112356666Y-133863333D01*
X112423333Y-133896666D01*
%TO.C,kibuzzard-64090F9C*%
G36*
X137431951Y-120582217D02*
G01*
X138808049Y-120582217D01*
X138808049Y-121517783D01*
X137431951Y-121517783D01*
X137431951Y-121276219D01*
X137597316Y-121276219D01*
X137627875Y-121324638D01*
X137679469Y-121352419D01*
X137728284Y-121320669D01*
X137879097Y-121147631D01*
X138029909Y-121320669D01*
X138078725Y-121352419D01*
X138130319Y-121324241D01*
X138154417Y-121287331D01*
X138185484Y-121287331D01*
X138197787Y-121315113D01*
X138234697Y-121338131D01*
X138275575Y-121349244D01*
X138300975Y-121341703D01*
X138315659Y-121326225D01*
X138326066Y-121303559D01*
X138346704Y-121255669D01*
X138377572Y-121182556D01*
X138402178Y-121184144D01*
X138502191Y-121184144D01*
X138502191Y-121273838D01*
X138503381Y-121301222D01*
X138510922Y-121322256D01*
X138531956Y-121338330D01*
X138572834Y-121343688D01*
X138616888Y-121336345D01*
X138637922Y-121314319D01*
X138642684Y-121273044D01*
X138642684Y-120832513D01*
X138641494Y-120805128D01*
X138633953Y-120784094D01*
X138612919Y-120768020D01*
X138572041Y-120762663D01*
X138400591Y-120762663D01*
X138354465Y-120768307D01*
X138309221Y-120785240D01*
X138264859Y-120813463D01*
X138235887Y-120842434D01*
X138212472Y-120880138D01*
X138196994Y-120924588D01*
X138191834Y-120973800D01*
X138198449Y-121030068D01*
X138218293Y-121079281D01*
X138251366Y-121121438D01*
X138237607Y-121153981D01*
X138219616Y-121195521D01*
X138197391Y-121246056D01*
X138185484Y-121287331D01*
X138154417Y-121287331D01*
X138161672Y-121276219D01*
X138133891Y-121225419D01*
X137974347Y-121050000D01*
X138133891Y-120874581D01*
X138161672Y-120824575D01*
X138130716Y-120775759D01*
X138078725Y-120747581D01*
X138029909Y-120779331D01*
X137879097Y-120952369D01*
X137728284Y-120779331D01*
X137679469Y-120747581D01*
X137628272Y-120775362D01*
X137597316Y-120824575D01*
X137624303Y-120874581D01*
X137783847Y-121050000D01*
X137624303Y-121225419D01*
X137597316Y-121276219D01*
X137431951Y-121276219D01*
X137431951Y-120582217D01*
G37*
G36*
X138502191Y-121043650D02*
G01*
X138400591Y-121043650D01*
X138354553Y-121026188D01*
X138331534Y-120973800D01*
X138354553Y-120921016D01*
X138402178Y-120903156D01*
X138502191Y-120903156D01*
X138502191Y-121043650D01*
G37*
%TO.C,kibuzzard-64090F95*%
G36*
X137442045Y-119546185D02*
G01*
X139857955Y-119546185D01*
X139857955Y-120473815D01*
X137442045Y-120473815D01*
X137442045Y-120241775D01*
X137607409Y-120241775D01*
X137619713Y-120269556D01*
X137656622Y-120292575D01*
X137697500Y-120303688D01*
X137722900Y-120296147D01*
X137737584Y-120280669D01*
X137747991Y-120258003D01*
X137768629Y-120210113D01*
X137799497Y-120137000D01*
X137824103Y-120138588D01*
X137924116Y-120138588D01*
X137924116Y-120228281D01*
X137925306Y-120255666D01*
X137932847Y-120276700D01*
X137953881Y-120292773D01*
X137994759Y-120298131D01*
X138038813Y-120290789D01*
X138059847Y-120268763D01*
X138062961Y-120241775D01*
X138108266Y-120241775D01*
X138120569Y-120269556D01*
X138157478Y-120292575D01*
X138198356Y-120303688D01*
X138223756Y-120296147D01*
X138238441Y-120280669D01*
X138248848Y-120258003D01*
X138269485Y-120210113D01*
X138300353Y-120137000D01*
X138324959Y-120138588D01*
X138424972Y-120138588D01*
X138424972Y-120228281D01*
X138426163Y-120255666D01*
X138433703Y-120276700D01*
X138454737Y-120292773D01*
X138495616Y-120298131D01*
X138539669Y-120290789D01*
X138560703Y-120268763D01*
X138565466Y-120227488D01*
X138565466Y-120027463D01*
X138628966Y-120027463D01*
X138633034Y-120078659D01*
X138645238Y-120127475D01*
X138665577Y-120173909D01*
X138694053Y-120217963D01*
X138730367Y-120254574D01*
X138775809Y-120283447D01*
X138828495Y-120302199D01*
X138886538Y-120308450D01*
X138944481Y-120302100D01*
X138996869Y-120283050D01*
X139041815Y-120253681D01*
X139077434Y-120216375D01*
X139105563Y-120172917D01*
X139125655Y-120126681D01*
X139137710Y-120077667D01*
X139141728Y-120025875D01*
X139141728Y-119809578D01*
X139193322Y-119809578D01*
X139209991Y-119853631D01*
X139239359Y-119885778D01*
X139265553Y-119896494D01*
X139306034Y-119879031D01*
X139344928Y-119858791D01*
X139394934Y-119852044D01*
X139446131Y-119860973D01*
X139496534Y-119887762D01*
X139536222Y-119936975D01*
X139548128Y-119970809D01*
X139552097Y-120008809D01*
X139548128Y-120046810D01*
X139536222Y-120080644D01*
X139495741Y-120130650D01*
X139446330Y-120156844D01*
X139394934Y-120165575D01*
X139348500Y-120159225D01*
X139317147Y-120146525D01*
X139302859Y-120136206D01*
X139264759Y-120120331D01*
X139239161Y-120131444D01*
X139211578Y-120164781D01*
X139194116Y-120209231D01*
X139204831Y-120237013D01*
X139229834Y-120256856D01*
X139257219Y-120273525D01*
X139310797Y-120294163D01*
X139350584Y-120303688D01*
X139388981Y-120306863D01*
X139426883Y-120304382D01*
X139465181Y-120296941D01*
X139504273Y-120283645D01*
X139544556Y-120263603D01*
X139583351Y-120237608D01*
X139617978Y-120206453D01*
X139647645Y-120167956D01*
X139671556Y-120119934D01*
X139687332Y-120064868D01*
X139692591Y-120005237D01*
X139687431Y-119946202D01*
X139671953Y-119892922D01*
X139648438Y-119846884D01*
X139619169Y-119809578D01*
X139584740Y-119779316D01*
X139545747Y-119754413D01*
X139493800Y-119730600D01*
X139441677Y-119716312D01*
X139389378Y-119711550D01*
X139351774Y-119714427D01*
X139313575Y-119723059D01*
X139255234Y-119746475D01*
X139236184Y-119757587D01*
X139213959Y-119771875D01*
X139193322Y-119809578D01*
X139141728Y-119809578D01*
X139141728Y-119786956D01*
X139140538Y-119758778D01*
X139132997Y-119737744D01*
X139111566Y-119721075D01*
X139071084Y-119716312D01*
X139030603Y-119721075D01*
X139009966Y-119737744D01*
X139000441Y-119787750D01*
X139000441Y-120025875D01*
X138994488Y-120073103D01*
X138976628Y-120117950D01*
X138940909Y-120153669D01*
X138884553Y-120167162D01*
X138833952Y-120156447D01*
X138798034Y-120124300D01*
X138776603Y-120078064D01*
X138769459Y-120025081D01*
X138769459Y-119782194D01*
X138761522Y-119738538D01*
X138738503Y-119721075D01*
X138700800Y-119716312D01*
X138664684Y-119720281D01*
X138644047Y-119729806D01*
X138633728Y-119746475D01*
X138628966Y-119787750D01*
X138628966Y-120027463D01*
X138565466Y-120027463D01*
X138565466Y-119786956D01*
X138564275Y-119759572D01*
X138556734Y-119738538D01*
X138535700Y-119722464D01*
X138494822Y-119717106D01*
X138323372Y-119717106D01*
X138277246Y-119722751D01*
X138232002Y-119739684D01*
X138187641Y-119767906D01*
X138158669Y-119796878D01*
X138135253Y-119834581D01*
X138119775Y-119879031D01*
X138114616Y-119928244D01*
X138121230Y-119984512D01*
X138141074Y-120033724D01*
X138174147Y-120075881D01*
X138160389Y-120108425D01*
X138142397Y-120149965D01*
X138120172Y-120200500D01*
X138108266Y-120241775D01*
X138062961Y-120241775D01*
X138064609Y-120227488D01*
X138064609Y-119786956D01*
X138063419Y-119759572D01*
X138055878Y-119738538D01*
X138034844Y-119722464D01*
X137993966Y-119717106D01*
X137822516Y-119717106D01*
X137776390Y-119722751D01*
X137731146Y-119739684D01*
X137686784Y-119767906D01*
X137657813Y-119796878D01*
X137634397Y-119834581D01*
X137618919Y-119879031D01*
X137613759Y-119928244D01*
X137620374Y-119984512D01*
X137640218Y-120033724D01*
X137673291Y-120075881D01*
X137659532Y-120108425D01*
X137641541Y-120149965D01*
X137619316Y-120200500D01*
X137607409Y-120241775D01*
X137442045Y-120241775D01*
X137442045Y-119546185D01*
G37*
G36*
X138424972Y-119998094D02*
G01*
X138323372Y-119998094D01*
X138277334Y-119980631D01*
X138254316Y-119928244D01*
X138277334Y-119875459D01*
X138324959Y-119857600D01*
X138424972Y-119857600D01*
X138424972Y-119998094D01*
G37*
G36*
X137924116Y-119998094D02*
G01*
X137822516Y-119998094D01*
X137776478Y-119980631D01*
X137753459Y-119928244D01*
X137776478Y-119875459D01*
X137824103Y-119857600D01*
X137924116Y-119857600D01*
X137924116Y-119998094D01*
G37*
%TO.C,kibuzzard-64090F8F*%
G36*
X137456154Y-118602535D02*
G01*
X138883846Y-118602535D01*
X138883846Y-119517465D01*
X137456154Y-119517465D01*
X137456154Y-119282250D01*
X137621519Y-119282250D01*
X137629059Y-119327891D01*
X137652078Y-119347338D01*
X137690575Y-119352100D01*
X137727087Y-119348131D01*
X137747725Y-119338606D01*
X137758044Y-119322731D01*
X137762623Y-119283044D01*
X138091419Y-119283044D01*
X138098959Y-119326502D01*
X138121581Y-119347338D01*
X138159681Y-119352100D01*
X138196194Y-119348131D01*
X138216831Y-119338606D01*
X138227944Y-119322731D01*
X138231912Y-119281456D01*
X138231912Y-119015550D01*
X138256320Y-119047399D01*
X138289856Y-119093734D01*
X138321011Y-119137291D01*
X138338275Y-119160806D01*
X138352563Y-119179459D01*
X138372009Y-119193747D01*
X138405347Y-119202875D01*
X138437891Y-119194541D01*
X138458925Y-119178269D01*
X138465275Y-119169537D01*
X138488889Y-119138482D01*
X138527981Y-119085003D01*
X138564097Y-119035295D01*
X138578781Y-119015550D01*
X138578781Y-119283044D01*
X138579972Y-119310428D01*
X138587513Y-119330669D01*
X138608944Y-119346742D01*
X138649425Y-119352100D01*
X138688716Y-119346742D01*
X138709750Y-119330669D01*
X138717291Y-119310031D01*
X138718481Y-119281456D01*
X138718481Y-118840925D01*
X138717291Y-118813541D01*
X138709750Y-118792506D01*
X138688319Y-118777028D01*
X138647838Y-118771869D01*
X138610928Y-118777028D01*
X138590688Y-118787744D01*
X138585925Y-118792506D01*
X138405744Y-119029044D01*
X138355356Y-118962464D01*
X138312145Y-118905600D01*
X138276109Y-118858451D01*
X138247248Y-118821018D01*
X138225562Y-118793300D01*
X138202841Y-118777227D01*
X138161666Y-118771869D01*
X138121085Y-118777227D01*
X138100150Y-118793300D01*
X138092609Y-118814731D01*
X138091419Y-118842512D01*
X138091419Y-119283044D01*
X137762623Y-119283044D01*
X137762806Y-119281456D01*
X137762806Y-119184619D01*
X137977912Y-119184619D01*
X138022164Y-119177078D01*
X138043794Y-119154456D01*
X138047763Y-119120325D01*
X138045381Y-119088575D01*
X137979500Y-118822669D01*
X137971166Y-118794887D01*
X137956878Y-118776631D01*
X137929494Y-118767900D01*
X137892981Y-118773456D01*
X137851309Y-118793697D01*
X137837419Y-118824256D01*
X137842975Y-118857594D01*
X137843769Y-118859975D01*
X137892188Y-119053650D01*
X137762806Y-119053650D01*
X137762806Y-118836956D01*
X137761616Y-118809969D01*
X137754075Y-118790125D01*
X137732247Y-118774647D01*
X137691766Y-118770281D01*
X137651681Y-118775441D01*
X137630250Y-118792109D01*
X137622709Y-118813144D01*
X137621519Y-118840925D01*
X137621519Y-119282250D01*
X137456154Y-119282250D01*
X137456154Y-118602535D01*
G37*
%TO.C,kibuzzard-64090F8A*%
G36*
X138643851Y-117674201D02*
G01*
X140096149Y-117674201D01*
X140096149Y-118605799D01*
X138643851Y-118605799D01*
X138643851Y-118245172D01*
X138809216Y-118245172D01*
X138816271Y-118298485D01*
X138837438Y-118345184D01*
X138872716Y-118385269D01*
X138918665Y-118415916D01*
X138971846Y-118434305D01*
X139032259Y-118440434D01*
X139092232Y-118434261D01*
X139145148Y-118415740D01*
X139191009Y-118384872D01*
X139213253Y-118360266D01*
X139303722Y-118360266D01*
X139311263Y-118403723D01*
X139333884Y-118424559D01*
X139371984Y-118429322D01*
X139408497Y-118425353D01*
X139429134Y-118415828D01*
X139440247Y-118399953D01*
X139444216Y-118358678D01*
X139444216Y-118092772D01*
X139468623Y-118124621D01*
X139502159Y-118170956D01*
X139533314Y-118214513D01*
X139550578Y-118238028D01*
X139564866Y-118256681D01*
X139584313Y-118270969D01*
X139617650Y-118280097D01*
X139650194Y-118271763D01*
X139671228Y-118255491D01*
X139677578Y-118246759D01*
X139701192Y-118215704D01*
X139740284Y-118162225D01*
X139776400Y-118112516D01*
X139791084Y-118092772D01*
X139791084Y-118360266D01*
X139792275Y-118387650D01*
X139799816Y-118407891D01*
X139821247Y-118423964D01*
X139861728Y-118429322D01*
X139901019Y-118423964D01*
X139922053Y-118407891D01*
X139929594Y-118387253D01*
X139930784Y-118358678D01*
X139930784Y-117918147D01*
X139929594Y-117890762D01*
X139922053Y-117869728D01*
X139900622Y-117854250D01*
X139860141Y-117849091D01*
X139823231Y-117854250D01*
X139802991Y-117864966D01*
X139798228Y-117869728D01*
X139618047Y-118106266D01*
X139567660Y-118039686D01*
X139524448Y-117982822D01*
X139488412Y-117935673D01*
X139459551Y-117898240D01*
X139437866Y-117870522D01*
X139415145Y-117854448D01*
X139373969Y-117849091D01*
X139333388Y-117854448D01*
X139312453Y-117870522D01*
X139304912Y-117891953D01*
X139303722Y-117919734D01*
X139303722Y-118360266D01*
X139213253Y-118360266D01*
X139213433Y-118360067D01*
X139233078Y-118328516D01*
X139241809Y-118307878D01*
X139243397Y-118299941D01*
X139252128Y-118257078D01*
X139232681Y-118222550D01*
X139174341Y-118211041D01*
X139132272Y-118218978D01*
X139108459Y-118260253D01*
X139064803Y-118298353D01*
X139031466Y-118303116D01*
X138994953Y-118298849D01*
X138969553Y-118286050D01*
X138949709Y-118247553D01*
X138969156Y-118209850D01*
X139015194Y-118193578D01*
X139051309Y-118191991D01*
X139071947Y-118184053D01*
X139088020Y-118163614D01*
X139093378Y-118122934D01*
X139086036Y-118078683D01*
X139064009Y-118057053D01*
X139022734Y-118053084D01*
X138977491Y-118045345D01*
X138962409Y-118022128D01*
X138978284Y-117990378D01*
X139022338Y-117975297D01*
X139067184Y-117984822D01*
X139087822Y-118003872D01*
X139092584Y-118013397D01*
X139114809Y-118043163D01*
X139144972Y-118053084D01*
X139188628Y-118038797D01*
X139218394Y-118013992D01*
X139228316Y-117985616D01*
X139210059Y-117931641D01*
X139192597Y-117906637D01*
X139159656Y-117875284D01*
X139107269Y-117850678D01*
X139071649Y-117842344D01*
X139032259Y-117839566D01*
X138971758Y-117845739D01*
X138920429Y-117864260D01*
X138878272Y-117895128D01*
X138846963Y-117933713D01*
X138828177Y-117975385D01*
X138821916Y-118020144D01*
X138828795Y-118062168D01*
X138849432Y-118095638D01*
X138883828Y-118120553D01*
X138883828Y-118126109D01*
X138860412Y-118143175D01*
X138835409Y-118168972D01*
X138815764Y-118204691D01*
X138809216Y-118245172D01*
X138643851Y-118245172D01*
X138643851Y-117674201D01*
G37*
%TO.C,kibuzzard-64090F7E*%
G36*
X137459485Y-116578567D02*
G01*
X138920515Y-116578567D01*
X138920515Y-117501433D01*
X137459485Y-117501433D01*
X137459485Y-117265822D01*
X137624850Y-117265822D01*
X137630009Y-117305906D01*
X137647075Y-117326544D01*
X137696287Y-117336069D01*
X138006644Y-117336069D01*
X138055856Y-117314638D01*
X138076494Y-117264631D01*
X138128087Y-117264631D01*
X138135628Y-117308089D01*
X138158250Y-117328925D01*
X138196350Y-117333688D01*
X138232862Y-117329719D01*
X138253500Y-117320194D01*
X138264612Y-117304319D01*
X138268581Y-117263044D01*
X138268581Y-116997138D01*
X138292989Y-117028987D01*
X138326525Y-117075322D01*
X138357680Y-117118879D01*
X138374944Y-117142394D01*
X138389231Y-117161047D01*
X138408678Y-117175334D01*
X138442016Y-117184463D01*
X138474559Y-117176128D01*
X138495594Y-117159856D01*
X138501944Y-117151125D01*
X138525558Y-117120070D01*
X138564650Y-117066591D01*
X138600766Y-117016882D01*
X138615450Y-116997138D01*
X138615450Y-117264631D01*
X138616641Y-117292016D01*
X138624181Y-117312256D01*
X138645612Y-117328330D01*
X138686094Y-117333688D01*
X138725384Y-117328330D01*
X138746419Y-117312256D01*
X138753959Y-117291619D01*
X138755150Y-117263044D01*
X138755150Y-116822513D01*
X138753959Y-116795128D01*
X138746419Y-116774094D01*
X138724988Y-116758616D01*
X138684506Y-116753456D01*
X138647597Y-116758616D01*
X138627356Y-116769331D01*
X138622594Y-116774094D01*
X138442412Y-117010631D01*
X138392025Y-116944052D01*
X138348813Y-116887187D01*
X138312777Y-116840039D01*
X138283916Y-116802605D01*
X138262231Y-116774887D01*
X138239510Y-116758814D01*
X138198334Y-116753456D01*
X138157754Y-116758814D01*
X138136819Y-116774887D01*
X138129278Y-116796319D01*
X138128087Y-116824100D01*
X138128087Y-117264631D01*
X138076494Y-117264631D01*
X138069052Y-117223455D01*
X138046728Y-117185653D01*
X138013887Y-117152117D01*
X137974894Y-117123741D01*
X137932825Y-117098142D01*
X137890756Y-117072941D01*
X137851763Y-117046251D01*
X137818922Y-117016188D01*
X137796598Y-116983445D01*
X137789156Y-116948719D01*
X137794712Y-116928478D01*
X137807016Y-116907047D01*
X137828050Y-116891569D01*
X137867737Y-116884425D01*
X137911791Y-116903078D01*
X137932825Y-116939988D01*
X137936000Y-116958244D01*
X137936000Y-116963006D01*
X137937191Y-116989200D01*
X137944731Y-117009044D01*
X137966162Y-117023331D01*
X138006644Y-117028094D01*
X138050895Y-117020553D01*
X138072525Y-116997931D01*
X138076494Y-116957450D01*
X138069923Y-116904313D01*
X138050212Y-116854968D01*
X138017359Y-116809416D01*
X137973880Y-116773035D01*
X137922286Y-116751207D01*
X137862578Y-116743931D01*
X137802826Y-116751295D01*
X137751100Y-116773388D01*
X137707400Y-116810209D01*
X137674327Y-116856467D01*
X137654483Y-116906870D01*
X137647869Y-116961419D01*
X137652830Y-117005472D01*
X137667712Y-117047144D01*
X137689541Y-117083656D01*
X137715337Y-117112231D01*
X137770900Y-117156086D01*
X137820112Y-117182875D01*
X137839956Y-117190813D01*
X137839956Y-117194781D01*
X137694700Y-117194781D01*
X137648266Y-117202322D01*
X137629613Y-117225341D01*
X137624850Y-117265822D01*
X137459485Y-117265822D01*
X137459485Y-116578567D01*
G37*
%TO.C,kibuzzard-64090F74*%
G36*
X138919576Y-115572535D02*
G01*
X140200424Y-115572535D01*
X140200424Y-116487465D01*
X138919576Y-116487465D01*
X138919576Y-116252250D01*
X139084941Y-116252250D01*
X139086131Y-116279634D01*
X139093672Y-116300669D01*
X139114706Y-116316742D01*
X139155584Y-116322100D01*
X139195470Y-116316941D01*
X139216703Y-116301463D01*
X139224244Y-116279634D01*
X139225434Y-116250662D01*
X139407997Y-116250662D01*
X139415538Y-116294120D01*
X139438159Y-116314956D01*
X139476259Y-116319719D01*
X139512772Y-116315750D01*
X139533409Y-116306225D01*
X139544522Y-116290350D01*
X139548491Y-116249075D01*
X139548491Y-115983169D01*
X139572898Y-116015018D01*
X139606434Y-116061353D01*
X139637589Y-116104910D01*
X139654853Y-116128425D01*
X139669141Y-116147078D01*
X139688588Y-116161366D01*
X139721925Y-116170494D01*
X139754469Y-116162159D01*
X139775503Y-116145887D01*
X139781853Y-116137156D01*
X139805467Y-116106101D01*
X139844559Y-116052622D01*
X139880675Y-116002913D01*
X139895359Y-115983169D01*
X139895359Y-116250662D01*
X139896550Y-116278047D01*
X139904091Y-116298288D01*
X139925522Y-116314361D01*
X139966003Y-116319719D01*
X140005294Y-116314361D01*
X140026328Y-116298288D01*
X140033869Y-116277650D01*
X140035059Y-116249075D01*
X140035059Y-115808544D01*
X140033869Y-115781159D01*
X140026328Y-115760125D01*
X140004897Y-115744647D01*
X139964416Y-115739487D01*
X139927506Y-115744647D01*
X139907266Y-115755362D01*
X139902503Y-115760125D01*
X139722322Y-115996663D01*
X139671935Y-115930083D01*
X139628723Y-115873218D01*
X139592687Y-115826070D01*
X139563826Y-115788636D01*
X139542141Y-115760919D01*
X139519420Y-115744845D01*
X139478244Y-115739487D01*
X139437663Y-115744845D01*
X139416728Y-115760919D01*
X139409188Y-115782350D01*
X139407997Y-115810131D01*
X139407997Y-116250662D01*
X139225434Y-116250662D01*
X139225434Y-115967294D01*
X139235753Y-115976819D01*
X139291316Y-116001425D01*
X139339338Y-115973644D01*
X139364341Y-115924431D01*
X139335766Y-115877600D01*
X139205591Y-115760125D01*
X139203209Y-115758537D01*
X139158363Y-115737900D01*
X139120659Y-115741869D01*
X139100022Y-115750997D01*
X139088909Y-115768062D01*
X139084941Y-115810131D01*
X139084941Y-116252250D01*
X138919576Y-116252250D01*
X138919576Y-115572535D01*
G37*
%TO.C,kibuzzard-64090F66*%
G36*
X137425682Y-114587376D02*
G01*
X140054318Y-114587376D01*
X140054318Y-115512624D01*
X137425682Y-115512624D01*
X137425682Y-114814653D01*
X137591047Y-114814653D01*
X137595016Y-114847594D01*
X137608509Y-114864659D01*
X137648991Y-114871803D01*
X137800597Y-114871803D01*
X137800597Y-115271059D01*
X137801788Y-115298047D01*
X137808931Y-115318288D01*
X137829966Y-115334559D01*
X137869653Y-115339322D01*
X137908944Y-115334559D01*
X137929581Y-115318288D01*
X137936725Y-115297650D01*
X137937398Y-115282172D01*
X138171278Y-115282172D01*
X138182788Y-115309358D01*
X138217316Y-115333766D01*
X138259781Y-115347259D01*
X138285181Y-115340116D01*
X138299469Y-115325034D01*
X138311772Y-115301222D01*
X138353047Y-115215497D01*
X138572916Y-115215497D01*
X138614191Y-115301222D01*
X138626494Y-115324241D01*
X138640781Y-115338925D01*
X138666181Y-115346466D01*
X138708647Y-115332972D01*
X138743175Y-115309159D01*
X138754684Y-115282172D01*
X138741191Y-115241691D01*
X138697868Y-115151997D01*
X138786434Y-115151997D01*
X138793181Y-115202047D01*
X138811305Y-115246365D01*
X138840806Y-115284950D01*
X138878509Y-115314716D01*
X138921240Y-115332575D01*
X138968997Y-115338528D01*
X139177753Y-115338528D01*
X139221806Y-115330987D01*
X139242841Y-115308366D01*
X139247603Y-115267091D01*
X139247603Y-114826559D01*
X139247195Y-114817034D01*
X139291259Y-114817034D01*
X139303166Y-114855134D01*
X139522241Y-115299634D01*
X139548831Y-115327813D01*
X139585741Y-115338528D01*
X139593678Y-115338528D01*
X139631381Y-115327813D01*
X139657972Y-115299634D01*
X139877047Y-114855134D01*
X139888953Y-114817034D01*
X139877245Y-114790444D01*
X139842122Y-114766234D01*
X139802038Y-114752741D01*
X139781003Y-114755916D01*
X139767509Y-114767028D01*
X139754412Y-114788063D01*
X139743796Y-114810287D01*
X139723853Y-114853944D01*
X139698354Y-114910002D01*
X139671069Y-114969434D01*
X139643684Y-115028866D01*
X139617888Y-115084925D01*
X139598341Y-115127291D01*
X139589709Y-115145647D01*
X139430959Y-114797984D01*
X139419847Y-114774172D01*
X139384922Y-114752741D01*
X139338091Y-114766234D01*
X139302967Y-114790444D01*
X139291259Y-114817034D01*
X139247195Y-114817034D01*
X139246413Y-114798778D01*
X139238872Y-114778141D01*
X139217838Y-114762067D01*
X139176959Y-114756709D01*
X138976934Y-114756709D01*
X138930897Y-114762354D01*
X138890151Y-114779287D01*
X138854697Y-114807509D01*
X138826034Y-114844198D01*
X138808836Y-114885473D01*
X138803103Y-114931334D01*
X138810644Y-114981539D01*
X138833266Y-115027378D01*
X138807248Y-115065919D01*
X138791638Y-115107459D01*
X138786434Y-115151997D01*
X138697868Y-115151997D01*
X138526878Y-114797984D01*
X138500288Y-114768616D01*
X138462584Y-114757503D01*
X138425278Y-114767822D01*
X138399084Y-114798778D01*
X138184772Y-115241691D01*
X138171278Y-115282172D01*
X137937398Y-115282172D01*
X137937916Y-115270266D01*
X137937916Y-114871803D01*
X138090316Y-114871803D01*
X138127622Y-114865850D01*
X138143497Y-114847197D01*
X138147466Y-114813859D01*
X138143497Y-114780919D01*
X138130003Y-114763853D01*
X138089522Y-114756709D01*
X137648197Y-114756709D01*
X137610891Y-114762663D01*
X137595016Y-114781316D01*
X137591047Y-114814653D01*
X137425682Y-114814653D01*
X137425682Y-114587376D01*
G37*
G36*
X139107109Y-115198034D02*
G01*
X138976934Y-115198034D01*
X138939430Y-115184541D01*
X138926928Y-115144059D01*
X138931294Y-115113897D01*
X138945978Y-115098022D01*
X138990428Y-115091672D01*
X139033291Y-115080559D01*
X139047578Y-115034919D01*
X139032894Y-114989278D01*
X138984078Y-114978166D01*
X138945978Y-114961497D01*
X138943597Y-114932922D01*
X138956694Y-114905141D01*
X138995984Y-114897203D01*
X139107109Y-114897203D01*
X139107109Y-115198034D01*
G37*
G36*
X138515766Y-115098022D02*
G01*
X138410197Y-115098022D01*
X138463378Y-114989278D01*
X138515766Y-115098022D01*
G37*
%TO.C,kibuzzard-64090F56*%
G36*
X137455960Y-113544598D02*
G01*
X139444040Y-113544598D01*
X139444040Y-114475402D01*
X137455960Y-114475402D01*
X137455960Y-114007222D01*
X137621325Y-114007222D01*
X137626658Y-114065587D01*
X137642657Y-114119637D01*
X137669322Y-114169370D01*
X137706653Y-114214788D01*
X137751574Y-114252639D01*
X137801010Y-114279677D01*
X137854960Y-114295899D01*
X137913425Y-114301306D01*
X138058681Y-114301306D01*
X138097972Y-114296345D01*
X138119006Y-114281463D01*
X138128233Y-114232250D01*
X138192031Y-114232250D01*
X138193222Y-114260031D01*
X138200762Y-114280669D01*
X138221797Y-114296742D01*
X138262675Y-114302100D01*
X138305537Y-114297338D01*
X138325381Y-114282256D01*
X138381517Y-114207467D01*
X138430862Y-114141851D01*
X138473416Y-114085406D01*
X138509178Y-114038134D01*
X138538150Y-114000034D01*
X138560331Y-113971106D01*
X138560331Y-114232250D01*
X138561522Y-114260031D01*
X138569063Y-114280669D01*
X138590097Y-114296742D01*
X138630975Y-114302100D01*
X138670663Y-114296742D01*
X138691300Y-114280669D01*
X138698841Y-114259238D01*
X138700031Y-114231456D01*
X138700031Y-114192563D01*
X138763531Y-114192563D01*
X138785756Y-114240981D01*
X138823261Y-114271193D01*
X138869100Y-114292773D01*
X138923273Y-114305721D01*
X138985781Y-114310037D01*
X139042981Y-114304456D01*
X139096311Y-114287713D01*
X139145771Y-114259808D01*
X139191362Y-114220741D01*
X139229562Y-114173785D01*
X139256847Y-114122216D01*
X139273218Y-114066034D01*
X139278675Y-114005237D01*
X139273119Y-113944739D01*
X139256450Y-113889449D01*
X139228669Y-113839369D01*
X139189775Y-113794497D01*
X139143341Y-113757513D01*
X139092937Y-113731096D01*
X139038566Y-113715246D01*
X138980225Y-113709963D01*
X138918930Y-113716842D01*
X138859928Y-113737479D01*
X138803219Y-113771875D01*
X138781787Y-113807197D01*
X138800044Y-113852044D01*
X138829611Y-113883595D01*
X138856400Y-113894113D01*
X138904819Y-113872284D01*
X138941331Y-113855913D01*
X138984194Y-113850456D01*
X139041145Y-113861073D01*
X139091350Y-113892922D01*
X139126473Y-113941936D01*
X139138181Y-114004047D01*
X139132890Y-114047527D01*
X139117015Y-114086420D01*
X139090556Y-114120728D01*
X139039756Y-114156745D01*
X138982606Y-114168750D01*
X138941133Y-114165178D01*
X138904025Y-114154463D01*
X138904025Y-114067944D01*
X138966731Y-114067944D01*
X139001656Y-114061594D01*
X139015150Y-114042941D01*
X139018325Y-114009603D01*
X139014753Y-113975869D01*
X139001656Y-113958406D01*
X138963556Y-113951263D01*
X138823856Y-113951263D01*
X138771469Y-113973488D01*
X138763531Y-114017938D01*
X138763531Y-114192563D01*
X138700031Y-114192563D01*
X138700031Y-113788544D01*
X138692491Y-113744491D01*
X138669869Y-113725837D01*
X138630975Y-113721075D01*
X138593272Y-113725441D01*
X138573825Y-113735362D01*
X138555569Y-113756000D01*
X138502828Y-113827636D01*
X138456262Y-113890673D01*
X138415869Y-113945111D01*
X138381649Y-113990950D01*
X138353603Y-114028190D01*
X138331731Y-114056831D01*
X138331731Y-113788544D01*
X138324191Y-113744491D01*
X138301569Y-113725837D01*
X138263866Y-113721075D01*
X138227353Y-113725044D01*
X138206716Y-113734569D01*
X138196794Y-113751238D01*
X138192031Y-113791719D01*
X138192031Y-114232250D01*
X138128233Y-114232250D01*
X138128531Y-114230663D01*
X138128531Y-113789338D01*
X138127341Y-113761556D01*
X138119800Y-113740919D01*
X138098766Y-113724845D01*
X138057887Y-113719488D01*
X137911044Y-113720281D01*
X137855233Y-113725465D01*
X137802895Y-113741018D01*
X137754030Y-113766939D01*
X137708638Y-113803228D01*
X137670438Y-113847083D01*
X137643153Y-113895700D01*
X137626782Y-113949080D01*
X137621325Y-114007222D01*
X137455960Y-114007222D01*
X137455960Y-113544598D01*
G37*
G36*
X137988038Y-114160813D02*
G01*
X137911044Y-114160813D01*
X137856672Y-114150196D01*
X137807856Y-114118347D01*
X137773328Y-114070424D01*
X137761819Y-114011588D01*
X137773030Y-113952552D01*
X137806666Y-113904034D01*
X137855382Y-113871590D01*
X137911837Y-113860775D01*
X137988038Y-113860775D01*
X137988038Y-114160813D01*
G37*
D11*
%TO.C,D4*%
X114670000Y-129000000D02*
X114670000Y-132900000D01*
X114670000Y-129000000D02*
X116670000Y-129000000D01*
X116670000Y-129000000D02*
X116670000Y-132900000D01*
%TO.C,U4*%
X135610000Y-134075000D02*
X135610000Y-128065000D01*
X128790000Y-131825000D02*
X128790000Y-128065000D01*
X128790000Y-128065000D02*
X130050000Y-128065000D01*
X135610000Y-128065000D02*
X134350000Y-128065000D01*
%TO.C,C22*%
X126755000Y-129201252D02*
X126755000Y-128678748D01*
X128225000Y-129201252D02*
X128225000Y-128678748D01*
%TO.C,C20*%
X126715000Y-132736252D02*
X126715000Y-132213748D01*
X128185000Y-132736252D02*
X128185000Y-132213748D01*
%TO.C,C21*%
X112815000Y-127261252D02*
X112815000Y-126738748D01*
X114285000Y-127261252D02*
X114285000Y-126738748D01*
%TO.C,U5*%
X124285000Y-128415000D02*
X123025000Y-128415000D01*
X117465000Y-128415000D02*
X118725000Y-128415000D01*
X117465000Y-132175000D02*
X117465000Y-128415000D01*
X124285000Y-134425000D02*
X124285000Y-128415000D01*
%TO.C,J11*%
X141335000Y-113585000D02*
X141335000Y-121465000D01*
X136865000Y-122635000D02*
X136865000Y-121585000D01*
X136865000Y-112415000D02*
X136865000Y-113465000D01*
X139365000Y-112415000D02*
X136865000Y-112415000D01*
X139365000Y-122635000D02*
X136865000Y-122635000D01*
X136865000Y-113465000D02*
X135875000Y-113465000D01*
%TO.C,C23*%
X116505000Y-127231252D02*
X116505000Y-126708748D01*
X115035000Y-127231252D02*
X115035000Y-126708748D01*
%TO.C,R14*%
X111670000Y-128483641D02*
X111670000Y-128176359D01*
X110910000Y-128483641D02*
X110910000Y-128176359D01*
%TO.C,Q1*%
X111040000Y-131660000D02*
X111040000Y-132310000D01*
X114160000Y-131660000D02*
X114160000Y-132310000D01*
X111040000Y-131660000D02*
X111040000Y-129985000D01*
X114160000Y-131660000D02*
X114160000Y-131010000D01*
%TD*%
M02*
