%TF.GenerationSoftware,KiCad,Pcbnew,6.0.11-2627ca5db0~126~ubuntu22.04.1*%
%TF.CreationDate,2023-03-08T23:59:17+01:00*%
%TF.ProjectId,asac-fc-rev-a,61736163-2d66-4632-9d72-65762d612e6b,A*%
%TF.SameCoordinates,Original*%
%TF.FileFunction,Soldermask,Top*%
%TF.FilePolarity,Negative*%
%FSLAX46Y46*%
G04 Gerber Fmt 4.6, Leading zero omitted, Abs format (unit mm)*
G04 Created by KiCad (PCBNEW 6.0.11-2627ca5db0~126~ubuntu22.04.1) date 2023-03-08 23:59:17*
%MOMM*%
%LPD*%
G01*
G04 APERTURE LIST*
G04 Aperture macros list*
%AMRoundRect*
0 Rectangle with rounded corners*
0 $1 Rounding radius*
0 $2 $3 $4 $5 $6 $7 $8 $9 X,Y pos of 4 corners*
0 Add a 4 corners polygon primitive as box body*
4,1,4,$2,$3,$4,$5,$6,$7,$8,$9,$2,$3,0*
0 Add four circle primitives for the rounded corners*
1,1,$1+$1,$2,$3*
1,1,$1+$1,$4,$5*
1,1,$1+$1,$6,$7*
1,1,$1+$1,$8,$9*
0 Add four rect primitives between the rounded corners*
20,1,$1+$1,$2,$3,$4,$5,0*
20,1,$1+$1,$4,$5,$6,$7,0*
20,1,$1+$1,$6,$7,$8,$9,0*
20,1,$1+$1,$8,$9,$2,$3,0*%
%AMRotRect*
0 Rectangle, with rotation*
0 The origin of the aperture is its center*
0 $1 length*
0 $2 width*
0 $3 Rotation angle, in degrees counterclockwise*
0 Add horizontal line*
21,1,$1,$2,0,0,$3*%
G04 Aperture macros list end*
%ADD10RoundRect,0.147500X-0.172500X0.147500X-0.172500X-0.147500X0.172500X-0.147500X0.172500X0.147500X0*%
%ADD11RoundRect,0.147500X-0.147500X-0.172500X0.147500X-0.172500X0.147500X0.172500X-0.147500X0.172500X0*%
%ADD12R,1.400000X0.400000*%
%ADD13R,1.900000X1.750000*%
%ADD14O,2.100000X1.050000*%
%ADD15R,1.450000X1.150000*%
%ADD16C,1.000000*%
%ADD17RoundRect,0.135000X0.185000X-0.135000X0.185000X0.135000X-0.185000X0.135000X-0.185000X-0.135000X0*%
%ADD18RoundRect,0.135000X0.135000X0.185000X-0.135000X0.185000X-0.135000X-0.185000X0.135000X-0.185000X0*%
%ADD19RoundRect,0.250000X0.350000X0.650000X-0.350000X0.650000X-0.350000X-0.650000X0.350000X-0.650000X0*%
%ADD20RoundRect,0.150000X0.150000X0.625000X-0.150000X0.625000X-0.150000X-0.625000X0.150000X-0.625000X0*%
%ADD21RoundRect,0.150000X0.650000X0.150000X-0.650000X0.150000X-0.650000X-0.150000X0.650000X-0.150000X0*%
%ADD22RoundRect,0.140000X0.170000X-0.140000X0.170000X0.140000X-0.170000X0.140000X-0.170000X-0.140000X0*%
%ADD23RoundRect,0.140000X-0.021213X0.219203X-0.219203X0.021213X0.021213X-0.219203X0.219203X-0.021213X0*%
%ADD24RoundRect,0.075000X0.075000X-0.350000X0.075000X0.350000X-0.075000X0.350000X-0.075000X-0.350000X0*%
%ADD25RoundRect,0.075000X0.350000X0.075000X-0.350000X0.075000X-0.350000X-0.075000X0.350000X-0.075000X0*%
%ADD26R,0.850000X0.700000*%
%ADD27R,1.270000X1.270000*%
%ADD28RoundRect,0.140000X-0.219203X-0.021213X-0.021213X-0.219203X0.219203X0.021213X0.021213X0.219203X0*%
%ADD29RoundRect,0.135000X-0.226274X-0.035355X-0.035355X-0.226274X0.226274X0.035355X0.035355X0.226274X0*%
%ADD30RoundRect,0.140000X0.219203X0.021213X0.021213X0.219203X-0.219203X-0.021213X-0.021213X-0.219203X0*%
%ADD31RoundRect,0.250000X0.250000X-0.500000X0.250000X0.500000X-0.250000X0.500000X-0.250000X-0.500000X0*%
%ADD32R,1.117600X0.609600*%
%ADD33RoundRect,0.135000X-0.185000X0.135000X-0.185000X-0.135000X0.185000X-0.135000X0.185000X0.135000X0*%
%ADD34RoundRect,0.135000X0.226274X0.035355X0.035355X0.226274X-0.226274X-0.035355X-0.035355X-0.226274X0*%
%ADD35R,0.900000X0.800000*%
%ADD36RotRect,3.200000X3.200000X225.000000*%
%ADD37RoundRect,0.050000X-0.238649X0.309359X-0.309359X0.238649X0.238649X-0.309359X0.309359X-0.238649X0*%
%ADD38RoundRect,0.050000X0.238649X0.309359X-0.309359X-0.238649X-0.238649X-0.309359X0.309359X0.238649X0*%
%ADD39RoundRect,0.175000X-0.106066X-0.353553X0.353553X0.106066X0.106066X0.353553X-0.353553X-0.106066X0*%
%ADD40RoundRect,0.140000X-0.170000X0.140000X-0.170000X-0.140000X0.170000X-0.140000X0.170000X0.140000X0*%
%ADD41RoundRect,0.140000X0.021213X-0.219203X0.219203X-0.021213X-0.021213X0.219203X-0.219203X0.021213X0*%
G04 APERTURE END LIST*
D10*
%TO.C,D3*%
X110960000Y-111805000D03*
X110960000Y-110835000D03*
%TD*%
D11*
%TO.C,D2*%
X115365000Y-127460000D03*
X114395000Y-127460000D03*
%TD*%
D10*
%TO.C,D1*%
X112300000Y-111805000D03*
X112300000Y-110835000D03*
%TD*%
D12*
%TO.C,J3*%
X110187500Y-118975000D03*
X110187500Y-118325000D03*
X110187500Y-117675000D03*
X110187500Y-117025000D03*
X110187500Y-116375000D03*
D13*
X107537500Y-116550000D03*
D14*
X107537500Y-121250000D03*
D15*
X109767500Y-119995000D03*
D14*
X107537500Y-114100000D03*
D13*
X107537500Y-118800000D03*
D15*
X109767500Y-115355000D03*
%TD*%
D16*
%TO.C,J7*%
X112482000Y-113230000D03*
X112482000Y-114530000D03*
%TD*%
D17*
%TO.C,R16*%
X126000000Y-107450000D03*
X126000000Y-106430000D03*
%TD*%
D18*
%TO.C,R15*%
X128290000Y-106490000D03*
X127270000Y-106490000D03*
%TD*%
D19*
%TO.C,J14*%
X117200000Y-101025000D03*
X112600000Y-101025000D03*
D20*
X113900000Y-104900000D03*
X114900000Y-104900000D03*
X115900000Y-104900000D03*
%TD*%
D21*
%TO.C,U3*%
X137950000Y-124405000D03*
X137950000Y-123135000D03*
X137950000Y-121865000D03*
X137950000Y-120595000D03*
X130750000Y-120595000D03*
X130750000Y-121865000D03*
X130750000Y-123135000D03*
X130750000Y-124405000D03*
%TD*%
D22*
%TO.C,C2*%
X115730000Y-111330000D03*
X115730000Y-110370000D03*
%TD*%
D23*
%TO.C,C13*%
X122479411Y-124190589D03*
X121800589Y-124869411D03*
%TD*%
D24*
%TO.C,U1*%
X131650000Y-112275000D03*
X132150000Y-112275000D03*
X132650000Y-112275000D03*
X133150000Y-112275000D03*
X133650000Y-112275000D03*
X134150000Y-112275000D03*
D25*
X134850000Y-111575000D03*
X134850000Y-111075000D03*
X134850000Y-110575000D03*
X134850000Y-110075000D03*
X134850000Y-109575000D03*
X134850000Y-109075000D03*
D24*
X134150000Y-108375000D03*
X133650000Y-108375000D03*
X133150000Y-108375000D03*
X132650000Y-108375000D03*
X132150000Y-108375000D03*
X131650000Y-108375000D03*
D25*
X130950000Y-109075000D03*
X130950000Y-109575000D03*
X130950000Y-110075000D03*
X130950000Y-110575000D03*
X130950000Y-111075000D03*
X130950000Y-111575000D03*
%TD*%
D22*
%TO.C,C5*%
X136300000Y-109655000D03*
X136300000Y-108695000D03*
%TD*%
D26*
%TO.C,J4*%
X141375000Y-125350000D03*
X139775000Y-125350000D03*
X141375000Y-124650000D03*
X140575000Y-124650000D03*
X139775000Y-124650000D03*
X140575000Y-125350000D03*
X141375000Y-123950000D03*
X140575000Y-123950000D03*
X139775000Y-123950000D03*
D27*
X140575000Y-126850000D03*
D26*
X139775000Y-128350000D03*
X140575000Y-129750000D03*
X140575000Y-128350000D03*
X140575000Y-129050000D03*
X141375000Y-129750000D03*
X141375000Y-128350000D03*
X139775000Y-129050000D03*
X139775000Y-129750000D03*
X141375000Y-129050000D03*
%TD*%
D28*
%TO.C,C18*%
X128310589Y-122900589D03*
X128989411Y-123579411D03*
%TD*%
D26*
%TO.C,J9*%
X106749600Y-109477800D03*
X108349600Y-109477800D03*
X106749600Y-110177800D03*
X107549600Y-110177800D03*
X108349600Y-110177800D03*
X107549600Y-109477800D03*
X106749600Y-110877800D03*
X107549600Y-110877800D03*
X108349600Y-110877800D03*
D27*
X107549600Y-107977800D03*
D26*
X108349600Y-106477800D03*
X107549600Y-105077800D03*
X107549600Y-106477800D03*
X107549600Y-105777800D03*
X106749600Y-105077800D03*
X106749600Y-106477800D03*
X108349600Y-105777800D03*
X108349600Y-105077800D03*
X106749600Y-105777800D03*
%TD*%
D17*
%TO.C,R8*%
X118140000Y-128030000D03*
X118140000Y-127010000D03*
%TD*%
D29*
%TO.C,R9*%
X114630000Y-118850000D03*
X113908752Y-118128752D03*
%TD*%
D28*
%TO.C,C14*%
X123670589Y-127680589D03*
X124349411Y-128359411D03*
%TD*%
D30*
%TO.C,C12*%
X118369411Y-114179411D03*
X117690589Y-113500589D03*
%TD*%
%TO.C,C16*%
X117639411Y-114969411D03*
X116960589Y-114290589D03*
%TD*%
D31*
%TO.C,J10*%
X126000000Y-100550000D03*
X127270000Y-100550000D03*
X128540000Y-100550000D03*
X129810000Y-100550000D03*
%TD*%
D32*
%TO.C,SW1*%
X135872100Y-130275001D03*
X135872100Y-132424999D03*
X131477900Y-132424999D03*
X131477900Y-130275001D03*
%TD*%
D33*
%TO.C,R6*%
X129600000Y-111685000D03*
X129600000Y-110665000D03*
%TD*%
D29*
%TO.C,R1*%
X118459376Y-112759376D03*
X119180624Y-113480624D03*
%TD*%
D22*
%TO.C,C6*%
X129600000Y-109605000D03*
X129600000Y-108645000D03*
%TD*%
D28*
%TO.C,C7*%
X124420589Y-126880589D03*
X125099411Y-127559411D03*
%TD*%
D29*
%TO.C,R4*%
X115309376Y-115499376D03*
X116030624Y-116220624D03*
%TD*%
D17*
%TO.C,R5*%
X129570000Y-113730000D03*
X129570000Y-112710000D03*
%TD*%
D23*
%TO.C,C9*%
X118799411Y-122100589D03*
X118120589Y-122779411D03*
%TD*%
D26*
%TO.C,J1*%
X139850000Y-105925000D03*
X141450000Y-105225000D03*
X141450000Y-105925000D03*
X139850000Y-106625000D03*
X139850000Y-105225000D03*
X140650000Y-105925000D03*
X140650000Y-106625000D03*
X140650000Y-105225000D03*
X141450000Y-106625000D03*
D27*
X140650000Y-108125000D03*
D26*
X141450000Y-111025000D03*
X140650000Y-111025000D03*
X139850000Y-111025000D03*
X140650000Y-109625000D03*
X141450000Y-110325000D03*
X140650000Y-110325000D03*
X139850000Y-110325000D03*
X141450000Y-109625000D03*
X139850000Y-109625000D03*
%TD*%
D34*
%TO.C,R3*%
X126710624Y-125920624D03*
X125989376Y-125199376D03*
%TD*%
D31*
%TO.C,J15*%
X126000000Y-104880000D03*
X127270000Y-104880000D03*
X128540000Y-104880000D03*
X129810000Y-104880000D03*
%TD*%
D17*
%TO.C,R12*%
X137730000Y-126980000D03*
X137730000Y-125960000D03*
%TD*%
D33*
%TO.C,R13*%
X136480000Y-125980000D03*
X136480000Y-127000000D03*
%TD*%
D35*
%TO.C,Y1*%
X118420000Y-111330000D03*
X117020000Y-111330000D03*
X117020000Y-110230000D03*
X118420000Y-110230000D03*
%TD*%
D36*
%TO.C,U2*%
X123703207Y-118526736D03*
D37*
X127972364Y-119118938D03*
X127689521Y-119401781D03*
X127406679Y-119684623D03*
X127123836Y-119967466D03*
X126840993Y-120250309D03*
X126558151Y-120533151D03*
X126275308Y-120815994D03*
X125992465Y-121098837D03*
X125709622Y-121381680D03*
X125426780Y-121664522D03*
X125143937Y-121947365D03*
X124861094Y-122230208D03*
X124578252Y-122513050D03*
X124295409Y-122795893D03*
D38*
X123111005Y-122795893D03*
X122828162Y-122513050D03*
X122545320Y-122230208D03*
X122262477Y-121947365D03*
X121979634Y-121664522D03*
X121696792Y-121381680D03*
X121413949Y-121098837D03*
X121131106Y-120815994D03*
X120848263Y-120533151D03*
X120565421Y-120250309D03*
X120282578Y-119967466D03*
X119999735Y-119684623D03*
X119716893Y-119401781D03*
X119434050Y-119118938D03*
D37*
X119434050Y-117934534D03*
X119716893Y-117651691D03*
X119999735Y-117368849D03*
X120282578Y-117086006D03*
X120565421Y-116803163D03*
X120848263Y-116520321D03*
X121131106Y-116237478D03*
X121413949Y-115954635D03*
X121696792Y-115671792D03*
X121979634Y-115388950D03*
X122262477Y-115106107D03*
X122545320Y-114823264D03*
X122828162Y-114540422D03*
X123111005Y-114257579D03*
D38*
X124295409Y-114257579D03*
X124578252Y-114540422D03*
X124861094Y-114823264D03*
X125143937Y-115106107D03*
X125426780Y-115388950D03*
X125709622Y-115671792D03*
X125992465Y-115954635D03*
X126275308Y-116237478D03*
X126558151Y-116520321D03*
X126840993Y-116803163D03*
X127123836Y-117086006D03*
X127406679Y-117368849D03*
X127689521Y-117651691D03*
X127972364Y-117934534D03*
%TD*%
D28*
%TO.C,C15*%
X125200589Y-126060589D03*
X125879411Y-126739411D03*
%TD*%
D39*
%TO.C,J2*%
X114602208Y-120677208D03*
X115238604Y-121313604D03*
X115875000Y-121950000D03*
X116511396Y-122586396D03*
%TD*%
D17*
%TO.C,R10*%
X120300000Y-128030000D03*
X120300000Y-127010000D03*
%TD*%
D31*
%TO.C,J8*%
X132000000Y-100550000D03*
X133270000Y-100550000D03*
X134540000Y-100550000D03*
X135810000Y-100550000D03*
%TD*%
D34*
%TO.C,R2*%
X127470624Y-125180624D03*
X126749376Y-124459376D03*
%TD*%
D22*
%TO.C,C4*%
X134150000Y-107055000D03*
X134150000Y-106095000D03*
%TD*%
D33*
%TO.C,R11*%
X119220000Y-127010000D03*
X119220000Y-128030000D03*
%TD*%
D22*
%TO.C,C11*%
X126260000Y-112730000D03*
X126260000Y-111770000D03*
%TD*%
D28*
%TO.C,C8*%
X127530589Y-123660589D03*
X128209411Y-124339411D03*
%TD*%
D26*
%TO.C,J6*%
X108374600Y-125350000D03*
X106774600Y-125350000D03*
X108374600Y-124650000D03*
X107574600Y-124650000D03*
X106774600Y-124650000D03*
X107574600Y-125350000D03*
X108374600Y-123950000D03*
X107574600Y-123950000D03*
X106774600Y-123950000D03*
D27*
X107574600Y-126850000D03*
D26*
X106774600Y-128350000D03*
X107574600Y-129750000D03*
X107574600Y-128350000D03*
X107574600Y-129050000D03*
X108374600Y-129750000D03*
X108374600Y-128350000D03*
X106774600Y-129050000D03*
X106774600Y-129750000D03*
X108374600Y-129050000D03*
%TD*%
D40*
%TO.C,C1*%
X119710000Y-111290000D03*
X119710000Y-110330000D03*
%TD*%
D31*
%TO.C,J5*%
X119995000Y-100550000D03*
X121265000Y-100550000D03*
X122535000Y-100550000D03*
X123805000Y-100550000D03*
%TD*%
D40*
%TO.C,C17*%
X131240000Y-126360000D03*
X131240000Y-127320000D03*
%TD*%
D29*
%TO.C,R7*%
X114679376Y-117309376D03*
X115400624Y-118030624D03*
%TD*%
D41*
%TO.C,C10*%
X130300589Y-117579411D03*
X130979411Y-116900589D03*
%TD*%
D39*
%TO.C,J12*%
X115738604Y-119638604D03*
X116375000Y-120275000D03*
X117011396Y-120911396D03*
X117647792Y-121547792D03*
%TD*%
D22*
%TO.C,C3*%
X136300000Y-111630000D03*
X136300000Y-110670000D03*
%TD*%
D40*
%TO.C,C19*%
X130000000Y-130270000D03*
X130000000Y-131230000D03*
%TD*%
G36*
X123452837Y-136190002D02*
G01*
X123499330Y-136243658D01*
X123510714Y-136295282D01*
X123545774Y-142448282D01*
X123526160Y-142516516D01*
X123472771Y-142563314D01*
X123419776Y-142575000D01*
X122333258Y-142575000D01*
X122316812Y-142573922D01*
X122212037Y-142560128D01*
X122180265Y-142551615D01*
X122090326Y-142514361D01*
X122061840Y-142497914D01*
X121984607Y-142438651D01*
X121961349Y-142415393D01*
X121902086Y-142338160D01*
X121885639Y-142309674D01*
X121848385Y-142219735D01*
X121839872Y-142187963D01*
X121826078Y-142083188D01*
X121825000Y-142066742D01*
X121825000Y-139578092D01*
X121824697Y-139571920D01*
X121806392Y-139386076D01*
X121803988Y-139373984D01*
X121750675Y-139198235D01*
X121745964Y-139186862D01*
X121659390Y-139024893D01*
X121652539Y-139014640D01*
X121536034Y-138872678D01*
X121527322Y-138863966D01*
X121385360Y-138747461D01*
X121375107Y-138740610D01*
X121213138Y-138654036D01*
X121201765Y-138649325D01*
X121026016Y-138596012D01*
X121013924Y-138593608D01*
X120828080Y-138575303D01*
X120821908Y-138575000D01*
X118828092Y-138575000D01*
X118821920Y-138575303D01*
X118636076Y-138593608D01*
X118623984Y-138596012D01*
X118448235Y-138649325D01*
X118436862Y-138654036D01*
X118274893Y-138740610D01*
X118264640Y-138747461D01*
X118122678Y-138863966D01*
X118113966Y-138872678D01*
X117997461Y-139014640D01*
X117990610Y-139024893D01*
X117904036Y-139186862D01*
X117899325Y-139198235D01*
X117846012Y-139373984D01*
X117843608Y-139386076D01*
X117825303Y-139571920D01*
X117825000Y-139578092D01*
X117825000Y-142066742D01*
X117823922Y-142083188D01*
X117810128Y-142187963D01*
X117801615Y-142219735D01*
X117764361Y-142309674D01*
X117747914Y-142338160D01*
X117688651Y-142415393D01*
X117665393Y-142438651D01*
X117588160Y-142497914D01*
X117559674Y-142514361D01*
X117469735Y-142551615D01*
X117437963Y-142560128D01*
X117333188Y-142573922D01*
X117316742Y-142575000D01*
X116581187Y-142575000D01*
X116568837Y-142574393D01*
X116392263Y-142557002D01*
X116368037Y-142552184D01*
X116204191Y-142502482D01*
X116181371Y-142493029D01*
X116030372Y-142412319D01*
X116009834Y-142398596D01*
X115877485Y-142289980D01*
X115860020Y-142272515D01*
X115751404Y-142140166D01*
X115737681Y-142119628D01*
X115656971Y-141968629D01*
X115647518Y-141945809D01*
X115597816Y-141781963D01*
X115592998Y-141757737D01*
X115575607Y-141581163D01*
X115575000Y-141568813D01*
X115575000Y-138576782D01*
X115574900Y-138573225D01*
X115556335Y-138242636D01*
X115555545Y-138235623D01*
X115500375Y-137910916D01*
X115498807Y-137904047D01*
X115407629Y-137587561D01*
X115405296Y-137580894D01*
X115279261Y-137276617D01*
X115276196Y-137270253D01*
X115116880Y-136981993D01*
X115113128Y-136976022D01*
X114922543Y-136707419D01*
X114918137Y-136701894D01*
X114698665Y-136456304D01*
X114693697Y-136451336D01*
X114625007Y-136389951D01*
X114587542Y-136329645D01*
X114588628Y-136258656D01*
X114627921Y-136199524D01*
X114692945Y-136171023D01*
X114708967Y-136170000D01*
X123384716Y-136170000D01*
X123452837Y-136190002D01*
G37*
G36*
X133583096Y-136123628D02*
G01*
X133629686Y-136177200D01*
X133639917Y-136247455D01*
X133610540Y-136312089D01*
X133599127Y-136323700D01*
X133456304Y-136451335D01*
X133451335Y-136456304D01*
X133231863Y-136701894D01*
X133227457Y-136707419D01*
X133036872Y-136976022D01*
X133033120Y-136981993D01*
X132873804Y-137270253D01*
X132870739Y-137276617D01*
X132744704Y-137580894D01*
X132742371Y-137587561D01*
X132651193Y-137904047D01*
X132649625Y-137910916D01*
X132594455Y-138235623D01*
X132593665Y-138242636D01*
X132575100Y-138573225D01*
X132575000Y-138576782D01*
X132575000Y-141568813D01*
X132574393Y-141581163D01*
X132557002Y-141757737D01*
X132552184Y-141781963D01*
X132502482Y-141945809D01*
X132493029Y-141968629D01*
X132412319Y-142119628D01*
X132398596Y-142140166D01*
X132289980Y-142272515D01*
X132272515Y-142289980D01*
X132140166Y-142398596D01*
X132119628Y-142412319D01*
X131968629Y-142493029D01*
X131945809Y-142502482D01*
X131781963Y-142552184D01*
X131757737Y-142557002D01*
X131581163Y-142574393D01*
X131568813Y-142575000D01*
X130833258Y-142575000D01*
X130816812Y-142573922D01*
X130712037Y-142560128D01*
X130680265Y-142551615D01*
X130590326Y-142514361D01*
X130561840Y-142497914D01*
X130484607Y-142438651D01*
X130461349Y-142415393D01*
X130402086Y-142338160D01*
X130385639Y-142309674D01*
X130348385Y-142219735D01*
X130339872Y-142187963D01*
X130326078Y-142083188D01*
X130325000Y-142066742D01*
X130325000Y-139578092D01*
X130324697Y-139571920D01*
X130306392Y-139386076D01*
X130303988Y-139373984D01*
X130250675Y-139198235D01*
X130245964Y-139186862D01*
X130159390Y-139024893D01*
X130152539Y-139014640D01*
X130036034Y-138872678D01*
X130027322Y-138863966D01*
X129885360Y-138747461D01*
X129875107Y-138740610D01*
X129713138Y-138654036D01*
X129701765Y-138649325D01*
X129526016Y-138596012D01*
X129513924Y-138593608D01*
X129328080Y-138575303D01*
X129321908Y-138575000D01*
X127328092Y-138575000D01*
X127321920Y-138575303D01*
X127136076Y-138593608D01*
X127123984Y-138596012D01*
X126948235Y-138649325D01*
X126936862Y-138654036D01*
X126774893Y-138740610D01*
X126764640Y-138747461D01*
X126622678Y-138863966D01*
X126613966Y-138872678D01*
X126497461Y-139014640D01*
X126490610Y-139024893D01*
X126404036Y-139186862D01*
X126399325Y-139198235D01*
X126346012Y-139373984D01*
X126343608Y-139386076D01*
X126325303Y-139571920D01*
X126325000Y-139578092D01*
X126325000Y-142066742D01*
X126323922Y-142083188D01*
X126310128Y-142187963D01*
X126301615Y-142219735D01*
X126264361Y-142309674D01*
X126247914Y-142338160D01*
X126188651Y-142415393D01*
X126165393Y-142438651D01*
X126088160Y-142497914D01*
X126059674Y-142514361D01*
X125969735Y-142551615D01*
X125937963Y-142560128D01*
X125833188Y-142573922D01*
X125816742Y-142575000D01*
X124743932Y-142575000D01*
X124675811Y-142554998D01*
X124629318Y-142501342D01*
X124617947Y-142450949D01*
X124521976Y-136247718D01*
X124540922Y-136179296D01*
X124593852Y-136131979D01*
X124647733Y-136119769D01*
X133514939Y-136103749D01*
X133583096Y-136123628D01*
G37*
M02*
