%TF.GenerationSoftware,KiCad,Pcbnew,6.0.11-2627ca5db0~126~ubuntu22.04.1*%
%TF.CreationDate,2023-06-07T20:54:12+02:00*%
%TF.ProjectId,asac-fc-rev-b,61736163-2d66-4632-9d72-65762d622e6b,B*%
%TF.SameCoordinates,Original*%
%TF.FileFunction,Paste,Top*%
%TF.FilePolarity,Positive*%
%FSLAX46Y46*%
G04 Gerber Fmt 4.6, Leading zero omitted, Abs format (unit mm)*
G04 Created by KiCad (PCBNEW 6.0.11-2627ca5db0~126~ubuntu22.04.1) date 2023-06-07 20:54:12*
%MOMM*%
%LPD*%
G01*
G04 APERTURE LIST*
G04 Aperture macros list*
%AMRoundRect*
0 Rectangle with rounded corners*
0 $1 Rounding radius*
0 $2 $3 $4 $5 $6 $7 $8 $9 X,Y pos of 4 corners*
0 Add a 4 corners polygon primitive as box body*
4,1,4,$2,$3,$4,$5,$6,$7,$8,$9,$2,$3,0*
0 Add four circle primitives for the rounded corners*
1,1,$1+$1,$2,$3*
1,1,$1+$1,$4,$5*
1,1,$1+$1,$6,$7*
1,1,$1+$1,$8,$9*
0 Add four rect primitives between the rounded corners*
20,1,$1+$1,$2,$3,$4,$5,0*
20,1,$1+$1,$4,$5,$6,$7,0*
20,1,$1+$1,$6,$7,$8,$9,0*
20,1,$1+$1,$8,$9,$2,$3,0*%
G04 Aperture macros list end*
%ADD10RoundRect,0.150000X0.650000X0.150000X-0.650000X0.150000X-0.650000X-0.150000X0.650000X-0.150000X0*%
%ADD11RoundRect,0.140000X0.170000X-0.140000X0.170000X0.140000X-0.170000X0.140000X-0.170000X-0.140000X0*%
%ADD12RoundRect,0.140000X-0.021213X0.219203X-0.219203X0.021213X0.021213X-0.219203X0.219203X-0.021213X0*%
%ADD13R,0.475000X0.250000*%
%ADD14R,0.250000X0.475000*%
%ADD15RoundRect,0.140000X-0.219203X-0.021213X-0.021213X-0.219203X0.219203X0.021213X0.021213X0.219203X0*%
%ADD16RoundRect,0.135000X0.135000X0.185000X-0.135000X0.185000X-0.135000X-0.185000X0.135000X-0.185000X0*%
%ADD17RoundRect,0.140000X0.219203X0.021213X0.021213X0.219203X-0.219203X-0.021213X-0.021213X-0.219203X0*%
%ADD18C,1.000000*%
%ADD19R,1.150000X0.600000*%
%ADD20R,1.150000X0.300000*%
%ADD21R,0.800000X1.500000*%
%ADD22R,1.000000X0.800000*%
%ADD23RoundRect,0.135000X-0.226274X-0.035355X-0.035355X-0.226274X0.226274X0.035355X0.035355X0.226274X0*%
%ADD24RoundRect,0.140000X0.021213X-0.219203X0.219203X-0.021213X-0.021213X0.219203X-0.219203X0.021213X0*%
%ADD25RoundRect,0.218750X0.218750X0.256250X-0.218750X0.256250X-0.218750X-0.256250X0.218750X-0.256250X0*%
%ADD26C,0.700000*%
%ADD27RoundRect,0.140000X-0.170000X0.140000X-0.170000X-0.140000X0.170000X-0.140000X0.170000X0.140000X0*%
%ADD28RoundRect,0.135000X0.226274X0.035355X0.035355X0.226274X-0.226274X-0.035355X-0.035355X-0.226274X0*%
%ADD29RoundRect,0.135000X0.185000X-0.135000X0.185000X0.135000X-0.185000X0.135000X-0.185000X-0.135000X0*%
%ADD30RoundRect,0.135000X-0.185000X0.135000X-0.185000X-0.135000X0.185000X-0.135000X0.185000X0.135000X0*%
%ADD31R,1.150000X1.000000*%
%ADD32RoundRect,0.249999X0.000000X0.558616X-0.558616X0.000000X0.000000X-0.558616X0.558616X0.000000X0*%
%ADD33RoundRect,0.050000X0.238649X0.309359X-0.309359X-0.238649X-0.238649X-0.309359X0.309359X0.238649X0*%
%ADD34RoundRect,0.050000X-0.238649X0.309359X-0.309359X0.238649X0.238649X-0.309359X0.309359X-0.238649X0*%
%ADD35RoundRect,0.140000X-0.140000X-0.170000X0.140000X-0.170000X0.140000X0.170000X-0.140000X0.170000X0*%
%ADD36RoundRect,0.218750X-0.256250X0.218750X-0.256250X-0.218750X0.256250X-0.218750X0.256250X0.218750X0*%
G04 APERTURE END LIST*
%TO.C,J10*%
G36*
X112663500Y-120160000D02*
G01*
X111513500Y-120160000D01*
X111513500Y-119560000D01*
X112663500Y-119560000D01*
X112663500Y-120160000D01*
G37*
G36*
X112663500Y-116360000D02*
G01*
X111513500Y-116360000D01*
X111513500Y-116060000D01*
X112663500Y-116060000D01*
X112663500Y-116360000D01*
G37*
G36*
X112663500Y-114560000D02*
G01*
X111513500Y-114560000D01*
X111513500Y-113960000D01*
X112663500Y-113960000D01*
X112663500Y-114560000D01*
G37*
G36*
X112663500Y-115860000D02*
G01*
X111513500Y-115860000D01*
X111513500Y-115560000D01*
X112663500Y-115560000D01*
X112663500Y-115860000D01*
G37*
G36*
X112663500Y-119360000D02*
G01*
X111513500Y-119360000D01*
X111513500Y-119060000D01*
X112663500Y-119060000D01*
X112663500Y-119360000D01*
G37*
G36*
X112663500Y-116860000D02*
G01*
X111513500Y-116860000D01*
X111513500Y-116560000D01*
X112663500Y-116560000D01*
X112663500Y-116860000D01*
G37*
G36*
X112663500Y-118360000D02*
G01*
X111513500Y-118360000D01*
X111513500Y-118060000D01*
X112663500Y-118060000D01*
X112663500Y-118360000D01*
G37*
G36*
X112663500Y-117860000D02*
G01*
X111513500Y-117860000D01*
X111513500Y-117560000D01*
X112663500Y-117560000D01*
X112663500Y-117860000D01*
G37*
G36*
X112663500Y-120960000D02*
G01*
X111513500Y-120960000D01*
X111513500Y-120360000D01*
X112663500Y-120360000D01*
X112663500Y-120960000D01*
G37*
G36*
X112663500Y-115360000D02*
G01*
X111513500Y-115360000D01*
X111513500Y-114760000D01*
X112663500Y-114760000D01*
X112663500Y-115360000D01*
G37*
G36*
X112663500Y-118860000D02*
G01*
X111513500Y-118860000D01*
X111513500Y-118560000D01*
X112663500Y-118560000D01*
X112663500Y-118860000D01*
G37*
G36*
X112663500Y-117360000D02*
G01*
X111513500Y-117360000D01*
X111513500Y-117060000D01*
X112663500Y-117060000D01*
X112663500Y-117360000D01*
G37*
%TO.C,SW1*%
G36*
X141141000Y-118982000D02*
G01*
X141166000Y-118984000D01*
X141216000Y-118992000D01*
X141241000Y-118998000D01*
X141265000Y-119004000D01*
X141290000Y-119011000D01*
X141314000Y-119020000D01*
X141337000Y-119029000D01*
X141361000Y-119039000D01*
X141383000Y-119050000D01*
X141406000Y-119062000D01*
X141428000Y-119075000D01*
X141449000Y-119088000D01*
X141470000Y-119103000D01*
X141490000Y-119118000D01*
X141510000Y-119134000D01*
X141529000Y-119151000D01*
X141547000Y-119168000D01*
X141565000Y-119186000D01*
X141582000Y-119205000D01*
X141614000Y-119245000D01*
X141642000Y-119287000D01*
X141655000Y-119309000D01*
X141667000Y-119331000D01*
X141689000Y-119377000D01*
X141698000Y-119400000D01*
X141707000Y-119424000D01*
X141714000Y-119448000D01*
X141721000Y-119473000D01*
X141731000Y-119523000D01*
X141735000Y-119548000D01*
X141738000Y-119573000D01*
X141739000Y-119598000D01*
X141740000Y-119624000D01*
X141740000Y-119649000D01*
X141739000Y-119674000D01*
X141736000Y-119700000D01*
X141733000Y-119725000D01*
X141729000Y-119750000D01*
X141724000Y-119775000D01*
X141718000Y-119799000D01*
X141711000Y-119824000D01*
X141702000Y-119848000D01*
X141694000Y-119871000D01*
X141684000Y-119895000D01*
X141673000Y-119918000D01*
X141649000Y-119962000D01*
X141635000Y-119984000D01*
X141621000Y-120005000D01*
X141606000Y-120025000D01*
X141590000Y-120045000D01*
X141574000Y-120064000D01*
X141556000Y-120083000D01*
X141538000Y-120101000D01*
X141520000Y-120118000D01*
X141480000Y-120150000D01*
X141460000Y-120165000D01*
X141439000Y-120179000D01*
X141417000Y-120192000D01*
X141395000Y-120204000D01*
X141372000Y-120216000D01*
X141326000Y-120236000D01*
X141278000Y-120252000D01*
X141253000Y-120259000D01*
X141228000Y-120265000D01*
X141204000Y-120270000D01*
X141179000Y-120274000D01*
X141153000Y-120277000D01*
X141128000Y-120279000D01*
X141103000Y-120280000D01*
X141077000Y-120280000D01*
X141052000Y-120279000D01*
X141027000Y-120277000D01*
X141002000Y-120274000D01*
X140976000Y-120270000D01*
X140952000Y-120265000D01*
X140927000Y-120259000D01*
X140902000Y-120252000D01*
X140878000Y-120244000D01*
X140855000Y-120236000D01*
X140831000Y-120226000D01*
X140808000Y-120216000D01*
X140785000Y-120204000D01*
X140763000Y-120192000D01*
X140742000Y-120179000D01*
X140720000Y-120165000D01*
X140700000Y-120150000D01*
X140660000Y-120118000D01*
X140642000Y-120101000D01*
X140624000Y-120083000D01*
X140606000Y-120064000D01*
X140590000Y-120045000D01*
X140574000Y-120025000D01*
X140559000Y-120005000D01*
X140545000Y-119984000D01*
X140531000Y-119962000D01*
X140507000Y-119918000D01*
X140496000Y-119895000D01*
X140487000Y-119871000D01*
X140478000Y-119848000D01*
X140470000Y-119824000D01*
X140462000Y-119799000D01*
X140456000Y-119775000D01*
X140451000Y-119750000D01*
X140447000Y-119725000D01*
X140444000Y-119700000D01*
X140442000Y-119674000D01*
X140440000Y-119649000D01*
X140440000Y-119624000D01*
X140441000Y-119598000D01*
X140445000Y-119548000D01*
X140449000Y-119523000D01*
X140459000Y-119473000D01*
X140466000Y-119448000D01*
X140473000Y-119424000D01*
X140482000Y-119400000D01*
X140491000Y-119377000D01*
X140513000Y-119331000D01*
X140525000Y-119309000D01*
X140538000Y-119287000D01*
X140566000Y-119245000D01*
X140598000Y-119205000D01*
X140615000Y-119186000D01*
X140633000Y-119168000D01*
X140651000Y-119151000D01*
X140670000Y-119134000D01*
X140690000Y-119118000D01*
X140710000Y-119103000D01*
X140731000Y-119088000D01*
X140752000Y-119075000D01*
X140774000Y-119062000D01*
X140797000Y-119050000D01*
X140819000Y-119039000D01*
X140843000Y-119029000D01*
X140866000Y-119020000D01*
X140890000Y-119011000D01*
X140915000Y-119004000D01*
X140939000Y-118998000D01*
X140964000Y-118992000D01*
X141014000Y-118984000D01*
X141039000Y-118982000D01*
X141065000Y-118980000D01*
X141115000Y-118980000D01*
X141141000Y-118982000D01*
G37*
G36*
X140240000Y-119455000D02*
G01*
X139240000Y-119455000D01*
X139240000Y-118655000D01*
X140240000Y-118655000D01*
X140240000Y-119455000D01*
G37*
G36*
X141115000Y-114481000D02*
G01*
X141141000Y-114482000D01*
X141191000Y-114488000D01*
X141216000Y-114492000D01*
X141241000Y-114498000D01*
X141265000Y-114504000D01*
X141290000Y-114512000D01*
X141314000Y-114520000D01*
X141337000Y-114529000D01*
X141361000Y-114539000D01*
X141383000Y-114550000D01*
X141406000Y-114562000D01*
X141428000Y-114575000D01*
X141449000Y-114588000D01*
X141470000Y-114603000D01*
X141490000Y-114618000D01*
X141510000Y-114634000D01*
X141529000Y-114651000D01*
X141547000Y-114668000D01*
X141565000Y-114686000D01*
X141582000Y-114705000D01*
X141614000Y-114745000D01*
X141642000Y-114787000D01*
X141655000Y-114809000D01*
X141667000Y-114831000D01*
X141689000Y-114877000D01*
X141698000Y-114900000D01*
X141707000Y-114924000D01*
X141714000Y-114949000D01*
X141721000Y-114973000D01*
X141731000Y-115023000D01*
X141735000Y-115048000D01*
X141738000Y-115073000D01*
X141739000Y-115098000D01*
X141740000Y-115124000D01*
X141740000Y-115149000D01*
X141739000Y-115174000D01*
X141736000Y-115200000D01*
X141733000Y-115225000D01*
X141729000Y-115250000D01*
X141724000Y-115275000D01*
X141718000Y-115299000D01*
X141711000Y-115324000D01*
X141702000Y-115348000D01*
X141694000Y-115371000D01*
X141684000Y-115395000D01*
X141673000Y-115418000D01*
X141649000Y-115462000D01*
X141635000Y-115484000D01*
X141621000Y-115505000D01*
X141606000Y-115525000D01*
X141590000Y-115545000D01*
X141574000Y-115564000D01*
X141556000Y-115583000D01*
X141538000Y-115601000D01*
X141520000Y-115618000D01*
X141480000Y-115650000D01*
X141460000Y-115665000D01*
X141439000Y-115679000D01*
X141417000Y-115692000D01*
X141395000Y-115704000D01*
X141372000Y-115716000D01*
X141326000Y-115736000D01*
X141302000Y-115745000D01*
X141278000Y-115752000D01*
X141253000Y-115759000D01*
X141228000Y-115765000D01*
X141204000Y-115770000D01*
X141179000Y-115774000D01*
X141153000Y-115777000D01*
X141128000Y-115779000D01*
X141103000Y-115780000D01*
X141077000Y-115780000D01*
X141052000Y-115779000D01*
X141027000Y-115777000D01*
X141002000Y-115774000D01*
X140976000Y-115770000D01*
X140952000Y-115765000D01*
X140927000Y-115759000D01*
X140902000Y-115752000D01*
X140878000Y-115745000D01*
X140855000Y-115736000D01*
X140831000Y-115726000D01*
X140808000Y-115716000D01*
X140785000Y-115704000D01*
X140763000Y-115692000D01*
X140742000Y-115679000D01*
X140720000Y-115665000D01*
X140700000Y-115650000D01*
X140660000Y-115618000D01*
X140642000Y-115601000D01*
X140624000Y-115583000D01*
X140606000Y-115564000D01*
X140590000Y-115545000D01*
X140574000Y-115525000D01*
X140559000Y-115505000D01*
X140545000Y-115484000D01*
X140531000Y-115462000D01*
X140507000Y-115418000D01*
X140496000Y-115395000D01*
X140487000Y-115371000D01*
X140478000Y-115348000D01*
X140470000Y-115324000D01*
X140462000Y-115299000D01*
X140456000Y-115275000D01*
X140451000Y-115250000D01*
X140447000Y-115225000D01*
X140444000Y-115200000D01*
X140442000Y-115174000D01*
X140440000Y-115149000D01*
X140440000Y-115124000D01*
X140441000Y-115098000D01*
X140445000Y-115048000D01*
X140449000Y-115023000D01*
X140459000Y-114973000D01*
X140466000Y-114949000D01*
X140473000Y-114924000D01*
X140482000Y-114900000D01*
X140491000Y-114877000D01*
X140513000Y-114831000D01*
X140525000Y-114809000D01*
X140538000Y-114787000D01*
X140566000Y-114745000D01*
X140598000Y-114705000D01*
X140615000Y-114686000D01*
X140633000Y-114668000D01*
X140651000Y-114651000D01*
X140670000Y-114634000D01*
X140690000Y-114618000D01*
X140710000Y-114603000D01*
X140731000Y-114588000D01*
X140752000Y-114575000D01*
X140774000Y-114562000D01*
X140797000Y-114550000D01*
X140819000Y-114539000D01*
X140843000Y-114529000D01*
X140866000Y-114520000D01*
X140890000Y-114512000D01*
X140915000Y-114504000D01*
X140939000Y-114498000D01*
X140964000Y-114492000D01*
X140989000Y-114488000D01*
X141039000Y-114482000D01*
X141065000Y-114481000D01*
X141090000Y-114480000D01*
X141115000Y-114481000D01*
G37*
G36*
X140090000Y-118094000D02*
G01*
X139290000Y-118094000D01*
X139290000Y-116594000D01*
X140090000Y-116594000D01*
X140090000Y-118094000D01*
G37*
G36*
X140240000Y-116105000D02*
G01*
X139240000Y-116105000D01*
X139240000Y-115305000D01*
X140240000Y-115305000D01*
X140240000Y-116105000D01*
G37*
%TD*%
D10*
%TO.C,U3*%
X137990000Y-123475000D03*
X137990000Y-122205000D03*
X137990000Y-120935000D03*
X137990000Y-119665000D03*
X130790000Y-119665000D03*
X130790000Y-120935000D03*
X130790000Y-122205000D03*
X130790000Y-123475000D03*
%TD*%
D11*
%TO.C,C2*%
X115120000Y-111240000D03*
X115120000Y-110280000D03*
%TD*%
D12*
%TO.C,C13*%
X123469411Y-124970589D03*
X122790589Y-125649411D03*
%TD*%
D13*
%TO.C,U1*%
X122387500Y-109340000D03*
X122387500Y-109840000D03*
X122387500Y-110340000D03*
X122387500Y-110840000D03*
D14*
X123050000Y-111002500D03*
X123550000Y-111002500D03*
X124050000Y-111002500D03*
D13*
X124712500Y-110840000D03*
X124712500Y-110340000D03*
X124712500Y-109840000D03*
X124712500Y-109340000D03*
D14*
X124050000Y-109177500D03*
X123550000Y-109177500D03*
X123050000Y-109177500D03*
%TD*%
D15*
%TO.C,C18*%
X128310589Y-122900589D03*
X128989411Y-123579411D03*
%TD*%
D16*
%TO.C,R8*%
X137250000Y-116100000D03*
X136230000Y-116100000D03*
%TD*%
%TO.C,R9*%
X137280000Y-117120000D03*
X136260000Y-117120000D03*
%TD*%
D15*
%TO.C,C14*%
X123670589Y-127680589D03*
X124349411Y-128359411D03*
%TD*%
D17*
%TO.C,C12*%
X118479411Y-114139411D03*
X117800589Y-113460589D03*
%TD*%
%TO.C,C16*%
X117669411Y-114949411D03*
X116990589Y-114270589D03*
%TD*%
D18*
%TO.C,J7*%
X113742000Y-111660000D03*
X113742000Y-110360000D03*
%TD*%
D19*
%TO.C,J10*%
X112087500Y-120660000D03*
X112087500Y-114260000D03*
X112087500Y-119860000D03*
X112087500Y-115060000D03*
D20*
X112087500Y-116210000D03*
X112087500Y-117210000D03*
X112087500Y-117710000D03*
X112087500Y-118710000D03*
X112087500Y-119210000D03*
X112087500Y-118210000D03*
X112087500Y-116710000D03*
X112087500Y-115710000D03*
%TD*%
D21*
%TO.C,SW1*%
X139690000Y-117344000D03*
D22*
X139740000Y-115705000D03*
X139740000Y-119055000D03*
%TD*%
D23*
%TO.C,R1*%
X118569376Y-112709376D03*
X119290624Y-113430624D03*
%TD*%
D24*
%TO.C,C11*%
X127660589Y-113149411D03*
X128339411Y-112470589D03*
%TD*%
D25*
%TO.C,D3*%
X141277500Y-121330000D03*
X139702500Y-121330000D03*
%TD*%
D26*
%TO.C,TP3*%
X122850000Y-107930000D03*
%TD*%
D15*
%TO.C,C7*%
X124420589Y-126880589D03*
X125099411Y-127559411D03*
%TD*%
D23*
%TO.C,R4*%
X115809376Y-115859376D03*
X116530624Y-116580624D03*
%TD*%
D27*
%TO.C,C9*%
X117410000Y-123330000D03*
X117410000Y-122370000D03*
%TD*%
D28*
%TO.C,R3*%
X126710624Y-125920624D03*
X125989376Y-125199376D03*
%TD*%
D29*
%TO.C,R12*%
X134970000Y-126690000D03*
X134970000Y-125670000D03*
%TD*%
D30*
%TO.C,R13*%
X133590000Y-125700000D03*
X133590000Y-126720000D03*
%TD*%
D31*
%TO.C,Y1*%
X118305000Y-109850000D03*
X116555000Y-109850000D03*
X116555000Y-111250000D03*
X118305000Y-111250000D03*
%TD*%
D32*
%TO.C,U2*%
X124834578Y-118526736D03*
X123703207Y-117395365D03*
X123703207Y-119658107D03*
X122571836Y-118526736D03*
D33*
X127972364Y-117934534D03*
X127689521Y-117651691D03*
X127406679Y-117368849D03*
X127123836Y-117086006D03*
X126840993Y-116803163D03*
X126558151Y-116520321D03*
X126275308Y-116237478D03*
X125992465Y-115954635D03*
X125709622Y-115671792D03*
X125426780Y-115388950D03*
X125143937Y-115106107D03*
X124861094Y-114823264D03*
X124578252Y-114540422D03*
X124295409Y-114257579D03*
D34*
X123111005Y-114257579D03*
X122828162Y-114540422D03*
X122545320Y-114823264D03*
X122262477Y-115106107D03*
X121979634Y-115388950D03*
X121696792Y-115671792D03*
X121413949Y-115954635D03*
X121131106Y-116237478D03*
X120848263Y-116520321D03*
X120565421Y-116803163D03*
X120282578Y-117086006D03*
X119999735Y-117368849D03*
X119716893Y-117651691D03*
X119434050Y-117934534D03*
D33*
X119434050Y-119118938D03*
X119716893Y-119401781D03*
X119999735Y-119684623D03*
X120282578Y-119967466D03*
X120565421Y-120250309D03*
X120848263Y-120533151D03*
X121131106Y-120815994D03*
X121413949Y-121098837D03*
X121696792Y-121381680D03*
X121979634Y-121664522D03*
X122262477Y-121947365D03*
X122545320Y-122230208D03*
X122828162Y-122513050D03*
X123111005Y-122795893D03*
D34*
X124295409Y-122795893D03*
X124578252Y-122513050D03*
X124861094Y-122230208D03*
X125143937Y-121947365D03*
X125426780Y-121664522D03*
X125709622Y-121381680D03*
X125992465Y-121098837D03*
X126275308Y-120815994D03*
X126558151Y-120533151D03*
X126840993Y-120250309D03*
X127123836Y-119967466D03*
X127406679Y-119684623D03*
X127689521Y-119401781D03*
X127972364Y-119118938D03*
%TD*%
D15*
%TO.C,C15*%
X125200589Y-126060589D03*
X125879411Y-126739411D03*
%TD*%
D29*
%TO.C,R10*%
X120980000Y-127570000D03*
X120980000Y-126550000D03*
%TD*%
D28*
%TO.C,R2*%
X127470624Y-125180624D03*
X126749376Y-124459376D03*
%TD*%
D26*
%TO.C,TP2*%
X123550000Y-107120000D03*
%TD*%
D35*
%TO.C,C4*%
X125830000Y-110860000D03*
X126790000Y-110860000D03*
%TD*%
D30*
%TO.C,R11*%
X122050000Y-126540000D03*
X122050000Y-127560000D03*
%TD*%
D15*
%TO.C,C8*%
X127530589Y-123660589D03*
X128209411Y-124339411D03*
%TD*%
D26*
%TO.C,TP4*%
X121360000Y-109120000D03*
%TD*%
D27*
%TO.C,C1*%
X119760000Y-110320000D03*
X119760000Y-111280000D03*
%TD*%
D26*
%TO.C,TP1*%
X124360000Y-108130000D03*
%TD*%
D36*
%TO.C,D1*%
X136180000Y-100442500D03*
X136180000Y-102017500D03*
%TD*%
D29*
%TO.C,R15*%
X114610000Y-120770000D03*
X114610000Y-119750000D03*
%TD*%
D27*
%TO.C,C17*%
X132150000Y-125710000D03*
X132150000Y-126670000D03*
%TD*%
D30*
%TO.C,R16*%
X115780000Y-119770000D03*
X115780000Y-120790000D03*
%TD*%
D25*
%TO.C,D2*%
X141297500Y-113240000D03*
X139722500Y-113240000D03*
%TD*%
D30*
%TO.C,R7*%
X136190000Y-103270000D03*
X136190000Y-104290000D03*
%TD*%
D24*
%TO.C,C10*%
X130590589Y-116669411D03*
X131269411Y-115990589D03*
%TD*%
D35*
%TO.C,C3*%
X123100000Y-112110000D03*
X124060000Y-112110000D03*
%TD*%
D27*
%TO.C,C19*%
X138460000Y-116090000D03*
X138460000Y-117050000D03*
%TD*%
M02*
