%TF.GenerationSoftware,KiCad,Pcbnew,6.0.11-2627ca5db0~126~ubuntu22.04.1*%
%TF.CreationDate,2023-06-07T20:54:12+02:00*%
%TF.ProjectId,asac-fc-rev-b,61736163-2d66-4632-9d72-65762d622e6b,B*%
%TF.SameCoordinates,Original*%
%TF.FileFunction,Soldermask,Bot*%
%TF.FilePolarity,Negative*%
%FSLAX46Y46*%
G04 Gerber Fmt 4.6, Leading zero omitted, Abs format (unit mm)*
G04 Created by KiCad (PCBNEW 6.0.11-2627ca5db0~126~ubuntu22.04.1) date 2023-06-07 20:54:12*
%MOMM*%
%LPD*%
G01*
G04 APERTURE LIST*
G04 Aperture macros list*
%AMRoundRect*
0 Rectangle with rounded corners*
0 $1 Rounding radius*
0 $2 $3 $4 $5 $6 $7 $8 $9 X,Y pos of 4 corners*
0 Add a 4 corners polygon primitive as box body*
4,1,4,$2,$3,$4,$5,$6,$7,$8,$9,$2,$3,0*
0 Add four circle primitives for the rounded corners*
1,1,$1+$1,$2,$3*
1,1,$1+$1,$4,$5*
1,1,$1+$1,$6,$7*
1,1,$1+$1,$8,$9*
0 Add four rect primitives between the rounded corners*
20,1,$1+$1,$2,$3,$4,$5,0*
20,1,$1+$1,$4,$5,$6,$7,0*
20,1,$1+$1,$6,$7,$8,$9,0*
20,1,$1+$1,$8,$9,$2,$3,0*%
G04 Aperture macros list end*
%ADD10R,0.850000X0.700000*%
%ADD11R,1.270000X1.270000*%
%ADD12C,0.650000*%
%ADD13O,2.100000X1.000000*%
%ADD14O,1.800000X1.000000*%
%ADD15C,1.300000*%
%ADD16C,0.800000*%
%ADD17RoundRect,0.250000X0.250000X-0.625000X0.250000X0.625000X-0.250000X0.625000X-0.250000X-0.625000X0*%
%ADD18R,1.500000X2.000000*%
%ADD19R,3.800000X2.000000*%
%ADD20RoundRect,0.250000X0.475000X-0.250000X0.475000X0.250000X-0.475000X0.250000X-0.475000X-0.250000X0*%
%ADD21R,1.200000X0.900000*%
%ADD22RoundRect,0.135000X-0.185000X0.135000X-0.185000X-0.135000X0.185000X-0.135000X0.185000X0.135000X0*%
%ADD23O,1.500000X1.000000*%
%ADD24RoundRect,0.135000X0.185000X-0.135000X0.185000X0.135000X-0.185000X0.135000X-0.185000X-0.135000X0*%
%ADD25RoundRect,0.150000X-0.150000X0.587500X-0.150000X-0.587500X0.150000X-0.587500X0.150000X0.587500X0*%
G04 APERTURE END LIST*
D10*
%TO.C,J4*%
X139775000Y-129750000D03*
X141375000Y-129050000D03*
X140575000Y-129050000D03*
X140575000Y-129750000D03*
X141375000Y-129750000D03*
X139775000Y-129050000D03*
X141375000Y-128350000D03*
X139775000Y-128350000D03*
X140575000Y-128350000D03*
D11*
X141175000Y-126850000D03*
D10*
X139775000Y-124650000D03*
X140575000Y-123950000D03*
X140575000Y-125350000D03*
X141375000Y-124650000D03*
X141375000Y-123950000D03*
X141375000Y-125350000D03*
X140575000Y-124650000D03*
X139775000Y-125350000D03*
X139775000Y-123950000D03*
%TD*%
%TO.C,J9*%
X106749600Y-105777800D03*
X108349600Y-106477800D03*
X108349600Y-105777800D03*
X106749600Y-105077800D03*
X107549600Y-106477800D03*
X107549600Y-105777800D03*
X106749600Y-106477800D03*
X108349600Y-105077800D03*
X107549600Y-105077800D03*
D11*
X106949600Y-107977800D03*
D10*
X108349600Y-110177800D03*
X107549600Y-110177800D03*
X106749600Y-109477800D03*
X107549600Y-110877800D03*
X106749600Y-110177800D03*
X108349600Y-110877800D03*
X106749600Y-110877800D03*
X107549600Y-109477800D03*
X108349600Y-109477800D03*
%TD*%
D12*
%TO.C,J10*%
X111022500Y-114570000D03*
X111022500Y-120350000D03*
D13*
X111523500Y-113140000D03*
X111523500Y-121780000D03*
D14*
X107343500Y-113140000D03*
X107343500Y-121780000D03*
%TD*%
D15*
%TO.C,SW1*%
X141090000Y-119630000D03*
X141090000Y-115130000D03*
D16*
X141090000Y-118230000D03*
X141090000Y-116530000D03*
%TD*%
D17*
%TO.C,J3*%
X111580000Y-104000000D03*
X113080000Y-104000000D03*
X114580000Y-104000000D03*
X116080000Y-104000000D03*
%TD*%
D10*
%TO.C,J1*%
X139820000Y-105900000D03*
X141420000Y-106600000D03*
X141420000Y-105200000D03*
X139820000Y-105200000D03*
X140620000Y-105900000D03*
X140620000Y-105200000D03*
X140620000Y-106600000D03*
X139820000Y-106600000D03*
X141420000Y-105900000D03*
D11*
X141170000Y-108100000D03*
D10*
X139820000Y-111000000D03*
X140620000Y-110300000D03*
X140620000Y-111000000D03*
X141420000Y-110300000D03*
X139820000Y-109600000D03*
X141420000Y-111000000D03*
X140620000Y-109600000D03*
X139820000Y-110300000D03*
X141420000Y-109600000D03*
%TD*%
D17*
%TO.C,J15*%
X123720000Y-100850000D03*
X125220000Y-100850000D03*
X126720000Y-100850000D03*
X128220000Y-100850000D03*
%TD*%
%TO.C,J8*%
X117660000Y-100830000D03*
X119160000Y-100830000D03*
X120660000Y-100830000D03*
X122160000Y-100830000D03*
%TD*%
%TO.C,J2*%
X129820000Y-104000000D03*
X131320000Y-104000000D03*
X132820000Y-104000000D03*
X134320000Y-104000000D03*
%TD*%
D10*
%TO.C,J6*%
X107574600Y-129050000D03*
X107574600Y-128350000D03*
X107574600Y-129750000D03*
X108374600Y-128350000D03*
X108374600Y-129050000D03*
X106774600Y-129050000D03*
X108374600Y-129750000D03*
X106774600Y-129750000D03*
X106774600Y-128350000D03*
D11*
X106974600Y-126850000D03*
D10*
X108374600Y-123950000D03*
X107574600Y-124650000D03*
X107574600Y-125350000D03*
X108374600Y-125350000D03*
X106774600Y-124650000D03*
X108374600Y-124650000D03*
X107574600Y-123950000D03*
X106774600Y-125350000D03*
X106774600Y-123950000D03*
%TD*%
D17*
%TO.C,J5*%
X111580000Y-100840000D03*
X113080000Y-100840000D03*
X114580000Y-100840000D03*
X116080000Y-100840000D03*
%TD*%
%TO.C,J12*%
X129820000Y-100830000D03*
X131320000Y-100830000D03*
X132820000Y-100830000D03*
X134320000Y-100830000D03*
%TD*%
D18*
%TO.C,U4*%
X134500000Y-133125000D03*
X132200000Y-133125000D03*
D19*
X132200000Y-126825000D03*
D18*
X129900000Y-133125000D03*
%TD*%
D20*
%TO.C,C22*%
X127490000Y-129890000D03*
X127490000Y-127990000D03*
%TD*%
D21*
%TO.C,D4*%
X115670000Y-129600000D03*
X115670000Y-132900000D03*
%TD*%
D20*
%TO.C,C20*%
X127450000Y-133425000D03*
X127450000Y-131525000D03*
%TD*%
D22*
%TO.C,R6*%
X114720000Y-123170000D03*
X114720000Y-124190000D03*
%TD*%
D20*
%TO.C,C21*%
X113550000Y-127950000D03*
X113550000Y-126050000D03*
%TD*%
D18*
%TO.C,U5*%
X123175000Y-133475000D03*
X120875000Y-133475000D03*
D19*
X120875000Y-127175000D03*
D18*
X118575000Y-133475000D03*
%TD*%
D23*
%TO.C,J14*%
X107150000Y-116240000D03*
X107150000Y-117510000D03*
X107150000Y-118780000D03*
%TD*%
D22*
%TO.C,R5*%
X115740000Y-123200000D03*
X115740000Y-124220000D03*
%TD*%
D21*
%TO.C,D5*%
X111160000Y-126750000D03*
X111160000Y-123450000D03*
%TD*%
D20*
%TO.C,C23*%
X115770000Y-127920000D03*
X115770000Y-126020000D03*
%TD*%
D24*
%TO.C,R14*%
X111420000Y-129110000D03*
X111420000Y-128090000D03*
%TD*%
D25*
%TO.C,Q1*%
X111650000Y-130722500D03*
X113550000Y-130722500D03*
X112600000Y-132597500D03*
%TD*%
G36*
X133604926Y-136123588D02*
G01*
X133651516Y-136177160D01*
X133661747Y-136247415D01*
X133632370Y-136312049D01*
X133620957Y-136323660D01*
X133461304Y-136466335D01*
X133456335Y-136471304D01*
X133236863Y-136716894D01*
X133232457Y-136722419D01*
X133041872Y-136991022D01*
X133038120Y-136996993D01*
X132878804Y-137285253D01*
X132875739Y-137291617D01*
X132749704Y-137595894D01*
X132747371Y-137602561D01*
X132656193Y-137919047D01*
X132654625Y-137925916D01*
X132599455Y-138250623D01*
X132598665Y-138257636D01*
X132580100Y-138588225D01*
X132580000Y-138591782D01*
X132580000Y-141583813D01*
X132579393Y-141596163D01*
X132562002Y-141772737D01*
X132557184Y-141796963D01*
X132507482Y-141960809D01*
X132498029Y-141983629D01*
X132417319Y-142134628D01*
X132403596Y-142155166D01*
X132294980Y-142287515D01*
X132277515Y-142304980D01*
X132145166Y-142413596D01*
X132124628Y-142427319D01*
X131973629Y-142508029D01*
X131950809Y-142517482D01*
X131786963Y-142567184D01*
X131762737Y-142572002D01*
X131586163Y-142589393D01*
X131573813Y-142590000D01*
X130088258Y-142590000D01*
X130071812Y-142588922D01*
X129967037Y-142575128D01*
X129935265Y-142566615D01*
X129845326Y-142529361D01*
X129816840Y-142512914D01*
X129739607Y-142453651D01*
X129716349Y-142430393D01*
X129657086Y-142353160D01*
X129640639Y-142324674D01*
X129603385Y-142234735D01*
X129594872Y-142202963D01*
X129581078Y-142098188D01*
X129580000Y-142081742D01*
X129580000Y-139593092D01*
X129579697Y-139586920D01*
X129561392Y-139401076D01*
X129558988Y-139388984D01*
X129505675Y-139213235D01*
X129500964Y-139201862D01*
X129414390Y-139039893D01*
X129407539Y-139029640D01*
X129291034Y-138887678D01*
X129282322Y-138878966D01*
X129140360Y-138762461D01*
X129130107Y-138755610D01*
X128968138Y-138669036D01*
X128956765Y-138664325D01*
X128781016Y-138611012D01*
X128768924Y-138608608D01*
X128583080Y-138590303D01*
X128576908Y-138590000D01*
X127583092Y-138590000D01*
X127576920Y-138590303D01*
X127391076Y-138608608D01*
X127378984Y-138611012D01*
X127203235Y-138664325D01*
X127191862Y-138669036D01*
X127029893Y-138755610D01*
X127019640Y-138762461D01*
X126877678Y-138878966D01*
X126868966Y-138887678D01*
X126752461Y-139029640D01*
X126745610Y-139039893D01*
X126659036Y-139201862D01*
X126654325Y-139213235D01*
X126601012Y-139388984D01*
X126598608Y-139401076D01*
X126580303Y-139586920D01*
X126580000Y-139593092D01*
X126580000Y-142081742D01*
X126578922Y-142098188D01*
X126565128Y-142202963D01*
X126556615Y-142234735D01*
X126519361Y-142324674D01*
X126502914Y-142353160D01*
X126443651Y-142430393D01*
X126420393Y-142453651D01*
X126343160Y-142512914D01*
X126314674Y-142529361D01*
X126224735Y-142566615D01*
X126192963Y-142575128D01*
X126088188Y-142588922D01*
X126071742Y-142590000D01*
X124744164Y-142590000D01*
X124676043Y-142569998D01*
X124629550Y-142516342D01*
X124618179Y-142465949D01*
X124521976Y-136247718D01*
X124540922Y-136179296D01*
X124593852Y-136131979D01*
X124647733Y-136119769D01*
X133536769Y-136103709D01*
X133604926Y-136123588D01*
G37*
G36*
X123423066Y-136070158D02*
G01*
X123469704Y-136123687D01*
X123481227Y-136175105D01*
X123542871Y-142462765D01*
X123523538Y-142531078D01*
X123470340Y-142578095D01*
X123416877Y-142590000D01*
X122088258Y-142590000D01*
X122071812Y-142588922D01*
X121967037Y-142575128D01*
X121935265Y-142566615D01*
X121845326Y-142529361D01*
X121816840Y-142512914D01*
X121739607Y-142453651D01*
X121716349Y-142430393D01*
X121657086Y-142353160D01*
X121640639Y-142324674D01*
X121603385Y-142234735D01*
X121594872Y-142202963D01*
X121581078Y-142098188D01*
X121580000Y-142081742D01*
X121580000Y-139593092D01*
X121579697Y-139586920D01*
X121561392Y-139401076D01*
X121558988Y-139388984D01*
X121505675Y-139213235D01*
X121500964Y-139201862D01*
X121414390Y-139039893D01*
X121407539Y-139029640D01*
X121291034Y-138887678D01*
X121282322Y-138878966D01*
X121140360Y-138762461D01*
X121130107Y-138755610D01*
X120968138Y-138669036D01*
X120956765Y-138664325D01*
X120781016Y-138611012D01*
X120768924Y-138608608D01*
X120583080Y-138590303D01*
X120576908Y-138590000D01*
X119583092Y-138590000D01*
X119576920Y-138590303D01*
X119391076Y-138608608D01*
X119378984Y-138611012D01*
X119203235Y-138664325D01*
X119191862Y-138669036D01*
X119029893Y-138755610D01*
X119019640Y-138762461D01*
X118877678Y-138878966D01*
X118868966Y-138887678D01*
X118752461Y-139029640D01*
X118745610Y-139039893D01*
X118659036Y-139201862D01*
X118654325Y-139213235D01*
X118601012Y-139388984D01*
X118598608Y-139401076D01*
X118580303Y-139586920D01*
X118580000Y-139593092D01*
X118580000Y-142081742D01*
X118578922Y-142098188D01*
X118565128Y-142202963D01*
X118556615Y-142234735D01*
X118519361Y-142324674D01*
X118502914Y-142353160D01*
X118443651Y-142430393D01*
X118420393Y-142453651D01*
X118343160Y-142512914D01*
X118314674Y-142529361D01*
X118224735Y-142566615D01*
X118192963Y-142575128D01*
X118088188Y-142588922D01*
X118071742Y-142590000D01*
X116586187Y-142590000D01*
X116573837Y-142589393D01*
X116397263Y-142572002D01*
X116373037Y-142567184D01*
X116209191Y-142517482D01*
X116186371Y-142508029D01*
X116035372Y-142427319D01*
X116014834Y-142413596D01*
X115882485Y-142304980D01*
X115865020Y-142287515D01*
X115756404Y-142155166D01*
X115742681Y-142134628D01*
X115661971Y-141983629D01*
X115652518Y-141960809D01*
X115602816Y-141796963D01*
X115597998Y-141772737D01*
X115580607Y-141596163D01*
X115580000Y-141583813D01*
X115580000Y-138591782D01*
X115579900Y-138588225D01*
X115561335Y-138257636D01*
X115560545Y-138250623D01*
X115505375Y-137925916D01*
X115503807Y-137919047D01*
X115412629Y-137602561D01*
X115410296Y-137595894D01*
X115284261Y-137291617D01*
X115281196Y-137285253D01*
X115121880Y-136996993D01*
X115118128Y-136991022D01*
X114927543Y-136722419D01*
X114923137Y-136716894D01*
X114703665Y-136471304D01*
X114698696Y-136466335D01*
X114505952Y-136294088D01*
X114468487Y-136233781D01*
X114469573Y-136162793D01*
X114508866Y-136103661D01*
X114573891Y-136075160D01*
X114589570Y-136074137D01*
X123354891Y-136050340D01*
X123423066Y-136070158D01*
G37*
M02*
