%TF.GenerationSoftware,KiCad,Pcbnew,6.0.11-2627ca5db0~126~ubuntu22.04.1*%
%TF.CreationDate,2023-06-07T20:54:12+02:00*%
%TF.ProjectId,asac-fc-rev-b,61736163-2d66-4632-9d72-65762d622e6b,B*%
%TF.SameCoordinates,Original*%
%TF.FileFunction,Legend,Bot*%
%TF.FilePolarity,Positive*%
%FSLAX46Y46*%
G04 Gerber Fmt 4.6, Leading zero omitted, Abs format (unit mm)*
G04 Created by KiCad (PCBNEW 6.0.11-2627ca5db0~126~ubuntu22.04.1) date 2023-06-07 20:54:12*
%MOMM*%
%LPD*%
G01*
G04 APERTURE LIST*
G04 Aperture macros list*
%AMRoundRect*
0 Rectangle with rounded corners*
0 $1 Rounding radius*
0 $2 $3 $4 $5 $6 $7 $8 $9 X,Y pos of 4 corners*
0 Add a 4 corners polygon primitive as box body*
4,1,4,$2,$3,$4,$5,$6,$7,$8,$9,$2,$3,0*
0 Add four circle primitives for the rounded corners*
1,1,$1+$1,$2,$3*
1,1,$1+$1,$4,$5*
1,1,$1+$1,$6,$7*
1,1,$1+$1,$8,$9*
0 Add four rect primitives between the rounded corners*
20,1,$1+$1,$2,$3,$4,$5,0*
20,1,$1+$1,$4,$5,$6,$7,0*
20,1,$1+$1,$6,$7,$8,$9,0*
20,1,$1+$1,$8,$9,$2,$3,0*%
G04 Aperture macros list end*
%ADD10C,0.175000*%
%ADD11C,0.150000*%
%ADD12C,0.120000*%
%ADD13R,0.850000X0.700000*%
%ADD14R,1.270000X1.270000*%
%ADD15C,0.650000*%
%ADD16O,2.100000X1.000000*%
%ADD17O,1.800000X1.000000*%
%ADD18C,1.300000*%
%ADD19C,0.800000*%
%ADD20RoundRect,0.250000X0.250000X-0.625000X0.250000X0.625000X-0.250000X0.625000X-0.250000X-0.625000X0*%
%ADD21R,1.500000X2.000000*%
%ADD22R,3.800000X2.000000*%
%ADD23RoundRect,0.250000X0.475000X-0.250000X0.475000X0.250000X-0.475000X0.250000X-0.475000X-0.250000X0*%
%ADD24R,1.200000X0.900000*%
%ADD25RoundRect,0.135000X-0.185000X0.135000X-0.185000X-0.135000X0.185000X-0.135000X0.185000X0.135000X0*%
%ADD26O,1.500000X1.000000*%
%ADD27RoundRect,0.135000X0.185000X-0.135000X0.185000X0.135000X-0.185000X0.135000X-0.185000X-0.135000X0*%
%ADD28RoundRect,0.150000X-0.150000X0.587500X-0.150000X-0.587500X0.150000X-0.587500X0.150000X0.587500X0*%
G04 APERTURE END LIST*
D10*
X109363333Y-120253333D02*
X109263333Y-120286666D01*
X109096666Y-120286666D01*
X109030000Y-120253333D01*
X108996666Y-120220000D01*
X108963333Y-120153333D01*
X108963333Y-120086666D01*
X108996666Y-120020000D01*
X109030000Y-119986666D01*
X109096666Y-119953333D01*
X109230000Y-119920000D01*
X109296666Y-119886666D01*
X109330000Y-119853333D01*
X109363333Y-119786666D01*
X109363333Y-119720000D01*
X109330000Y-119653333D01*
X109296666Y-119620000D01*
X109230000Y-119586666D01*
X109063333Y-119586666D01*
X108963333Y-119620000D01*
X108730000Y-119586666D02*
X108563333Y-120286666D01*
X108430000Y-119786666D01*
X108296666Y-120286666D01*
X108130000Y-119586666D01*
X107863333Y-120286666D02*
X107863333Y-119586666D01*
X107696666Y-119586666D01*
X107596666Y-119620000D01*
X107530000Y-119686666D01*
X107496666Y-119753333D01*
X107463333Y-119886666D01*
X107463333Y-119986666D01*
X107496666Y-120120000D01*
X107530000Y-120186666D01*
X107596666Y-120253333D01*
X107696666Y-120286666D01*
X107863333Y-120286666D01*
X107163333Y-120286666D02*
X107163333Y-119586666D01*
X106696666Y-119586666D02*
X106563333Y-119586666D01*
X106496666Y-119620000D01*
X106430000Y-119686666D01*
X106396666Y-119820000D01*
X106396666Y-120053333D01*
X106430000Y-120186666D01*
X106496666Y-120253333D01*
X106563333Y-120286666D01*
X106696666Y-120286666D01*
X106763333Y-120253333D01*
X106830000Y-120186666D01*
X106863333Y-120053333D01*
X106863333Y-119820000D01*
X106830000Y-119686666D01*
X106763333Y-119620000D01*
X106696666Y-119586666D01*
X109196666Y-117190000D02*
X109263333Y-117156666D01*
X109363333Y-117156666D01*
X109463333Y-117190000D01*
X109530000Y-117256666D01*
X109563333Y-117323333D01*
X109596666Y-117456666D01*
X109596666Y-117556666D01*
X109563333Y-117690000D01*
X109530000Y-117756666D01*
X109463333Y-117823333D01*
X109363333Y-117856666D01*
X109296666Y-117856666D01*
X109196666Y-117823333D01*
X109163333Y-117790000D01*
X109163333Y-117556666D01*
X109296666Y-117556666D01*
X109553333Y-115423333D02*
X109453333Y-115456666D01*
X109286666Y-115456666D01*
X109220000Y-115423333D01*
X109186666Y-115390000D01*
X109153333Y-115323333D01*
X109153333Y-115256666D01*
X109186666Y-115190000D01*
X109220000Y-115156666D01*
X109286666Y-115123333D01*
X109420000Y-115090000D01*
X109486666Y-115056666D01*
X109520000Y-115023333D01*
X109553333Y-114956666D01*
X109553333Y-114890000D01*
X109520000Y-114823333D01*
X109486666Y-114790000D01*
X109420000Y-114756666D01*
X109253333Y-114756666D01*
X109153333Y-114790000D01*
X108920000Y-114756666D02*
X108753333Y-115456666D01*
X108620000Y-114956666D01*
X108486666Y-115456666D01*
X108320000Y-114756666D01*
X107653333Y-115390000D02*
X107686666Y-115423333D01*
X107786666Y-115456666D01*
X107853333Y-115456666D01*
X107953333Y-115423333D01*
X108020000Y-115356666D01*
X108053333Y-115290000D01*
X108086666Y-115156666D01*
X108086666Y-115056666D01*
X108053333Y-114923333D01*
X108020000Y-114856666D01*
X107953333Y-114790000D01*
X107853333Y-114756666D01*
X107786666Y-114756666D01*
X107686666Y-114790000D01*
X107653333Y-114823333D01*
X107020000Y-115456666D02*
X107353333Y-115456666D01*
X107353333Y-114756666D01*
X106786666Y-115456666D02*
X106786666Y-114756666D01*
X106386666Y-115456666D02*
X106686666Y-115056666D01*
X106386666Y-114756666D02*
X106786666Y-115156666D01*
D11*
%TO.C,U4*%
X132643333Y-124666666D02*
X132643333Y-125233333D01*
X132610000Y-125300000D01*
X132576666Y-125333333D01*
X132510000Y-125366666D01*
X132376666Y-125366666D01*
X132310000Y-125333333D01*
X132276666Y-125300000D01*
X132243333Y-125233333D01*
X132243333Y-124666666D01*
X131610000Y-124900000D02*
X131610000Y-125366666D01*
X131776666Y-124633333D02*
X131943333Y-125133333D01*
X131510000Y-125133333D01*
%TO.C,C22*%
X125790000Y-129210000D02*
X125823333Y-129243333D01*
X125923333Y-129276666D01*
X125990000Y-129276666D01*
X126090000Y-129243333D01*
X126156666Y-129176666D01*
X126190000Y-129110000D01*
X126223333Y-128976666D01*
X126223333Y-128876666D01*
X126190000Y-128743333D01*
X126156666Y-128676666D01*
X126090000Y-128610000D01*
X125990000Y-128576666D01*
X125923333Y-128576666D01*
X125823333Y-128610000D01*
X125790000Y-128643333D01*
X125523333Y-128643333D02*
X125490000Y-128610000D01*
X125423333Y-128576666D01*
X125256666Y-128576666D01*
X125190000Y-128610000D01*
X125156666Y-128643333D01*
X125123333Y-128710000D01*
X125123333Y-128776666D01*
X125156666Y-128876666D01*
X125556666Y-129276666D01*
X125123333Y-129276666D01*
X124856666Y-128643333D02*
X124823333Y-128610000D01*
X124756666Y-128576666D01*
X124590000Y-128576666D01*
X124523333Y-128610000D01*
X124490000Y-128643333D01*
X124456666Y-128710000D01*
X124456666Y-128776666D01*
X124490000Y-128876666D01*
X124890000Y-129276666D01*
X124456666Y-129276666D01*
%TO.C,C20*%
X125830000Y-132470000D02*
X125863333Y-132503333D01*
X125963333Y-132536666D01*
X126030000Y-132536666D01*
X126130000Y-132503333D01*
X126196666Y-132436666D01*
X126230000Y-132370000D01*
X126263333Y-132236666D01*
X126263333Y-132136666D01*
X126230000Y-132003333D01*
X126196666Y-131936666D01*
X126130000Y-131870000D01*
X126030000Y-131836666D01*
X125963333Y-131836666D01*
X125863333Y-131870000D01*
X125830000Y-131903333D01*
X125563333Y-131903333D02*
X125530000Y-131870000D01*
X125463333Y-131836666D01*
X125296666Y-131836666D01*
X125230000Y-131870000D01*
X125196666Y-131903333D01*
X125163333Y-131970000D01*
X125163333Y-132036666D01*
X125196666Y-132136666D01*
X125596666Y-132536666D01*
X125163333Y-132536666D01*
X124730000Y-131836666D02*
X124663333Y-131836666D01*
X124596666Y-131870000D01*
X124563333Y-131903333D01*
X124530000Y-131970000D01*
X124496666Y-132103333D01*
X124496666Y-132270000D01*
X124530000Y-132403333D01*
X124563333Y-132470000D01*
X124596666Y-132503333D01*
X124663333Y-132536666D01*
X124730000Y-132536666D01*
X124796666Y-132503333D01*
X124830000Y-132470000D01*
X124863333Y-132403333D01*
X124896666Y-132270000D01*
X124896666Y-132103333D01*
X124863333Y-131970000D01*
X124830000Y-131903333D01*
X124796666Y-131870000D01*
X124730000Y-131836666D01*
%TO.C,R6*%
X114546666Y-122596666D02*
X114780000Y-122263333D01*
X114946666Y-122596666D02*
X114946666Y-121896666D01*
X114680000Y-121896666D01*
X114613333Y-121930000D01*
X114580000Y-121963333D01*
X114546666Y-122030000D01*
X114546666Y-122130000D01*
X114580000Y-122196666D01*
X114613333Y-122230000D01*
X114680000Y-122263333D01*
X114946666Y-122263333D01*
X113946666Y-121896666D02*
X114080000Y-121896666D01*
X114146666Y-121930000D01*
X114180000Y-121963333D01*
X114246666Y-122063333D01*
X114280000Y-122196666D01*
X114280000Y-122463333D01*
X114246666Y-122530000D01*
X114213333Y-122563333D01*
X114146666Y-122596666D01*
X114013333Y-122596666D01*
X113946666Y-122563333D01*
X113913333Y-122530000D01*
X113880000Y-122463333D01*
X113880000Y-122296666D01*
X113913333Y-122230000D01*
X113946666Y-122196666D01*
X114013333Y-122163333D01*
X114146666Y-122163333D01*
X114213333Y-122196666D01*
X114246666Y-122230000D01*
X114280000Y-122296666D01*
%TO.C,C21*%
X113700000Y-125060000D02*
X113733333Y-125093333D01*
X113833333Y-125126666D01*
X113900000Y-125126666D01*
X114000000Y-125093333D01*
X114066666Y-125026666D01*
X114100000Y-124960000D01*
X114133333Y-124826666D01*
X114133333Y-124726666D01*
X114100000Y-124593333D01*
X114066666Y-124526666D01*
X114000000Y-124460000D01*
X113900000Y-124426666D01*
X113833333Y-124426666D01*
X113733333Y-124460000D01*
X113700000Y-124493333D01*
X113433333Y-124493333D02*
X113400000Y-124460000D01*
X113333333Y-124426666D01*
X113166666Y-124426666D01*
X113100000Y-124460000D01*
X113066666Y-124493333D01*
X113033333Y-124560000D01*
X113033333Y-124626666D01*
X113066666Y-124726666D01*
X113466666Y-125126666D01*
X113033333Y-125126666D01*
X112366666Y-125126666D02*
X112766666Y-125126666D01*
X112566666Y-125126666D02*
X112566666Y-124426666D01*
X112633333Y-124526666D01*
X112700000Y-124593333D01*
X112766666Y-124626666D01*
%TO.C,U5*%
X121313333Y-124986666D02*
X121313333Y-125553333D01*
X121280000Y-125620000D01*
X121246666Y-125653333D01*
X121180000Y-125686666D01*
X121046666Y-125686666D01*
X120980000Y-125653333D01*
X120946666Y-125620000D01*
X120913333Y-125553333D01*
X120913333Y-124986666D01*
X120246666Y-124986666D02*
X120580000Y-124986666D01*
X120613333Y-125320000D01*
X120580000Y-125286666D01*
X120513333Y-125253333D01*
X120346666Y-125253333D01*
X120280000Y-125286666D01*
X120246666Y-125320000D01*
X120213333Y-125386666D01*
X120213333Y-125553333D01*
X120246666Y-125620000D01*
X120280000Y-125653333D01*
X120346666Y-125686666D01*
X120513333Y-125686666D01*
X120580000Y-125653333D01*
X120613333Y-125620000D01*
%TO.C,R5*%
X116146666Y-122616666D02*
X116380000Y-122283333D01*
X116546666Y-122616666D02*
X116546666Y-121916666D01*
X116280000Y-121916666D01*
X116213333Y-121950000D01*
X116180000Y-121983333D01*
X116146666Y-122050000D01*
X116146666Y-122150000D01*
X116180000Y-122216666D01*
X116213333Y-122250000D01*
X116280000Y-122283333D01*
X116546666Y-122283333D01*
X115513333Y-121916666D02*
X115846666Y-121916666D01*
X115880000Y-122250000D01*
X115846666Y-122216666D01*
X115780000Y-122183333D01*
X115613333Y-122183333D01*
X115546666Y-122216666D01*
X115513333Y-122250000D01*
X115480000Y-122316666D01*
X115480000Y-122483333D01*
X115513333Y-122550000D01*
X115546666Y-122583333D01*
X115613333Y-122616666D01*
X115780000Y-122616666D01*
X115846666Y-122583333D01*
X115880000Y-122550000D01*
%TO.C,D5*%
X109836666Y-123196666D02*
X109836666Y-122496666D01*
X109670000Y-122496666D01*
X109570000Y-122530000D01*
X109503333Y-122596666D01*
X109470000Y-122663333D01*
X109436666Y-122796666D01*
X109436666Y-122896666D01*
X109470000Y-123030000D01*
X109503333Y-123096666D01*
X109570000Y-123163333D01*
X109670000Y-123196666D01*
X109836666Y-123196666D01*
X108803333Y-122496666D02*
X109136666Y-122496666D01*
X109170000Y-122830000D01*
X109136666Y-122796666D01*
X109070000Y-122763333D01*
X108903333Y-122763333D01*
X108836666Y-122796666D01*
X108803333Y-122830000D01*
X108770000Y-122896666D01*
X108770000Y-123063333D01*
X108803333Y-123130000D01*
X108836666Y-123163333D01*
X108903333Y-123196666D01*
X109070000Y-123196666D01*
X109136666Y-123163333D01*
X109170000Y-123130000D01*
%TO.C,C23*%
X117650000Y-125100000D02*
X117683333Y-125133333D01*
X117783333Y-125166666D01*
X117850000Y-125166666D01*
X117950000Y-125133333D01*
X118016666Y-125066666D01*
X118050000Y-125000000D01*
X118083333Y-124866666D01*
X118083333Y-124766666D01*
X118050000Y-124633333D01*
X118016666Y-124566666D01*
X117950000Y-124500000D01*
X117850000Y-124466666D01*
X117783333Y-124466666D01*
X117683333Y-124500000D01*
X117650000Y-124533333D01*
X117383333Y-124533333D02*
X117350000Y-124500000D01*
X117283333Y-124466666D01*
X117116666Y-124466666D01*
X117050000Y-124500000D01*
X117016666Y-124533333D01*
X116983333Y-124600000D01*
X116983333Y-124666666D01*
X117016666Y-124766666D01*
X117416666Y-125166666D01*
X116983333Y-125166666D01*
X116750000Y-124466666D02*
X116316666Y-124466666D01*
X116550000Y-124733333D01*
X116450000Y-124733333D01*
X116383333Y-124766666D01*
X116350000Y-124800000D01*
X116316666Y-124866666D01*
X116316666Y-125033333D01*
X116350000Y-125100000D01*
X116383333Y-125133333D01*
X116450000Y-125166666D01*
X116650000Y-125166666D01*
X116716666Y-125133333D01*
X116750000Y-125100000D01*
%TO.C,R14*%
X110430000Y-129116666D02*
X110663333Y-128783333D01*
X110830000Y-129116666D02*
X110830000Y-128416666D01*
X110563333Y-128416666D01*
X110496666Y-128450000D01*
X110463333Y-128483333D01*
X110430000Y-128550000D01*
X110430000Y-128650000D01*
X110463333Y-128716666D01*
X110496666Y-128750000D01*
X110563333Y-128783333D01*
X110830000Y-128783333D01*
X109763333Y-129116666D02*
X110163333Y-129116666D01*
X109963333Y-129116666D02*
X109963333Y-128416666D01*
X110030000Y-128516666D01*
X110096666Y-128583333D01*
X110163333Y-128616666D01*
X109163333Y-128650000D02*
X109163333Y-129116666D01*
X109330000Y-128383333D02*
X109496666Y-128883333D01*
X109063333Y-128883333D01*
%TO.C,Q1*%
X112656666Y-134463333D02*
X112723333Y-134430000D01*
X112790000Y-134363333D01*
X112890000Y-134263333D01*
X112956666Y-134230000D01*
X113023333Y-134230000D01*
X112990000Y-134396666D02*
X113056666Y-134363333D01*
X113123333Y-134296666D01*
X113156666Y-134163333D01*
X113156666Y-133930000D01*
X113123333Y-133796666D01*
X113056666Y-133730000D01*
X112990000Y-133696666D01*
X112856666Y-133696666D01*
X112790000Y-133730000D01*
X112723333Y-133796666D01*
X112690000Y-133930000D01*
X112690000Y-134163333D01*
X112723333Y-134296666D01*
X112790000Y-134363333D01*
X112856666Y-134396666D01*
X112990000Y-134396666D01*
X112023333Y-134396666D02*
X112423333Y-134396666D01*
X112223333Y-134396666D02*
X112223333Y-133696666D01*
X112290000Y-133796666D01*
X112356666Y-133863333D01*
X112423333Y-133896666D01*
D12*
%TO.C,U4*%
X128790000Y-128065000D02*
X130050000Y-128065000D01*
X135610000Y-134075000D02*
X135610000Y-128065000D01*
X128790000Y-131825000D02*
X128790000Y-128065000D01*
X135610000Y-128065000D02*
X134350000Y-128065000D01*
%TO.C,C22*%
X126755000Y-129201252D02*
X126755000Y-128678748D01*
X128225000Y-129201252D02*
X128225000Y-128678748D01*
%TO.C,D4*%
X114670000Y-129000000D02*
X116670000Y-129000000D01*
X114670000Y-129000000D02*
X114670000Y-132900000D01*
X116670000Y-129000000D02*
X116670000Y-132900000D01*
%TO.C,C20*%
X126715000Y-132736252D02*
X126715000Y-132213748D01*
X128185000Y-132736252D02*
X128185000Y-132213748D01*
%TO.C,R6*%
X115100000Y-123526359D02*
X115100000Y-123833641D01*
X114340000Y-123526359D02*
X114340000Y-123833641D01*
%TO.C,C21*%
X112815000Y-127261252D02*
X112815000Y-126738748D01*
X114285000Y-127261252D02*
X114285000Y-126738748D01*
%TO.C,U5*%
X117465000Y-128415000D02*
X118725000Y-128415000D01*
X124285000Y-134425000D02*
X124285000Y-128415000D01*
X124285000Y-128415000D02*
X123025000Y-128415000D01*
X117465000Y-132175000D02*
X117465000Y-128415000D01*
%TO.C,R5*%
X116120000Y-123556359D02*
X116120000Y-123863641D01*
X115360000Y-123556359D02*
X115360000Y-123863641D01*
%TO.C,D5*%
X112160000Y-127350000D02*
X112160000Y-123450000D01*
X110160000Y-127350000D02*
X110160000Y-123450000D01*
X112160000Y-127350000D02*
X110160000Y-127350000D01*
%TO.C,C23*%
X116505000Y-127231252D02*
X116505000Y-126708748D01*
X115035000Y-127231252D02*
X115035000Y-126708748D01*
%TO.C,R14*%
X111800000Y-128753641D02*
X111800000Y-128446359D01*
X111040000Y-128753641D02*
X111040000Y-128446359D01*
%TO.C,Q1*%
X111040000Y-131660000D02*
X111040000Y-132310000D01*
X114160000Y-131660000D02*
X114160000Y-132310000D01*
X111040000Y-131660000D02*
X111040000Y-129985000D01*
X114160000Y-131660000D02*
X114160000Y-131010000D01*
%TD*%
%LPC*%
D13*
%TO.C,J4*%
X139775000Y-129750000D03*
X141375000Y-129050000D03*
X140575000Y-129050000D03*
X140575000Y-129750000D03*
X141375000Y-129750000D03*
X139775000Y-129050000D03*
X141375000Y-128350000D03*
X139775000Y-128350000D03*
X140575000Y-128350000D03*
D14*
X141175000Y-126850000D03*
D13*
X139775000Y-124650000D03*
X140575000Y-123950000D03*
X140575000Y-125350000D03*
X141375000Y-124650000D03*
X141375000Y-123950000D03*
X141375000Y-125350000D03*
X140575000Y-124650000D03*
X139775000Y-125350000D03*
X139775000Y-123950000D03*
%TD*%
%TO.C,J9*%
X106749600Y-105777800D03*
X108349600Y-106477800D03*
X108349600Y-105777800D03*
X106749600Y-105077800D03*
X107549600Y-106477800D03*
X107549600Y-105777800D03*
X106749600Y-106477800D03*
X108349600Y-105077800D03*
X107549600Y-105077800D03*
D14*
X106949600Y-107977800D03*
D13*
X108349600Y-110177800D03*
X107549600Y-110177800D03*
X106749600Y-109477800D03*
X107549600Y-110877800D03*
X106749600Y-110177800D03*
X108349600Y-110877800D03*
X106749600Y-110877800D03*
X107549600Y-109477800D03*
X108349600Y-109477800D03*
%TD*%
D15*
%TO.C,J10*%
X111022500Y-114570000D03*
X111022500Y-120350000D03*
D16*
X111523500Y-113140000D03*
X111523500Y-121780000D03*
D17*
X107343500Y-113140000D03*
X107343500Y-121780000D03*
%TD*%
D18*
%TO.C,SW1*%
X141090000Y-119630000D03*
X141090000Y-115130000D03*
D19*
X141090000Y-118230000D03*
X141090000Y-116530000D03*
%TD*%
D20*
%TO.C,J3*%
X111580000Y-104000000D03*
X113080000Y-104000000D03*
X114580000Y-104000000D03*
X116080000Y-104000000D03*
%TD*%
D13*
%TO.C,J1*%
X139820000Y-105900000D03*
X141420000Y-106600000D03*
X141420000Y-105200000D03*
X139820000Y-105200000D03*
X140620000Y-105900000D03*
X140620000Y-105200000D03*
X140620000Y-106600000D03*
X139820000Y-106600000D03*
X141420000Y-105900000D03*
D14*
X141170000Y-108100000D03*
D13*
X139820000Y-111000000D03*
X140620000Y-110300000D03*
X140620000Y-111000000D03*
X141420000Y-110300000D03*
X139820000Y-109600000D03*
X141420000Y-111000000D03*
X140620000Y-109600000D03*
X139820000Y-110300000D03*
X141420000Y-109600000D03*
%TD*%
D20*
%TO.C,J15*%
X123720000Y-100850000D03*
X125220000Y-100850000D03*
X126720000Y-100850000D03*
X128220000Y-100850000D03*
%TD*%
%TO.C,J8*%
X117660000Y-100830000D03*
X119160000Y-100830000D03*
X120660000Y-100830000D03*
X122160000Y-100830000D03*
%TD*%
%TO.C,J2*%
X129820000Y-104000000D03*
X131320000Y-104000000D03*
X132820000Y-104000000D03*
X134320000Y-104000000D03*
%TD*%
D13*
%TO.C,J6*%
X107574600Y-129050000D03*
X107574600Y-128350000D03*
X107574600Y-129750000D03*
X108374600Y-128350000D03*
X108374600Y-129050000D03*
X106774600Y-129050000D03*
X108374600Y-129750000D03*
X106774600Y-129750000D03*
X106774600Y-128350000D03*
D14*
X106974600Y-126850000D03*
D13*
X108374600Y-123950000D03*
X107574600Y-124650000D03*
X107574600Y-125350000D03*
X108374600Y-125350000D03*
X106774600Y-124650000D03*
X108374600Y-124650000D03*
X107574600Y-123950000D03*
X106774600Y-125350000D03*
X106774600Y-123950000D03*
%TD*%
D20*
%TO.C,J5*%
X111580000Y-100840000D03*
X113080000Y-100840000D03*
X114580000Y-100840000D03*
X116080000Y-100840000D03*
%TD*%
%TO.C,J12*%
X129820000Y-100830000D03*
X131320000Y-100830000D03*
X132820000Y-100830000D03*
X134320000Y-100830000D03*
%TD*%
D21*
%TO.C,U4*%
X134500000Y-133125000D03*
X132200000Y-133125000D03*
D22*
X132200000Y-126825000D03*
D21*
X129900000Y-133125000D03*
%TD*%
D23*
%TO.C,C22*%
X127490000Y-129890000D03*
X127490000Y-127990000D03*
%TD*%
D24*
%TO.C,D4*%
X115670000Y-129600000D03*
X115670000Y-132900000D03*
%TD*%
D23*
%TO.C,C20*%
X127450000Y-133425000D03*
X127450000Y-131525000D03*
%TD*%
D25*
%TO.C,R6*%
X114720000Y-123170000D03*
X114720000Y-124190000D03*
%TD*%
D23*
%TO.C,C21*%
X113550000Y-127950000D03*
X113550000Y-126050000D03*
%TD*%
D21*
%TO.C,U5*%
X123175000Y-133475000D03*
X120875000Y-133475000D03*
D22*
X120875000Y-127175000D03*
D21*
X118575000Y-133475000D03*
%TD*%
D26*
%TO.C,J14*%
X107150000Y-116240000D03*
X107150000Y-117510000D03*
X107150000Y-118780000D03*
%TD*%
D25*
%TO.C,R5*%
X115740000Y-123200000D03*
X115740000Y-124220000D03*
%TD*%
D24*
%TO.C,D5*%
X111160000Y-126750000D03*
X111160000Y-123450000D03*
%TD*%
D23*
%TO.C,C23*%
X115770000Y-127920000D03*
X115770000Y-126020000D03*
%TD*%
D27*
%TO.C,R14*%
X111420000Y-129110000D03*
X111420000Y-128090000D03*
%TD*%
D28*
%TO.C,Q1*%
X111650000Y-130722500D03*
X113550000Y-130722500D03*
X112600000Y-132597500D03*
%TD*%
G36*
X133604926Y-136123588D02*
G01*
X133651516Y-136177160D01*
X133661747Y-136247415D01*
X133632370Y-136312049D01*
X133620957Y-136323660D01*
X133461304Y-136466335D01*
X133456335Y-136471304D01*
X133236863Y-136716894D01*
X133232457Y-136722419D01*
X133041872Y-136991022D01*
X133038120Y-136996993D01*
X132878804Y-137285253D01*
X132875739Y-137291617D01*
X132749704Y-137595894D01*
X132747371Y-137602561D01*
X132656193Y-137919047D01*
X132654625Y-137925916D01*
X132599455Y-138250623D01*
X132598665Y-138257636D01*
X132580100Y-138588225D01*
X132580000Y-138591782D01*
X132580000Y-141583813D01*
X132579393Y-141596163D01*
X132562002Y-141772737D01*
X132557184Y-141796963D01*
X132507482Y-141960809D01*
X132498029Y-141983629D01*
X132417319Y-142134628D01*
X132403596Y-142155166D01*
X132294980Y-142287515D01*
X132277515Y-142304980D01*
X132145166Y-142413596D01*
X132124628Y-142427319D01*
X131973629Y-142508029D01*
X131950809Y-142517482D01*
X131786963Y-142567184D01*
X131762737Y-142572002D01*
X131586163Y-142589393D01*
X131573813Y-142590000D01*
X130088258Y-142590000D01*
X130071812Y-142588922D01*
X129967037Y-142575128D01*
X129935265Y-142566615D01*
X129845326Y-142529361D01*
X129816840Y-142512914D01*
X129739607Y-142453651D01*
X129716349Y-142430393D01*
X129657086Y-142353160D01*
X129640639Y-142324674D01*
X129603385Y-142234735D01*
X129594872Y-142202963D01*
X129581078Y-142098188D01*
X129580000Y-142081742D01*
X129580000Y-139593092D01*
X129579697Y-139586920D01*
X129561392Y-139401076D01*
X129558988Y-139388984D01*
X129505675Y-139213235D01*
X129500964Y-139201862D01*
X129414390Y-139039893D01*
X129407539Y-139029640D01*
X129291034Y-138887678D01*
X129282322Y-138878966D01*
X129140360Y-138762461D01*
X129130107Y-138755610D01*
X128968138Y-138669036D01*
X128956765Y-138664325D01*
X128781016Y-138611012D01*
X128768924Y-138608608D01*
X128583080Y-138590303D01*
X128576908Y-138590000D01*
X127583092Y-138590000D01*
X127576920Y-138590303D01*
X127391076Y-138608608D01*
X127378984Y-138611012D01*
X127203235Y-138664325D01*
X127191862Y-138669036D01*
X127029893Y-138755610D01*
X127019640Y-138762461D01*
X126877678Y-138878966D01*
X126868966Y-138887678D01*
X126752461Y-139029640D01*
X126745610Y-139039893D01*
X126659036Y-139201862D01*
X126654325Y-139213235D01*
X126601012Y-139388984D01*
X126598608Y-139401076D01*
X126580303Y-139586920D01*
X126580000Y-139593092D01*
X126580000Y-142081742D01*
X126578922Y-142098188D01*
X126565128Y-142202963D01*
X126556615Y-142234735D01*
X126519361Y-142324674D01*
X126502914Y-142353160D01*
X126443651Y-142430393D01*
X126420393Y-142453651D01*
X126343160Y-142512914D01*
X126314674Y-142529361D01*
X126224735Y-142566615D01*
X126192963Y-142575128D01*
X126088188Y-142588922D01*
X126071742Y-142590000D01*
X124744164Y-142590000D01*
X124676043Y-142569998D01*
X124629550Y-142516342D01*
X124618179Y-142465949D01*
X124521976Y-136247718D01*
X124540922Y-136179296D01*
X124593852Y-136131979D01*
X124647733Y-136119769D01*
X133536769Y-136103709D01*
X133604926Y-136123588D01*
G37*
G36*
X123423066Y-136070158D02*
G01*
X123469704Y-136123687D01*
X123481227Y-136175105D01*
X123542871Y-142462765D01*
X123523538Y-142531078D01*
X123470340Y-142578095D01*
X123416877Y-142590000D01*
X122088258Y-142590000D01*
X122071812Y-142588922D01*
X121967037Y-142575128D01*
X121935265Y-142566615D01*
X121845326Y-142529361D01*
X121816840Y-142512914D01*
X121739607Y-142453651D01*
X121716349Y-142430393D01*
X121657086Y-142353160D01*
X121640639Y-142324674D01*
X121603385Y-142234735D01*
X121594872Y-142202963D01*
X121581078Y-142098188D01*
X121580000Y-142081742D01*
X121580000Y-139593092D01*
X121579697Y-139586920D01*
X121561392Y-139401076D01*
X121558988Y-139388984D01*
X121505675Y-139213235D01*
X121500964Y-139201862D01*
X121414390Y-139039893D01*
X121407539Y-139029640D01*
X121291034Y-138887678D01*
X121282322Y-138878966D01*
X121140360Y-138762461D01*
X121130107Y-138755610D01*
X120968138Y-138669036D01*
X120956765Y-138664325D01*
X120781016Y-138611012D01*
X120768924Y-138608608D01*
X120583080Y-138590303D01*
X120576908Y-138590000D01*
X119583092Y-138590000D01*
X119576920Y-138590303D01*
X119391076Y-138608608D01*
X119378984Y-138611012D01*
X119203235Y-138664325D01*
X119191862Y-138669036D01*
X119029893Y-138755610D01*
X119019640Y-138762461D01*
X118877678Y-138878966D01*
X118868966Y-138887678D01*
X118752461Y-139029640D01*
X118745610Y-139039893D01*
X118659036Y-139201862D01*
X118654325Y-139213235D01*
X118601012Y-139388984D01*
X118598608Y-139401076D01*
X118580303Y-139586920D01*
X118580000Y-139593092D01*
X118580000Y-142081742D01*
X118578922Y-142098188D01*
X118565128Y-142202963D01*
X118556615Y-142234735D01*
X118519361Y-142324674D01*
X118502914Y-142353160D01*
X118443651Y-142430393D01*
X118420393Y-142453651D01*
X118343160Y-142512914D01*
X118314674Y-142529361D01*
X118224735Y-142566615D01*
X118192963Y-142575128D01*
X118088188Y-142588922D01*
X118071742Y-142590000D01*
X116586187Y-142590000D01*
X116573837Y-142589393D01*
X116397263Y-142572002D01*
X116373037Y-142567184D01*
X116209191Y-142517482D01*
X116186371Y-142508029D01*
X116035372Y-142427319D01*
X116014834Y-142413596D01*
X115882485Y-142304980D01*
X115865020Y-142287515D01*
X115756404Y-142155166D01*
X115742681Y-142134628D01*
X115661971Y-141983629D01*
X115652518Y-141960809D01*
X115602816Y-141796963D01*
X115597998Y-141772737D01*
X115580607Y-141596163D01*
X115580000Y-141583813D01*
X115580000Y-138591782D01*
X115579900Y-138588225D01*
X115561335Y-138257636D01*
X115560545Y-138250623D01*
X115505375Y-137925916D01*
X115503807Y-137919047D01*
X115412629Y-137602561D01*
X115410296Y-137595894D01*
X115284261Y-137291617D01*
X115281196Y-137285253D01*
X115121880Y-136996993D01*
X115118128Y-136991022D01*
X114927543Y-136722419D01*
X114923137Y-136716894D01*
X114703665Y-136471304D01*
X114698696Y-136466335D01*
X114505952Y-136294088D01*
X114468487Y-136233781D01*
X114469573Y-136162793D01*
X114508866Y-136103661D01*
X114573891Y-136075160D01*
X114589570Y-136074137D01*
X123354891Y-136050340D01*
X123423066Y-136070158D01*
G37*
M02*
