<svg width="187" height="192" viewBox="0 0 187 192" fill="none" xmlns="http://www.w3.org/2000/svg">
<line x1="25.5355" y1="27" x2="163" y2="164.464" stroke="black" stroke-width="5" stroke-linecap="round"/>
<line x1="22" y1="164.464" x2="159.464" y2="27" stroke="black" stroke-width="5" stroke-linecap="round"/>
<circle cx="160" cy="27" r="11" fill="black"/>
<circle cx="160" cy="27" r="11" fill="black"/>
<circle cx="160" cy="27" r="11" fill="black"/>
<circle cx="160" cy="27" r="11" fill="black"/>
<circle cx="160" cy="27" r="11" fill="black"/>
<circle cx="160" cy="27" r="11" fill="black"/>
<circle cx="160" cy="164" r="11" fill="black"/>
<circle cx="160" cy="164" r="11" fill="black"/>
<circle cx="160" cy="164" r="11" fill="black"/>
<circle cx="26" cy="27" r="11" fill="black"/>
<circle cx="26" cy="27" r="11" fill="black"/>
<circle cx="26" cy="27" r="11" fill="black"/>
<circle cx="26" cy="27" r="11" fill="black"/>
<circle cx="26" cy="27" r="11" fill="black"/>
<circle cx="26" cy="27" r="11" fill="black"/>
<circle cx="26" cy="164" r="11" fill="black"/>
<circle cx="26" cy="164" r="11" fill="black"/>
<circle cx="26" cy="164" r="11" fill="black"/>
<path d="M170 10.5L170.449 9.60641L170.449 9.60641L170 10.5ZM140.293 28.2071C140.683 28.5976 141.317 28.5976 141.707 28.2071L148.071 21.8432C148.462 21.4526 148.462 20.8195 148.071 20.4289C147.681 20.0384 147.047 20.0384 146.657 20.4289L141 26.0858L135.343 20.4289C134.953 20.0384 134.319 20.0384 133.929 20.4289C133.538 20.8195 133.538 21.4526 133.929 21.8432L140.293 28.2071ZM162.077 43.497C167.171 43.1052 171.088 41.203 173.871 38.4223C176.645 35.6506 178.243 32.0564 178.801 28.3468C179.908 20.9949 176.945 12.8694 170.449 9.60641L169.551 11.3936C175.055 14.1585 177.842 21.2831 176.824 28.0492C176.319 31.3986 174.886 34.5804 172.457 37.0075C170.037 39.4255 166.579 41.1448 161.923 41.5029L162.077 43.497ZM170.449 9.60641C164.147 6.44091 156.558 6.70825 150.537 9.85316C144.484 13.0148 140 19.0977 140 27.5L142 27.5C142 19.9023 146.016 14.4713 151.463 11.6259C156.942 8.7638 163.853 8.53113 169.551 11.3936L170.449 9.60641Z" fill="#FF0000"/>
<path d="M15.6314 10.5L15.1825 9.60641L15.1825 9.60641L15.6314 10.5ZM45.3385 28.2071C44.948 28.5976 44.3148 28.5976 43.9243 28.2071L37.5603 21.8432C37.1698 21.4526 37.1698 20.8195 37.5603 20.4289C37.9509 20.0384 38.584 20.0384 38.9745 20.4289L44.6314 26.0858L50.2883 20.4289C50.6788 20.0384 51.3119 20.0384 51.7025 20.4289C52.093 20.8195 52.093 21.4526 51.7025 21.8432L45.3385 28.2071ZM23.5547 43.497C18.4605 43.1052 14.5436 41.203 11.7605 38.4223C8.98649 35.6506 7.38837 32.0564 6.83003 28.3468C5.72344 20.9949 8.68677 12.8694 15.1825 9.60641L16.0803 11.3936C10.576 14.1585 7.78934 21.2831 8.80775 28.0492C9.3119 31.3986 10.745 34.5804 13.1741 37.0075C15.5942 39.4255 19.0523 41.1448 23.7081 41.5029L23.5547 43.497ZM15.1825 9.60641C21.4841 6.44091 29.0737 6.70825 35.0944 9.85316C41.1471 13.0148 45.6314 19.0977 45.6314 27.5L43.6314 27.5C43.6314 19.9023 39.6157 14.4713 34.1684 11.6259C28.6891 8.7638 21.7786 8.53113 16.0803 11.3936L15.1825 9.60641Z" fill="#FF0000"/>
<path d="M15.6314 180.987L15.1825 181.881L15.1825 181.881L15.6314 180.987ZM45.3385 163.28C44.948 162.89 44.3148 162.89 43.9243 163.28L37.5603 169.644C37.1698 170.035 37.1698 170.668 37.5603 171.058C37.9509 171.449 38.584 171.449 38.9745 171.058L44.6314 165.402L50.2883 171.058C50.6788 171.449 51.3119 171.449 51.7025 171.058C52.093 170.668 52.093 170.035 51.7025 169.644L45.3385 163.28ZM23.5547 147.99C18.4605 148.382 14.5436 150.284 11.7605 153.065C8.98649 155.837 7.38837 159.431 6.83003 163.141C5.72344 170.492 8.68677 178.618 15.1825 181.881L16.0803 180.094C10.576 177.329 7.78934 170.204 8.80775 163.438C9.3119 160.089 10.745 156.907 13.1741 154.48C15.5942 152.062 19.0523 150.343 23.7081 149.984L23.5547 147.99ZM15.1825 181.881C21.4841 185.046 29.0737 184.779 35.0944 181.634C41.1471 178.473 45.6314 172.39 45.6314 163.987L43.6314 163.987C43.6314 171.585 39.6157 177.016 34.1684 179.861C28.6891 182.724 21.7786 182.956 16.0803 180.094L15.1825 181.881Z" fill="#FF0000"/>
<path d="M170.909 180.987L171.358 181.881L171.358 181.881L170.909 180.987ZM141.202 163.28C141.593 162.89 142.226 162.89 142.616 163.28L148.98 169.644C149.371 170.035 149.371 170.668 148.98 171.058C148.59 171.449 147.956 171.449 147.566 171.058L141.909 165.402L136.252 171.058C135.862 171.449 135.229 171.449 134.838 171.058C134.447 170.668 134.447 170.035 134.838 169.644L141.202 163.28ZM162.986 147.99C168.08 148.382 171.997 150.284 174.78 153.065C177.554 155.837 179.152 159.431 179.71 163.141C180.817 170.492 177.854 178.618 171.358 181.881L170.46 180.094C175.964 177.329 178.751 170.204 177.733 163.438C177.229 160.089 175.795 156.907 173.366 154.48C170.946 152.062 167.488 150.343 162.832 149.984L162.986 147.99ZM171.358 181.881C165.056 185.046 157.467 184.779 151.446 181.634C145.393 178.473 140.909 172.39 140.909 163.987L142.909 163.987C142.909 171.585 146.925 177.016 152.372 179.861C157.851 182.724 164.762 182.956 170.46 180.094L171.358 181.881Z" fill="#FF0000"/>
<path d="M161.619 155.455V170H159.858V157.301H159.773L156.222 159.659V157.869L159.858 155.455H161.619Z" fill="#FF0000"/>
<path d="M25.4205 170.199C24.483 170.199 23.6473 170.038 22.9134 169.716C22.1842 169.394 21.6042 168.946 21.1733 168.374C20.7472 167.796 20.5152 167.126 20.4773 166.364H22.267C22.3049 166.832 22.4659 167.237 22.75 167.578C23.0341 167.914 23.4058 168.175 23.8651 168.359C24.3243 168.544 24.8333 168.636 25.392 168.636C26.017 168.636 26.571 168.527 27.054 168.31C27.5369 168.092 27.9157 167.789 28.1903 167.401C28.465 167.012 28.6023 166.562 28.6023 166.051C28.6023 165.516 28.4697 165.045 28.2045 164.638C27.9394 164.226 27.5511 163.904 27.0398 163.672C26.5284 163.44 25.9034 163.324 25.1648 163.324H24V161.761H25.1648C25.7424 161.761 26.2491 161.657 26.6847 161.449C27.125 161.241 27.4683 160.947 27.7145 160.568C27.9654 160.189 28.0909 159.744 28.0909 159.233C28.0909 158.741 27.982 158.312 27.7642 157.947C27.5464 157.583 27.2386 157.299 26.8409 157.095C26.4479 156.892 25.9839 156.79 25.4489 156.79C24.947 156.79 24.4735 156.882 24.0284 157.067C23.5881 157.247 23.2282 157.509 22.9489 157.855C22.6695 158.196 22.518 158.608 22.4943 159.091H20.7898C20.8182 158.329 21.0478 157.661 21.4787 157.088C21.9096 156.51 22.473 156.061 23.169 155.739C23.8698 155.417 24.6392 155.256 25.4773 155.256C26.3769 155.256 27.1487 155.438 27.7926 155.803C28.4366 156.162 28.9313 156.638 29.277 157.23C29.6226 157.822 29.7955 158.461 29.7955 159.148C29.7955 159.967 29.58 160.665 29.1491 161.243C28.723 161.821 28.143 162.221 27.4091 162.443V162.557C28.3277 162.708 29.045 163.099 29.5611 163.729C30.0772 164.354 30.3352 165.128 30.3352 166.051C30.3352 166.842 30.1198 167.552 29.6889 168.182C29.2628 168.807 28.6804 169.299 27.9418 169.659C27.2031 170.019 26.3627 170.199 25.4205 170.199Z" fill="#FF0000"/>
<path d="M156.506 34V32.7216L161.307 27.4659C161.87 26.8504 162.334 26.3153 162.699 25.8608C163.063 25.4015 163.333 24.9706 163.509 24.5682C163.688 24.161 163.778 23.7348 163.778 23.2898C163.778 22.7784 163.655 22.3357 163.409 21.9616C163.168 21.5876 162.836 21.2988 162.415 21.0952C161.993 20.8916 161.52 20.7898 160.994 20.7898C160.436 20.7898 159.948 20.9058 159.531 21.1378C159.119 21.3651 158.8 21.6847 158.572 22.0966C158.35 22.5085 158.239 22.9915 158.239 23.5455H156.562C156.562 22.6932 156.759 21.9451 157.152 21.3011C157.545 20.6572 158.08 20.1553 158.757 19.7955C159.439 19.4356 160.204 19.2557 161.051 19.2557C161.903 19.2557 162.659 19.4356 163.317 19.7955C163.975 20.1553 164.491 20.6406 164.865 21.2514C165.239 21.8622 165.426 22.5417 165.426 23.2898C165.426 23.8248 165.329 24.348 165.135 24.8594C164.946 25.366 164.614 25.9318 164.141 26.5568C163.672 27.1771 163.021 27.9347 162.188 28.8295L158.92 32.3239V32.4375H165.682V34H156.506Z" fill="#FF0000"/>
<path d="M21.1648 31.017V29.5682L27.5568 19.4545H28.608V21.6989H27.8977L23.0682 29.3409V29.4545H31.6761V31.017H21.1648ZM28.0114 34V30.5767V29.902V19.4545H29.6875V34H28.0114Z" fill="#FF0000"/>
<path d="M93 40L81.453 60H104.547L93 40ZM95 80V58H91V80H95Z" fill="#FF0000"/>
</svg>
