<svg width="93" height="90" viewBox="0 0 93 90" fill="none" xmlns="http://www.w3.org/2000/svg">
<path d="M77.3008 49.7383C77.8737 49.7643 78.362 49.7839 78.7656 49.7969C79.1693 49.8099 79.5013 49.8229 79.7617 49.8359C80.0742 49.849 80.3281 49.862 80.5234 49.875C80.7318 49.888 80.9922 49.8945 81.3047 49.8945C81.8385 49.8945 82.5938 49.8555 83.5703 49.7773C83.362 49.8815 83.1992 49.9987 83.082 50.1289C82.9648 50.2461 82.8737 50.3633 82.8086 50.4805C82.7305 50.6237 82.6719 50.7604 82.6328 50.8906C82.6068 51.0469 82.6654 51.2878 82.8086 51.6133C82.9128 51.8867 83.1016 52.2578 83.375 52.7266C83.6484 53.1953 84.0521 53.8008 84.5859 54.543C85.224 53.6055 85.7188 52.8698 86.0703 52.3359C86.4219 51.8021 86.6823 51.3984 86.8516 51.125C87.0469 50.7995 87.1641 50.5846 87.2031 50.4805C87.1901 50.4154 87.138 50.3242 87.0469 50.207C86.9688 50.1029 86.8385 49.9792 86.6562 49.8359C86.487 49.6797 86.2331 49.4909 85.8945 49.2695C86.4284 49.3477 86.8711 49.4062 87.2227 49.4453C87.5872 49.4844 87.8802 49.5104 88.1016 49.5234C88.362 49.5365 88.5768 49.5365 88.7461 49.5234C88.9154 49.5104 89.1628 49.4974 89.4883 49.4844C89.7617 49.4714 90.1263 49.4583 90.582 49.4453C91.0508 49.4323 91.6497 49.4128 92.3789 49.3867C92.0924 49.5299 91.8451 49.6667 91.6367 49.7969C91.4284 49.9271 91.2526 50.0443 91.1094 50.1484C90.9401 50.2786 90.7904 50.3893 90.6602 50.4805C90.5039 50.6367 90.2174 50.9557 89.8008 51.4375C89.4492 51.8542 88.9479 52.4661 88.2969 53.2734C87.6458 54.0677 86.7734 55.1484 85.6797 56.5156C86.5651 57.4531 87.2812 58.1953 87.8281 58.7422C88.375 59.2891 88.8047 59.7057 89.1172 59.9922C89.4818 60.3307 89.7487 60.5586 89.918 60.6758C90.0742 60.7669 90.2891 60.8841 90.5625 61.0273C90.7969 61.1576 91.1029 61.3203 91.4805 61.5156C91.8581 61.6979 92.3398 61.9193 92.9258 62.1797H89.6641C89.3906 62.1797 89.0586 62.1927 88.668 62.2188C88.3294 62.2448 87.9128 62.2708 87.418 62.2969C86.9232 62.3229 86.3438 62.3685 85.6797 62.4336C85.9141 62.2904 86.0833 62.1536 86.1875 62.0234C86.3047 61.8802 86.3828 61.7565 86.4219 61.6523C86.474 61.5352 86.4805 61.431 86.4414 61.3398C86.3763 61.2096 86.2656 61.0143 86.1094 60.7539C85.9661 60.5326 85.7643 60.2201 85.5039 59.8164C85.2435 59.4128 84.8854 58.8789 84.4297 58.2148C83.9089 58.7747 83.5052 59.2435 83.2188 59.6211C82.9453 59.9857 82.737 60.2786 82.5938 60.5C82.4375 60.7604 82.3333 60.9688 82.2812 61.125C82.2812 61.2682 82.3138 61.4115 82.3789 61.5547C82.444 61.6849 82.5482 61.8281 82.6914 61.9844C82.8477 62.1406 83.0755 62.2904 83.375 62.4336L77.5938 62.6875C78.0625 62.362 78.4531 62.069 78.7656 61.8086C79.0781 61.5352 79.332 61.3073 79.5273 61.125C79.7487 60.9036 79.9245 60.7083 80.0547 60.5391C80.1849 60.3438 80.3867 60.0573 80.6602 59.6797C80.8815 59.3542 81.1875 58.918 81.5781 58.3711C81.9818 57.8242 82.4961 57.1211 83.1211 56.2617C82.431 55.1549 81.8711 54.276 81.4414 53.625C81.0247 52.974 80.6862 52.4727 80.4258 52.1211C80.1263 51.7174 79.9049 51.4375 79.7617 51.2812C79.6315 51.1641 79.4492 51.0339 79.2148 50.8906C79.0195 50.7604 78.7656 50.6042 78.4531 50.4219C78.1406 50.2266 77.7565 49.9987 77.3008 49.7383Z" fill="black"/>
<path d="M49.0977 5.36719C49.6315 5.43229 50.1719 5.47786 50.7188 5.50391C51.2786 5.52995 51.7865 5.54297 52.2422 5.54297C52.776 5.54297 53.2969 5.52995 53.8047 5.50391C54.3255 5.49089 54.8724 5.46484 55.4453 5.42578C55.9401 5.39974 56.5 5.36719 57.125 5.32812C57.75 5.28906 58.401 5.25 59.0781 5.21094L59.1953 6.91016C59.1953 7.02734 59.2018 7.17708 59.2148 7.35938C59.2148 7.51562 59.2148 7.71094 59.2148 7.94531C59.2279 8.17969 59.2409 8.45312 59.2539 8.76562C58.7852 9.16927 58.362 9.55339 57.9844 9.91797C57.6198 10.2695 57.3073 10.582 57.0469 10.8555C56.7344 11.181 56.4609 11.4805 56.2266 11.7539C55.9271 12.1055 55.6081 12.5352 55.2695 13.043C54.931 13.5378 54.612 14.026 54.3125 14.5078C54.026 14.9766 53.7917 15.3997 53.6094 15.7773C53.4271 16.1419 53.349 16.3698 53.375 16.4609C53.388 16.526 53.5182 16.5651 53.7656 16.5781C54.013 16.5781 54.3125 16.5651 54.6641 16.5391C55.0286 16.513 55.4258 16.474 55.8555 16.4219C56.2982 16.3568 56.7083 16.2917 57.0859 16.2266C57.4766 16.1484 57.8216 16.0703 58.1211 15.9922C58.4206 15.9141 58.6159 15.8359 58.707 15.7578C58.8242 15.6536 58.9544 15.4648 59.0977 15.1914C59.2279 14.957 59.3711 14.6315 59.5273 14.2148C59.6966 13.7852 59.8854 13.2122 60.0938 12.4961C60.1068 13.0299 60.1133 13.4857 60.1133 13.8633C60.1263 14.2409 60.1458 14.5599 60.1719 14.8203C60.1849 15.1198 60.2044 15.3672 60.2305 15.5625C60.2435 15.7708 60.2695 16.0052 60.3086 16.2656C60.3346 16.487 60.3672 16.7669 60.4062 17.1055C60.4453 17.444 60.4974 17.8216 60.5625 18.2383C59.625 18.1211 58.8372 18.043 58.1992 18.0039C57.5612 17.9518 57.0469 17.9193 56.6562 17.9062C56.2005 17.8932 55.8359 17.8932 55.5625 17.9062C55.276 17.9453 54.8854 18.0039 54.3906 18.082C53.974 18.1471 53.4206 18.2513 52.7305 18.3945C52.0404 18.5247 51.1745 18.7005 50.1328 18.9219C50.1068 18.6745 50.0807 18.4596 50.0547 18.2773C50.0286 18.0951 50.0026 17.9323 49.9766 17.7891C49.9505 17.6458 49.9245 17.5091 49.8984 17.3789C49.8724 17.2617 49.8398 17.099 49.8008 16.8906C49.7747 16.7083 49.7292 16.487 49.6641 16.2266C49.612 15.9531 49.5469 15.6146 49.4688 15.2109C50.25 14.4036 50.8945 13.7266 51.4023 13.1797C51.9232 12.6198 52.3398 12.1641 52.6523 11.8125C53.0169 11.3958 53.3034 11.0638 53.5117 10.8164C53.707 10.569 53.9609 10.2695 54.2734 9.91797C54.5339 9.61849 54.8724 9.2474 55.2891 8.80469C55.7057 8.34896 56.207 7.80859 56.793 7.18359C56.194 7.15755 55.6341 7.15755 55.1133 7.18359C54.6055 7.20964 54.1628 7.2487 53.7852 7.30078C53.3424 7.35286 52.9323 7.42448 52.5547 7.51562C52.2031 7.61979 51.8451 7.78906 51.4805 8.02344C51.168 8.21875 50.8294 8.49219 50.4648 8.84375C50.1003 9.19531 49.7552 9.65104 49.4297 10.2109C49.4036 9.78125 49.3841 9.41667 49.3711 9.11719C49.3581 8.81771 49.3451 8.57031 49.332 8.375C49.319 8.15365 49.306 7.97135 49.293 7.82812C49.293 7.6849 49.2799 7.49609 49.2539 7.26172C49.2279 7.06641 49.2018 6.81901 49.1758 6.51953C49.1497 6.20703 49.1237 5.82292 49.0977 5.36719Z" fill="black"/>
<path d="M10.207 50.1328C10.7669 50.1849 11.2617 50.224 11.6914 50.25C12.1211 50.276 12.4792 50.3021 12.7656 50.3281C13.1042 50.3542 13.3906 50.3737 13.625 50.3867C13.8594 50.3997 14.1458 50.4062 14.4844 50.4062C14.7708 50.4193 15.1289 50.4258 15.5586 50.4258C15.9883 50.4258 16.4961 50.4258 17.082 50.4258C16.7044 50.6081 16.4115 50.7773 16.2031 50.9336C16.0078 51.0898 15.8581 51.2266 15.7539 51.3438C15.6237 51.487 15.5456 51.6172 15.5195 51.7344C15.5065 51.8385 15.5326 52.0143 15.5977 52.2617C15.6628 52.5091 15.7539 52.7891 15.8711 53.1016C15.9883 53.401 16.1315 53.7201 16.3008 54.0586C16.4701 54.3971 16.6458 54.7031 16.8281 54.9766C17.0234 55.237 17.2188 55.4518 17.4141 55.6211C17.6094 55.7904 17.7982 55.8685 17.9805 55.8555C18.1628 55.8424 18.3841 55.7578 18.6445 55.6016C18.9049 55.4323 19.1719 55.224 19.4453 54.9766C19.7318 54.7292 20.0117 54.4622 20.2852 54.1758C20.5586 53.8893 20.7995 53.6094 21.0078 53.3359C21.2292 53.0625 21.4049 52.8151 21.5352 52.5938C21.6784 52.3594 21.75 52.1901 21.75 52.0859C21.737 51.9557 21.6849 51.806 21.5938 51.6367C21.5156 51.4935 21.3854 51.3242 21.2031 51.1289C21.0208 50.9206 20.7669 50.6862 20.4414 50.4258C21.5091 50.4648 22.2904 50.4844 22.7852 50.4844H23.5078H24.3281C24.6276 50.4844 25.0247 50.4844 25.5195 50.4844C26.0143 50.4714 26.6328 50.4518 27.375 50.4258C26.8672 50.7643 26.4245 51.0703 26.0469 51.3438C25.6823 51.6042 25.3698 51.8255 25.1094 52.0078C24.8099 52.2292 24.5625 52.4245 24.3672 52.5938C24.1458 52.776 23.8398 53.0625 23.4492 53.4531C23.1107 53.7917 22.6615 54.2474 22.1016 54.8203C21.5417 55.3802 20.8385 56.1094 19.9922 57.0078C19.875 57.9583 19.7969 58.7266 19.7578 59.3125C19.7318 59.8984 19.7188 60.3607 19.7188 60.6992C19.7188 61.0898 19.7448 61.3828 19.7969 61.5781C19.862 61.7344 19.9727 61.9167 20.1289 62.125C20.2591 62.3073 20.4414 62.5221 20.6758 62.7695C20.9232 63.0169 21.2487 63.2904 21.6523 63.5898C21.2227 63.4857 20.819 63.4076 20.4414 63.3555C20.0768 63.3034 19.7513 63.2643 19.4648 63.2383C19.1263 63.1992 18.8203 63.1797 18.5469 63.1797C18.2604 63.1797 17.9219 63.1927 17.5312 63.2188C17.1927 63.2448 16.7891 63.2773 16.3203 63.3164C15.8516 63.3555 15.3047 63.4141 14.6797 63.4922C15.0052 63.2708 15.2721 63.0495 15.4805 62.8281C15.6888 62.6068 15.8516 62.4049 15.9688 62.2227C16.112 62.0143 16.2161 61.819 16.2812 61.6367C16.3333 61.4284 16.3724 61.1289 16.3984 60.7383C16.4245 60.3997 16.4245 59.9505 16.3984 59.3906C16.3854 58.8307 16.3464 58.1211 16.2812 57.2617C15.5 56.0117 14.862 55.0286 14.3672 54.3125C13.8724 53.5833 13.4883 53.0299 13.2148 52.6523C12.8893 52.2227 12.6549 51.9362 12.5117 51.793C12.3815 51.6888 12.2057 51.5586 11.9844 51.4023C11.8021 51.2591 11.5677 51.0898 11.2812 50.8945C10.9818 50.6862 10.6237 50.4323 10.207 50.1328Z" fill="black"/>
<path d="M47.5 87L13 71.5M47.5 87C48.149 60.5684 45.2061 48.8453 43 24.5M47.5 87C51.4604 87.7337 64.5162 59.3229 64 58.5" stroke="black" stroke-width="4"/>
<path d="M42.0416 17.9763L49.9893 29.3268L36.1856 30.5345L42.0416 17.9763Z" fill="black"/>
<path d="M65.8424 47.807L71.0331 60.6544L57.3115 58.726L65.8424 47.807Z" fill="black"/>
<path d="M4 65.9282L17.8564 65.9282L10.9282 77.9282L4 65.9282Z" fill="black"/>
</svg>
