<svg width="110" height="58" viewBox="0 0 110 58" fill="none" xmlns="http://www.w3.org/2000/svg">
<line x1="23.7887" y1="17.4516" x2="60.041" y2="0.546839" stroke="black"/>
<line x1="24.2113" y1="0.546846" x2="60.4636" y2="17.4516" stroke="black"/>
<line x1="23.7887" y1="17.4516" x2="60.041" y2="0.546839" stroke="black"/>
<line x1="24.2113" y1="0.546846" x2="60.4636" y2="17.4516" stroke="black"/>
<line x1="0.788691" y1="43.4516" x2="37.041" y2="26.5468" stroke="black"/>
<line x1="1.21131" y1="26.5468" x2="37.4636" y2="43.4516" stroke="black"/>
<line x1="73.0236" y1="43.4516" x2="109.276" y2="26.5468" stroke="black"/>
<line x1="73.4462" y1="26.5468" x2="109.698" y2="43.4516" stroke="black"/>
<line x1="71.7887" y1="22.4516" x2="108.041" y2="5.54684" stroke="black"/>
<line x1="72.2113" y1="5.54685" x2="108.464" y2="22.4516" stroke="black"/>
<line x1="73.0236" y1="43.4516" x2="109.276" y2="26.5468" stroke="black"/>
<line x1="73.4462" y1="26.5468" x2="109.698" y2="43.4516" stroke="black"/>
<path d="M19.5 35C19.5 35 18.5 46 19.5 46.5C20.5 47 49 40.5 49 40.5M49 40.5L55.5 26.5M49 40.5L65 41.5M49 40.5C49 40.5 48 33 48.5 32M55.5 26.5C55.5 26.5 43.5 22 43 21.5C42.5 21 42 8.5 42 8.5M55.5 26.5H70M55.5 26.5L54.5 19.5M65 41.5C65 41.5 87 55 88.5 55.5C90 56 91.5 35 91.5 35M65 41.5L70 26.5M65 41.5L64 32M70 26.5C70 26.5 87.5 25.5 88.5 25C89.5 24.5 90 14 90 14M70 26.5C70 26.5 70 20.5 69 20M48.5 32C48.5 32 54 19.5 54.5 19.5M48.5 32C48.5 32 62.5 32.5 64 32M54.5 19.5L69 20M64 32C65.9526 27.3137 67.0474 24.6863 69 20" stroke="black" stroke-width="3"/>
</svg>
